<svg width="72" height="72" viewBox="0 0 72 72" fill="none" xmlns="http://www.w3.org/2000/svg">
<circle cx="36" cy="36" r="36" fill="#4AAE20"/>
<path d="M36.003 24H35.997C29.3805 24 24 29.382 24 36C24 38.625 24.846 41.058 26.2845 43.0335L24.789 47.4915L29.4015 46.017C31.299 47.274 33.5625 48 36.003 48C42.6195 48 48 42.6165 48 36C48 29.3835 42.6195 24 36.003 24ZM42.9855 40.9455C42.696 41.763 41.547 42.441 40.6305 42.639C40.0035 42.7725 39.1845 42.879 36.4275 41.736C32.901 40.275 30.63 36.6915 30.453 36.459C30.2835 36.2265 29.028 34.5615 29.028 32.8395C29.028 31.1175 29.9025 30.279 30.255 29.919C30.5445 29.6235 31.023 29.4885 31.482 29.4885C31.6305 29.4885 31.764 29.496 31.884 29.502C32.2365 29.517 32.4135 29.538 32.646 30.0945C32.9355 30.792 33.6405 32.514 33.7245 32.691C33.81 32.868 33.8955 33.108 33.7755 33.3405C33.663 33.5805 33.564 33.687 33.387 33.891C33.21 34.095 33.042 34.251 32.865 34.47C32.703 34.6605 32.52 34.8645 32.724 35.217C32.928 35.562 33.633 36.7125 34.671 37.6365C36.0105 38.829 37.0965 39.21 37.485 39.372C37.7745 39.492 38.1195 39.4635 38.331 39.2385C38.5995 38.949 38.931 38.469 39.2685 37.9965C39.5085 37.6575 39.8115 37.6155 40.1295 37.7355C40.4535 37.848 42.168 38.6955 42.5205 38.871C42.873 39.048 43.1055 39.132 43.191 39.2805C43.275 39.429 43.275 40.1265 42.9855 40.9455Z" fill="white"/>
</svg>
