<svg width="80" height="80" viewBox="0 0 80 80" fill="none" xmlns="http://www.w3.org/2000/svg">
<circle cx="40" cy="40" r="39" stroke="#17118B" stroke-width="2"/>
<g clip-path="url(#clip0)">
<path d="M55 30.6991C53.8958 31.1884 52.711 31.5202 51.4662 31.6683C52.7373 30.9072 53.7102 29.6999 54.1713 28.2658C52.9791 28.9707 51.663 29.4825 50.2608 29.7599C49.1379 28.562 47.5407 27.8159 45.7691 27.8159C42.3704 27.8159 39.6147 30.5717 39.6147 33.9685C39.6147 34.4503 39.669 34.9208 39.774 35.3708C34.66 35.1139 30.1252 32.6638 27.0902 28.9407C26.5597 29.848 26.2578 30.9053 26.2578 32.0339C26.2578 34.1691 27.3451 36.0531 28.9949 37.1554C27.9863 37.1217 27.0377 36.8442 26.2073 36.383V36.4599C26.2073 39.4406 28.3294 41.9283 31.1432 42.4944C30.6276 42.6332 30.084 42.71 29.5216 42.71C29.1242 42.71 28.7399 42.6707 28.3631 42.5957C29.1467 45.0421 31.4188 46.8211 34.1108 46.8699C32.0055 48.5196 29.351 49.5 26.4678 49.5C25.9711 49.5 25.4818 49.47 25 49.4157C27.7239 51.1647 30.9576 52.1846 34.4332 52.1846C45.7542 52.1846 51.9425 42.8075 51.9425 34.6753L51.9218 33.8786C53.1309 33.0162 54.177 31.9326 55 30.6991Z" fill="#17118B"/>
</g>
<defs>
<clipPath id="clip0">
<rect width="30" height="30" fill="white" transform="translate(25 25)"/>
</clipPath>
</defs>
</svg>
