<svg width="72" height="72" viewBox="0 0 72 72" fill="none" xmlns="http://www.w3.org/2000/svg">
<circle cx="36" cy="36" r="36" fill="#E8294C"/>
<g clip-path="url(#clip0)">
<path d="M47.9767 31.0561C47.9205 29.7809 47.7142 28.9042 47.4188 28.1445C47.1141 27.3381 46.6453 26.6162 46.031 26.016C45.4308 25.4065 44.7041 24.9329 43.9071 24.6329C43.143 24.3375 42.2709 24.1313 40.9957 24.0751C39.711 24.0141 39.3031 24 36.0447 24C32.7862 24 32.3784 24.0141 31.0984 24.0703C29.8232 24.1266 28.9465 24.333 28.187 24.6282C27.3805 24.9329 26.6585 25.4018 26.0584 26.016C25.4489 26.6162 24.9755 27.3429 24.6753 28.1399C24.3799 28.9042 24.1737 29.7761 24.1174 31.0513C24.0565 32.336 24.0424 32.7439 24.0424 36.0023C24.0424 39.2608 24.0565 39.6686 24.1127 40.9486C24.1689 42.2238 24.3753 43.1005 24.6707 43.8602C24.9755 44.6666 25.4489 45.3885 26.0584 45.9887C26.6585 46.5982 27.3852 47.0718 28.1823 47.3718C28.9465 47.6672 29.8184 47.8734 31.0938 47.9296C32.3736 47.986 32.7817 47.9999 36.0401 47.9999C39.2986 47.9999 39.7064 47.986 40.9864 47.9296C42.2616 47.8734 43.1383 47.6672 43.8978 47.3718C45.5107 46.7482 46.7859 45.4729 47.4095 43.8602C47.7047 43.096 47.9111 42.2238 47.9674 40.9486C48.0236 39.6686 48.0377 39.2608 48.0377 36.0023C48.0377 32.7439 48.0329 32.336 47.9767 31.0561ZM45.8154 40.8549C45.7638 42.027 45.5669 42.6599 45.4028 43.0819C44.9995 44.1274 44.1697 44.9572 43.1242 45.3605C42.7022 45.5246 42.0647 45.7215 40.8972 45.7729C39.6313 45.8293 39.2517 45.8433 36.0494 45.8433C32.8472 45.8433 32.4628 45.8293 31.2015 45.7729C30.0294 45.7215 29.3965 45.5246 28.9745 45.3605C28.4542 45.1682 27.9806 44.8634 27.5962 44.4649C27.1977 44.0758 26.8929 43.6069 26.7006 43.0866C26.5366 42.6647 26.3397 42.027 26.2882 40.8596C26.2318 39.5937 26.2179 39.2139 26.2179 36.0117C26.2179 32.8095 26.2318 32.425 26.2882 31.1639C26.3397 29.9918 26.5366 29.3589 26.7006 28.9369C26.8929 28.4165 27.1977 27.943 27.601 27.5584C27.99 27.1599 28.4588 26.8552 28.9793 26.6631C29.4012 26.499 30.0389 26.3021 31.2063 26.2504C32.4722 26.1942 32.852 26.1801 36.054 26.1801C39.261 26.1801 39.6407 26.1942 40.902 26.2504C42.0741 26.3021 42.707 26.499 43.1289 26.6631C43.6493 26.8552 44.1229 27.1599 44.5073 27.5584C44.9058 27.9476 45.2105 28.4165 45.4028 28.9369C45.5669 29.3589 45.7638 29.9964 45.8154 31.1639C45.8717 32.4298 45.8858 32.8095 45.8858 36.0117C45.8858 39.2139 45.8717 39.589 45.8154 40.8549Z" fill="white"/>
<path d="M36.0445 29.8369C32.6409 29.8369 29.8793 32.5983 29.8793 36.0022C29.8793 39.406 32.6409 42.1674 36.0445 42.1674C39.4484 42.1674 42.2098 39.406 42.2098 36.0022C42.2098 32.5983 39.4484 29.8369 36.0445 29.8369ZM36.0445 40.0014C33.8364 40.0014 32.0453 38.2105 32.0453 36.0022C32.0453 33.7939 33.8364 32.0029 36.0445 32.0029C38.2529 32.0029 40.0438 33.7939 40.0438 36.0022C40.0438 38.2105 38.2529 40.0014 36.0445 40.0014Z" fill="white"/>
<path d="M43.8935 29.5931C43.8935 30.388 43.249 31.0324 42.454 31.0324C41.6591 31.0324 41.0146 30.388 41.0146 29.5931C41.0146 28.7981 41.6591 28.1538 42.454 28.1538C43.249 28.1538 43.8935 28.7981 43.8935 29.5931Z" fill="white"/>
</g>
<defs>
<clipPath id="clip0">
<rect width="24" height="24" fill="white" transform="translate(24 24)"/>
</clipPath>
</defs>
</svg>
