<svg width="11" height="14" viewBox="0 0 11 14" fill="none" xmlns="http://www.w3.org/2000/svg">
<path fill-rule="evenodd" clip-rule="evenodd" d="M3.5407 5.88082C3.13633 7.25347 3.06969 8.1068 3.40351 8.76929C3.33212 10.0525 3.07877 12.0622 1.59537 12.5062C0.625905 12.7962 1.07257 14.2522 2.04266 13.962C3.88401 13.4111 4.57516 11.6987 4.83202 9.97108C5.60343 10.7246 6.57228 12.005 6.61375 13.109C6.64902 14.1088 8.19039 14.0564 8.15491 13.0553C8.0959 11.4999 6.97314 9.90591 5.87803 8.84689L6.33667 5.91911C6.90733 6.33029 7.70638 6.71317 9.14026 6.97955C10.1388 7.16366 10.4213 5.66555 9.42415 5.48185C7.7004 5.1617 7.15573 4.64991 6.64387 4.16887C6.03937 3.60515 5.06784 3.37603 4.25104 3.80677C2.25826 4.69349 1.24196 5.379 0.541523 7.57118C0.23556 8.52918 1.7107 8.98741 2.01625 8.03063C2.37359 6.91214 2.9164 6.30056 3.5407 5.88082ZM6.17182 0C7.08703 0 7.82873 0.732149 7.82873 1.63557C7.82873 2.539 7.08703 3.27115 6.17182 3.27115C5.25661 3.27115 4.51471 2.539 4.51471 1.63557C4.51471 0.732149 5.25661 0 6.17182 0Z" fill="#98B1BE"/>
</svg>
