<?xml version="1.0" encoding="UTF-8"?>
<svg xmlns="http://www.w3.org/2000/svg" width="80" height="80" viewBox="0 0 80 80" fill="none"> <circle cx="40" cy="40" r="38.5" stroke="#00A7D8" stroke-width="3"/> <g clip-path="url(#clip0)"> <path d="M54.9354 48.2445C54.8505 47.9888 54.3107 47.6122 53.3162 47.1155C53.0468 46.9589 52.6629 46.7462 52.1662 46.4762C51.669 46.2063 51.2177 45.9576 50.8132 45.7303C50.4078 45.503 50.028 45.2829 49.6732 45.0701C49.6165 45.0275 49.4389 44.9034 49.1406 44.697C48.8421 44.4911 48.5903 44.3384 48.3839 44.2388C48.178 44.1397 47.9755 44.0899 47.7766 44.0899C47.4926 44.0899 47.1378 44.2924 46.7118 44.697C46.2859 45.102 45.8951 45.542 45.5402 46.0183C45.1852 46.4944 44.8087 46.9344 44.4114 47.3392C44.0135 47.7442 43.6865 47.9465 43.4311 47.9465C43.3029 47.9465 43.1431 47.9108 42.9515 47.8403C42.76 47.7693 42.6143 47.7085 42.5143 47.6594C42.4152 47.6094 42.2452 47.5103 42.0035 47.3606C41.7614 47.2115 41.6268 47.1297 41.5984 47.1155C39.6525 46.0357 37.9837 44.7999 36.5915 43.4083C35.1998 42.0159 33.9638 40.3472 32.8843 38.401C32.8701 38.3726 32.7883 38.2376 32.6392 37.9963C32.49 37.7547 32.3905 37.5845 32.3408 37.4848C32.2911 37.3854 32.2307 37.2398 32.1598 37.048C32.0889 36.8563 32.0533 36.6966 32.0533 36.5686C32.0533 36.3131 32.2558 35.9862 32.6606 35.5885C33.0654 35.1909 33.5059 34.8144 33.9815 34.4595C34.4576 34.1047 34.8976 33.7139 35.3025 33.288C35.7073 32.8618 35.9097 32.5068 35.9097 32.2228C35.9097 32.0241 35.86 31.8215 35.7607 31.6156C35.6613 31.4092 35.5086 31.1574 35.3025 30.859C35.0964 30.5607 34.9721 30.3833 34.9295 30.3262C34.7166 29.9714 34.4967 29.5914 34.2692 29.1866C34.0416 28.7818 33.7933 28.3306 33.5233 27.8335C33.2535 27.3367 33.0406 26.953 32.8841 26.6831C32.3873 25.689 32.0109 25.149 31.7552 25.0641C31.6557 25.0215 31.5065 25 31.3078 25C30.9241 25 30.4235 25.0709 29.8056 25.2131C29.1876 25.3552 28.7012 25.5041 28.3461 25.6606C27.6358 25.9587 26.8831 26.8252 26.0875 28.2596C25.3631 29.5945 25.001 30.9158 25.001 32.2224C25.001 32.6056 25.0258 32.9785 25.0755 33.341C25.1252 33.7032 25.214 34.1116 25.342 34.5662C25.4698 35.0207 25.5728 35.3583 25.6508 35.5782C25.7287 35.7982 25.8743 36.1923 26.0875 36.7607C26.3003 37.3289 26.4283 37.6767 26.4709 37.8045C26.968 39.1966 27.5575 40.4394 28.2392 41.5332C29.3608 43.3513 30.8915 45.2302 32.8303 47.1691C34.7692 49.108 36.6478 50.6386 38.466 51.7607C39.5596 52.4423 40.8028 53.0317 42.1947 53.5292C42.3226 53.5716 42.6705 53.6992 43.2385 53.9128C43.8067 54.1258 44.2009 54.2714 44.4209 54.3496C44.641 54.4278 44.9787 54.5309 45.4328 54.6589C45.8879 54.7869 46.2959 54.8757 46.6581 54.9257C47.0205 54.9748 47.3934 55.0001 47.7767 55.0001C49.0833 55.0001 50.4046 54.6377 51.7398 53.9134C53.174 53.1181 54.0402 52.3652 54.3385 51.6545C54.4954 51.2997 54.644 50.8132 54.786 50.1951C54.9284 49.5774 54.9992 49.0768 54.9992 48.6932C54.9996 48.4937 54.9782 48.3448 54.9354 48.2445Z" fill="#00A7D8"/> </g> <defs> <clipPath id="clip0"> <rect width="30" height="30" fill="white" transform="translate(25 25)"/> </clipPath> </defs> </svg>