<svg width="25" height="18" viewBox="0 0 25 18" fill="none" xmlns="http://www.w3.org/2000/svg">
<path fill-rule="evenodd" clip-rule="evenodd" d="M21.5608 0.537418C22.5934 0.833114 23.4067 1.70433 23.6827 2.8107C24.1843 4.81602 24.1843 9 24.1843 9C24.1843 9 24.1843 13.184 23.6827 15.1891C23.4067 16.2955 22.5934 17.1669 21.5608 17.4626C19.6892 18 12.1842 18 12.1842 18C12.1842 18 4.6793 18 2.80766 17.4626C1.77504 17.1669 0.961706 16.2955 0.685721 15.1891C0.184326 13.184 0.184326 9 0.184326 9C0.184326 9 0.184326 4.81602 0.685721 2.8107C0.961706 1.70433 1.77504 0.833114 2.80766 0.537418C4.6793 0 12.1842 0 12.1842 0C12.1842 0 19.6892 0 21.5608 0.537418ZM16.4844 9.2478L10.2491 13.105V5.39062L16.4844 9.2478Z" fill="#00A7D8"/>
</svg>
