<svg width="80" height="80" viewBox="0 0 80 80" fill="none" xmlns="http://www.w3.org/2000/svg">
<circle cx="40" cy="40" r="39" stroke="#00A7D8" stroke-width="2"/>
<path fill-rule="evenodd" clip-rule="evenodd" d="M54.3117 31.2188C54.5203 30.5163 54.3117 30 53.3191 30H50.0371C49.2025 30 48.8178 30.446 48.6092 30.9377C48.6092 30.9377 46.9403 35.0478 44.5758 37.7175C43.8109 38.4903 43.4632 38.7364 43.0457 38.7364C42.8373 38.7364 42.5353 38.4903 42.5353 37.7878V31.2188C42.5353 30.3756 42.2929 30 41.5976 30H36.4402C35.9188 30 35.6051 30.3913 35.6051 30.7622C35.6051 31.5615 36.7871 31.7458 36.909 33.9939V38.8766C36.909 39.9474 36.7177 40.1413 36.3005 40.1413C35.1878 40.1413 32.4814 36.0132 30.8762 31.2891C30.5616 30.3709 30.2461 30 29.4073 30H26.1253C25.1875 30 25 30.446 25 30.9377C25 31.8159 26.1126 36.1719 30.1807 41.9331C32.8928 45.8672 36.714 48 40.191 48C42.2772 48 42.5353 47.5263 42.5353 46.7104V43.7368C42.5353 42.7895 42.733 42.6005 43.3936 42.6005C43.8803 42.6005 44.7148 42.8463 46.662 44.7432C48.8872 46.9913 49.2543 48 50.506 48H53.788C54.7257 48 55.1945 47.5263 54.924 46.5915C54.6282 45.6598 53.5655 44.3081 52.1559 42.7056C51.3909 41.7924 50.2434 40.809 49.8957 40.3171C49.4088 39.6849 49.5481 39.4036 49.8957 38.8416C49.8957 38.8416 53.8944 33.1509 54.3117 31.2188Z" fill="#00A7D8"/>
</svg>
