<svg width="26" height="15" viewBox="0 0 26 15" fill="none" xmlns="http://www.w3.org/2000/svg">
<path fill-rule="evenodd" clip-rule="evenodd" d="M24.9357 1.01566C25.1096 0.430263 24.9357 0 24.1085 0H21.3735C20.6781 0 20.3575 0.371645 20.1836 0.781382C20.1836 0.781382 18.7928 4.20651 16.8225 6.43125C16.185 7.07526 15.8953 7.28033 15.5474 7.28033C15.3737 7.28033 15.1221 7.07526 15.1221 6.48987V1.01566C15.1221 0.313026 14.9201 0 14.3406 0H10.0428C9.60828 0 9.34689 0.326053 9.34689 0.635132C9.34689 1.30125 10.3319 1.4548 10.4335 3.32822V7.39717C10.4335 8.28947 10.2741 8.45112 9.92632 8.45112C8.99915 8.45112 6.74374 5.01099 5.40612 1.07428C5.14395 0.309079 4.881 0 4.18201 0H1.447C0.665564 0 0.509277 0.371645 0.509277 0.781382C0.509277 1.51322 1.43645 5.14322 4.8265 9.94421C7.0866 13.2227 10.2709 15 13.1685 15C14.907 15 15.1221 14.6053 15.1221 13.9253V11.4474C15.1221 10.6579 15.2868 10.5004 15.8373 10.5004C16.2428 10.5004 16.9383 10.7053 18.561 12.286C20.4153 14.1594 20.7212 15 21.7642 15H24.4993C25.2807 15 25.6714 14.6053 25.446 13.8263C25.1994 13.0498 24.3139 11.9234 23.1392 10.588C22.5017 9.82697 21.5454 9.0075 21.2557 8.59757C20.85 8.07079 20.966 7.83632 21.2557 7.36796C21.2557 7.36796 24.5879 2.62579 24.9357 1.01566Z" fill="#00A7D8"/>
</svg>
