<svg width="16" height="17" viewBox="0 0 16 17" fill="none" xmlns="http://www.w3.org/2000/svg">
<path d="M8 1.00127C3.69935 1.00127 0.195122 4.50551 0.195122 8.80615C0.195122 13.1068 3.69935 16.611 8 16.611C12.3006 16.611 15.8049 13.1068 15.8049 8.80615C15.8049 4.50551 12.3006 1.00127 8 1.00127ZM12.89 4.01173C12.8581 4.02766 12.8422 4.04358 12.8104 4.04358C12.2688 4.31437 11.6794 4.53736 11.0582 4.71257C10.7397 3.82059 10.3096 2.99231 9.7999 2.27554C9.78397 2.24368 9.75212 2.21183 9.72026 2.17997C10.9467 2.49854 12.0299 3.1516 12.89 4.01173ZM10.8034 9.284C10.7715 10.1441 10.6441 10.9724 10.4211 11.7688C9.64062 11.6095 8.82827 11.5299 8 11.5299C7.17173 11.5299 6.34345 11.6095 5.5789 11.7688C5.37183 10.9883 5.22847 10.1601 5.19662 9.284H10.8034ZM5.19662 8.3283C5.22847 7.46817 5.3559 6.6399 5.5789 5.84348C6.35938 6.00277 7.17173 6.08241 8 6.08241C8.82827 6.08241 9.65655 6.00277 10.4211 5.84348C10.6282 6.62397 10.7715 7.45225 10.8034 8.3283H5.19662ZM7.63365 1.9729C7.76108 1.9729 7.87257 1.95697 8 1.95697C8.12743 1.95697 8.23893 1.95697 8.36635 1.9729C8.39821 2.00476 8.41414 2.02069 8.44599 2.05254C9.14684 2.86489 9.73619 3.83652 10.1503 4.9515C9.46541 5.07893 8.74863 5.15857 8.01593 5.15857C7.28323 5.15857 6.56645 5.09485 5.88153 4.9515C6.29567 3.85244 6.86909 2.86489 7.58586 2.05254C7.58586 2.02069 7.61772 2.00476 7.63365 1.9729ZM6.26381 2.17997C6.24789 2.21183 6.21603 2.24368 6.2001 2.27554C5.69039 3.00824 5.27626 3.83652 4.94176 4.7285C4.32056 4.55329 3.73121 4.33029 3.18965 4.05951C3.15779 4.04358 3.14186 4.02766 3.12593 4.02766C3.97013 3.1516 5.05326 2.49854 6.26381 2.17997ZM2.4888 4.76036C2.50473 4.77629 2.53659 4.79222 2.55251 4.79222C3.20558 5.14264 3.90642 5.41342 4.65505 5.63642C4.41613 6.49655 4.2887 7.40446 4.24092 8.34423H1.16675C1.26232 7.00625 1.74017 5.76384 2.4888 4.76036ZM2.4888 12.8519C1.74017 11.8325 1.26232 10.6061 1.16675 9.26807H4.24092C4.27277 10.2078 4.41613 11.1158 4.65505 11.9759C3.90642 12.183 3.20558 12.4697 2.55251 12.8201C2.53659 12.836 2.50473 12.8519 2.4888 12.8519ZM3.11001 13.6006C3.14186 13.5846 3.15779 13.5687 3.17372 13.5687C3.71528 13.2979 4.30463 13.0749 4.92583 12.8997C5.2444 13.7917 5.67447 14.62 6.18417 15.3527C6.2001 15.3846 6.23196 15.4164 6.26381 15.4483C5.05326 15.1138 3.97013 14.4607 3.11001 13.6006ZM8.36635 15.6394C8.23893 15.6394 8.12743 15.6553 8 15.6553C7.87257 15.6553 7.76108 15.6553 7.63365 15.6394C7.60179 15.6075 7.58586 15.5916 7.55401 15.5598C6.85316 14.7474 6.26381 13.7758 5.84968 12.6608C6.5346 12.5334 7.25137 12.4537 7.98407 12.4537C8.71677 12.4537 9.43355 12.5175 10.1185 12.6608C9.70433 13.7599 9.13091 14.7474 8.41414 15.5598C8.41414 15.5916 8.38228 15.6075 8.36635 15.6394ZM9.73619 15.4323C9.76804 15.4005 9.78397 15.3686 9.81583 15.3368C10.3255 14.6041 10.7397 13.7758 11.0742 12.8997C11.6954 13.0749 12.2847 13.2979 12.8263 13.5687C12.8581 13.5847 12.8741 13.6006 12.9059 13.6006C12.0299 14.4607 10.9467 15.1138 9.73619 15.4323ZM13.5112 12.8519C13.4953 12.836 13.4634 12.8201 13.4475 12.8201C12.7944 12.4697 12.0936 12.1989 11.3449 11.9759C11.5839 11.1158 11.7113 10.2078 11.7591 9.26807H14.8333C14.7377 10.6061 14.2598 11.8485 13.5112 12.8519ZM11.7591 8.3283C11.7272 7.38853 11.5839 6.48062 11.3449 5.62049C12.0936 5.41342 12.7944 5.12671 13.4475 4.77629C13.4634 4.76036 13.4953 4.74443 13.5112 4.74443C14.2598 5.76384 14.7377 6.99032 14.8173 8.3283H11.7591Z" fill="white"/>
<path fill-rule="evenodd" clip-rule="evenodd" d="M0 8.80615C0 4.39774 3.59159 0.806152 8 0.806152C12.4084 0.806152 16 4.39774 16 8.80615C16 13.2146 12.4084 16.8062 8 16.8062C3.59159 16.8062 0 13.2146 0 8.80615ZM8 1.1964C3.80712 1.1964 0.390244 4.61327 0.390244 8.80615C0.390244 12.999 3.80712 16.4159 8 16.4159C12.1929 16.4159 15.6098 12.999 15.6098 8.80615C15.6098 4.61327 12.1929 1.1964 8 1.1964ZM8.27723 2.15973C8.18864 2.15223 8.10365 2.1521 8 2.1521C7.94376 2.1521 7.89031 2.15559 7.8298 2.15963L7.82744 2.15979C7.80191 2.16149 7.77507 2.16328 7.74708 2.16475L7.73217 2.18164C7.07986 2.92093 6.54696 3.81169 6.14801 4.80476C6.74911 4.91397 7.37525 4.96345 8.01593 4.96345C8.65287 4.96345 9.27882 4.90207 9.88312 4.80064C9.48422 3.80156 8.94061 2.92575 8.30292 2.18541L8.27723 2.15973ZM8.00447 1.76185C8.12916 1.76185 8.25103 1.76185 8.39055 1.77929L8.45698 1.78759L8.58904 1.91965L8.59373 1.92508C9.30954 2.75477 9.9109 3.7465 10.3332 4.88356L10.414 5.10092L10.186 5.14333C9.49154 5.27253 8.76266 5.35369 8.01593 5.35369C7.2721 5.35369 6.54171 5.28902 5.84156 5.14248L5.61864 5.09582L5.69894 4.8827C6.1148 3.77907 6.68992 2.78212 7.41085 1.95616C7.42583 1.92162 7.44515 1.8983 7.45389 1.88781C7.45742 1.88357 7.46117 1.87926 7.46328 1.87683L7.46388 1.87614L7.51306 1.77778H7.63365C7.68989 1.77778 7.74334 1.77428 7.80385 1.77025L7.80621 1.77009C7.86456 1.7662 7.92976 1.76185 8 1.76185L8.00447 1.76185ZM9.07516 1.81082L9.76931 1.99111C11.0317 2.31902 12.145 2.99079 13.028 3.87376L13.2194 4.06518L12.9773 4.18625C12.9749 4.18742 12.9723 4.18888 12.9661 4.19244L12.9646 4.19329C12.9593 4.19637 12.9486 4.20255 12.9374 4.20815C12.9185 4.21761 12.8956 4.22686 12.8684 4.23267C12.3227 4.50296 11.7318 4.72534 11.1112 4.90037L10.9358 4.94985L10.8745 4.7782C10.5616 3.90225 10.1397 3.09007 9.64089 2.38862L9.63213 2.37631L9.62667 2.36538C9.62667 2.36538 9.62361 2.36127 9.61921 2.35624C9.61033 2.34609 9.5992 2.33485 9.58229 2.31794L9.07516 1.81082ZM12.5483 3.95396C11.8803 3.33716 11.089 2.84543 10.2098 2.53389C10.5897 3.12613 10.9175 3.78038 11.1787 4.47434C11.6597 4.3302 12.1188 4.15664 12.5483 3.95396ZM6.63119 1.88153L6.43834 2.26723C6.42882 2.28626 6.41842 2.3024 6.41017 2.3144C6.40237 2.32574 6.3943 2.3365 6.38879 2.34385L6.38805 2.34483C6.38163 2.3534 6.37813 2.35812 6.37532 2.36219L6.37375 2.36454L6.36832 2.3754L6.36028 2.38697C5.86153 3.10392 5.45441 3.91715 5.12446 4.79701L5.06147 4.965L4.88879 4.9163C4.25714 4.73814 3.65614 4.51091 3.10239 4.23404C3.09458 4.23013 3.08751 4.22632 3.08123 4.22278H2.66693L2.98543 3.89226C3.85366 2.99127 4.96791 2.31923 6.21416 1.99127L6.63119 1.88153ZM3.45756 3.97266C3.88612 4.17449 4.34404 4.34736 4.82368 4.49098C5.09581 3.79283 5.41841 3.13285 5.7997 2.52714C4.91837 2.83984 4.1207 3.33847 3.45756 3.97266ZM2.60148 4.59709L2.46728 4.46289L2.33241 4.64368C1.5616 5.67689 1.07037 6.95492 0.972124 8.33033L0.957193 8.53935H4.42637L4.43579 8.35414C4.48301 7.42532 4.60878 6.53205 4.84306 5.68864L4.89432 5.50409L4.71076 5.44941C3.97148 5.2292 3.2835 4.96301 2.64477 4.62028L2.60148 4.59709ZM13.4509 4.99537C12.8657 5.30228 12.2431 5.55919 11.5832 5.75515C11.781 6.51614 11.9054 7.31229 11.9462 8.13318H14.6069C14.5004 6.97342 14.0853 5.90492 13.4509 4.99537ZM13.3921 4.57986C13.41 4.57092 13.4559 4.54931 13.5112 4.54931H13.61L13.6685 4.62894C14.4379 5.67672 14.9301 6.93889 15.0121 8.31671L15.0244 8.52343H11.5705L11.5641 8.33491C11.5327 7.41072 11.3918 6.51811 11.1569 5.67271L11.1047 5.4845L11.2929 5.43243C12.0203 5.23124 12.7018 4.95336 13.3376 4.6138C13.3567 4.59911 13.376 4.5879 13.3921 4.57986ZM2.54816 5.0107C1.91523 5.90676 1.49899 6.98684 1.37957 8.14911H4.05652C4.10756 7.32971 4.22071 6.53226 4.4178 5.76811C3.76003 5.56317 3.13636 5.31813 2.54816 5.0107ZM10.5623 5.61476L10.6097 5.79345C10.8198 6.58546 10.9659 7.42827 10.9984 8.32121L11.0057 8.52343H4.99413L5.00163 8.32108C5.03403 7.44622 5.16369 6.60268 5.391 5.79087L5.43997 5.61599L5.61791 5.6523C6.38494 5.80884 7.18418 5.88729 8 5.88729C8.81623 5.88729 9.63108 5.80876 10.3813 5.65246L10.5623 5.61476ZM5.71981 6.0699C5.54649 6.73466 5.44012 7.42234 5.40092 8.13318H10.599C10.5583 7.41349 10.4421 6.72618 10.2782 6.07086C9.5512 6.20884 8.77501 6.27753 8 6.27753C7.2226 6.27753 6.45826 6.20841 5.71981 6.0699ZM0.957193 9.07295H4.42954L4.43593 9.26147C4.46725 10.1857 4.60822 11.0783 4.84306 11.9237L4.89534 12.1119L4.70707 12.1639C3.97971 12.3651 3.2982 12.643 2.66242 12.9826C2.64326 12.9973 2.62399 13.0085 2.60792 13.0165C2.59003 13.0255 2.54413 13.0471 2.4888 13.0471H2.39001L2.33153 12.9674C1.56204 11.9196 1.07042 10.6582 0.972124 9.28198L0.957193 9.07295ZM1.37959 9.4632C1.49898 10.6235 1.91505 11.692 2.54912 12.601C3.1343 12.2941 3.75689 12.0372 4.41681 11.8412C4.21903 11.0802 4.09458 10.2841 4.05378 9.4632H1.37959ZM11.5736 9.07295H15.0428L15.0279 9.28198C14.9296 10.6574 14.4384 11.9354 13.6676 12.9686L13.5327 13.1494L13.3985 13.0152L13.3552 12.992C12.7165 12.6493 12.0285 12.3831 11.2892 12.1629L11.1057 12.1082L11.1569 11.9237C11.3912 11.0803 11.517 10.187 11.5642 9.25817L11.5736 9.07295ZM11.9435 9.4632C11.8924 10.2826 11.7793 11.0801 11.5822 11.8442C12.24 12.0491 12.8636 12.2942 13.4518 12.6016C14.0848 11.7055 14.501 10.6255 14.6204 9.4632H11.9435ZM4.99427 9.08888H11.0059L10.9984 9.29122C10.966 10.1661 10.8363 11.0096 10.609 11.8214L10.56 11.9963L10.3821 11.96C9.61506 11.8035 8.81582 11.725 8 11.725C7.18377 11.725 6.36892 11.8035 5.61869 11.9598L5.43771 11.9975L5.3903 11.8189C5.18017 11.0268 5.03409 10.184 5.00162 9.29109L4.99427 9.08888ZM5.40101 9.47913C5.44171 10.1988 5.55788 10.8861 5.72179 11.5414C6.4488 11.4035 7.22499 11.3348 8 11.3348C8.7774 11.3348 9.54174 11.4039 10.2802 11.5424C10.4535 10.8776 10.5599 10.19 10.5991 9.47913H5.40101ZM6.11688 12.8117C6.51578 13.8107 7.05939 14.6866 7.69708 15.4269L7.72277 15.4526C7.81136 15.4601 7.89635 15.4602 8 15.4602C8.05624 15.4602 8.10969 15.4567 8.1702 15.4527L8.17256 15.4525C8.19809 15.4508 8.22493 15.449 8.25293 15.4476L8.26783 15.4307C8.92015 14.6914 9.45304 13.8006 9.85199 12.8075C9.25089 12.6983 8.62475 12.6489 7.98407 12.6489C7.34713 12.6489 6.72118 12.7102 6.11688 12.8117ZM5.81399 12.469C6.50846 12.3398 7.23734 12.2586 7.98407 12.2586C8.7279 12.2586 9.4583 12.3233 10.1584 12.4698L10.3814 12.5165L10.3011 12.7296C9.8852 13.8332 9.31008 14.8302 8.58916 15.6561C8.57417 15.6907 8.55486 15.714 8.54611 15.7245C8.54258 15.7287 8.53883 15.7331 8.53672 15.7355L8.53613 15.7362L8.48694 15.8345H8.36635C8.31011 15.8345 8.25667 15.838 8.19616 15.8421L8.19379 15.8422C8.13544 15.8461 8.07024 15.8505 8 15.8505H7.99554C7.87084 15.8505 7.74897 15.8505 7.60945 15.833L7.54302 15.8247L7.41096 15.6927L7.40627 15.6872C6.69046 14.8575 6.0891 13.8658 5.66676 12.7287L5.58603 12.5114L5.81399 12.469ZM5.04829 12.6625L5.10959 12.8341C5.42237 13.7099 5.84452 14.5228 6.34435 15.2413L6.35239 15.2528L6.3574 15.2629C6.3574 15.2629 6.36047 15.267 6.36486 15.272C6.37374 15.2821 6.38487 15.2934 6.40179 15.3103L6.92484 15.8334L6.21185 15.6363C4.96731 15.2925 3.85492 14.6214 2.97203 13.7386L2.78061 13.5471L3.02274 13.4261C3.02688 13.424 3.02828 13.4231 3.03257 13.4204C3.03553 13.4186 3.03987 13.4159 3.04745 13.4114C3.05422 13.4073 3.06894 13.3986 3.08723 13.391C3.09306 13.3886 3.09982 13.3861 3.10743 13.3837C3.65538 13.1116 4.24918 12.8878 4.87287 12.7119L5.04829 12.6625ZM3.44629 13.6534C4.11302 14.2704 4.90253 14.7638 5.77267 15.0852C5.39373 14.4855 5.06641 13.8315 4.80538 13.138C4.32835 13.2809 3.87281 13.4528 3.44629 13.6534ZM10.9555 12.6635L11.1271 12.7119C11.7588 12.8901 12.3598 13.1173 12.9135 13.3942C12.9216 13.3982 12.9288 13.4021 12.9347 13.4055H13.3832L13.0426 13.7398C12.1447 14.6214 11.0323 15.293 9.78585 15.621L9.08787 15.8047L9.59822 15.2944C9.60303 15.2895 9.60734 15.2842 9.61991 15.2675L9.62142 15.2655C9.63079 15.253 9.64516 15.2338 9.66414 15.2131C10.1591 14.499 10.5636 13.6898 10.8919 12.8301L10.9555 12.6635ZM10.2208 15.0779C11.0911 14.7663 11.8833 14.2746 12.5619 13.6573C12.1321 13.4546 11.6726 13.281 11.1913 13.137C10.9205 13.8204 10.5997 14.4752 10.2208 15.0779Z" fill="white"/>
</svg>
