<svg width="163" height="84" viewBox="0 0 163 84" fill="none" xmlns="http://www.w3.org/2000/svg">
<path d="M0 48.1067C0 40.227 6.08252 34.7666 14.2386 34.7666C16.6578 34.7666 18.9388 35.2504 20.8741 36.2181V42.7153C19.0079 41.6094 17.1416 40.8491 14.3077 40.8491C10.0223 40.8491 6.77371 43.8904 6.77371 48.1067C6.77371 52.3921 10.0915 55.3642 14.5842 55.3642C17.0725 55.3642 19.2843 54.8804 21.3579 53.2906V59.7879C19.3535 60.8247 16.8652 61.3776 14.3077 61.3776C6.15164 61.4468 0 55.9863 0 48.1067Z" fill="#00A7D8"/>
<path d="M25.7817 35.251H37.8085C43.5455 35.251 47.0706 38.5687 47.0706 43.1997C47.0706 46.5175 45.2043 49.144 42.094 50.3882L49.8353 60.8943H42.2322L35.0438 51.1485H32.4172V60.9634H25.8509V35.251H25.7817ZM37.5321 45.7571C39.3292 45.7571 40.4351 44.8586 40.4351 43.338C40.4351 41.8173 39.3292 40.8497 37.5321 40.8497H32.4172V45.7571H37.5321Z" fill="#00A7D8"/>
<path d="M85.5006 35.251H91.0993L102.366 49.3514V35.251H108.794V60.8943H103.333L91.9979 46.7248V60.8943H85.5006V35.251Z" fill="#17118B"/>
<path d="M113.287 48.1067C113.287 40.227 119.37 34.7666 127.526 34.7666C129.945 34.7666 132.226 35.2504 134.161 36.2181V42.7153C132.295 41.6094 130.429 40.8491 127.595 40.8491C123.309 40.8491 120.061 43.8904 120.061 48.1067C120.061 52.3921 123.379 55.3642 127.871 55.3642C130.36 55.3642 132.571 54.8804 134.645 53.2906V59.7879C132.641 60.8247 130.152 61.3776 127.595 61.3776C119.439 61.4468 113.287 55.9863 113.287 48.1067Z" fill="#17118B"/>
<path d="M139.068 35.251H145.704V44.3748H155.38V35.251H161.947V60.8943H155.38V50.2499H145.704V60.8943H139.068V35.251Z" fill="#17118B"/>
<path d="M63.7281 55.3648C61.2398 55.3648 59.0971 53.9824 59.0971 50.5264V35.251H52.5308V50.1808C52.5308 57.5766 57.5765 61.4473 63.7972 61.4473V55.3648H63.7281Z" fill="#00A7D8"/>
<path d="M69.6726 55.3648C72.1609 55.3648 74.3036 53.9824 74.3036 50.5264V35.251H80.87V50.1808C80.87 57.5766 75.8243 61.4473 69.6035 61.4473V55.3648H69.6726Z" fill="#17118B"/>
<path d="M25.5051 0H35.7348C44.0983 0 49.9043 5.25308 49.9043 12.8562C49.9043 20.4594 44.0983 25.7125 35.7348 25.7125H25.5051V0ZM35.251 19.8373C40.2276 19.8373 43.0615 17.2799 43.0615 12.7871C43.0615 8.29434 40.2276 5.73692 35.251 5.73692H32.0715V19.8373H35.251Z" fill="#00A7D8"/>
<path d="M1.5896 0V25.6433H21.0813V19.8373H8.15595V15.7593H21.0813V9.95321H8.15595V5.80604H21.0813V0H1.5896Z" fill="#00A7D8"/>
<path d="M63.4999 70.5H1.49994V79.5H63.4999V70.5Z" fill="#00A7D8"/>
<path d="M74.8033 79.4701C73.7291 79.4701 72.7859 79.2911 71.9737 78.933C71.1615 78.5662 70.5327 78.0509 70.0873 77.3872C69.6419 76.7147 69.4192 75.9331 69.4192 75.0423V74.9768C69.4192 74.086 69.6419 73.3087 70.0873 72.645C70.5327 71.9725 71.1615 71.4529 71.9737 71.0861C72.7859 70.7193 73.7291 70.5359 74.8033 70.5359C75.8164 70.5359 76.7203 70.6975 77.515 71.0206C78.3185 71.3437 78.9429 71.7979 79.3883 72.383C79.8424 72.9594 80.0695 73.6144 80.0695 74.348V74.4397H77.384V74.348C77.384 73.9288 77.1482 73.5969 76.6766 73.3524C76.2137 73.1079 75.5849 72.9856 74.7902 72.9856C73.8819 72.9856 73.2051 73.1472 72.7597 73.4703C72.323 73.7934 72.1047 74.2869 72.1047 74.9506V75.0816C72.1047 75.7453 72.323 76.2344 72.7597 76.5488C73.1964 76.8632 73.8776 77.0204 74.8033 77.0204C75.6242 77.0204 76.2574 76.9069 76.7028 76.6798C77.1569 76.444 77.384 76.1121 77.384 75.6842V75.5925H80.0695V75.6842C80.0695 76.4091 79.8424 77.0597 79.3883 77.6361C78.9429 78.2125 78.3185 78.6623 77.515 78.9854C76.7203 79.3085 75.8164 79.4701 74.8033 79.4701ZM87.4975 79.4701C86.4408 79.4701 85.5107 79.2911 84.7072 78.933C83.9037 78.5662 83.2793 78.0466 82.8339 77.3741C82.3972 76.7016 82.1789 75.9244 82.1789 75.0423V74.9768C82.1789 74.0947 82.3972 73.3175 82.8339 72.645C83.2793 71.9725 83.9037 71.4529 84.7072 71.0861C85.5107 70.7193 86.4408 70.5359 87.4975 70.5359C88.5717 70.5359 89.5105 70.7193 90.314 71.0861C91.1175 71.4529 91.7375 71.9725 92.1742 72.645C92.6109 73.3087 92.8292 74.086 92.8292 74.9768V75.0423C92.8292 75.9331 92.6109 76.7147 92.1742 77.3872C91.7375 78.0509 91.1175 78.5662 90.314 78.933C89.5105 79.2911 88.5717 79.4701 87.4975 79.4701ZM87.4975 77.0204C88.4058 77.0204 89.0739 76.8632 89.5018 76.5488C89.9297 76.2257 90.1437 75.7366 90.1437 75.0816V74.9506C90.1437 73.6406 89.2616 72.9856 87.4975 72.9856C86.6329 72.9856 85.9779 73.1515 85.5325 73.4834C85.0871 73.8153 84.8644 74.3043 84.8644 74.9506V75.0816C84.8644 75.7366 85.0827 76.2257 85.5194 76.5488C85.9561 76.8632 86.6154 77.0204 87.4975 77.0204ZM104.448 70.7062V79.2998H102.012L97.859 74.4397V79.2998H95.3962V70.7062H97.8459L101.985 75.5532V70.7062H104.448ZM115.404 70.7062V73.0642H110.073V74.0598H115.142V76.4178H110.073V79.2998H107.439V70.7062H115.404ZM126.436 77.2431V79.2998H117.921V77.2955L122.427 74.8065C122.916 74.5358 123.244 74.3174 123.41 74.1515C123.584 73.9856 123.672 73.8065 123.672 73.6144V73.5096C123.672 73.2389 123.541 73.0336 123.279 72.8939C123.017 72.7542 122.637 72.6843 122.139 72.6843C121.58 72.6843 121.152 72.7847 120.855 72.9856C120.567 73.1777 120.423 73.4616 120.423 73.8371V74.0991H117.895V73.824C117.895 71.6319 119.296 70.5359 122.1 70.5359C123.436 70.5359 124.475 70.7848 125.218 71.2826C125.96 71.7717 126.331 72.4572 126.331 73.3393V73.4703C126.331 74.0205 126.13 74.5401 125.728 75.0292C125.327 75.5095 124.685 75.9899 123.803 76.4702L122.388 77.2431H126.436ZM133.705 79.4701C132.727 79.4701 131.862 79.2954 131.111 78.9461C130.36 78.5968 129.775 78.1077 129.356 77.4789C128.945 76.8501 128.74 76.1252 128.74 75.3043V74.7148C128.74 73.8939 128.945 73.169 129.356 72.5402C129.775 71.9027 130.36 71.4092 131.111 71.0599C131.862 70.7106 132.727 70.5359 133.705 70.5359C134.683 70.5359 135.543 70.7106 136.285 71.0599C137.028 71.4092 137.604 71.8983 138.015 72.5271C138.425 73.1559 138.63 73.8851 138.63 74.7148V75.3043C138.63 76.134 138.425 76.8632 138.015 77.492C137.613 78.1208 137.037 78.6099 136.285 78.9592C135.543 79.2998 134.683 79.4701 133.705 79.4701ZM133.705 77.0204C134.5 77.0204 135.08 76.885 135.447 76.6143C135.814 76.3436 135.997 75.92 135.997 75.3436V74.6886C135.997 73.5533 135.229 72.9856 133.692 72.9856C132.923 72.9856 132.342 73.1297 131.949 73.4179C131.565 73.7061 131.373 74.1297 131.373 74.6886V75.3436C131.373 75.9113 131.565 76.3348 131.949 76.6143C132.334 76.885 132.919 77.0204 133.705 77.0204ZM149.653 77.2431V79.2998H141.138V77.2955L145.644 74.8065C146.133 74.5358 146.46 74.3174 146.626 74.1515C146.801 73.9856 146.888 73.8065 146.888 73.6144V73.5096C146.888 73.2389 146.757 73.0336 146.495 72.8939C146.233 72.7542 145.854 72.6843 145.356 72.6843C144.797 72.6843 144.369 72.7847 144.072 72.9856C143.784 73.1777 143.64 73.4616 143.64 73.8371V74.0991H141.111V73.824C141.111 71.6319 142.513 70.5359 145.316 70.5359C146.653 70.5359 147.692 70.7848 148.434 71.2826C149.177 71.7717 149.548 72.4572 149.548 73.3393V73.4703C149.548 74.0205 149.347 74.5401 148.945 75.0292C148.543 75.5095 147.901 75.9899 147.019 76.4702L145.605 77.2431H149.653ZM156.921 79.4701C155.943 79.4701 155.079 79.2954 154.328 78.9461C153.577 78.5968 152.991 78.1077 152.572 77.4789C152.162 76.8501 151.957 76.1252 151.957 75.3043V74.7148C151.957 73.8939 152.162 73.169 152.572 72.5402C152.991 71.9027 153.577 71.4092 154.328 71.0599C155.079 70.7106 155.943 70.5359 156.921 70.5359C157.9 70.5359 158.76 70.7106 159.502 71.0599C160.245 71.4092 160.821 71.8983 161.231 72.5271C161.642 73.1559 161.847 73.8851 161.847 74.7148V75.3043C161.847 76.134 161.642 76.8632 161.231 77.492C160.83 78.1208 160.253 78.6099 159.502 78.9592C158.76 79.2998 157.9 79.4701 156.921 79.4701ZM156.921 77.0204C157.716 77.0204 158.297 76.885 158.664 76.6143C159.031 76.3436 159.214 75.92 159.214 75.3436V74.6886C159.214 73.5533 158.445 72.9856 156.908 72.9856C156.14 72.9856 155.559 73.1297 155.166 73.4179C154.782 73.7061 154.59 74.1297 154.59 74.6886V75.3436C154.59 75.9113 154.782 76.3348 155.166 76.6143C155.55 76.885 156.135 77.0204 156.921 77.0204Z" fill="#17118B"/>
</svg>
