<?xml version="1.0" encoding="UTF-8"?>
<svg xmlns="http://www.w3.org/2000/svg" viewBox="0 0 4769.15 31.18"> <defs> <style>.cls-1{fill:#fff;}</style> </defs> <g id="Слой_2" data-name="Слой 2"> <g id="Слой_1-2" data-name="Слой 1"> <rect class="cls-1" y="1.44" width="1.76" height="23.62"/> <polygon class="cls-1" points="4.72 12.46 4.72 14.04 20.09 14.04 20.09 25.06 21.85 25.06 21.85 1.44 20.09 1.44 20.09 12.46 4.72 12.46"/> <path class="cls-1" d="M36.59,8.68V7.13c-5.51.5-8.89,3.74-8.89,8.78v.76c0,4.93,3.38,8.17,8.89,8.67V23.76c-4.43-.47-7.17-3.06-7.17-7.13v-.72C29.42,11.81,32.09,9.18,36.59,8.68Z"/> <path class="cls-1" d="M39.54,7.13V8.71c4.39.47,7.06,3.17,7.06,7.2v.72c0,4-2.7,6.7-7.06,7.13v1.58c5.44-.5,8.78-3.74,8.78-8.67v-.76C48.32,10.91,45,7.63,39.54,7.13Z"/> <polygon class="cls-1" points="61.36 25.06 53.23 7.42 51.46 7.42 51.46 7.7 59.45 25.06 61.36 25.06"/> <polygon class="cls-1" points="77.45 25.06 69.5 7.42 67.81 7.42 62.12 19.51 63.02 21.6 68.67 9.54 75.65 25.06 77.45 25.06"/> <polygon class="cls-1" points="78.28 19.62 79.11 21.6 85.84 7.7 85.84 7.42 84.15 7.42 78.28 19.62"/> <polygon class="cls-1" points="88.06 30.2 89.68 30.2 92.7 21.6 92.7 21.31 90.79 21.31 88.06 30.2"/> <polygon class="cls-1" points="121.28 25.06 111.84 1.44 110.04 1.44 110.04 1.73 119.4 25.06 121.28 25.06"/> <polygon class="cls-1" points="122.93 21.31 130.17 3.74 138.77 25.06 140.61 25.06 131.14 1.44 129.2 1.44 122 18.86 122.93 21.31"/> <polygon class="cls-1" points="141.36 18.86 142.3 21.31 150.26 1.73 150.26 1.44 148.46 1.44 141.36 18.86"/> <rect class="cls-1" x="154.79" width="1.69" height="25.06"/> <path class="cls-1" d="M159.43,8.5v1.65a8.17,8.17,0,0,1,4.86-1.55c5,0,7.7,2.49,7.7,7.13v9.33h1.7V15.73c0-5.69-3.24-8.71-9.18-8.71A9,9,0,0,0,159.43,8.5Z"/> <path class="cls-1" d="M190.6,7.13V8.71c4,.47,6.56,2.92,6.66,6.63H180.67c.14-3.71,2.77-6.16,7-6.63V7.13c-5.36.5-8.75,3.78-8.75,8.71v.83c0,4.89,3.35,8.17,8.75,8.67V23.76c-4.32-.47-7-3-7-7H199V15.73C199,10.84,195.79,7.63,190.6,7.13Z"/> <path class="cls-1" d="M190.6,23.8v1.54c5-.39,8.28-2.88,8.43-6.58h-1.8C197.16,21.49,194.56,23.44,190.6,23.8Z"/> <path class="cls-1" d="M209.18,8.5v1.65A8.14,8.14,0,0,1,214,8.6c5,0,7.7,2.49,7.7,7.13v9.33h1.69V15.73c0-5.69-3.24-8.71-9.18-8.71A9,9,0,0,0,209.18,8.5Z"/> <rect class="cls-1" x="204.53" y="7.42" width="1.69" height="17.64"/> <path class="cls-1" d="M252.64,2.7V1.15c-4.46.33-7.24,2.23-7.24,5.11v.29c0,2,1,3.17,4.18,5.22L270,25.06h2.52v-.29L250.55,10.48c-2.52-1.66-3.42-2.56-3.42-3.93V6.23C247.13,4.21,249.15,3,252.64,2.7Z"/> <path class="cls-1" d="M256.74,11l1.48,1c3.56-1.44,4.75-2.85,4.75-5.22V6.41c0-2.88-2.91-4.93-7.38-5.26V2.7c3.49.29,5.65,1.73,5.65,3.74v.33C261.24,8.6,260.27,9.61,256.74,11Z"/> <polygon class="cls-1" points="265.67 16.81 267.07 17.75 272.83 12.13 272.83 11.88 270.71 11.88 265.67 16.81"/> <path class="cls-1" d="M261.1,22.86l-1.62-1.08A10.77,10.77,0,0,1,253,23.87c-5.08,0-8.06-1.62-8.06-4.43v-.36c0-1.66,1-2.56,4.35-3.92l-1.44-1c-3.45,1.52-4.64,2.88-4.64,5v.36c0,3.64,3.78,5.94,9.83,5.94A13.23,13.23,0,0,0,261.1,22.86Z"/> <polygon class="cls-1" points="298.57 25.06 289.14 1.44 287.34 1.44 287.34 1.73 296.7 25.06 298.57 25.06"/> <polygon class="cls-1" points="300.23 21.31 307.46 3.74 316.06 25.06 317.9 25.06 308.43 1.44 306.49 1.44 299.29 18.86 300.23 21.31"/> <polygon class="cls-1" points="318.66 18.86 319.59 21.31 327.55 1.73 327.55 1.44 325.75 1.44 318.66 18.86"/> <rect class="cls-1" x="332.08" width="1.69" height="25.06"/> <path class="cls-1" d="M336.72,8.5v1.65a8.19,8.19,0,0,1,4.86-1.55c5,0,7.71,2.49,7.71,7.13v9.33H351V15.73C351,10,347.74,7,341.8,7A9,9,0,0,0,336.72,8.5Z"/> <polygon class="cls-1" points="363.1 22.21 364 20.41 356.9 7.42 355.14 7.42 355.14 7.7 363.1 22.21"/> <path class="cls-1" d="M374.44,7.42,363.78,26.93c-1.19,2.16-2.19,2.73-4.68,2.73h-2.66v1.52h2.66c3.49,0,4.9-1.08,6.3-3.68L376.2,7.7V7.42Z"/> <path class="cls-1" d="M388,2.7V1.15c-4.89.4-7.84,2.95-7.84,6.91v.76h1.65V8.06C381.79,5,384.1,3.1,388,2.7Z"/> <path class="cls-1" d="M390.94,1.15V2.7c3.6.36,5.76,2.05,5.76,4.64V7.7c0,1.73-1,2.85-4.29,4.72-3.09,1.76-4.07,3.13-4.07,5.76v1.44h1.59V18.18c0-2.05.86-3.17,3.81-4.82,3.42-1.95,4.68-3.46,4.68-5.62V7.31C398.42,4,395.44,1.58,390.94,1.15Z"/> <path class="cls-1" d="M389.14,25.45a1.28,1.28,0,1,0,0-2.55,1.28,1.28,0,1,0,0,2.55Z"/> <rect class="cls-1" x="485.64" y="1.44" width="1.76" height="23.62"/> <polygon class="cls-1" points="490.35 12.46 490.35 14.04 505.72 14.04 505.72 25.06 507.49 25.06 507.49 1.44 505.72 1.44 505.72 12.46 490.35 12.46"/> <path class="cls-1" d="M522.22,8.68V7.13c-5.5.5-8.89,3.74-8.89,8.78v.76c0,4.93,3.39,8.17,8.89,8.67V23.76c-4.42-.47-7.16-3.06-7.16-7.13v-.72C515.06,11.81,517.72,9.18,522.22,8.68Z"/> <path class="cls-1" d="M525.18,7.13V8.71c4.39.47,7.05,3.17,7.05,7.2v.72c0,4-2.7,6.7-7.05,7.13v1.58c5.43-.5,8.78-3.74,8.78-8.67v-.76C534,10.91,530.61,7.63,525.18,7.13Z"/> <polygon class="cls-1" points="547 25.06 538.86 7.42 537.1 7.42 537.1 7.7 545.09 25.06 547 25.06"/> <polygon class="cls-1" points="563.09 25.06 555.13 7.42 553.44 7.42 547.75 19.51 548.65 21.6 554.31 9.54 561.29 25.06 563.09 25.06"/> <polygon class="cls-1" points="563.92 19.62 564.75 21.6 571.48 7.7 571.48 7.42 569.79 7.42 563.92 19.62"/> <polygon class="cls-1" points="573.69 30.2 575.31 30.2 578.34 21.6 578.34 21.31 576.43 21.31 573.69 30.2"/> <polygon class="cls-1" points="606.91 25.06 597.48 1.44 595.68 1.44 595.68 1.73 605.04 25.06 606.91 25.06"/> <polygon class="cls-1" points="608.57 21.31 615.8 3.74 624.41 25.06 626.24 25.06 616.78 1.44 614.83 1.44 607.63 18.86 608.57 21.31"/> <polygon class="cls-1" points="627 18.86 627.94 21.31 635.89 1.73 635.89 1.44 634.09 1.44 627 18.86"/> <rect class="cls-1" x="640.42" width="1.69" height="25.06"/> <path class="cls-1" d="M645.07,8.5v1.65a8.14,8.14,0,0,1,4.86-1.55c5,0,7.7,2.49,7.7,7.13v9.33h1.69V15.73c0-5.69-3.24-8.71-9.18-8.71A9,9,0,0,0,645.07,8.5Z"/> <path class="cls-1" d="M676.24,7.13V8.71c4,.47,6.55,2.92,6.66,6.63H666.3c.15-3.71,2.77-6.16,7-6.63V7.13c-5.37.5-8.75,3.78-8.75,8.71v.83c0,4.89,3.35,8.17,8.75,8.67V23.76c-4.32-.47-7-3-7-7h18.36V15.73C684.66,10.84,681.42,7.63,676.24,7.13Z"/> <path class="cls-1" d="M676.24,23.8v1.54c5-.39,8.28-2.88,8.42-6.58h-1.8C682.79,21.49,680.2,23.44,676.24,23.8Z"/> <path class="cls-1" d="M694.81,8.5v1.65a8.19,8.19,0,0,1,4.86-1.55c5,0,7.71,2.49,7.71,7.13v9.33h1.69V15.73c0-5.69-3.24-8.71-9.18-8.71A9,9,0,0,0,694.81,8.5Z"/> <rect class="cls-1" x="690.17" y="7.42" width="1.69" height="17.64"/> <path class="cls-1" d="M738.28,2.7V1.15c-4.47.33-7.24,2.23-7.24,5.11v.29c0,2,1,3.17,4.18,5.22l20.37,13.29h2.52v-.29L736.19,10.48c-2.52-1.66-3.42-2.56-3.42-3.93V6.23C732.77,4.21,734.78,3,738.28,2.7Z"/> <path class="cls-1" d="M742.38,11l1.48,1c3.56-1.44,4.75-2.85,4.75-5.22V6.41c0-2.88-2.92-4.93-7.38-5.26V2.7c3.49.29,5.65,1.73,5.65,3.74v.33C746.88,8.6,745.91,9.61,742.38,11Z"/> <polygon class="cls-1" points="751.31 16.81 752.71 17.75 758.47 12.13 758.47 11.88 756.35 11.88 751.31 16.81"/> <path class="cls-1" d="M746.74,22.86l-1.62-1.08a10.82,10.82,0,0,1-6.48,2.09c-5.08,0-8.07-1.62-8.07-4.43v-.36c0-1.66,1-2.56,4.36-3.92l-1.44-1c-3.46,1.52-4.65,2.88-4.65,5v.36c0,3.64,3.78,5.94,9.83,5.94A13.24,13.24,0,0,0,746.74,22.86Z"/> <polygon class="cls-1" points="784.21 25.06 774.77 1.44 772.97 1.44 772.97 1.73 782.33 25.06 784.21 25.06"/> <polygon class="cls-1" points="785.86 21.31 793.1 3.74 801.7 25.06 803.54 25.06 794.07 1.44 792.13 1.44 784.92 18.86 785.86 21.31"/> <polygon class="cls-1" points="804.29 18.86 805.23 21.31 813.18 1.73 813.18 1.44 811.38 1.44 804.29 18.86"/> <rect class="cls-1" x="817.71" width="1.69" height="25.06"/> <path class="cls-1" d="M822.36,8.5v1.65a8.14,8.14,0,0,1,4.86-1.55c5,0,7.7,2.49,7.7,7.13v9.33h1.69V15.73c0-5.69-3.24-8.71-9.18-8.71A9,9,0,0,0,822.36,8.5Z"/> <polygon class="cls-1" points="848.73 22.21 849.63 20.41 842.54 7.42 840.78 7.42 840.78 7.7 848.73 22.21"/> <path class="cls-1" d="M860.07,7.42,849.42,26.93c-1.19,2.16-2.2,2.73-4.68,2.73h-2.67v1.52h2.67c3.49,0,4.89-1.08,6.3-3.68l10.8-19.8V7.42Z"/> <path class="cls-1" d="M873.62,2.7V1.15c-4.9.4-7.85,2.95-7.85,6.91v.76h1.66V8.06C867.43,5,869.73,3.1,873.62,2.7Z"/> <path class="cls-1" d="M876.57,1.15V2.7c3.6.36,5.76,2.05,5.76,4.64V7.7c0,1.73-1,2.85-4.28,4.72C875,14.18,874,15.55,874,18.18v1.44h1.58V18.18c0-2.05.87-3.17,3.82-4.82,3.42-1.95,4.68-3.46,4.68-5.62V7.31C884.06,4,881.07,1.58,876.57,1.15Z"/> <path class="cls-1" d="M874.77,25.45a1.28,1.28,0,1,0,0-2.55,1.28,1.28,0,1,0,0,2.55Z"/> <rect class="cls-1" x="971.27" y="1.44" width="1.76" height="23.62"/> <polygon class="cls-1" points="975.99 12.46 975.99 14.04 991.36 14.04 991.36 25.06 993.12 25.06 993.12 1.44 991.36 1.44 991.36 12.46 975.99 12.46"/> <path class="cls-1" d="M1007.86,8.68V7.13c-5.51.5-8.89,3.74-8.89,8.78v.76c0,4.93,3.38,8.17,8.89,8.67V23.76c-4.43-.47-7.16-3.06-7.16-7.13v-.72C1000.7,11.81,1003.36,9.18,1007.86,8.68Z"/> <path class="cls-1" d="M1010.81,7.13V8.71c4.39.47,7.06,3.17,7.06,7.2v.72c0,4-2.7,6.7-7.06,7.13v1.58c5.44-.5,8.79-3.74,8.79-8.67v-.76C1019.6,10.91,1016.25,7.63,1010.81,7.13Z"/> <polygon class="cls-1" points="1032.63 25.06 1024.5 7.42 1022.73 7.42 1022.73 7.7 1030.73 25.06 1032.63 25.06"/> <polygon class="cls-1" points="1048.73 25.06 1040.77 7.42 1039.08 7.42 1033.39 19.51 1034.29 21.6 1039.94 9.54 1046.93 25.06 1048.73 25.06"/> <polygon class="cls-1" points="1049.55 19.62 1050.38 21.6 1057.11 7.7 1057.11 7.42 1055.42 7.42 1049.55 19.62"/> <polygon class="cls-1" points="1059.33 30.2 1060.95 30.2 1063.97 21.6 1063.97 21.31 1062.06 21.31 1059.33 30.2"/> <polygon class="cls-1" points="1092.55 25.06 1083.12 1.44 1081.32 1.44 1081.32 1.73 1090.68 25.06 1092.55 25.06"/> <polygon class="cls-1" points="1094.2 21.31 1101.44 3.74 1110.04 25.06 1111.88 25.06 1102.41 1.44 1100.47 1.44 1093.27 18.86 1094.2 21.31"/> <polygon class="cls-1" points="1112.64 18.86 1113.57 21.31 1121.53 1.73 1121.53 1.44 1119.73 1.44 1112.64 18.86"/> <rect class="cls-1" x="1126.06" width="1.69" height="25.06"/> <path class="cls-1" d="M1130.7,8.5v1.65a8.19,8.19,0,0,1,4.86-1.55c5,0,7.71,2.49,7.71,7.13v9.33H1145V15.73c0-5.69-3.24-8.71-9.18-8.71A9,9,0,0,0,1130.7,8.5Z"/> <path class="cls-1" d="M1161.87,7.13V8.71c4,.47,6.56,2.92,6.66,6.63h-16.59c.14-3.71,2.77-6.16,7-6.63V7.13c-5.36.5-8.75,3.78-8.75,8.71v.83c0,4.89,3.35,8.17,8.75,8.67V23.76c-4.32-.47-7-3-7-7h18.36V15.73C1170.3,10.84,1167.06,7.63,1161.87,7.13Z"/> <path class="cls-1" d="M1161.87,23.8v1.54c5-.39,8.28-2.88,8.43-6.58h-1.8C1168.43,21.49,1165.83,23.44,1161.87,23.8Z"/> <path class="cls-1" d="M1180.45,8.5v1.65a8.14,8.14,0,0,1,4.86-1.55c5,0,7.7,2.49,7.7,7.13v9.33h1.69V15.73c0-5.69-3.24-8.71-9.18-8.71A9,9,0,0,0,1180.45,8.5Z"/> <rect class="cls-1" x="1175.8" y="7.42" width="1.69" height="17.64"/> <path class="cls-1" d="M1223.91,2.7V1.15c-4.46.33-7.23,2.23-7.23,5.11v.29c0,2,1,3.17,4.17,5.22l20.38,13.29h2.52v-.29l-21.93-14.29c-2.52-1.66-3.42-2.56-3.42-3.93V6.23C1218.4,4.21,1220.42,3,1223.91,2.7Z"/> <path class="cls-1" d="M1228,11l1.47,1c3.57-1.44,4.75-2.85,4.75-5.22V6.41c0-2.88-2.91-4.93-7.38-5.26V2.7c3.5.29,5.66,1.73,5.66,3.74v.33C1232.52,8.6,1231.54,9.61,1228,11Z"/> <polygon class="cls-1" points="1236.94 16.81 1238.35 17.75 1244.11 12.13 1244.11 11.88 1241.98 11.88 1236.94 16.81"/> <path class="cls-1" d="M1232.37,22.86l-1.62-1.08a10.77,10.77,0,0,1-6.48,2.09c-5.07,0-8.06-1.62-8.06-4.43v-.36c0-1.66,1-2.56,4.35-3.92l-1.44-1c-3.45,1.52-4.64,2.88-4.64,5v.36c0,3.64,3.78,5.94,9.83,5.94A13.21,13.21,0,0,0,1232.37,22.86Z"/> <polygon class="cls-1" points="1269.84 25.06 1260.41 1.44 1258.61 1.44 1258.61 1.73 1267.97 25.06 1269.84 25.06"/> <polygon class="cls-1" points="1271.5 21.31 1278.73 3.74 1287.34 25.06 1289.17 25.06 1279.7 1.44 1277.76 1.44 1270.56 18.86 1271.5 21.31"/> <polygon class="cls-1" points="1289.93 18.86 1290.87 21.31 1298.82 1.73 1298.82 1.44 1297.02 1.44 1289.93 18.86"/> <rect class="cls-1" x="1303.35" width="1.69" height="25.06"/> <path class="cls-1" d="M1308,8.5v1.65a8.19,8.19,0,0,1,4.86-1.55c5,0,7.71,2.49,7.71,7.13v9.33h1.69V15.73c0-5.69-3.24-8.71-9.18-8.71A9,9,0,0,0,1308,8.5Z"/> <polygon class="cls-1" points="1334.37 22.21 1335.27 20.41 1328.18 7.42 1326.41 7.42 1326.41 7.7 1334.37 22.21"/> <path class="cls-1" d="M1345.71,7.42l-10.66,19.51c-1.19,2.16-2.19,2.73-4.68,2.73h-2.66v1.52h2.66c3.49,0,4.9-1.08,6.3-3.68l10.8-19.8V7.42Z"/> <path class="cls-1" d="M1359.25,2.7V1.15c-4.89.4-7.84,2.95-7.84,6.91v.76h1.65V8.06C1353.06,5,1355.37,3.1,1359.25,2.7Z"/> <path class="cls-1" d="M1362.21,1.15V2.7c3.6.36,5.76,2.05,5.76,4.64V7.7c0,1.73-1,2.85-4.29,4.72-3.09,1.76-4.07,3.13-4.07,5.76v1.44h1.59V18.18c0-2.05.86-3.17,3.81-4.82,3.42-1.95,4.68-3.46,4.68-5.62V7.31C1369.69,4,1366.71,1.58,1362.21,1.15Z"/> <path class="cls-1" d="M1360.41,25.45a1.28,1.28,0,1,0,0-2.55,1.28,1.28,0,1,0,0,2.55Z"/> <rect class="cls-1" x="1456.91" y="1.44" width="1.76" height="23.62"/> <polygon class="cls-1" points="1461.62 12.46 1461.62 14.04 1477 14.04 1477 25.06 1478.76 25.06 1478.76 1.44 1477 1.44 1477 12.46 1461.62 12.46"/> <path class="cls-1" d="M1493.5,8.68V7.13c-5.51.5-8.9,3.74-8.9,8.78v.76c0,4.93,3.39,8.17,8.9,8.67V23.76c-4.43-.47-7.17-3.06-7.17-7.13v-.72C1486.33,11.81,1489,9.18,1493.5,8.68Z"/> <path class="cls-1" d="M1496.45,7.13V8.71c4.39.47,7,3.17,7,7.2v.72c0,4-2.7,6.7-7,7.13v1.58c5.43-.5,8.78-3.74,8.78-8.67v-.76C1505.23,10.91,1501.88,7.63,1496.45,7.13Z"/> <polygon class="cls-1" points="1518.27 25.06 1510.13 7.42 1508.37 7.42 1508.37 7.7 1516.36 25.06 1518.27 25.06"/> <polygon class="cls-1" points="1534.36 25.06 1526.41 7.42 1524.71 7.42 1519.03 19.51 1519.93 21.6 1525.58 9.54 1532.56 25.06 1534.36 25.06"/> <polygon class="cls-1" points="1535.19 19.62 1536.02 21.6 1542.75 7.7 1542.75 7.42 1541.06 7.42 1535.19 19.62"/> <polygon class="cls-1" points="1544.96 30.2 1546.58 30.2 1549.61 21.6 1549.61 21.31 1547.7 21.31 1544.96 30.2"/> <polygon class="cls-1" points="1578.18 25.06 1568.75 1.44 1566.95 1.44 1566.95 1.73 1576.31 25.06 1578.18 25.06"/> <polygon class="cls-1" points="1579.84 21.31 1587.08 3.74 1595.68 25.06 1597.52 25.06 1588.05 1.44 1586.1 1.44 1578.9 18.86 1579.84 21.31"/> <polygon class="cls-1" points="1598.27 18.86 1599.21 21.31 1607.16 1.73 1607.16 1.44 1605.36 1.44 1598.27 18.86"/> <rect class="cls-1" x="1611.69" width="1.69" height="25.06"/> <path class="cls-1" d="M1616.34,8.5v1.65a8.14,8.14,0,0,1,4.86-1.55c5,0,7.7,2.49,7.7,7.13v9.33h1.69V15.73c0-5.69-3.24-8.71-9.18-8.71A9,9,0,0,0,1616.34,8.5Z"/> <path class="cls-1" d="M1647.51,7.13V8.71c4,.47,6.55,2.92,6.66,6.63h-16.6c.15-3.71,2.78-6.16,7-6.63V7.13c-5.37.5-8.75,3.78-8.75,8.71v.83c0,4.89,3.35,8.17,8.75,8.67V23.76c-4.32-.47-7-3-7-7h18.36V15.73C1655.93,10.84,1652.69,7.63,1647.51,7.13Z"/> <path class="cls-1" d="M1647.51,23.8v1.54c5-.39,8.28-2.88,8.42-6.58h-1.8C1654.06,21.49,1651.47,23.44,1647.51,23.8Z"/> <path class="cls-1" d="M1666.08,8.5v1.65a8.19,8.19,0,0,1,4.86-1.55c5,0,7.71,2.49,7.71,7.13v9.33h1.69V15.73c0-5.69-3.24-8.71-9.18-8.71A9,9,0,0,0,1666.08,8.5Z"/> <rect class="cls-1" x="1661.44" y="7.42" width="1.69" height="17.64"/> <path class="cls-1" d="M1709.55,2.7V1.15c-4.47.33-7.24,2.23-7.24,5.11v.29c0,2,1,3.17,4.18,5.22l20.37,13.29h2.52v-.29l-21.92-14.29c-2.52-1.66-3.42-2.56-3.42-3.93V6.23C1704,4.21,1706.05,3,1709.55,2.7Z"/> <path class="cls-1" d="M1713.65,11l1.48,1c3.56-1.44,4.75-2.85,4.75-5.22V6.41c0-2.88-2.92-4.93-7.38-5.26V2.7c3.49.29,5.65,1.73,5.65,3.74v.33C1718.15,8.6,1717.18,9.61,1713.65,11Z"/> <polygon class="cls-1" points="1722.58 16.81 1723.98 17.75 1729.74 12.13 1729.74 11.88 1727.62 11.88 1722.58 16.81"/> <path class="cls-1" d="M1718,22.86l-1.62-1.08a10.82,10.82,0,0,1-6.48,2.09c-5.08,0-8.07-1.62-8.07-4.43v-.36c0-1.66,1-2.56,4.36-3.92l-1.44-1c-3.46,1.52-4.65,2.88-4.65,5v.36c0,3.64,3.78,5.94,9.83,5.94A13.24,13.24,0,0,0,1718,22.86Z"/> <polygon class="cls-1" points="1755.48 25.06 1746.05 1.44 1744.24 1.44 1744.24 1.73 1753.61 25.06 1755.48 25.06"/> <polygon class="cls-1" points="1757.13 21.31 1764.37 3.74 1772.97 25.06 1774.81 25.06 1765.34 1.44 1763.4 1.44 1756.2 18.86 1757.13 21.31"/> <polygon class="cls-1" points="1775.57 18.86 1776.5 21.31 1784.46 1.73 1784.46 1.44 1782.66 1.44 1775.57 18.86"/> <rect class="cls-1" x="1788.99" width="1.69" height="25.06"/> <path class="cls-1" d="M1793.63,8.5v1.65a8.17,8.17,0,0,1,4.86-1.55c5,0,7.7,2.49,7.7,7.13v9.33h1.7V15.73c0-5.69-3.24-8.71-9.18-8.71A9,9,0,0,0,1793.63,8.5Z"/> <polygon class="cls-1" points="1820.01 22.21 1820.9 20.41 1813.81 7.42 1812.05 7.42 1812.05 7.7 1820.01 22.21"/> <path class="cls-1" d="M1831.34,7.42l-10.65,19.51c-1.19,2.16-2.2,2.73-4.68,2.73h-2.67v1.52H1816c3.49,0,4.89-1.08,6.3-3.68l10.8-19.8V7.42Z"/> <path class="cls-1" d="M1844.89,2.7V1.15c-4.9.4-7.85,2.95-7.85,6.91v.76h1.66V8.06C1838.7,5,1841,3.1,1844.89,2.7Z"/> <path class="cls-1" d="M1847.84,1.15V2.7c3.6.36,5.76,2.05,5.76,4.64V7.7c0,1.73-1,2.85-4.28,4.72-3.1,1.76-4.07,3.13-4.07,5.76v1.44h1.58V18.18c0-2.05.87-3.17,3.82-4.82,3.42-1.95,4.68-3.46,4.68-5.62V7.31C1855.33,4,1852.34,1.58,1847.84,1.15Z"/> <path class="cls-1" d="M1846,25.45a1.28,1.28,0,1,0-1.29-1.29A1.26,1.26,0,0,0,1846,25.45Z"/> <rect class="cls-1" x="1942.54" y="1.44" width="1.76" height="23.62"/> <polygon class="cls-1" points="1947.26 12.46 1947.26 14.04 1962.63 14.04 1962.63 25.06 1964.4 25.06 1964.4 1.44 1962.63 1.44 1962.63 12.46 1947.26 12.46"/> <path class="cls-1" d="M1979.13,8.68V7.13c-5.51.5-8.89,3.74-8.89,8.78v.76c0,4.93,3.38,8.17,8.89,8.67V23.76c-4.43-.47-7.16-3.06-7.16-7.13v-.72C1972,11.81,1974.63,9.18,1979.13,8.68Z"/> <path class="cls-1" d="M1982.08,7.13V8.71c4.4.47,7.06,3.17,7.06,7.2v.72c0,4-2.7,6.7-7.06,7.13v1.58c5.44-.5,8.79-3.74,8.79-8.67v-.76C1990.87,10.91,1987.52,7.63,1982.08,7.13Z"/> <polygon class="cls-1" points="2003.91 25.06 1995.77 7.42 1994.01 7.42 1994.01 7.7 2002 25.06 2003.91 25.06"/> <polygon class="cls-1" points="2020 25.06 2012.04 7.42 2010.35 7.42 2004.66 19.51 2005.56 21.6 2011.21 9.54 2018.2 25.06 2020 25.06"/> <polygon class="cls-1" points="2020.83 19.62 2021.65 21.6 2028.39 7.7 2028.39 7.42 2026.69 7.42 2020.83 19.62"/> <polygon class="cls-1" points="2030.6 30.2 2032.22 30.2 2035.24 21.6 2035.24 21.31 2033.34 21.31 2030.6 30.2"/> <polygon class="cls-1" points="2063.82 25.06 2054.39 1.44 2052.59 1.44 2052.59 1.73 2061.95 25.06 2063.82 25.06"/> <polygon class="cls-1" points="2065.48 21.31 2072.71 3.74 2081.32 25.06 2083.15 25.06 2073.68 1.44 2071.74 1.44 2064.54 18.86 2065.48 21.31"/> <polygon class="cls-1" points="2083.91 18.86 2084.84 21.31 2092.8 1.73 2092.8 1.44 2091 1.44 2083.91 18.86"/> <rect class="cls-1" x="2097.33" width="1.69" height="25.06"/> <path class="cls-1" d="M2102,8.5v1.65a8.19,8.19,0,0,1,4.86-1.55c5,0,7.71,2.49,7.71,7.13v9.33h1.69V15.73c0-5.69-3.24-8.71-9.18-8.71A9,9,0,0,0,2102,8.5Z"/> <path class="cls-1" d="M2133.15,7.13V8.71c4,.47,6.55,2.92,6.66,6.63h-16.6c.14-3.71,2.77-6.16,7-6.63V7.13c-5.36.5-8.74,3.78-8.74,8.71v.83c0,4.89,3.34,8.17,8.74,8.67V23.76c-4.32-.47-7-3-7-7h18.36V15.73C2141.57,10.84,2138.33,7.63,2133.15,7.13Z"/> <path class="cls-1" d="M2133.15,23.8v1.54c5-.39,8.28-2.88,8.42-6.58h-1.8C2139.7,21.49,2137.11,23.44,2133.15,23.8Z"/> <path class="cls-1" d="M2151.72,8.5v1.65a8.17,8.17,0,0,1,4.86-1.55c5,0,7.7,2.49,7.7,7.13v9.33h1.7V15.73C2166,10,2162.74,7,2156.8,7A9,9,0,0,0,2151.72,8.5Z"/> <rect class="cls-1" x="2147.08" y="7.42" width="1.69" height="17.64"/> <path class="cls-1" d="M2195.18,2.7V1.15c-4.46.33-7.23,2.23-7.23,5.11v.29c0,2,1,3.17,4.17,5.22l20.38,13.29H2215v-.29l-21.93-14.29c-2.52-1.66-3.42-2.56-3.42-3.93V6.23C2189.67,4.21,2191.69,3,2195.18,2.7Z"/> <path class="cls-1" d="M2199.29,11l1.47,1c3.57-1.44,4.75-2.85,4.75-5.22V6.41c0-2.88-2.91-4.93-7.38-5.26V2.7c3.5.29,5.66,1.73,5.66,3.74v.33C2203.79,8.6,2202.81,9.61,2199.29,11Z"/> <polygon class="cls-1" points="2208.22 16.81 2209.62 17.75 2215.38 12.13 2215.38 11.88 2213.26 11.88 2208.22 16.81"/> <path class="cls-1" d="M2203.64,22.86,2202,21.78a10.77,10.77,0,0,1-6.48,2.09c-5.07,0-8.06-1.62-8.06-4.43v-.36c0-1.66,1-2.56,4.35-3.92l-1.44-1c-3.45,1.52-4.64,2.88-4.64,5v.36c0,3.64,3.78,5.94,9.83,5.94A13.21,13.21,0,0,0,2203.64,22.86Z"/> <polygon class="cls-1" points="2241.11 25.06 2231.68 1.44 2229.88 1.44 2229.88 1.73 2239.24 25.06 2241.11 25.06"/> <polygon class="cls-1" points="2242.77 21.31 2250.01 3.74 2258.61 25.06 2260.45 25.06 2250.98 1.44 2249.03 1.44 2241.83 18.86 2242.77 21.31"/> <polygon class="cls-1" points="2261.2 18.86 2262.14 21.31 2270.09 1.73 2270.09 1.44 2268.29 1.44 2261.2 18.86"/> <rect class="cls-1" x="2274.62" width="1.69" height="25.06"/> <path class="cls-1" d="M2279.27,8.5v1.65a8.14,8.14,0,0,1,4.86-1.55c5,0,7.7,2.49,7.7,7.13v9.33h1.69V15.73c0-5.69-3.24-8.71-9.18-8.71A9,9,0,0,0,2279.27,8.5Z"/> <polygon class="cls-1" points="2305.64 22.21 2306.54 20.41 2299.45 7.42 2297.68 7.42 2297.68 7.7 2305.64 22.21"/> <path class="cls-1" d="M2317,7.42l-10.66,19.51c-1.18,2.16-2.19,2.73-4.68,2.73H2299v1.52h2.66c3.5,0,4.9-1.08,6.3-3.68l10.8-19.8V7.42Z"/> <path class="cls-1" d="M2330.53,2.7V1.15c-4.9.4-7.85,2.95-7.85,6.91v.76h1.65V8.06C2324.33,5,2326.64,3.1,2330.53,2.7Z"/> <path class="cls-1" d="M2333.48,1.15V2.7c3.6.36,5.76,2.05,5.76,4.64V7.7c0,1.73-1,2.85-4.29,4.72-3.09,1.76-4.06,3.13-4.06,5.76v1.44h1.58V18.18c0-2.05.86-3.17,3.82-4.82,3.42-1.95,4.68-3.46,4.68-5.62V7.31C2341,4,2338,1.58,2333.48,1.15Z"/> <path class="cls-1" d="M2331.68,25.45a1.28,1.28,0,1,0,0-2.55,1.28,1.28,0,1,0,0,2.55Z"/> <rect class="cls-1" x="2428.18" y="1.44" width="1.76" height="23.62"/> <polygon class="cls-1" points="2432.89 12.46 2432.89 14.04 2448.27 14.04 2448.27 25.06 2450.03 25.06 2450.03 1.44 2448.27 1.44 2448.27 12.46 2432.89 12.46"/> <path class="cls-1" d="M2464.77,8.68V7.13c-5.51.5-8.89,3.74-8.89,8.78v.76c0,4.93,3.38,8.17,8.89,8.67V23.76c-4.43-.47-7.17-3.06-7.17-7.13v-.72C2457.6,11.81,2460.27,9.18,2464.77,8.68Z"/> <path class="cls-1" d="M2467.72,7.13V8.71c4.39.47,7.06,3.17,7.06,7.2v.72c0,4-2.7,6.7-7.06,7.13v1.58c5.44-.5,8.78-3.74,8.78-8.67v-.76C2476.5,10.91,2473.16,7.63,2467.72,7.13Z"/> <polygon class="cls-1" points="2489.54 25.06 2481.41 7.42 2479.64 7.42 2479.64 7.7 2487.63 25.06 2489.54 25.06"/> <polygon class="cls-1" points="2505.63 25.06 2497.68 7.42 2495.99 7.42 2490.3 19.51 2491.2 21.6 2496.85 9.54 2503.83 25.06 2505.63 25.06"/> <polygon class="cls-1" points="2506.46 19.62 2507.29 21.6 2514.02 7.7 2514.02 7.42 2512.33 7.42 2506.46 19.62"/> <polygon class="cls-1" points="2516.24 30.2 2517.86 30.2 2520.88 21.6 2520.88 21.31 2518.97 21.31 2516.24 30.2"/> <polygon class="cls-1" points="2549.46 25.06 2540.02 1.44 2538.22 1.44 2538.22 1.73 2547.58 25.06 2549.46 25.06"/> <polygon class="cls-1" points="2551.11 21.31 2558.35 3.74 2566.95 25.06 2568.79 25.06 2559.32 1.44 2557.38 1.44 2550.18 18.86 2551.11 21.31"/> <polygon class="cls-1" points="2569.54 18.86 2570.48 21.31 2578.44 1.73 2578.44 1.44 2576.64 1.44 2569.54 18.86"/> <rect class="cls-1" x="2582.96" width="1.69" height="25.06"/> <path class="cls-1" d="M2587.61,8.5v1.65a8.14,8.14,0,0,1,4.86-1.55c5,0,7.7,2.49,7.7,7.13v9.33h1.69V15.73c0-5.69-3.24-8.71-9.18-8.71A9,9,0,0,0,2587.61,8.5Z"/> <path class="cls-1" d="M2618.78,7.13V8.71c4,.47,6.55,2.92,6.66,6.63h-16.59c.14-3.71,2.77-6.16,7-6.63V7.13c-5.36.5-8.75,3.78-8.75,8.71v.83c0,4.89,3.35,8.17,8.75,8.67V23.76c-4.32-.47-7-3-7-7h18.36V15.73C2627.21,10.84,2624,7.63,2618.78,7.13Z"/> <path class="cls-1" d="M2618.78,23.8v1.54c5-.39,8.28-2.88,8.43-6.58h-1.8C2625.33,21.49,2622.74,23.44,2618.78,23.8Z"/> <path class="cls-1" d="M2637.35,8.5v1.65a8.19,8.19,0,0,1,4.86-1.55c5,0,7.71,2.49,7.71,7.13v9.33h1.69V15.73c0-5.69-3.24-8.71-9.18-8.71A9,9,0,0,0,2637.35,8.5Z"/> <rect class="cls-1" x="2632.71" y="7.42" width="1.69" height="17.64"/> <path class="cls-1" d="M2680.82,2.7V1.15c-4.47.33-7.24,2.23-7.24,5.11v.29c0,2,1.05,3.17,4.18,5.22l20.37,13.29h2.52v-.29l-21.92-14.29c-2.52-1.66-3.42-2.56-3.42-3.93V6.23C2675.31,4.21,2677.33,3,2680.82,2.7Z"/> <path class="cls-1" d="M2684.92,11l1.48,1c3.56-1.44,4.75-2.85,4.75-5.22V6.41c0-2.88-2.92-4.93-7.38-5.26V2.7c3.49.29,5.65,1.73,5.65,3.74v.33C2689.42,8.6,2688.45,9.61,2684.92,11Z"/> <polygon class="cls-1" points="2693.85 16.81 2695.26 17.75 2701.01 12.13 2701.01 11.88 2698.89 11.88 2693.85 16.81"/> <path class="cls-1" d="M2689.28,22.86l-1.62-1.08a10.79,10.79,0,0,1-6.48,2.09c-5.08,0-8.07-1.62-8.07-4.43v-.36c0-1.66,1-2.56,4.36-3.92l-1.44-1c-3.46,1.52-4.64,2.88-4.64,5v.36c0,3.64,3.78,5.94,9.82,5.94A13.24,13.24,0,0,0,2689.28,22.86Z"/> <polygon class="cls-1" points="2726.75 25.06 2717.32 1.44 2715.52 1.44 2715.52 1.73 2724.88 25.06 2726.75 25.06"/> <polygon class="cls-1" points="2728.41 21.31 2735.64 3.74 2744.24 25.06 2746.08 25.06 2736.61 1.44 2734.67 1.44 2727.47 18.86 2728.41 21.31"/> <polygon class="cls-1" points="2746.84 18.86 2747.77 21.31 2755.73 1.73 2755.73 1.44 2753.93 1.44 2746.84 18.86"/> <rect class="cls-1" x="2760.26" width="1.69" height="25.06"/> <path class="cls-1" d="M2764.9,8.5v1.65a8.19,8.19,0,0,1,4.86-1.55c5,0,7.71,2.49,7.71,7.13v9.33h1.69V15.73c0-5.69-3.24-8.71-9.18-8.71A9,9,0,0,0,2764.9,8.5Z"/> <polygon class="cls-1" points="2791.28 22.21 2792.18 20.41 2785.08 7.42 2783.32 7.42 2783.32 7.7 2791.28 22.21"/> <path class="cls-1" d="M2802.62,7.42,2792,26.93c-1.19,2.16-2.2,2.73-4.68,2.73h-2.66v1.52h2.66c3.49,0,4.9-1.08,6.3-3.68l10.8-19.8V7.42Z"/> <path class="cls-1" d="M2816.16,2.7V1.15c-4.89.4-7.85,2.95-7.85,6.91v.76H2810V8.06C2810,5,2812.27,3.1,2816.16,2.7Z"/> <path class="cls-1" d="M2819.11,1.15V2.7c3.6.36,5.76,2.05,5.76,4.64V7.7c0,1.73-1,2.85-4.28,4.72-3.1,1.76-4.07,3.13-4.07,5.76v1.44h1.59V18.18c0-2.05.86-3.17,3.81-4.82,3.42-1.95,4.68-3.46,4.68-5.62V7.31C2826.6,4,2823.61,1.58,2819.11,1.15Z"/> <path class="cls-1" d="M2817.31,25.45a1.28,1.28,0,1,0-1.29-1.29A1.26,1.26,0,0,0,2817.31,25.45Z"/> <rect class="cls-1" x="2913.82" y="1.44" width="1.76" height="23.62"/> <polygon class="cls-1" points="2918.53 12.46 2918.53 14.04 2933.9 14.04 2933.9 25.06 2935.67 25.06 2935.67 1.44 2933.9 1.44 2933.9 12.46 2918.53 12.46"/> <path class="cls-1" d="M2950.4,8.68V7.13c-5.5.5-8.89,3.74-8.89,8.78v.76c0,4.93,3.39,8.17,8.89,8.67V23.76c-4.42-.47-7.16-3.06-7.16-7.13v-.72C2943.24,11.81,2945.9,9.18,2950.4,8.68Z"/> <path class="cls-1" d="M2953.36,7.13V8.71c4.39.47,7,3.17,7,7.2v.72c0,4-2.7,6.7-7,7.13v1.58c5.43-.5,8.78-3.74,8.78-8.67v-.76C2962.14,10.91,2958.79,7.63,2953.36,7.13Z"/> <polygon class="cls-1" points="2975.18 25.06 2967.04 7.42 2965.28 7.42 2965.28 7.7 2973.27 25.06 2975.18 25.06"/> <polygon class="cls-1" points="2991.27 25.06 2983.31 7.42 2981.62 7.42 2975.93 19.51 2976.83 21.6 2982.49 9.54 2989.47 25.06 2991.27 25.06"/> <polygon class="cls-1" points="2992.1 19.62 2992.93 21.6 2999.66 7.7 2999.66 7.42 2997.97 7.42 2992.1 19.62"/> <polygon class="cls-1" points="3001.87 30.2 3003.49 30.2 3006.51 21.6 3006.51 21.31 3004.61 21.31 3001.87 30.2"/> <polygon class="cls-1" points="3035.09 25.06 3025.66 1.44 3023.86 1.44 3023.86 1.73 3033.22 25.06 3035.09 25.06"/> <polygon class="cls-1" points="3036.75 21.31 3043.98 3.74 3052.59 25.06 3054.42 25.06 3044.96 1.44 3043.01 1.44 3035.81 18.86 3036.75 21.31"/> <polygon class="cls-1" points="3055.18 18.86 3056.12 21.31 3064.07 1.73 3064.07 1.44 3062.27 1.44 3055.18 18.86"/> <rect class="cls-1" x="3068.6" width="1.69" height="25.06"/> <path class="cls-1" d="M3073.24,8.5v1.65a8.19,8.19,0,0,1,4.86-1.55c5,0,7.71,2.49,7.71,7.13v9.33h1.69V15.73c0-5.69-3.24-8.71-9.18-8.71A9,9,0,0,0,3073.24,8.5Z"/> <path class="cls-1" d="M3104.42,7.13V8.71c4,.47,6.55,2.92,6.66,6.63h-16.6c.15-3.71,2.77-6.16,7-6.63V7.13c-5.37.5-8.75,3.78-8.75,8.71v.83c0,4.89,3.35,8.17,8.75,8.67V23.76c-4.32-.47-7-3-7-7h18.36V15.73C3112.84,10.84,3109.6,7.63,3104.42,7.13Z"/> <path class="cls-1" d="M3104.42,23.8v1.54c5-.39,8.28-2.88,8.42-6.58H3111C3111,21.49,3108.38,23.44,3104.42,23.8Z"/> <path class="cls-1" d="M3123,8.5v1.65a8.17,8.17,0,0,1,4.86-1.55c5,0,7.7,2.49,7.7,7.13v9.33h1.7V15.73c0-5.69-3.24-8.71-9.18-8.71A9,9,0,0,0,3123,8.5Z"/> <rect class="cls-1" x="3118.35" y="7.42" width="1.69" height="17.64"/> <path class="cls-1" d="M3166.45,2.7V1.15c-4.46.33-7.23,2.23-7.23,5.11v.29c0,2,1,3.17,4.17,5.22l20.38,13.29h2.52v-.29l-21.92-14.29c-2.52-1.66-3.42-2.56-3.42-3.93V6.23C3161,4.21,3163,3,3166.45,2.7Z"/> <path class="cls-1" d="M3170.56,11l1.47,1c3.57-1.44,4.76-2.85,4.76-5.22V6.41c0-2.88-2.92-4.93-7.38-5.26V2.7c3.49.29,5.65,1.73,5.65,3.74v.33C3175.06,8.6,3174.09,9.61,3170.56,11Z"/> <polygon class="cls-1" points="3179.49 16.81 3180.89 17.75 3186.65 12.13 3186.65 11.88 3184.53 11.88 3179.49 16.81"/> <path class="cls-1" d="M3174.91,22.86l-1.62-1.08a10.77,10.77,0,0,1-6.48,2.09c-5.07,0-8.06-1.62-8.06-4.43v-.36c0-1.66,1-2.56,4.36-3.92l-1.44-1c-3.46,1.52-4.65,2.88-4.65,5v.36c0,3.64,3.78,5.94,9.83,5.94A13.21,13.21,0,0,0,3174.91,22.86Z"/> <polygon class="cls-1" points="3212.39 25.06 3202.95 1.44 3201.15 1.44 3201.15 1.73 3210.51 25.06 3212.39 25.06"/> <polygon class="cls-1" points="3214.04 21.31 3221.28 3.74 3229.88 25.06 3231.72 25.06 3222.25 1.44 3220.3 1.44 3213.11 18.86 3214.04 21.31"/> <polygon class="cls-1" points="3232.47 18.86 3233.41 21.31 3241.36 1.73 3241.36 1.44 3239.56 1.44 3232.47 18.86"/> <rect class="cls-1" x="3245.89" width="1.69" height="25.06"/> <path class="cls-1" d="M3250.54,8.5v1.65a8.14,8.14,0,0,1,4.86-1.55c5,0,7.7,2.49,7.7,7.13v9.33h1.69V15.73c0-5.69-3.24-8.71-9.18-8.71A9,9,0,0,0,3250.54,8.5Z"/> <polygon class="cls-1" points="3276.91 22.21 3277.81 20.41 3270.72 7.42 3268.96 7.42 3268.96 7.7 3276.91 22.21"/> <path class="cls-1" d="M3288.25,7.42,3277.6,26.93c-1.19,2.16-2.2,2.73-4.68,2.73h-2.67v1.52h2.67c3.49,0,4.89-1.08,6.3-3.68L3290,7.7V7.42Z"/> <path class="cls-1" d="M3301.8,2.7V1.15c-4.9.4-7.85,2.95-7.85,6.91v.76h1.66V8.06C3295.61,5,3297.91,3.1,3301.8,2.7Z"/> <path class="cls-1" d="M3304.75,1.15V2.7c3.6.36,5.76,2.05,5.76,4.64V7.7c0,1.73-1,2.85-4.28,4.72-3.1,1.76-4.07,3.13-4.07,5.76v1.44h1.58V18.18c0-2.05.87-3.17,3.82-4.82,3.42-1.95,4.68-3.46,4.68-5.62V7.31C3312.24,4,3309.25,1.58,3304.75,1.15Z"/> <path class="cls-1" d="M3303,25.45a1.28,1.28,0,1,0,0-2.55,1.28,1.28,0,1,0,0,2.55Z"/> <rect class="cls-1" x="3399.45" y="1.44" width="1.76" height="23.62"/> <polygon class="cls-1" points="3404.17 12.46 3404.17 14.04 3419.54 14.04 3419.54 25.06 3421.3 25.06 3421.3 1.44 3419.54 1.44 3419.54 12.46 3404.17 12.46"/> <path class="cls-1" d="M3436,8.68V7.13c-5.51.5-8.89,3.74-8.89,8.78v.76c0,4.93,3.38,8.17,8.89,8.67V23.76c-4.43-.47-7.16-3.06-7.16-7.13v-.72C3428.88,11.81,3431.54,9.18,3436,8.68Z"/> <path class="cls-1" d="M3439,7.13V8.71c4.39.47,7.06,3.17,7.06,7.2v.72c0,4-2.7,6.7-7.06,7.13v1.58c5.44-.5,8.79-3.74,8.79-8.67v-.76C3447.78,10.91,3444.43,7.63,3439,7.13Z"/> <polygon class="cls-1" points="3460.81 25.06 3452.68 7.42 3450.91 7.42 3450.91 7.7 3458.91 25.06 3460.81 25.06"/> <polygon class="cls-1" points="3476.91 25.06 3468.95 7.42 3467.26 7.42 3461.57 19.51 3462.47 21.6 3468.12 9.54 3475.11 25.06 3476.91 25.06"/> <polygon class="cls-1" points="3477.73 19.62 3478.56 21.6 3485.29 7.7 3485.29 7.42 3483.6 7.42 3477.73 19.62"/> <polygon class="cls-1" points="3487.51 30.2 3489.13 30.2 3492.15 21.6 3492.15 21.31 3490.24 21.31 3487.51 30.2"/> <polygon class="cls-1" points="3520.73 25.06 3511.3 1.44 3509.49 1.44 3509.49 1.73 3518.86 25.06 3520.73 25.06"/> <polygon class="cls-1" points="3522.38 21.31 3529.62 3.74 3538.22 25.06 3540.06 25.06 3530.59 1.44 3528.65 1.44 3521.45 18.86 3522.38 21.31"/> <polygon class="cls-1" points="3540.82 18.86 3541.75 21.31 3549.71 1.73 3549.71 1.44 3547.91 1.44 3540.82 18.86"/> <rect class="cls-1" x="3554.24" width="1.69" height="25.06"/> <path class="cls-1" d="M3558.88,8.5v1.65a8.17,8.17,0,0,1,4.86-1.55c5,0,7.7,2.49,7.7,7.13v9.33h1.7V15.73C3573.14,10,3569.9,7,3564,7A9,9,0,0,0,3558.88,8.5Z"/> <path class="cls-1" d="M3590.05,7.13V8.71c4,.47,6.56,2.92,6.66,6.63h-16.59c.14-3.71,2.77-6.16,7-6.63V7.13c-5.36.5-8.75,3.78-8.75,8.71v.83c0,4.89,3.35,8.17,8.75,8.67V23.76c-4.32-.47-7-3-7-7h18.36V15.73C3598.48,10.84,3595.24,7.63,3590.05,7.13Z"/> <path class="cls-1" d="M3590.05,23.8v1.54c5-.39,8.28-2.88,8.43-6.58h-1.8C3596.61,21.49,3594,23.44,3590.05,23.8Z"/> <path class="cls-1" d="M3608.63,8.5v1.65a8.14,8.14,0,0,1,4.86-1.55c5,0,7.7,2.49,7.7,7.13v9.33h1.69V15.73c0-5.69-3.24-8.71-9.18-8.71A9,9,0,0,0,3608.63,8.5Z"/> <rect class="cls-1" x="3603.98" y="7.42" width="1.69" height="17.64"/> <path class="cls-1" d="M3652.09,2.7V1.15c-4.46.33-7.24,2.23-7.24,5.11v.29c0,2,1.05,3.17,4.18,5.22l20.38,13.29h2.52v-.29L3650,10.48c-2.52-1.66-3.42-2.56-3.42-3.93V6.23C3646.58,4.21,3648.6,3,3652.09,2.7Z"/> <path class="cls-1" d="M3656.19,11l1.48,1c3.56-1.44,4.75-2.85,4.75-5.22V6.41c0-2.88-2.91-4.93-7.38-5.26V2.7c3.49.29,5.65,1.73,5.65,3.74v.33C3660.69,8.6,3659.72,9.61,3656.19,11Z"/> <polygon class="cls-1" points="3665.12 16.81 3666.53 17.75 3672.29 12.13 3672.29 11.88 3670.16 11.88 3665.12 16.81"/> <path class="cls-1" d="M3660.55,22.86l-1.62-1.08a10.77,10.77,0,0,1-6.48,2.09c-5.08,0-8.06-1.62-8.06-4.43v-.36c0-1.66,1-2.56,4.35-3.92l-1.44-1c-3.45,1.52-4.64,2.88-4.64,5v.36c0,3.64,3.78,5.94,9.83,5.94A13.23,13.23,0,0,0,3660.55,22.86Z"/> <polygon class="cls-1" points="3698.02 25.06 3688.59 1.44 3686.79 1.44 3686.79 1.73 3696.15 25.06 3698.02 25.06"/> <polygon class="cls-1" points="3699.68 21.31 3706.91 3.74 3715.52 25.06 3717.35 25.06 3707.89 1.44 3705.94 1.44 3698.74 18.86 3699.68 21.31"/> <polygon class="cls-1" points="3718.11 18.86 3719.04 21.31 3727 1.73 3727 1.44 3725.2 1.44 3718.11 18.86"/> <rect class="cls-1" x="3731.53" width="1.69" height="25.06"/> <path class="cls-1" d="M3736.17,8.5v1.65A8.19,8.19,0,0,1,3741,8.6c5,0,7.71,2.49,7.71,7.13v9.33h1.69V15.73c0-5.69-3.24-8.71-9.18-8.71A9,9,0,0,0,3736.17,8.5Z"/> <polygon class="cls-1" points="3762.55 22.21 3763.45 20.41 3756.36 7.42 3754.59 7.42 3754.59 7.7 3762.55 22.21"/> <path class="cls-1" d="M3773.89,7.42l-10.66,19.51c-1.19,2.16-2.19,2.73-4.68,2.73h-2.66v1.52h2.66c3.49,0,4.9-1.08,6.3-3.68l10.8-19.8V7.42Z"/> <path class="cls-1" d="M3787.43,2.7V1.15c-4.89.4-7.84,2.95-7.84,6.91v.76h1.65V8.06C3781.24,5,3783.55,3.1,3787.43,2.7Z"/> <path class="cls-1" d="M3790.39,1.15V2.7c3.6.36,5.76,2.05,5.76,4.64V7.7c0,1.73-1,2.85-4.29,4.72-3.09,1.76-4.07,3.13-4.07,5.76v1.44h1.59V18.18c0-2.05.86-3.17,3.81-4.82,3.42-1.95,4.68-3.46,4.68-5.62V7.31C3797.87,4,3794.89,1.58,3790.39,1.15Z"/> <path class="cls-1" d="M3788.59,25.45a1.28,1.28,0,1,0,0-2.55,1.28,1.28,0,1,0,0,2.55Z"/> <rect class="cls-1" x="3885.09" y="1.44" width="1.76" height="23.62"/> <polygon class="cls-1" points="3889.8 12.46 3889.8 14.04 3905.18 14.04 3905.18 25.06 3906.94 25.06 3906.94 1.44 3905.18 1.44 3905.18 12.46 3889.8 12.46"/> <path class="cls-1" d="M3921.68,8.68V7.13c-5.51.5-8.9,3.74-8.9,8.78v.76c0,4.93,3.39,8.17,8.9,8.67V23.76c-4.43-.47-7.17-3.06-7.17-7.13v-.72C3914.51,11.81,3917.18,9.18,3921.68,8.68Z"/> <path class="cls-1" d="M3924.63,7.13V8.71c4.39.47,7,3.17,7,7.2v.72c0,4-2.7,6.7-7,7.13v1.58c5.43-.5,8.78-3.74,8.78-8.67v-.76C3933.41,10.91,3930.06,7.63,3924.63,7.13Z"/> <polygon class="cls-1" points="3946.45 25.06 3938.31 7.42 3936.55 7.42 3936.55 7.7 3944.54 25.06 3946.45 25.06"/> <polygon class="cls-1" points="3962.54 25.06 3954.59 7.42 3952.89 7.42 3947.2 19.51 3948.11 21.6 3953.76 9.54 3960.74 25.06 3962.54 25.06"/> <polygon class="cls-1" points="3963.37 19.62 3964.2 21.6 3970.93 7.7 3970.93 7.42 3969.24 7.42 3963.37 19.62"/> <polygon class="cls-1" points="3973.14 30.2 3974.76 30.2 3977.79 21.6 3977.79 21.31 3975.88 21.31 3973.14 30.2"/> <polygon class="cls-1" points="4006.36 25.06 3996.93 1.44 3995.13 1.44 3995.13 1.73 4004.49 25.06 4006.36 25.06"/> <polygon class="cls-1" points="4008.02 21.31 4015.26 3.74 4023.86 25.06 4025.7 25.06 4016.23 1.44 4014.28 1.44 4007.08 18.86 4008.02 21.31"/> <polygon class="cls-1" points="4026.45 18.86 4027.39 21.31 4035.34 1.73 4035.34 1.44 4033.54 1.44 4026.45 18.86"/> <rect class="cls-1" x="4039.87" width="1.69" height="25.06"/> <path class="cls-1" d="M4044.52,8.5v1.65a8.14,8.14,0,0,1,4.86-1.55c5,0,7.7,2.49,7.7,7.13v9.33h1.69V15.73c0-5.69-3.24-8.71-9.18-8.71A9,9,0,0,0,4044.52,8.5Z"/> <path class="cls-1" d="M4075.69,7.13V8.71c4,.47,6.55,2.92,6.66,6.63h-16.6c.15-3.71,2.78-6.16,7-6.63V7.13c-5.37.5-8.75,3.78-8.75,8.71v.83c0,4.89,3.35,8.17,8.75,8.67V23.76c-4.32-.47-7-3-7-7h18.36V15.73C4084.11,10.84,4080.87,7.63,4075.69,7.13Z"/> <path class="cls-1" d="M4075.69,23.8v1.54c5-.39,8.28-2.88,8.42-6.58h-1.8C4082.24,21.49,4079.65,23.44,4075.69,23.8Z"/> <path class="cls-1" d="M4094.26,8.5v1.65a8.19,8.19,0,0,1,4.86-1.55c5,0,7.71,2.49,7.71,7.13v9.33h1.69V15.73c0-5.69-3.24-8.71-9.18-8.71A9,9,0,0,0,4094.26,8.5Z"/> <rect class="cls-1" x="4089.62" y="7.42" width="1.69" height="17.64"/> <path class="cls-1" d="M4137.73,2.7V1.15c-4.47.33-7.24,2.23-7.24,5.11v.29c0,2,1,3.17,4.18,5.22L4155,25.06h2.52v-.29l-21.92-14.29c-2.52-1.66-3.42-2.56-3.42-3.93V6.23C4132.22,4.21,4134.23,3,4137.73,2.7Z"/> <path class="cls-1" d="M4141.83,11l1.48,1c3.56-1.44,4.75-2.85,4.75-5.22V6.41c0-2.88-2.92-4.93-7.38-5.26V2.7c3.49.29,5.65,1.73,5.65,3.74v.33C4146.33,8.6,4145.36,9.61,4141.83,11Z"/> <polygon class="cls-1" points="4150.76 16.81 4152.16 17.75 4157.92 12.13 4157.92 11.88 4155.8 11.88 4150.76 16.81"/> <path class="cls-1" d="M4146.19,22.86l-1.62-1.08a10.82,10.82,0,0,1-6.48,2.09c-5.08,0-8.07-1.62-8.07-4.43v-.36c0-1.66,1-2.56,4.36-3.92l-1.44-1c-3.46,1.52-4.65,2.88-4.65,5v.36c0,3.64,3.78,5.94,9.83,5.94A13.24,13.24,0,0,0,4146.19,22.86Z"/> <polygon class="cls-1" points="4183.66 25.06 4174.23 1.44 4172.42 1.44 4172.42 1.73 4181.78 25.06 4183.66 25.06"/> <polygon class="cls-1" points="4185.31 21.31 4192.55 3.74 4201.15 25.06 4202.99 25.06 4193.52 1.44 4191.58 1.44 4184.38 18.86 4185.31 21.31"/> <polygon class="cls-1" points="4203.74 18.86 4204.68 21.31 4212.64 1.73 4212.64 1.44 4210.84 1.44 4203.74 18.86"/> <rect class="cls-1" x="4217.17" width="1.69" height="25.06"/> <path class="cls-1" d="M4221.81,8.5v1.65a8.17,8.17,0,0,1,4.86-1.55c5,0,7.7,2.49,7.7,7.13v9.33h1.7V15.73c0-5.69-3.24-8.71-9.18-8.71A9,9,0,0,0,4221.81,8.5Z"/> <polygon class="cls-1" points="4248.18 22.21 4249.08 20.41 4241.99 7.42 4240.23 7.42 4240.23 7.7 4248.18 22.21"/> <path class="cls-1" d="M4259.52,7.42l-10.65,19.51c-1.19,2.16-2.2,2.73-4.68,2.73h-2.67v1.52h2.67c3.49,0,4.89-1.08,6.3-3.68l10.8-19.8V7.42Z"/> <path class="cls-1" d="M4273.07,2.7V1.15c-4.9.4-7.85,2.95-7.85,6.91v.76h1.66V8.06C4266.88,5,4269.18,3.1,4273.07,2.7Z"/> <path class="cls-1" d="M4276,1.15V2.7c3.6.36,5.76,2.05,5.76,4.64V7.7c0,1.73-1,2.85-4.28,4.72-3.1,1.76-4.07,3.13-4.07,5.76v1.44H4275V18.18c0-2.05.87-3.17,3.82-4.82,3.42-1.95,4.68-3.46,4.68-5.62V7.31C4283.51,4,4280.52,1.58,4276,1.15Z"/> <path class="cls-1" d="M4274.22,25.45a1.28,1.28,0,1,0-1.29-1.29A1.26,1.26,0,0,0,4274.22,25.45Z"/> <rect class="cls-1" x="4370.72" y="1.44" width="1.76" height="23.62"/> <polygon class="cls-1" points="4375.44 12.46 4375.44 14.04 4390.81 14.04 4390.81 25.06 4392.57 25.06 4392.57 1.44 4390.81 1.44 4390.81 12.46 4375.44 12.46"/> <path class="cls-1" d="M4407.31,8.68V7.13c-5.51.5-8.89,3.74-8.89,8.78v.76c0,4.93,3.38,8.17,8.89,8.67V23.76c-4.43-.47-7.16-3.06-7.16-7.13v-.72C4400.15,11.81,4402.81,9.18,4407.31,8.68Z"/> <path class="cls-1" d="M4410.26,7.13V8.71c4.39.47,7.06,3.17,7.06,7.2v.72c0,4-2.7,6.7-7.06,7.13v1.58c5.44-.5,8.79-3.74,8.79-8.67v-.76C4419.05,10.91,4415.7,7.63,4410.26,7.13Z"/> <polygon class="cls-1" points="4432.09 25.06 4423.95 7.42 4422.19 7.42 4422.19 7.7 4430.18 25.06 4432.09 25.06"/> <polygon class="cls-1" points="4448.18 25.06 4440.22 7.42 4438.53 7.42 4432.84 19.51 4433.74 21.6 4439.39 9.54 4446.38 25.06 4448.18 25.06"/> <polygon class="cls-1" points="4449.01 19.62 4449.83 21.6 4456.56 7.7 4456.56 7.42 4454.87 7.42 4449.01 19.62"/> <polygon class="cls-1" points="4458.78 30.2 4460.4 30.2 4463.42 21.6 4463.42 21.31 4461.52 21.31 4458.78 30.2"/> <polygon class="cls-1" points="4492 25.06 4482.57 1.44 4480.77 1.44 4480.77 1.73 4490.13 25.06 4492 25.06"/> <polygon class="cls-1" points="4493.65 21.31 4500.89 3.74 4509.49 25.06 4511.33 25.06 4501.86 1.44 4499.92 1.44 4492.72 18.86 4493.65 21.31"/> <polygon class="cls-1" points="4512.09 18.86 4513.02 21.31 4520.98 1.73 4520.98 1.44 4519.18 1.44 4512.09 18.86"/> <rect class="cls-1" x="4525.51" width="1.69" height="25.06"/> <path class="cls-1" d="M4530.15,8.5v1.65A8.19,8.19,0,0,1,4535,8.6c5,0,7.71,2.49,7.71,7.13v9.33h1.69V15.73c0-5.69-3.24-8.71-9.18-8.71A9,9,0,0,0,4530.15,8.5Z"/> <path class="cls-1" d="M4561.33,7.13V8.71c4,.47,6.55,2.92,6.66,6.63h-16.6c.14-3.71,2.77-6.16,7-6.63V7.13c-5.36.5-8.74,3.78-8.74,8.71v.83c0,4.89,3.34,8.17,8.74,8.67V23.76c-4.32-.47-7-3-7-7h18.36V15.73C4569.75,10.84,4566.51,7.63,4561.33,7.13Z"/> <path class="cls-1" d="M4561.33,23.8v1.54c5-.39,8.28-2.88,8.42-6.58H4568C4567.88,21.49,4565.29,23.44,4561.33,23.8Z"/> <path class="cls-1" d="M4579.9,8.5v1.65a8.14,8.14,0,0,1,4.86-1.55c5,0,7.7,2.49,7.7,7.13v9.33h1.69V15.73c0-5.69-3.24-8.71-9.18-8.71A9,9,0,0,0,4579.9,8.5Z"/> <rect class="cls-1" x="4575.25" y="7.42" width="1.69" height="17.64"/> <path class="cls-1" d="M4623.36,2.7V1.15c-4.46.33-7.23,2.23-7.23,5.11v.29c0,2,1,3.17,4.17,5.22l20.38,13.29h2.52v-.29l-21.93-14.29c-2.52-1.66-3.42-2.56-3.42-3.93V6.23C4617.85,4.21,4619.87,3,4623.36,2.7Z"/> <path class="cls-1" d="M4627.47,11l1.47,1c3.57-1.44,4.75-2.85,4.75-5.22V6.41c0-2.88-2.91-4.93-7.38-5.26V2.7c3.5.29,5.66,1.73,5.66,3.74v.33C4632,8.6,4631,9.61,4627.47,11Z"/> <polygon class="cls-1" points="4636.39 16.81 4637.8 17.75 4643.56 12.13 4643.56 11.88 4641.43 11.88 4636.39 16.81"/> <path class="cls-1" d="M4631.82,22.86l-1.62-1.08a10.77,10.77,0,0,1-6.48,2.09c-5.07,0-8.06-1.62-8.06-4.43v-.36c0-1.66,1-2.56,4.35-3.92l-1.44-1c-3.45,1.52-4.64,2.88-4.64,5v.36c0,3.64,3.78,5.94,9.83,5.94A13.21,13.21,0,0,0,4631.82,22.86Z"/> <polygon class="cls-1" points="4669.29 25.06 4659.86 1.44 4658.06 1.44 4658.06 1.73 4667.42 25.06 4669.29 25.06"/> <polygon class="cls-1" points="4670.95 21.31 4678.18 3.74 4686.79 25.06 4688.62 25.06 4679.16 1.44 4677.21 1.44 4670.01 18.86 4670.95 21.31"/> <polygon class="cls-1" points="4689.38 18.86 4690.32 21.31 4698.27 1.73 4698.27 1.44 4696.47 1.44 4689.38 18.86"/> <rect class="cls-1" x="4702.8" width="1.69" height="25.06"/> <path class="cls-1" d="M4707.44,8.5v1.65a8.19,8.19,0,0,1,4.86-1.55c5,0,7.71,2.49,7.71,7.13v9.33h1.69V15.73c0-5.69-3.24-8.71-9.18-8.71A9,9,0,0,0,4707.44,8.5Z"/> <polygon class="cls-1" points="4733.82 22.21 4734.72 20.41 4727.63 7.42 4725.86 7.42 4725.86 7.7 4733.82 22.21"/> <path class="cls-1" d="M4745.16,7.42,4734.5,26.93c-1.18,2.16-2.19,2.73-4.68,2.73h-2.66v1.52h2.66c3.5,0,4.9-1.08,6.3-3.68l10.8-19.8V7.42Z"/> <path class="cls-1" d="M4758.71,2.7V1.15c-4.9.4-7.85,2.95-7.85,6.91v.76h1.65V8.06C4752.51,5,4754.82,3.1,4758.71,2.7Z"/> <path class="cls-1" d="M4761.66,1.15V2.7c3.6.36,5.76,2.05,5.76,4.64V7.7c0,1.73-1,2.85-4.29,4.72-3.09,1.76-4.06,3.13-4.06,5.76v1.44h1.58V18.18c0-2.05.86-3.17,3.82-4.82,3.42-1.95,4.68-3.46,4.68-5.62V7.31C4769.15,4,4766.16,1.58,4761.66,1.15Z"/> <path class="cls-1" d="M4759.86,25.45a1.28,1.28,0,1,0,0-2.55,1.28,1.28,0,1,0,0,2.55Z"/> </g> </g> </svg>