<svg width="72" height="72" viewBox="0 0 72 72" fill="none" xmlns="http://www.w3.org/2000/svg">
<circle cx="36" cy="36" r="36" fill="#4692D8"/>
<g clip-path="url(#clip0)">
<path d="M43.915 37.028C43.527 36.538 43.638 36.32 43.915 35.882C43.92 35.877 47.123 31.451 47.453 29.95L47.455 29.949C47.619 29.402 47.455 29 46.662 29H44.038C43.37 29 43.062 29.345 42.897 29.731C42.897 29.731 41.561 32.929 39.671 35.002C39.061 35.601 38.779 35.793 38.446 35.793C38.282 35.793 38.027 35.601 38.027 35.054V29.949C38.027 29.293 37.84 29 37.287 29H33.161C32.742 29 32.493 29.306 32.493 29.591C32.493 30.213 33.438 30.356 33.536 32.106V35.903C33.536 36.735 33.385 36.888 33.05 36.888C32.158 36.888 29.993 33.677 28.71 30.002C28.451 29.289 28.198 29.001 27.525 29.001H24.9C24.151 29.001 24 29.346 24 29.732C24 30.414 24.892 33.805 28.148 38.285C30.318 41.343 33.374 43 36.154 43C37.825 43 38.029 42.632 38.029 41.999C38.029 39.077 37.878 38.801 38.715 38.801C39.103 38.801 39.771 38.993 41.331 40.468C43.114 42.217 43.407 43 44.405 43H47.029C47.777 43 48.156 42.632 47.938 41.906C47.439 40.379 44.067 37.238 43.915 37.028Z" fill="white"/>
</g>
<defs>
<clipPath id="clip0">
<rect width="24" height="24" fill="white" transform="translate(24 24)"/>
</clipPath>
</defs>
</svg>
