<svg width="20" height="20" viewBox="0 0 20 20" fill="none" xmlns="http://www.w3.org/2000/svg">
<path fill-rule="evenodd" clip-rule="evenodd" d="M10 18C14.4183 18 18 14.4183 18 10C18 5.58172 14.4183 2 10 2C5.58172 2 2 5.58172 2 10C2 14.4183 5.58172 18 10 18ZM10 20C15.5228 20 20 15.5228 20 10C20 4.47715 15.5228 0 10 0C4.47715 0 0 4.47715 0 10C0 15.5228 4.47715 20 10 20Z" fill="white"/>
<path d="M10.0549 8.1277C10.8469 8.1277 11.3989 7.6117 11.3989 6.8557C11.3989 6.0997 10.8589 5.5957 10.0549 5.5957C9.25094 5.5957 8.71094 6.1117 8.71094 6.8557C8.71094 7.5997 9.26294 8.1277 10.0549 8.1277ZM8.89094 14.6677H11.2189V8.5957H8.89094V14.6677Z" fill="white"/>
</svg>
