<svg width="80" height="80" viewBox="0 0 80 80" fill="none" xmlns="http://www.w3.org/2000/svg">
<circle cx="40" cy="40" r="39" stroke="#17118B" stroke-width="2"/>
<path fill-rule="evenodd" clip-rule="evenodd" d="M54.2117 30.17C53.8292 29.1847 53.3192 28.3501 52.4845 27.5155C51.6499 26.6808 50.8153 26.1708 49.83 25.7883C48.8794 25.4173 47.7782 25.1623 46.1901 25.0927L46.1631 25.0916C44.5845 25.0229 44.0574 25 40 25C35.9196 25 35.4096 25.0116 33.8099 25.0927C32.2102 25.1623 31.1206 25.4173 30.17 25.7883C29.1847 26.1708 28.3501 26.6808 27.5155 27.5155C26.6808 28.3501 26.1708 29.1847 25.7883 30.17C25.4173 31.1206 25.1623 32.2218 25.0927 33.8099L25.0916 33.8369C25.0229 35.4154 25 35.9426 25 40C25 44.0804 25.0116 44.5904 25.0927 46.1901C25.1623 47.7898 25.4173 48.8794 25.7883 49.83C26.1708 50.8153 26.6808 51.6499 27.5155 52.4845C28.3501 53.3192 29.1847 53.8292 30.17 54.2117C31.1206 54.5827 32.2218 54.8377 33.8099 54.9073L33.8368 54.9084H33.8368C35.4154 54.9771 35.9426 55 40 55C44.0804 55 44.5904 54.9884 46.1901 54.9073C47.7898 54.8377 48.8794 54.5827 49.83 54.2117C50.8153 53.8292 51.6499 53.3192 52.4845 52.4845C53.3192 51.6499 53.8292 50.8153 54.2117 49.83C54.5827 48.8794 54.8377 47.7782 54.9073 46.1901L54.9084 46.1632V46.1632C54.9771 44.5846 55 44.0574 55 40C55 35.9196 54.9884 35.4096 54.9073 33.8099C54.8377 32.2102 54.5827 31.1206 54.2117 30.17ZM51.1663 45.5365C51.1027 46.8712 50.8803 47.6021 50.6896 48.0788C50.4459 48.7144 50.1387 49.1805 49.662 49.6572C49.1853 50.1339 48.7298 50.4305 48.0837 50.6848C47.5964 50.8754 46.876 51.0979 45.5413 51.1615L45.4723 51.1645H45.4722C44.0756 51.2257 43.6075 51.2462 40.001 51.2462C36.3358 51.2462 35.9014 51.2356 34.4608 51.1615C33.126 51.0979 32.3951 50.8754 31.9184 50.6848C31.2828 50.4411 30.8167 50.1339 30.34 49.6572C29.8633 49.1805 29.5667 48.725 29.3125 48.0788C29.1218 47.5915 28.8993 46.8712 28.8358 45.5365L28.8333 45.4791C28.7717 44.0731 28.751 43.6023 28.751 39.9962C28.751 36.3415 28.7616 35.8966 28.8358 34.4559C28.8993 33.1212 29.1218 32.3903 29.3125 31.9136C29.5561 31.278 29.8633 30.8119 30.34 30.3352C30.8167 29.8585 31.2722 29.5619 31.9184 29.3076C32.4057 29.117 33.126 28.8945 34.4608 28.8309L34.5181 28.8284C35.9242 28.7668 36.3949 28.7462 40.001 28.7462C43.6557 28.7462 44.1006 28.7568 45.5413 28.8309C46.876 28.8945 47.607 29.117 48.0837 29.3076C48.7192 29.5513 49.1853 29.8585 49.662 30.3352C50.1387 30.8119 50.4353 31.2674 50.6896 31.9136C50.8803 32.4009 51.1027 33.1212 51.1663 34.4559L51.1688 34.5133C51.2304 35.9193 51.251 36.3901 51.251 39.9962C51.251 43.616 51.2302 44.087 51.1681 45.4955L51.1663 45.5365ZM49.3746 32.4998C49.3746 33.5354 48.5351 34.3748 47.4996 34.3748C46.4641 34.3748 45.6246 33.5354 45.6246 32.4998C45.6246 31.4643 46.4641 30.6248 47.4996 30.6248C48.5351 30.6248 49.3746 31.4643 49.3746 32.4998ZM40.0013 32.5054C35.8622 32.5054 32.5013 35.8663 32.5013 40.0054C32.5013 44.1445 35.8622 47.5054 40.0013 47.5054C44.1404 47.5054 47.5013 44.1445 47.5013 40.0054C47.5013 35.8663 44.1404 32.5054 40.0013 32.5054ZM36.2493 40.0011C36.2493 42.0758 37.9334 43.7511 39.9993 43.7511C42.0653 43.7511 43.7493 42.0671 43.7493 40.0011C43.7493 37.9265 42.074 36.2511 39.9993 36.2511C37.9247 36.2511 36.2493 37.9352 36.2493 40.0011Z" fill="#17118B"/>
</svg>
