<svg width="19" height="18" viewBox="0 0 19 18" fill="none" xmlns="http://www.w3.org/2000/svg">
<path d="M6.80237 14.6994C6.83047 14.6994 6.83047 14.6994 6.85857 14.6994C7.22388 14.6713 7.50488 14.3335 7.47678 13.9676L6.83047 6.1151C6.80237 5.74922 6.49327 5.46776 6.09986 5.49591C5.73456 5.52405 5.45355 5.8618 5.48165 6.22768L6.12796 14.0802C6.15606 14.4179 6.43707 14.6994 6.80237 14.6994Z" fill="#98B1BE"/>
<path d="M9.5 14.6994C9.8653 14.6994 10.1744 14.3898 10.1744 14.0239V6.17139C10.1744 5.80551 9.8653 5.49591 9.5 5.49591C9.13469 5.49591 8.82559 5.80551 8.82559 6.17139V14.0239C8.82559 14.3898 9.13469 14.6994 9.5 14.6994Z" fill="#98B1BE"/>
<path d="M12.1414 14.6994C12.1695 14.6994 12.1695 14.6994 12.1976 14.6994C12.5349 14.6994 12.844 14.4461 12.8721 14.0802L13.5184 6.22768C13.5465 5.8618 13.2655 5.52405 12.9002 5.49591C12.5349 5.46776 12.1976 5.74922 12.1695 6.1151L11.5232 13.9676C11.4951 14.3335 11.7761 14.6713 12.1414 14.6994Z" fill="#98B1BE"/>
<path d="M17.6491 2.39994H12.7315L12.0852 1.16155C11.7761 0.542358 11.1298 0.17647 10.4554 0.17647H8.57269C7.89828 0.17647 7.25197 0.542358 6.94286 1.16155L6.29655 2.39994H1.35088C0.985575 2.39994 0.67647 2.70954 0.67647 3.07543C0.67647 3.44132 0.985575 3.75091 1.35088 3.75091H1.88479L3.37411 15.6845C3.51461 16.8947 4.55433 17.8235 5.79075 17.8235H13.2374C14.4738 17.8235 15.4854 16.8947 15.654 15.6845L17.1433 3.75091H17.6491C18.0144 3.75091 18.3235 3.44132 18.3235 3.07543C18.3235 2.70954 18.0144 2.39994 17.6491 2.39994ZM8.12308 1.78075C8.20738 1.61188 8.37598 1.52744 8.57269 1.52744H10.4554C10.6521 1.52744 10.8207 1.64002 10.905 1.78075L11.2141 2.39994H7.78587L8.12308 1.78075ZM14.3052 15.5156C14.249 16.0504 13.7713 16.4726 13.2374 16.4726H5.79075C5.25684 16.4726 4.77913 16.0504 4.72293 15.5156L3.26171 3.75091H15.7945L14.3052 15.5156Z" fill="#98B1BE"/>
<path fill-rule="evenodd" clip-rule="evenodd" d="M6.78569 1.08129C7.12717 0.398688 7.83703 0 8.57269 0H10.4554C11.1911 0 11.9009 0.398696 12.2424 1.08131L12.8385 2.22347H17.6491C18.1122 2.22347 18.5 2.61234 18.5 3.07543C18.5 3.53851 18.1122 3.92738 17.6491 3.92738H17.2991L15.8291 15.7063L15.8288 15.7088C15.6486 17.002 14.5661 18 13.2374 18H5.79075C4.46553 18 3.35014 17.005 3.1989 15.7056L1.72897 3.92738H1.35088C0.887848 3.92738 0.5 3.53851 0.5 3.07543C0.5 2.61234 0.887848 2.22347 1.35088 2.22347H6.18959L6.78569 1.08129ZM8.57269 0.352941C7.96004 0.352941 7.37776 0.685467 7.10075 1.24037L7.09933 1.24322L6.40351 2.57641H1.35088C1.0833 2.57641 0.852941 2.80674 0.852941 3.07543C0.852941 3.34412 1.0833 3.57444 1.35088 3.57444H2.0406L3.54941 15.6641C3.67951 16.7849 4.64338 17.6471 5.79075 17.6471H13.2374C14.381 17.6471 15.3215 16.7881 15.479 15.6614L15.4792 15.6601L16.9875 3.57444H17.6491C17.9167 3.57444 18.1471 3.34412 18.1471 3.07543C18.1471 2.80674 17.9167 2.57641 17.6491 2.57641H12.6246L11.9273 1.24039C11.6503 0.685479 11.0681 0.352941 10.4554 0.352941H8.57269ZM8.57269 1.70391C8.42732 1.70391 8.32903 1.76329 8.28097 1.85957L8.27816 1.8652L8.08292 2.22347H10.9288L10.7505 1.86634C10.6943 1.7767 10.5827 1.70391 10.4554 1.70391H8.57269ZM7.96672 1.69889C8.08774 1.45955 8.32569 1.35097 8.57269 1.35097H10.4554C10.7192 1.35097 10.9429 1.50057 11.0564 1.69006L11.0599 1.69587L11.4995 2.57641H7.48883L7.96672 1.69889ZM3.06196 3.57444H15.9947L14.4805 15.536C14.4137 16.1611 13.8595 16.649 13.2374 16.649H5.79075C5.16851 16.649 4.61423 16.1609 4.54761 15.5358L3.06196 3.57444ZM3.46145 3.92738L4.89846 15.4972C4.94508 15.9407 5.34574 16.2961 5.79075 16.2961H13.2374C13.6824 16.2961 14.0831 15.9407 14.1297 15.4972L14.1301 15.4935L15.5943 3.92738H3.46145ZM7.00642 6.10159L7.65274 13.9541C7.68805 14.414 7.33773 14.8395 6.87213 14.8753L6.86536 14.8759H6.80237C6.34146 14.8759 5.98749 14.5202 5.9521 14.0948L5.30578 6.24216L5.3057 6.2412C5.27038 5.78132 5.6207 5.35583 6.0863 5.31996L6.08727 5.31989C6.57817 5.28477 6.97071 5.63996 7.00642 6.10159ZM6.11295 5.67189C6.40843 5.651 6.6338 5.85887 6.65452 6.12862L6.6546 6.12958L7.30083 13.9811C7.32129 14.2507 7.11318 14.4991 6.85123 14.5229H6.80254C6.53289 14.5229 6.32472 14.3158 6.30384 14.0657M6.30384 14.0657L5.6576 6.21417C5.637 5.9426 5.8483 5.69256 6.11295 5.67189M11.9936 6.10109C12.0297 5.63563 12.454 5.28454 12.9137 5.31996C13.3793 5.35583 13.7296 5.78132 13.6943 6.2412L13.6942 6.24216L13.048 14.0937C13.0121 14.558 12.62 14.8759 12.1976 14.8759H12.1347L12.1279 14.8753C11.6623 14.8395 11.312 14.414 11.3473 13.9541L11.3474 13.9531L11.9936 6.10109ZM12.8866 5.67186C12.6158 5.651 12.3659 5.86255 12.3455 6.12862L12.3454 6.12958L11.6992 13.9811C11.6787 14.2507 11.8868 14.4991 12.1488 14.5229H12.1975C12.4494 14.5229 12.6756 14.3339 12.6961 14.0667L12.6962 14.0657L13.3424 6.21417C13.363 5.94244 13.1515 5.69226 12.8866 5.67186ZM8.64912 6.17139C8.64912 5.70831 9.03697 5.31944 9.5 5.31944C9.96303 5.31944 10.3509 5.70831 10.3509 6.17139V14.0239C10.3509 14.487 9.96303 14.8759 9.5 14.8759C9.03697 14.8759 8.64912 14.487 8.64912 14.0239V6.17139ZM9.5 5.67238C9.23242 5.67238 9.00206 5.9027 9.00206 6.17139V14.0239C9.00206 14.2926 9.23242 14.5229 9.5 14.5229C9.76758 14.5229 9.99794 14.2926 9.99794 14.0239V6.17139C9.99794 5.9027 9.76758 5.67238 9.5 5.67238Z" fill="#98B1BE"/>
</svg>
