<svg width="80" height="80" viewBox="0 0 80 80" fill="none" xmlns="http://www.w3.org/2000/svg">
<circle cx="40" cy="40" r="39" stroke="#00A7D8" stroke-width="2"/>
<path d="M57 42.2421V53.3333H50.57V42.9849C50.57 40.3853 49.64 38.6112 47.3126 38.6112C45.5359 38.6112 44.4785 39.8068 44.0134 40.9634C43.8438 41.3768 43.8001 41.9523 43.8001 42.5311V53.3333H37.368C37.368 53.3333 37.4546 35.8065 37.368 33.9906H43.7995V36.7324C43.7864 36.7529 43.7695 36.775 43.7572 36.7949H43.7995V36.7324C44.654 35.4163 46.18 33.5362 49.5957 33.5362C53.8276 33.5361 57 36.3008 57 42.2421ZM30.6397 24.6665C28.4393 24.6665 27 26.1098 27 28.0078C27 29.8644 28.3976 31.3515 30.5543 31.3515H30.5973C32.8403 31.3515 34.2353 29.8647 34.2353 28.0078C34.193 26.1098 32.8403 24.6665 30.6397 24.6665ZM27.382 53.3333H33.8117V33.9906H27.382V53.3333Z" fill="#00A7D8"/>
</svg>
