<svg width="23" height="22" viewBox="0 0 23 22" fill="none" xmlns="http://www.w3.org/2000/svg">
<path fill-rule="evenodd" clip-rule="evenodd" d="M22.0748 3.79134C21.7943 3.06878 21.4202 2.45672 20.8082 1.84467C20.1961 1.23261 19.5841 0.858578 18.8615 0.578053C18.1644 0.306028 17.3569 0.119011 16.1922 0.0680062L16.1725 0.0671466C15.0148 0.0168103 14.6282 0 11.6528 0C8.66056 0 8.28653 0.00850077 7.11342 0.0680062C5.94031 0.119011 5.14124 0.306028 4.44418 0.578053C3.72161 0.858578 3.10956 1.23261 2.4975 1.84467C1.88544 2.45672 1.51141 3.06878 1.23088 3.79134C0.95886 4.48841 0.771843 5.29598 0.720838 6.46059L0.719979 6.48036C0.669642 7.638 0.652832 8.0246 0.652832 11C0.652832 13.9923 0.661333 14.3663 0.720838 15.5394C0.771843 16.7125 0.95886 17.5116 1.23088 18.2087C1.51141 18.9312 1.88544 19.5433 2.4975 20.1553C3.10956 20.7674 3.72161 21.1414 4.44418 21.4219C5.14124 21.694 5.94881 21.881 7.11342 21.932L7.13315 21.9329C8.29082 21.9832 8.6774 22 11.6528 22C14.6451 22 15.0191 21.9915 16.1922 21.932C17.3654 21.881 18.1644 21.694 18.8615 21.4219C19.5841 21.1414 20.1961 20.7674 20.8082 20.1553C21.4202 19.5433 21.7943 18.9312 22.0748 18.2087C22.3468 17.5116 22.5338 16.704 22.5848 15.5394L22.5857 15.5197C22.636 14.362 22.6528 13.9754 22.6528 11C22.6528 8.00773 22.6443 7.63369 22.5848 6.46059C22.5338 5.28748 22.3468 4.48841 22.0748 3.79134ZM19.8414 15.0599C19.7948 16.0387 19.6317 16.5748 19.4918 16.9243C19.3132 17.3904 19.0879 17.7322 18.7383 18.0818C18.3887 18.4314 18.0547 18.6489 17.5808 18.8353C17.2235 18.9752 16.6952 19.1383 15.7164 19.1849L15.6658 19.1871C14.6416 19.232 14.2983 19.2471 11.6536 19.2471C8.96571 19.2471 8.64721 19.2393 7.59071 19.1849C6.6119 19.1383 6.07588 18.9752 5.7263 18.8353C5.2602 18.6567 4.9184 18.4314 4.56882 18.0818C4.21924 17.7322 4.00173 17.3982 3.81529 16.9243C3.67546 16.567 3.51232 16.0387 3.46571 15.0599L3.46387 15.0179C3.41869 13.9868 3.40356 13.6415 3.40356 10.9971C3.40356 8.31699 3.41133 7.99071 3.46571 6.93422C3.51232 5.9554 3.67546 5.41939 3.81529 5.06981C3.99396 4.60371 4.21924 4.2619 4.56882 3.91232C4.9184 3.56275 5.25243 3.34523 5.7263 3.15879C6.08365 3.01896 6.6119 2.85583 7.59071 2.80922L7.63275 2.80738H7.63275C8.66386 2.7622 9.0091 2.74707 11.6536 2.74707C14.3336 2.74707 14.6599 2.75484 15.7164 2.80922C16.6952 2.85583 17.2312 3.01896 17.5808 3.15879C18.0469 3.33747 18.3887 3.56275 18.7383 3.91232C19.0879 4.2619 19.3054 4.59594 19.4918 5.06981C19.6317 5.42716 19.7948 5.9554 19.8414 6.93422L19.8433 6.97627C19.8884 8.00737 19.9036 8.35261 19.9036 10.9971C19.9036 13.6516 19.8883 13.997 19.8427 15.0299L19.8414 15.0599ZM18.5276 5.5C18.5276 6.25939 17.912 6.875 17.1526 6.875C16.3932 6.875 15.7776 6.25939 15.7776 5.5C15.7776 4.74061 16.3932 4.125 17.1526 4.125C17.912 4.125 18.5276 4.74061 18.5276 5.5ZM11.6538 5.50391C8.61847 5.50391 6.15381 7.96857 6.15381 11.0039C6.15381 14.0392 8.61847 16.5039 11.6538 16.5039C14.6891 16.5039 17.1538 14.0392 17.1538 11.0039C17.1538 7.96857 14.6891 5.50391 11.6538 5.50391ZM8.90234 11.001C8.90234 12.5224 10.1373 13.751 11.6523 13.751C13.1674 13.751 14.4023 12.516 14.4023 11.001C14.4023 9.47956 13.1738 8.25098 11.6523 8.25098C10.1309 8.25098 8.90234 9.48593 8.90234 11.001Z" fill="#00A7D8"/>
</svg>
