<?xml version="1.0" encoding="UTF-8"?>
<svg xmlns="http://www.w3.org/2000/svg" width="163" height="84" viewBox="0 0 163 84" fill="none"> <path d="M0 48.1067C0 40.227 6.08252 34.7666 14.2386 34.7666C16.6578 34.7666 18.9388 35.2504 20.8741 36.2181V42.7153C19.0079 41.6094 17.1416 40.8491 14.3077 40.8491C10.0223 40.8491 6.77371 43.8904 6.77371 48.1067C6.77371 52.3921 10.0915 55.3642 14.5842 55.3642C17.0725 55.3642 19.2843 54.8804 21.3579 53.2906V59.7879C19.3535 60.8247 16.8652 61.3776 14.3077 61.3776C6.15164 61.4467 0 55.9863 0 48.1067Z" fill="#00A7D8"/> <path d="M25.7812 35.251H37.8081C43.545 35.251 47.0701 38.5688 47.0701 43.1998C47.0701 46.5175 45.2038 49.1441 42.0935 50.3882L49.8349 60.8944H42.2317L35.0433 51.1485H32.4167V60.9635H25.8504V35.251H25.7812ZM37.5316 45.7572C39.3287 45.7572 40.4346 44.8587 40.4346 43.338C40.4346 41.8174 39.3287 40.8497 37.5316 40.8497H32.4167V45.7572H37.5316Z" fill="#00A7D8"/> <path d="M85.501 35.2509H91.0997L102.366 49.3513V35.2509H108.794V60.8943H103.334L91.9982 46.7248V60.8943H85.501V35.2509Z" fill="white"/> <path d="M113.287 48.1067C113.287 40.227 119.37 34.7666 127.526 34.7666C129.945 34.7666 132.226 35.2504 134.161 36.2181V42.7153C132.295 41.6094 130.429 40.8491 127.595 40.8491C123.309 40.8491 120.061 43.8904 120.061 48.1067C120.061 52.3921 123.379 55.3642 127.871 55.3642C130.36 55.3642 132.571 54.8804 134.645 53.2906V59.7879C132.641 60.8247 130.152 61.3776 127.595 61.3776C119.439 61.4467 113.287 55.9863 113.287 48.1067Z" fill="white"/> <path d="M139.068 35.2509H145.704V44.3747H155.381V35.2509H161.947V60.8943H155.381V50.2499H145.704V60.8943H139.068V35.2509Z" fill="white"/> <path d="M63.7286 55.3648C61.2403 55.3648 59.0976 53.9824 59.0976 50.5265V35.2511H52.5312V50.1809C52.5312 57.5767 57.577 61.4474 63.7977 61.4474V55.3648H63.7286Z" fill="#00A7D8"/> <path d="M69.6726 55.3648C72.1609 55.3648 74.3036 53.9824 74.3036 50.5265V35.2511H80.87V50.1809C80.87 57.5767 75.8243 61.4474 69.6035 61.4474V55.3648H69.6726Z" fill="white"/> <path d="M25.5049 0H35.7346C44.098 0 49.9041 5.25308 49.9041 12.8562C49.9041 20.4594 44.098 25.7125 35.7346 25.7125H25.5049V0ZM35.2507 19.8373C40.2273 19.8373 43.0613 17.2799 43.0613 12.7871C43.0613 8.29434 40.2273 5.73692 35.2507 5.73692H32.0712V19.8373H35.2507Z" fill="#00A7D8"/> <path d="M1.58984 0V25.6433H21.0815V19.8373H8.1562V15.7593H21.0815V9.95321H8.1562V5.80604H21.0815V0H1.58984Z" fill="#00A7D8"/> <path d="M63.5 70.5H1.5V79.5H63.5V70.5Z" fill="#00A7D8"/> <path d="M74.8033 79.4703C73.7291 79.4703 72.7859 79.2913 71.9737 78.9332C71.1615 78.5664 70.5327 78.0511 70.0873 77.3874C69.6419 76.7149 69.4192 75.9333 69.4192 75.0425V74.977C69.4192 74.0862 69.6419 73.3089 70.0873 72.6452C70.5327 71.9727 71.1615 71.4531 71.9737 71.0863C72.7859 70.7195 73.7291 70.5361 74.8033 70.5361C75.8164 70.5361 76.7203 70.6977 77.515 71.0208C78.3185 71.3439 78.9429 71.7981 79.3883 72.3832C79.8424 72.9596 80.0695 73.6146 80.0695 74.3482V74.4399H77.384V74.3482C77.384 73.929 77.1482 73.5971 76.6766 73.3526C76.2137 73.1081 75.5849 72.9858 74.7902 72.9858C73.8819 72.9858 73.2051 73.1474 72.7597 73.4705C72.323 73.7936 72.1047 74.2871 72.1047 74.9508V75.0818C72.1047 75.7455 72.323 76.2346 72.7597 76.549C73.1964 76.8634 73.8776 77.0206 74.8033 77.0206C75.6242 77.0206 76.2574 76.9071 76.7028 76.68C77.1569 76.4442 77.384 76.1123 77.384 75.6844V75.5927H80.0695V75.6844C80.0695 76.4093 79.8424 77.0599 79.3883 77.6363C78.9429 78.2127 78.3185 78.6625 77.515 78.9856C76.7203 79.3087 75.8164 79.4703 74.8033 79.4703ZM87.4975 79.4703C86.4408 79.4703 85.5107 79.2913 84.7072 78.9332C83.9037 78.5664 83.2793 78.0468 82.8339 77.3743C82.3972 76.7018 82.1789 75.9246 82.1789 75.0425V74.977C82.1789 74.0949 82.3972 73.3177 82.8339 72.6452C83.2793 71.9727 83.9037 71.4531 84.7072 71.0863C85.5107 70.7195 86.4408 70.5361 87.4975 70.5361C88.5717 70.5361 89.5105 70.7195 90.314 71.0863C91.1175 71.4531 91.7375 71.9727 92.1742 72.6452C92.6109 73.3089 92.8292 74.0862 92.8292 74.977V75.0425C92.8292 75.9333 92.6109 76.7149 92.1742 77.3874C91.7375 78.0511 91.1175 78.5664 90.314 78.9332C89.5105 79.2913 88.5717 79.4703 87.4975 79.4703ZM87.4975 77.0206C88.4058 77.0206 89.0739 76.8634 89.5018 76.549C89.9297 76.2259 90.1437 75.7368 90.1437 75.0818V74.9508C90.1437 73.6408 89.2616 72.9858 87.4975 72.9858C86.6329 72.9858 85.9779 73.1517 85.5325 73.4836C85.0871 73.8155 84.8644 74.3045 84.8644 74.9508V75.0818C84.8644 75.7368 85.0827 76.2259 85.5194 76.549C85.9561 76.8634 86.6154 77.0206 87.4975 77.0206ZM104.448 70.7064V79.3H102.012L97.859 74.4399V79.3H95.3962V70.7064H97.8459L101.985 75.5534V70.7064H104.448ZM115.404 70.7064V73.0644H110.073V74.06H115.142V76.418H110.073V79.3H107.439V70.7064H115.404ZM126.436 77.2433V79.3H117.921V77.2957L122.427 74.8067C122.916 74.536 123.244 74.3176 123.41 74.1517C123.584 73.9858 123.672 73.8067 123.672 73.6146V73.5098C123.672 73.2391 123.541 73.0338 123.279 72.8941C123.017 72.7544 122.637 72.6845 122.139 72.6845C121.58 72.6845 121.152 72.7849 120.855 72.9858C120.567 73.1779 120.423 73.4618 120.423 73.8373V74.0993H117.895V73.8242C117.895 71.6321 119.296 70.5361 122.1 70.5361C123.436 70.5361 124.475 70.785 125.218 71.2828C125.96 71.7719 126.331 72.4574 126.331 73.3395V73.4705C126.331 74.0207 126.13 74.5403 125.728 75.0294C125.327 75.5097 124.685 75.9901 123.803 76.4704L122.388 77.2433H126.436ZM133.705 79.4703C132.727 79.4703 131.862 79.2956 131.111 78.9463C130.36 78.597 129.775 78.1079 129.356 77.4791C128.945 76.8503 128.74 76.1254 128.74 75.3045V74.715C128.74 73.8941 128.945 73.1692 129.356 72.5404C129.775 71.9029 130.36 71.4094 131.111 71.0601C131.862 70.7108 132.727 70.5361 133.705 70.5361C134.683 70.5361 135.543 70.7108 136.285 71.0601C137.028 71.4094 137.604 71.8985 138.015 72.5273C138.425 73.1561 138.63 73.8853 138.63 74.715V75.3045C138.63 76.1342 138.425 76.8634 138.015 77.4922C137.613 78.121 137.037 78.6101 136.285 78.9594C135.543 79.3 134.683 79.4703 133.705 79.4703ZM133.705 77.0206C134.5 77.0206 135.08 76.8852 135.447 76.6145C135.814 76.3438 135.997 75.9202 135.997 75.3438V74.6888C135.997 73.5535 135.229 72.9858 133.692 72.9858C132.923 72.9858 132.342 73.1299 131.949 73.4181C131.565 73.7063 131.373 74.1299 131.373 74.6888V75.3438C131.373 75.9115 131.565 76.335 131.949 76.6145C132.334 76.8852 132.919 77.0206 133.705 77.0206ZM149.653 77.2433V79.3H141.138V77.2957L145.644 74.8067C146.133 74.536 146.46 74.3176 146.626 74.1517C146.801 73.9858 146.888 73.8067 146.888 73.6146V73.5098C146.888 73.2391 146.757 73.0338 146.495 72.8941C146.233 72.7544 145.854 72.6845 145.356 72.6845C144.797 72.6845 144.369 72.7849 144.072 72.9858C143.784 73.1779 143.64 73.4618 143.64 73.8373V74.0993H141.111V73.8242C141.111 71.6321 142.513 70.5361 145.316 70.5361C146.653 70.5361 147.692 70.785 148.434 71.2828C149.177 71.7719 149.548 72.4574 149.548 73.3395V73.4705C149.548 74.0207 149.347 74.5403 148.945 75.0294C148.543 75.5097 147.901 75.9901 147.019 76.4704L145.605 77.2433H149.653ZM156.921 79.4703C155.943 79.4703 155.079 79.2956 154.328 78.9463C153.577 78.597 152.991 78.1079 152.572 77.4791C152.162 76.8503 151.957 76.1254 151.957 75.3045V74.715C151.957 73.8941 152.162 73.1692 152.572 72.5404C152.991 71.9029 153.577 71.4094 154.328 71.0601C155.079 70.7108 155.943 70.5361 156.921 70.5361C157.9 70.5361 158.76 70.7108 159.502 71.0601C160.245 71.4094 160.821 71.8985 161.231 72.5273C161.642 73.1561 161.847 73.8853 161.847 74.715V75.3045C161.847 76.1342 161.642 76.8634 161.231 77.4922C160.83 78.121 160.253 78.6101 159.502 78.9594C158.76 79.3 157.9 79.4703 156.921 79.4703ZM156.921 77.0206C157.716 77.0206 158.297 76.8852 158.664 76.6145C159.031 76.3438 159.214 75.9202 159.214 75.3438V74.6888C159.214 73.5535 158.445 72.9858 156.908 72.9858C156.14 72.9858 155.559 73.1299 155.166 73.4181C154.782 73.7063 154.59 74.1299 154.59 74.6888V75.3438C154.59 75.9115 154.782 76.335 155.166 76.6145C155.55 76.8852 156.135 77.0206 156.921 77.0206Z" fill="white"/> </svg>