<svg width="202" height="78" viewBox="0 0 202 78" fill="none" xmlns="http://www.w3.org/2000/svg">
<path d="M0 60.85C0 51.0368 7.57516 44.2363 17.7328 44.2363C20.7456 44.2363 23.5863 44.8389 25.9966 46.044V54.1357C23.6724 52.7584 21.3482 51.8115 17.8188 51.8115C12.4818 51.8115 8.43598 55.5991 8.43598 60.85C8.43598 66.1871 12.5679 69.8886 18.1632 69.8886C21.2621 69.8886 24.0167 69.286 26.5991 67.3061V75.3978C24.1028 76.689 21.0039 77.3777 17.8188 77.3777C7.66124 77.4638 0 70.6633 0 60.85Z" fill="#00A7D8"/>
<path d="M32.1084 44.8398H47.0866C54.2313 44.8398 58.6215 48.9718 58.6215 54.7392C58.6215 58.8711 56.2973 62.1422 52.4236 63.6917L62.0647 76.776H52.5958L43.6433 64.6386H40.3722V76.8621H32.1945V44.8398H32.1084ZM46.7422 57.9242C48.9804 57.9242 50.3577 56.8052 50.3577 54.9114C50.3577 53.0176 48.9804 51.8124 46.7422 51.8124H40.3722V57.9242H46.7422Z" fill="#00A7D8"/>
<path d="M106.482 44.8398H113.455L127.486 62.4004V44.8398H135.492V76.776H128.691L114.574 59.1294V76.776H106.482V44.8398Z" fill="white"/>
<path d="M141.088 60.85C141.088 51.0368 148.663 44.2363 158.821 44.2363C161.834 44.2363 164.674 44.8389 167.084 46.044V54.1357C164.76 52.7584 162.436 51.8115 158.907 51.8115C153.57 51.8115 149.524 55.5991 149.524 60.85C149.524 66.1871 153.656 69.8886 159.251 69.8886C162.35 69.8886 165.105 69.286 167.687 67.3061V75.3978C165.191 76.689 162.092 77.3777 158.907 77.3777C148.749 77.4638 141.088 70.6633 141.088 60.85Z" fill="white"/>
<path d="M173.195 44.8398H181.459V56.2026H193.511V44.8398H201.688V76.776H193.511V63.5195H181.459V76.776H173.195V44.8398Z" fill="white"/>
<path d="M79.3671 69.8895C76.2681 69.8895 73.5996 68.1679 73.5996 63.8638V44.8398H65.4219V63.4334C65.4219 72.6441 71.7058 77.4647 79.4531 77.4647V69.8895H79.3671Z" fill="#00A7D8"/>
<path d="M86.7702 69.8895C89.8691 69.8895 92.5376 68.1679 92.5376 63.8638V44.8398H100.715V63.4334C100.715 72.6441 94.4314 77.4647 86.6841 77.4647V69.8895H86.7702Z" fill="white"/>
<path d="M31.7642 0.938477H44.5042C54.9201 0.938477 62.1509 7.48066 62.1509 16.9496C62.1509 26.4186 54.9201 32.9608 44.5042 32.9608H31.7642V0.938477ZM43.9016 25.6438C50.0995 25.6438 53.6288 22.4588 53.6288 16.8635C53.6288 11.2682 50.0995 8.08323 43.9016 8.08323H39.9419V25.6438H43.9016Z" fill="#00A7D8"/>
<path d="M1.97949 0.938477V32.8747H26.2544V25.6438H10.1572V20.565H26.2544V13.3342H10.1572V8.16931H26.2544V0.938477H1.97949Z" fill="#00A7D8"/>
</svg>
