<?xml version="1.0" encoding="UTF-8"?>
<svg xmlns="http://www.w3.org/2000/svg" viewBox="0 0 4412.72 31.18"> <defs> <style>.cls-1{fill:#fff;}</style> </defs> <g id="Слой_2" data-name="Слой 2"> <g id="Слой_1-2" data-name="Слой 1"> <path class="cls-1" d="M11.41,1.44H9.72c0,2.3-1.91,3.42-5.72,3.42H0V6.52H4.14C6.7,6.52,8.57,6,9.72,4.9V25.06h1.69Z"/> <path class="cls-1" d="M30.08,1.44H28.39c0,2.3-1.91,3.42-5.73,3.42h-4V6.52h4.14c2.55,0,4.43-.54,5.58-1.62V25.06h1.69Z"/> <rect class="cls-1" x="37.23" y="14.36" width="17.71" height="1.55"/> <path class="cls-1" d="M67.31,1.44H65.62c0,2.3-1.91,3.42-5.73,3.42h-4V6.52H60c2.55,0,4.43-.54,5.58-1.62V25.06h1.69Z"/> <rect class="cls-1" x="76.62" y="1.44" width="20.7" height="1.58"/> <path class="cls-1" d="M87.42,11.05h-1l7-5.11h-2.8L83.89,11V12.6h3.38c5.76,0,8.82,1.8,8.82,5.18v.47c0,3.31-2.62,5.19-7.59,5.51v1.62c6.08-.36,9.32-2.81,9.32-7.16v-.47C97.82,13.43,94.15,11.05,87.42,11.05Z"/> <path class="cls-1" d="M78,19.3v-.44H76.26v.44c0,3.45,3.6,5.72,9.29,6.08V23.72C81,23.44,78,21.71,78,19.3Z"/> <rect class="cls-1" x="119.51" y="7.42" width="1.69" height="17.64"/> <polygon class="cls-1" points="124.15 15.48 124.15 16.99 136.68 16.99 136.68 25.06 138.37 25.06 138.37 7.42 136.68 7.42 136.68 15.48 124.15 15.48"/> <path class="cls-1" d="M152.77,8.68V7.13c-5.51.5-8.9,3.74-8.9,8.78v.76c0,4.93,3.39,8.17,8.9,8.67V23.76c-4.43-.47-7.17-3.06-7.17-7.13v-.72C145.6,11.81,148.27,9.18,152.77,8.68Z"/> <path class="cls-1" d="M155.72,7.13V8.71c4.39.47,7.05,3.17,7.05,7.2v.72c0,4-2.7,6.7-7.05,7.13v1.58c5.43-.5,8.78-3.74,8.78-8.67v-.76C164.5,10.91,161.15,7.63,155.72,7.13Z"/> <path class="cls-1" d="M169.06,12.89v.25c0,3.28,2.52,5.15,6.84,5.15h1.76l-8.49,6.51v.26h2.16l8.82-6.77h4V16.85H176c-3.39,0-5.22-1.3-5.22-3.71v-.25c0-2.56,1.83-4,5.22-4h8.1V7.42H175.9C171.58,7.42,169.06,9.43,169.06,12.89Z"/> <rect class="cls-1" x="187.06" y="7.42" width="1.69" height="17.64"/> <path class="cls-1" d="M206.82,1.84V3.42l4.64-.36c2.2-.18,3.13-1,3.13-2.66V0h-1.8V.36c0,.76-.47,1-1.73,1.15Z"/> <path class="cls-1" d="M203.86,3.74V2.16c-6.15.94-9,4.28-9,10.55v2.23c0,6.26,3.17,9.9,9,10.4V23.8c-4.78-.51-7.3-3.39-7.3-8.5V12.13C196.56,7.2,198.79,4.54,203.86,3.74Z"/> <path class="cls-1" d="M199.51,9.86v1.52a9.46,9.46,0,0,1,5.79-1.84c5.19,0,8.54,2.7,8.54,6.84v.76c0,3.67-2.7,6.19-7,6.66v1.54c5.32-.46,8.74-3.56,8.74-8.2v-.8c0-5-4-8.35-9.93-8.35A10,10,0,0,0,199.51,9.86Z"/> <path class="cls-1" d="M225.72,22.39V24A9.88,9.88,0,0,0,231,25.45c6.15,0,10.15-3.45,10.15-8.85v-.72c0-5.44-4-8.86-10.15-8.86a9.63,9.63,0,0,0-5.26,1.44v1.62a8.82,8.82,0,0,1,5-1.48c5.33,0,8.64,2.74,8.64,7.28v.72c0,4.53-3.31,7.27-8.64,7.27A8.82,8.82,0,0,1,225.72,22.39Z"/> <rect class="cls-1" x="221.08" y="7.42" width="1.69" height="23.76"/> <path class="cls-1" d="M245.7,12.89v.25c0,3.28,2.52,5.15,6.84,5.15h1.76l-8.49,6.51v.26H248l8.82-6.77h4V16.85h-8.1c-3.39,0-5.22-1.3-5.22-3.71v-.25c0-2.56,1.83-4,5.22-4h8.1V7.42h-8.21C248.22,7.42,245.7,9.43,245.7,12.89Z"/> <rect class="cls-1" x="263.7" y="7.42" width="1.69" height="17.64"/> <path class="cls-1" d="M357,1.44h-1.69c0,2.3-1.91,3.42-5.72,3.42h-4V6.52h4.14c2.56,0,4.43-.54,5.58-1.62V25.06H357Z"/> <path class="cls-1" d="M375.69,1.44H374c0,2.3-1.91,3.42-5.73,3.42h-4V6.52h4.14C371,6.52,372.85,6,374,4.9V25.06h1.69Z"/> <rect class="cls-1" x="382.84" y="14.36" width="17.71" height="1.55"/> <path class="cls-1" d="M412.92,1.44h-1.69c0,2.3-1.91,3.42-5.72,3.42h-4V6.52h4.14c2.56,0,4.43-.54,5.58-1.62V25.06h1.69Z"/> <rect class="cls-1" x="422.23" y="1.44" width="20.7" height="1.58"/> <path class="cls-1" d="M433,11.05h-1l7-5.11H436.2L429.5,11V12.6h3.39c5.76,0,8.82,1.8,8.82,5.18v.47c0,3.31-2.63,5.19-7.6,5.51v1.62c6.08-.36,9.32-2.81,9.32-7.16v-.47C443.43,13.43,439.76,11.05,433,11.05Z"/> <path class="cls-1" d="M423.6,19.3v-.44h-1.73v.44c0,3.45,3.6,5.72,9.29,6.08V23.72C426.62,23.44,423.6,21.71,423.6,19.3Z"/> <rect class="cls-1" x="465.12" y="7.42" width="1.69" height="17.64"/> <polygon class="cls-1" points="469.76 15.48 469.76 16.99 482.29 16.99 482.29 25.06 483.99 25.06 483.99 7.42 482.29 7.42 482.29 15.48 469.76 15.48"/> <path class="cls-1" d="M498.38,8.68V7.13c-5.51.5-8.9,3.74-8.9,8.78v.76c0,4.93,3.39,8.17,8.9,8.67V23.76c-4.43-.47-7.17-3.06-7.17-7.13v-.72C491.21,11.81,493.88,9.18,498.38,8.68Z"/> <path class="cls-1" d="M501.33,7.13V8.71c4.39.47,7.05,3.17,7.05,7.2v.72c0,4-2.7,6.7-7.05,7.13v1.58c5.43-.5,8.78-3.74,8.78-8.67v-.76C510.11,10.91,506.76,7.63,501.33,7.13Z"/> <path class="cls-1" d="M514.67,12.89v.25c0,3.28,2.52,5.15,6.84,5.15h1.76l-8.49,6.51v.26h2.16l8.82-6.77h4V16.85h-8.1c-3.39,0-5.22-1.3-5.22-3.71v-.25c0-2.56,1.83-4,5.22-4h8.1V7.42h-8.21C517.19,7.42,514.67,9.43,514.67,12.89Z"/> <rect class="cls-1" x="532.67" y="7.42" width="1.69" height="17.64"/> <path class="cls-1" d="M552.43,1.84V3.42l4.64-.36c2.2-.18,3.13-1,3.13-2.66V0h-1.8V.36c0,.76-.46,1-1.72,1.15Z"/> <path class="cls-1" d="M549.48,3.74V2.16c-6.16.94-9,4.28-9,10.55v2.23c0,6.26,3.16,9.9,9,10.4V23.8c-4.79-.51-7.31-3.39-7.31-8.5V12.13C542.17,7.2,544.4,4.54,549.48,3.74Z"/> <path class="cls-1" d="M545.12,9.86v1.52a9.47,9.47,0,0,1,5.8-1.84c5.18,0,8.53,2.7,8.53,6.84v.76c0,3.67-2.7,6.19-7,6.66v1.54c5.33-.46,8.75-3.56,8.75-8.2v-.8c0-5-4-8.35-9.94-8.35A10,10,0,0,0,545.12,9.86Z"/> <path class="cls-1" d="M571.33,22.39V24a9.91,9.91,0,0,0,5.26,1.44c6.15,0,10.15-3.45,10.15-8.85v-.72c0-5.44-4-8.86-10.15-8.86a9.63,9.63,0,0,0-5.26,1.44v1.62a8.82,8.82,0,0,1,5-1.48c5.33,0,8.64,2.74,8.64,7.28v.72c0,4.53-3.31,7.27-8.64,7.27A8.82,8.82,0,0,1,571.33,22.39Z"/> <rect class="cls-1" x="566.69" y="7.42" width="1.69" height="23.76"/> <path class="cls-1" d="M591.31,12.89v.25c0,3.28,2.52,5.15,6.84,5.15h1.76l-8.49,6.51v.26h2.16l8.82-6.77h4V16.85h-8.1c-3.39,0-5.22-1.3-5.22-3.71v-.25c0-2.56,1.83-4,5.22-4h8.1V7.42h-8.21C593.83,7.42,591.31,9.43,591.31,12.89Z"/> <rect class="cls-1" x="609.31" y="7.42" width="1.69" height="17.64"/> <path class="cls-1" d="M702.63,1.44h-1.69c0,2.3-1.91,3.42-5.72,3.42h-4V6.52h4.14c2.56,0,4.43-.54,5.58-1.62V25.06h1.69Z"/> <path class="cls-1" d="M721.3,1.44h-1.69c0,2.3-1.91,3.42-5.72,3.42h-4V6.52H714c2.56,0,4.43-.54,5.58-1.62V25.06h1.69Z"/> <rect class="cls-1" x="728.45" y="14.36" width="17.71" height="1.55"/> <path class="cls-1" d="M758.53,1.44h-1.69c0,2.3-1.91,3.42-5.72,3.42h-4V6.52h4.14c2.56,0,4.43-.54,5.58-1.62V25.06h1.69Z"/> <rect class="cls-1" x="767.84" y="1.44" width="20.7" height="1.58"/> <path class="cls-1" d="M778.64,11.05h-1l7-5.11h-2.81L775.11,11V12.6h3.39c5.76,0,8.82,1.8,8.82,5.18v.47c0,3.31-2.63,5.19-7.6,5.51v1.62C785.8,25,789,22.57,789,18.22v-.47C789,13.43,785.37,11.05,778.64,11.05Z"/> <path class="cls-1" d="M769.21,19.3v-.44h-1.73v.44c0,3.45,3.6,5.72,9.29,6.08V23.72C772.23,23.44,769.21,21.71,769.21,19.3Z"/> <rect class="cls-1" x="810.73" y="7.42" width="1.69" height="17.64"/> <polygon class="cls-1" points="815.38 15.48 815.38 16.99 827.9 16.99 827.9 25.06 829.6 25.06 829.6 7.42 827.9 7.42 827.9 15.48 815.38 15.48"/> <path class="cls-1" d="M844,8.68V7.13c-5.51.5-8.89,3.74-8.89,8.78v.76c0,4.93,3.38,8.17,8.89,8.67V23.76c-4.43-.47-7.17-3.06-7.17-7.13v-.72C836.82,11.81,839.49,9.18,844,8.68Z"/> <path class="cls-1" d="M846.94,7.13V8.71c4.39.47,7.06,3.17,7.06,7.2v.72c0,4-2.7,6.7-7.06,7.13v1.58c5.44-.5,8.78-3.74,8.78-8.67v-.76C855.72,10.91,852.38,7.63,846.94,7.13Z"/> <path class="cls-1" d="M860.28,12.89v.25c0,3.28,2.52,5.15,6.84,5.15h1.76l-8.49,6.51v.26h2.16l8.82-6.77h4V16.85h-8.1c-3.39,0-5.22-1.3-5.22-3.71v-.25c0-2.56,1.83-4,5.22-4h8.1V7.42h-8.21C862.8,7.42,860.28,9.43,860.28,12.89Z"/> <rect class="cls-1" x="878.28" y="7.42" width="1.69" height="17.64"/> <path class="cls-1" d="M898,1.84V3.42l4.64-.36c2.2-.18,3.13-1,3.13-2.66V0H904V.36c0,.76-.46,1-1.72,1.15Z"/> <path class="cls-1" d="M895.09,3.74V2.16c-6.16.94-9,4.28-9,10.55v2.23c0,6.26,3.16,9.9,9,10.4V23.8c-4.79-.51-7.31-3.39-7.31-8.5V12.13C887.78,7.2,890,4.54,895.09,3.74Z"/> <path class="cls-1" d="M890.73,9.86v1.52a9.47,9.47,0,0,1,5.8-1.84c5.18,0,8.53,2.7,8.53,6.84v.76c0,3.67-2.7,6.19-7,6.66v1.54c5.33-.46,8.75-3.56,8.75-8.2v-.8c0-5-4-8.35-9.94-8.35A10,10,0,0,0,890.73,9.86Z"/> <path class="cls-1" d="M916.94,22.39V24a9.91,9.91,0,0,0,5.26,1.44c6.15,0,10.15-3.45,10.15-8.85v-.72c0-5.44-4-8.86-10.15-8.86a9.63,9.63,0,0,0-5.26,1.44v1.62a8.82,8.82,0,0,1,5-1.48c5.33,0,8.64,2.74,8.64,7.28v.72c0,4.53-3.31,7.27-8.64,7.27A8.82,8.82,0,0,1,916.94,22.39Z"/> <rect class="cls-1" x="912.3" y="7.42" width="1.69" height="23.76"/> <path class="cls-1" d="M936.92,12.89v.25c0,3.28,2.52,5.15,6.84,5.15h1.76L937,24.8v.26h2.16L948,18.29h4V16.85h-8.1c-3.39,0-5.22-1.3-5.22-3.71v-.25c0-2.56,1.83-4,5.22-4H952V7.42h-8.21C939.44,7.42,936.92,9.43,936.92,12.89Z"/> <rect class="cls-1" x="954.92" y="7.42" width="1.69" height="17.64"/> <path class="cls-1" d="M1048.24,1.44h-1.69c0,2.3-1.91,3.42-5.72,3.42h-4V6.52H1041c2.56,0,4.43-.54,5.58-1.62V25.06h1.69Z"/> <path class="cls-1" d="M1066.91,1.44h-1.69c0,2.3-1.91,3.42-5.72,3.42h-4V6.52h4.14c2.56,0,4.43-.54,5.58-1.62V25.06h1.69Z"/> <rect class="cls-1" x="1074.06" y="14.36" width="17.71" height="1.55"/> <path class="cls-1" d="M1104.14,1.44h-1.69c0,2.3-1.91,3.42-5.72,3.42h-4V6.52h4.14c2.56,0,4.43-.54,5.58-1.62V25.06h1.69Z"/> <rect class="cls-1" x="1113.45" y="1.44" width="20.7" height="1.58"/> <path class="cls-1" d="M1124.25,11.05h-1l7-5.11h-2.81l-6.7,5.08V12.6h3.39c5.76,0,8.82,1.8,8.82,5.18v.47c0,3.31-2.63,5.19-7.6,5.51v1.62c6.09-.36,9.33-2.81,9.33-7.16v-.47C1134.66,13.43,1131,11.05,1124.25,11.05Z"/> <path class="cls-1" d="M1114.82,19.3v-.44h-1.73v.44c0,3.45,3.6,5.72,9.29,6.08V23.72C1117.84,23.44,1114.82,21.71,1114.82,19.3Z"/> <rect class="cls-1" x="1156.34" y="7.42" width="1.69" height="17.64"/> <polygon class="cls-1" points="1160.99 15.48 1160.99 16.99 1173.52 16.99 1173.52 25.06 1175.21 25.06 1175.21 7.42 1173.52 7.42 1173.52 15.48 1160.99 15.48"/> <path class="cls-1" d="M1189.6,8.68V7.13c-5.51.5-8.89,3.74-8.89,8.78v.76c0,4.93,3.38,8.17,8.89,8.67V23.76c-4.43-.47-7.17-3.06-7.17-7.13v-.72C1182.43,11.81,1185.1,9.18,1189.6,8.68Z"/> <path class="cls-1" d="M1192.55,7.13V8.71c4.39.47,7.06,3.17,7.06,7.2v.72c0,4-2.7,6.7-7.06,7.13v1.58c5.44-.5,8.78-3.74,8.78-8.67v-.76C1201.33,10.91,1198,7.63,1192.55,7.13Z"/> <path class="cls-1" d="M1205.89,12.89v.25c0,3.28,2.52,5.15,6.84,5.15h1.77L1206,24.8v.26h2.16l8.82-6.77h4V16.85h-8.1c-3.38,0-5.22-1.3-5.22-3.71v-.25c0-2.56,1.84-4,5.22-4h8.1V7.42h-8.21C1208.41,7.42,1205.89,9.43,1205.89,12.89Z"/> <rect class="cls-1" x="1223.89" y="7.42" width="1.69" height="17.64"/> <path class="cls-1" d="M1243.65,1.84V3.42l4.64-.36c2.2-.18,3.14-1,3.14-2.66V0h-1.8V.36c0,.76-.47,1-1.73,1.15Z"/> <path class="cls-1" d="M1240.7,3.74V2.16c-6.16.94-9,4.28-9,10.55v2.23c0,6.26,3.17,9.9,9,10.4V23.8c-4.79-.51-7.31-3.39-7.31-8.5V12.13C1233.39,7.2,1235.62,4.54,1240.7,3.74Z"/> <path class="cls-1" d="M1236.34,9.86v1.52a9.47,9.47,0,0,1,5.8-1.84c5.18,0,8.53,2.7,8.53,6.84v.76c0,3.67-2.7,6.19-7,6.66v1.54c5.33-.46,8.75-3.56,8.75-8.2v-.8c0-5-4-8.35-9.94-8.35A10,10,0,0,0,1236.34,9.86Z"/> <path class="cls-1" d="M1262.55,22.39V24a9.91,9.91,0,0,0,5.26,1.44C1274,25.45,1278,22,1278,16.6v-.72c0-5.44-4-8.86-10.15-8.86a9.63,9.63,0,0,0-5.26,1.44v1.62a8.87,8.87,0,0,1,5-1.48c5.33,0,8.64,2.74,8.64,7.28v.72c0,4.53-3.31,7.27-8.64,7.27A8.87,8.87,0,0,1,1262.55,22.39Z"/> <rect class="cls-1" x="1257.91" y="7.42" width="1.69" height="23.76"/> <path class="cls-1" d="M1282.53,12.89v.25c0,3.28,2.52,5.15,6.84,5.15h1.77l-8.5,6.51v.26h2.16l8.82-6.77h4V16.85h-8.1c-3.38,0-5.22-1.3-5.22-3.71v-.25c0-2.56,1.84-4,5.22-4h8.1V7.42h-8.21C1285.05,7.42,1282.53,9.43,1282.53,12.89Z"/> <rect class="cls-1" x="1300.53" y="7.42" width="1.69" height="17.64"/> <path class="cls-1" d="M1393.86,1.44h-1.7c0,2.3-1.9,3.42-5.72,3.42h-4V6.52h4.14c2.56,0,4.43-.54,5.58-1.62V25.06h1.7Z"/> <path class="cls-1" d="M1412.52,1.44h-1.69c0,2.3-1.91,3.42-5.72,3.42h-4V6.52h4.14c2.56,0,4.43-.54,5.58-1.62V25.06h1.69Z"/> <rect class="cls-1" x="1419.67" y="14.36" width="17.71" height="1.55"/> <path class="cls-1" d="M1449.75,1.44h-1.69c0,2.3-1.91,3.42-5.72,3.42h-4V6.52h4.14c2.56,0,4.43-.54,5.58-1.62V25.06h1.69Z"/> <rect class="cls-1" x="1459.06" y="1.44" width="20.7" height="1.58"/> <path class="cls-1" d="M1469.86,11.05h-1l7-5.11H1473l-6.7,5.08V12.6h3.39c5.76,0,8.82,1.8,8.82,5.18v.47c0,3.31-2.63,5.19-7.6,5.51v1.62c6.09-.36,9.33-2.81,9.33-7.16v-.47C1480.27,13.43,1476.59,11.05,1469.86,11.05Z"/> <path class="cls-1" d="M1460.43,19.3v-.44h-1.73v.44c0,3.45,3.6,5.72,9.29,6.08V23.72C1463.45,23.44,1460.43,21.71,1460.43,19.3Z"/> <rect class="cls-1" x="1501.95" y="7.42" width="1.69" height="17.64"/> <polygon class="cls-1" points="1506.6 15.48 1506.6 16.99 1519.13 16.99 1519.13 25.06 1520.82 25.06 1520.82 7.42 1519.13 7.42 1519.13 15.48 1506.6 15.48"/> <path class="cls-1" d="M1535.21,8.68V7.13c-5.51.5-8.89,3.74-8.89,8.78v.76c0,4.93,3.38,8.17,8.89,8.67V23.76c-4.43-.47-7.16-3.06-7.16-7.13v-.72C1528.05,11.81,1530.71,9.18,1535.21,8.68Z"/> <path class="cls-1" d="M1538.16,7.13V8.71c4.39.47,7.06,3.17,7.06,7.2v.72c0,4-2.7,6.7-7.06,7.13v1.58c5.44-.5,8.79-3.74,8.79-8.67v-.76C1547,10.91,1543.6,7.63,1538.16,7.13Z"/> <path class="cls-1" d="M1551.5,12.89v.25c0,3.28,2.52,5.15,6.84,5.15h1.77l-8.5,6.51v.26h2.16l8.82-6.77h4V16.85h-8.1c-3.38,0-5.22-1.3-5.22-3.71v-.25c0-2.56,1.84-4,5.22-4h8.1V7.42h-8.21C1554,7.42,1551.5,9.43,1551.5,12.89Z"/> <rect class="cls-1" x="1569.5" y="7.42" width="1.69" height="17.64"/> <path class="cls-1" d="M1589.26,1.84V3.42l4.64-.36c2.2-.18,3.14-1,3.14-2.66V0h-1.8V.36c0,.76-.47,1-1.73,1.15Z"/> <path class="cls-1" d="M1586.31,3.74V2.16c-6.16.94-9,4.28-9,10.55v2.23c0,6.26,3.17,9.9,9,10.4V23.8c-4.79-.51-7.31-3.39-7.31-8.5V12.13C1579,7.2,1581.23,4.54,1586.31,3.74Z"/> <path class="cls-1" d="M1582,9.86v1.52a9.47,9.47,0,0,1,5.8-1.84c5.18,0,8.53,2.7,8.53,6.84v.76c0,3.67-2.7,6.19-7,6.66v1.54c5.33-.46,8.75-3.56,8.75-8.2v-.8c0-5-4-8.35-9.94-8.35A10,10,0,0,0,1582,9.86Z"/> <path class="cls-1" d="M1608.16,22.39V24a9.91,9.91,0,0,0,5.26,1.44c6.16,0,10.15-3.45,10.15-8.85v-.72c0-5.44-4-8.86-10.15-8.86a9.63,9.63,0,0,0-5.26,1.44v1.62a8.87,8.87,0,0,1,5-1.48c5.33,0,8.64,2.74,8.64,7.28v.72c0,4.53-3.31,7.27-8.64,7.27A8.87,8.87,0,0,1,1608.16,22.39Z"/> <rect class="cls-1" x="1603.52" y="7.42" width="1.69" height="23.76"/> <path class="cls-1" d="M1628.14,12.89v.25c0,3.28,2.52,5.15,6.84,5.15h1.77l-8.5,6.51v.26h2.16l8.82-6.77h4V16.85h-8.1c-3.38,0-5.22-1.3-5.22-3.71v-.25c0-2.56,1.84-4,5.22-4h8.1V7.42H1635C1630.66,7.42,1628.14,9.43,1628.14,12.89Z"/> <rect class="cls-1" x="1646.14" y="7.42" width="1.69" height="17.64"/> <path class="cls-1" d="M1739.47,1.44h-1.7c0,2.3-1.9,3.42-5.72,3.42h-4V6.52h4.14c2.56,0,4.43-.54,5.58-1.62V25.06h1.7Z"/> <path class="cls-1" d="M1758.13,1.44h-1.69c0,2.3-1.91,3.42-5.72,3.42h-4V6.52h4.14c2.56,0,4.43-.54,5.58-1.62V25.06h1.69Z"/> <rect class="cls-1" x="1765.28" y="14.36" width="17.71" height="1.55"/> <path class="cls-1" d="M1795.37,1.44h-1.7c0,2.3-1.9,3.42-5.72,3.42h-4V6.52h4.14c2.56,0,4.43-.54,5.58-1.62V25.06h1.7Z"/> <rect class="cls-1" x="1804.67" y="1.44" width="20.7" height="1.58"/> <path class="cls-1" d="M1815.47,11.05h-1l7-5.11h-2.81L1812,11V12.6h3.38c5.76,0,8.82,1.8,8.82,5.18v.47c0,3.31-2.63,5.19-7.6,5.51v1.62c6.09-.36,9.33-2.81,9.33-7.16v-.47C1825.88,13.43,1822.21,11.05,1815.47,11.05Z"/> <path class="cls-1" d="M1806,19.3v-.44h-1.73v.44c0,3.45,3.6,5.72,9.29,6.08V23.72C1809.07,23.44,1806,21.71,1806,19.3Z"/> <rect class="cls-1" x="1847.56" y="7.42" width="1.69" height="17.64"/> <polygon class="cls-1" points="1852.21 15.48 1852.21 16.99 1864.74 16.99 1864.74 25.06 1866.43 25.06 1866.43 7.42 1864.74 7.42 1864.74 15.48 1852.21 15.48"/> <path class="cls-1" d="M1880.82,8.68V7.13c-5.51.5-8.89,3.74-8.89,8.78v.76c0,4.93,3.38,8.17,8.89,8.67V23.76c-4.43-.47-7.16-3.06-7.16-7.13v-.72C1873.66,11.81,1876.32,9.18,1880.82,8.68Z"/> <path class="cls-1" d="M1883.77,7.13V8.71c4.39.47,7.06,3.17,7.06,7.2v.72c0,4-2.7,6.7-7.06,7.13v1.58c5.44-.5,8.79-3.74,8.79-8.67v-.76C1892.56,10.91,1889.21,7.63,1883.77,7.13Z"/> <path class="cls-1" d="M1897.11,12.89v.25c0,3.28,2.52,5.15,6.84,5.15h1.77l-8.5,6.51v.26h2.16l8.82-6.77h4V16.85h-8.1c-3.38,0-5.22-1.3-5.22-3.71v-.25c0-2.56,1.84-4,5.22-4h8.1V7.42H1904C1899.63,7.42,1897.11,9.43,1897.11,12.89Z"/> <rect class="cls-1" x="1915.11" y="7.42" width="1.69" height="17.64"/> <path class="cls-1" d="M1934.87,1.84V3.42l4.65-.36c2.19-.18,3.13-1,3.13-2.66V0h-1.8V.36c0,.76-.47,1-1.73,1.15Z"/> <path class="cls-1" d="M1931.92,3.74V2.16c-6.16.94-9,4.28-9,10.55v2.23c0,6.26,3.17,9.9,9,10.4V23.8c-4.79-.51-7.31-3.39-7.31-8.5V12.13C1924.61,7.2,1926.84,4.54,1931.92,3.74Z"/> <path class="cls-1" d="M1927.56,9.86v1.52a9.49,9.49,0,0,1,5.8-1.84c5.18,0,8.53,2.7,8.53,6.84v.76c0,3.67-2.7,6.19-7,6.66v1.54c5.33-.46,8.75-3.56,8.75-8.2v-.8c0-5-4-8.35-9.94-8.35A10,10,0,0,0,1927.56,9.86Z"/> <path class="cls-1" d="M1953.78,22.39V24a9.85,9.85,0,0,0,5.25,1.44c6.16,0,10.15-3.45,10.15-8.85v-.72c0-5.44-4-8.86-10.15-8.86a9.6,9.6,0,0,0-5.25,1.44v1.62a8.82,8.82,0,0,1,5-1.48c5.32,0,8.64,2.74,8.64,7.28v.72c0,4.53-3.32,7.27-8.64,7.27A8.82,8.82,0,0,1,1953.78,22.39Z"/> <rect class="cls-1" x="1949.13" y="7.42" width="1.69" height="23.76"/> <path class="cls-1" d="M1973.75,12.89v.25c0,3.28,2.52,5.15,6.84,5.15h1.77l-8.5,6.51v.26H1976l8.82-6.77h4V16.85h-8.1c-3.38,0-5.22-1.3-5.22-3.71v-.25c0-2.56,1.84-4,5.22-4h8.1V7.42h-8.21C1976.27,7.42,1973.75,9.43,1973.75,12.89Z"/> <rect class="cls-1" x="1991.75" y="7.42" width="1.69" height="17.64"/> <path class="cls-1" d="M2085.08,1.44h-1.69c0,2.3-1.91,3.42-5.73,3.42h-4V6.52h4.14c2.55,0,4.42-.54,5.58-1.62V25.06h1.69Z"/> <path class="cls-1" d="M2103.75,1.44h-1.7c0,2.3-1.9,3.42-5.72,3.42h-4V6.52h4.14c2.56,0,4.43-.54,5.58-1.62V25.06h1.7Z"/> <rect class="cls-1" x="2110.89" y="14.36" width="17.71" height="1.55"/> <path class="cls-1" d="M2141,1.44h-1.7c0,2.3-1.9,3.42-5.72,3.42h-4V6.52h4.14c2.56,0,4.43-.54,5.58-1.62V25.06h1.7Z"/> <rect class="cls-1" x="2150.28" y="1.44" width="20.7" height="1.58"/> <path class="cls-1" d="M2161.08,11.05h-1l7-5.11h-2.81L2157.56,11V12.6h3.38c5.76,0,8.82,1.8,8.82,5.18v.47c0,3.31-2.63,5.19-7.6,5.51v1.62c6.09-.36,9.33-2.81,9.33-7.16v-.47C2171.49,13.43,2167.82,11.05,2161.08,11.05Z"/> <path class="cls-1" d="M2151.65,19.3v-.44h-1.73v.44c0,3.45,3.6,5.72,9.29,6.08V23.72C2154.68,23.44,2151.65,21.71,2151.65,19.3Z"/> <rect class="cls-1" x="2193.18" y="7.42" width="1.69" height="17.64"/> <polygon class="cls-1" points="2197.82 15.48 2197.82 16.99 2210.35 16.99 2210.35 25.06 2212.04 25.06 2212.04 7.42 2210.35 7.42 2210.35 15.48 2197.82 15.48"/> <path class="cls-1" d="M2226.43,8.68V7.13c-5.51.5-8.89,3.74-8.89,8.78v.76c0,4.93,3.38,8.17,8.89,8.67V23.76c-4.43-.47-7.16-3.06-7.16-7.13v-.72C2219.27,11.81,2221.93,9.18,2226.43,8.68Z"/> <path class="cls-1" d="M2229.38,7.13V8.71c4.4.47,7.06,3.17,7.06,7.2v.72c0,4-2.7,6.7-7.06,7.13v1.58c5.44-.5,8.79-3.74,8.79-8.67v-.76C2238.17,10.91,2234.82,7.63,2229.38,7.13Z"/> <path class="cls-1" d="M2242.72,12.89v.25c0,3.28,2.52,5.15,6.84,5.15h1.77l-8.5,6.51v.26H2245l8.82-6.77h4V16.85h-8.1c-3.38,0-5.22-1.3-5.22-3.71v-.25c0-2.56,1.84-4,5.22-4h8.1V7.42h-8.21C2245.24,7.42,2242.72,9.43,2242.72,12.89Z"/> <rect class="cls-1" x="2260.72" y="7.42" width="1.69" height="17.64"/> <path class="cls-1" d="M2280.48,1.84V3.42l4.65-.36c2.19-.18,3.13-1,3.13-2.66V0h-1.8V.36c0,.76-.47,1-1.73,1.15Z"/> <path class="cls-1" d="M2277.53,3.74V2.16c-6.16.94-9,4.28-9,10.55v2.23c0,6.26,3.17,9.9,9,10.4V23.8c-4.79-.51-7.31-3.39-7.31-8.5V12.13C2270.22,7.2,2272.45,4.54,2277.53,3.74Z"/> <path class="cls-1" d="M2273.17,9.86v1.52a9.49,9.49,0,0,1,5.8-1.84c5.18,0,8.53,2.7,8.53,6.84v.76c0,3.67-2.7,6.19-7,6.66v1.54c5.33-.46,8.75-3.56,8.75-8.2v-.8c0-5-4-8.35-9.94-8.35A10,10,0,0,0,2273.17,9.86Z"/> <path class="cls-1" d="M2299.39,22.39V24a9.85,9.85,0,0,0,5.25,1.44c6.16,0,10.15-3.45,10.15-8.85v-.72c0-5.44-4-8.86-10.15-8.86a9.6,9.6,0,0,0-5.25,1.44v1.62a8.82,8.82,0,0,1,5-1.48c5.32,0,8.64,2.74,8.64,7.28v.72c0,4.53-3.32,7.27-8.64,7.27A8.82,8.82,0,0,1,2299.39,22.39Z"/> <rect class="cls-1" x="2294.74" y="7.42" width="1.69" height="23.76"/> <path class="cls-1" d="M2319.36,12.89v.25c0,3.28,2.52,5.15,6.84,5.15H2328l-8.5,6.51v.26h2.16l8.82-6.77h4V16.85h-8.1c-3.38,0-5.22-1.3-5.22-3.71v-.25c0-2.56,1.84-4,5.22-4h8.1V7.42h-8.21C2321.88,7.42,2319.36,9.43,2319.36,12.89Z"/> <rect class="cls-1" x="2337.36" y="7.42" width="1.69" height="17.64"/> <path class="cls-1" d="M2430.69,1.44H2429c0,2.3-1.91,3.42-5.73,3.42h-4V6.52h4.14c2.55,0,4.42-.54,5.58-1.62V25.06h1.69Z"/> <path class="cls-1" d="M2449.36,1.44h-1.7c0,2.3-1.9,3.42-5.72,3.42h-4V6.52h4.14c2.56,0,4.43-.54,5.58-1.62V25.06h1.7Z"/> <rect class="cls-1" x="2456.5" y="14.36" width="17.71" height="1.55"/> <path class="cls-1" d="M2486.59,1.44h-1.69c0,2.3-1.91,3.42-5.73,3.42h-4V6.52h4.14c2.55,0,4.42-.54,5.58-1.62V25.06h1.69Z"/> <rect class="cls-1" x="2495.9" y="1.44" width="20.7" height="1.58"/> <path class="cls-1" d="M2506.7,11.05h-1l7-5.11h-2.81L2503.17,11V12.6h3.38c5.76,0,8.82,1.8,8.82,5.18v.47c0,3.31-2.63,5.19-7.59,5.51v1.62c6.08-.36,9.32-2.81,9.32-7.16v-.47C2517.1,13.43,2513.43,11.05,2506.7,11.05Z"/> <path class="cls-1" d="M2497.26,19.3v-.44h-1.72v.44c0,3.45,3.6,5.72,9.28,6.08V23.72C2500.29,23.44,2497.26,21.71,2497.26,19.3Z"/> <rect class="cls-1" x="2538.79" y="7.42" width="1.69" height="17.64"/> <polygon class="cls-1" points="2543.43 15.48 2543.43 16.99 2555.96 16.99 2555.96 25.06 2557.65 25.06 2557.65 7.42 2555.96 7.42 2555.96 15.48 2543.43 15.48"/> <path class="cls-1" d="M2572,8.68V7.13c-5.51.5-8.89,3.74-8.89,8.78v.76c0,4.93,3.38,8.17,8.89,8.67V23.76c-4.43-.47-7.16-3.06-7.16-7.13v-.72C2564.88,11.81,2567.54,9.18,2572,8.68Z"/> <path class="cls-1" d="M2575,7.13V8.71c4.4.47,7.06,3.17,7.06,7.2v.72c0,4-2.7,6.7-7.06,7.13v1.58c5.44-.5,8.79-3.74,8.79-8.67v-.76C2583.78,10.91,2580.43,7.63,2575,7.13Z"/> <path class="cls-1" d="M2588.34,12.89v.25c0,3.28,2.52,5.15,6.84,5.15h1.76l-8.5,6.51v.26h2.16l8.82-6.77h4V16.85h-8.1c-3.38,0-5.22-1.3-5.22-3.71v-.25c0-2.56,1.84-4,5.22-4h8.1V7.42h-8.2C2590.86,7.42,2588.34,9.43,2588.34,12.89Z"/> <rect class="cls-1" x="2606.34" y="7.42" width="1.69" height="17.64"/> <path class="cls-1" d="M2626.09,1.84V3.42l4.65-.36c2.19-.18,3.13-1,3.13-2.66V0h-1.8V.36c0,.76-.47,1-1.73,1.15Z"/> <path class="cls-1" d="M2623.14,3.74V2.16c-6.15.94-9,4.28-9,10.55v2.23c0,6.26,3.17,9.9,9,10.4V23.8c-4.79-.51-7.31-3.39-7.31-8.5V12.13C2615.83,7.2,2618.07,4.54,2623.14,3.74Z"/> <path class="cls-1" d="M2618.79,9.86v1.52a9.44,9.44,0,0,1,5.79-1.84c5.19,0,8.53,2.7,8.53,6.84v.76c0,3.67-2.7,6.19-7,6.66v1.54c5.33-.46,8.75-3.56,8.75-8.2v-.8c0-5-4-8.35-9.93-8.35A10,10,0,0,0,2618.79,9.86Z"/> <path class="cls-1" d="M2645,22.39V24a9.85,9.85,0,0,0,5.25,1.44c6.16,0,10.16-3.45,10.16-8.85v-.72c0-5.44-4-8.86-10.16-8.86A9.6,9.6,0,0,0,2645,8.46v1.62a8.82,8.82,0,0,1,5-1.48c5.33,0,8.64,2.74,8.64,7.28v.72c0,4.53-3.31,7.27-8.64,7.27A8.82,8.82,0,0,1,2645,22.39Z"/> <rect class="cls-1" x="2640.35" y="7.42" width="1.69" height="23.76"/> <path class="cls-1" d="M2665,12.89v.25c0,3.28,2.52,5.15,6.84,5.15h1.76l-8.5,6.51v.26h2.16l8.82-6.77h4V16.85h-8.1c-3.38,0-5.22-1.3-5.22-3.71v-.25c0-2.56,1.84-4,5.22-4h8.1V7.42h-8.2C2667.5,7.42,2665,9.43,2665,12.89Z"/> <rect class="cls-1" x="2682.98" y="7.42" width="1.69" height="17.64"/> <path class="cls-1" d="M2776.3,1.44h-1.69c0,2.3-1.91,3.42-5.73,3.42h-4V6.52H2769c2.55,0,4.43-.54,5.58-1.62V25.06h1.69Z"/> <path class="cls-1" d="M2795,1.44h-1.69c0,2.3-1.91,3.42-5.73,3.42h-4V6.52h4.14c2.55,0,4.42-.54,5.58-1.62V25.06H2795Z"/> <rect class="cls-1" x="2802.12" y="14.36" width="17.71" height="1.55"/> <path class="cls-1" d="M2832.2,1.44h-1.69c0,2.3-1.91,3.42-5.73,3.42h-4V6.52h4.14c2.55,0,4.42-.54,5.58-1.62V25.06h1.69Z"/> <rect class="cls-1" x="2841.51" y="1.44" width="20.7" height="1.58"/> <path class="cls-1" d="M2852.31,11.05h-1l7-5.11h-2.81L2848.78,11V12.6h3.38c5.76,0,8.82,1.8,8.82,5.18v.47c0,3.31-2.63,5.19-7.59,5.51v1.62c6.08-.36,9.32-2.81,9.32-7.16v-.47C2862.71,13.43,2859,11.05,2852.31,11.05Z"/> <path class="cls-1" d="M2842.87,19.3v-.44h-1.72v.44c0,3.45,3.6,5.72,9.28,6.08V23.72C2845.9,23.44,2842.87,21.71,2842.87,19.3Z"/> <rect class="cls-1" x="2884.4" y="7.42" width="1.69" height="17.64"/> <polygon class="cls-1" points="2889.04 15.48 2889.04 16.99 2901.57 16.99 2901.57 25.06 2903.26 25.06 2903.26 7.42 2901.57 7.42 2901.57 15.48 2889.04 15.48"/> <path class="cls-1" d="M2917.65,8.68V7.13c-5.5.5-8.89,3.74-8.89,8.78v.76c0,4.93,3.39,8.17,8.89,8.67V23.76c-4.42-.47-7.16-3.06-7.16-7.13v-.72C2910.49,11.81,2913.15,9.18,2917.65,8.68Z"/> <path class="cls-1" d="M2920.61,7.13V8.71c4.39.47,7,3.17,7,7.2v.72c0,4-2.7,6.7-7,7.13v1.58c5.43-.5,8.78-3.74,8.78-8.67v-.76C2929.39,10.91,2926,7.63,2920.61,7.13Z"/> <path class="cls-1" d="M2934,12.89v.25c0,3.28,2.52,5.15,6.84,5.15h1.76l-8.5,6.51v.26h2.16l8.82-6.77h4V16.85h-8.1c-3.38,0-5.22-1.3-5.22-3.71v-.25c0-2.56,1.84-4,5.22-4h8.1V7.42h-8.2C2936.47,7.42,2934,9.43,2934,12.89Z"/> <rect class="cls-1" x="2951.95" y="7.42" width="1.69" height="17.64"/> <path class="cls-1" d="M2971.7,1.84V3.42l4.65-.36c2.19-.18,3.13-1,3.13-2.66V0h-1.8V.36c0,.76-.47,1-1.73,1.15Z"/> <path class="cls-1" d="M2968.75,3.74V2.16c-6.15.94-9,4.28-9,10.55v2.23c0,6.26,3.17,9.9,9,10.4V23.8c-4.79-.51-7.31-3.39-7.31-8.5V12.13C2961.44,7.2,2963.68,4.54,2968.75,3.74Z"/> <path class="cls-1" d="M2964.4,9.86v1.52a9.44,9.44,0,0,1,5.79-1.84c5.19,0,8.53,2.7,8.53,6.84v.76c0,3.67-2.7,6.19-7,6.66v1.54c5.33-.46,8.75-3.56,8.75-8.2v-.8c0-5-4-8.35-9.93-8.35A10,10,0,0,0,2964.4,9.86Z"/> <path class="cls-1" d="M2990.61,22.39V24a9.85,9.85,0,0,0,5.25,1.44C3002,25.45,3006,22,3006,16.6v-.72c0-5.44-4-8.86-10.16-8.86a9.6,9.6,0,0,0-5.25,1.44v1.62a8.82,8.82,0,0,1,5-1.48c5.33,0,8.64,2.74,8.64,7.28v.72c0,4.53-3.31,7.27-8.64,7.27A8.82,8.82,0,0,1,2990.61,22.39Z"/> <rect class="cls-1" x="2985.96" y="7.42" width="1.69" height="23.76"/> <path class="cls-1" d="M3010.59,12.89v.25c0,3.28,2.52,5.15,6.84,5.15h1.76l-8.5,6.51v.26h2.16l8.82-6.77h4V16.85h-8.1c-3.38,0-5.22-1.3-5.22-3.71v-.25c0-2.56,1.84-4,5.22-4h8.1V7.42h-8.2C3013.11,7.42,3010.59,9.43,3010.59,12.89Z"/> <rect class="cls-1" x="3028.59" y="7.42" width="1.69" height="17.64"/> <path class="cls-1" d="M3121.91,1.44h-1.69c0,2.3-1.91,3.42-5.73,3.42h-4V6.52h4.14c2.55,0,4.43-.54,5.58-1.62V25.06h1.69Z"/> <path class="cls-1" d="M3140.58,1.44h-1.69c0,2.3-1.91,3.42-5.73,3.42h-4V6.52h4.14c2.55,0,4.42-.54,5.58-1.62V25.06h1.69Z"/> <rect class="cls-1" x="3147.73" y="14.36" width="17.71" height="1.55"/> <path class="cls-1" d="M3177.81,1.44h-1.69c0,2.3-1.91,3.42-5.73,3.42h-4V6.52h4.14c2.55,0,4.43-.54,5.58-1.62V25.06h1.69Z"/> <rect class="cls-1" x="3187.12" y="1.44" width="20.7" height="1.58"/> <path class="cls-1" d="M3197.92,11.05h-1l7-5.11h-2.8l-6.7,5.08V12.6h3.38c5.76,0,8.82,1.8,8.82,5.18v.47c0,3.31-2.62,5.19-7.59,5.51v1.62c6.08-.36,9.32-2.81,9.32-7.16v-.47C3208.32,13.43,3204.65,11.05,3197.92,11.05Z"/> <path class="cls-1" d="M3188.49,19.3v-.44h-1.73v.44c0,3.45,3.6,5.72,9.29,6.08V23.72C3191.51,23.44,3188.49,21.71,3188.49,19.3Z"/> <rect class="cls-1" x="3230.01" y="7.42" width="1.69" height="17.64"/> <polygon class="cls-1" points="3234.65 15.48 3234.65 16.99 3247.18 16.99 3247.18 25.06 3248.87 25.06 3248.87 7.42 3247.18 7.42 3247.18 15.48 3234.65 15.48"/> <path class="cls-1" d="M3263.26,8.68V7.13c-5.5.5-8.89,3.74-8.89,8.78v.76c0,4.93,3.39,8.17,8.89,8.67V23.76c-4.42-.47-7.16-3.06-7.16-7.13v-.72C3256.1,11.81,3258.76,9.18,3263.26,8.68Z"/> <path class="cls-1" d="M3266.22,7.13V8.71c4.39.47,7.05,3.17,7.05,7.2v.72c0,4-2.7,6.7-7.05,7.13v1.58c5.43-.5,8.78-3.74,8.78-8.67v-.76C3275,10.91,3271.65,7.63,3266.22,7.13Z"/> <path class="cls-1" d="M3279.56,12.89v.25c0,3.28,2.52,5.15,6.84,5.15h1.76l-8.49,6.51v.26h2.16l8.82-6.77h4V16.85h-8.1c-3.39,0-5.22-1.3-5.22-3.71v-.25c0-2.56,1.83-4,5.22-4h8.1V7.42h-8.21C3282.08,7.42,3279.56,9.43,3279.56,12.89Z"/> <rect class="cls-1" x="3297.56" y="7.42" width="1.69" height="17.64"/> <path class="cls-1" d="M3317.32,1.84V3.42l4.64-.36c2.2-.18,3.13-1,3.13-2.66V0h-1.8V.36c0,.76-.47,1-1.73,1.15Z"/> <path class="cls-1" d="M3314.36,3.74V2.16c-6.15.94-9,4.28-9,10.55v2.23c0,6.26,3.17,9.9,9,10.4V23.8c-4.78-.51-7.3-3.39-7.3-8.5V12.13C3307.06,7.2,3309.29,4.54,3314.36,3.74Z"/> <path class="cls-1" d="M3310,9.86v1.52a9.46,9.46,0,0,1,5.79-1.84c5.19,0,8.54,2.7,8.54,6.84v.76c0,3.67-2.7,6.19-7,6.66v1.54c5.32-.46,8.74-3.56,8.74-8.2v-.8c0-5-4-8.35-9.93-8.35A10,10,0,0,0,3310,9.86Z"/> <path class="cls-1" d="M3336.22,22.39V24a9.88,9.88,0,0,0,5.26,1.44c6.15,0,10.15-3.45,10.15-8.85v-.72c0-5.44-4-8.86-10.15-8.86a9.63,9.63,0,0,0-5.26,1.44v1.62a8.82,8.82,0,0,1,5-1.48c5.33,0,8.64,2.74,8.64,7.28v.72c0,4.53-3.31,7.27-8.64,7.27A8.82,8.82,0,0,1,3336.22,22.39Z"/> <rect class="cls-1" x="3331.58" y="7.42" width="1.69" height="23.76"/> <path class="cls-1" d="M3356.2,12.89v.25c0,3.28,2.52,5.15,6.84,5.15h1.76l-8.49,6.51v.26h2.16l8.82-6.77h4V16.85h-8.1c-3.39,0-5.22-1.3-5.22-3.71v-.25c0-2.56,1.83-4,5.22-4h8.1V7.42H3363C3358.72,7.42,3356.2,9.43,3356.2,12.89Z"/> <rect class="cls-1" x="3374.2" y="7.42" width="1.69" height="17.64"/> <path class="cls-1" d="M3467.52,1.44h-1.69c0,2.3-1.91,3.42-5.72,3.42h-4V6.52h4.14c2.56,0,4.43-.54,5.58-1.62V25.06h1.69Z"/> <path class="cls-1" d="M3486.19,1.44h-1.69c0,2.3-1.91,3.42-5.73,3.42h-4V6.52h4.14c2.55,0,4.43-.54,5.58-1.62V25.06h1.69Z"/> <rect class="cls-1" x="3493.34" y="14.36" width="17.71" height="1.55"/> <path class="cls-1" d="M3523.42,1.44h-1.69c0,2.3-1.91,3.42-5.73,3.42h-4V6.52h4.14c2.55,0,4.43-.54,5.58-1.62V25.06h1.69Z"/> <rect class="cls-1" x="3532.73" y="1.44" width="20.7" height="1.58"/> <path class="cls-1" d="M3543.53,11.05h-1l7-5.11h-2.8L3540,11V12.6h3.38c5.76,0,8.82,1.8,8.82,5.18v.47c0,3.31-2.62,5.19-7.59,5.51v1.62c6.08-.36,9.32-2.81,9.32-7.16v-.47C3553.93,13.43,3550.26,11.05,3543.53,11.05Z"/> <path class="cls-1" d="M3534.1,19.3v-.44h-1.73v.44c0,3.45,3.6,5.72,9.29,6.08V23.72C3537.12,23.44,3534.1,21.71,3534.1,19.3Z"/> <rect class="cls-1" x="3575.62" y="7.42" width="1.69" height="17.64"/> <polygon class="cls-1" points="3580.26 15.48 3580.26 16.99 3592.79 16.99 3592.79 25.06 3594.48 25.06 3594.48 7.42 3592.79 7.42 3592.79 15.48 3580.26 15.48"/> <path class="cls-1" d="M3608.88,8.68V7.13c-5.51.5-8.9,3.74-8.9,8.78v.76c0,4.93,3.39,8.17,8.9,8.67V23.76c-4.43-.47-7.17-3.06-7.17-7.13v-.72C3601.71,11.81,3604.38,9.18,3608.88,8.68Z"/> <path class="cls-1" d="M3611.83,7.13V8.71c4.39.47,7.05,3.17,7.05,7.2v.72c0,4-2.7,6.7-7.05,7.13v1.58c5.43-.5,8.78-3.74,8.78-8.67v-.76C3620.61,10.91,3617.26,7.63,3611.83,7.13Z"/> <path class="cls-1" d="M3625.17,12.89v.25c0,3.28,2.52,5.15,6.84,5.15h1.76l-8.49,6.51v.26h2.16l8.82-6.77h4V16.85h-8.1c-3.39,0-5.22-1.3-5.22-3.71v-.25c0-2.56,1.83-4,5.22-4h8.1V7.42H3632C3627.69,7.42,3625.17,9.43,3625.17,12.89Z"/> <rect class="cls-1" x="3643.17" y="7.42" width="1.69" height="17.64"/> <path class="cls-1" d="M3662.93,1.84V3.42l4.64-.36c2.2-.18,3.13-1,3.13-2.66V0h-1.8V.36c0,.76-.47,1-1.73,1.15Z"/> <path class="cls-1" d="M3660,3.74V2.16c-6.15.94-9,4.28-9,10.55v2.23c0,6.26,3.17,9.9,9,10.4V23.8c-4.78-.51-7.3-3.39-7.3-8.5V12.13C3652.67,7.2,3654.9,4.54,3660,3.74Z"/> <path class="cls-1" d="M3655.62,9.86v1.52a9.46,9.46,0,0,1,5.79-1.84c5.19,0,8.54,2.7,8.54,6.84v.76c0,3.67-2.7,6.19-7,6.66v1.54c5.32-.46,8.74-3.56,8.74-8.2v-.8c0-5-4-8.35-9.93-8.35A10,10,0,0,0,3655.62,9.86Z"/> <path class="cls-1" d="M3681.83,22.39V24a9.88,9.88,0,0,0,5.26,1.44c6.15,0,10.15-3.45,10.15-8.85v-.72c0-5.44-4-8.86-10.15-8.86a9.63,9.63,0,0,0-5.26,1.44v1.62a8.82,8.82,0,0,1,5-1.48c5.33,0,8.64,2.74,8.64,7.28v.72c0,4.53-3.31,7.27-8.64,7.27A8.82,8.82,0,0,1,3681.83,22.39Z"/> <rect class="cls-1" x="3677.19" y="7.42" width="1.69" height="23.76"/> <path class="cls-1" d="M3701.81,12.89v.25c0,3.28,2.52,5.15,6.84,5.15h1.76l-8.49,6.51v.26h2.16l8.82-6.77h4V16.85h-8.1c-3.39,0-5.22-1.3-5.22-3.71v-.25c0-2.56,1.83-4,5.22-4h8.1V7.42h-8.21C3704.33,7.42,3701.81,9.43,3701.81,12.89Z"/> <rect class="cls-1" x="3719.81" y="7.42" width="1.69" height="17.64"/> <path class="cls-1" d="M3813.13,1.44h-1.69c0,2.3-1.91,3.42-5.72,3.42h-4V6.52h4.14c2.56,0,4.43-.54,5.58-1.62V25.06h1.69Z"/> <path class="cls-1" d="M3831.8,1.44h-1.69c0,2.3-1.91,3.42-5.73,3.42h-4V6.52h4.14c2.55,0,4.43-.54,5.58-1.62V25.06h1.69Z"/> <rect class="cls-1" x="3838.95" y="14.36" width="17.71" height="1.55"/> <path class="cls-1" d="M3869,1.44h-1.69c0,2.3-1.91,3.42-5.72,3.42h-4V6.52h4.14c2.56,0,4.43-.54,5.58-1.62V25.06H3869Z"/> <rect class="cls-1" x="3878.34" y="1.44" width="20.7" height="1.58"/> <path class="cls-1" d="M3889.14,11.05h-1l7-5.11h-2.81l-6.7,5.08V12.6H3889c5.76,0,8.82,1.8,8.82,5.18v.47c0,3.31-2.63,5.19-7.6,5.51v1.62c6.08-.36,9.32-2.81,9.32-7.16v-.47C3899.54,13.43,3895.87,11.05,3889.14,11.05Z"/> <path class="cls-1" d="M3879.71,19.3v-.44H3878v.44c0,3.45,3.6,5.72,9.29,6.08V23.72C3882.73,23.44,3879.71,21.71,3879.71,19.3Z"/> <rect class="cls-1" x="3921.23" y="7.42" width="1.69" height="17.64"/> <polygon class="cls-1" points="3925.88 15.48 3925.88 16.99 3938.4 16.99 3938.4 25.06 3940.09 25.06 3940.09 7.42 3938.4 7.42 3938.4 15.48 3925.88 15.48"/> <path class="cls-1" d="M3954.49,8.68V7.13c-5.51.5-8.9,3.74-8.9,8.78v.76c0,4.93,3.39,8.17,8.9,8.67V23.76c-4.43-.47-7.17-3.06-7.17-7.13v-.72C3947.32,11.81,3950,9.18,3954.49,8.68Z"/> <path class="cls-1" d="M3957.44,7.13V8.71c4.39.47,7,3.17,7,7.2v.72c0,4-2.7,6.7-7,7.13v1.58c5.43-.5,8.78-3.74,8.78-8.67v-.76C3966.22,10.91,3962.87,7.63,3957.44,7.13Z"/> <path class="cls-1" d="M3970.78,12.89v.25c0,3.28,2.52,5.15,6.84,5.15h1.76l-8.49,6.51v.26h2.16l8.82-6.77h4V16.85h-8.1c-3.39,0-5.22-1.3-5.22-3.71v-.25c0-2.56,1.83-4,5.22-4h8.1V7.42h-8.21C3973.3,7.42,3970.78,9.43,3970.78,12.89Z"/> <rect class="cls-1" x="3988.78" y="7.42" width="1.69" height="17.64"/> <path class="cls-1" d="M4008.54,1.84V3.42l4.64-.36c2.2-.18,3.13-1,3.13-2.66V0h-1.8V.36c0,.76-.46,1-1.72,1.15Z"/> <path class="cls-1" d="M4005.59,3.74V2.16c-6.16.94-9,4.28-9,10.55v2.23c0,6.26,3.16,9.9,9,10.4V23.8c-4.79-.51-7.31-3.39-7.31-8.5V12.13C3998.28,7.2,4000.51,4.54,4005.59,3.74Z"/> <path class="cls-1" d="M4001.23,9.86v1.52a9.47,9.47,0,0,1,5.8-1.84c5.18,0,8.53,2.7,8.53,6.84v.76c0,3.67-2.7,6.19-7,6.66v1.54c5.33-.46,8.75-3.56,8.75-8.2v-.8c0-5-4-8.35-9.94-8.35A10,10,0,0,0,4001.23,9.86Z"/> <path class="cls-1" d="M4027.44,22.39V24a9.91,9.91,0,0,0,5.26,1.44c6.15,0,10.15-3.45,10.15-8.85v-.72c0-5.44-4-8.86-10.15-8.86a9.63,9.63,0,0,0-5.26,1.44v1.62a8.82,8.82,0,0,1,5-1.48c5.33,0,8.64,2.74,8.64,7.28v.72c0,4.53-3.31,7.27-8.64,7.27A8.82,8.82,0,0,1,4027.44,22.39Z"/> <rect class="cls-1" x="4022.8" y="7.42" width="1.69" height="23.76"/> <path class="cls-1" d="M4047.42,12.89v.25c0,3.28,2.52,5.15,6.84,5.15H4056l-8.49,6.51v.26h2.16l8.82-6.77h4V16.85h-8.1c-3.39,0-5.22-1.3-5.22-3.71v-.25c0-2.56,1.83-4,5.22-4h8.1V7.42h-8.21C4049.94,7.42,4047.42,9.43,4047.42,12.89Z"/> <rect class="cls-1" x="4065.42" y="7.42" width="1.69" height="17.64"/> <path class="cls-1" d="M4158.74,1.44h-1.69c0,2.3-1.91,3.42-5.72,3.42h-4V6.52h4.14c2.56,0,4.43-.54,5.58-1.62V25.06h1.69Z"/> <path class="cls-1" d="M4177.41,1.44h-1.69c0,2.3-1.91,3.42-5.72,3.42h-4V6.52h4.14c2.56,0,4.43-.54,5.58-1.62V25.06h1.69Z"/> <rect class="cls-1" x="4184.56" y="14.36" width="17.71" height="1.55"/> <path class="cls-1" d="M4214.64,1.44H4213c0,2.3-1.91,3.42-5.72,3.42h-4V6.52h4.14c2.56,0,4.43-.54,5.58-1.62V25.06h1.69Z"/> <rect class="cls-1" x="4223.95" y="1.44" width="20.7" height="1.58"/> <path class="cls-1" d="M4234.75,11.05h-1l7-5.11h-2.81l-6.7,5.08V12.6h3.39c5.76,0,8.82,1.8,8.82,5.18v.47c0,3.31-2.63,5.19-7.6,5.51v1.62c6.08-.36,9.32-2.81,9.32-7.16v-.47C4245.15,13.43,4241.48,11.05,4234.75,11.05Z"/> <path class="cls-1" d="M4225.32,19.3v-.44h-1.73v.44c0,3.45,3.6,5.72,9.29,6.08V23.72C4228.34,23.44,4225.32,21.71,4225.32,19.3Z"/> <rect class="cls-1" x="4266.84" y="7.42" width="1.69" height="17.64"/> <polygon class="cls-1" points="4271.49 15.48 4271.49 16.99 4284.01 16.99 4284.01 25.06 4285.71 25.06 4285.71 7.42 4284.01 7.42 4284.01 15.48 4271.49 15.48"/> <path class="cls-1" d="M4300.1,8.68V7.13c-5.51.5-8.89,3.74-8.89,8.78v.76c0,4.93,3.38,8.17,8.89,8.67V23.76c-4.43-.47-7.17-3.06-7.17-7.13v-.72C4292.93,11.81,4295.6,9.18,4300.1,8.68Z"/> <path class="cls-1" d="M4303.05,7.13V8.71c4.39.47,7.06,3.17,7.06,7.2v.72c0,4-2.7,6.7-7.06,7.13v1.58c5.44-.5,8.78-3.74,8.78-8.67v-.76C4311.83,10.91,4308.49,7.63,4303.05,7.13Z"/> <path class="cls-1" d="M4316.39,12.89v.25c0,3.28,2.52,5.15,6.84,5.15H4325l-8.49,6.51v.26h2.16l8.82-6.77h4V16.85h-8.1c-3.39,0-5.22-1.3-5.22-3.71v-.25c0-2.56,1.83-4,5.22-4h8.1V7.42h-8.21C4318.91,7.42,4316.39,9.43,4316.39,12.89Z"/> <rect class="cls-1" x="4334.39" y="7.42" width="1.69" height="17.64"/> <path class="cls-1" d="M4354.15,1.84V3.42l4.64-.36c2.2-.18,3.13-1,3.13-2.66V0h-1.8V.36c0,.76-.46,1-1.72,1.15Z"/> <path class="cls-1" d="M4351.2,3.74V2.16c-6.16.94-9,4.28-9,10.55v2.23c0,6.26,3.16,9.9,9,10.4V23.8c-4.79-.51-7.31-3.39-7.31-8.5V12.13C4343.89,7.2,4346.12,4.54,4351.2,3.74Z"/> <path class="cls-1" d="M4346.84,9.86v1.52a9.47,9.47,0,0,1,5.8-1.84c5.18,0,8.53,2.7,8.53,6.84v.76c0,3.67-2.7,6.19-7,6.66v1.54c5.33-.46,8.75-3.56,8.75-8.2v-.8c0-5-4-8.35-9.94-8.35A10,10,0,0,0,4346.84,9.86Z"/> <path class="cls-1" d="M4373.05,22.39V24a9.91,9.91,0,0,0,5.26,1.44c6.15,0,10.15-3.45,10.15-8.85v-.72c0-5.44-4-8.86-10.15-8.86a9.63,9.63,0,0,0-5.26,1.44v1.62a8.82,8.82,0,0,1,5-1.48c5.33,0,8.64,2.74,8.64,7.28v.72c0,4.53-3.31,7.27-8.64,7.27A8.82,8.82,0,0,1,4373.05,22.39Z"/> <rect class="cls-1" x="4368.41" y="7.42" width="1.69" height="23.76"/> <path class="cls-1" d="M4393,12.89v.25c0,3.28,2.52,5.15,6.84,5.15h1.76l-8.49,6.51v.26h2.16l8.82-6.77h4V16.85H4400c-3.39,0-5.22-1.3-5.22-3.71v-.25c0-2.56,1.83-4,5.22-4h8.1V7.42h-8.21C4395.55,7.42,4393,9.43,4393,12.89Z"/> <rect class="cls-1" x="4411.03" y="7.42" width="1.69" height="17.64"/> </g> </g> </svg>