<?xml version="1.0" encoding="UTF-8"?>
<svg xmlns="http://www.w3.org/2000/svg" viewBox="0 0 4245.63 29.05"> <defs> <style>.cls-1{fill:#fff;}</style> </defs> <g id="Слой_2" data-name="Слой 2"> <g id="Слой_1-2" data-name="Слой 1"> <polygon class="cls-1" points="0 29.05 1.62 29.05 4.64 20.45 4.64 20.16 2.74 20.16 0 29.05"/> <rect class="cls-1" x="26.55" y="6.26" width="1.69" height="17.64"/> <polygon class="cls-1" points="35.76 15.01 45.59 6.55 45.59 6.26 43.61 6.26 34.25 14.29 31.19 14.29 31.19 15.8 34.32 15.8 44.15 23.9 46.09 23.9 46.09 23.62 35.76 15.01"/> <path class="cls-1" d="M57.27,7.52V6c-5.51.5-8.89,3.74-8.89,8.78v.76c0,4.93,3.38,8.17,8.89,8.67V22.61c-4.43-.47-7.16-3.06-7.16-7.13v-.72C50.11,10.66,52.77,8,57.27,7.52Z"/> <path class="cls-1" d="M60.22,6V7.56c4.39.47,7.06,3.17,7.06,7.2v.72c0,4-2.7,6.7-7.06,7.13v1.58c5.44-.5,8.79-3.74,8.79-8.67v-.76C69,9.76,65.66,6.48,60.22,6Z"/> <rect class="cls-1" x="74.5" y="6.26" width="1.69" height="17.64"/> <rect class="cls-1" x="79.14" y="6.26" width="9.94" height="1.55"/> <path class="cls-1" d="M106.28,6.26H94l-.18,9.18a12,12,0,0,1-2.08,7H89l0,6.12h1.65V23.9h15.56V22.39H93.42a12.49,12.49,0,0,0,2-7l.14-7.66h10.77Z"/> <polygon class="cls-1" points="110.92 22.39 110.92 6.26 109.23 6.26 109.23 23.9 112.94 23.9 112.94 28.51 114.59 28.51 114.59 22.39 110.92 22.39"/> <path class="cls-1" d="M126,7.6V6c-4.64.43-7.7,3-7.7,6.44v.29H120v-.29C120,9.86,122.39,8,126,7.6Z"/> <path class="cls-1" d="M129,6V7.6c4,.36,6.08,2.3,6.08,5.61v7c0,2.34,1.55,3.74,4.18,3.74h1.9V22.39h-1.58c-1.8,0-2.84-.93-2.84-2.55V13.21C136.69,9,133.88,6.37,129,6Z"/> <path class="cls-1" d="M132.19,22.64l-.11-1.58a11.21,11.21,0,0,1-6.27,1.73c-4,0-5.94-1.08-5.94-3.21s1.62-3.13,5.22-3.49l7-.72V13.93l-7.31.76c-4.46.47-6.59,2-6.59,4.89,0,3.1,2.63,4.72,7.67,4.72A11.53,11.53,0,0,0,132.19,22.64Z"/> <polygon class="cls-1" points="176 6.26 159.09 23.9 160.85 23.9 177.77 6.26 176 6.26"/> <polygon class="cls-1" points="159.09 19.33 160.71 17.5 160.71 6.26 159.09 6.26 159.09 19.33"/> <polygon class="cls-1" points="177.77 10.84 176.15 12.67 176.15 23.9 177.77 23.9 177.77 10.84"/> <path class="cls-1" d="M199.6,12.89c0-3.46,2.16-5.15,6.76-5.44V5.94c-5.54.36-8.42,2.7-8.42,7v.21h1.66Z"/> <path class="cls-1" d="M214.36,14.94c1.94-.72,3.09-2,3.09-3.78v-.32c0-3-2.77-4.68-8.13-4.9V7.45c4.32.18,6.4,1.3,6.4,3.42v.33c0,1.94-1.72,3.06-4.78,3.06h-5.62v1.51h6.05c3.09,0,4.82,1.08,4.82,3v.29c0,2.34-2.16,3.49-6.87,3.64v1.54c5.76-.21,8.6-1.94,8.6-5.11v-.32C217.92,17,216.59,15.59,214.36,14.94Z"/> <path class="cls-1" d="M199.6,17.32V17.1h-1.66v.22c0,4.28,2.84,6.55,8.42,6.91V22.72C201.79,22.39,199.6,20.7,199.6,17.32Z"/> <path class="cls-1" d="M230.86,7.6V6c-4.64.43-7.7,3-7.7,6.44v.29h1.66v-.29C224.82,9.86,227.26,8,230.86,7.6Z"/> <path class="cls-1" d="M233.82,6V7.6c4,.36,6.08,2.3,6.08,5.61v7c0,2.34,1.55,3.74,4.18,3.74H246V22.39H244.4c-1.8,0-2.84-.93-2.84-2.55V13.21C241.56,9,238.75,6.37,233.82,6Z"/> <path class="cls-1" d="M237.06,22.64,237,21.06a11.17,11.17,0,0,1-6.26,1.73c-4,0-5.94-1.08-5.94-3.21s1.62-3.13,5.22-3.49l7-.72V13.93l-7.31.76c-4.46.47-6.59,2-6.59,4.89,0,3.1,2.63,4.72,7.67,4.72A11.53,11.53,0,0,0,237.06,22.64Z"/> <path class="cls-1" d="M261.13,17.57V16a31.11,31.11,0,0,1-5.22.5c-4.28,0-6.51-1.69-6.51-4.93V6.26h-1.7v5.48c0,4.14,2.78,6.3,8.07,6.3A34.59,34.59,0,0,0,261.13,17.57Z"/> <rect class="cls-1" x="264.08" y="6.26" width="1.66" height="17.64"/> <path class="cls-1" d="M282.72,6V7.56c4,.47,6.56,2.92,6.66,6.62H272.79c.14-3.7,2.77-6.15,7-6.62V6c-5.36.5-8.75,3.78-8.75,8.71v.83c0,4.89,3.35,8.17,8.75,8.67V22.61c-4.32-.47-7-3-7-7h18.36v-1C291.15,9.68,287.91,6.48,282.72,6Z"/> <path class="cls-1" d="M282.72,22.64v1.55c5-.39,8.28-2.88,8.43-6.59h-1.8C289.28,20.34,286.68,22.28,282.72,22.64Z"/> <polygon class="cls-1" points="320.56 6.26 309.61 22.07 298.67 6.26 296.65 6.26 308.86 23.9 310.37 23.9 322.57 6.26 320.56 6.26"/> <polygon class="cls-1" points="296.65 23.9 298.27 23.9 298.27 13.9 296.65 11.45 296.65 23.9"/> <polygon class="cls-1" points="320.92 23.9 322.57 23.9 322.57 11.45 320.92 13.9 320.92 23.9"/> <path class="cls-1" d="M335.79,1.55V0c-4.9.4-7.85,3-7.85,6.91v.76h1.66V6.91C329.6,3.89,331.9,1.94,335.79,1.55Z"/> <path class="cls-1" d="M338.74,0V1.55c3.6.36,5.76,2.05,5.76,4.64v.36c0,1.73-1,2.85-4.29,4.72-3.09,1.76-4.06,3.13-4.06,5.76v1.44h1.58V17c0-2.05.87-3.17,3.82-4.83,3.42-1.94,4.68-3.45,4.68-5.61V6.16C346.23,2.81,343.24.43,338.74,0Z"/> <path class="cls-1" d="M336.94,24.3a1.28,1.28,0,1,0,0-2.56,1.28,1.28,0,1,0,0,2.56Z"/> <rect class="cls-1" x="410.58" y="0.29" width="1.76" height="23.62"/> <polygon class="cls-1" points="432.87 0.29 430.78 0.29 418.9 11.23 415.3 11.23 415.3 12.82 418.9 12.82 430.64 23.9 432.69 23.9 432.69 23.62 420.49 11.99 432.87 0.58 432.87 0.29"/> <path class="cls-1" d="M444.14,7.6V6c-4.64.43-7.7,3-7.7,6.44v.29h1.65v-.29C438.09,9.86,440.54,8,444.14,7.6Z"/> <path class="cls-1" d="M447.09,6V7.6c4,.36,6.09,2.3,6.09,5.61v7c0,2.34,1.55,3.74,4.17,3.74h1.91V22.39h-1.58c-1.8,0-2.85-.93-2.85-2.55V13.21C454.83,9,452,6.37,447.09,6Z"/> <path class="cls-1" d="M450.33,22.64l-.1-1.58A11.21,11.21,0,0,1,444,22.79c-4,0-5.94-1.08-5.94-3.21s1.62-3.13,5.22-3.49l7-.72V13.93l-7.31.76c-4.47.47-6.59,2-6.59,4.89,0,3.1,2.63,4.72,7.67,4.72A11.47,11.47,0,0,0,450.33,22.64Z"/> <rect class="cls-1" x="462.82" y="6.26" width="1.69" height="17.64"/> <polygon class="cls-1" points="472.04 15.01 481.86 6.55 481.86 6.26 479.88 6.26 470.52 14.29 467.46 14.29 467.46 15.8 470.6 15.8 480.42 23.9 482.37 23.9 482.37 23.62 472.04 15.01"/> <polygon class="cls-1" points="487.43 29.05 489.05 29.05 492.07 20.45 492.07 20.16 490.16 20.16 487.43 29.05"/> <rect class="cls-1" x="513.97" y="6.26" width="1.69" height="17.64"/> <polygon class="cls-1" points="523.19 15.01 533.02 6.55 533.02 6.26 531.04 6.26 521.68 14.29 518.62 14.29 518.62 15.8 521.75 15.8 531.58 23.9 533.52 23.9 533.52 23.62 523.19 15.01"/> <path class="cls-1" d="M544.7,7.52V6c-5.51.5-8.9,3.74-8.9,8.78v.76c0,4.93,3.39,8.17,8.9,8.67V22.61c-4.43-.47-7.17-3.06-7.17-7.13v-.72C537.53,10.66,540.2,8,544.7,7.52Z"/> <path class="cls-1" d="M547.65,6V7.56c4.39.47,7.05,3.17,7.05,7.2v.72c0,4-2.7,6.7-7.05,7.13v1.58c5.43-.5,8.78-3.74,8.78-8.67v-.76C556.43,9.76,553.08,6.48,547.65,6Z"/> <rect class="cls-1" x="561.93" y="6.26" width="1.69" height="17.64"/> <rect class="cls-1" x="566.57" y="6.26" width="9.94" height="1.55"/> <path class="cls-1" d="M593.7,6.26H581.39l-.18,9.18a11.9,11.9,0,0,1-2.09,7h-2.66l0,6.12h1.66V23.9H593.7V22.39H580.85a12.49,12.49,0,0,0,1.94-7l.15-7.66H593.7Z"/> <polygon class="cls-1" points="598.35 22.39 598.35 6.26 596.65 6.26 596.65 23.9 600.36 23.9 600.36 28.51 602.02 28.51 602.02 22.39 598.35 22.39"/> <path class="cls-1" d="M613.42,7.6V6c-4.64.43-7.7,3-7.7,6.44v.29h1.65v-.29C607.37,9.86,609.82,8,613.42,7.6Z"/> <path class="cls-1" d="M616.37,6V7.6c4,.36,6.09,2.3,6.09,5.61v7c0,2.34,1.54,3.74,4.17,3.74h1.91V22.39H627c-1.8,0-2.85-.93-2.85-2.55V13.21C624.11,9,621.3,6.37,616.37,6Z"/> <path class="cls-1" d="M619.61,22.64l-.11-1.58a11.17,11.17,0,0,1-6.26,1.73c-4,0-5.94-1.08-5.94-3.21s1.62-3.13,5.22-3.49l7-.72V13.93l-7.3.76c-4.47.47-6.59,2-6.59,4.89,0,3.1,2.63,4.72,7.67,4.72A11.47,11.47,0,0,0,619.61,22.64Z"/> <polygon class="cls-1" points="663.43 6.26 646.51 23.9 648.27 23.9 665.2 6.26 663.43 6.26"/> <polygon class="cls-1" points="646.51 19.33 648.13 17.5 648.13 6.26 646.51 6.26 646.51 19.33"/> <polygon class="cls-1" points="665.2 10.84 663.58 12.67 663.58 23.9 665.2 23.9 665.2 10.84"/> <path class="cls-1" d="M687,12.89c0-3.46,2.16-5.15,6.77-5.44V5.94c-5.54.36-8.42,2.7-8.42,7v.21H687Z"/> <path class="cls-1" d="M701.78,14.94c2-.72,3.1-2,3.1-3.78v-.32c0-3-2.77-4.68-8.14-4.9V7.45c4.32.18,6.41,1.3,6.41,3.42v.33c0,1.94-1.73,3.06-4.79,3.06h-5.61v1.51h6c3.1,0,4.83,1.08,4.83,3v.29c0,2.34-2.16,3.49-6.88,3.64v1.54c5.76-.21,8.6-1.94,8.6-5.11v-.32C705.34,17,704,15.59,701.78,14.94Z"/> <path class="cls-1" d="M687,17.32V17.1h-1.65v.22c0,4.28,2.84,6.55,8.42,6.91V22.72C689.22,22.39,687,20.7,687,17.32Z"/> <path class="cls-1" d="M718.29,7.6V6c-4.64.43-7.7,3-7.7,6.44v.29h1.65v-.29C712.24,9.86,714.69,8,718.29,7.6Z"/> <path class="cls-1" d="M721.24,6V7.6c4,.36,6.09,2.3,6.09,5.61v7c0,2.34,1.54,3.74,4.17,3.74h1.91V22.39h-1.58c-1.8,0-2.85-.93-2.85-2.55V13.21C729,9,726.17,6.37,721.24,6Z"/> <path class="cls-1" d="M724.48,22.64l-.11-1.58a11.17,11.17,0,0,1-6.26,1.73c-4,0-5.94-1.08-5.94-3.21s1.62-3.13,5.22-3.49l7-.72V13.93l-7.3.76c-4.47.47-6.59,2-6.59,4.89,0,3.1,2.63,4.72,7.67,4.72A11.47,11.47,0,0,0,724.48,22.64Z"/> <path class="cls-1" d="M748.56,17.57V16a31.11,31.11,0,0,1-5.22.5c-4.29,0-6.52-1.69-6.52-4.93V6.26h-1.69v5.48c0,4.14,2.77,6.3,8.06,6.3A34.61,34.61,0,0,0,748.56,17.57Z"/> <rect class="cls-1" x="751.51" y="6.26" width="1.66" height="17.64"/> <path class="cls-1" d="M770.15,6V7.56c4,.47,6.55,2.92,6.66,6.62h-16.6c.15-3.7,2.77-6.15,7-6.62V6c-5.37.5-8.75,3.78-8.75,8.71v.83c0,4.89,3.35,8.17,8.75,8.67V22.61c-4.32-.47-7-3-7-7h18.36v-1C778.57,9.68,775.33,6.48,770.15,6Z"/> <path class="cls-1" d="M770.15,22.64v1.55c5-.39,8.28-2.88,8.42-6.59h-1.8C776.7,20.34,774.11,22.28,770.15,22.64Z"/> <polygon class="cls-1" points="807.98 6.26 797.04 22.07 786.09 6.26 784.08 6.26 796.28 23.9 797.79 23.9 810 6.26 807.98 6.26"/> <polygon class="cls-1" points="784.08 23.9 785.7 23.9 785.7 13.9 784.08 11.45 784.08 23.9"/> <polygon class="cls-1" points="808.34 23.9 810 23.9 810 11.45 808.34 13.9 808.34 23.9"/> <path class="cls-1" d="M823.21,1.55V0c-4.89.4-7.85,3-7.85,6.91v.76H817V6.91C817,3.89,819.32,1.94,823.21,1.55Z"/> <path class="cls-1" d="M826.16,0V1.55c3.6.36,5.76,2.05,5.76,4.64v.36c0,1.73-1,2.85-4.28,4.72-3.1,1.76-4.07,3.13-4.07,5.76v1.44h1.59V17c0-2.05.86-3.17,3.81-4.83,3.42-1.94,4.68-3.45,4.68-5.61V6.16C833.65,2.81,830.66.43,826.16,0Z"/> <path class="cls-1" d="M824.36,24.3a1.28,1.28,0,1,0-1.29-1.3A1.26,1.26,0,0,0,824.36,24.3Z"/> <rect class="cls-1" x="898.01" y="0.29" width="1.76" height="23.62"/> <polygon class="cls-1" points="920.29 0.29 918.21 0.29 906.33 11.23 902.73 11.23 902.73 12.82 906.33 12.82 918.06 23.9 920.12 23.9 920.12 23.62 907.91 11.99 920.29 0.58 920.29 0.29"/> <path class="cls-1" d="M931.57,7.6V6c-4.65.43-7.71,3-7.71,6.44v.29h1.66v-.29C925.52,9.86,928,8,931.57,7.6Z"/> <path class="cls-1" d="M934.52,6V7.6c4,.36,6.08,2.3,6.08,5.61v7c0,2.34,1.55,3.74,4.18,3.74h1.91V22.39H945.1c-1.8,0-2.84-.93-2.84-2.55V13.21C942.26,9,939.45,6.37,934.52,6Z"/> <path class="cls-1" d="M937.76,22.64l-.11-1.58a11.17,11.17,0,0,1-6.26,1.73c-4,0-5.94-1.08-5.94-3.21s1.62-3.13,5.22-3.49l7-.72V13.93l-7.31.76c-4.46.47-6.58,2-6.58,4.89,0,3.1,2.62,4.72,7.66,4.72A11.53,11.53,0,0,0,937.76,22.64Z"/> <rect class="cls-1" x="950.25" y="6.26" width="1.69" height="17.64"/> <polygon class="cls-1" points="959.46 15.01 969.29 6.55 969.29 6.26 967.31 6.26 957.95 14.29 954.89 14.29 954.89 15.8 958.02 15.8 967.85 23.9 969.79 23.9 969.79 23.62 959.46 15.01"/> <polygon class="cls-1" points="974.85 29.05 976.47 29.05 979.5 20.45 979.5 20.16 977.59 20.16 974.85 29.05"/> <rect class="cls-1" x="1001.4" y="6.26" width="1.69" height="17.64"/> <polygon class="cls-1" points="1010.61 15.01 1020.44 6.55 1020.44 6.26 1018.46 6.26 1009.1 14.29 1006.04 14.29 1006.04 15.8 1009.17 15.8 1019 23.9 1020.95 23.9 1020.95 23.62 1010.61 15.01"/> <path class="cls-1" d="M1032.12,7.52V6c-5.51.5-8.89,3.74-8.89,8.78v.76c0,4.93,3.38,8.17,8.89,8.67V22.61c-4.43-.47-7.16-3.06-7.16-7.13v-.72C1025,10.66,1027.62,8,1032.12,7.52Z"/> <path class="cls-1" d="M1035.07,6V7.56c4.4.47,7.06,3.17,7.06,7.2v.72c0,4-2.7,6.7-7.06,7.13v1.58c5.44-.5,8.79-3.74,8.79-8.67v-.76C1043.86,9.76,1040.51,6.48,1035.07,6Z"/> <rect class="cls-1" x="1049.35" y="6.26" width="1.69" height="17.64"/> <rect class="cls-1" x="1054" y="6.26" width="9.94" height="1.55"/> <path class="cls-1" d="M1081.13,6.26h-12.31l-.18,9.18a12,12,0,0,1-2.09,7h-2.67l0,6.12h1.66V23.9h15.55V22.39h-12.85a12.57,12.57,0,0,0,1.94-7l.14-7.66h10.77Z"/> <polygon class="cls-1" points="1085.77 22.39 1085.77 6.26 1084.08 6.26 1084.08 23.9 1087.79 23.9 1087.79 28.51 1089.44 28.51 1089.44 22.39 1085.77 22.39"/> <path class="cls-1" d="M1100.85,7.6V6c-4.65.43-7.71,3-7.71,6.44v.29h1.66v-.29C1094.8,9.86,1097.25,8,1100.85,7.6Z"/> <path class="cls-1" d="M1103.8,6V7.6c4,.36,6.08,2.3,6.08,5.61v7c0,2.34,1.55,3.74,4.18,3.74H1116V22.39h-1.59c-1.8,0-2.84-.93-2.84-2.55V13.21C1111.54,9,1108.73,6.37,1103.8,6Z"/> <path class="cls-1" d="M1107,22.64l-.11-1.58a11.17,11.17,0,0,1-6.26,1.73c-4,0-5.94-1.08-5.94-3.21s1.62-3.13,5.22-3.49l7-.72V13.93l-7.31.76c-4.46.47-6.59,2-6.59,4.89,0,3.1,2.63,4.72,7.67,4.72A11.53,11.53,0,0,0,1107,22.64Z"/> <polygon class="cls-1" points="1150.86 6.26 1133.94 23.9 1135.7 23.9 1152.62 6.26 1150.86 6.26"/> <polygon class="cls-1" points="1133.94 19.33 1135.56 17.5 1135.56 6.26 1133.94 6.26 1133.94 19.33"/> <polygon class="cls-1" points="1152.62 10.84 1151 12.67 1151 23.9 1152.62 23.9 1152.62 10.84"/> <path class="cls-1" d="M1174.45,12.89c0-3.46,2.16-5.15,6.77-5.44V5.94c-5.55.36-8.43,2.7-8.43,7v.21h1.66Z"/> <path class="cls-1" d="M1189.21,14.94c1.94-.72,3.09-2,3.09-3.78v-.32c0-3-2.77-4.68-8.13-4.9V7.45c4.32.18,6.41,1.3,6.41,3.42v.33c0,1.94-1.73,3.06-4.79,3.06h-5.62v1.51h6c3.1,0,4.82,1.08,4.82,3v.29c0,2.34-2.16,3.49-6.87,3.64v1.54c5.76-.21,8.6-1.94,8.6-5.11v-.32C1192.77,17,1191.44,15.59,1189.21,14.94Z"/> <path class="cls-1" d="M1174.45,17.32V17.1h-1.66v.22c0,4.28,2.85,6.55,8.43,6.91V22.72C1176.64,22.39,1174.45,20.7,1174.45,17.32Z"/> <path class="cls-1" d="M1205.72,7.6V6c-4.65.43-7.71,3-7.71,6.44v.29h1.66v-.29C1199.67,9.86,1202.12,8,1205.72,7.6Z"/> <path class="cls-1" d="M1208.67,6V7.6c4,.36,6.08,2.3,6.08,5.61v7c0,2.34,1.55,3.74,4.18,3.74h1.91V22.39h-1.59c-1.8,0-2.84-.93-2.84-2.55V13.21C1216.41,9,1213.6,6.37,1208.67,6Z"/> <path class="cls-1" d="M1211.91,22.64l-.11-1.58a11.17,11.17,0,0,1-6.26,1.73c-4,0-5.94-1.08-5.94-3.21s1.62-3.13,5.22-3.49l7-.72V13.93l-7.31.76c-4.46.47-6.59,2-6.59,4.89,0,3.1,2.63,4.72,7.67,4.72A11.53,11.53,0,0,0,1211.91,22.64Z"/> <path class="cls-1" d="M1236,17.57V16a31.11,31.11,0,0,1-5.22.5c-4.28,0-6.51-1.69-6.51-4.93V6.26h-1.69v5.48c0,4.14,2.77,6.3,8.06,6.3A34.59,34.59,0,0,0,1236,17.57Z"/> <rect class="cls-1" x="1238.94" y="6.26" width="1.66" height="17.64"/> <path class="cls-1" d="M1257.57,6V7.56c4,.47,6.56,2.92,6.66,6.62h-16.59c.14-3.7,2.77-6.15,7-6.62V6c-5.36.5-8.75,3.78-8.75,8.71v.83c0,4.89,3.35,8.17,8.75,8.67V22.61c-4.32-.47-7-3-7-7H1266v-1C1266,9.68,1262.76,6.48,1257.57,6Z"/> <path class="cls-1" d="M1257.57,22.64v1.55c5-.39,8.28-2.88,8.43-6.59h-1.8C1264.13,20.34,1261.53,22.28,1257.57,22.64Z"/> <polygon class="cls-1" points="1295.41 6.26 1284.46 22.07 1273.52 6.26 1271.5 6.26 1283.71 23.9 1285.22 23.9 1297.42 6.26 1295.41 6.26"/> <polygon class="cls-1" points="1271.5 23.9 1273.12 23.9 1273.12 13.9 1271.5 11.45 1271.5 23.9"/> <polygon class="cls-1" points="1295.77 23.9 1297.42 23.9 1297.42 11.45 1295.77 13.9 1295.77 23.9"/> <path class="cls-1" d="M1310.64,1.55V0c-4.9.4-7.85,3-7.85,6.91v.76h1.66V6.91C1304.45,3.89,1306.75,1.94,1310.64,1.55Z"/> <path class="cls-1" d="M1313.59,0V1.55c3.6.36,5.76,2.05,5.76,4.64v.36c0,1.73-1,2.85-4.28,4.72C1312,13,1311,14.4,1311,17v1.44h1.58V17c0-2.05.87-3.17,3.82-4.83,3.42-1.94,4.68-3.45,4.68-5.61V6.16C1321.08,2.81,1318.09.43,1313.59,0Z"/> <path class="cls-1" d="M1311.79,24.3a1.28,1.28,0,1,0,0-2.56,1.28,1.28,0,1,0,0,2.56Z"/> <rect class="cls-1" x="1385.44" y="0.29" width="1.76" height="23.62"/> <polygon class="cls-1" points="1407.72 0.29 1405.63 0.29 1393.75 11.23 1390.15 11.23 1390.15 12.82 1393.75 12.82 1405.49 23.9 1407.54 23.9 1407.54 23.62 1395.34 11.99 1407.72 0.58 1407.72 0.29"/> <path class="cls-1" d="M1419,7.6V6c-4.64.43-7.7,3-7.7,6.44v.29H1413v-.29C1413,9.86,1415.39,8,1419,7.6Z"/> <path class="cls-1" d="M1422,6V7.6c4,.36,6.08,2.3,6.08,5.61v7c0,2.34,1.55,3.74,4.18,3.74h1.9V22.39h-1.58c-1.8,0-2.84-.93-2.84-2.55V13.21C1429.69,9,1426.88,6.37,1422,6Z"/> <path class="cls-1" d="M1425.19,22.64l-.11-1.58a11.21,11.21,0,0,1-6.27,1.73c-4,0-5.94-1.08-5.94-3.21s1.62-3.13,5.22-3.49l7-.72V13.93l-7.31.76c-4.46.47-6.59,2-6.59,4.89,0,3.1,2.63,4.72,7.67,4.72A11.53,11.53,0,0,0,1425.19,22.64Z"/> <rect class="cls-1" x="1437.67" y="6.26" width="1.69" height="17.64"/> <polygon class="cls-1" points="1446.89 15.01 1456.72 6.55 1456.72 6.26 1454.74 6.26 1445.38 14.29 1442.32 14.29 1442.32 15.8 1445.45 15.8 1455.28 23.9 1457.22 23.9 1457.22 23.62 1446.89 15.01"/> <polygon class="cls-1" points="1462.28 29.05 1463.9 29.05 1466.92 20.45 1466.92 20.16 1465.01 20.16 1462.28 29.05"/> <rect class="cls-1" x="1488.82" y="6.26" width="1.69" height="17.64"/> <polygon class="cls-1" points="1498.04 15.01 1507.87 6.55 1507.87 6.26 1505.89 6.26 1496.53 14.29 1493.47 14.29 1493.47 15.8 1496.6 15.8 1506.43 23.9 1508.37 23.9 1508.37 23.62 1498.04 15.01"/> <path class="cls-1" d="M1519.55,7.52V6c-5.51.5-8.89,3.74-8.89,8.78v.76c0,4.93,3.38,8.17,8.89,8.67V22.61c-4.43-.47-7.17-3.06-7.17-7.13v-.72C1512.38,10.66,1515.05,8,1519.55,7.52Z"/> <path class="cls-1" d="M1522.5,6V7.56c4.39.47,7.06,3.17,7.06,7.2v.72c0,4-2.7,6.7-7.06,7.13v1.58c5.44-.5,8.78-3.74,8.78-8.67v-.76C1531.28,9.76,1527.94,6.48,1522.5,6Z"/> <rect class="cls-1" x="1536.78" y="6.26" width="1.69" height="17.64"/> <rect class="cls-1" x="1541.42" y="6.26" width="9.94" height="1.55"/> <path class="cls-1" d="M1568.55,6.26h-12.31l-.18,9.18a11.9,11.9,0,0,1-2.09,7h-2.66l0,6.12H1553V23.9h15.55V22.39H1555.7a12.57,12.57,0,0,0,2-7l.14-7.66h10.76Z"/> <polygon class="cls-1" points="1573.2 22.39 1573.2 6.26 1571.51 6.26 1571.51 23.9 1575.21 23.9 1575.21 28.51 1576.87 28.51 1576.87 22.39 1573.2 22.39"/> <path class="cls-1" d="M1588.27,7.6V6c-4.64.43-7.7,3-7.7,6.44v.29h1.65v-.29C1582.22,9.86,1584.67,8,1588.27,7.6Z"/> <path class="cls-1" d="M1591.22,6V7.6c4,.36,6.09,2.3,6.09,5.61v7c0,2.34,1.55,3.74,4.17,3.74h1.91V22.39h-1.58c-1.8,0-2.85-.93-2.85-2.55V13.21C1599,9,1596.16,6.37,1591.22,6Z"/> <path class="cls-1" d="M1594.46,22.64l-.1-1.58a11.21,11.21,0,0,1-6.27,1.73c-4,0-5.94-1.08-5.94-3.21s1.62-3.13,5.22-3.49l7-.72V13.93l-7.31.76c-4.47.47-6.59,2-6.59,4.89,0,3.1,2.63,4.72,7.67,4.72A11.47,11.47,0,0,0,1594.46,22.64Z"/> <polygon class="cls-1" points="1638.28 6.26 1621.36 23.9 1623.13 23.9 1640.05 6.26 1638.28 6.26"/> <polygon class="cls-1" points="1621.36 19.33 1622.98 17.5 1622.98 6.26 1621.36 6.26 1621.36 19.33"/> <polygon class="cls-1" points="1640.05 10.84 1638.43 12.67 1638.43 23.9 1640.05 23.9 1640.05 10.84"/> <path class="cls-1" d="M1661.87,12.89c0-3.46,2.16-5.15,6.77-5.44V5.94c-5.54.36-8.42,2.7-8.42,7v.21h1.65Z"/> <path class="cls-1" d="M1676.63,14.94c1.95-.72,3.1-2,3.1-3.78v-.32c0-3-2.77-4.68-8.14-4.9V7.45c4.32.18,6.41,1.3,6.41,3.42v.33c0,1.94-1.73,3.06-4.79,3.06h-5.61v1.51h6.05c3.09,0,4.82,1.08,4.82,3v.29c0,2.34-2.16,3.49-6.88,3.64v1.54c5.76-.21,8.61-1.94,8.61-5.11v-.32C1680.2,17,1678.86,15.59,1676.63,14.94Z"/> <path class="cls-1" d="M1661.87,17.32V17.1h-1.65v.22c0,4.28,2.84,6.55,8.42,6.91V22.72C1664.07,22.39,1661.87,20.7,1661.87,17.32Z"/> <path class="cls-1" d="M1693.14,7.6V6c-4.64.43-7.7,3-7.7,6.44v.29h1.65v-.29C1687.09,9.86,1689.54,8,1693.14,7.6Z"/> <path class="cls-1" d="M1696.09,6V7.6c4,.36,6.09,2.3,6.09,5.61v7c0,2.34,1.55,3.74,4.17,3.74h1.91V22.39h-1.58c-1.8,0-2.85-.93-2.85-2.55V13.21C1703.83,9,1701,6.37,1696.09,6Z"/> <path class="cls-1" d="M1699.33,22.64l-.1-1.58a11.21,11.21,0,0,1-6.27,1.73c-4,0-5.94-1.08-5.94-3.21s1.62-3.13,5.22-3.49l7-.72V13.93l-7.31.76c-4.47.47-6.59,2-6.59,4.89,0,3.1,2.63,4.72,7.67,4.72A11.47,11.47,0,0,0,1699.33,22.64Z"/> <path class="cls-1" d="M1723.41,17.57V16a31.11,31.11,0,0,1-5.22.5c-4.28,0-6.52-1.69-6.52-4.93V6.26H1710v5.48c0,4.14,2.77,6.3,8.07,6.3A34.59,34.59,0,0,0,1723.41,17.57Z"/> <rect class="cls-1" x="1726.36" y="6.26" width="1.66" height="17.64"/> <path class="cls-1" d="M1745,6V7.56c4,.47,6.55,2.92,6.66,6.62h-16.6c.15-3.7,2.78-6.15,7-6.62V6c-5.37.5-8.75,3.78-8.75,8.71v.83c0,4.89,3.35,8.17,8.75,8.67V22.61c-4.32-.47-7-3-7-7h18.36v-1C1753.42,9.68,1750.18,6.48,1745,6Z"/> <path class="cls-1" d="M1745,22.64v1.55c5-.39,8.28-2.88,8.42-6.59h-1.8C1751.55,20.34,1749,22.28,1745,22.64Z"/> <polygon class="cls-1" points="1782.83 6.26 1771.89 22.07 1760.94 6.26 1758.93 6.26 1771.13 23.9 1772.64 23.9 1784.85 6.26 1782.83 6.26"/> <polygon class="cls-1" points="1758.93 23.9 1760.55 23.9 1760.55 13.9 1758.93 11.45 1758.93 23.9"/> <polygon class="cls-1" points="1783.19 23.9 1784.85 23.9 1784.85 11.45 1783.19 13.9 1783.19 23.9"/> <path class="cls-1" d="M1798.06,1.55V0c-4.89.4-7.84,3-7.84,6.91v.76h1.65V6.91C1791.87,3.89,1794.18,1.94,1798.06,1.55Z"/> <path class="cls-1" d="M1801,0V1.55c3.6.36,5.76,2.05,5.76,4.64v.36c0,1.73-1,2.85-4.29,4.72-3.09,1.76-4.07,3.13-4.07,5.76v1.44H1800V17c0-2.05.86-3.17,3.81-4.83,3.42-1.94,4.68-3.45,4.68-5.61V6.16C1808.5,2.81,1805.52.43,1801,0Z"/> <path class="cls-1" d="M1799.22,24.3a1.28,1.28,0,1,0,0-2.56,1.28,1.28,0,1,0,0,2.56Z"/> <rect class="cls-1" x="1872.86" y="0.29" width="1.76" height="23.62"/> <polygon class="cls-1" points="1895.15 0.29 1893.06 0.29 1881.18 11.23 1877.58 11.23 1877.58 12.82 1881.18 12.82 1892.91 23.9 1894.97 23.9 1894.97 23.62 1882.76 11.99 1895.15 0.58 1895.15 0.29"/> <path class="cls-1" d="M1906.42,7.6V6c-4.64.43-7.7,3-7.7,6.44v.29h1.65v-.29C1900.37,9.86,1902.82,8,1906.42,7.6Z"/> <path class="cls-1" d="M1909.37,6V7.6c4,.36,6.09,2.3,6.09,5.61v7c0,2.34,1.54,3.74,4.17,3.74h1.91V22.39H1920c-1.8,0-2.85-.93-2.85-2.55V13.21C1917.11,9,1914.3,6.37,1909.37,6Z"/> <path class="cls-1" d="M1912.61,22.64l-.11-1.58a11.17,11.17,0,0,1-6.26,1.73c-4,0-5.94-1.08-5.94-3.21s1.62-3.13,5.22-3.49l7-.72V13.93l-7.3.76c-4.47.47-6.59,2-6.59,4.89,0,3.1,2.63,4.72,7.67,4.72A11.47,11.47,0,0,0,1912.61,22.64Z"/> <rect class="cls-1" x="1925.1" y="6.26" width="1.69" height="17.64"/> <polygon class="cls-1" points="1934.31 15.01 1944.14 6.55 1944.14 6.26 1942.16 6.26 1932.8 14.29 1929.74 14.29 1929.74 15.8 1932.87 15.8 1942.7 23.9 1944.65 23.9 1944.65 23.62 1934.31 15.01"/> <polygon class="cls-1" points="1949.7 29.05 1951.32 29.05 1954.35 20.45 1954.35 20.16 1952.44 20.16 1949.7 29.05"/> <rect class="cls-1" x="1976.25" y="6.26" width="1.69" height="17.64"/> <polygon class="cls-1" points="1985.47 15.01 1995.29 6.55 1995.29 6.26 1993.31 6.26 1983.95 14.29 1980.89 14.29 1980.89 15.8 1984.03 15.8 1993.85 23.9 1995.8 23.9 1995.8 23.62 1985.47 15.01"/> <path class="cls-1" d="M2007,7.52V6c-5.5.5-8.89,3.74-8.89,8.78v.76c0,4.93,3.39,8.17,8.89,8.67V22.61c-4.42-.47-7.16-3.06-7.16-7.13v-.72C1999.81,10.66,2002.47,8,2007,7.52Z"/> <path class="cls-1" d="M2009.93,6V7.56c4.39.47,7,3.17,7,7.2v.72c0,4-2.7,6.7-7,7.13v1.58c5.43-.5,8.78-3.74,8.78-8.67v-.76C2018.71,9.76,2015.36,6.48,2009.93,6Z"/> <rect class="cls-1" x="2024.2" y="6.26" width="1.69" height="17.64"/> <rect class="cls-1" x="2028.85" y="6.26" width="9.94" height="1.55"/> <path class="cls-1" d="M2056,6.26h-12.31l-.18,9.18a12,12,0,0,1-2.09,7h-2.66l0,6.12h1.66V23.9H2056V22.39h-12.85a12.57,12.57,0,0,0,1.94-7l.15-7.66H2056Z"/> <polygon class="cls-1" points="2060.62 22.39 2060.62 6.26 2058.93 6.26 2058.93 23.9 2062.64 23.9 2062.64 28.51 2064.3 28.51 2064.3 22.39 2060.62 22.39"/> <path class="cls-1" d="M2075.7,7.6V6c-4.65.43-7.71,3-7.71,6.44v.29h1.66v-.29C2069.65,9.86,2072.1,8,2075.7,7.6Z"/> <path class="cls-1" d="M2078.65,6V7.6c4,.36,6.08,2.3,6.08,5.61v7c0,2.34,1.55,3.74,4.18,3.74h1.91V22.39h-1.59c-1.8,0-2.84-.93-2.84-2.55V13.21C2086.39,9,2083.58,6.37,2078.65,6Z"/> <path class="cls-1" d="M2081.89,22.64l-.11-1.58a11.17,11.17,0,0,1-6.26,1.73c-4,0-5.94-1.08-5.94-3.21s1.62-3.13,5.22-3.49l7-.72V13.93l-7.31.76c-4.46.47-6.58,2-6.58,4.89,0,3.1,2.62,4.72,7.66,4.72A11.53,11.53,0,0,0,2081.89,22.64Z"/> <polygon class="cls-1" points="2125.71 6.26 2108.79 23.9 2110.55 23.9 2127.47 6.26 2125.71 6.26"/> <polygon class="cls-1" points="2108.79 19.33 2110.41 17.5 2110.41 6.26 2108.79 6.26 2108.79 19.33"/> <polygon class="cls-1" points="2127.47 10.84 2125.85 12.67 2125.85 23.9 2127.47 23.9 2127.47 10.84"/> <path class="cls-1" d="M2149.3,12.89c0-3.46,2.16-5.15,6.77-5.44V5.94c-5.55.36-8.43,2.7-8.43,7v.21h1.66Z"/> <path class="cls-1" d="M2164.06,14.94c1.94-.72,3.09-2,3.09-3.78v-.32c0-3-2.77-4.68-8.13-4.9V7.45c4.32.18,6.41,1.3,6.41,3.42v.33c0,1.94-1.73,3.06-4.79,3.06H2155v1.51h6.05c3.1,0,4.83,1.08,4.83,3v.29c0,2.34-2.16,3.49-6.88,3.64v1.54c5.76-.21,8.6-1.94,8.6-5.11v-.32C2167.62,17,2166.29,15.59,2164.06,14.94Z"/> <path class="cls-1" d="M2149.3,17.32V17.1h-1.66v.22c0,4.28,2.85,6.55,8.43,6.91V22.72C2151.5,22.39,2149.3,20.7,2149.3,17.32Z"/> <path class="cls-1" d="M2180.57,7.6V6c-4.65.43-7.71,3-7.71,6.44v.29h1.66v-.29C2174.52,9.86,2177,8,2180.57,7.6Z"/> <path class="cls-1" d="M2183.52,6V7.6c4,.36,6.08,2.3,6.08,5.61v7c0,2.34,1.55,3.74,4.18,3.74h1.91V22.39h-1.59c-1.8,0-2.84-.93-2.84-2.55V13.21C2191.26,9,2188.45,6.37,2183.52,6Z"/> <path class="cls-1" d="M2186.76,22.64l-.11-1.58a11.17,11.17,0,0,1-6.26,1.73c-4,0-5.94-1.08-5.94-3.21s1.62-3.13,5.22-3.49l7-.72V13.93l-7.31.76c-4.46.47-6.58,2-6.58,4.89,0,3.1,2.62,4.72,7.66,4.72A11.53,11.53,0,0,0,2186.76,22.64Z"/> <path class="cls-1" d="M2210.84,17.57V16a31.21,31.21,0,0,1-5.22.5c-4.29,0-6.52-1.69-6.52-4.93V6.26h-1.69v5.48c0,4.14,2.77,6.3,8.06,6.3A34.72,34.72,0,0,0,2210.84,17.57Z"/> <rect class="cls-1" x="2213.79" y="6.26" width="1.66" height="17.64"/> <path class="cls-1" d="M2232.43,6V7.56c4,.47,6.55,2.92,6.66,6.62h-16.6c.14-3.7,2.77-6.15,7-6.62V6c-5.36.5-8.74,3.78-8.74,8.71v.83c0,4.89,3.34,8.17,8.74,8.67V22.61c-4.32-.47-7-3-7-7h18.36v-1C2240.85,9.68,2237.61,6.48,2232.43,6Z"/> <path class="cls-1" d="M2232.43,22.64v1.55c5-.39,8.28-2.88,8.42-6.59h-1.8C2239,20.34,2236.39,22.28,2232.43,22.64Z"/> <polygon class="cls-1" points="2270.26 6.26 2259.32 22.07 2248.37 6.26 2246.36 6.26 2258.56 23.9 2260.07 23.9 2272.28 6.26 2270.26 6.26"/> <polygon class="cls-1" points="2246.36 23.9 2247.97 23.9 2247.97 13.9 2246.36 11.45 2246.36 23.9"/> <polygon class="cls-1" points="2270.62 23.9 2272.28 23.9 2272.28 11.45 2270.62 13.9 2270.62 23.9"/> <path class="cls-1" d="M2285.49,1.55V0c-4.9.4-7.85,3-7.85,6.91v.76h1.66V6.91C2279.3,3.89,2281.6,1.94,2285.49,1.55Z"/> <path class="cls-1" d="M2288.44,0V1.55c3.6.36,5.76,2.05,5.76,4.64v.36c0,1.73-1,2.85-4.28,4.72-3.1,1.76-4.07,3.13-4.07,5.76v1.44h1.58V17c0-2.05.87-3.17,3.82-4.83,3.42-1.94,4.68-3.45,4.68-5.61V6.16C2295.93,2.81,2292.94.43,2288.44,0Z"/> <path class="cls-1" d="M2286.64,24.3a1.28,1.28,0,1,0-1.29-1.3A1.26,1.26,0,0,0,2286.64,24.3Z"/> <rect class="cls-1" x="2360.29" y="0.29" width="1.76" height="23.62"/> <polygon class="cls-1" points="2382.57 0.29 2380.49 0.29 2368.61 11.23 2365.01 11.23 2365.01 12.82 2368.61 12.82 2380.34 23.9 2382.39 23.9 2382.39 23.62 2370.19 11.99 2382.57 0.58 2382.57 0.29"/> <path class="cls-1" d="M2393.85,7.6V6c-4.65.43-7.71,3-7.71,6.44v.29h1.66v-.29C2387.8,9.86,2390.25,8,2393.85,7.6Z"/> <path class="cls-1" d="M2396.8,6V7.6c4,.36,6.08,2.3,6.08,5.61v7c0,2.34,1.55,3.74,4.18,3.74H2409V22.39h-1.59c-1.8,0-2.84-.93-2.84-2.55V13.21C2404.54,9,2401.73,6.37,2396.8,6Z"/> <path class="cls-1" d="M2400,22.64l-.11-1.58a11.17,11.17,0,0,1-6.26,1.73c-4,0-5.94-1.08-5.94-3.21s1.62-3.13,5.22-3.49l7-.72V13.93l-7.31.76c-4.46.47-6.59,2-6.59,4.89,0,3.1,2.63,4.72,7.67,4.72A11.53,11.53,0,0,0,2400,22.64Z"/> <rect class="cls-1" x="2412.52" y="6.26" width="1.69" height="17.64"/> <polygon class="cls-1" points="2421.74 15.01 2431.57 6.55 2431.57 6.26 2429.59 6.26 2420.23 14.29 2417.17 14.29 2417.17 15.8 2420.3 15.8 2430.13 23.9 2432.07 23.9 2432.07 23.62 2421.74 15.01"/> <polygon class="cls-1" points="2437.13 29.05 2438.75 29.05 2441.77 20.45 2441.77 20.16 2439.87 20.16 2437.13 29.05"/> <rect class="cls-1" x="2463.68" y="6.26" width="1.69" height="17.64"/> <polygon class="cls-1" points="2472.89 15.01 2482.72 6.55 2482.72 6.26 2480.74 6.26 2471.38 14.29 2468.32 14.29 2468.32 15.8 2471.45 15.8 2481.28 23.9 2483.22 23.9 2483.22 23.62 2472.89 15.01"/> <path class="cls-1" d="M2494.4,7.52V6c-5.51.5-8.89,3.74-8.89,8.78v.76c0,4.93,3.38,8.17,8.89,8.67V22.61c-4.43-.47-7.16-3.06-7.16-7.13v-.72C2487.24,10.66,2489.9,8,2494.4,7.52Z"/> <path class="cls-1" d="M2497.35,6V7.56c4.39.47,7.06,3.17,7.06,7.2v.72c0,4-2.7,6.7-7.06,7.13v1.58c5.44-.5,8.79-3.74,8.79-8.67v-.76C2506.14,9.76,2502.79,6.48,2497.35,6Z"/> <rect class="cls-1" x="2511.63" y="6.26" width="1.69" height="17.64"/> <rect class="cls-1" x="2516.27" y="6.26" width="9.94" height="1.55"/> <path class="cls-1" d="M2543.41,6.26h-12.32l-.18,9.18a12,12,0,0,1-2.08,7h-2.67l0,6.12h1.65V23.9h15.56V22.39h-12.86a12.49,12.49,0,0,0,1.95-7l.14-7.66h10.77Z"/> <polygon class="cls-1" points="2548.05 22.39 2548.05 6.26 2546.36 6.26 2546.36 23.9 2550.07 23.9 2550.07 28.51 2551.72 28.51 2551.72 22.39 2548.05 22.39"/> <path class="cls-1" d="M2563.12,7.6V6c-4.64.43-7.7,3-7.7,6.44v.29h1.66v-.29C2557.08,9.86,2559.52,8,2563.12,7.6Z"/> <path class="cls-1" d="M2566.08,6V7.6c4,.36,6.08,2.3,6.08,5.61v7c0,2.34,1.55,3.74,4.18,3.74h1.9V22.39h-1.58c-1.8,0-2.84-.93-2.84-2.55V13.21C2573.82,9,2571,6.37,2566.08,6Z"/> <path class="cls-1" d="M2569.32,22.64l-.11-1.58a11.21,11.21,0,0,1-6.27,1.73c-4,0-5.94-1.08-5.94-3.21s1.62-3.13,5.22-3.49l7-.72V13.93l-7.31.76c-4.46.47-6.59,2-6.59,4.89,0,3.1,2.63,4.72,7.67,4.72A11.53,11.53,0,0,0,2569.32,22.64Z"/> <polygon class="cls-1" points="2613.14 6.26 2596.22 23.9 2597.98 23.9 2614.9 6.26 2613.14 6.26"/> <polygon class="cls-1" points="2596.22 19.33 2597.84 17.5 2597.84 6.26 2596.22 6.26 2596.22 19.33"/> <polygon class="cls-1" points="2614.9 10.84 2613.28 12.67 2613.28 23.9 2614.9 23.9 2614.9 10.84"/> <path class="cls-1" d="M2636.73,12.89c0-3.46,2.16-5.15,6.76-5.44V5.94c-5.54.36-8.42,2.7-8.42,7v.21h1.66Z"/> <path class="cls-1" d="M2651.49,14.94c1.94-.72,3.09-2,3.09-3.78v-.32c0-3-2.77-4.68-8.13-4.9V7.45c4.32.18,6.4,1.3,6.4,3.42v.33c0,1.94-1.72,3.06-4.78,3.06h-5.62v1.51h6.05c3.09,0,4.82,1.08,4.82,3v.29c0,2.34-2.16,3.49-6.87,3.64v1.54c5.76-.21,8.6-1.94,8.6-5.11v-.32C2655.05,17,2653.72,15.59,2651.49,14.94Z"/> <path class="cls-1" d="M2636.73,17.32V17.1h-1.66v.22c0,4.28,2.84,6.55,8.42,6.91V22.72C2638.92,22.39,2636.73,20.7,2636.73,17.32Z"/> <path class="cls-1" d="M2668,7.6V6c-4.64.43-7.7,3-7.7,6.44v.29H2662v-.29C2662,9.86,2664.39,8,2668,7.6Z"/> <path class="cls-1" d="M2671,6V7.6c4,.36,6.08,2.3,6.08,5.61v7c0,2.34,1.55,3.74,4.18,3.74h1.9V22.39h-1.58c-1.8,0-2.84-.93-2.84-2.55V13.21C2678.69,9,2675.88,6.37,2671,6Z"/> <path class="cls-1" d="M2674.19,22.64l-.11-1.58a11.21,11.21,0,0,1-6.27,1.73c-4,0-5.94-1.08-5.94-3.21s1.62-3.13,5.22-3.49l7-.72V13.93l-7.31.76c-4.46.47-6.59,2-6.59,4.89,0,3.1,2.63,4.72,7.67,4.72A11.53,11.53,0,0,0,2674.19,22.64Z"/> <path class="cls-1" d="M2698.26,17.57V16a31.11,31.11,0,0,1-5.22.5c-4.28,0-6.51-1.69-6.51-4.93V6.26h-1.7v5.48c0,4.14,2.78,6.3,8.07,6.3A34.59,34.59,0,0,0,2698.26,17.57Z"/> <rect class="cls-1" x="2701.21" y="6.26" width="1.66" height="17.64"/> <path class="cls-1" d="M2719.85,6V7.56c4,.47,6.55,2.92,6.66,6.62h-16.59c.14-3.7,2.77-6.15,7-6.62V6c-5.36.5-8.75,3.78-8.75,8.71v.83c0,4.89,3.35,8.17,8.75,8.67V22.61c-4.32-.47-7-3-7-7h18.36v-1C2728.28,9.68,2725,6.48,2719.85,6Z"/> <path class="cls-1" d="M2719.85,22.64v1.55c5-.39,8.28-2.88,8.43-6.59h-1.8C2726.4,20.34,2723.81,22.28,2719.85,22.64Z"/> <polygon class="cls-1" points="2757.68 6.26 2746.74 22.07 2735.8 6.26 2733.78 6.26 2745.99 23.9 2747.5 23.9 2759.7 6.26 2757.68 6.26"/> <polygon class="cls-1" points="2733.78 23.9 2735.4 23.9 2735.4 13.9 2733.78 11.45 2733.78 23.9"/> <polygon class="cls-1" points="2758.05 23.9 2759.7 23.9 2759.7 11.45 2758.05 13.9 2758.05 23.9"/> <path class="cls-1" d="M2772.92,1.55V0c-4.9.4-7.85,3-7.85,6.91v.76h1.65V6.91C2766.72,3.89,2769,1.94,2772.92,1.55Z"/> <path class="cls-1" d="M2775.87,0V1.55c3.6.36,5.76,2.05,5.76,4.64v.36c0,1.73-1,2.85-4.29,4.72-3.09,1.76-4.06,3.13-4.06,5.76v1.44h1.58V17c0-2.05.86-3.17,3.82-4.83,3.42-1.94,4.68-3.45,4.68-5.61V6.16C2783.36,2.81,2780.37.43,2775.87,0Z"/> <path class="cls-1" d="M2774.07,24.3a1.28,1.28,0,1,0,0-2.56,1.28,1.28,0,1,0,0,2.56Z"/> <rect class="cls-1" x="2847.71" y="0.29" width="1.76" height="23.62"/> <polygon class="cls-1" points="2870 0.29 2867.91 0.29 2856.03 11.23 2852.43 11.23 2852.43 12.82 2856.03 12.82 2867.77 23.9 2869.82 23.9 2869.82 23.62 2857.61 11.99 2870 0.58 2870 0.29"/> <path class="cls-1" d="M2881.27,7.6V6c-4.64.43-7.7,3-7.7,6.44v.29h1.65v-.29C2875.22,9.86,2877.67,8,2881.27,7.6Z"/> <path class="cls-1" d="M2884.22,6V7.6c4,.36,6.09,2.3,6.09,5.61v7c0,2.34,1.55,3.74,4.17,3.74h1.91V22.39h-1.58c-1.8,0-2.85-.93-2.85-2.55V13.21C2892,9,2889.16,6.37,2884.22,6Z"/> <path class="cls-1" d="M2887.46,22.64l-.1-1.58a11.21,11.21,0,0,1-6.27,1.73c-4,0-5.94-1.08-5.94-3.21s1.62-3.13,5.22-3.49l7-.72V13.93l-7.31.76c-4.47.47-6.59,2-6.59,4.89,0,3.1,2.63,4.72,7.67,4.72A11.47,11.47,0,0,0,2887.46,22.64Z"/> <rect class="cls-1" x="2899.95" y="6.26" width="1.69" height="17.64"/> <polygon class="cls-1" points="2909.17 15.01 2918.99 6.55 2918.99 6.26 2917.01 6.26 2907.65 14.29 2904.59 14.29 2904.59 15.8 2907.73 15.8 2917.55 23.9 2919.5 23.9 2919.5 23.62 2909.17 15.01"/> <polygon class="cls-1" points="2924.56 29.05 2926.18 29.05 2929.2 20.45 2929.2 20.16 2927.29 20.16 2924.56 29.05"/> <rect class="cls-1" x="2951.1" y="6.26" width="1.69" height="17.64"/> <polygon class="cls-1" points="2960.32 15.01 2970.15 6.55 2970.15 6.26 2968.17 6.26 2958.81 14.29 2955.75 14.29 2955.75 15.8 2958.88 15.8 2968.71 23.9 2970.65 23.9 2970.65 23.62 2960.32 15.01"/> <path class="cls-1" d="M2981.83,7.52V6c-5.51.5-8.9,3.74-8.9,8.78v.76c0,4.93,3.39,8.17,8.9,8.67V22.61c-4.43-.47-7.17-3.06-7.17-7.13v-.72C2974.66,10.66,2977.33,8,2981.83,7.52Z"/> <path class="cls-1" d="M2984.78,6V7.56c4.39.47,7,3.17,7,7.2v.72c0,4-2.7,6.7-7,7.13v1.58c5.43-.5,8.78-3.74,8.78-8.67v-.76C2993.56,9.76,2990.21,6.48,2984.78,6Z"/> <rect class="cls-1" x="2999.06" y="6.26" width="1.69" height="17.64"/> <rect class="cls-1" x="3003.7" y="6.26" width="9.94" height="1.55"/> <path class="cls-1" d="M3030.83,6.26h-12.31l-.18,9.18a11.9,11.9,0,0,1-2.09,7h-2.66l0,6.12h1.66V23.9h15.55V22.39H3018a12.49,12.49,0,0,0,1.94-7l.15-7.66h10.76Z"/> <polygon class="cls-1" points="3035.47 22.39 3035.47 6.26 3033.78 6.26 3033.78 23.9 3037.49 23.9 3037.49 28.51 3039.15 28.51 3039.15 22.39 3035.47 22.39"/> <path class="cls-1" d="M3050.55,7.6V6c-4.64.43-7.7,3-7.7,6.44v.29h1.65v-.29C3044.5,9.86,3047,8,3050.55,7.6Z"/> <path class="cls-1" d="M3053.5,6V7.6c4,.36,6.09,2.3,6.09,5.61v7c0,2.34,1.54,3.74,4.17,3.74h1.91V22.39h-1.58c-1.8,0-2.85-.93-2.85-2.55V13.21C3061.24,9,3058.43,6.37,3053.5,6Z"/> <path class="cls-1" d="M3056.74,22.64l-.11-1.58a11.17,11.17,0,0,1-6.26,1.73c-4,0-5.94-1.08-5.94-3.21s1.62-3.13,5.22-3.49l7-.72V13.93l-7.3.76c-4.47.47-6.59,2-6.59,4.89,0,3.1,2.63,4.72,7.67,4.72A11.47,11.47,0,0,0,3056.74,22.64Z"/> <polygon class="cls-1" points="3100.56 6.26 3083.64 23.9 3085.41 23.9 3102.32 6.26 3100.56 6.26"/> <polygon class="cls-1" points="3083.64 19.33 3085.26 17.5 3085.26 6.26 3083.64 6.26 3083.64 19.33"/> <polygon class="cls-1" points="3102.32 10.84 3100.7 12.67 3100.7 23.9 3102.32 23.9 3102.32 10.84"/> <path class="cls-1" d="M3124.15,12.89c0-3.46,2.16-5.15,6.77-5.44V5.94c-5.54.36-8.42,2.7-8.42,7v.21h1.65Z"/> <path class="cls-1" d="M3138.91,14.94c2-.72,3.1-2,3.1-3.78v-.32c0-3-2.77-4.68-8.14-4.9V7.45c4.32.18,6.41,1.3,6.41,3.42v.33c0,1.94-1.73,3.06-4.79,3.06h-5.61v1.51h6c3.1,0,4.83,1.08,4.83,3v.29c0,2.34-2.16,3.49-6.88,3.64v1.54c5.76-.21,8.6-1.94,8.6-5.11v-.32C3142.47,17,3141.14,15.59,3138.91,14.94Z"/> <path class="cls-1" d="M3124.15,17.32V17.1h-1.65v.22c0,4.28,2.84,6.55,8.42,6.91V22.72C3126.35,22.39,3124.15,20.7,3124.15,17.32Z"/> <path class="cls-1" d="M3155.42,7.6V6c-4.64.43-7.7,3-7.7,6.44v.29h1.65v-.29C3149.37,9.86,3151.82,8,3155.42,7.6Z"/> <path class="cls-1" d="M3158.37,6V7.6c4,.36,6.09,2.3,6.09,5.61v7c0,2.34,1.54,3.74,4.17,3.74h1.91V22.39H3169c-1.8,0-2.85-.93-2.85-2.55V13.21C3166.11,9,3163.3,6.37,3158.37,6Z"/> <path class="cls-1" d="M3161.61,22.64l-.11-1.58a11.17,11.17,0,0,1-6.26,1.73c-4,0-5.94-1.08-5.94-3.21s1.62-3.13,5.22-3.49l7-.72V13.93l-7.3.76c-4.47.47-6.59,2-6.59,4.89,0,3.1,2.63,4.72,7.67,4.72A11.47,11.47,0,0,0,3161.61,22.64Z"/> <path class="cls-1" d="M3185.69,17.57V16a31.11,31.11,0,0,1-5.22.5c-4.29,0-6.52-1.69-6.52-4.93V6.26h-1.69v5.48c0,4.14,2.77,6.3,8.06,6.3A34.61,34.61,0,0,0,3185.69,17.57Z"/> <rect class="cls-1" x="3188.64" y="6.26" width="1.66" height="17.64"/> <path class="cls-1" d="M3207.28,6V7.56c4,.47,6.55,2.92,6.66,6.62h-16.6c.15-3.7,2.77-6.15,7-6.62V6c-5.37.5-8.75,3.78-8.75,8.71v.83c0,4.89,3.35,8.17,8.75,8.67V22.61c-4.32-.47-7-3-7-7h18.36v-1C3215.7,9.68,3212.46,6.48,3207.28,6Z"/> <path class="cls-1" d="M3207.28,22.64v1.55c5-.39,8.28-2.88,8.42-6.59h-1.8C3213.83,20.34,3211.24,22.28,3207.28,22.64Z"/> <polygon class="cls-1" points="3245.11 6.26 3234.17 22.07 3223.22 6.26 3221.21 6.26 3233.41 23.9 3234.92 23.9 3247.13 6.26 3245.11 6.26"/> <polygon class="cls-1" points="3221.21 23.9 3222.83 23.9 3222.83 13.9 3221.21 11.45 3221.21 23.9"/> <polygon class="cls-1" points="3245.47 23.9 3247.13 23.9 3247.13 11.45 3245.47 13.9 3245.47 23.9"/> <path class="cls-1" d="M3260.34,1.55V0c-4.89.4-7.85,3-7.85,6.91v.76h1.66V6.91C3254.15,3.89,3256.45,1.94,3260.34,1.55Z"/> <path class="cls-1" d="M3263.29,0V1.55c3.6.36,5.76,2.05,5.76,4.64v.36c0,1.73-1,2.85-4.28,4.72-3.1,1.76-4.07,3.13-4.07,5.76v1.44h1.59V17c0-2.05.86-3.17,3.81-4.83,3.42-1.94,4.68-3.45,4.68-5.61V6.16C3270.78,2.81,3267.79.43,3263.29,0Z"/> <path class="cls-1" d="M3261.49,24.3a1.28,1.28,0,1,0-1.29-1.3A1.26,1.26,0,0,0,3261.49,24.3Z"/> <rect class="cls-1" x="3335.14" y="0.29" width="1.76" height="23.62"/> <polygon class="cls-1" points="3357.43 0.29 3355.34 0.29 3343.46 11.23 3339.86 11.23 3339.86 12.82 3343.46 12.82 3355.19 23.9 3357.24 23.9 3357.24 23.62 3345.04 11.99 3357.43 0.58 3357.43 0.29"/> <path class="cls-1" d="M3368.7,7.6V6c-4.65.43-7.71,3-7.71,6.44v.29h1.66v-.29C3362.65,9.86,3365.1,8,3368.7,7.6Z"/> <path class="cls-1" d="M3371.65,6V7.6c4,.36,6.08,2.3,6.08,5.61v7c0,2.34,1.55,3.74,4.18,3.74h1.91V22.39h-1.59c-1.8,0-2.84-.93-2.84-2.55V13.21C3379.39,9,3376.58,6.37,3371.65,6Z"/> <path class="cls-1" d="M3374.89,22.64l-.11-1.58a11.17,11.17,0,0,1-6.26,1.73c-4,0-5.94-1.08-5.94-3.21s1.62-3.13,5.22-3.49l7-.72V13.93l-7.31.76c-4.46.47-6.58,2-6.58,4.89,0,3.1,2.62,4.72,7.66,4.72A11.53,11.53,0,0,0,3374.89,22.64Z"/> <rect class="cls-1" x="3387.38" y="6.26" width="1.69" height="17.64"/> <polygon class="cls-1" points="3396.59 15.01 3406.42 6.55 3406.42 6.26 3404.44 6.26 3395.08 14.29 3392.02 14.29 3392.02 15.8 3395.15 15.8 3404.98 23.9 3406.92 23.9 3406.92 23.62 3396.59 15.01"/> <polygon class="cls-1" points="3411.98 29.05 3413.6 29.05 3416.63 20.45 3416.63 20.16 3414.72 20.16 3411.98 29.05"/> <rect class="cls-1" x="3438.53" y="6.26" width="1.69" height="17.64"/> <polygon class="cls-1" points="3447.74 15.01 3457.57 6.55 3457.57 6.26 3455.59 6.26 3446.23 14.29 3443.17 14.29 3443.17 15.8 3446.3 15.8 3456.13 23.9 3458.08 23.9 3458.08 23.62 3447.74 15.01"/> <path class="cls-1" d="M3469.25,7.52V6c-5.51.5-8.89,3.74-8.89,8.78v.76c0,4.93,3.38,8.17,8.89,8.67V22.61c-4.43-.47-7.16-3.06-7.16-7.13v-.72C3462.09,10.66,3464.75,8,3469.25,7.52Z"/> <path class="cls-1" d="M3472.2,6V7.56c4.4.47,7.06,3.17,7.06,7.2v.72c0,4-2.7,6.7-7.06,7.13v1.58c5.44-.5,8.79-3.74,8.79-8.67v-.76C3481,9.76,3477.64,6.48,3472.2,6Z"/> <rect class="cls-1" x="3486.48" y="6.26" width="1.69" height="17.64"/> <rect class="cls-1" x="3491.13" y="6.26" width="9.94" height="1.55"/> <path class="cls-1" d="M3518.26,6.26H3506l-.18,9.18a12,12,0,0,1-2.09,7H3501l0,6.12h1.66V23.9h15.55V22.39h-12.85a12.57,12.57,0,0,0,1.94-7l.14-7.66h10.77Z"/> <polygon class="cls-1" points="3522.9 22.39 3522.9 6.26 3521.21 6.26 3521.21 23.9 3524.92 23.9 3524.92 28.51 3526.57 28.51 3526.57 22.39 3522.9 22.39"/> <path class="cls-1" d="M3538,7.6V6c-4.65.43-7.71,3-7.71,6.44v.29h1.66v-.29C3531.93,9.86,3534.38,8,3538,7.6Z"/> <path class="cls-1" d="M3540.93,6V7.6c4,.36,6.08,2.3,6.08,5.61v7c0,2.34,1.55,3.74,4.18,3.74h1.91V22.39h-1.59c-1.8,0-2.84-.93-2.84-2.55V13.21C3548.67,9,3545.86,6.37,3540.93,6Z"/> <path class="cls-1" d="M3544.17,22.64l-.11-1.58a11.17,11.17,0,0,1-6.26,1.73c-4,0-5.94-1.08-5.94-3.21s1.62-3.13,5.22-3.49l7-.72V13.93l-7.31.76c-4.46.47-6.59,2-6.59,4.89,0,3.1,2.63,4.72,7.67,4.72A11.53,11.53,0,0,0,3544.17,22.64Z"/> <polygon class="cls-1" points="3587.99 6.26 3571.07 23.9 3572.83 23.9 3589.75 6.26 3587.99 6.26"/> <polygon class="cls-1" points="3571.07 19.33 3572.69 17.5 3572.69 6.26 3571.07 6.26 3571.07 19.33"/> <polygon class="cls-1" points="3589.75 10.84 3588.13 12.67 3588.13 23.9 3589.75 23.9 3589.75 10.84"/> <path class="cls-1" d="M3611.58,12.89c0-3.46,2.16-5.15,6.77-5.44V5.94c-5.55.36-8.43,2.7-8.43,7v.21h1.66Z"/> <path class="cls-1" d="M3626.34,14.94c1.94-.72,3.09-2,3.09-3.78v-.32c0-3-2.77-4.68-8.13-4.9V7.45c4.32.18,6.41,1.3,6.41,3.42v.33c0,1.94-1.73,3.06-4.79,3.06h-5.62v1.51h6c3.1,0,4.82,1.08,4.82,3v.29c0,2.34-2.16,3.49-6.87,3.64v1.54c5.76-.21,8.6-1.94,8.6-5.11v-.32C3629.9,17,3628.57,15.59,3626.34,14.94Z"/> <path class="cls-1" d="M3611.58,17.32V17.1h-1.66v.22c0,4.28,2.85,6.55,8.43,6.91V22.72C3613.77,22.39,3611.58,20.7,3611.58,17.32Z"/> <path class="cls-1" d="M3642.85,7.6V6c-4.65.43-7.71,3-7.71,6.44v.29h1.66v-.29C3636.8,9.86,3639.25,8,3642.85,7.6Z"/> <path class="cls-1" d="M3645.8,6V7.6c4,.36,6.08,2.3,6.08,5.61v7c0,2.34,1.55,3.74,4.18,3.74H3658V22.39h-1.59c-1.8,0-2.84-.93-2.84-2.55V13.21C3653.54,9,3650.73,6.37,3645.8,6Z"/> <path class="cls-1" d="M3649,22.64l-.11-1.58a11.17,11.17,0,0,1-6.26,1.73c-4,0-5.94-1.08-5.94-3.21s1.62-3.13,5.22-3.49l7-.72V13.93l-7.31.76c-4.46.47-6.59,2-6.59,4.89,0,3.1,2.63,4.72,7.67,4.72A11.53,11.53,0,0,0,3649,22.64Z"/> <path class="cls-1" d="M3673.11,17.57V16a31.11,31.11,0,0,1-5.22.5c-4.28,0-6.51-1.69-6.51-4.93V6.26h-1.69v5.48c0,4.14,2.77,6.3,8.06,6.3A34.59,34.59,0,0,0,3673.11,17.57Z"/> <rect class="cls-1" x="3676.07" y="6.26" width="1.66" height="17.64"/> <path class="cls-1" d="M3694.7,6V7.56c4,.47,6.56,2.92,6.66,6.62h-16.59c.14-3.7,2.77-6.15,7-6.62V6c-5.36.5-8.75,3.78-8.75,8.71v.83c0,4.89,3.35,8.17,8.75,8.67V22.61c-4.32-.47-7-3-7-7h18.36v-1C3703.13,9.68,3699.89,6.48,3694.7,6Z"/> <path class="cls-1" d="M3694.7,22.64v1.55c5-.39,8.28-2.88,8.43-6.59h-1.8C3701.26,20.34,3698.66,22.28,3694.7,22.64Z"/> <polygon class="cls-1" points="3732.54 6.26 3721.59 22.07 3710.65 6.26 3708.63 6.26 3720.84 23.9 3722.35 23.9 3734.55 6.26 3732.54 6.26"/> <polygon class="cls-1" points="3708.63 23.9 3710.25 23.9 3710.25 13.9 3708.63 11.45 3708.63 23.9"/> <polygon class="cls-1" points="3732.9 23.9 3734.55 23.9 3734.55 11.45 3732.9 13.9 3732.9 23.9"/> <path class="cls-1" d="M3747.77,1.55V0c-4.9.4-7.85,3-7.85,6.91v.76h1.66V6.91C3741.58,3.89,3743.88,1.94,3747.77,1.55Z"/> <path class="cls-1" d="M3750.72,0V1.55c3.6.36,5.76,2.05,5.76,4.64v.36c0,1.73-1,2.85-4.28,4.72-3.1,1.76-4.07,3.13-4.07,5.76v1.44h1.58V17c0-2.05.87-3.17,3.82-4.83,3.42-1.94,4.68-3.45,4.68-5.61V6.16C3758.21,2.81,3755.22.43,3750.72,0Z"/> <path class="cls-1" d="M3748.92,24.3a1.28,1.28,0,1,0,0-2.56,1.28,1.28,0,1,0,0,2.56Z"/> <rect class="cls-1" x="3822.57" y="0.29" width="1.76" height="23.62"/> <polygon class="cls-1" points="3844.85 0.29 3842.76 0.29 3830.88 11.23 3827.28 11.23 3827.28 12.82 3830.88 12.82 3842.62 23.9 3844.67 23.9 3844.67 23.62 3832.47 11.99 3844.85 0.58 3844.85 0.29"/> <path class="cls-1" d="M3856.12,7.6V6c-4.64.43-7.7,3-7.7,6.44v.29h1.66v-.29C3850.08,9.86,3852.52,8,3856.12,7.6Z"/> <path class="cls-1" d="M3859.08,6V7.6c4,.36,6.08,2.3,6.08,5.61v7c0,2.34,1.55,3.74,4.18,3.74h1.9V22.39h-1.58c-1.8,0-2.84-.93-2.84-2.55V13.21C3866.82,9,3864,6.37,3859.08,6Z"/> <path class="cls-1" d="M3862.32,22.64l-.11-1.58a11.21,11.21,0,0,1-6.27,1.73c-4,0-5.94-1.08-5.94-3.21s1.62-3.13,5.22-3.49l7-.72V13.93l-7.31.76c-4.46.47-6.59,2-6.59,4.89,0,3.1,2.63,4.72,7.67,4.72A11.53,11.53,0,0,0,3862.32,22.64Z"/> <rect class="cls-1" x="3874.8" y="6.26" width="1.69" height="17.64"/> <polygon class="cls-1" points="3884.02 15.01 3893.85 6.55 3893.85 6.26 3891.87 6.26 3882.51 14.29 3879.45 14.29 3879.45 15.8 3882.58 15.8 3892.41 23.9 3894.35 23.9 3894.35 23.62 3884.02 15.01"/> <polygon class="cls-1" points="3899.41 29.05 3901.03 29.05 3904.05 20.45 3904.05 20.16 3902.14 20.16 3899.41 29.05"/> <rect class="cls-1" x="3925.95" y="6.26" width="1.69" height="17.64"/> <polygon class="cls-1" points="3935.17 15.01 3945 6.55 3945 6.26 3943.02 6.26 3933.66 14.29 3930.6 14.29 3930.6 15.8 3933.73 15.8 3943.56 23.9 3945.5 23.9 3945.5 23.62 3935.17 15.01"/> <path class="cls-1" d="M3956.68,7.52V6c-5.51.5-8.89,3.74-8.89,8.78v.76c0,4.93,3.38,8.17,8.89,8.67V22.61c-4.43-.47-7.17-3.06-7.17-7.13v-.72C3949.51,10.66,3952.18,8,3956.68,7.52Z"/> <path class="cls-1" d="M3959.63,6V7.56c4.39.47,7.06,3.17,7.06,7.2v.72c0,4-2.7,6.7-7.06,7.13v1.58c5.44-.5,8.78-3.74,8.78-8.67v-.76C3968.41,9.76,3965.07,6.48,3959.63,6Z"/> <rect class="cls-1" x="3973.91" y="6.26" width="1.69" height="17.64"/> <rect class="cls-1" x="3978.55" y="6.26" width="9.94" height="1.55"/> <path class="cls-1" d="M4005.68,6.26h-12.31l-.18,9.18a11.9,11.9,0,0,1-2.09,7h-2.66l0,6.12h1.65V23.9h15.55V22.39h-12.85a12.57,12.57,0,0,0,2-7l.14-7.66h10.76Z"/> <polygon class="cls-1" points="4010.33 22.39 4010.33 6.26 4008.64 6.26 4008.64 23.9 4012.34 23.9 4012.34 28.51 4014 28.51 4014 22.39 4010.33 22.39"/> <path class="cls-1" d="M4025.4,7.6V6c-4.64.43-7.7,3-7.7,6.44v.29h1.65v-.29C4019.35,9.86,4021.8,8,4025.4,7.6Z"/> <path class="cls-1" d="M4028.35,6V7.6c4,.36,6.09,2.3,6.09,5.61v7c0,2.34,1.55,3.74,4.17,3.74h1.91V22.39h-1.58c-1.8,0-2.85-.93-2.85-2.55V13.21C4036.09,9,4033.29,6.37,4028.35,6Z"/> <path class="cls-1" d="M4031.59,22.64l-.1-1.58a11.21,11.21,0,0,1-6.27,1.73c-4,0-5.94-1.08-5.94-3.21s1.62-3.13,5.22-3.49l7-.72V13.93l-7.31.76c-4.47.47-6.59,2-6.59,4.89,0,3.1,2.63,4.72,7.67,4.72A11.47,11.47,0,0,0,4031.59,22.64Z"/> <polygon class="cls-1" points="4075.41 6.26 4058.49 23.9 4060.26 23.9 4077.18 6.26 4075.41 6.26"/> <polygon class="cls-1" points="4058.49 19.33 4060.11 17.5 4060.11 6.26 4058.49 6.26 4058.49 19.33"/> <polygon class="cls-1" points="4077.18 10.84 4075.56 12.67 4075.56 23.9 4077.18 23.9 4077.18 10.84"/> <path class="cls-1" d="M4099,12.89c0-3.46,2.16-5.15,6.77-5.44V5.94c-5.54.36-8.42,2.7-8.42,7v.21H4099Z"/> <path class="cls-1" d="M4113.76,14.94c1.95-.72,3.1-2,3.1-3.78v-.32c0-3-2.77-4.68-8.14-4.9V7.45c4.32.18,6.41,1.3,6.41,3.42v.33c0,1.94-1.73,3.06-4.79,3.06h-5.61v1.51h6.05c3.09,0,4.82,1.08,4.82,3v.29c0,2.34-2.16,3.49-6.88,3.64v1.54c5.76-.21,8.61-1.94,8.61-5.11v-.32C4117.33,17,4116,15.59,4113.76,14.94Z"/> <path class="cls-1" d="M4099,17.32V17.1h-1.65v.22c0,4.28,2.84,6.55,8.42,6.91V22.72C4101.2,22.39,4099,20.7,4099,17.32Z"/> <path class="cls-1" d="M4130.27,7.6V6c-4.64.43-7.7,3-7.7,6.44v.29h1.65v-.29C4124.22,9.86,4126.67,8,4130.27,7.6Z"/> <path class="cls-1" d="M4133.22,6V7.6c4,.36,6.09,2.3,6.09,5.61v7c0,2.34,1.55,3.74,4.17,3.74h1.91V22.39h-1.58c-1.8,0-2.85-.93-2.85-2.55V13.21C4141,9,4138.16,6.37,4133.22,6Z"/> <path class="cls-1" d="M4136.46,22.64l-.1-1.58a11.21,11.21,0,0,1-6.27,1.73c-4,0-5.94-1.08-5.94-3.21s1.62-3.13,5.22-3.49l7-.72V13.93l-7.31.76c-4.47.47-6.59,2-6.59,4.89,0,3.1,2.63,4.72,7.67,4.72A11.47,11.47,0,0,0,4136.46,22.64Z"/> <path class="cls-1" d="M4160.54,17.57V16a31.11,31.11,0,0,1-5.22.5c-4.28,0-6.52-1.69-6.52-4.93V6.26h-1.69v5.48c0,4.14,2.77,6.3,8.07,6.3A34.59,34.59,0,0,0,4160.54,17.57Z"/> <rect class="cls-1" x="4163.49" y="6.26" width="1.66" height="17.64"/> <path class="cls-1" d="M4182.13,6V7.56c4,.47,6.55,2.92,6.66,6.62h-16.6c.15-3.7,2.78-6.15,7-6.62V6c-5.37.5-8.75,3.78-8.75,8.71v.83c0,4.89,3.35,8.17,8.75,8.67V22.61c-4.32-.47-7-3-7-7h18.36v-1C4190.55,9.68,4187.31,6.48,4182.13,6Z"/> <path class="cls-1" d="M4182.13,22.64v1.55c5-.39,8.28-2.88,8.42-6.59h-1.8C4188.68,20.34,4186.09,22.28,4182.13,22.64Z"/> <polygon class="cls-1" points="4219.96 6.26 4209.02 22.07 4198.07 6.26 4196.06 6.26 4208.26 23.9 4209.77 23.9 4221.98 6.26 4219.96 6.26"/> <polygon class="cls-1" points="4196.06 23.9 4197.68 23.9 4197.68 13.9 4196.06 11.45 4196.06 23.9"/> <polygon class="cls-1" points="4220.32 23.9 4221.98 23.9 4221.98 11.45 4220.32 13.9 4220.32 23.9"/> <path class="cls-1" d="M4235.19,1.55V0c-4.89.4-7.84,3-7.84,6.91v.76H4229V6.91C4229,3.89,4231.31,1.94,4235.19,1.55Z"/> <path class="cls-1" d="M4238.15,0V1.55c3.6.36,5.76,2.05,5.76,4.64v.36c0,1.73-1,2.85-4.29,4.72-3.09,1.76-4.07,3.13-4.07,5.76v1.44h1.59V17c0-2.05.86-3.17,3.81-4.83,3.42-1.94,4.68-3.45,4.68-5.61V6.16C4245.63,2.81,4242.65.43,4238.15,0Z"/> <path class="cls-1" d="M4236.35,24.3a1.28,1.28,0,1,0,0-2.56,1.28,1.28,0,1,0,0,2.56Z"/> </g> </g> </svg>