<?xml version="1.0" encoding="UTF-8"?>
<svg xmlns="http://www.w3.org/2000/svg" viewBox="0 0 4603.62 16.11"> <defs> <style>.cls-1{fill:#fff;}</style> </defs> <g id="Слой_2" data-name="Слой 2"> <g id="Слой_1-2" data-name="Слой 1"> <path class="cls-1" d="M1549.46,3.49V5.28H1543V14h-2V3.49ZM1561.83,14h-2V5.28l-5,0-.07,4.41a5.15,5.15,0,0,1-.88,3.23,3.07,3.07,0,0,1-2.57,1h-.77V12.19h.4A2.3,2.3,0,0,0,1552,12a1.44,1.44,0,0,0,.59-.81,5.46,5.46,0,0,0,.21-1.59l.09-6.06h8.91Zm15-.3V14h-2l-1.09-2.4h-5.57l-1.09,2.4h-2v-.3l4.8-10.19h2.21Zm-3.95-3.89-2-4.29-2,4.29Zm15.88-1.2a2.63,2.63,0,0,1,1.15.9,2.28,2.28,0,0,1,.4,1.34V11a2.63,2.63,0,0,1-.48,1.57,3.06,3.06,0,0,1-1.33,1,5.24,5.24,0,0,1-2,.36h-6.44V3.49h6.12a4.69,4.69,0,0,1,2.8.72,2.27,2.27,0,0,1,1,2v.17A2.46,2.46,0,0,1,1588.79,8.59Zm-6.72-3.31V7.79h4.11a2.38,2.38,0,0,0,1.34-.29,1,1,0,0,0,.45-.88V6.45a1,1,0,0,0-.46-.87,2.39,2.39,0,0,0-1.32-.3Zm6.24,5.49a1,1,0,0,0-.45-.88,2.51,2.51,0,0,0-1.38-.31h-4.41v2.61h4.41a2.37,2.37,0,0,0,1.35-.32,1.06,1.06,0,0,0,.48-.93Zm7.92-7.28V7.84h6.38V3.49h2V14h-2V9.63h-6.38V14h-2V3.49Zm23.41,10.19V14h-2l-1.09-2.4H1611l-1.08,2.4h-2v-.3l4.8-10.19h2.21Zm-4-3.89-2-4.29-2,4.29ZM1633,3.49V14h-2V10.13h-2.24L1625,14h-2.4v-.3l3.47-3.57a4,4,0,0,1-2.57-.93,2.92,2.92,0,0,1-1-2.27V6.74a2.91,2.91,0,0,1,1-2.37,4.34,4.34,0,0,1,2.87-.88Zm-2,1.79h-4.52a2.33,2.33,0,0,0-1.42.38,1.28,1.28,0,0,0-.5,1.08v.17a1.31,1.31,0,0,0,.5,1.09,2.33,2.33,0,0,0,1.42.37H1631ZM1656,3.79l-4.7,4.82,4.51,5.07V14h-2.34l-4-4.43h-2.08V14h-2V3.49h2V7.76h2.06l4.14-4.27H1656Zm8.61,10.39a7.51,7.51,0,0,1-3.25-.66,5,5,0,0,1-2.13-1.86,5.27,5.27,0,0,1-.75-2.83V8.66a5.3,5.3,0,0,1,.75-2.84A4.92,4.92,0,0,1,1661.35,4a7.45,7.45,0,0,1,3.23-.65,7.38,7.38,0,0,1,3.22.65,5,5,0,0,1,2.14,1.87,5.3,5.3,0,0,1,.75,2.84v.17a5.27,5.27,0,0,1-.75,2.83,5,5,0,0,1-2.13,1.86A7.39,7.39,0,0,1,1664.58,14.18Zm0-1.86a4.53,4.53,0,0,0,3-.9,3.18,3.18,0,0,0,1.07-2.56V8.64a3.19,3.19,0,0,0-1.07-2.56,5.35,5.35,0,0,0-6,0,3.17,3.17,0,0,0-1.08,2.56v.22a3.15,3.15,0,0,0,1.08,2.56A4.55,4.55,0,0,0,1664.58,12.32Zm12-8.83V7.84h6.38V3.49h2V14h-2V9.63h-6.38V14h-2V3.49Zm22.82.88a6.06,6.06,0,0,1,3.9,1.13,3.88,3.88,0,0,1,1.39,3.19V8.8a3.83,3.83,0,0,1-1.39,3.17,6.08,6.08,0,0,1-3.9,1.12h-1.7v1.09h-2V13.09h-1.73A6.08,6.08,0,0,1,1690,12a3.85,3.85,0,0,1-1.38-3.17V8.69A3.88,3.88,0,0,1,1690,5.5a6,6,0,0,1,3.9-1.13h1.73V3.3h2V4.37Zm-8.67,4.46a2.2,2.2,0,0,0,.76,1.87,4.11,4.11,0,0,0,2.48.6h1.73V6.16h-1.73a4,4,0,0,0-2.46.61,2.25,2.25,0,0,0-.78,1.9Zm11.93-.16a2.22,2.22,0,0,0-.8-1.89,4,4,0,0,0-2.46-.62h-1.7V11.3h1.7a4.09,4.09,0,0,0,2.48-.6,2.18,2.18,0,0,0,.78-1.87Zm14.89-5.18V5.28h-7.13V7.82h6.81v1.8h-6.81v2.57h7.13V14h-9.13V3.49Zm10.59,0a4.26,4.26,0,0,1,2.85.88,2.89,2.89,0,0,1,1,2.37v.17a3,3,0,0,1-1,2.39,4.37,4.37,0,0,1-2.85.86h-4.56V14h-2V3.49Zm0,4.88a2.34,2.34,0,0,0,1.43-.37,1.3,1.3,0,0,0,.49-1.09V6.74a1.27,1.27,0,0,0-.49-1.08,2.34,2.34,0,0,0-1.43-.38h-4.51V8.37Zm16.82-4.88V5.28h-7.14V7.82h6.82v1.8h-6.82v2.57h7.14V14h-9.14V3.49Zm6,0V7.84h6.38V3.49h2V14h-2V9.63h-6.38V14h-2V3.49Zm24.4,8.7v3.92h-2V14h-9.69V3.49h2v8.7h6.06V3.49h2v8.7Zm5.5-8.7v7.77l6.38-7.77h2V14h-2V6.21L1780.81,14h-2V3.49Zm22.88,0V14h-2V10.13h-2.24L1795.68,14h-2.4v-.3l3.47-3.57a4,4,0,0,1-2.58-.93,3,3,0,0,1-.94-2.27V6.74a2.91,2.91,0,0,1,1-2.37,4.31,4.31,0,0,1,2.86-.88Zm-2,1.79h-4.51a2.31,2.31,0,0,0-1.42.38,1.28,1.28,0,0,0-.5,1.08v.17a1.31,1.31,0,0,0,.5,1.09,2.31,2.31,0,0,0,1.42.37h4.51Zm24.39-1.79V14h-2V5.28H1818V14h-2V3.49Zm10,10.69a7.51,7.51,0,0,1-3.25-.66,5.09,5.09,0,0,1-2.13-1.86,5.27,5.27,0,0,1-.75-2.83V8.66a5.3,5.3,0,0,1,.75-2.84A5,5,0,0,1,1832.83,4a7.45,7.45,0,0,1,3.23-.65,7.38,7.38,0,0,1,3.22.65,5,5,0,0,1,2.14,1.87,5.3,5.3,0,0,1,.75,2.84v.17a5.27,5.27,0,0,1-.75,2.83,5,5,0,0,1-2.13,1.86A7.36,7.36,0,0,1,1836.06,14.18Zm0-1.86a4.53,4.53,0,0,0,3-.9,3.18,3.18,0,0,0,1.07-2.56V8.64a3.19,3.19,0,0,0-1.07-2.56,5.35,5.35,0,0,0-6,0A3.17,3.17,0,0,0,1832,8.64v.22a3.15,3.15,0,0,0,1.08,2.56A4.55,4.55,0,0,0,1836.06,12.32Zm20-8.83V7.84h6.39V3.49h2V14h-2V9.63H1856V14h-2V3.49Zm18.38,10.69a7.51,7.51,0,0,1-3.25-.66,5,5,0,0,1-2.13-1.86,5.27,5.27,0,0,1-.75-2.83V8.66a5.3,5.3,0,0,1,.75-2.84A4.92,4.92,0,0,1,1871.18,4a7.42,7.42,0,0,1,3.23-.65,7.33,7.33,0,0,1,3.21.65,4.92,4.92,0,0,1,2.15,1.87,5.3,5.3,0,0,1,.75,2.84v.17a5.27,5.27,0,0,1-.75,2.83,5,5,0,0,1-2.13,1.86A7.42,7.42,0,0,1,1874.41,14.18Zm0-1.86a4.53,4.53,0,0,0,3-.9,3.18,3.18,0,0,0,1.07-2.56V8.64a3.19,3.19,0,0,0-1.07-2.56,4.43,4.43,0,0,0-3-.93,4.5,4.5,0,0,0-3,.93,3.19,3.19,0,0,0-1.07,2.56v.22a3.18,3.18,0,0,0,1.07,2.56A4.6,4.6,0,0,0,1874.41,12.32Zm18.68-3.73a2.6,2.6,0,0,1,1.16.9,2.28,2.28,0,0,1,.4,1.34V11a2.63,2.63,0,0,1-.48,1.57,3.12,3.12,0,0,1-1.33,1,5.24,5.24,0,0,1-2,.36h-6.45V3.49h6.13a4.69,4.69,0,0,1,2.8.72,2.3,2.3,0,0,1,1,2v.17A2.45,2.45,0,0,1,1893.09,8.59Zm-6.72-3.31V7.79h4.12a2.4,2.4,0,0,0,1.34-.29,1,1,0,0,0,.45-.88V6.45a1,1,0,0,0-.47-.87,2.33,2.33,0,0,0-1.31-.3Zm6.24,5.49a1,1,0,0,0-.44-.88,2.51,2.51,0,0,0-1.38-.31h-4.42v2.61h4.42a2.33,2.33,0,0,0,1.34-.32,1.06,1.06,0,0,0,.48-.93Zm8-7.28V7.33h4.31a4.38,4.38,0,0,1,2.86.86,2.94,2.94,0,0,1,1,2.37v.21a2.91,2.91,0,0,1-1,2.37,4.43,4.43,0,0,1-2.86.84h-6.31V3.49Zm11.36,0V14h-2V3.49Zm-7.1,8.7a2.32,2.32,0,0,0,1.41-.37,1.2,1.2,0,0,0,.51-1.05v-.21a1.23,1.23,0,0,0-.51-1.06,2.38,2.38,0,0,0-1.41-.38h-4.26v3.07ZM1930.08,14h-2V6.13L1924.24,14h-2.06l-3.86-7.88V14h-2V3.49h2.82l4.06,8.24,4-8.24h2.81Zm9.92-8.7V3.49h10.64V5.28h-4.32V14h-2V5.28Zm23-1.79V5.28h-7.14V7.82h6.82v1.8h-6.82v2.57H1963V14h-9.14V3.49Zm14.9.3-4.24,5,4.24,4.94V14h-2.36l-3.32-3.92L1968.85,14h-2.37v-.3l4.24-4.94-4.24-4.95v-.3h2.37l3.32,3.92,3.33-3.92h2.35Zm5.83-.3V7.84h6.39V3.49h2V14h-2V9.63h-6.39V14h-2V3.49Zm18.38,10.69a7.51,7.51,0,0,1-3.25-.66,5,5,0,0,1-2.13-1.86,5.27,5.27,0,0,1-.75-2.83V8.66a5.3,5.3,0,0,1,.75-2.84A4.92,4.92,0,0,1,1998.83,4a7.42,7.42,0,0,1,3.23-.65,7.33,7.33,0,0,1,3.21.65,4.92,4.92,0,0,1,2.15,1.87,5.3,5.3,0,0,1,.75,2.84v.17a5.27,5.27,0,0,1-.75,2.83,5,5,0,0,1-2.13,1.86A7.42,7.42,0,0,1,2002.06,14.18Zm0-1.86a4.53,4.53,0,0,0,3-.9,3.18,3.18,0,0,0,1.07-2.56V8.64a3.19,3.19,0,0,0-1.07-2.56,4.43,4.43,0,0,0-3-.93,4.5,4.5,0,0,0-3,.93A3.19,3.19,0,0,0,1998,8.64v.22a3.18,3.18,0,0,0,1.07,2.56A4.6,4.6,0,0,0,2002.06,12.32ZM2021.79,14h-2V5.28l-5.06,0-.06,4.41a5.15,5.15,0,0,1-.88,3.23,3.07,3.07,0,0,1-2.58,1h-.76V12.19h.4A2.26,2.26,0,0,0,2012,12a1.36,1.36,0,0,0,.59-.81,5.46,5.46,0,0,0,.21-1.59l.1-6.06h8.91Zm10,.2a7.47,7.47,0,0,1-3.24-.66,5,5,0,0,1-2.13-1.86,5.27,5.27,0,0,1-.75-2.83V8.66a5.3,5.3,0,0,1,.75-2.84A4.9,4.9,0,0,1,2028.54,4a7.48,7.48,0,0,1,3.23-.65A7.38,7.38,0,0,1,2035,4a4.9,4.9,0,0,1,2.14,1.87,5.31,5.31,0,0,1,.76,2.84v.17a5.27,5.27,0,0,1-.76,2.83,5,5,0,0,1-2.12,1.86A7.44,7.44,0,0,1,2031.77,14.18Zm0-1.86a4.51,4.51,0,0,0,3-.9,3.15,3.15,0,0,0,1.07-2.56V8.64a3.16,3.16,0,0,0-1.07-2.56,4.41,4.41,0,0,0-3-.93,4.45,4.45,0,0,0-3,.93,3.16,3.16,0,0,0-1.07,2.56v.22a3.15,3.15,0,0,0,1.07,2.56A4.55,4.55,0,0,0,2031.77,12.32Zm18.43-8.83V5.28h-6.46V14h-2V3.49Zm5.17,0v7.77l6.39-7.77h2V14h-2V6.21L2055.37,14h-2V3.49Zm22.89,0V14h-2V10.13H2074L2070.24,14h-2.4v-.3l3.47-3.57a4,4,0,0,1-2.57-.93,2.92,2.92,0,0,1-.95-2.27V6.74a2.91,2.91,0,0,1,1-2.37,4.34,4.34,0,0,1,2.87-.88Zm-2,1.79h-4.51a2.34,2.34,0,0,0-1.43.38,1.27,1.27,0,0,0-.49,1.08v.17a1.3,1.3,0,0,0,.49,1.09,2.34,2.34,0,0,0,1.43.37h4.51Zm20.06,8.7h-2V6.13L2090.48,14h-2.07l-3.85-7.88V14h-2V3.49h2.82l4.06,8.24,4.05-8.24h2.82Zm21-5.39a2.63,2.63,0,0,1,1.15.9,2.22,2.22,0,0,1,.4,1.34V11a2.63,2.63,0,0,1-.48,1.57,3.06,3.06,0,0,1-1.33,1,5.24,5.24,0,0,1-2,.36h-6.44V3.49h6.12a4.69,4.69,0,0,1,2.8.72,2.27,2.27,0,0,1,1,2v.17A2.46,2.46,0,0,1,2117.37,8.59Zm-6.72-3.31V7.79h4.11a2.38,2.38,0,0,0,1.34-.29,1,1,0,0,0,.45-.88V6.45a1,1,0,0,0-.46-.87,2.39,2.39,0,0,0-1.32-.3Zm6.24,5.49a1,1,0,0,0-.45-.88,2.51,2.51,0,0,0-1.38-.31h-4.41v2.61h4.41a2.37,2.37,0,0,0,1.35-.32,1.06,1.06,0,0,0,.48-.93Zm19.59,3.41a7.51,7.51,0,0,1-3.25-.66,5,5,0,0,1-2.13-1.86,5.27,5.27,0,0,1-.75-2.83V8.66a5.3,5.3,0,0,1,.75-2.84A4.92,4.92,0,0,1,2133.25,4a7.45,7.45,0,0,1,3.23-.65,7.38,7.38,0,0,1,3.22.65,5,5,0,0,1,2.14,1.87,5.3,5.3,0,0,1,.75,2.84v.17a5.27,5.27,0,0,1-.75,2.83,5,5,0,0,1-2.13,1.86A7.39,7.39,0,0,1,2136.48,14.18Zm0-1.86a4.53,4.53,0,0,0,3-.9,3.18,3.18,0,0,0,1.07-2.56V8.64a3.19,3.19,0,0,0-1.07-2.56,5.35,5.35,0,0,0-6,0,3.17,3.17,0,0,0-1.08,2.56v.22a3.15,3.15,0,0,0,1.08,2.56A4.55,4.55,0,0,0,2136.48,12.32Zm19.44-8.83V5.28h-7.47v2.4h4.38a4.55,4.55,0,0,1,2.88.8,2.67,2.67,0,0,1,1,2.26v.19a2.69,2.69,0,0,1-1,2.25,4.53,4.53,0,0,1-2.88.8h-6.38V3.49Zm-3.12,8.7a2.58,2.58,0,0,0,1.41-.33,1.07,1.07,0,0,0,.51-.93v-.19a1,1,0,0,0-.51-.93,2.49,2.49,0,0,0-1.41-.34h-4.35v2.72Zm14.37-8.7a4.28,4.28,0,0,1,2.85.88,2.89,2.89,0,0,1,1.05,2.37v.17A3,3,0,0,1,2170,9.3a4.38,4.38,0,0,1-2.85.86h-4.56V14h-2V3.49Zm-.05,4.88a2.36,2.36,0,0,0,1.43-.37,1.3,1.3,0,0,0,.49-1.09V6.74a1.27,1.27,0,0,0-.49-1.08,2.36,2.36,0,0,0-1.43-.38h-4.51V8.37Zm17,5.31V14h-2l-1.08-2.4h-5.57l-1.09,2.4h-2v-.3l4.8-10.19h2.21Zm-4-3.89-2-4.29-1.95,4.29Zm16.28-1.15a2.83,2.83,0,0,1,1.17.88,1.91,1.91,0,0,1,.42,1.23v.19a2.63,2.63,0,0,1-1.48,2.39,8.35,8.35,0,0,1-4.12.85,7.68,7.68,0,0,1-4.5-1.12,3.83,3.83,0,0,1-1.55-3.28V9.66h2v.12a2.13,2.13,0,0,0,1,1.93,6.07,6.07,0,0,0,3.1.61,7.68,7.68,0,0,0,2.68-.34,1.16,1.16,0,0,0,.84-1.1v-.16a.81.81,0,0,0-.28-.66,1.78,1.78,0,0,0-.92-.33,10.38,10.38,0,0,0-1.79-.11h-2.62V7.82h2.53a6.54,6.54,0,0,0,2.19-.25.93.93,0,0,0,.64-.91V6.5c0-.9-1.15-1.35-3.46-1.35a5.26,5.26,0,0,0-2.89.64,2.16,2.16,0,0,0-.93,1.92v.11h-2V7.71a3.83,3.83,0,0,1,1.52-3.26,7.11,7.11,0,0,1,4.35-1.15,8,8,0,0,1,4,.83,2.51,2.51,0,0,1,1.44,2.27v.19a2.15,2.15,0,0,1-.34,1.19A2.56,2.56,0,0,1,2196.41,8.64Zm10.85,5.54a7.51,7.51,0,0,1-3.25-.66,5.09,5.09,0,0,1-2.13-1.86,5.27,5.27,0,0,1-.75-2.83V8.66a5.3,5.3,0,0,1,.75-2.84A5,5,0,0,1,2204,4a7.45,7.45,0,0,1,3.23-.65,7.38,7.38,0,0,1,3.22.65,5,5,0,0,1,2.14,1.87,5.3,5.3,0,0,1,.75,2.84v.17a5.27,5.27,0,0,1-.75,2.83,5,5,0,0,1-2.13,1.86A7.36,7.36,0,0,1,2207.26,14.18Zm0-1.86a4.53,4.53,0,0,0,3-.9,3.18,3.18,0,0,0,1.07-2.56V8.64a3.19,3.19,0,0,0-1.07-2.56,5.35,5.35,0,0,0-6,0,3.17,3.17,0,0,0-1.08,2.56v.22a3.15,3.15,0,0,0,1.08,2.56A4.55,4.55,0,0,0,2207.26,12.32ZM2226,8.59a2.63,2.63,0,0,1,1.15.9,2.22,2.22,0,0,1,.4,1.34V11a2.63,2.63,0,0,1-.48,1.57,3.06,3.06,0,0,1-1.33,1,5.19,5.19,0,0,1-2,.36h-6.45V3.49h6.13a4.73,4.73,0,0,1,2.8.72,2.29,2.29,0,0,1,1,2v.17A2.46,2.46,0,0,1,2226,8.59Zm-6.72-3.31V7.79h4.11a2.36,2.36,0,0,0,1.34-.29,1,1,0,0,0,.45-.88V6.45a1,1,0,0,0-.46-.87,2.37,2.37,0,0,0-1.31-.3Zm6.24,5.49a1,1,0,0,0-.45-.88,2.51,2.51,0,0,0-1.38-.31h-4.41v2.61h4.41a2.37,2.37,0,0,0,1.35-.32,1.06,1.06,0,0,0,.48-.93Zm16.08,2.91V14h-2l-1.09-2.4h-5.57l-1.09,2.4h-2v-.3l4.8-10.19h2.21Zm-4-3.89-2-4.29-1.95,4.29Zm9.16-6.3V7.84h6.38V3.49h2V14h-2V9.63h-6.38V14h-2V3.49Zm14.71,0v7.77l6.38-7.77h2V14h-2V6.21L2261.47,14h-2V3.49Zm14.7,0v7.77l6.39-7.77h2V14h-2V6.21L2276.17,14h-2V3.49Zm32.69,8.7v3.92h-2V14h-9v2.13h-2V12.19h1.34a6.72,6.72,0,0,0,1-3.63l.08-5.07h9v8.7ZM2300,8.62a7.65,7.65,0,0,1-.82,3.57h6V5.28h-5.15ZM2322.35,14h-2V5.28l-5.06,0-.06,4.41a5.21,5.21,0,0,1-.88,3.23,3.09,3.09,0,0,1-2.58,1H2311V12.19h.4a2.26,2.26,0,0,0,1.13-.24,1.36,1.36,0,0,0,.59-.81,5.46,5.46,0,0,0,.21-1.59l.1-6.06h8.91Zm14.49-10.49V14h-2V10.13h-2.24L2328.83,14h-2.4v-.3l3.47-3.57a4,4,0,0,1-2.58-.93,3,3,0,0,1-.94-2.27V6.74a2.91,2.91,0,0,1,1-2.37,4.31,4.31,0,0,1,2.86-.88Zm-2,1.79h-4.51a2.31,2.31,0,0,0-1.42.38,1.28,1.28,0,0,0-.5,1.08v.17a1.31,1.31,0,0,0,.5,1.09,2.31,2.31,0,0,0,1.42.37h4.51Zm16.33-1.79v7.77l6.38-7.77h2V14h-2V6.21L2351.17,14h-2V3.49Zm21.17,0V5.28h-6.47V14h-2V3.49Zm9.73,0a4.23,4.23,0,0,1,2.84.88A2.87,2.87,0,0,1,2386,6.74v.17a3,3,0,0,1-1.06,2.39,4.34,4.34,0,0,1-2.84.86h-4.56V14h-2V3.49ZM2382,8.37a2.31,2.31,0,0,0,1.42-.37,1.31,1.31,0,0,0,.5-1.09V6.74a1.28,1.28,0,0,0-.5-1.08,2.31,2.31,0,0,0-1.42-.38h-4.51V8.37Zm13.34,5.81a7.47,7.47,0,0,1-3.24-.66,5,5,0,0,1-2.13-1.86,5.27,5.27,0,0,1-.75-2.83V8.66a5.3,5.3,0,0,1,.75-2.84A4.9,4.9,0,0,1,2392.13,4a7.48,7.48,0,0,1,3.23-.65,7.38,7.38,0,0,1,3.22.65,4.9,4.9,0,0,1,2.14,1.87,5.22,5.22,0,0,1,.76,2.84v.17a5.19,5.19,0,0,1-.76,2.83,5,5,0,0,1-2.12,1.86A7.44,7.44,0,0,1,2395.36,14.18Zm0-1.86a4.49,4.49,0,0,0,3-.9,3.15,3.15,0,0,0,1.07-2.56V8.64a3.16,3.16,0,0,0-1.07-2.56,4.39,4.39,0,0,0-3-.93,4.45,4.45,0,0,0-3,.93,3.19,3.19,0,0,0-1.07,2.56v.22a3.18,3.18,0,0,0,1.07,2.56A4.55,4.55,0,0,0,2395.36,12.32ZM2416,3.79l-4.71,4.82,4.51,5.07V14h-2.33l-4-4.43h-2.08V14h-2V3.49h2V7.76h2.07l4.14-4.27H2416Zm8.6,10.39a7.47,7.47,0,0,1-3.24-.66,5,5,0,0,1-2.13-1.86,5.27,5.27,0,0,1-.75-2.83V8.66a5.3,5.3,0,0,1,.75-2.84A4.9,4.9,0,0,1,2421.33,4a7.48,7.48,0,0,1,3.23-.65,7.38,7.38,0,0,1,3.22.65,4.9,4.9,0,0,1,2.14,1.87,5.22,5.22,0,0,1,.76,2.84v.17a5.19,5.19,0,0,1-.76,2.83,5,5,0,0,1-2.12,1.86A7.44,7.44,0,0,1,2424.56,14.18Zm0-1.86a4.49,4.49,0,0,0,3-.9,3.15,3.15,0,0,0,1.07-2.56V8.64a3.16,3.16,0,0,0-1.07-2.56,4.39,4.39,0,0,0-3-.93,4.45,4.45,0,0,0-3,.93,3.19,3.19,0,0,0-1.07,2.56v.22a3.18,3.18,0,0,0,1.07,2.56A4.55,4.55,0,0,0,2424.56,12.32Zm18.69-3.73a2.57,2.57,0,0,1,1.15.9,2.22,2.22,0,0,1,.4,1.34V11a2.63,2.63,0,0,1-.48,1.57,3.09,3.09,0,0,1-1.32,1,5.24,5.24,0,0,1-2,.36h-6.45V3.49h6.13a4.71,4.71,0,0,1,2.8.72,2.3,2.3,0,0,1,1,2v.17A2.47,2.47,0,0,1,2443.25,8.59Zm-6.72-3.31V7.79h4.11A2.42,2.42,0,0,0,2442,7.5a1,1,0,0,0,.45-.88V6.45a1,1,0,0,0-.47-.87,2.35,2.35,0,0,0-1.31-.3Zm6.24,5.49a1,1,0,0,0-.45-.88,2.48,2.48,0,0,0-1.37-.31h-4.42v2.61H2441a2.35,2.35,0,0,0,1.34-.32,1.06,1.06,0,0,0,.48-.93Zm15.93-7.28v7.77l6.38-7.77h2V14h-2V6.21L2458.7,14h-2V3.49Zm14.71,0V7.84h6.38V3.49h2V14h-2V9.63h-6.38V14h-2V3.49Zm24.68,8.7v3.92h-2V14h-9v2.13h-2V12.19h1.34a6.72,6.72,0,0,0,1-3.63l.08-5.07h9v8.7Zm-8.85-3.57a7.78,7.78,0,0,1-.82,3.57h6V5.28h-5.15Zm22.56-5.13v.3l-4.39,8A4.68,4.68,0,0,1,2506,13.5a3.55,3.55,0,0,1-2,.48h-2.11V12.19H2504a2.44,2.44,0,0,0,.74-.09,1.17,1.17,0,0,0,.48-.36l-4.86-7.95v-.3h2.11l3.85,6.4,3.4-6.4Zm7.86,10.69a7.62,7.62,0,0,1-3.28-.66,5.05,5.05,0,0,1-2.18-1.86,5.18,5.18,0,0,1-.75-2.81V8.64a5.21,5.21,0,0,1,.75-2.82A5,5,0,0,1,2516.38,4a7.62,7.62,0,0,1,3.28-.65,7.89,7.89,0,0,1,3.07.57,5,5,0,0,1,2.14,1.57,3.6,3.6,0,0,1,.79,2.26v.12h-2V7.7a1.91,1.91,0,0,0-.51-1.3,3.14,3.14,0,0,0-1.41-.91,5.71,5.71,0,0,0-2-.34,4.76,4.76,0,0,0-3.11.9,3.16,3.16,0,0,0-1.07,2.56v.27a3.16,3.16,0,0,0,1.07,2.56,4.78,4.78,0,0,0,3.11.88,6.23,6.23,0,0,0,2.06-.32,3.13,3.13,0,0,0,1.41-.9,1.94,1.94,0,0,0,.49-1.31V9.66h2v.13a3.62,3.62,0,0,1-.79,2.26,5.18,5.18,0,0,1-2.14,1.57A8.07,8.07,0,0,1,2519.66,14.18Zm8.22-8.9V3.49h10.64V5.28h-4.32V14h-2V5.28Zm20.37-1.79a4.23,4.23,0,0,1,2.84.88,2.87,2.87,0,0,1,1.06,2.37v.17a3,3,0,0,1-1.06,2.39,4.34,4.34,0,0,1-2.84.86h-4.56V14h-2V3.49Zm-.05,4.88a2.31,2.31,0,0,0,1.42-.37,1.31,1.31,0,0,0,.5-1.09V6.74a1.28,1.28,0,0,0-.5-1.08,2.31,2.31,0,0,0-1.42-.38h-4.51V8.37Zm9.68-4.88v7.77l6.38-7.77h2V14h-2V6.21L2557.88,14h-2V3.49Zm14.71,0v7.77L2579,3.49h2V14h-2V6.21L2572.59,14h-2V3.49Zm22.71,0v7.77l6.39-7.77h2V14h-2V6.21L2595.3,14h-2V3.49Zm27.28,0a4.24,4.24,0,0,1,2.85.88,2.89,2.89,0,0,1,1.05,2.37v.17a3,3,0,0,1-1.05,2.39,4.35,4.35,0,0,1-2.85.86H2618V14h-2V3.49Zm0,4.88A2.34,2.34,0,0,0,2624,8a1.3,1.3,0,0,0,.49-1.09V6.74a1.27,1.27,0,0,0-.49-1.08,2.34,2.34,0,0,0-1.43-.38H2618V8.37Zm13.35,5.81a7.51,7.51,0,0,1-3.25-.66,5,5,0,0,1-2.13-1.86,5.27,5.27,0,0,1-.75-2.83V8.66a5.3,5.3,0,0,1,.75-2.84A4.92,4.92,0,0,1,2632.65,4a7.42,7.42,0,0,1,3.23-.65,7.33,7.33,0,0,1,3.21.65,4.92,4.92,0,0,1,2.15,1.87,5.3,5.3,0,0,1,.75,2.84v.17a5.27,5.27,0,0,1-.75,2.83,5,5,0,0,1-2.13,1.86A7.39,7.39,0,0,1,2635.88,14.18Zm0-1.86a4.53,4.53,0,0,0,3-.9A3.18,3.18,0,0,0,2640,8.86V8.64a3.19,3.19,0,0,0-1.07-2.56,4.43,4.43,0,0,0-3-.93,4.5,4.5,0,0,0-3,.93,3.19,3.19,0,0,0-1.07,2.56v.22a3.18,3.18,0,0,0,1.07,2.56A4.6,4.6,0,0,0,2635.88,12.32Zm21.31-.13v3.92h-2V14h-9v2.13h-2V12.19h1.34a6.72,6.72,0,0,0,1-3.63l.08-5.07h9v8.7Zm-8.85-3.57a7.65,7.65,0,0,1-.82,3.57h6.05V5.28h-5.15Zm14.36-5.13v7.77l6.38-7.77h2V14h-2V6.21L2662.7,14h-2V3.49Zm11.55,1.79V3.49h10.64V5.28h-4.32V14h-2V5.28Zm22.95-1.79V5.28h-7.13V7.82h6.81v1.8h-6.81v2.57h7.13V14h-9.13V3.49Zm14,10.49h-2V5.28l-5.05,0-.07,4.41a5.15,5.15,0,0,1-.88,3.23,3.07,3.07,0,0,1-2.57,1h-.77V12.19h.4a2.3,2.3,0,0,0,1.14-.24,1.44,1.44,0,0,0,.59-.81,5.46,5.46,0,0,0,.21-1.59l.09-6.06h8.91Zm13.46-10.49V5.28h-7.14V7.82h6.82v1.8h-6.82v2.57h7.14V14h-9.14V3.49Zm6,0v7.77l6.38-7.77h2V14h-2V6.21L2730.7,14h-2V3.49Zm3.2-1a4.57,4.57,0,0,1-2.58-.61,2,2,0,0,1-.88-1.78V0h1.78V.11a.63.63,0,0,0,.43.58,3.22,3.22,0,0,0,1.25.19,2.77,2.77,0,0,0,1.16-.19.64.64,0,0,0,.42-.58V0h1.87V.11a2,2,0,0,1-.88,1.78A4.49,4.49,0,0,1,2733.9,2.5Z"/> <path class="cls-1" d="M2808,3.49V5.28h-7.14V7.82h6.82v1.8h-6.82v2.57H2808V14h-9.14V3.49Zm9.09,0a6.47,6.47,0,0,1,4.39,1.31,4.82,4.82,0,0,1,1.5,3.84v.21a4.84,4.84,0,0,1-1.5,3.84,6.52,6.52,0,0,1-4.39,1.29h-5.07V3.49Zm0,8.7a4.37,4.37,0,0,0,2.9-.81,3.11,3.11,0,0,0,1-2.5V8.62q0-3.34-3.87-3.34h-3.06v6.91Zm15.5,2a7.62,7.62,0,0,1-3.28-.66,5.05,5.05,0,0,1-2.18-1.86,5.18,5.18,0,0,1-.75-2.81V8.64a5.21,5.21,0,0,1,.75-2.82A5,5,0,0,1,2829.35,4a7.62,7.62,0,0,1,3.28-.65,7.89,7.89,0,0,1,3.07.57,5.07,5.07,0,0,1,2.14,1.57,3.6,3.6,0,0,1,.79,2.26v.12h-2V7.7a1.91,1.91,0,0,0-.51-1.3,3.14,3.14,0,0,0-1.41-.91,5.71,5.71,0,0,0-2-.34,4.76,4.76,0,0,0-3.11.9,3.16,3.16,0,0,0-1.07,2.56v.27a3.16,3.16,0,0,0,1.07,2.56,4.78,4.78,0,0,0,3.11.88,6.23,6.23,0,0,0,2.06-.32,3.13,3.13,0,0,0,1.41-.9,1.94,1.94,0,0,0,.49-1.31V9.66h2v.13a3.62,3.62,0,0,1-.79,2.26,5.24,5.24,0,0,1-2.14,1.57A8.07,8.07,0,0,1,2832.63,14.18ZM2852.93,7a2.87,2.87,0,0,1-.85,2.13,3.8,3.8,0,0,1-2.37,1l3.17,3.57V14h-2.3l-3.43-3.84h-2.68V14h-2V3.49H2849a4.28,4.28,0,0,1,2.86.89,3,3,0,0,1,1,2.42Zm-2-.27a1.25,1.25,0,0,0-.5-1.06,2.31,2.31,0,0,0-1.42-.38h-4.51V8.37H2849A2.31,2.31,0,0,0,2850.4,8a1.31,1.31,0,0,0,.5-1.09Zm11,7.46a5.84,5.84,0,0,1-2.7-.6,4.36,4.36,0,0,1-1.79-1.69,4.88,4.88,0,0,1-.64-2.53V3.49h2v5.9a2.86,2.86,0,0,0,.81,2.16,3.88,3.88,0,0,0,4.64,0,2.8,2.8,0,0,0,.83-2.16V3.49h2V9.36a4.88,4.88,0,0,1-.64,2.53,4.39,4.39,0,0,1-1.8,1.69A5.85,5.85,0,0,1,2861.93,14.18Zm19.7-10.69V14h-2l-6.46-7.69V14h-2V3.49h2l6.47,7.68V3.49Zm10.07,10.69a7.65,7.65,0,0,1-3.28-.66,5.05,5.05,0,0,1-2.18-1.86,5.18,5.18,0,0,1-.75-2.81V8.64a5.21,5.21,0,0,1,.75-2.82A5,5,0,0,1,2888.42,4a7.65,7.65,0,0,1,3.28-.65,7.89,7.89,0,0,1,3.07.57,5,5,0,0,1,2.14,1.57,3.54,3.54,0,0,1,.79,2.26v.12h-2V7.7a1.92,1.92,0,0,0-.52-1.3,3.16,3.16,0,0,0-1.4-.91,5.8,5.8,0,0,0-2.05-.34,4.76,4.76,0,0,0-3.11.9,3.16,3.16,0,0,0-1.07,2.56v.27a3.16,3.16,0,0,0,1.07,2.56,4.78,4.78,0,0,0,3.11.88,6.19,6.19,0,0,0,2.06-.32,3.13,3.13,0,0,0,1.41-.9,2,2,0,0,0,.5-1.31V9.66h2v.13a3.56,3.56,0,0,1-.79,2.26,5.18,5.18,0,0,1-2.14,1.57A8.07,8.07,0,0,1,2891.7,14.18Zm11.84-10.69V7.84h6.38V3.49h2V14h-2V9.63h-6.38V14h-2V3.49Zm22.71,0v8.7h7.43V14h-9.43V3.49Zm12.62,0V14h-2V3.49Zm15.05,0v.3L2949.17,14h-2.3l-4.76-10.19v-.3h2l3.87,8.57,3.87-8.57Zm12.35,0V5.28h-7.14V7.82H2966v1.8h-6.82v2.57h7.14V14h-9.14V3.49Zm13.77,8.7V14h-9.91v-1.6l4.8-2.73c.84-.48,1.44-.86,1.81-1.12a2.74,2.74,0,0,0,.77-.75,1.65,1.65,0,0,0,.21-.85V6.77a1.33,1.33,0,0,0-.71-1.2,4,4,0,0,0-2-.42,3.86,3.86,0,0,0-2.08.47,1.46,1.46,0,0,0-.7,1.34v.32h-2V6.94a3.22,3.22,0,0,1,1.21-2.7,5.71,5.71,0,0,1,3.52-.94,5.88,5.88,0,0,1,3.51.91,2.89,2.89,0,0,1,1.28,2.49v.16a3.26,3.26,0,0,1-.32,1.48,4.05,4.05,0,0,1-1.12,1.24,17.08,17.08,0,0,1-2.31,1.49l-2,1.12Zm9.13,2a6.69,6.69,0,0,1-2.91-.6,4.7,4.7,0,0,1-2-1.64,4.48,4.48,0,0,1-.69-2.47V8a4.48,4.48,0,0,1,.69-2.47,4.67,4.67,0,0,1,2-1.66,6.69,6.69,0,0,1,2.91-.59,6.56,6.56,0,0,1,2.88.59A4.38,4.38,0,0,1,2994.69,8V9.47a4.38,4.38,0,0,1-2.62,4.13A6.91,6.91,0,0,1,2989.17,14.18Zm0-1.86a4.12,4.12,0,0,0,2.61-.74,2.49,2.49,0,0,0,.93-2.08V8a2.51,2.51,0,0,0-.95-2.08,4,4,0,0,0-2.6-.77,4.14,4.14,0,0,0-2.63.75,2.54,2.54,0,0,0-.94,2.1V9.5a2.5,2.5,0,0,0,.94,2.08A4.21,4.21,0,0,0,2989.17,12.32Zm19.22-.13V14h-9.9v-1.6l4.8-2.73c.83-.48,1.43-.86,1.81-1.12a2.89,2.89,0,0,0,.77-.75,1.75,1.75,0,0,0,.2-.85V6.77a1.32,1.32,0,0,0-.7-1.2,4,4,0,0,0-2-.42,3.84,3.84,0,0,0-2.08.47,1.47,1.47,0,0,0-.71,1.34v.32h-2V6.94a3.22,3.22,0,0,1,1.22-2.7,5.67,5.67,0,0,1,3.52-.94,5.87,5.87,0,0,1,3.5.91,2.86,2.86,0,0,1,1.28,2.49v.16a3.14,3.14,0,0,1-.32,1.48,3.81,3.81,0,0,1-1.12,1.24,17.52,17.52,0,0,1-2.3,1.49l-2,1.12Zm9.14,2a6.69,6.69,0,0,1-2.91-.6,4.64,4.64,0,0,1-2-1.64,4.48,4.48,0,0,1-.69-2.47V8a4.48,4.48,0,0,1,.69-2.47,4.61,4.61,0,0,1,2-1.66,6.69,6.69,0,0,1,2.91-.59,6.56,6.56,0,0,1,2.88.59,4.55,4.55,0,0,1,2,1.66,4.48,4.48,0,0,1,.69,2.47V9.47a4.37,4.37,0,0,1-2.63,4.13A6.87,6.87,0,0,1,3017.53,14.18Zm0-1.86a4.12,4.12,0,0,0,2.61-.74,2.51,2.51,0,0,0,.92-2.08V8a2.5,2.5,0,0,0-.94-2.08,4,4,0,0,0-2.61-.77,4.11,4.11,0,0,0-2.62.75,2.55,2.55,0,0,0-.95,2.1V9.5a2.51,2.51,0,0,0,.95,2.08A4.21,4.21,0,0,0,3017.53,12.32Z"/> <path class="cls-1" d="M2768.68,14.18h1.73V1.4h-1.73Zm-2.95-7.06V5.61l-5.4-2-.54,1.55Zm7.63,0,5.94-2-.54-1.55-5.4,2Zm-13,4.86,5.4-2V8.45l-5.94,2Zm18.43,0,.54-1.55-5.94-2V10Z"/> <path class="cls-1" d="M2768.68,14.18h-.25v.25h.25Zm1.73,0v.25h.25v-.25Zm0-12.78h.25V1.15h-.25Zm-1.73,0V1.15h-.25V1.4Zm-2.95,5.72-.08.24.33.11V7.12Zm0-1.51h.25V5.43l-.16-.06Zm-5.4-2,.09-.23-.24-.09-.09.24Zm-.54,1.55-.24-.08-.08.24.24.08Zm13.57,2h-.25v.35l.33-.11Zm5.94-2,.08.24.24-.08-.08-.24Zm-.54-1.55.24-.08-.09-.24-.24.09Zm-5.4,2-.09-.24-.16.06v.18Zm-13,6.37-.24.08.09.24.24-.09Zm5.4-2,.09.24.16-.06V10Zm0-1.51h.25V8.11l-.33.1Zm-5.94,2-.08-.24-.24.09.08.23Zm19,1.55-.09.23.24.09.09-.24Zm.54-1.55.24.08.08-.23-.24-.09Zm-5.94-2,.08-.24-.33-.1v.34Zm0,1.51h-.25v.18l.16.06Zm-4.68,4.47h1.73v-.5h-1.73Zm2-.25V1.4h-.5V14.18Zm-.25-13h-1.73v.5h1.73Zm-2,.25V14.18h.5V1.4ZM2766,7.12V5.61h-.5V7.12Zm-.16-1.75-5.4-2-.18.47,5.4,2Zm-5.73-1.86-.54,1.55.48.16.54-1.55Zm-.38,1.87,5.94,2,.16-.48-5.94-2Zm13.73,2,5.94-2-.16-.48-5.94,2Zm6.1-2.3L2779,3.51l-.47.16.54,1.55Zm-.87-1.7-5.4,2,.18.47,5.4-2Zm-5.56,2.25V7.12h.5V5.61Zm-12.69,6.6,5.4-2-.18-.47-5.4,2ZM2766,10V8.45h-.5V10Zm-.33-1.75-5.94,2,.16.48,5.94-2Zm-6.1,2.3.54,1.55.48-.16-.54-1.55ZM2779,12.06l.54-1.55-.47-.16-.54,1.55Zm.38-1.87-5.94-2-.16.48,5.94,2Zm-6.27-1.74V10h.5V8.45Zm.16,1.75,5.4,2,.18-.46-5.4-2Z"/> <path class="cls-1" d="M3051.68,14.18h1.73V1.4h-1.73Zm-2.95-7.06V5.61l-5.4-2-.54,1.55Zm7.63,0,5.94-2-.54-1.55-5.4,2Zm-13,4.86,5.4-2V8.45l-5.94,2Zm18.43,0,.54-1.55-5.94-2V10Z"/> <path class="cls-1" d="M3051.68,14.18h-.25v.25h.25Zm1.73,0v.25h.25v-.25Zm0-12.78h.25V1.15h-.25Zm-1.73,0V1.15h-.25V1.4Zm-2.95,5.72-.08.24.33.11V7.12Zm0-1.51h.25V5.43l-.16-.06Zm-5.4-2,.09-.23-.24-.09-.09.24Zm-.54,1.55-.24-.08-.08.24.24.08Zm13.57,2h-.25v.35l.33-.11Zm5.94-2,.08.24.24-.08-.08-.24Zm-.54-1.55.24-.08-.09-.24-.24.09Zm-5.4,2-.09-.24-.16.06v.18Zm-13,6.37-.24.08.09.24.24-.09Zm5.4-2,.09.24.16-.06V10Zm0-1.51h.25V8.11l-.33.1Zm-5.94,2-.08-.24-.24.09.08.23Zm19,1.55-.09.23.24.09.09-.24Zm.54-1.55.24.08.08-.23-.24-.09Zm-5.94-2,.08-.24-.33-.1v.34Zm0,1.51h-.25v.18l.16.06Zm-4.68,4.47h1.73v-.5h-1.73Zm2-.25V1.4h-.5V14.18Zm-.25-13h-1.73v.5h1.73Zm-2,.25V14.18h.5V1.4ZM3049,7.12V5.61h-.5V7.12Zm-.16-1.75-5.4-2-.18.47,5.4,2Zm-5.73-1.86-.54,1.55.48.16.54-1.55Zm-.38,1.87,5.94,2,.16-.48-5.94-2Zm13.73,2,5.94-2-.16-.48-5.94,2Zm6.1-2.3L3062,3.51l-.47.16.54,1.55Zm-.87-1.7-5.4,2,.18.47,5.4-2Zm-5.56,2.25V7.12h.5V5.61Zm-12.69,6.6,5.4-2-.18-.47-5.4,2ZM3049,10V8.45h-.5V10Zm-.33-1.75-5.94,2,.16.48,5.94-2Zm-6.1,2.3.54,1.55.48-.16-.54-1.55ZM3062,12.06l.54-1.55-.47-.16-.54,1.55Zm.38-1.87-5.94-2-.16.48,5.94,2Zm-6.27-1.74V10h.5V8.45Zm.16,1.75,5.4,2,.18-.46-5.4-2Z"/> <path class="cls-1" d="M8.46,3.49V5.28H2V14H0V3.49ZM20.83,14h-2V5.28l-5,0-.07,4.41a5.15,5.15,0,0,1-.88,3.23,3.07,3.07,0,0,1-2.57,1H9.49V12.19h.4A2.3,2.3,0,0,0,11,12a1.44,1.44,0,0,0,.59-.81,5.46,5.46,0,0,0,.21-1.59l.09-6.06h8.91Zm15-.3V14h-2l-1.09-2.4H27.17L26.08,14h-2v-.3l4.8-10.19h2.21ZM31.91,9.79,30,5.5,28,9.79Zm15.88-1.2a2.63,2.63,0,0,1,1.15.9,2.28,2.28,0,0,1,.4,1.34V11a2.63,2.63,0,0,1-.48,1.57,3.06,3.06,0,0,1-1.33,1,5.24,5.24,0,0,1-2,.36H39.07V3.49h6.12a4.69,4.69,0,0,1,2.8.72,2.27,2.27,0,0,1,1,2v.17A2.46,2.46,0,0,1,47.79,8.59ZM41.07,5.28V7.79h4.11a2.38,2.38,0,0,0,1.34-.29A1,1,0,0,0,47,6.62V6.45a1,1,0,0,0-.46-.87,2.39,2.39,0,0,0-1.32-.3Zm6.24,5.49a1,1,0,0,0-.45-.88,2.51,2.51,0,0,0-1.38-.31H41.07v2.61h4.41a2.37,2.37,0,0,0,1.35-.32,1.06,1.06,0,0,0,.48-.93Zm7.92-7.28V7.84h6.38V3.49h2V14h-2V9.63H55.23V14h-2V3.49ZM78.64,13.68V14h-2l-1.09-2.4H70L68.87,14h-2v-.3l4.8-10.19h2.21Zm-4-3.89-2-4.29L70.79,9.79ZM92,3.49V14H90V10.13H87.79L84,14h-2.4v-.3l3.47-3.57a4,4,0,0,1-2.57-.93,2.92,2.92,0,0,1-1-2.27V6.74a2.91,2.91,0,0,1,1-2.37,4.34,4.34,0,0,1,2.87-.88ZM90,5.28H85.51a2.33,2.33,0,0,0-1.42.38,1.28,1.28,0,0,0-.5,1.08v.17A1.31,1.31,0,0,0,84.09,8a2.33,2.33,0,0,0,1.42.37H90ZM115,3.79l-4.7,4.82,4.51,5.07V14h-2.34l-4-4.43h-2.08V14h-2V3.49h2V7.76h2.06l4.14-4.27H115Zm8.61,10.39a7.51,7.51,0,0,1-3.25-.66,5,5,0,0,1-2.13-1.86,5.27,5.27,0,0,1-.75-2.83V8.66a5.3,5.3,0,0,1,.75-2.84A4.92,4.92,0,0,1,120.35,4a7.45,7.45,0,0,1,3.23-.65A7.38,7.38,0,0,1,126.8,4a5,5,0,0,1,2.14,1.87,5.3,5.3,0,0,1,.75,2.84v.17a5.27,5.27,0,0,1-.75,2.83,5,5,0,0,1-2.13,1.86A7.39,7.39,0,0,1,123.58,14.18Zm0-1.86a4.53,4.53,0,0,0,3-.9,3.18,3.18,0,0,0,1.07-2.56V8.64a3.19,3.19,0,0,0-1.07-2.56,5.35,5.35,0,0,0-6,0,3.17,3.17,0,0,0-1.08,2.56v.22a3.15,3.15,0,0,0,1.08,2.56A4.55,4.55,0,0,0,123.58,12.32Zm12-8.83V7.84h6.38V3.49h2V14h-2V9.63h-6.38V14h-2V3.49Zm22.82.88a6.06,6.06,0,0,1,3.9,1.13,3.88,3.88,0,0,1,1.39,3.19V8.8A3.83,3.83,0,0,1,162.27,12a6.08,6.08,0,0,1-3.9,1.12h-1.7v1.09h-2V13.09h-1.73A6.08,6.08,0,0,1,149,12a3.85,3.85,0,0,1-1.38-3.17V8.69A3.88,3.88,0,0,1,149,5.5a6,6,0,0,1,3.9-1.13h1.73V3.3h2V4.37ZM149.7,8.83a2.2,2.2,0,0,0,.76,1.87,4.11,4.11,0,0,0,2.48.6h1.73V6.16h-1.73a4,4,0,0,0-2.46.61,2.25,2.25,0,0,0-.78,1.9Zm11.93-.16a2.22,2.22,0,0,0-.8-1.89,4,4,0,0,0-2.46-.62h-1.7V11.3h1.7a4.09,4.09,0,0,0,2.48-.6,2.18,2.18,0,0,0,.78-1.87Zm14.89-5.18V5.28h-7.13V7.82h6.81v1.8h-6.81v2.57h7.13V14h-9.13V3.49Zm10.59,0a4.26,4.26,0,0,1,2.85.88,2.89,2.89,0,0,1,1,2.37v.17a3,3,0,0,1-1,2.39,4.37,4.37,0,0,1-2.85.86h-4.56V14h-2V3.49Zm-.05,4.88A2.34,2.34,0,0,0,188.49,8,1.3,1.3,0,0,0,189,6.91V6.74a1.27,1.27,0,0,0-.49-1.08,2.34,2.34,0,0,0-1.43-.38h-4.51V8.37Zm16.82-4.88V5.28h-7.14V7.82h6.82v1.8h-6.82v2.57h7.14V14h-9.14V3.49Zm6,0V7.84h6.38V3.49h2V14h-2V9.63h-6.38V14h-2V3.49Zm24.4,8.7v3.92h-2V14h-9.69V3.49h2v8.7h6.06V3.49h2v8.7Zm5.5-8.7v7.77l6.38-7.77h2V14h-2V6.21L239.81,14h-2V3.49Zm22.88,0V14h-2V10.13h-2.24L254.68,14h-2.4v-.3l3.47-3.57a4,4,0,0,1-2.58-.93,3,3,0,0,1-.94-2.27V6.74a2.91,2.91,0,0,1,1-2.37,4.31,4.31,0,0,1,2.86-.88Zm-2,1.79h-4.51a2.31,2.31,0,0,0-1.42.38,1.28,1.28,0,0,0-.5,1.08v.17a1.31,1.31,0,0,0,.5,1.09,2.31,2.31,0,0,0,1.42.37h4.51Zm24.39-1.79V14h-2V5.28H277V14h-2V3.49Zm10,10.69a7.51,7.51,0,0,1-3.25-.66,5.09,5.09,0,0,1-2.13-1.86,5.27,5.27,0,0,1-.75-2.83V8.66a5.3,5.3,0,0,1,.75-2.84A5,5,0,0,1,291.83,4a7.45,7.45,0,0,1,3.23-.65,7.38,7.38,0,0,1,3.22.65,5,5,0,0,1,2.14,1.87,5.3,5.3,0,0,1,.75,2.84v.17a5.27,5.27,0,0,1-.75,2.83,5,5,0,0,1-2.13,1.86A7.36,7.36,0,0,1,295.06,14.18Zm0-1.86a4.53,4.53,0,0,0,3-.9,3.18,3.18,0,0,0,1.07-2.56V8.64a3.19,3.19,0,0,0-1.07-2.56,5.35,5.35,0,0,0-6,0A3.17,3.17,0,0,0,291,8.64v.22A3.15,3.15,0,0,0,292,11.42,4.55,4.55,0,0,0,295.06,12.32Zm20-8.83V7.84h6.39V3.49h2V14h-2V9.63H315V14h-2V3.49Zm18.38,10.69a7.51,7.51,0,0,1-3.25-.66A5,5,0,0,1,328,11.66a5.27,5.27,0,0,1-.75-2.83V8.66A5.3,5.3,0,0,1,328,5.82,4.92,4.92,0,0,1,330.18,4a7.42,7.42,0,0,1,3.23-.65,7.33,7.33,0,0,1,3.21.65,4.92,4.92,0,0,1,2.15,1.87,5.3,5.3,0,0,1,.75,2.84v.17a5.27,5.27,0,0,1-.75,2.83,5,5,0,0,1-2.13,1.86A7.42,7.42,0,0,1,333.41,14.18Zm0-1.86a4.53,4.53,0,0,0,3-.9,3.18,3.18,0,0,0,1.07-2.56V8.64a3.19,3.19,0,0,0-1.07-2.56,4.43,4.43,0,0,0-3-.93,4.5,4.5,0,0,0-3,.93,3.19,3.19,0,0,0-1.07,2.56v.22a3.18,3.18,0,0,0,1.07,2.56A4.6,4.6,0,0,0,333.41,12.32Zm18.68-3.73a2.6,2.6,0,0,1,1.16.9,2.28,2.28,0,0,1,.4,1.34V11a2.63,2.63,0,0,1-.48,1.57,3.12,3.12,0,0,1-1.33,1,5.24,5.24,0,0,1-2,.36h-6.45V3.49h6.13a4.69,4.69,0,0,1,2.8.72,2.3,2.3,0,0,1,1,2v.17A2.45,2.45,0,0,1,352.09,8.59Zm-6.72-3.31V7.79h4.12a2.4,2.4,0,0,0,1.34-.29,1,1,0,0,0,.45-.88V6.45a1,1,0,0,0-.47-.87,2.33,2.33,0,0,0-1.31-.3Zm6.24,5.49a1,1,0,0,0-.44-.88,2.51,2.51,0,0,0-1.38-.31h-4.42v2.61h4.42a2.33,2.33,0,0,0,1.34-.32,1.06,1.06,0,0,0,.48-.93Zm8-7.28V7.33h4.31a4.38,4.38,0,0,1,2.86.86,2.94,2.94,0,0,1,1,2.37v.21a2.91,2.91,0,0,1-1,2.37,4.43,4.43,0,0,1-2.86.84H357.6V3.49Zm11.36,0V14h-2V3.49Zm-7.1,8.7a2.32,2.32,0,0,0,1.41-.37,1.2,1.2,0,0,0,.51-1.05v-.21a1.23,1.23,0,0,0-.51-1.06,2.38,2.38,0,0,0-1.41-.38H359.6v3.07ZM389.08,14h-2V6.13L383.24,14h-2.06L377.32,6.1V14h-2V3.49h2.82l4.06,8.24,4-8.24h2.81ZM399,5.28V3.49h10.64V5.28h-4.32V14h-2V5.28ZM422,3.49V5.28h-7.14V7.82h6.82v1.8h-6.82v2.57H422V14h-9.14V3.49Zm14.9.3-4.24,5,4.24,4.94V14h-2.36l-3.32-3.92L427.85,14h-2.37v-.3l4.24-4.94-4.24-4.95v-.3h2.37l3.32,3.92,3.33-3.92h2.35Zm5.83-.3V7.84h6.39V3.49h2V14h-2V9.63h-6.39V14h-2V3.49Zm18.38,10.69a7.51,7.51,0,0,1-3.25-.66,5,5,0,0,1-2.13-1.86,5.27,5.27,0,0,1-.75-2.83V8.66a5.3,5.3,0,0,1,.75-2.84A4.92,4.92,0,0,1,457.83,4a7.42,7.42,0,0,1,3.23-.65,7.33,7.33,0,0,1,3.21.65,4.92,4.92,0,0,1,2.15,1.87,5.3,5.3,0,0,1,.75,2.84v.17a5.27,5.27,0,0,1-.75,2.83,5,5,0,0,1-2.13,1.86A7.42,7.42,0,0,1,461.06,14.18Zm0-1.86a4.53,4.53,0,0,0,3-.9,3.18,3.18,0,0,0,1.07-2.56V8.64a3.19,3.19,0,0,0-1.07-2.56,4.43,4.43,0,0,0-3-.93,4.5,4.5,0,0,0-3,.93A3.19,3.19,0,0,0,457,8.64v.22A3.18,3.18,0,0,0,458,11.42,4.6,4.6,0,0,0,461.06,12.32ZM480.79,14h-2V5.28l-5.06,0-.06,4.41a5.15,5.15,0,0,1-.88,3.23,3.07,3.07,0,0,1-2.58,1h-.76V12.19h.4A2.26,2.26,0,0,0,471,12a1.36,1.36,0,0,0,.59-.81,5.46,5.46,0,0,0,.21-1.59l.1-6.06h8.91Zm10,.2a7.47,7.47,0,0,1-3.24-.66,5,5,0,0,1-2.13-1.86,5.27,5.27,0,0,1-.75-2.83V8.66a5.3,5.3,0,0,1,.75-2.84A4.9,4.9,0,0,1,487.54,4a7.48,7.48,0,0,1,3.23-.65A7.38,7.38,0,0,1,494,4a4.9,4.9,0,0,1,2.14,1.87,5.31,5.31,0,0,1,.76,2.84v.17a5.27,5.27,0,0,1-.76,2.83A5,5,0,0,1,494,13.52,7.44,7.44,0,0,1,490.77,14.18Zm0-1.86a4.51,4.51,0,0,0,3-.9,3.15,3.15,0,0,0,1.07-2.56V8.64a3.16,3.16,0,0,0-1.07-2.56,4.41,4.41,0,0,0-3-.93,4.45,4.45,0,0,0-3,.93,3.16,3.16,0,0,0-1.07,2.56v.22a3.15,3.15,0,0,0,1.07,2.56A4.55,4.55,0,0,0,490.77,12.32ZM509.2,3.49V5.28h-6.46V14h-2V3.49Zm5.17,0v7.77l6.39-7.77h2V14h-2V6.21L514.37,14h-2V3.49Zm22.89,0V14h-2V10.13H533L529.24,14h-2.4v-.3l3.47-3.57a4,4,0,0,1-2.57-.93,2.92,2.92,0,0,1-1-2.27V6.74a2.91,2.91,0,0,1,1-2.37,4.34,4.34,0,0,1,2.87-.88Zm-2,1.79h-4.51a2.34,2.34,0,0,0-1.43.38,1.27,1.27,0,0,0-.49,1.08v.17A1.3,1.3,0,0,0,529.32,8a2.34,2.34,0,0,0,1.43.37h4.51ZM555.32,14h-2V6.13L549.48,14h-2.07L543.56,6.1V14h-2V3.49h2.82l4.06,8.24,4-8.24h2.82Zm21-5.39a2.63,2.63,0,0,1,1.15.9,2.22,2.22,0,0,1,.4,1.34V11a2.63,2.63,0,0,1-.48,1.57,3.06,3.06,0,0,1-1.33,1,5.24,5.24,0,0,1-2,.36h-6.44V3.49h6.12a4.69,4.69,0,0,1,2.8.72,2.27,2.27,0,0,1,1,2v.17A2.46,2.46,0,0,1,576.37,8.59Zm-6.72-3.31V7.79h4.11a2.38,2.38,0,0,0,1.34-.29,1,1,0,0,0,.45-.88V6.45a1,1,0,0,0-.46-.87,2.39,2.39,0,0,0-1.32-.3Zm6.24,5.49a1,1,0,0,0-.45-.88,2.51,2.51,0,0,0-1.38-.31h-4.41v2.61h4.41a2.37,2.37,0,0,0,1.35-.32,1.06,1.06,0,0,0,.48-.93Zm19.59,3.41a7.51,7.51,0,0,1-3.25-.66,5,5,0,0,1-2.13-1.86,5.27,5.27,0,0,1-.75-2.83V8.66a5.3,5.3,0,0,1,.75-2.84A4.92,4.92,0,0,1,592.25,4a7.45,7.45,0,0,1,3.23-.65A7.38,7.38,0,0,1,598.7,4a5,5,0,0,1,2.14,1.87,5.3,5.3,0,0,1,.75,2.84v.17a5.27,5.27,0,0,1-.75,2.83,5,5,0,0,1-2.13,1.86A7.39,7.39,0,0,1,595.48,14.18Zm0-1.86a4.53,4.53,0,0,0,3-.9,3.18,3.18,0,0,0,1.07-2.56V8.64a3.19,3.19,0,0,0-1.07-2.56,5.35,5.35,0,0,0-6,0,3.17,3.17,0,0,0-1.08,2.56v.22a3.15,3.15,0,0,0,1.08,2.56A4.55,4.55,0,0,0,595.48,12.32Zm19.44-8.83V5.28h-7.47v2.4h4.38a4.55,4.55,0,0,1,2.88.8,2.67,2.67,0,0,1,1,2.26v.19a2.69,2.69,0,0,1-1,2.25,4.53,4.53,0,0,1-2.88.8h-6.38V3.49Zm-3.12,8.7a2.58,2.58,0,0,0,1.41-.33,1.07,1.07,0,0,0,.51-.93v-.19a1,1,0,0,0-.51-.93,2.49,2.49,0,0,0-1.41-.34h-4.35v2.72Zm14.37-8.7a4.28,4.28,0,0,1,2.85.88,2.89,2.89,0,0,1,1.05,2.37v.17A3,3,0,0,1,629,9.3a4.38,4.38,0,0,1-2.85.86h-4.56V14h-2V3.49Zm0,4.88A2.36,2.36,0,0,0,627.55,8,1.3,1.3,0,0,0,628,6.91V6.74a1.27,1.27,0,0,0-.49-1.08,2.36,2.36,0,0,0-1.43-.38h-4.51V8.37Zm17,5.31V14h-2L640,11.58H634.4L633.31,14h-2v-.3l4.8-10.19h2.21Zm-4-3.89-2-4.29-1.95,4.29Zm16.28-1.15a2.83,2.83,0,0,1,1.17.88,1.91,1.91,0,0,1,.42,1.23v.19a2.63,2.63,0,0,1-1.48,2.39,8.35,8.35,0,0,1-4.12.85,7.68,7.68,0,0,1-4.5-1.12,3.83,3.83,0,0,1-1.55-3.28V9.66h2v.12a2.13,2.13,0,0,0,1,1.93,6.07,6.07,0,0,0,3.1.61,7.68,7.68,0,0,0,2.68-.34,1.16,1.16,0,0,0,.84-1.1v-.16a.81.81,0,0,0-.28-.66,1.78,1.78,0,0,0-.92-.33A10.38,10.38,0,0,0,652,9.62h-2.62V7.82h2.53a6.54,6.54,0,0,0,2.19-.25.93.93,0,0,0,.64-.91V6.5c0-.9-1.15-1.35-3.46-1.35a5.26,5.26,0,0,0-2.89.64,2.16,2.16,0,0,0-.93,1.92v.11h-2V7.71a3.83,3.83,0,0,1,1.52-3.26,7.11,7.11,0,0,1,4.35-1.15,8,8,0,0,1,4,.83,2.51,2.51,0,0,1,1.44,2.27v.19a2.15,2.15,0,0,1-.34,1.19A2.56,2.56,0,0,1,655.41,8.64Zm10.85,5.54a7.51,7.51,0,0,1-3.25-.66,5.09,5.09,0,0,1-2.13-1.86,5.27,5.27,0,0,1-.75-2.83V8.66a5.3,5.3,0,0,1,.75-2.84A5,5,0,0,1,663,4a7.45,7.45,0,0,1,3.23-.65,7.38,7.38,0,0,1,3.22.65,5,5,0,0,1,2.14,1.87,5.3,5.3,0,0,1,.75,2.84v.17a5.27,5.27,0,0,1-.75,2.83,5,5,0,0,1-2.13,1.86A7.36,7.36,0,0,1,666.26,14.18Zm0-1.86a4.53,4.53,0,0,0,3-.9,3.18,3.18,0,0,0,1.07-2.56V8.64a3.19,3.19,0,0,0-1.07-2.56,5.35,5.35,0,0,0-6,0,3.17,3.17,0,0,0-1.08,2.56v.22a3.15,3.15,0,0,0,1.08,2.56A4.55,4.55,0,0,0,666.26,12.32ZM685,8.59a2.63,2.63,0,0,1,1.15.9,2.22,2.22,0,0,1,.4,1.34V11a2.63,2.63,0,0,1-.48,1.57,3.06,3.06,0,0,1-1.33,1,5.19,5.19,0,0,1-2,.36h-6.45V3.49h6.13a4.73,4.73,0,0,1,2.8.72,2.29,2.29,0,0,1,1,2v.17A2.46,2.46,0,0,1,685,8.59Zm-6.72-3.31V7.79h4.11a2.36,2.36,0,0,0,1.34-.29,1,1,0,0,0,.45-.88V6.45a1,1,0,0,0-.46-.87,2.37,2.37,0,0,0-1.31-.3Zm6.24,5.49a1,1,0,0,0-.45-.88,2.51,2.51,0,0,0-1.38-.31h-4.41v2.61h4.41a2.37,2.37,0,0,0,1.35-.32,1.06,1.06,0,0,0,.48-.93Zm16.08,2.91V14h-2l-1.09-2.4h-5.57L690.77,14h-2v-.3l4.8-10.19h2.21ZM696.6,9.79l-2-4.29-1.95,4.29Zm9.16-6.3V7.84h6.38V3.49h2V14h-2V9.63h-6.38V14h-2V3.49Zm14.71,0v7.77l6.38-7.77h2V14h-2V6.21L720.47,14h-2V3.49Zm14.7,0v7.77l6.39-7.77h2V14h-2V6.21L735.17,14h-2V3.49Zm32.69,8.7v3.92h-2V14h-9v2.13h-2V12.19h1.34a6.72,6.72,0,0,0,1-3.63l.08-5.07h9v8.7ZM759,8.62a7.65,7.65,0,0,1-.82,3.57h6V5.28h-5.15ZM781.35,14h-2V5.28l-5.06,0-.06,4.41a5.21,5.21,0,0,1-.88,3.23,3.09,3.09,0,0,1-2.58,1H770V12.19h.4a2.26,2.26,0,0,0,1.13-.24,1.36,1.36,0,0,0,.59-.81,5.46,5.46,0,0,0,.21-1.59l.1-6.06h8.91ZM795.84,3.49V14h-2V10.13H791.6L787.83,14h-2.4v-.3l3.47-3.57a4,4,0,0,1-2.58-.93,3,3,0,0,1-.94-2.27V6.74a2.91,2.91,0,0,1,1-2.37,4.31,4.31,0,0,1,2.86-.88Zm-2,1.79h-4.51a2.31,2.31,0,0,0-1.42.38,1.28,1.28,0,0,0-.5,1.08v.17a1.31,1.31,0,0,0,.5,1.09,2.31,2.31,0,0,0,1.42.37h4.51Zm16.33-1.79v7.77l6.38-7.77h2V14h-2V6.21L810.17,14h-2V3.49Zm21.17,0V5.28h-6.47V14h-2V3.49Zm9.73,0a4.23,4.23,0,0,1,2.84.88A2.87,2.87,0,0,1,845,6.74v.17a3,3,0,0,1-1.06,2.39,4.34,4.34,0,0,1-2.84.86h-4.56V14h-2V3.49ZM841,8.37A2.31,2.31,0,0,0,842.44,8a1.31,1.31,0,0,0,.5-1.09V6.74a1.28,1.28,0,0,0-.5-1.08A2.31,2.31,0,0,0,841,5.28h-4.51V8.37Zm13.34,5.81a7.47,7.47,0,0,1-3.24-.66A5,5,0,0,1,849,11.66a5.27,5.27,0,0,1-.75-2.83V8.66A5.3,5.3,0,0,1,849,5.82,4.9,4.9,0,0,1,851.13,4a7.48,7.48,0,0,1,3.23-.65,7.38,7.38,0,0,1,3.22.65,4.9,4.9,0,0,1,2.14,1.87,5.22,5.22,0,0,1,.76,2.84v.17a5.19,5.19,0,0,1-.76,2.83,5,5,0,0,1-2.12,1.86A7.44,7.44,0,0,1,854.36,14.18Zm0-1.86a4.49,4.49,0,0,0,3-.9,3.15,3.15,0,0,0,1.07-2.56V8.64a3.16,3.16,0,0,0-1.07-2.56,4.39,4.39,0,0,0-3-.93,4.45,4.45,0,0,0-3,.93,3.19,3.19,0,0,0-1.07,2.56v.22a3.18,3.18,0,0,0,1.07,2.56A4.55,4.55,0,0,0,854.36,12.32ZM875,3.79l-4.71,4.82,4.51,5.07V14h-2.33l-4-4.43h-2.08V14h-2V3.49h2V7.76h2.07l4.14-4.27H875Zm8.6,10.39a7.47,7.47,0,0,1-3.24-.66,5,5,0,0,1-2.13-1.86,5.27,5.27,0,0,1-.75-2.83V8.66a5.3,5.3,0,0,1,.75-2.84A4.9,4.9,0,0,1,880.33,4a7.48,7.48,0,0,1,3.23-.65,7.38,7.38,0,0,1,3.22.65,4.9,4.9,0,0,1,2.14,1.87,5.22,5.22,0,0,1,.76,2.84v.17a5.19,5.19,0,0,1-.76,2.83,5,5,0,0,1-2.12,1.86A7.44,7.44,0,0,1,883.56,14.18Zm0-1.86a4.49,4.49,0,0,0,3-.9,3.15,3.15,0,0,0,1.07-2.56V8.64a3.16,3.16,0,0,0-1.07-2.56,4.39,4.39,0,0,0-3-.93,4.45,4.45,0,0,0-3,.93,3.19,3.19,0,0,0-1.07,2.56v.22a3.18,3.18,0,0,0,1.07,2.56A4.55,4.55,0,0,0,883.56,12.32Zm18.69-3.73a2.57,2.57,0,0,1,1.15.9,2.22,2.22,0,0,1,.4,1.34V11a2.63,2.63,0,0,1-.48,1.57,3.09,3.09,0,0,1-1.32,1,5.24,5.24,0,0,1-2,.36h-6.45V3.49h6.13a4.71,4.71,0,0,1,2.8.72,2.3,2.3,0,0,1,1,2v.17A2.47,2.47,0,0,1,902.25,8.59Zm-6.72-3.31V7.79h4.11A2.42,2.42,0,0,0,901,7.5a1,1,0,0,0,.45-.88V6.45a1,1,0,0,0-.47-.87,2.35,2.35,0,0,0-1.31-.3Zm6.24,5.49a1,1,0,0,0-.45-.88A2.48,2.48,0,0,0,900,9.58h-4.42v2.61H900a2.35,2.35,0,0,0,1.34-.32,1.06,1.06,0,0,0,.48-.93ZM917.7,3.49v7.77l6.38-7.77h2V14h-2V6.21L917.7,14h-2V3.49Zm14.71,0V7.84h6.38V3.49h2V14h-2V9.63h-6.38V14h-2V3.49Zm24.68,8.7v3.92h-2V14h-9v2.13h-2V12.19h1.34a6.72,6.72,0,0,0,1-3.63l.08-5.07h9v8.7Zm-8.85-3.57a7.78,7.78,0,0,1-.82,3.57h6.05V5.28h-5.15ZM970.8,3.49v.3l-4.39,8A4.68,4.68,0,0,1,965,13.5a3.55,3.55,0,0,1-2,.48h-2.11V12.19H963a2.44,2.44,0,0,0,.74-.09,1.17,1.17,0,0,0,.48-.36l-4.86-7.95v-.3h2.11l3.85,6.4,3.4-6.4Zm7.86,10.69a7.62,7.62,0,0,1-3.28-.66,5.05,5.05,0,0,1-2.18-1.86,5.18,5.18,0,0,1-.75-2.81V8.64a5.21,5.21,0,0,1,.75-2.82A5,5,0,0,1,975.38,4a7.62,7.62,0,0,1,3.28-.65,7.89,7.89,0,0,1,3.07.57,5,5,0,0,1,2.14,1.57,3.6,3.6,0,0,1,.79,2.26v.12h-2V7.7a1.91,1.91,0,0,0-.51-1.3,3.14,3.14,0,0,0-1.41-.91,5.71,5.71,0,0,0-2-.34,4.76,4.76,0,0,0-3.11.9,3.16,3.16,0,0,0-1.07,2.56v.27a3.16,3.16,0,0,0,1.07,2.56,4.78,4.78,0,0,0,3.11.88,6.23,6.23,0,0,0,2.06-.32,3.13,3.13,0,0,0,1.41-.9,1.94,1.94,0,0,0,.49-1.31V9.66h2v.13a3.62,3.62,0,0,1-.79,2.26,5.18,5.18,0,0,1-2.14,1.57A8.07,8.07,0,0,1,978.66,14.18Zm8.22-8.9V3.49h10.64V5.28H993.2V14h-2V5.28Zm20.37-1.79a4.23,4.23,0,0,1,2.84.88,2.87,2.87,0,0,1,1.06,2.37v.17a3,3,0,0,1-1.06,2.39,4.34,4.34,0,0,1-2.84.86h-4.56V14h-2V3.49Zm0,4.88a2.31,2.31,0,0,0,1.42-.37,1.31,1.31,0,0,0,.5-1.09V6.74a1.28,1.28,0,0,0-.5-1.08,2.31,2.31,0,0,0-1.42-.38h-4.51V8.37Zm9.68-4.88v7.77l6.38-7.77h2V14h-2V6.21L1016.88,14h-2V3.49Zm14.71,0v7.77L1038,3.49h2V14h-2V6.21L1031.59,14h-2V3.49Zm22.71,0v7.77l6.39-7.77h2V14h-2V6.21L1054.3,14h-2V3.49Zm27.28,0a4.24,4.24,0,0,1,2.85.88,2.89,2.89,0,0,1,1,2.37v.17a3,3,0,0,1-1,2.39,4.35,4.35,0,0,1-2.85.86H1077V14h-2V3.49Zm0,4.88A2.34,2.34,0,0,0,1083,8a1.3,1.3,0,0,0,.49-1.09V6.74a1.27,1.27,0,0,0-.49-1.08,2.34,2.34,0,0,0-1.43-.38H1077V8.37Zm13.35,5.81a7.51,7.51,0,0,1-3.25-.66,5,5,0,0,1-2.13-1.86,5.27,5.27,0,0,1-.75-2.83V8.66a5.3,5.3,0,0,1,.75-2.84A4.92,4.92,0,0,1,1091.65,4a7.42,7.42,0,0,1,3.23-.65,7.33,7.33,0,0,1,3.21.65,4.92,4.92,0,0,1,2.15,1.87,5.3,5.3,0,0,1,.75,2.84v.17a5.27,5.27,0,0,1-.75,2.83,5,5,0,0,1-2.13,1.86A7.39,7.39,0,0,1,1094.88,14.18Zm0-1.86a4.53,4.53,0,0,0,3-.9A3.18,3.18,0,0,0,1099,8.86V8.64a3.19,3.19,0,0,0-1.07-2.56,4.43,4.43,0,0,0-3-.93,4.5,4.5,0,0,0-3,.93,3.19,3.19,0,0,0-1.07,2.56v.22a3.18,3.18,0,0,0,1.07,2.56A4.6,4.6,0,0,0,1094.88,12.32Zm21.31-.13v3.92h-2V14h-9v2.13h-2V12.19h1.34a6.72,6.72,0,0,0,1-3.63l.08-5.07h9v8.7Zm-8.85-3.57a7.65,7.65,0,0,1-.82,3.57h6V5.28h-5.15Zm14.36-5.13v7.77l6.38-7.77h2V14h-2V6.21L1121.7,14h-2V3.49Zm11.55,1.79V3.49h10.64V5.28h-4.32V14h-2V5.28Zm23-1.79V5.28h-7.13V7.82h6.81v1.8h-6.81v2.57h7.13V14h-9.13V3.49Zm14,10.49h-2V5.28l-5,0-.07,4.41a5.15,5.15,0,0,1-.88,3.23,3.07,3.07,0,0,1-2.57,1h-.77V12.19h.4a2.3,2.3,0,0,0,1.14-.24,1.44,1.44,0,0,0,.59-.81,5.46,5.46,0,0,0,.21-1.59l.09-6.06h8.91Zm13.46-10.49V5.28h-7.14V7.82h6.82v1.8h-6.82v2.57h7.14V14h-9.14V3.49Zm6,0v7.77l6.38-7.77h2V14h-2V6.21L1189.7,14h-2V3.49Zm3.2-1a4.57,4.57,0,0,1-2.58-.61,2,2,0,0,1-.88-1.78V0h1.78V.11a.63.63,0,0,0,.43.58,3.22,3.22,0,0,0,1.25.19,2.77,2.77,0,0,0,1.16-.19.64.64,0,0,0,.42-.58V0h1.87V.11a2,2,0,0,1-.88,1.78A4.49,4.49,0,0,1,1192.9,2.5Z"/> <path class="cls-1" d="M1267,3.49V5.28h-7.14V7.82h6.82v1.8h-6.82v2.57H1267V14h-9.14V3.49Zm9.09,0a6.47,6.47,0,0,1,4.39,1.31,4.82,4.82,0,0,1,1.5,3.84v.21a4.84,4.84,0,0,1-1.5,3.84,6.52,6.52,0,0,1-4.39,1.29h-5.07V3.49Zm0,8.7a4.37,4.37,0,0,0,2.9-.81,3.11,3.11,0,0,0,1-2.5V8.62q0-3.34-3.87-3.34h-3.06v6.91Zm15.5,2a7.62,7.62,0,0,1-3.28-.66,5.05,5.05,0,0,1-2.18-1.86,5.18,5.18,0,0,1-.75-2.81V8.64a5.21,5.21,0,0,1,.75-2.82A5,5,0,0,1,1288.35,4a7.62,7.62,0,0,1,3.28-.65,7.89,7.89,0,0,1,3.07.57,5.07,5.07,0,0,1,2.14,1.57,3.6,3.6,0,0,1,.79,2.26v.12h-2V7.7a1.91,1.91,0,0,0-.51-1.3,3.14,3.14,0,0,0-1.41-.91,5.71,5.71,0,0,0-2-.34,4.76,4.76,0,0,0-3.11.9,3.16,3.16,0,0,0-1.07,2.56v.27a3.16,3.16,0,0,0,1.07,2.56,4.78,4.78,0,0,0,3.11.88,6.23,6.23,0,0,0,2.06-.32,3.13,3.13,0,0,0,1.41-.9,1.94,1.94,0,0,0,.49-1.31V9.66h2v.13a3.62,3.62,0,0,1-.79,2.26,5.24,5.24,0,0,1-2.14,1.57A8.07,8.07,0,0,1,1291.63,14.18ZM1311.93,7a2.87,2.87,0,0,1-.85,2.13,3.8,3.8,0,0,1-2.37,1l3.17,3.57V14h-2.3l-3.43-3.84h-2.68V14h-2V3.49H1308a4.28,4.28,0,0,1,2.86.89,3,3,0,0,1,1,2.42Zm-2-.27a1.25,1.25,0,0,0-.5-1.06,2.31,2.31,0,0,0-1.42-.38h-4.51V8.37H1308A2.31,2.31,0,0,0,1309.4,8a1.31,1.31,0,0,0,.5-1.09Zm11,7.46a5.84,5.84,0,0,1-2.7-.6,4.36,4.36,0,0,1-1.79-1.69,4.88,4.88,0,0,1-.64-2.53V3.49h2v5.9a2.86,2.86,0,0,0,.81,2.16,3.88,3.88,0,0,0,4.64,0,2.8,2.8,0,0,0,.83-2.16V3.49h2V9.36a4.88,4.88,0,0,1-.64,2.53,4.39,4.39,0,0,1-1.8,1.69A5.85,5.85,0,0,1,1320.93,14.18Zm19.7-10.69V14h-2l-6.46-7.69V14h-2V3.49h2l6.47,7.68V3.49Zm10.07,10.69a7.65,7.65,0,0,1-3.28-.66,5.05,5.05,0,0,1-2.18-1.86,5.18,5.18,0,0,1-.75-2.81V8.64a5.21,5.21,0,0,1,.75-2.82A5,5,0,0,1,1347.42,4a7.65,7.65,0,0,1,3.28-.65,7.89,7.89,0,0,1,3.07.57,5,5,0,0,1,2.14,1.57,3.54,3.54,0,0,1,.79,2.26v.12h-2V7.7a1.92,1.92,0,0,0-.52-1.3,3.16,3.16,0,0,0-1.4-.91,5.8,5.8,0,0,0-2-.34,4.76,4.76,0,0,0-3.11.9,3.16,3.16,0,0,0-1.07,2.56v.27a3.16,3.16,0,0,0,1.07,2.56,4.78,4.78,0,0,0,3.11.88,6.19,6.19,0,0,0,2.06-.32,3.13,3.13,0,0,0,1.41-.9,2,2,0,0,0,.5-1.31V9.66h2v.13a3.56,3.56,0,0,1-.79,2.26,5.18,5.18,0,0,1-2.14,1.57A8.07,8.07,0,0,1,1350.7,14.18Zm11.84-10.69V7.84h6.38V3.49h2V14h-2V9.63h-6.38V14h-2V3.49Zm22.71,0v8.7h7.43V14h-9.43V3.49Zm12.62,0V14h-2V3.49Zm15.05,0v.3L1408.17,14h-2.3l-4.76-10.19v-.3h2l3.87,8.57,3.87-8.57Zm12.35,0V5.28h-7.14V7.82H1425v1.8h-6.82v2.57h7.14V14h-9.14V3.49Zm13.77,8.7V14h-9.91v-1.6l4.8-2.73c.84-.48,1.44-.86,1.81-1.12a2.74,2.74,0,0,0,.77-.75,1.65,1.65,0,0,0,.21-.85V6.77a1.33,1.33,0,0,0-.71-1.2,4,4,0,0,0-2-.42,3.86,3.86,0,0,0-2.08.47,1.46,1.46,0,0,0-.7,1.34v.32h-2V6.94a3.22,3.22,0,0,1,1.21-2.7,5.71,5.71,0,0,1,3.52-.94,5.88,5.88,0,0,1,3.51.91,2.89,2.89,0,0,1,1.28,2.49v.16a3.26,3.26,0,0,1-.32,1.48,4.05,4.05,0,0,1-1.12,1.24,17.08,17.08,0,0,1-2.31,1.49l-2,1.12Zm9.13,2a6.69,6.69,0,0,1-2.91-.6,4.7,4.7,0,0,1-2-1.64,4.48,4.48,0,0,1-.69-2.47V8a4.48,4.48,0,0,1,.69-2.47,4.67,4.67,0,0,1,2-1.66,6.69,6.69,0,0,1,2.91-.59,6.56,6.56,0,0,1,2.88.59A4.38,4.38,0,0,1,1453.69,8V9.47a4.38,4.38,0,0,1-2.62,4.13A6.91,6.91,0,0,1,1448.17,14.18Zm0-1.86a4.12,4.12,0,0,0,2.61-.74,2.49,2.49,0,0,0,.93-2.08V8a2.51,2.51,0,0,0-1-2.08,4,4,0,0,0-2.6-.77,4.14,4.14,0,0,0-2.63.75,2.54,2.54,0,0,0-.94,2.1V9.5a2.5,2.5,0,0,0,.94,2.08A4.21,4.21,0,0,0,1448.17,12.32Zm19.22-.13V14h-9.9v-1.6l4.8-2.73c.83-.48,1.43-.86,1.81-1.12a2.89,2.89,0,0,0,.77-.75,1.75,1.75,0,0,0,.2-.85V6.77a1.32,1.32,0,0,0-.7-1.2,4,4,0,0,0-2-.42,3.84,3.84,0,0,0-2.08.47,1.47,1.47,0,0,0-.71,1.34v.32h-2V6.94a3.22,3.22,0,0,1,1.22-2.7,5.67,5.67,0,0,1,3.52-.94,5.87,5.87,0,0,1,3.5.91,2.86,2.86,0,0,1,1.28,2.49v.16a3.14,3.14,0,0,1-.32,1.48,3.81,3.81,0,0,1-1.12,1.24,17.52,17.52,0,0,1-2.3,1.49l-2,1.12Zm9.14,2a6.69,6.69,0,0,1-2.91-.6,4.64,4.64,0,0,1-2-1.64,4.48,4.48,0,0,1-.69-2.47V8a4.48,4.48,0,0,1,.69-2.47,4.61,4.61,0,0,1,2-1.66,6.69,6.69,0,0,1,2.91-.59,6.56,6.56,0,0,1,2.88.59,4.55,4.55,0,0,1,1.95,1.66,4.48,4.48,0,0,1,.69,2.47V9.47a4.37,4.37,0,0,1-2.63,4.13A6.87,6.87,0,0,1,1476.53,14.18Zm0-1.86a4.12,4.12,0,0,0,2.61-.74,2.51,2.51,0,0,0,.92-2.08V8a2.5,2.5,0,0,0-.94-2.08,4,4,0,0,0-2.61-.77,4.11,4.11,0,0,0-2.62.75,2.55,2.55,0,0,0-1,2.1V9.5a2.51,2.51,0,0,0,1,2.08A4.21,4.21,0,0,0,1476.53,12.32Z"/> <path class="cls-1" d="M1227.68,14.18h1.73V1.4h-1.73Zm-3-7.06V5.61l-5.4-2-.54,1.55Zm7.63,0,5.94-2-.54-1.55-5.4,2Zm-13,4.86,5.4-2V8.45l-5.94,2Zm18.43,0,.54-1.55-5.94-2V10Z"/> <path class="cls-1" d="M1227.68,14.18h-.25v.25h.25Zm1.73,0v.25h.25v-.25Zm0-12.78h.25V1.15h-.25Zm-1.73,0V1.15h-.25V1.4Zm-3,5.72-.08.24.33.11V7.12Zm0-1.51h.25V5.43l-.16-.06Zm-5.4-2,.09-.23-.24-.09-.09.24Zm-.54,1.55-.24-.08-.08.24.24.08Zm13.57,2h-.25v.35l.33-.11Zm5.94-2,.08.24.24-.08-.08-.24Zm-.54-1.55.24-.08-.09-.24-.24.09Zm-5.4,2-.09-.24-.16.06v.18Zm-13,6.37-.24.08.09.24.24-.09Zm5.4-2,.09.24.16-.06V10Zm0-1.51h.25V8.11l-.33.1Zm-5.94,2-.08-.24-.24.09.08.23Zm19,1.55-.09.23.24.09.09-.24Zm.54-1.55.24.08.08-.23-.24-.09Zm-5.94-2,.08-.24-.33-.1v.34Zm0,1.51h-.25v.18l.16.06Zm-4.68,4.47h1.73v-.5h-1.73Zm2-.25V1.4h-.5V14.18Zm-.25-13h-1.73v.5h1.73Zm-2,.25V14.18h.5V1.4ZM1225,7.12V5.61h-.5V7.12Zm-.16-1.75-5.4-2-.18.47,5.4,2Zm-5.73-1.86-.54,1.55.48.16.54-1.55Zm-.38,1.87,5.94,2,.16-.48-5.94-2Zm13.73,2,5.94-2-.16-.48-5.94,2Zm6.1-2.3L1238,3.51l-.47.16.54,1.55Zm-.87-1.7-5.4,2,.18.47,5.4-2Zm-5.56,2.25V7.12h.5V5.61Zm-12.69,6.6,5.4-2-.18-.47-5.4,2ZM1225,10V8.45h-.5V10Zm-.33-1.75-5.94,2,.16.48,5.94-2Zm-6.1,2.3.54,1.55.48-.16-.54-1.55ZM1238,12.06l.54-1.55-.47-.16-.54,1.55Zm.38-1.87-5.94-2-.16.48,5.94,2Zm-6.27-1.74V10h.5V8.45Zm.16,1.75,5.4,2,.18-.46-5.4-2Z"/> <path class="cls-1" d="M1510.68,14.18h1.73V1.4h-1.73Zm-3-7.06V5.61l-5.4-2-.54,1.55Zm7.63,0,5.94-2-.54-1.55-5.4,2Zm-13,4.86,5.4-2V8.45l-5.94,2Zm18.43,0,.54-1.55-5.94-2V10Z"/> <path class="cls-1" d="M1510.68,14.18h-.25v.25h.25Zm1.73,0v.25h.25v-.25Zm0-12.78h.25V1.15h-.25Zm-1.73,0V1.15h-.25V1.4Zm-3,5.72-.08.24.33.11V7.12Zm0-1.51h.25V5.43l-.16-.06Zm-5.4-2,.09-.23-.24-.09-.09.24Zm-.54,1.55-.24-.08-.08.24.24.08Zm13.57,2h-.25v.35l.33-.11Zm5.94-2,.08.24.24-.08-.08-.24Zm-.54-1.55.24-.08-.09-.24-.24.09Zm-5.4,2-.09-.24-.16.06v.18Zm-13,6.37-.24.08.09.24.24-.09Zm5.4-2,.09.24.16-.06V10Zm0-1.51h.25V8.11l-.33.1Zm-5.94,2-.08-.24-.24.09.08.23Zm19,1.55-.09.23.24.09.09-.24Zm.54-1.55.24.08.08-.23-.24-.09Zm-5.94-2,.08-.24-.33-.1v.34Zm0,1.51h-.25v.18l.16.06Zm-4.68,4.47h1.73v-.5h-1.73Zm2-.25V1.4h-.5V14.18Zm-.25-13h-1.73v.5h1.73Zm-2,.25V14.18h.5V1.4ZM1508,7.12V5.61h-.5V7.12Zm-.16-1.75-5.4-2-.18.47,5.4,2Zm-5.73-1.86-.54,1.55.48.16.54-1.55Zm-.38,1.87,5.94,2,.16-.48-5.94-2Zm13.73,2,5.94-2-.16-.48-5.94,2Zm6.1-2.3L1521,3.51l-.47.16.54,1.55Zm-.87-1.7-5.4,2,.18.47,5.4-2Zm-5.56,2.25V7.12h.5V5.61Zm-12.69,6.6,5.4-2-.18-.47-5.4,2ZM1508,10V8.45h-.5V10Zm-.33-1.75-5.94,2,.16.48,5.94-2Zm-6.1,2.3.54,1.55.48-.16-.54-1.55ZM1521,12.06l.54-1.55-.47-.16-.54,1.55Zm.38-1.87-5.94-2-.16.48,5.94,2Zm-6.27-1.74V10h.5V8.45Zm.16,1.75,5.4,2,.18-.46-5.4-2Z"/> <path class="cls-1" d="M3090.46,3.49V5.28H3084V14h-2V3.49ZM3102.83,14h-2V5.28l-5,0-.07,4.41a5.15,5.15,0,0,1-.88,3.23,3.07,3.07,0,0,1-2.57,1h-.77V12.19h.4A2.3,2.3,0,0,0,3093,12a1.44,1.44,0,0,0,.59-.81,5.46,5.46,0,0,0,.21-1.59l.09-6.06h8.91Zm15-.3V14h-2l-1.09-2.4h-5.57l-1.09,2.4h-2v-.3l4.8-10.19h2.21Zm-4-3.89-2-4.29L3110,9.79Zm15.88-1.2a2.63,2.63,0,0,1,1.15.9,2.28,2.28,0,0,1,.4,1.34V11a2.63,2.63,0,0,1-.48,1.57,3.06,3.06,0,0,1-1.33,1,5.24,5.24,0,0,1-2,.36h-6.44V3.49h6.12a4.69,4.69,0,0,1,2.8.72,2.27,2.27,0,0,1,1,2v.17A2.46,2.46,0,0,1,3129.79,8.59Zm-6.72-3.31V7.79h4.11a2.38,2.38,0,0,0,1.34-.29,1,1,0,0,0,.45-.88V6.45a1,1,0,0,0-.46-.87,2.39,2.39,0,0,0-1.32-.3Zm6.24,5.49a1,1,0,0,0-.45-.88,2.51,2.51,0,0,0-1.38-.31h-4.41v2.61h4.41a2.37,2.37,0,0,0,1.35-.32,1.06,1.06,0,0,0,.48-.93Zm7.92-7.28V7.84h6.38V3.49h2V14h-2V9.63h-6.38V14h-2V3.49Zm23.41,10.19V14h-2l-1.09-2.4H3152l-1.08,2.4h-2v-.3l4.8-10.19h2.21Zm-3.95-3.89-2-4.29-1.95,4.29ZM3174,3.49V14h-2V10.13h-2.24L3166,14h-2.4v-.3l3.47-3.57a4,4,0,0,1-2.57-.93,2.92,2.92,0,0,1-1-2.27V6.74a2.91,2.91,0,0,1,1-2.37,4.34,4.34,0,0,1,2.87-.88Zm-2,1.79h-4.52a2.33,2.33,0,0,0-1.42.38,1.28,1.28,0,0,0-.5,1.08v.17a1.31,1.31,0,0,0,.5,1.09,2.33,2.33,0,0,0,1.42.37H3172ZM3197,3.79l-4.7,4.82,4.51,5.07V14h-2.34l-4-4.43h-2.08V14h-2V3.49h2V7.76h2.06l4.14-4.27H3197Zm8.61,10.39a7.51,7.51,0,0,1-3.25-.66,5,5,0,0,1-2.13-1.86,5.27,5.27,0,0,1-.75-2.83V8.66a5.3,5.3,0,0,1,.75-2.84A4.92,4.92,0,0,1,3202.35,4a7.45,7.45,0,0,1,3.23-.65,7.38,7.38,0,0,1,3.22.65,5,5,0,0,1,2.14,1.87,5.3,5.3,0,0,1,.75,2.84v.17a5.27,5.27,0,0,1-.75,2.83,5,5,0,0,1-2.13,1.86A7.39,7.39,0,0,1,3205.58,14.18Zm0-1.86a4.53,4.53,0,0,0,3-.9,3.18,3.18,0,0,0,1.07-2.56V8.64a3.19,3.19,0,0,0-1.07-2.56,5.35,5.35,0,0,0-6,0,3.17,3.17,0,0,0-1.08,2.56v.22a3.15,3.15,0,0,0,1.08,2.56A4.55,4.55,0,0,0,3205.58,12.32Zm12-8.83V7.84h6.38V3.49h2V14h-2V9.63h-6.38V14h-2V3.49Zm22.82.88a6.06,6.06,0,0,1,3.9,1.13,3.88,3.88,0,0,1,1.39,3.19V8.8a3.83,3.83,0,0,1-1.39,3.17,6.08,6.08,0,0,1-3.9,1.12h-1.7v1.09h-2V13.09h-1.73A6.08,6.08,0,0,1,3231,12a3.85,3.85,0,0,1-1.38-3.17V8.69A3.88,3.88,0,0,1,3231,5.5a6,6,0,0,1,3.9-1.13h1.73V3.3h2V4.37Zm-8.67,4.46a2.2,2.2,0,0,0,.76,1.87,4.11,4.11,0,0,0,2.48.6h1.73V6.16h-1.73a4,4,0,0,0-2.46.61,2.25,2.25,0,0,0-.78,1.9Zm11.93-.16a2.22,2.22,0,0,0-.8-1.89,4,4,0,0,0-2.46-.62h-1.7V11.3h1.7a4.09,4.09,0,0,0,2.48-.6,2.18,2.18,0,0,0,.78-1.87Zm14.89-5.18V5.28h-7.13V7.82h6.81v1.8h-6.81v2.57h7.13V14h-9.13V3.49Zm10.59,0a4.26,4.26,0,0,1,2.85.88A2.89,2.89,0,0,1,3273,6.74v.17A3,3,0,0,1,3272,9.3a4.37,4.37,0,0,1-2.85.86h-4.56V14h-2V3.49Zm-.05,4.88a2.34,2.34,0,0,0,1.43-.37,1.3,1.3,0,0,0,.49-1.09V6.74a1.27,1.27,0,0,0-.49-1.08,2.34,2.34,0,0,0-1.43-.38h-4.51V8.37Zm16.82-4.88V5.28h-7.14V7.82h6.82v1.8h-6.82v2.57h7.14V14h-9.14V3.49Zm6,0V7.84h6.38V3.49h2V14h-2V9.63h-6.38V14h-2V3.49Zm24.4,8.7v3.92h-2V14h-9.69V3.49h2v8.7h6.06V3.49h2v8.7Zm5.5-8.7v7.77l6.38-7.77h2V14h-2V6.21L3321.81,14h-2V3.49Zm22.88,0V14h-2V10.13h-2.24L3336.68,14h-2.4v-.3l3.47-3.57a4,4,0,0,1-2.58-.93,3,3,0,0,1-.94-2.27V6.74a2.91,2.91,0,0,1,1-2.37,4.31,4.31,0,0,1,2.86-.88Zm-2,1.79h-4.51a2.31,2.31,0,0,0-1.42.38,1.28,1.28,0,0,0-.5,1.08v.17a1.31,1.31,0,0,0,.5,1.09,2.31,2.31,0,0,0,1.42.37h4.51Zm24.39-1.79V14h-2V5.28H3359V14h-2V3.49Zm10,10.69a7.51,7.51,0,0,1-3.25-.66,5.09,5.09,0,0,1-2.13-1.86,5.27,5.27,0,0,1-.75-2.83V8.66a5.3,5.3,0,0,1,.75-2.84A5,5,0,0,1,3373.83,4a7.45,7.45,0,0,1,3.23-.65,7.38,7.38,0,0,1,3.22.65,5,5,0,0,1,2.14,1.87,5.3,5.3,0,0,1,.75,2.84v.17a5.27,5.27,0,0,1-.75,2.83,5,5,0,0,1-2.13,1.86A7.36,7.36,0,0,1,3377.06,14.18Zm0-1.86a4.53,4.53,0,0,0,3-.9,3.18,3.18,0,0,0,1.07-2.56V8.64a3.19,3.19,0,0,0-1.07-2.56,5.35,5.35,0,0,0-6,0A3.17,3.17,0,0,0,3373,8.64v.22a3.15,3.15,0,0,0,1.08,2.56A4.55,4.55,0,0,0,3377.06,12.32Zm20-8.83V7.84h6.39V3.49h2V14h-2V9.63H3397V14h-2V3.49Zm18.38,10.69a7.51,7.51,0,0,1-3.25-.66,5,5,0,0,1-2.13-1.86,5.27,5.27,0,0,1-.75-2.83V8.66a5.3,5.3,0,0,1,.75-2.84A4.92,4.92,0,0,1,3412.18,4a7.42,7.42,0,0,1,3.23-.65,7.33,7.33,0,0,1,3.21.65,4.92,4.92,0,0,1,2.15,1.87,5.3,5.3,0,0,1,.75,2.84v.17a5.27,5.27,0,0,1-.75,2.83,5,5,0,0,1-2.13,1.86A7.42,7.42,0,0,1,3415.41,14.18Zm0-1.86a4.53,4.53,0,0,0,3-.9,3.18,3.18,0,0,0,1.07-2.56V8.64a3.19,3.19,0,0,0-1.07-2.56,4.43,4.43,0,0,0-3-.93,4.5,4.5,0,0,0-3,.93,3.19,3.19,0,0,0-1.07,2.56v.22a3.18,3.18,0,0,0,1.07,2.56A4.6,4.6,0,0,0,3415.41,12.32Zm18.68-3.73a2.6,2.6,0,0,1,1.16.9,2.28,2.28,0,0,1,.4,1.34V11a2.63,2.63,0,0,1-.48,1.57,3.12,3.12,0,0,1-1.33,1,5.24,5.24,0,0,1-2,.36h-6.45V3.49h6.13a4.69,4.69,0,0,1,2.8.72,2.3,2.3,0,0,1,1,2v.17A2.45,2.45,0,0,1,3434.09,8.59Zm-6.72-3.31V7.79h4.12a2.4,2.4,0,0,0,1.34-.29,1,1,0,0,0,.45-.88V6.45a1,1,0,0,0-.47-.87,2.33,2.33,0,0,0-1.31-.3Zm6.24,5.49a1,1,0,0,0-.44-.88,2.51,2.51,0,0,0-1.38-.31h-4.42v2.61h4.42a2.33,2.33,0,0,0,1.34-.32,1.06,1.06,0,0,0,.48-.93Zm8-7.28V7.33h4.31a4.38,4.38,0,0,1,2.86.86,2.94,2.94,0,0,1,1,2.37v.21a2.91,2.91,0,0,1-1,2.37,4.43,4.43,0,0,1-2.86.84h-6.31V3.49Zm11.36,0V14h-2V3.49Zm-7.1,8.7a2.32,2.32,0,0,0,1.41-.37,1.2,1.2,0,0,0,.51-1.05v-.21a1.23,1.23,0,0,0-.51-1.06,2.38,2.38,0,0,0-1.41-.38h-4.26v3.07ZM3471.08,14h-2V6.13L3465.24,14h-2.06l-3.86-7.88V14h-2V3.49h2.82l4.06,8.24,4.05-8.24h2.81Zm9.92-8.7V3.49h10.64V5.28h-4.32V14h-2V5.28ZM3504,3.49V5.28h-7.14V7.82h6.82v1.8h-6.82v2.57H3504V14h-9.14V3.49Zm14.9.3-4.24,5,4.24,4.94V14h-2.36l-3.32-3.92L3509.85,14h-2.37v-.3l4.24-4.94-4.24-4.95v-.3h2.37l3.32,3.92,3.33-3.92h2.35Zm5.83-.3V7.84h6.39V3.49h2V14h-2V9.63h-6.39V14h-2V3.49Zm18.38,10.69a7.51,7.51,0,0,1-3.25-.66,5,5,0,0,1-2.13-1.86,5.27,5.27,0,0,1-.75-2.83V8.66a5.3,5.3,0,0,1,.75-2.84A4.92,4.92,0,0,1,3539.83,4a7.42,7.42,0,0,1,3.23-.65,7.33,7.33,0,0,1,3.21.65,4.92,4.92,0,0,1,2.15,1.87,5.3,5.3,0,0,1,.75,2.84v.17a5.27,5.27,0,0,1-.75,2.83,5,5,0,0,1-2.13,1.86A7.42,7.42,0,0,1,3543.06,14.18Zm0-1.86a4.53,4.53,0,0,0,3-.9,3.18,3.18,0,0,0,1.07-2.56V8.64a3.19,3.19,0,0,0-1.07-2.56,4.43,4.43,0,0,0-3-.93,4.5,4.5,0,0,0-3,.93A3.19,3.19,0,0,0,3539,8.64v.22a3.18,3.18,0,0,0,1.07,2.56A4.6,4.6,0,0,0,3543.06,12.32ZM3562.79,14h-2V5.28l-5.06,0-.06,4.41a5.15,5.15,0,0,1-.88,3.23,3.07,3.07,0,0,1-2.58,1h-.76V12.19h.4A2.26,2.26,0,0,0,3553,12a1.36,1.36,0,0,0,.59-.81,5.46,5.46,0,0,0,.21-1.59l.1-6.06h8.91Zm10,.2a7.47,7.47,0,0,1-3.24-.66,5,5,0,0,1-2.13-1.86,5.27,5.27,0,0,1-.75-2.83V8.66a5.3,5.3,0,0,1,.75-2.84A4.9,4.9,0,0,1,3569.54,4a7.48,7.48,0,0,1,3.23-.65A7.38,7.38,0,0,1,3576,4a4.9,4.9,0,0,1,2.14,1.87,5.31,5.31,0,0,1,.76,2.84v.17a5.27,5.27,0,0,1-.76,2.83,5,5,0,0,1-2.12,1.86A7.44,7.44,0,0,1,3572.77,14.18Zm0-1.86a4.51,4.51,0,0,0,3-.9,3.15,3.15,0,0,0,1.07-2.56V8.64a3.16,3.16,0,0,0-1.07-2.56,4.41,4.41,0,0,0-3-.93,4.45,4.45,0,0,0-3,.93,3.16,3.16,0,0,0-1.07,2.56v.22a3.15,3.15,0,0,0,1.07,2.56A4.55,4.55,0,0,0,3572.77,12.32Zm18.43-8.83V5.28h-6.46V14h-2V3.49Zm5.17,0v7.77l6.39-7.77h2V14h-2V6.21L3596.37,14h-2V3.49Zm22.89,0V14h-2V10.13H3615L3611.24,14h-2.4v-.3l3.47-3.57a4,4,0,0,1-2.57-.93,2.92,2.92,0,0,1-.95-2.27V6.74a2.91,2.91,0,0,1,1-2.37,4.34,4.34,0,0,1,2.87-.88Zm-2,1.79h-4.51a2.34,2.34,0,0,0-1.43.38,1.27,1.27,0,0,0-.49,1.08v.17a1.3,1.3,0,0,0,.49,1.09,2.34,2.34,0,0,0,1.43.37h4.51Zm20.06,8.7h-2V6.13L3631.48,14h-2.07l-3.85-7.88V14h-2V3.49h2.82l4.06,8.24,4.05-8.24h2.82Zm21-5.39a2.63,2.63,0,0,1,1.15.9,2.22,2.22,0,0,1,.4,1.34V11a2.63,2.63,0,0,1-.48,1.57,3.06,3.06,0,0,1-1.33,1,5.24,5.24,0,0,1-2,.36h-6.44V3.49h6.12a4.69,4.69,0,0,1,2.8.72,2.27,2.27,0,0,1,1,2v.17A2.46,2.46,0,0,1,3658.37,8.59Zm-6.72-3.31V7.79h4.11a2.38,2.38,0,0,0,1.34-.29,1,1,0,0,0,.45-.88V6.45a1,1,0,0,0-.46-.87,2.39,2.39,0,0,0-1.32-.3Zm6.24,5.49a1,1,0,0,0-.45-.88,2.51,2.51,0,0,0-1.38-.31h-4.41v2.61h4.41a2.37,2.37,0,0,0,1.35-.32,1.06,1.06,0,0,0,.48-.93Zm19.59,3.41a7.51,7.51,0,0,1-3.25-.66,5,5,0,0,1-2.13-1.86,5.27,5.27,0,0,1-.75-2.83V8.66a5.3,5.3,0,0,1,.75-2.84A4.92,4.92,0,0,1,3674.25,4a7.45,7.45,0,0,1,3.23-.65,7.38,7.38,0,0,1,3.22.65,5,5,0,0,1,2.14,1.87,5.3,5.3,0,0,1,.75,2.84v.17a5.27,5.27,0,0,1-.75,2.83,5,5,0,0,1-2.13,1.86A7.39,7.39,0,0,1,3677.48,14.18Zm0-1.86a4.53,4.53,0,0,0,3-.9,3.18,3.18,0,0,0,1.07-2.56V8.64a3.19,3.19,0,0,0-1.07-2.56,5.35,5.35,0,0,0-6,0,3.17,3.17,0,0,0-1.08,2.56v.22a3.15,3.15,0,0,0,1.08,2.56A4.55,4.55,0,0,0,3677.48,12.32Zm19.44-8.83V5.28h-7.47v2.4h4.38a4.55,4.55,0,0,1,2.88.8,2.67,2.67,0,0,1,1,2.26v.19a2.69,2.69,0,0,1-1,2.25,4.53,4.53,0,0,1-2.88.8h-6.38V3.49Zm-3.12,8.7a2.58,2.58,0,0,0,1.41-.33,1.07,1.07,0,0,0,.51-.93v-.19a1,1,0,0,0-.51-.93,2.49,2.49,0,0,0-1.41-.34h-4.35v2.72Zm14.37-8.7a4.28,4.28,0,0,1,2.85.88,2.89,2.89,0,0,1,1.05,2.37v.17A3,3,0,0,1,3711,9.3a4.38,4.38,0,0,1-2.85.86h-4.56V14h-2V3.49Zm-.05,4.88a2.36,2.36,0,0,0,1.43-.37,1.3,1.3,0,0,0,.49-1.09V6.74a1.27,1.27,0,0,0-.49-1.08,2.36,2.36,0,0,0-1.43-.38h-4.51V8.37Zm17,5.31V14h-2l-1.08-2.4h-5.57l-1.09,2.4h-2v-.3l4.8-10.19h2.21Zm-4-3.89-2-4.29-1.95,4.29Zm16.28-1.15a2.83,2.83,0,0,1,1.17.88,1.91,1.91,0,0,1,.42,1.23v.19a2.63,2.63,0,0,1-1.48,2.39,8.35,8.35,0,0,1-4.12.85,7.68,7.68,0,0,1-4.5-1.12,3.83,3.83,0,0,1-1.55-3.28V9.66h2v.12a2.13,2.13,0,0,0,1,1.93,6.07,6.07,0,0,0,3.1.61,7.68,7.68,0,0,0,2.68-.34,1.16,1.16,0,0,0,.84-1.1v-.16a.81.81,0,0,0-.28-.66,1.78,1.78,0,0,0-.92-.33,10.38,10.38,0,0,0-1.79-.11h-2.62V7.82h2.53a6.54,6.54,0,0,0,2.19-.25.93.93,0,0,0,.64-.91V6.5c0-.9-1.15-1.35-3.46-1.35a5.26,5.26,0,0,0-2.89.64,2.16,2.16,0,0,0-.93,1.92v.11h-2V7.71a3.83,3.83,0,0,1,1.52-3.26,7.11,7.11,0,0,1,4.35-1.15,8,8,0,0,1,4,.83,2.51,2.51,0,0,1,1.44,2.27v.19a2.15,2.15,0,0,1-.34,1.19A2.56,2.56,0,0,1,3737.41,8.64Zm10.85,5.54a7.51,7.51,0,0,1-3.25-.66,5.09,5.09,0,0,1-2.13-1.86,5.27,5.27,0,0,1-.75-2.83V8.66a5.3,5.3,0,0,1,.75-2.84A5,5,0,0,1,3745,4a7.45,7.45,0,0,1,3.23-.65,7.38,7.38,0,0,1,3.22.65,5,5,0,0,1,2.14,1.87,5.3,5.3,0,0,1,.75,2.84v.17a5.27,5.27,0,0,1-.75,2.83,5,5,0,0,1-2.13,1.86A7.36,7.36,0,0,1,3748.26,14.18Zm0-1.86a4.53,4.53,0,0,0,3-.9,3.18,3.18,0,0,0,1.07-2.56V8.64a3.19,3.19,0,0,0-1.07-2.56,5.35,5.35,0,0,0-6,0,3.17,3.17,0,0,0-1.08,2.56v.22a3.15,3.15,0,0,0,1.08,2.56A4.55,4.55,0,0,0,3748.26,12.32ZM3767,8.59a2.63,2.63,0,0,1,1.15.9,2.22,2.22,0,0,1,.4,1.34V11a2.63,2.63,0,0,1-.48,1.57,3.06,3.06,0,0,1-1.33,1,5.19,5.19,0,0,1-2,.36h-6.45V3.49h6.13a4.73,4.73,0,0,1,2.8.72,2.29,2.29,0,0,1,1,2v.17A2.46,2.46,0,0,1,3767,8.59Zm-6.72-3.31V7.79h4.11a2.36,2.36,0,0,0,1.34-.29,1,1,0,0,0,.45-.88V6.45a1,1,0,0,0-.46-.87,2.37,2.37,0,0,0-1.31-.3Zm6.24,5.49a1,1,0,0,0-.45-.88,2.51,2.51,0,0,0-1.38-.31h-4.41v2.61h4.41a2.37,2.37,0,0,0,1.35-.32,1.06,1.06,0,0,0,.48-.93Zm16.08,2.91V14h-2l-1.09-2.4h-5.57l-1.09,2.4h-2v-.3l4.8-10.19h2.21Zm-4-3.89-2-4.29-1.95,4.29Zm9.16-6.3V7.84h6.38V3.49h2V14h-2V9.63h-6.38V14h-2V3.49Zm14.71,0v7.77l6.38-7.77h2V14h-2V6.21L3802.47,14h-2V3.49Zm14.7,0v7.77l6.39-7.77h2V14h-2V6.21L3817.17,14h-2V3.49Zm32.69,8.7v3.92h-2V14h-9v2.13h-2V12.19h1.34a6.72,6.72,0,0,0,1-3.63l.08-5.07h9v8.7ZM3841,8.62a7.65,7.65,0,0,1-.82,3.57h6V5.28h-5.15ZM3863.35,14h-2V5.28l-5.06,0-.06,4.41a5.21,5.21,0,0,1-.88,3.23,3.09,3.09,0,0,1-2.58,1H3852V12.19h.4a2.26,2.26,0,0,0,1.13-.24,1.36,1.36,0,0,0,.59-.81,5.46,5.46,0,0,0,.21-1.59l.1-6.06h8.91Zm14.49-10.49V14h-2V10.13h-2.24L3869.83,14h-2.4v-.3l3.47-3.57a4,4,0,0,1-2.58-.93,3,3,0,0,1-.94-2.27V6.74a2.91,2.91,0,0,1,1-2.37,4.31,4.31,0,0,1,2.86-.88Zm-2,1.79h-4.51a2.31,2.31,0,0,0-1.42.38,1.28,1.28,0,0,0-.5,1.08v.17a1.31,1.31,0,0,0,.5,1.09,2.31,2.31,0,0,0,1.42.37h4.51Zm16.33-1.79v7.77l6.38-7.77h2V14h-2V6.21L3892.17,14h-2V3.49Zm21.17,0V5.28h-6.47V14h-2V3.49Zm9.73,0a4.23,4.23,0,0,1,2.84.88A2.87,2.87,0,0,1,3927,6.74v.17a3,3,0,0,1-1.06,2.39,4.34,4.34,0,0,1-2.84.86h-4.56V14h-2V3.49ZM3923,8.37a2.31,2.31,0,0,0,1.42-.37,1.31,1.31,0,0,0,.5-1.09V6.74a1.28,1.28,0,0,0-.5-1.08,2.31,2.31,0,0,0-1.42-.38h-4.51V8.37Zm13.34,5.81a7.47,7.47,0,0,1-3.24-.66,5,5,0,0,1-2.13-1.86,5.27,5.27,0,0,1-.75-2.83V8.66a5.3,5.3,0,0,1,.75-2.84A4.9,4.9,0,0,1,3933.13,4a7.48,7.48,0,0,1,3.23-.65,7.38,7.38,0,0,1,3.22.65,4.9,4.9,0,0,1,2.14,1.87,5.22,5.22,0,0,1,.76,2.84v.17a5.19,5.19,0,0,1-.76,2.83,5,5,0,0,1-2.12,1.86A7.44,7.44,0,0,1,3936.36,14.18Zm0-1.86a4.49,4.49,0,0,0,3-.9,3.15,3.15,0,0,0,1.07-2.56V8.64a3.16,3.16,0,0,0-1.07-2.56,4.39,4.39,0,0,0-3-.93,4.45,4.45,0,0,0-3,.93,3.19,3.19,0,0,0-1.07,2.56v.22a3.18,3.18,0,0,0,1.07,2.56A4.55,4.55,0,0,0,3936.36,12.32ZM3957,3.79l-4.71,4.82,4.51,5.07V14h-2.33l-4-4.43h-2.08V14h-2V3.49h2V7.76h2.07l4.14-4.27H3957Zm8.6,10.39a7.47,7.47,0,0,1-3.24-.66,5,5,0,0,1-2.13-1.86,5.27,5.27,0,0,1-.75-2.83V8.66a5.3,5.3,0,0,1,.75-2.84A4.9,4.9,0,0,1,3962.33,4a7.48,7.48,0,0,1,3.23-.65,7.38,7.38,0,0,1,3.22.65,4.9,4.9,0,0,1,2.14,1.87,5.22,5.22,0,0,1,.76,2.84v.17a5.19,5.19,0,0,1-.76,2.83,5,5,0,0,1-2.12,1.86A7.44,7.44,0,0,1,3965.56,14.18Zm0-1.86a4.49,4.49,0,0,0,3-.9,3.15,3.15,0,0,0,1.07-2.56V8.64a3.16,3.16,0,0,0-1.07-2.56,4.39,4.39,0,0,0-3-.93,4.45,4.45,0,0,0-3,.93,3.19,3.19,0,0,0-1.07,2.56v.22a3.18,3.18,0,0,0,1.07,2.56A4.55,4.55,0,0,0,3965.56,12.32Zm18.69-3.73a2.57,2.57,0,0,1,1.15.9,2.22,2.22,0,0,1,.4,1.34V11a2.63,2.63,0,0,1-.48,1.57,3.09,3.09,0,0,1-1.32,1,5.24,5.24,0,0,1-2,.36h-6.45V3.49h6.13a4.71,4.71,0,0,1,2.8.72,2.3,2.3,0,0,1,1,2v.17A2.47,2.47,0,0,1,3984.25,8.59Zm-6.72-3.31V7.79h4.11A2.42,2.42,0,0,0,3983,7.5a1,1,0,0,0,.45-.88V6.45a1,1,0,0,0-.47-.87,2.35,2.35,0,0,0-1.31-.3Zm6.24,5.49a1,1,0,0,0-.45-.88,2.48,2.48,0,0,0-1.37-.31h-4.42v2.61H3982a2.35,2.35,0,0,0,1.34-.32,1.06,1.06,0,0,0,.48-.93Zm15.93-7.28v7.77l6.38-7.77h2V14h-2V6.21L3999.7,14h-2V3.49Zm14.71,0V7.84h6.38V3.49h2V14h-2V9.63h-6.38V14h-2V3.49Zm24.68,8.7v3.92h-2V14h-9v2.13h-2V12.19h1.34a6.72,6.72,0,0,0,1-3.63l.08-5.07h9v8.7Zm-8.85-3.57a7.78,7.78,0,0,1-.82,3.57h6V5.28h-5.15Zm22.56-5.13v.3l-4.39,8A4.68,4.68,0,0,1,4047,13.5a3.55,3.55,0,0,1-2,.48h-2.11V12.19H4045a2.44,2.44,0,0,0,.74-.09,1.17,1.17,0,0,0,.48-.36l-4.86-7.95v-.3h2.11l3.85,6.4,3.4-6.4Zm7.86,10.69a7.62,7.62,0,0,1-3.28-.66,5.05,5.05,0,0,1-2.18-1.86,5.18,5.18,0,0,1-.75-2.81V8.64a5.21,5.21,0,0,1,.75-2.82A5,5,0,0,1,4057.38,4a7.62,7.62,0,0,1,3.28-.65,7.89,7.89,0,0,1,3.07.57,5,5,0,0,1,2.14,1.57,3.6,3.6,0,0,1,.79,2.26v.12h-2V7.7a1.91,1.91,0,0,0-.51-1.3,3.14,3.14,0,0,0-1.41-.91,5.71,5.71,0,0,0-2-.34,4.76,4.76,0,0,0-3.11.9,3.16,3.16,0,0,0-1.07,2.56v.27a3.16,3.16,0,0,0,1.07,2.56,4.78,4.78,0,0,0,3.11.88,6.23,6.23,0,0,0,2.06-.32,3.13,3.13,0,0,0,1.41-.9,1.94,1.94,0,0,0,.49-1.31V9.66h2v.13a3.62,3.62,0,0,1-.79,2.26,5.18,5.18,0,0,1-2.14,1.57A8.07,8.07,0,0,1,4060.66,14.18Zm8.22-8.9V3.49h10.64V5.28h-4.32V14h-2V5.28Zm20.37-1.79a4.23,4.23,0,0,1,2.84.88,2.87,2.87,0,0,1,1.06,2.37v.17a3,3,0,0,1-1.06,2.39,4.34,4.34,0,0,1-2.84.86h-4.56V14h-2V3.49Zm-.05,4.88a2.31,2.31,0,0,0,1.42-.37,1.31,1.31,0,0,0,.5-1.09V6.74a1.28,1.28,0,0,0-.5-1.08,2.31,2.31,0,0,0-1.42-.38h-4.51V8.37Zm9.68-4.88v7.77l6.38-7.77h2V14h-2V6.21L4098.88,14h-2V3.49Zm14.71,0v7.77L4120,3.49h2V14h-2V6.21L4113.59,14h-2V3.49Zm22.71,0v7.77l6.39-7.77h2V14h-2V6.21L4136.3,14h-2V3.49Zm27.28,0a4.24,4.24,0,0,1,2.85.88,2.89,2.89,0,0,1,1,2.37v.17a3,3,0,0,1-1,2.39,4.35,4.35,0,0,1-2.85.86H4159V14h-2V3.49Zm-.05,4.88A2.34,2.34,0,0,0,4165,8a1.3,1.3,0,0,0,.49-1.09V6.74a1.27,1.27,0,0,0-.49-1.08,2.34,2.34,0,0,0-1.43-.38H4159V8.37Zm13.35,5.81a7.51,7.51,0,0,1-3.25-.66,5,5,0,0,1-2.13-1.86,5.27,5.27,0,0,1-.75-2.83V8.66a5.3,5.3,0,0,1,.75-2.84A4.92,4.92,0,0,1,4173.65,4a7.42,7.42,0,0,1,3.23-.65,7.33,7.33,0,0,1,3.21.65,4.92,4.92,0,0,1,2.15,1.87,5.3,5.3,0,0,1,.75,2.84v.17a5.27,5.27,0,0,1-.75,2.83,5,5,0,0,1-2.13,1.86A7.39,7.39,0,0,1,4176.88,14.18Zm0-1.86a4.53,4.53,0,0,0,3-.9A3.18,3.18,0,0,0,4181,8.86V8.64a3.19,3.19,0,0,0-1.07-2.56,4.43,4.43,0,0,0-3-.93,4.5,4.5,0,0,0-3,.93,3.19,3.19,0,0,0-1.07,2.56v.22a3.18,3.18,0,0,0,1.07,2.56A4.6,4.6,0,0,0,4176.88,12.32Zm21.31-.13v3.92h-2V14h-9v2.13h-2V12.19h1.34a6.72,6.72,0,0,0,1-3.63l.08-5.07h9v8.7Zm-8.85-3.57a7.65,7.65,0,0,1-.82,3.57h6V5.28h-5.15Zm14.36-5.13v7.77l6.38-7.77h2V14h-2V6.21L4203.7,14h-2V3.49Zm11.55,1.79V3.49h10.64V5.28h-4.32V14h-2V5.28Zm22.95-1.79V5.28h-7.13V7.82h6.81v1.8h-6.81v2.57h7.13V14h-9.13V3.49Zm14,10.49h-2V5.28l-5.05,0-.07,4.41a5.15,5.15,0,0,1-.88,3.23,3.07,3.07,0,0,1-2.57,1h-.77V12.19h.4a2.3,2.3,0,0,0,1.14-.24,1.44,1.44,0,0,0,.59-.81,5.46,5.46,0,0,0,.21-1.59l.09-6.06h8.91Zm13.46-10.49V5.28h-7.14V7.82h6.82v1.8h-6.82v2.57h7.14V14h-9.14V3.49Zm6,0v7.77l6.38-7.77h2V14h-2V6.21L4271.7,14h-2V3.49Zm3.2-1a4.57,4.57,0,0,1-2.58-.61,2,2,0,0,1-.88-1.78V0h1.78V.11a.63.63,0,0,0,.43.58,3.22,3.22,0,0,0,1.25.19,2.77,2.77,0,0,0,1.16-.19.64.64,0,0,0,.42-.58V0h1.87V.11a2,2,0,0,1-.88,1.78A4.49,4.49,0,0,1,4274.9,2.5Z"/> <path class="cls-1" d="M4349,3.49V5.28h-7.14V7.82h6.82v1.8h-6.82v2.57H4349V14h-9.14V3.49Zm9.09,0a6.47,6.47,0,0,1,4.39,1.31,4.82,4.82,0,0,1,1.5,3.84v.21a4.84,4.84,0,0,1-1.5,3.84,6.52,6.52,0,0,1-4.39,1.29h-5.07V3.49Zm0,8.7a4.37,4.37,0,0,0,2.9-.81,3.11,3.11,0,0,0,1-2.5V8.62q0-3.34-3.87-3.34h-3.06v6.91Zm15.5,2a7.62,7.62,0,0,1-3.28-.66,5.05,5.05,0,0,1-2.18-1.86,5.18,5.18,0,0,1-.75-2.81V8.64a5.21,5.21,0,0,1,.75-2.82A5,5,0,0,1,4370.35,4a7.62,7.62,0,0,1,3.28-.65,7.89,7.89,0,0,1,3.07.57,5.07,5.07,0,0,1,2.14,1.57,3.6,3.6,0,0,1,.79,2.26v.12h-2V7.7a1.91,1.91,0,0,0-.51-1.3,3.14,3.14,0,0,0-1.41-.91,5.71,5.71,0,0,0-2-.34,4.76,4.76,0,0,0-3.11.9,3.16,3.16,0,0,0-1.07,2.56v.27a3.16,3.16,0,0,0,1.07,2.56,4.78,4.78,0,0,0,3.11.88,6.23,6.23,0,0,0,2.06-.32,3.13,3.13,0,0,0,1.41-.9,1.94,1.94,0,0,0,.49-1.31V9.66h2v.13a3.62,3.62,0,0,1-.79,2.26,5.24,5.24,0,0,1-2.14,1.57A8.07,8.07,0,0,1,4373.63,14.18ZM4393.93,7a2.87,2.87,0,0,1-.85,2.13,3.8,3.8,0,0,1-2.37,1l3.17,3.57V14h-2.3l-3.43-3.84h-2.68V14h-2V3.49H4390a4.28,4.28,0,0,1,2.86.89,3,3,0,0,1,1,2.42Zm-2-.27a1.25,1.25,0,0,0-.5-1.06,2.31,2.31,0,0,0-1.42-.38h-4.51V8.37H4390A2.31,2.31,0,0,0,4391.4,8a1.31,1.31,0,0,0,.5-1.09Zm11,7.46a5.84,5.84,0,0,1-2.7-.6,4.36,4.36,0,0,1-1.79-1.69,4.88,4.88,0,0,1-.64-2.53V3.49h2v5.9a2.86,2.86,0,0,0,.81,2.16,3.88,3.88,0,0,0,4.64,0,2.8,2.8,0,0,0,.83-2.16V3.49h2V9.36a4.88,4.88,0,0,1-.64,2.53,4.39,4.39,0,0,1-1.8,1.69A5.85,5.85,0,0,1,4402.93,14.18Zm19.7-10.69V14h-2l-6.46-7.69V14h-2V3.49h2l6.47,7.68V3.49Zm10.07,10.69a7.65,7.65,0,0,1-3.28-.66,5.05,5.05,0,0,1-2.18-1.86,5.18,5.18,0,0,1-.75-2.81V8.64a5.21,5.21,0,0,1,.75-2.82A5,5,0,0,1,4429.42,4a7.65,7.65,0,0,1,3.28-.65,7.89,7.89,0,0,1,3.07.57,5,5,0,0,1,2.14,1.57,3.54,3.54,0,0,1,.79,2.26v.12h-2V7.7a1.92,1.92,0,0,0-.52-1.3,3.16,3.16,0,0,0-1.4-.91,5.8,5.8,0,0,0-2.05-.34,4.76,4.76,0,0,0-3.11.9,3.16,3.16,0,0,0-1.07,2.56v.27a3.16,3.16,0,0,0,1.07,2.56,4.78,4.78,0,0,0,3.11.88,6.19,6.19,0,0,0,2.06-.32,3.13,3.13,0,0,0,1.41-.9,2,2,0,0,0,.5-1.31V9.66h2v.13a3.56,3.56,0,0,1-.79,2.26,5.18,5.18,0,0,1-2.14,1.57A8.07,8.07,0,0,1,4432.7,14.18Zm11.84-10.69V7.84h6.38V3.49h2V14h-2V9.63h-6.38V14h-2V3.49Zm22.71,0v8.7h7.43V14h-9.43V3.49Zm12.62,0V14h-2V3.49Zm15.05,0v.3L4490.17,14h-2.3l-4.76-10.19v-.3h2l3.87,8.57,3.87-8.57Zm12.35,0V5.28h-7.14V7.82H4507v1.8h-6.82v2.57h7.14V14h-9.14V3.49Zm13.77,8.7V14h-9.91v-1.6l4.8-2.73c.84-.48,1.44-.86,1.81-1.12a2.74,2.74,0,0,0,.77-.75,1.65,1.65,0,0,0,.21-.85V6.77a1.33,1.33,0,0,0-.71-1.2,4,4,0,0,0-2-.42,3.86,3.86,0,0,0-2.08.47,1.46,1.46,0,0,0-.7,1.34v.32h-2V6.94a3.22,3.22,0,0,1,1.21-2.7,5.71,5.71,0,0,1,3.52-.94,5.88,5.88,0,0,1,3.51.91,2.89,2.89,0,0,1,1.28,2.49v.16a3.26,3.26,0,0,1-.32,1.48,4.05,4.05,0,0,1-1.12,1.24,17.08,17.08,0,0,1-2.31,1.49l-2,1.12Zm9.13,2a6.69,6.69,0,0,1-2.91-.6,4.7,4.7,0,0,1-2-1.64,4.48,4.48,0,0,1-.69-2.47V8a4.48,4.48,0,0,1,.69-2.47,4.67,4.67,0,0,1,2-1.66,6.69,6.69,0,0,1,2.91-.59,6.56,6.56,0,0,1,2.88.59A4.38,4.38,0,0,1,4535.69,8V9.47a4.38,4.38,0,0,1-2.62,4.13A6.91,6.91,0,0,1,4530.17,14.18Zm0-1.86a4.12,4.12,0,0,0,2.61-.74,2.49,2.49,0,0,0,.93-2.08V8a2.51,2.51,0,0,0-.95-2.08,4,4,0,0,0-2.6-.77,4.14,4.14,0,0,0-2.63.75,2.54,2.54,0,0,0-.94,2.1V9.5a2.5,2.5,0,0,0,.94,2.08A4.21,4.21,0,0,0,4530.17,12.32Zm19.22-.13V14h-9.9v-1.6l4.8-2.73c.83-.48,1.43-.86,1.81-1.12a2.89,2.89,0,0,0,.77-.75,1.75,1.75,0,0,0,.2-.85V6.77a1.32,1.32,0,0,0-.7-1.2,4,4,0,0,0-2-.42,3.84,3.84,0,0,0-2.08.47,1.47,1.47,0,0,0-.71,1.34v.32h-2V6.94a3.22,3.22,0,0,1,1.22-2.7,5.67,5.67,0,0,1,3.52-.94,5.87,5.87,0,0,1,3.5.91,2.86,2.86,0,0,1,1.28,2.49v.16a3.14,3.14,0,0,1-.32,1.48,3.81,3.81,0,0,1-1.12,1.24,17.52,17.52,0,0,1-2.3,1.49l-2,1.12Zm9.14,2a6.69,6.69,0,0,1-2.91-.6,4.64,4.64,0,0,1-2-1.64,4.48,4.48,0,0,1-.69-2.47V8a4.48,4.48,0,0,1,.69-2.47,4.61,4.61,0,0,1,2-1.66,6.69,6.69,0,0,1,2.91-.59,6.56,6.56,0,0,1,2.88.59,4.55,4.55,0,0,1,1.95,1.66,4.48,4.48,0,0,1,.69,2.47V9.47a4.37,4.37,0,0,1-2.63,4.13A6.87,6.87,0,0,1,4558.53,14.18Zm0-1.86a4.12,4.12,0,0,0,2.61-.74,2.51,2.51,0,0,0,.92-2.08V8a2.5,2.5,0,0,0-.94-2.08,4,4,0,0,0-2.61-.77,4.11,4.11,0,0,0-2.62.75,2.55,2.55,0,0,0-1,2.1V9.5a2.51,2.51,0,0,0,1,2.08A4.21,4.21,0,0,0,4558.53,12.32Z"/> <path class="cls-1" d="M4309.68,14.18h1.73V1.4h-1.73Zm-3-7.06V5.61l-5.4-2-.54,1.55Zm7.63,0,5.94-2-.54-1.55-5.4,2Zm-13,4.86,5.4-2V8.45l-5.94,2Zm18.43,0,.54-1.55-5.94-2V10Z"/> <path class="cls-1" d="M4309.68,14.18h-.25v.25h.25Zm1.73,0v.25h.25v-.25Zm0-12.78h.25V1.15h-.25Zm-1.73,0V1.15h-.25V1.4Zm-3,5.72-.08.24.33.11V7.12Zm0-1.51h.25V5.43l-.16-.06Zm-5.4-2,.09-.23-.24-.09-.09.24Zm-.54,1.55-.24-.08-.08.24.24.08Zm13.57,2h-.25v.35l.33-.11Zm5.94-2,.08.24.24-.08-.08-.24Zm-.54-1.55.24-.08-.09-.24-.24.09Zm-5.4,2-.09-.24-.16.06v.18Zm-13,6.37-.24.08.09.24.24-.09Zm5.4-2,.09.24.16-.06V10Zm0-1.51h.25V8.11l-.33.1Zm-5.94,2-.08-.24-.24.09.08.23Zm19,1.55-.09.23.24.09.09-.24Zm.54-1.55.24.08.08-.23-.24-.09Zm-5.94-2,.08-.24-.33-.1v.34Zm0,1.51h-.25v.18l.16.06Zm-4.68,4.47h1.73v-.5h-1.73Zm2-.25V1.4h-.5V14.18Zm-.25-13h-1.73v.5h1.73Zm-2,.25V14.18h.5V1.4ZM4307,7.12V5.61h-.5V7.12Zm-.16-1.75-5.4-2-.18.47,5.4,2Zm-5.73-1.86-.54,1.55.48.16.54-1.55Zm-.38,1.87,5.94,2,.16-.48-5.94-2Zm13.73,2,5.94-2-.16-.48-5.94,2Zm6.1-2.3L4320,3.51l-.47.16.54,1.55Zm-.87-1.7-5.4,2,.18.47,5.4-2Zm-5.56,2.25V7.12h.5V5.61Zm-12.69,6.6,5.4-2-.18-.47-5.4,2ZM4307,10V8.45h-.5V10Zm-.33-1.75-5.94,2,.16.48,5.94-2Zm-6.1,2.3.54,1.55.48-.16-.54-1.55ZM4320,12.06l.54-1.55-.47-.16-.54,1.55Zm.38-1.87-5.94-2-.16.48,5.94,2Zm-6.27-1.74V10h.5V8.45Zm.16,1.75,5.4,2,.18-.46-5.4-2Z"/> <path class="cls-1" d="M4592.68,14.18h1.73V1.4h-1.73Zm-3-7.06V5.61l-5.4-2-.54,1.55Zm7.63,0,5.94-2-.54-1.55-5.4,2Zm-13,4.86,5.4-2V8.45l-5.94,2Zm18.43,0,.54-1.55-5.94-2V10Z"/> <path class="cls-1" d="M4592.68,14.18h-.25v.25h.25Zm1.73,0v.25h.25v-.25Zm0-12.78h.25V1.15h-.25Zm-1.73,0V1.15h-.25V1.4Zm-3,5.72-.08.24.33.11V7.12Zm0-1.51h.25V5.43l-.16-.06Zm-5.4-2,.09-.23-.24-.09-.09.24Zm-.54,1.55-.24-.08-.08.24.24.08Zm13.57,2h-.25v.35l.33-.11Zm5.94-2,.08.24.24-.08-.08-.24Zm-.54-1.55.24-.08-.09-.24-.24.09Zm-5.4,2-.09-.24-.16.06v.18Zm-13,6.37-.24.08.09.24.24-.09Zm5.4-2,.09.24.16-.06V10Zm0-1.51h.25V8.11l-.33.1Zm-5.94,2-.08-.24-.24.09.08.23Zm19,1.55-.09.23.24.09.09-.24Zm.54-1.55.24.08.08-.23-.24-.09Zm-5.94-2,.08-.24-.33-.1v.34Zm0,1.51h-.25v.18l.16.06Zm-4.68,4.47h1.73v-.5h-1.73Zm2-.25V1.4h-.5V14.18Zm-.25-13h-1.73v.5h1.73Zm-2,.25V14.18h.5V1.4ZM4590,7.12V5.61h-.5V7.12Zm-.16-1.75-5.4-2-.18.47,5.4,2Zm-5.73-1.86-.54,1.55.48.16.54-1.55Zm-.38,1.87,5.94,2,.16-.48-5.94-2Zm13.73,2,5.94-2-.16-.48-5.94,2Zm6.1-2.3L4603,3.51l-.47.16.54,1.55Zm-.87-1.7-5.4,2,.18.47,5.4-2Zm-5.56,2.25V7.12h.5V5.61Zm-12.69,6.6,5.4-2-.18-.47-5.4,2ZM4590,10V8.45h-.5V10Zm-.33-1.75-5.94,2,.16.48,5.94-2Zm-6.1,2.3.54,1.55.48-.16-.54-1.55ZM4603,12.06l.54-1.55-.47-.16-.54,1.55Zm.38-1.87-5.94-2-.16.48,5.94,2Zm-6.27-1.74V10h.5V8.45Zm.16,1.75,5.4,2,.18-.46-5.4-2Z"/> </g> </g> </svg>