<svg width="1680" height="920" viewBox="0 0 1680 920" fill="none" xmlns="http://www.w3.org/2000/svg">
<mask id="mask0" mask-type="alpha" maskUnits="userSpaceOnUse" x="0" y="0" width="1680" height="920">
<rect width="1680" height="920" fill="#C4C4C4"/>
</mask>
<g mask="url(#mask0)">
<g opacity="0.7" filter="url(#filter0_f)">
<circle cx="840" cy="1753" r="941" fill="#00A7D8"/>
</g>
<g opacity="0.6">
<path opacity="0.6" d="M1737.5 1032.51C1737.16 1033.55 1736.81 1034.59 1736.46 1035.63C1732.3 1047.08 1726.05 1064.78 1716.68 1071.37C1703.5 1080.4 1684.06 1082.48 1665.32 1084.56C1655.96 1085.6 1647.28 1086.29 1639.65 1088.38C1636.52 1089.07 1633.05 1089.76 1629.58 1090.46C1611.54 1093.93 1589.33 1098.44 1581.35 1112.67C1575.79 1122.04 1571.98 1133.84 1569.9 1147.37C1562.61 1192.48 1582.04 1244.88 1620.21 1283.4C1635.13 1298.67 1652.48 1311.85 1670.88 1323.65H1669.14C1651.1 1312.2 1634.44 1299.01 1619.52 1284.09C1601.13 1265.7 1586.9 1243.49 1577.88 1220.59C1568.16 1195.95 1565.38 1170.62 1568.85 1147.37C1570.94 1133.49 1575.1 1121.69 1580.31 1112.32C1588.63 1097.75 1611.19 1093.23 1629.23 1089.76C1632.71 1089.07 1636.18 1088.38 1639.3 1087.68C1647.28 1085.95 1655.96 1084.91 1665.32 1083.87C1683.72 1081.78 1703.15 1080.05 1715.99 1071.03C1725.36 1064.78 1731.26 1047.43 1735.42 1035.98C1735.77 1034.94 1736.12 1033.9 1736.46 1032.85C1746.18 1006.13 1748.26 975.597 1742.71 944.713C1732.3 886.414 1696.56 829.851 1645.2 790.291C1554.28 720.194 1431.44 695.556 1323.17 673.694C1292.98 667.448 1259.66 658.772 1224.27 649.403C1111.49 619.56 983.44 585.552 888.358 623.724L881.071 626.5C829.019 647.321 775.231 669.183 715.198 651.485C679.455 641.075 649.959 619.213 621.504 597.698C595.825 578.612 569.105 558.832 537.873 547.381C503.519 534.888 466.041 532.459 429.605 529.683C402.19 527.948 374.082 525.866 347.362 519.966C345.627 519.619 343.545 519.272 341.81 518.578C264.772 499.493 203.004 448.481 143.664 398.858L135.683 392.265C96.1233 359.299 51.3583 324.597 1.38818 302.041V301C51.7053 323.556 96.4703 358.258 136.377 391.571L144.358 398.164C203.698 447.44 265.119 498.798 342.157 517.884C343.892 518.231 345.627 518.925 347.709 519.272C374.429 525.172 402.537 527.254 429.952 528.989C466.388 531.418 504.213 534.194 538.567 546.687C569.799 558.138 596.519 577.918 622.545 597.351C651 618.519 680.496 640.381 715.892 650.791C775.578 668.489 826.937 647.668 881.071 625.806L888.358 623.03C983.787 584.858 1111.84 618.866 1224.96 648.709C1260.36 658.078 1293.32 666.754 1323.86 673C1432.13 694.862 1554.97 719.5 1646.24 789.597C1697.94 829.504 1733.69 885.72 1744.1 944.366C1749.3 975.25 1747.22 1005.79 1737.5 1032.51Z" fill="#00A7D8"/>
</g>
<g opacity="0.6">
<path opacity="0.6" d="M1704.88 1037.37C1703.84 1042.22 1701.76 1049.86 1699.33 1057.49C1696.21 1065.82 1692.74 1072.07 1688.92 1075.19C1677.82 1084.91 1661.51 1088.38 1645.54 1091.85C1637.56 1093.58 1629.93 1095.32 1622.99 1097.4C1620.21 1098.44 1617.44 1099.13 1614.66 1100.18C1609.8 1101.56 1604.94 1103.3 1600.09 1105.03C1595.23 1106.77 1591.06 1108.85 1587.59 1110.59C1579.26 1115.1 1574.06 1119.26 1570.59 1124.47C1568.85 1126.9 1567.47 1129.32 1566.43 1131.75C1561.91 1141.47 1559.14 1149.8 1558.1 1158.47C1556.71 1168.88 1556.71 1179.29 1557.75 1190.05C1561.57 1225.1 1579.26 1262.23 1606.33 1291.38C1613.62 1299.36 1621.95 1307 1630.62 1314.28C1632.71 1316.02 1635.13 1317.75 1637.22 1319.84C1638.95 1321.22 1640.69 1322.61 1642.42 1324H1641.03C1639.65 1322.96 1637.91 1321.92 1636.52 1320.53C1634.09 1318.79 1632.01 1317.06 1629.93 1314.98C1621.25 1307.69 1612.93 1300.06 1605.64 1292.07C1578.22 1262.58 1560.53 1225.45 1556.71 1190.4C1555.67 1179.64 1555.67 1168.88 1557.06 1158.82C1558.1 1150.49 1560.87 1141.82 1565.38 1132.1C1566.43 1129.67 1567.81 1127.59 1569.55 1124.81C1573.02 1119.61 1578.57 1115.1 1586.9 1110.59C1590.37 1108.85 1594.53 1107.12 1599.39 1105.03C1604.25 1103.3 1609.11 1101.56 1613.97 1100.18C1617.09 1099.13 1619.87 1098.44 1622.29 1097.4C1629.23 1094.97 1636.87 1093.24 1644.85 1091.85C1660.81 1088.38 1677.12 1084.91 1687.88 1075.54C1691.7 1072.41 1694.82 1066.51 1697.94 1058.19C1700.72 1050.9 1702.46 1042.92 1703.5 1038.41C1709.4 1012.73 1708.35 985.314 1700.03 956.858C1694.82 938.814 1686.84 920.769 1676.08 903.418C1666.02 887.108 1653.87 871.146 1639.99 856.918C1626.81 843.037 1612.58 830.198 1596.96 819.093C1592.1 815.623 1587.25 812.153 1582.39 808.683C1545.6 783.698 1502.92 763.224 1452.26 745.526C1424.5 735.81 1393.61 727.134 1355.09 717.418C1334.97 712.56 1314.84 707.702 1290.55 702.149C1264.18 696.25 1235.37 688.269 1205.18 679.593C1149.31 663.978 1091.36 648.015 1034.1 639.687C999.403 634.828 970.254 633.44 944.228 635.87C919.243 638.299 897.034 643.851 875.519 653.22L871.702 654.955C867.537 656.69 863.373 658.425 859.556 660.161C825.549 674.735 788.418 687.922 748.858 686.534C735.325 686.187 722.832 684.105 709.646 680.287C692.989 675.429 676.332 668.142 657.94 657.037C652.041 653.567 646.142 649.75 639.202 644.892C632.608 640.381 626.015 635.87 619.422 631.358C594.09 613.661 567.716 595.269 537.526 584.858C508.724 574.795 477.146 572.366 449.384 569.937L444.873 569.59C434.81 568.896 424.399 567.855 414.336 566.814C390.739 564.384 372.694 561.608 355.69 557.444C338.34 553.28 319.948 547.381 299.821 539.399C280.735 531.765 261.302 522.049 239.787 509.903C222.784 500.187 204.739 488.388 183.224 473.467C175.243 467.914 167.261 462.362 159.627 456.81C156.157 454.381 152.34 451.605 148.87 449.176C127.008 433.907 100.981 416.209 74.2613 400.593C48.9292 385.672 24.9852 374.567 1.38818 366.586V365.545C25.3322 373.526 49.2762 384.631 74.9553 399.899C102.022 415.515 127.702 433.213 149.911 448.829C153.381 451.258 157.198 454.034 160.668 456.463C168.302 462.015 176.284 467.567 184.265 473.12C205.78 488.041 223.825 499.493 240.828 509.209C262.343 521.702 281.776 531.418 300.862 538.705C320.989 546.687 339.381 552.586 356.731 556.403C373.388 560.22 391.433 563.343 415.377 565.773C425.44 566.814 435.851 567.508 445.914 568.549L450.425 568.896C478.187 570.978 509.418 573.754 538.567 583.817C568.758 594.228 595.478 612.62 620.81 630.664C627.403 635.175 633.996 639.687 640.59 644.198C647.53 648.709 653.776 652.873 659.328 656.343C677.72 667.448 694.377 674.735 710.687 679.593C723.526 683.411 736.366 685.146 749.552 685.84C788.765 687.228 825.896 674.041 859.903 659.467C864.067 657.731 868.231 655.996 872.049 654.261L875.866 652.526C897.381 643.157 919.937 637.605 944.922 635.176C970.948 632.746 1000.44 633.787 1035.15 638.993C1092.4 647.321 1150.35 663.284 1206.22 678.899C1236.41 687.228 1265.22 695.209 1291.59 701.455C1315.53 707.008 1336.01 711.519 1356.13 716.724C1394.65 726.44 1425.54 735.116 1453.3 744.832C1503.96 762.53 1546.99 783.004 1583.78 807.989C1588.63 811.459 1593.84 814.929 1598.35 818.399C1613.62 829.851 1628.19 842.69 1641.38 856.571C1655.26 871.146 1667.41 886.761 1677.47 903.418C1688.23 920.769 1696.21 939.161 1701.41 957.205C1709.74 984.272 1710.78 1011.69 1704.88 1037.37Z" fill="#00A7D8"/>
</g>
<g opacity="0.6">
<path opacity="0.6" d="M1671.92 1042.22C1671.22 1049.51 1670.18 1056.1 1668.45 1061.66C1666.37 1069.64 1663.59 1075.54 1660.47 1079.35C1651.79 1089.42 1637.91 1094.62 1624.38 1099.13C1617.44 1101.56 1610.84 1103.99 1605.29 1106.77C1603.21 1107.81 1600.78 1108.85 1598.35 1110.24C1594.19 1112.32 1590.02 1114.06 1586.21 1116.49C1582.04 1118.91 1578.57 1121 1575.79 1122.73C1569.9 1126.9 1563.65 1131.06 1559.49 1136.61C1558.1 1138.35 1556.71 1140.78 1555.32 1143.55C1551.5 1150.84 1547.34 1159.51 1546.3 1169.58C1545.26 1179.64 1545.26 1190.05 1546.3 1200.12C1550.12 1234.12 1567.12 1269.87 1592.45 1299.01C1599.39 1307 1607.03 1314.63 1615.01 1321.57C1615.7 1321.92 1616.05 1322.61 1616.74 1322.96H1615.35C1615.01 1322.61 1614.66 1322.26 1614.31 1321.92C1605.98 1314.63 1598.35 1307 1591.41 1299.01C1565.73 1269.87 1549.07 1233.78 1544.91 1199.77C1543.87 1189.36 1543.52 1178.95 1544.91 1168.88C1545.95 1158.47 1550.46 1150.15 1553.93 1142.51C1555.32 1139.74 1556.71 1137.65 1558.1 1135.57C1562.26 1130.02 1568.51 1125.51 1574.41 1121.34C1577.18 1119.26 1580.65 1117.18 1585.16 1114.75C1589.33 1112.32 1593.49 1110.59 1597.66 1108.5C1600.09 1107.46 1602.51 1106.07 1604.6 1105.03C1610.5 1101.91 1616.74 1099.83 1623.68 1097.4C1636.87 1092.54 1650.75 1087.68 1659.43 1077.62C1662.55 1074.15 1664.98 1068.25 1667.06 1060.27C1668.45 1054.72 1669.84 1048.12 1670.53 1041.18C1672.96 1016.89 1668.79 992.601 1657.34 966.228C1650.75 950.612 1641.03 934.996 1629.24 919.728C1618.48 905.5 1605.64 891.966 1591.41 878.78C1577.53 865.94 1563.3 854.489 1548.73 844.425C1544.22 841.302 1539.36 837.832 1534.5 834.709C1498.06 810.765 1456.42 789.944 1410.62 772.94C1384.59 763.224 1355.44 753.855 1318.66 743.791C1297.49 737.892 1275.97 732.34 1257.58 727.481C1235.37 721.582 1212.12 714.642 1187.14 707.355C1133 691.392 1071.93 673.347 1013.28 664.325C979.276 659.12 951.168 658.078 927.571 660.855C905.015 663.631 883.847 669.877 863.026 679.593L862.332 679.94C857.474 682.023 852.616 684.452 847.758 686.534C807.157 704.925 773.496 712.907 741.918 711.519C729.078 711.172 716.933 709.09 704.44 705.62C688.478 701.108 672.515 694.168 654.47 684.105C649.265 680.981 643.366 677.511 636.078 673C630.179 669.183 624.28 665.366 618.381 661.549C591.661 644.198 566.328 627.541 536.832 618.172C512.194 610.19 486.515 607.761 459.448 605.679L453.202 604.985C443.138 604.291 431.34 602.903 419.888 601.515C399.414 598.739 381.023 595.616 364.019 591.452C345.974 586.94 328.276 581.388 310.231 575.489C291.84 569.59 273.448 561.955 251.586 551.892C233.888 543.564 216.19 534.541 195.717 522.743C188.082 518.578 180.795 514.067 173.508 509.903C169.343 507.474 165.526 505.392 161.362 502.963C141.235 491.511 114.515 476.243 87.4479 462.709C56.9106 447.44 28.8024 437.03 0.347168 430.09V429.049C28.8024 435.989 56.9106 446.399 87.7949 461.668C114.862 475.202 141.582 490.47 161.709 501.922C165.873 504.351 169.69 506.433 173.855 508.862C181.142 513.026 188.776 517.537 196.064 521.702C216.537 533.5 234.582 542.522 251.933 550.851C273.795 560.914 292.187 568.549 310.578 574.448C327.929 580 345.28 585.552 362.631 590.064C363.325 590.064 363.672 590.411 364.366 590.411C381.37 594.575 399.414 597.698 419.888 600.474C431.34 601.862 443.138 602.903 453.202 603.944L459.448 604.638C486.515 607.067 511.847 609.149 536.832 617.131C566.676 626.847 591.661 643.157 618.728 660.855C624.627 664.672 630.526 668.489 636.425 672.306C643.713 676.817 649.265 680.287 654.817 683.411C672.862 693.821 688.478 700.414 704.44 704.925C716.933 708.396 729.078 710.131 741.571 710.825C772.802 711.866 806.463 703.884 847.064 685.84C851.922 683.758 856.78 681.328 861.638 679.246L862.332 678.899C883.5 668.836 904.668 662.937 927.224 659.814C951.168 657.037 979.276 658.078 1013.28 663.284C1071.93 672.306 1133 690.351 1187.14 706.314C1212.12 713.601 1235.37 720.541 1257.58 726.44C1275.97 731.299 1297.49 736.851 1318.66 742.75C1355.44 752.814 1384.59 762.183 1410.62 771.899C1456.42 788.903 1498.41 809.724 1534.85 833.668C1539.71 836.791 1544.56 839.914 1549.07 843.384C1563.3 853.448 1577.88 865.246 1591.76 878.086C1605.98 891.272 1618.48 904.806 1629.58 919.034C1641.38 934.302 1650.75 950.265 1657.69 965.881C1670.18 993.295 1674.35 1017.93 1671.92 1042.22Z" fill="#00A7D8"/>
</g>
<g opacity="0.6">
<path opacity="0.6" d="M1637.91 1065.82C1636.87 1073.46 1634.79 1079.35 1632.36 1083.17C1625.76 1093.93 1614.66 1100.18 1603.56 1106.42C1598 1109.54 1592.8 1112.67 1588.29 1116.14C1586.55 1117.53 1584.82 1118.57 1583.08 1119.96C1579.61 1122.38 1576.14 1124.81 1572.67 1127.59C1569.9 1130.02 1566.77 1132.45 1564 1134.88C1562.61 1135.92 1561.22 1137.31 1559.83 1138.35C1555.67 1141.82 1551.85 1144.94 1548.73 1148.76C1546.99 1150.84 1545.6 1152.92 1544.22 1155C1543.52 1156.04 1543.18 1157.09 1542.48 1158.13C1539.01 1164.37 1535.19 1171.31 1534.5 1180.34C1533.46 1190.05 1533.81 1200.12 1535.19 1210.18C1539.36 1243.15 1554.63 1277.5 1578.92 1306.65C1583.43 1312.2 1588.29 1317.75 1593.49 1322.96H1592.1C1587.25 1317.75 1582.39 1312.55 1577.88 1307.34C1553.59 1277.85 1538.32 1243.49 1534.15 1210.53C1532.76 1200.46 1532.76 1190.4 1533.46 1180.68C1534.5 1171.31 1538.32 1164.37 1541.79 1158.13C1542.48 1157.09 1542.83 1156.04 1543.52 1155C1544.56 1152.92 1546.3 1150.84 1548.03 1148.41C1551.16 1144.59 1554.97 1141.47 1559.48 1138C1560.87 1136.96 1562.26 1135.57 1563.65 1134.53C1566.43 1132.1 1569.55 1129.67 1572.32 1127.24C1575.79 1124.47 1579.26 1122.04 1582.73 1119.61C1584.47 1118.22 1586.21 1116.83 1587.94 1115.79C1592.45 1112.32 1598 1109.2 1603.56 1106.07C1614.31 1099.83 1625.76 1093.24 1632.01 1082.82C1634.44 1079.01 1636.18 1073.11 1637.22 1065.82C1638.26 1058.19 1638.26 1050.9 1638.26 1047.43C1637.56 1025.22 1629.93 1002.66 1615.35 979.067C1607.03 965.881 1596.62 952.694 1583.43 939.16C1571.63 927.362 1558.79 915.91 1543.87 904.112C1528.6 891.966 1514.72 881.903 1501.53 873.228C1497.02 870.105 1492.51 867.328 1487.65 864.205C1450.52 840.608 1410.96 820.481 1370.01 803.825C1345.72 793.761 1319 784.392 1283.26 773.634C1266.6 768.429 1248.21 762.877 1225.66 756.284C1208.65 751.425 1190.96 745.526 1172.22 739.627C1117.04 722.276 1054.23 702.496 993.504 692.78C960.19 687.575 934.164 686.534 911.608 690.004C891.481 693.127 872.048 699.373 850.881 710.131C846.022 712.56 841.511 714.989 836.653 717.071C800.91 734.422 766.903 742.403 735.672 741.015C723.526 740.668 711.728 738.586 699.929 735.463C684.66 731.299 669.045 725.052 651.694 715.683C646.142 712.56 640.59 709.437 633.996 705.62C628.791 702.496 623.933 699.72 618.728 696.597C592.007 680.287 566.328 665.019 537.526 656.343C516.358 649.75 494.843 648.015 472.287 646.28C467.776 645.933 462.918 645.586 458.407 645.239C449.731 644.545 438.28 643.157 426.481 641.422C409.131 638.646 391.78 634.828 373.735 630.317C364.713 627.888 355.69 625.459 347.015 623.03C338.687 620.948 330.358 618.519 322.03 616.437C300.168 610.884 280.041 603.944 264.772 598.739C246.728 592.493 228.683 585.205 209.597 576.877C201.963 573.407 193.981 569.937 186.694 566.466C182.877 564.731 179.407 562.996 175.59 561.608C154.075 551.892 128.396 540.787 102.37 530.03C69.4031 516.496 40.9479 507.821 10.0636 502.269C7.28744 501.575 4.1643 501.228 1.38818 500.534V499.493C4.51132 500.187 7.28744 500.534 10.4106 501.228C41.2949 506.78 69.7501 515.455 103.064 528.989C129.09 539.746 154.422 550.851 176.284 560.567C180.101 562.302 183.571 564.037 187.388 565.425C195.022 568.896 202.657 572.366 210.291 575.836C229.377 584.164 247.422 591.452 265.466 597.698C280.388 602.903 300.515 609.843 322.377 615.396C330.705 617.478 339.381 619.907 347.362 621.989C356.037 624.418 365.06 626.847 374.082 629.276C392.127 633.787 409.478 637.605 426.828 640.381C438.28 642.463 449.731 643.504 458.407 644.198C462.918 644.545 467.776 644.892 472.287 645.239C495.19 647.321 516.705 649.056 537.873 655.302C567.022 664.325 592.354 679.593 619.422 695.903C624.28 699.026 629.485 702.149 634.69 704.925C641.284 708.743 646.836 711.866 652.388 714.989C669.739 724.358 685.007 730.605 700.276 734.769C712.075 737.892 723.873 739.627 735.672 740.321C766.903 741.709 800.563 733.728 836.306 716.377C841.164 713.948 845.675 711.866 850.534 709.437C871.701 698.679 891.134 692.086 911.608 688.963C934.164 685.493 960.537 686.534 993.851 691.739C1054.58 701.455 1117.39 721.235 1172.56 738.586C1191.3 744.485 1209 750.037 1226 755.243C1248.56 761.836 1266.95 767.388 1283.61 772.593C1319 783.698 1345.72 793.067 1370.36 802.784C1411.31 819.44 1450.87 839.567 1488 863.164C1492.51 865.94 1497.37 869.064 1501.88 872.187C1515.07 880.862 1528.95 890.925 1544.22 903.071C1559.14 914.869 1571.98 926.321 1583.78 938.119C1596.96 951.653 1607.72 964.84 1615.7 978.026C1630.28 1001.97 1637.91 1024.53 1638.95 1046.74C1639.3 1050.9 1639.3 1058.19 1637.91 1065.82Z" fill="#00A7D8"/>
</g>
<g opacity="0.6">
<path opacity="0.6" d="M1607.37 1069.99C1607.03 1076.93 1605.98 1082.82 1604.25 1087.34C1600.09 1098.44 1591.06 1106.77 1582.39 1114.4C1578.57 1117.87 1574.41 1121.69 1570.94 1125.51C1569.9 1126.9 1568.51 1127.94 1567.47 1129.32C1564.69 1132.45 1561.91 1135.57 1559.14 1139.04L1558.79 1139.39C1556.36 1142.16 1554.28 1144.94 1552.2 1147.37C1549.42 1150.49 1546.65 1152.92 1543.87 1155.7C1541.79 1157.78 1539.7 1159.52 1537.62 1161.6C1535.89 1163.33 1534.15 1165.07 1533.11 1167.5C1532.42 1168.88 1531.72 1169.93 1530.68 1171.31C1527.21 1176.87 1523.4 1183.11 1522.7 1192.13C1522.01 1201.16 1522.35 1211.22 1523.74 1220.94C1527.91 1252.52 1542.48 1286.18 1564.69 1314.98C1566.77 1317.75 1569.2 1320.53 1571.28 1323.31H1569.9C1567.81 1320.88 1565.73 1318.1 1563.65 1315.67C1541.44 1286.52 1526.52 1252.86 1522.35 1221.28C1520.97 1211.57 1520.62 1201.5 1521.31 1192.48C1522.01 1183.46 1525.82 1176.87 1529.64 1171.31C1530.34 1169.93 1531.38 1168.54 1532.07 1167.5C1533.46 1165.07 1535.19 1163.33 1536.93 1161.6C1538.66 1159.52 1540.75 1157.78 1543.18 1155.7C1545.95 1153.27 1548.73 1150.84 1551.5 1147.72C1553.59 1145.29 1555.67 1142.86 1558.1 1139.74L1558.44 1139.39C1561.22 1135.92 1564 1132.79 1566.77 1129.67C1568.16 1128.28 1569.2 1126.9 1570.24 1125.85C1573.71 1122.04 1577.88 1118.22 1581.69 1114.4C1590.37 1106.42 1599.04 1098.44 1603.21 1087.68C1604.94 1083.52 1605.98 1077.62 1605.98 1070.68C1606.33 1064.78 1605.64 1058.53 1604.6 1052.98C1600.78 1031.81 1590.37 1012.38 1571.98 991.213C1562.26 980.108 1551.16 969.698 1535.89 958.247C1524.09 949.224 1510.9 939.855 1494.94 929.097L1490.43 925.974C1478.28 917.993 1465.79 909.664 1452.95 901.683C1448.44 898.907 1443.93 896.131 1439.42 893.355C1399.86 869.064 1363.42 849.978 1328.03 834.362C1305.47 824.299 1280.14 814.582 1246.82 802.784C1230.17 796.885 1212.47 790.985 1192.69 784.739C1181.93 781.269 1170.83 777.452 1159.03 773.288C1101.43 753.855 1036.53 731.646 972.683 720.888C940.41 715.336 915.425 714.642 894.604 718.459C871.701 722.623 853.657 731.299 838.041 740.321C833.877 742.75 829.366 745.179 824.854 747.608C793.623 763.918 759.616 771.899 728.731 770.511C717.28 769.817 705.828 768.429 694.724 765.306C680.149 761.489 664.88 755.59 648.224 747.261C642.324 744.485 636.772 741.362 630.873 738.239C626.709 736.157 622.892 733.728 619.075 731.646C591.66 716.377 565.981 702.15 537.179 694.168C519.134 688.963 501.089 687.575 482.004 686.187C475.757 685.84 469.164 685.146 462.224 684.452C450.772 683.411 441.056 682.023 432.033 679.941C415.724 676.817 400.455 672.653 382.063 668.142L377.552 667.101C362.978 663.284 348.056 659.12 332.44 656.344C311.966 652.526 292.881 648.362 276.918 644.545C258.179 640.034 240.134 635.176 222.436 629.623C213.067 626.847 204.045 623.724 195.369 620.948L188.429 618.866C178.366 615.743 168.302 612.62 158.586 609.497C144.011 604.985 130.131 600.474 116.25 595.963C93.347 588.676 64.8918 580.694 26.7201 575.142C21.1679 574.448 15.6156 573.407 10.0634 572.713C6.94027 572.366 4.16415 571.672 1.04102 571.325V570.284C4.16415 570.631 7.28728 571.325 10.4104 571.672C15.9627 572.366 21.5149 573.407 27.0671 574.101C65.2388 579.653 93.694 587.982 116.944 595.269C130.825 599.78 145.052 604.291 159.28 608.803C168.996 611.926 179.06 615.049 189.123 618.172L196.063 620.254C204.739 623.03 213.761 625.806 223.131 628.929C241.175 634.482 258.873 639.34 277.612 643.504C293.575 647.321 313.007 651.485 333.134 655.302C348.75 658.079 363.672 662.243 378.246 666.06L382.757 667.101C400.802 671.959 416.418 675.776 432.38 678.9C441.403 680.635 451.119 682.023 462.571 683.411C469.164 684.105 475.757 684.452 482.351 685.146C501.436 686.534 519.481 688.269 537.873 693.127C566.675 701.108 592.354 715.683 619.768 730.605C623.586 732.687 627.75 735.116 631.567 737.198C637.466 740.321 643.019 743.444 648.918 746.22C665.575 754.549 680.496 760.448 695.071 763.918C695.418 763.918 696.112 764.265 696.459 764.265C707.216 767.041 717.974 768.429 729.078 769.123C759.615 770.511 793.623 762.53 824.854 746.567C829.366 744.138 833.877 741.709 838.041 739.28C854.004 730.258 872.048 721.582 894.951 717.418C916.119 713.601 940.757 714.295 973.377 719.847C1037.23 730.605 1102.47 752.814 1159.72 772.247C1171.52 776.064 1182.63 779.881 1193.38 783.698C1213.16 790.291 1230.86 796.191 1247.52 801.743C1281.18 813.541 1306.16 823.258 1329.07 833.321C1364.46 848.937 1400.9 868.37 1440.46 892.314C1444.97 895.09 1449.48 897.866 1453.99 900.642C1466.83 908.623 1479.32 916.952 1491.47 924.933L1495.98 928.056C1511.94 938.814 1525.48 948.183 1537.28 957.205C1552.2 968.657 1563.65 979.414 1573.37 990.172C1591.76 1011.34 1602.51 1031.12 1606.33 1052.63C1607.37 1057.84 1607.72 1064.09 1607.37 1069.99Z" fill="#00A7D8"/>
</g>
<g opacity="0.6">
<path d="M1576.49 1091.15C1574.41 1103.3 1567.81 1113.36 1561.57 1123.08C1559.14 1126.9 1556.36 1131.06 1554.28 1135.22L1553.93 1135.92C1551.5 1140.43 1548.38 1145.63 1545.95 1150.84C1544.22 1154.31 1542.48 1157.43 1540.75 1159.86C1537.28 1164.72 1533.81 1167.84 1530.34 1170.97C1529.29 1172.01 1528.25 1172.7 1527.21 1173.74C1525.48 1175.48 1523.74 1177.21 1522.35 1179.29C1521.66 1180.68 1520.62 1182.07 1519.58 1183.46C1515.76 1188.66 1511.6 1194.56 1511.25 1203.59C1510.9 1212.26 1511.25 1221.63 1512.64 1231.35C1517.15 1261.88 1530.68 1294.5 1551.16 1322.96C1551.16 1322.96 1551.16 1323.31 1551.5 1323.31H1550.46C1529.99 1294.5 1516.46 1261.88 1511.94 1231.35C1510.56 1221.63 1509.86 1211.91 1510.56 1203.24C1510.9 1193.87 1515.41 1187.62 1518.88 1182.77C1519.93 1181.38 1520.97 1179.99 1521.66 1178.6C1523.05 1176.52 1524.78 1174.44 1526.52 1173.05C1527.56 1172.01 1528.6 1171.31 1529.64 1170.27C1533.11 1167.15 1536.93 1164.03 1540.05 1159.17C1541.79 1156.74 1543.52 1153.62 1545.26 1150.15C1548.03 1144.94 1550.81 1140.08 1553.24 1135.22L1553.59 1134.53C1556.01 1130.37 1558.44 1126.55 1560.87 1122.38C1567.12 1112.67 1573.71 1102.6 1575.79 1090.81C1576.84 1085.95 1576.84 1080.4 1576.14 1074.15C1575.79 1068.25 1574.41 1062.35 1572.67 1057.15C1566.08 1037.37 1552.54 1019.67 1530.34 1001.97C1519.93 993.295 1507.43 985.314 1490.43 975.944C1481.75 971.086 1472.38 966.228 1462.67 961.023C1457.81 958.246 1452.6 955.47 1447.4 952.694C1434.91 945.754 1422.07 938.467 1409.92 931.179L1405.76 928.75C1401.59 926.321 1397.08 923.545 1392.92 921.116C1356.13 899.254 1322.82 880.168 1288.12 863.511C1261.4 850.672 1233.29 839.22 1212.12 830.892C1195.47 824.299 1178.46 818.052 1161.46 811.806L1152.44 808.336C1091.36 785.78 1022.31 759.754 953.597 747.261C922.366 741.709 898.769 741.015 879.683 745.179C858.862 749.69 842.899 758.713 826.937 768.429C823.466 770.511 818.955 773.288 814.444 775.717C787.03 790.985 753.716 798.967 723.179 797.232C712.075 796.538 701.664 795.149 690.56 792.373C690.213 792.373 690.213 792.373 689.866 792.373C675.985 788.903 661.758 783.698 645.795 776.411C639.896 773.635 634.343 770.858 629.138 768.082L622.198 764.612C593.743 750.385 567.022 736.851 538.22 729.564C522.952 725.746 507.683 724.705 491.72 723.664C484.086 722.97 476.105 722.623 467.776 721.582C457.019 720.541 447.996 718.806 439.321 716.724C427.869 713.948 416.418 710.825 405.661 707.702C401.149 706.314 396.985 705.273 392.474 703.885C375.47 699.026 360.896 695.556 344.933 694.168C325.5 692.086 306.761 690.004 290.799 688.269C271.019 686.187 253.321 683.411 237.011 680.635C225.213 678.552 213.414 676.47 203.351 674.388C180.448 669.877 157.198 665.366 131.866 659.814C107.922 654.608 81.2016 649.403 45.1121 645.586C33.3136 644.198 21.168 642.463 10.7576 640.728L1.38818 639.34V638.299L9.71654 639.687C20.127 641.422 31.9255 643.157 44.071 644.545C80.1606 648.362 107.228 653.567 130.825 658.773C156.157 663.978 179.407 668.836 202.31 673.347C212.373 675.429 224.172 677.511 235.97 679.594C252.28 682.37 269.978 684.799 289.758 687.228C305.72 688.963 324.459 691.045 343.892 693.127C359.855 694.862 374.429 698.332 391.433 703.191C395.944 704.579 400.108 705.62 404.619 707.008C415.377 710.131 426.828 713.254 438.28 716.03C446.955 718.112 455.978 719.5 466.735 720.888C475.064 721.929 483.045 722.276 490.679 722.97C506.642 724.011 521.563 725.052 536.485 728.87C536.832 728.87 536.832 728.87 537.179 728.87C565.981 736.157 593.049 749.69 621.504 764.265L628.444 767.735C633.996 770.511 639.549 773.288 645.101 776.064C660.716 783.351 675.291 788.556 688.825 792.026C689.172 792.026 689.172 792.026 689.519 792.026C700.276 794.802 711.034 796.191 721.791 796.885C752.328 798.273 785.295 790.638 812.709 775.37C817.22 772.941 821.384 770.164 824.854 768.082C840.817 758.366 856.78 749.344 877.948 744.832C897.381 740.668 920.978 741.362 952.556 746.914C1021.61 759.407 1090.67 785.086 1151.74 807.989L1160.76 811.459C1177.77 817.705 1194.77 824.299 1211.43 830.545C1232.94 838.873 1260.71 850.325 1287.77 863.164C1322.47 879.821 1355.79 899.254 1392.57 921.116C1396.73 923.545 1401.25 926.321 1405.41 928.75L1409.57 931.179C1422.07 938.467 1434.56 945.754 1447.05 952.694C1452.26 955.47 1457.46 958.246 1462.32 961.023C1472.04 966.228 1481.06 971.086 1490.08 975.944C1507.09 985.661 1519.58 993.642 1529.99 1002.32C1552.54 1020.36 1566.08 1038.06 1572.67 1058.19C1574.41 1063.74 1575.79 1069.64 1576.14 1075.54C1577.53 1080.4 1577.18 1086.29 1576.49 1091.15Z" fill="#00A7D8"/>
</g>
<g opacity="0.6">
<path opacity="0.6" d="M1540.05 1133.84C1539.01 1137.31 1537.97 1140.78 1536.93 1144.25C1535.89 1148.06 1534.5 1152.57 1533.46 1157.09C1533.11 1158.82 1532.76 1160.21 1532.07 1161.94C1531.03 1166.11 1529.99 1169.58 1528.6 1172.01C1525.48 1178.25 1521.31 1181.72 1517.5 1184.5C1516.8 1184.85 1516.46 1185.54 1515.76 1185.89C1514.03 1187.28 1511.94 1189.01 1510.9 1190.75C1510.21 1192.13 1508.82 1193.52 1507.78 1194.91C1503.96 1199.42 1499.45 1204.97 1499.1 1214.34C1498.76 1222.32 1499.45 1231.69 1501.19 1241.41C1505.35 1268.13 1516.46 1296.59 1532.42 1322.96H1531.38C1515.41 1296.59 1504.66 1268.13 1500.49 1241.41C1499.1 1231.69 1498.41 1222.32 1498.41 1214.34C1498.76 1204.63 1503.62 1199.07 1507.43 1194.22C1508.47 1192.83 1509.51 1191.44 1510.56 1190.4C1511.94 1188.32 1514.03 1186.58 1515.76 1185.19C1516.46 1184.85 1516.8 1184.15 1517.5 1183.81C1521.31 1180.68 1525.48 1177.56 1528.25 1171.66C1529.29 1169.23 1530.34 1166.11 1531.38 1161.6C1531.72 1160.21 1532.07 1158.47 1532.76 1156.74C1533.81 1152.23 1535.19 1147.72 1536.23 1143.9C1537.28 1140.43 1538.32 1136.96 1539.36 1133.49C1543.18 1121 1547.34 1108.5 1547.34 1094.97C1547.34 1089.76 1546.65 1083.87 1545.26 1078.31C1543.87 1072.76 1542.13 1067.21 1539.36 1062C1529.99 1042.92 1513.33 1027.65 1487.31 1013.42C1473.08 1005.44 1457.81 999.541 1443.24 993.989L1440.11 992.948C1426.93 988.09 1413.39 982.884 1398.82 976.638C1386.32 971.086 1373.14 964.84 1357.18 956.164C1353.01 954.082 1349.19 951.653 1344.68 949.224C1331.5 941.937 1318.31 934.302 1305.82 926.668C1286.38 915.216 1265.91 903.418 1246.13 892.661C1221.84 879.821 1196.85 868.37 1175.34 859C1158.34 851.713 1143.07 845.12 1128.15 838.873C1065.68 812.847 998.709 786.821 932.082 773.981C913.343 770.511 885.582 766.347 861.985 772.246C842.899 777.105 829.019 786.474 814.097 796.537L813.403 797.231C810.28 799.314 806.463 801.743 801.951 804.519C777.66 819.44 746.082 826.728 715.545 824.993C705.134 824.299 695.071 822.911 684.66 820.481C671.127 817.358 657.246 812.847 641.978 806.254C636.425 803.825 630.526 801.396 625.668 798.966L624.974 798.62C594.784 785.086 566.328 772.246 537.179 765.653C523.992 762.877 511.5 762.183 497.966 761.489C489.291 761.142 480.269 760.448 470.899 759.407C461.183 758.366 452.16 756.631 443.832 754.202C435.504 751.773 427.522 749.343 419.541 746.567C413.295 744.485 406.354 742.403 399.761 740.321C387.269 736.504 372 732.687 354.649 732.34C336.951 731.993 320.295 731.993 301.903 732.34C280.735 732.687 263.731 732.34 248.81 731.993C238.399 731.646 227.295 730.952 215.149 730.258C192.94 728.87 170.731 727.134 144.358 724.358L139.847 724.011C116.944 721.582 93 719.153 60.3806 717.071C50.3171 716.377 39.5597 714.989 27.7612 712.907C18.7388 711.172 9.71639 709.437 1.04102 707.355V706.314C9.71639 708.396 18.7388 710.131 28.1082 711.866C39.9067 713.948 50.6642 715.336 60.7276 716.03C93.347 718.112 117.291 720.541 140.194 722.97L144.705 723.317C170.731 726.093 193.287 727.828 215.496 729.217C227.642 729.911 238.746 730.605 249.157 730.952C264.078 731.646 281.082 731.646 302.25 731.299C320.642 730.952 337.298 730.952 354.996 731.299C372.694 731.646 387.963 735.463 400.455 739.28C407.048 741.362 413.642 743.444 420.235 745.526C428.216 747.955 436.198 750.731 444.526 753.161C452.854 755.59 461.53 757.325 471.246 758.366C480.616 759.407 489.638 760.101 498.313 760.448C511.847 761.142 524.34 761.836 537.526 764.612C566.675 771.205 595.131 784.045 625.321 797.578L626.015 797.926C630.873 800.008 636.425 802.784 642.325 805.213C657.593 811.806 671.474 816.317 685.007 819.44C695.418 821.87 705.481 823.258 715.545 823.952C746.082 825.687 777.313 818.399 801.604 803.478C805.769 800.702 809.933 798.273 813.056 796.19L813.75 795.496C828.672 785.433 842.899 776.064 861.985 771.205C885.582 765.306 913.69 769.47 932.429 772.94C999.056 785.78 1066.03 811.806 1128.49 837.832C1143.41 844.078 1159.03 850.672 1175.69 857.959C1197.2 867.328 1222.19 878.78 1246.48 891.619C1266.26 902.03 1286.73 914.175 1306.16 925.627C1319 933.261 1332.19 940.896 1345.03 948.183C1349.54 950.612 1353.36 953.041 1357.52 955.123C1373.14 963.452 1386.32 970.045 1398.82 975.597C1413.39 981.843 1426.93 987.049 1440.11 991.907L1443.24 992.948C1457.81 998.5 1473.08 1004.4 1487.31 1012.38C1513.68 1026.96 1530.34 1042.57 1539.71 1061.66C1542.48 1066.86 1544.22 1072.41 1545.6 1078.31C1546.99 1083.87 1547.69 1089.76 1547.69 1094.97C1548.38 1108.85 1544.22 1121.69 1540.05 1133.84Z" fill="#00A7D8"/>
</g>
<g opacity="0.6">
<path d="M1519.92 1150.84L1519.58 1153.96C1519.23 1157.09 1519.23 1160.56 1518.88 1164.37C1518.54 1167.5 1518.54 1170.62 1518.19 1173.74C1517.84 1178.6 1517.5 1182.07 1516.8 1184.85C1514.72 1192.13 1509.86 1195.26 1505.7 1198.03C1503.27 1199.77 1500.84 1201.16 1499.45 1203.24C1498.76 1204.28 1497.37 1205.67 1496.33 1207.06C1492.16 1211.22 1487.31 1216.77 1486.96 1226.14C1486.96 1233.43 1487.65 1242.1 1489.39 1252.17C1493.55 1275.07 1502.23 1299.71 1514.37 1323.31H1513.33C1501.19 1300.06 1492.51 1275.07 1488.69 1252.17C1486.96 1242.1 1486.26 1233.43 1486.26 1226.14C1486.26 1216.08 1491.82 1210.53 1495.63 1206.36C1497.02 1204.97 1498.06 1203.93 1498.76 1202.54C1500.49 1200.12 1502.92 1198.73 1505.35 1196.99C1509.51 1194.22 1514.03 1191.44 1516.11 1184.15C1516.8 1181.72 1517.15 1177.91 1517.5 1173.4C1517.84 1170.27 1517.84 1167.15 1518.19 1164.03C1518.54 1160.21 1518.54 1156.74 1518.88 1153.62L1519.23 1150.49C1520.97 1128.63 1523.4 1103.65 1515.07 1082.48C1505 1056.45 1482.1 1037.71 1444.97 1024.53C1429.35 1018.97 1412.7 1015.5 1397.08 1012.03C1383.9 1009.26 1367.59 1005.79 1350.58 1000.58C1333.92 995.377 1316.57 987.743 1297.14 977.332C1277.36 966.575 1257.93 954.776 1239.19 943.325C1227.74 936.385 1216.29 929.097 1204.84 922.504C1182.97 909.664 1160.42 898.213 1139.25 887.802C1072.28 854.489 992.462 818.052 911.608 801.396C893.563 797.579 867.19 793.414 845.328 800.008C829.018 804.866 817.567 813.541 805.421 822.564C800.563 826.034 795.705 829.851 790.153 833.668C768.638 847.896 738.794 854.836 708.257 853.101C686.742 851.713 664.186 846.508 638.16 836.444C632.608 834.362 627.403 832.28 622.544 830.198C595.13 819.093 565.634 807.642 536.832 802.437C525.727 800.355 515.317 800.008 504.212 799.661C495.19 799.314 485.474 798.967 475.41 797.926C466.388 796.885 458.059 794.802 450.078 792.373C443.485 790.291 436.892 787.862 430.992 785.433C410.518 777.799 391.086 770.511 366.1 771.899C347.709 772.94 330.358 775.717 314.742 777.799C298.433 780.228 279.347 782.657 262.343 784.739C220.701 788.903 185.306 789.597 159.28 790.291C137.071 790.638 114.168 790.638 78.0781 789.597C58.6453 789.25 37.4774 785.086 17.3505 778.146C12.1453 776.411 6.94009 774.329 1.73486 772.246V771.205C6.94009 773.287 12.1453 775.37 17.6975 777.452C37.8244 784.392 58.9923 788.209 78.0781 788.903C114.168 789.944 137.071 789.944 159.28 789.597C185.306 788.903 221.048 788.209 262.343 784.045C279.694 782.31 298.433 779.534 314.742 777.452C330.011 775.37 347.709 772.593 366.1 771.552C391.086 770.164 410.518 777.452 431.339 785.086C437.586 787.515 443.832 789.944 450.425 792.026C458.406 794.802 466.735 796.537 475.41 797.579C485.474 798.967 495.19 799.314 504.212 799.314C515.317 799.661 526.074 800.008 537.179 802.09C565.981 807.642 595.477 818.746 622.891 830.198C627.75 832.28 633.302 834.362 638.507 836.444C664.533 846.161 686.742 851.713 708.257 852.754C738.447 854.489 767.944 847.549 789.459 833.668C795.011 830.198 799.869 826.381 804.727 822.564C816.873 813.541 828.671 804.866 844.981 800.008C866.843 793.414 893.563 797.579 911.608 801.396C992.809 818.399 1072.28 854.489 1139.6 887.802C1160.76 898.213 1183.32 909.664 1205.18 922.504C1216.63 929.097 1228.43 936.385 1239.54 943.325C1258.28 954.776 1277.36 966.922 1297.14 977.332C1316.23 987.743 1333.58 995.03 1350.23 1000.24C1366.89 1005.44 1383.2 1008.91 1396.39 1011.69C1412 1015.16 1429.01 1018.63 1444.28 1024.18C1481.75 1037.37 1504.66 1056.45 1514.72 1082.48C1524.09 1103.99 1522.01 1128.98 1519.92 1150.84Z" fill="#00A7D8"/>
</g>
<g opacity="0.6">
<path opacity="0.6" d="M1489.73 1217.47C1487.65 1219.2 1485.92 1220.59 1484.88 1223.02C1484.18 1224.41 1483.14 1225.79 1482.45 1227.18C1479.67 1231.35 1475.85 1236.55 1476.2 1245.23C1476.55 1251.82 1477.94 1259.8 1480.02 1269.87C1483.84 1287.22 1490.08 1305.61 1498.06 1323.31H1497.02C1489.04 1305.61 1483.14 1287.22 1478.98 1269.87C1476.55 1259.46 1475.51 1251.82 1475.16 1244.88C1474.47 1235.86 1478.28 1230.65 1481.41 1226.49C1482.45 1225.1 1483.49 1223.71 1483.84 1222.67C1484.88 1220.24 1486.96 1218.85 1488.69 1217.12C1491.82 1214.34 1495.29 1211.57 1496.33 1205.32C1496.68 1202.89 1496.68 1199.42 1496.68 1195.26C1496.68 1191.79 1496.33 1187.62 1495.98 1184.15C1495.98 1181.72 1495.63 1179.64 1495.63 1177.56V1174.09C1494.59 1153.96 1493.9 1132.79 1485.22 1113.02C1474.47 1087.34 1453.3 1067.56 1422.07 1053.68C1409.23 1048.12 1394.31 1043.96 1374.18 1040.49C1369.32 1039.79 1364.46 1038.75 1359.6 1038.06C1350.93 1036.67 1342.25 1035.28 1333.23 1033.55C1331.15 1033.2 1329.41 1032.85 1327.33 1032.51C1308.59 1028.69 1290.9 1023.49 1273.54 1016.2C1265.56 1013.07 1257.58 1009.6 1249.95 1005.44C1237.8 999.541 1224.62 991.907 1209.35 982.191C1201.37 976.985 1193.38 971.78 1185.75 966.922L1179.85 963.105C1163.89 952.694 1148.27 942.978 1133 933.955C1128.15 931.179 1122.94 928.056 1118.08 925.28L1117.04 924.586C1035.49 877.045 959.843 845.12 892.175 829.851C878.295 826.728 858.168 822.911 840.47 826.381C835.612 827.422 830.754 828.81 826.242 830.545C814.444 835.403 805.422 842.344 796.399 849.978C795.011 851.019 793.623 852.407 791.888 853.448C785.295 859 779.048 863.164 773.149 866.635C760.31 874.616 743.653 879.474 725.608 880.862C714.157 881.903 702.358 881.556 690.56 879.821C679.108 878.433 666.963 875.657 652.735 871.84C643.018 869.064 632.261 865.941 620.116 862.123L617.339 861.429C612.828 860.041 608.317 858.653 603.806 857.265C595.825 854.836 587.496 852.407 578.474 849.978C561.123 845.467 545.16 843.038 528.157 840.608C524.686 840.261 521.216 839.567 517.746 838.873C513.235 838.179 508.377 837.485 503.866 836.791L501.783 836.444C496.925 835.75 492.414 835.056 487.903 834.709C478.186 833.668 467.776 832.28 456.672 830.198C448.69 828.81 440.362 827.075 430.992 824.993C427.522 824.299 424.399 823.258 421.276 822.564C396.291 816.664 375.123 811.459 347.709 815.623C332.44 818.052 316.478 821.523 300.515 825.34C292.534 827.422 284.899 829.504 277.265 831.239C268.242 833.668 259.914 835.75 251.933 837.832C240.481 840.608 228.683 843.038 217.231 845.467C197.104 849.631 177.672 853.101 157.545 856.224C149.91 857.265 141.235 858.306 129.784 859.347C113.127 860.735 96.1231 860.735 77.0373 859C65.9328 857.959 54.8283 855.183 43.3769 852.06C39.9067 851.019 36.7836 850.325 33.3134 849.284C28.1082 847.896 22.209 846.508 16.6567 844.773C11.1045 843.038 5.55224 841.302 0 839.567V838.526C5.55224 840.261 11.1045 841.997 16.6567 843.732C22.209 845.467 28.1082 846.855 33.3134 848.243C36.7836 848.937 40.2537 849.978 43.3769 851.019C54.8283 854.142 65.9328 856.918 77.0373 857.959C95.7761 859.694 113.127 859.694 129.437 858.306C140.888 857.265 149.216 856.224 156.851 855.183C176.631 852.06 196.41 848.59 216.19 844.773C227.642 842.344 239.44 839.914 250.892 837.138C258.873 835.056 267.548 832.974 276.224 830.545C283.511 828.463 291.492 826.728 299.474 824.646C315.437 820.829 331.399 817.358 346.668 814.929C374.082 810.418 395.597 815.623 420.582 821.87C423.705 822.564 427.175 823.605 430.298 824.299C439.321 826.381 447.649 828.116 455.978 829.504C467.082 831.586 477.145 832.627 487.209 834.015C491.72 834.709 496.578 835.056 501.089 835.75L503.172 836.097C507.683 836.791 512.194 837.485 517.052 838.179C520.522 838.873 523.992 839.22 527.463 839.914C544.466 842.344 560.429 844.773 577.78 849.284C586.802 851.713 595.13 854.142 603.112 856.571C607.623 857.959 612.134 859.347 616.645 860.735L619.422 861.776C631.567 865.594 641.977 869.064 651.694 871.493C665.921 875.31 678.067 878.086 689.518 879.474C701.317 881.209 713.116 881.209 724.22 880.515C741.918 878.78 758.227 873.922 771.067 866.288C776.966 862.817 782.865 858.653 789.806 853.101C791.194 852.06 792.582 850.672 794.317 849.631C803.686 841.997 812.709 835.056 824.507 829.851C829.018 828.116 833.877 826.728 839.082 825.687C857.127 822.564 877.601 826.034 891.481 829.157C959.496 844.426 1035.15 876.351 1116.69 924.239L1117.73 924.933C1122.59 927.709 1127.8 930.832 1132.66 933.608C1147.93 942.631 1163.54 952.694 1179.5 963.105L1185.4 966.922C1193.04 972.127 1201.02 977.332 1208.65 982.191C1223.92 991.907 1236.76 999.541 1249.25 1005.44C1256.89 1009.26 1264.87 1012.73 1272.85 1015.85C1290.2 1022.79 1307.9 1028.34 1326.64 1032.16C1328.72 1032.51 1330.45 1032.85 1332.54 1033.2C1341.21 1034.94 1350.23 1036.32 1358.91 1037.71C1363.77 1038.41 1368.63 1039.45 1373.48 1040.14C1393.61 1043.61 1408.88 1047.78 1421.37 1053.68C1452.6 1067.56 1474.12 1087.68 1484.88 1113.36C1493.2 1133.49 1494.25 1154.66 1495.29 1174.78V1178.25C1495.29 1180.34 1495.63 1182.42 1495.63 1184.85C1495.98 1188.66 1495.98 1192.48 1496.33 1195.95C1496.33 1200.12 1496.68 1203.59 1495.98 1206.02C1496.33 1211.91 1492.86 1215.04 1489.73 1217.47Z" fill="#00A7D8"/>
</g>
<g opacity="0.6">
<path opacity="0.6" d="M1470.3 1243.15C1469.96 1244.53 1469.26 1245.92 1468.57 1247.66C1466.83 1251.47 1464.4 1256.68 1465.44 1264.31C1466.48 1271.95 1468.57 1280.62 1470.65 1287.91C1473.77 1299.71 1477.94 1311.85 1482.79 1323.65H1481.75C1476.9 1311.85 1473.08 1299.71 1469.61 1287.91C1467.53 1280.62 1465.44 1271.95 1464.4 1264.31C1463.36 1256.33 1465.79 1251.47 1467.53 1247.31C1468.22 1245.57 1468.91 1244.19 1469.26 1242.8C1469.96 1240.37 1471.34 1238.63 1472.73 1236.9C1474.81 1234.12 1477.24 1231.35 1477.24 1225.8C1477.24 1223.71 1476.9 1220.59 1476.2 1217.47V1216.43C1475.51 1211.91 1474.47 1207.06 1473.43 1202.89L1472.38 1197.34C1468.57 1179.3 1464.75 1160.56 1455.73 1141.82C1443.58 1115.1 1424.5 1094.62 1399.51 1081.09C1387.02 1074.15 1371.4 1069.64 1351.97 1066.86C1341.21 1065.47 1330.11 1064.43 1319.35 1063.39C1316.57 1063.05 1313.8 1063.05 1310.68 1062.7L1307.9 1062.35C1306.86 1062.35 1305.82 1062 1304.78 1062C1283.96 1059.92 1266.6 1057.15 1250.29 1052.63C1241.62 1050.21 1233.29 1047.43 1225.66 1044.31C1212.47 1039.1 1198.94 1031.81 1184.01 1022.1C1173.6 1015.5 1163.54 1007.87 1155.21 1001.62L1151.74 999.194C1138.21 989.478 1124.33 979.068 1110.79 969.351C1106.28 966.228 1101.43 962.758 1096.91 959.635L1095.87 958.941C1044.86 924.239 965.743 878.433 876.213 856.571C875.519 856.224 874.478 856.224 873.437 855.877C859.209 852.407 838.388 848.243 821.037 853.101C816.179 854.489 812.015 856.224 807.504 858.306C798.481 863.165 791.888 869.411 784.601 876.004C781.825 878.78 778.702 881.209 775.578 883.985C769.679 889.191 763.433 893.355 756.493 897.172C739.489 906.194 720.75 908.276 707.911 908.276C696.806 908.276 685.355 907.235 673.209 904.459C660.369 901.683 648.224 898.213 635.731 894.396C623.933 890.926 613.175 887.803 602.765 885.026C597.213 883.638 591.661 882.25 586.108 880.862C577.78 879.127 569.452 877.392 560.429 876.004C549.672 874.616 539.261 874.269 529.198 873.922C519.828 873.575 510.112 873.228 500.049 872.187C494.149 871.493 488.944 870.452 484.086 869.758C473.328 867.676 463.265 865.247 452.508 862.818C448.343 861.776 444.179 861.082 439.668 860.041C433.075 858.653 424.052 856.571 413.989 855.183C382.064 850.672 359.508 849.631 331.399 857.265C313.355 862.123 300.168 866.288 288.369 870.799C277.612 874.963 267.549 879.127 257.832 882.944C252.974 885.026 248.116 887.109 243.605 888.844C232.847 893.355 222.09 897.172 212.373 900.989C192.593 908.624 175.59 914.523 158.586 919.728C150.952 921.81 142.97 923.892 132.213 925.974C115.556 929.097 97.8583 929.097 79.4665 926.321C71.1382 924.933 63.5038 922.157 55.1755 919.381C49.2762 917.299 43.03 915.217 36.4367 913.482H36.0897C31.9255 912.441 28.1083 911.747 23.5971 910.706C22.2091 910.359 20.474 910.012 19.0859 909.665C14.5747 908.624 10.0636 907.582 5.55236 906.541C4.1643 906.194 2.77624 905.847 1.38818 905.5V904.459C2.77624 904.806 4.1643 905.153 5.55236 905.5C10.0636 906.541 14.5747 907.582 19.0859 908.624C20.474 908.971 22.2091 909.318 23.5971 909.665C27.7613 910.706 31.9255 911.4 36.0897 912.441H36.4367C43.03 914.176 49.2762 916.258 55.1755 918.34C63.5038 921.116 71.1382 923.892 79.1195 925.28C97.5113 928.056 115.209 928.056 131.519 924.933C142.276 922.851 150.258 921.116 157.892 918.687C174.896 913.482 191.899 907.582 211.679 899.948C221.396 896.131 232.153 891.967 242.911 887.803C247.422 886.068 252.28 883.985 257.138 881.903C266.855 877.739 276.918 873.575 287.675 869.758C299.474 865.247 312.661 861.082 331.052 856.224C359.161 848.59 381.716 849.631 413.989 854.142C424.399 855.53 433.075 857.612 440.015 859C444.526 860.041 448.69 861.082 452.855 861.776C463.612 864.206 473.675 866.635 484.433 868.717C489.291 869.758 494.149 870.452 500.396 871.146C510.112 872.534 519.828 872.534 529.198 872.881C539.261 873.228 550.019 873.575 560.776 874.963C569.799 876.351 578.474 877.739 586.455 879.821C592.008 881.209 597.56 882.597 603.112 883.985C613.522 886.762 624.28 889.885 636.078 893.355C648.571 897.172 661.063 900.642 673.556 903.071C685.702 905.5 697.153 906.888 708.258 906.888C720.75 906.888 739.489 904.806 756.146 895.784C762.739 892.314 768.985 887.803 774.884 882.597C778.007 879.821 780.784 877.392 783.56 874.616C790.847 868.023 797.787 861.776 806.81 856.918C811.321 854.489 815.832 852.754 820.69 851.366C838.388 846.855 859.556 850.672 873.784 854.142C874.825 854.489 875.519 854.489 876.56 854.836C966.09 877.045 1045.56 922.851 1096.57 957.553L1097.61 958.247C1102.12 961.37 1106.98 964.493 1111.84 967.963C1125.72 977.679 1139.6 987.743 1152.78 997.806L1156.25 1000.24C1164.58 1006.48 1174.65 1013.77 1185.06 1020.71C1199.63 1030.43 1213.51 1037.71 1226.35 1042.92C1233.98 1046.04 1241.97 1048.82 1250.99 1051.25C1267.3 1055.76 1284.3 1058.53 1305.47 1060.62C1306.51 1060.62 1307.55 1060.96 1308.59 1060.96L1311.37 1061.31C1314.15 1061.66 1316.92 1061.66 1320.04 1062C1330.8 1063.05 1341.91 1064.09 1352.66 1065.47C1372.44 1068.25 1388.06 1072.76 1400.55 1079.7C1425.54 1093.58 1444.62 1114.06 1457.12 1141.12C1466.14 1160.21 1469.96 1178.95 1473.77 1196.99L1474.81 1202.55C1475.85 1206.71 1476.9 1211.57 1477.59 1216.08V1217.12C1478.28 1220.59 1478.63 1223.37 1478.63 1225.45C1478.63 1231.35 1476.2 1234.12 1474.12 1236.9C1472.04 1239.33 1471 1240.72 1470.3 1243.15Z" fill="#00A7D8"/>
</g>
<g opacity="0.6">
<path opacity="0.6" d="M1461.28 1305.26C1463.36 1311.16 1465.44 1317.41 1467.87 1323.31H1466.83C1464.75 1317.41 1462.32 1311.51 1460.59 1305.61C1458.16 1297.97 1455.38 1290.34 1453.99 1283.4C1452.6 1276.81 1453.3 1271.95 1454.34 1268.13C1454.69 1266.4 1455.03 1264.66 1455.03 1263.27C1455.03 1260.84 1455.73 1259.11 1456.77 1257.37C1457.81 1254.6 1459.2 1252.17 1458.5 1247.31C1458.16 1245.57 1457.46 1243.15 1456.77 1240.72L1456.07 1238.98C1454.69 1234.12 1452.26 1228.57 1450.52 1224.41C1443.93 1208.44 1436.64 1191.09 1426.93 1172.01C1415.13 1148.76 1400.9 1124.81 1377.65 1109.54C1365.85 1101.56 1349.89 1096.36 1330.11 1094.62C1315.88 1093.24 1300.96 1093.24 1288.47 1093.24C1287.08 1093.24 1286.04 1093.24 1284.65 1093.24H1282.57C1265.91 1093.58 1246.48 1093.58 1227.39 1090.81C1218.37 1089.42 1210.04 1087.34 1202.06 1084.91C1188.18 1080.4 1173.95 1073.46 1159.38 1063.39C1150.7 1057.49 1142.03 1050.9 1130.92 1041.88C1124.33 1036.32 1117.39 1030.77 1111.14 1025.22C1103.85 1018.97 1096.22 1012.73 1088.93 1006.83C1084.07 1003.01 1079.22 999.194 1074.36 995.377C1007.04 942.631 928.959 903.071 854.698 883.985C840.123 880.168 818.608 875.657 801.605 881.903C797.093 883.291 792.929 885.72 788.765 888.496C781.825 893.355 776.619 898.907 771.067 905.153C767.597 908.97 763.78 913.135 759.616 916.952C754.063 922.157 747.47 926.668 740.183 930.138C726.649 936.732 708.952 939.508 690.56 938.12C679.802 937.426 668.698 935.344 656.205 931.526C647.877 929.097 639.896 926.668 631.22 923.892C627.056 922.504 622.892 921.116 618.728 920.075C607.623 916.605 596.172 913.482 585.414 911.052C579.862 910.011 574.657 908.97 568.41 907.929C560.082 906.541 551.754 905.847 542.384 905.847C533.015 905.5 523.993 906.541 515.317 907.582C504.56 908.623 493.802 910.011 482.004 908.97C476.452 908.276 471.246 907.582 466.388 906.194H466.041C458.06 904.112 450.772 901.683 443.138 899.254C436.545 897.172 429.952 894.743 422.664 893.008C413.295 890.579 404.966 889.191 396.638 888.496C366.101 886.761 342.504 890.579 315.09 901.683C301.903 907.235 288.369 912.788 275.877 919.034C263.731 925.28 253.321 931.873 242.911 938.12C240.134 939.855 237.705 941.243 234.929 942.978C230.418 945.754 225.907 948.183 221.743 950.959C216.884 954.082 211.679 956.858 207.168 959.635L204.045 961.717C188.776 970.739 174.549 979.414 158.933 986.702C151.646 990.172 143.664 992.948 133.601 995.724C116.944 1000.24 99.2464 1000.58 80.5076 996.765C72.8732 995.03 65.9329 991.907 59.3396 988.784C52.7464 985.661 46.1531 982.885 38.8658 980.802C38.5187 980.802 38.5187 980.802 38.1717 980.802C32.6195 979.414 26.3732 978.373 20.821 977.332L15.2688 976.291C11.1046 975.597 6.59338 974.903 2.4292 974.209V973.168C6.94039 973.862 11.1046 974.556 15.6158 975.25L21.168 976.291C26.7202 977.332 32.9665 978.373 38.5187 979.761C46.1531 981.496 53.0934 984.62 60.0337 987.743C66.974 990.866 73.9143 993.989 81.2016 995.724C99.5934 999.888 117.291 999.541 133.948 994.683C144.011 991.907 151.993 989.131 159.28 985.661C174.549 978.373 189.123 969.698 204.392 960.676L207.515 958.594C212.373 955.817 217.231 952.694 222.09 949.918C226.254 947.489 230.765 944.713 235.276 941.937C237.705 940.549 240.481 938.814 243.258 937.079C253.668 930.832 264.425 924.239 276.224 917.993C288.716 911.746 302.25 905.847 315.437 900.642C343.198 889.191 366.795 885.373 397.679 887.455C406.355 888.15 414.683 889.538 424.052 891.967C431.34 894.049 437.933 896.131 444.526 898.213C452.16 900.642 459.448 903.071 467.429 905.153H467.776C472.981 906.541 477.84 907.235 483.392 907.929C494.843 908.97 505.948 907.929 516.358 906.541C525.034 905.5 534.056 904.459 543.425 904.806C552.795 905.153 561.47 905.847 569.799 906.888C575.698 907.929 581.25 908.97 586.802 910.011C597.907 912.441 609.011 915.564 620.463 919.034C624.627 920.422 628.791 921.81 632.955 922.851C641.631 925.627 649.612 928.403 657.94 930.485C670.433 933.955 681.537 936.038 692.295 936.732C710.34 938.12 727.69 935.344 741.224 928.75C748.164 925.28 754.758 921.116 760.31 915.911C764.474 912.094 768.291 908.276 771.761 904.112C777.313 897.866 782.866 892.314 789.806 887.455C793.97 884.679 798.481 882.25 802.993 880.862C820.343 874.963 841.858 879.127 856.78 882.944C931.388 902.377 1009.47 941.937 1076.79 994.683C1081.65 998.5 1086.5 1002.32 1091.36 1006.13C1098.65 1012.03 1106.28 1018.63 1113.92 1024.53C1120.51 1030.08 1127.1 1035.63 1133.7 1041.18C1144.46 1050.21 1153.48 1056.8 1161.81 1062.7C1176.38 1072.76 1190.26 1079.7 1204.14 1084.21C1212.12 1086.64 1220.45 1088.72 1229.47 1090.11C1248.56 1093.24 1267.65 1092.89 1284.3 1092.54H1286.38C1287.77 1092.54 1288.81 1092.54 1290.2 1092.54C1302.69 1092.54 1317.62 1092.54 1331.84 1093.93C1351.62 1096.01 1367.59 1100.87 1379.73 1109.2C1402.98 1124.81 1417.21 1148.41 1429.01 1172.01C1438.72 1191.44 1446.36 1208.79 1452.95 1224.75C1454.69 1228.92 1456.77 1234.47 1458.5 1239.33L1459.2 1241.06C1459.89 1243.49 1460.59 1245.92 1460.93 1247.66C1461.63 1252.52 1460.59 1255.64 1459.2 1258.07C1458.5 1259.8 1457.81 1261.54 1457.81 1263.62C1457.81 1265.35 1457.46 1267.09 1457.12 1268.82C1456.42 1272.64 1455.38 1277.15 1456.77 1283.75C1456.07 1289.99 1458.85 1297.63 1461.28 1305.26Z" fill="#00A7D8"/>
</g>
<g opacity="0.6">
<path opacity="0.6" d="M1450.87 1323.31C1450.18 1321.92 1449.83 1320.53 1449.13 1319.14C1446.71 1313.24 1444.62 1307.69 1442.89 1302.49C1441.15 1296.93 1440.81 1293.12 1440.81 1289.3C1440.81 1287.22 1440.46 1285.13 1440.11 1283.4C1439.42 1281.32 1439.76 1279.24 1439.76 1277.5C1439.76 1275.07 1440.11 1272.29 1438.72 1268.13C1438.03 1266.4 1436.99 1264.66 1435.95 1262.58C1435.6 1261.88 1435.25 1261.19 1434.91 1260.5C1432.82 1256.68 1430.4 1252.52 1427.27 1247.66C1424.5 1243.49 1421.72 1239.68 1418.94 1235.16C1411.66 1224.75 1404.37 1214 1397.08 1201.16C1393.61 1195.26 1390.84 1189.36 1387.71 1183.81C1378.69 1166.11 1370.01 1149.45 1354.75 1137.31C1343.29 1128.28 1327.33 1122.73 1307.55 1121.34C1295.06 1120.65 1281.18 1121 1265.56 1122.73C1264.18 1122.73 1262.79 1123.08 1261.4 1123.43L1256.89 1124.12C1238.84 1126.55 1221.49 1128.63 1203.79 1127.94C1194.43 1127.59 1185.75 1126.2 1177.77 1124.47H1177.42C1162.85 1121 1148.62 1114.06 1134.04 1103.99C1125.37 1098.09 1116.35 1090.81 1106.28 1081.44C1097.96 1073.8 1089.63 1065.82 1081.65 1058.19C1076.44 1053.33 1071.23 1048.12 1066.03 1043.27C1061.52 1038.75 1056.66 1034.59 1052.5 1030.77C990.034 974.903 912.996 932.22 835.612 911.052C820.69 906.888 798.828 902.03 781.825 909.664C777.66 911.399 773.496 914.176 769.679 917.646C764.127 922.504 759.963 927.709 755.799 933.608C751.981 938.814 747.817 944.019 742.959 948.53C737.407 953.735 730.813 958.246 723.179 961.717C708.952 967.963 690.907 969.698 672.515 966.575C662.104 964.84 651.347 962.064 638.508 957.205C633.649 955.47 628.444 953.388 623.586 951.653C616.299 948.877 609.011 946.101 601.377 943.672C590.272 939.855 578.821 937.079 567.369 934.996C561.817 933.955 555.918 933.261 550.019 932.914C541.343 932.22 532.668 932.22 523.646 933.261C514.97 933.955 506.642 936.038 498.661 938.467C487.556 941.243 476.105 944.366 463.612 943.672C458.06 943.325 452.855 942.284 447.302 940.549C439.668 938.12 432.381 934.996 425.44 931.873C418.847 929.097 411.907 925.974 404.619 923.545C395.597 920.769 387.269 919.381 378.246 919.381C350.485 919.728 327.235 927.015 297.392 943.672L294.963 945.06C283.511 951.653 272.407 957.899 262.343 964.84C249.504 973.862 238.399 983.232 227.642 992.254L225.213 994.336C217.578 1000.93 209.944 1007.52 200.575 1015.5C198.493 1017.24 196.758 1018.97 194.675 1020.71C182.53 1031.47 171.425 1041.88 157.892 1050.55C150.952 1055.06 142.97 1059.23 133.601 1062.7C117.291 1068.94 98.8994 1069.29 80.1606 1064.09C72.8733 1062 66.627 1058.53 60.3807 1054.72C53.4404 1050.9 46.5001 1046.74 38.5188 1045C32.6195 1043.61 26.0262 1042.92 20.821 1042.22C13.8807 1041.53 7.28744 1040.84 1.38818 1040.14V1039.1C7.63445 1039.45 14.2277 1040.14 21.168 1041.18C26.3733 1041.88 32.9665 1042.57 38.8658 1043.96C39.2128 1043.96 39.2128 1043.96 39.5598 1044.31C47.5412 1046.39 54.4815 1050.21 61.0747 1054.02C67.321 1057.49 73.5673 1061.31 80.8546 1063.04C99.2464 1068.25 117.291 1067.56 133.601 1061.66C142.97 1058.19 150.605 1054.37 157.545 1049.86C170.731 1041.18 182.183 1031.12 193.981 1020.02C196.064 1018.28 197.799 1016.54 199.881 1014.81C208.903 1006.83 216.884 999.888 224.519 993.642L226.948 991.56C237.705 982.538 248.81 972.821 261.649 964.146C271.713 957.205 283.164 950.612 294.269 944.366L296.698 942.978C326.541 925.974 350.138 919.034 377.899 918.34C386.922 918.34 395.25 919.381 404.619 922.504C411.907 924.933 418.847 927.709 425.44 930.832C432.381 933.955 439.668 937.079 447.302 939.161C452.508 940.896 457.713 941.59 463.265 942.284C475.411 942.978 486.862 940.202 497.966 937.079C505.948 934.996 514.276 932.567 523.299 931.873C532.668 931.179 541.343 930.832 550.019 931.526C555.918 931.873 561.817 932.567 567.369 933.608C578.821 935.69 590.272 938.467 601.377 942.284C609.011 944.713 616.299 947.489 623.586 950.265C628.444 952 633.649 954.082 638.508 955.817C651.347 960.329 662.104 963.452 672.515 964.84C690.56 967.616 708.604 965.881 722.485 959.982C730.119 956.858 736.713 952.347 741.918 947.142C746.776 942.631 750.593 937.426 754.41 932.22C758.575 926.668 763.086 920.769 768.638 916.258C772.455 912.788 776.619 910.011 781.131 908.276C798.134 900.989 820.343 905.5 835.612 909.664C912.996 931.179 990.381 973.862 1052.84 1029.73C1057.35 1033.55 1061.87 1037.71 1066.38 1042.22C1071.58 1047.08 1076.79 1052.29 1081.99 1057.15C1089.97 1064.78 1098.3 1072.76 1106.63 1080.4C1116.69 1089.77 1125.72 1096.71 1134.39 1102.95C1148.97 1113.02 1163.19 1119.96 1177.42 1123.43H1177.77C1185.75 1125.51 1194.43 1126.55 1203.79 1126.9C1221.49 1127.59 1238.5 1125.51 1256.54 1123.08L1261.05 1122.38C1262.44 1122.04 1263.83 1122.04 1265.22 1121.69C1280.83 1119.96 1295.06 1119.26 1307.55 1120.3C1327.68 1121.69 1343.64 1127.24 1355.44 1136.27C1370.71 1148.41 1379.38 1165.41 1388.41 1183.11C1391.18 1188.66 1394.31 1194.56 1397.78 1200.46C1405.06 1213.3 1412.35 1224.06 1419.64 1234.47C1422.41 1238.63 1425.19 1242.8 1427.97 1246.96C1431.09 1251.47 1433.52 1255.99 1435.6 1259.8C1435.95 1260.5 1436.29 1261.19 1436.64 1261.88C1437.68 1263.97 1438.72 1265.7 1439.42 1267.44C1440.81 1271.6 1440.81 1274.38 1440.46 1277.15C1440.46 1278.89 1440.11 1280.62 1440.81 1283.05C1441.15 1285.13 1441.5 1286.87 1441.5 1289.3C1441.85 1292.77 1441.85 1296.93 1443.58 1302.14C1445.32 1307.34 1447.4 1312.9 1449.83 1318.79C1450.52 1320.18 1450.87 1321.57 1451.56 1322.96V1323.31H1450.87V1323.31Z" fill="#00A7D8"/>
</g>
</g>
<defs>
<filter id="filter0_f" x="-351" y="562" width="2382" height="2382" filterUnits="userSpaceOnUse" color-interpolation-filters="sRGB">
<feFlood flood-opacity="0" result="BackgroundImageFix"/>
<feBlend mode="normal" in="SourceGraphic" in2="BackgroundImageFix" result="shape"/>
<feGaussianBlur stdDeviation="125" result="effect1_foregroundBlur"/>
</filter>
</defs>
</svg>
