<svg width="117" height="61" viewBox="0 0 117 61" fill="none" xmlns="http://www.w3.org/2000/svg">
<path d="M0 34.2767C0 28.6909 4.37865 24.7554 10.3027 24.7554C12.0413 24.7554 13.7155 25.1362 15.0677 25.771V30.4047C13.7155 29.5795 12.3632 29.0717 10.3027 29.0717C7.21189 29.0717 4.82939 31.2299 4.82939 34.2132C4.82939 37.2601 7.21189 39.3547 10.4959 39.3547C12.2988 39.3547 13.9086 38.9739 15.3897 37.8948V42.5285C13.973 43.2902 12.1057 43.6711 10.3027 43.6711C4.44304 43.7346 0 39.8625 0 34.2767Z" fill="#292C65"/>
<path d="M27.1092 32.5629C28.397 32.5629 29.2341 31.9281 29.2341 30.849C29.2341 29.7699 28.397 29.0717 27.1092 29.0717H23.4388V32.5629H27.1092ZM18.6738 25.1362H27.3667C31.4878 25.1362 34.0635 27.4848 34.0635 30.7856C34.0635 33.1341 32.7113 35.0384 30.4575 35.9271L36.0596 43.3537H30.5863L25.3706 36.3714H23.4388V43.3537H18.6738V25.1362Z" fill="#292C65"/>
<path d="M61.752 25.1362H65.873L73.922 35.1654V25.1362H78.6226V43.3537H74.6947L66.4526 33.2611V43.3537H61.752V25.1362Z" fill="#292C65"/>
<path d="M81.8423 34.2767C81.8423 28.6909 86.2209 24.7554 92.145 24.7554C93.8836 24.7554 95.5578 25.1362 96.91 25.771V30.4047C95.5578 29.5795 94.2055 29.0717 92.145 29.0717C89.0542 29.0717 86.6717 31.2299 86.6717 34.2132C86.6717 37.2601 89.0542 39.3547 92.3382 39.3547C94.1411 39.3547 95.7509 38.9739 97.2319 37.8948V42.5285C95.8153 43.2902 93.948 43.6711 92.145 43.6711C86.2853 43.7346 81.8423 39.8625 81.8423 34.2767Z" fill="#292C65"/>
<path d="M100.516 25.1362H105.281V31.6107H112.235V25.1362H117V43.3537H112.235V35.8001H105.281V43.3537H100.516V25.1362Z" fill="#292C65"/>
<path d="M46.0401 39.4182C44.2372 39.4182 42.6918 38.4661 42.6918 35.9906V25.1362H37.9268V35.7366C37.9268 41.0051 41.5327 43.7346 46.0401 43.7346V39.4182Z" fill="#292C65"/>
<path d="M50.3545 39.4182C52.1575 39.4182 53.7029 38.4661 53.7029 35.9906V25.1362H58.4679V35.7366C58.4679 41.0051 54.8619 43.7346 50.3545 43.7346V39.4182Z" fill="#292C65"/>
<path d="M25.4347 14.155C29.0407 14.155 31.1012 12.3143 31.1012 9.14048C31.1012 5.9667 29.0407 4.12591 25.4347 4.12591H23.181V14.155H25.4347ZM18.416 0H25.8211C31.8739 0 36.0594 3.74506 36.0594 9.14048C36.0594 14.5359 31.8739 18.281 25.8211 18.281H18.416V0Z" fill="#292C65"/>
<path d="M5.92418 14.155V11.1717H15.261V7.04579H5.92418V4.12591H15.261V0H1.15918V18.281H15.261V14.155H5.92418Z" fill="#292C65"/>
<path d="M50.0327 60.9364L54.6045 50.209H57.309L61.8164 60.9364H58.8544L57.9529 58.6512H53.9606L52.9947 60.9364H50.0327ZM54.7333 56.4931H56.987L55.828 53.6367L54.7333 56.4931Z" fill="#07A8D9"/>
<path d="M64.7783 60.9998L61.1724 50.2725H64.2632L66.0661 56.62L68.3199 50.209H70.5092L72.7629 56.62L74.5659 50.2725H77.5923L74.0507 60.9998H71.6038L69.4145 54.7792L67.2252 60.9998H64.7783Z" fill="#07A8D9"/>
<path d="M77.0771 60.9364L81.649 50.209H84.3534L88.9253 60.9364H85.9632L85.0617 58.6512H81.0694L80.168 60.9364H77.0771ZM81.7778 56.4931H84.0315L82.8724 53.6367L81.7778 56.4931Z" fill="#07A8D9"/>
<path d="M90.1489 60.9364V50.2725H95.2359C96.3949 50.2725 97.3608 50.5898 98.0691 51.2246C98.7774 51.8593 99.1638 52.6211 99.1638 53.5732C99.1638 54.9697 98.3911 56.0487 97.0389 56.5565L100.323 60.9364H97.1033L94.0124 56.8739H92.9178V60.9364H90.1489ZM92.9822 54.6523H95.1071C95.8798 54.6523 96.3306 54.2714 96.3306 53.6367C96.3306 53.0019 95.8798 52.6211 95.1071 52.6211H92.9822V54.6523Z" fill="#07A8D9"/>
<path d="M101.611 60.9364V50.2725H105.925C107.664 50.2725 109.145 50.7803 110.239 51.7959C111.334 52.8115 111.914 54.081 111.914 55.6044C111.914 57.1913 111.334 58.4608 110.239 59.4764C109.145 60.492 107.664 60.9364 105.925 60.9364H101.611ZM104.38 58.5243H105.732C107.857 58.5243 109.016 57.4452 109.016 55.6044C109.016 53.7636 107.792 52.6845 105.732 52.6845H104.38V58.5243Z" fill="#07A8D9"/>
</svg>
