<svg width="122" height="59" viewBox="0 0 122 59" fill="none" xmlns="http://www.w3.org/2000/svg">
<g clip-path="url(#clip0)">
<path d="M0 33.0841C0 27.6926 4.18778 23.894 9.85361 23.894C11.5164 23.894 13.1176 24.2616 14.4109 24.8743V29.3468C13.1176 28.5503 11.8243 28.0602 9.85361 28.0602C6.89753 28.0602 4.61888 30.1433 4.61888 33.0228C4.61888 35.9636 6.89753 37.9854 10.0384 37.9854C11.7627 37.9854 13.3024 37.6178 14.7188 36.5763V41.0488C13.364 41.784 11.578 42.1516 9.85361 42.1516C4.24937 42.2128 0 38.4756 0 33.0841Z" fill="#292C65"/>
<path d="M25.9275 31.4299C27.1592 31.4299 27.9598 30.8173 27.9598 29.7757C27.9598 28.7342 27.1592 28.0603 25.9275 28.0603H22.4172V31.4299H25.9275ZM17.8599 24.2617H26.1738C30.1153 24.2617 32.5787 26.5286 32.5787 29.7145C32.5787 31.9813 31.2854 33.8194 29.1299 34.6771L34.4878 41.8453H29.2531L24.2647 35.106H22.4172V41.8453H17.8599V24.2617Z" fill="#292C65"/>
<path d="M59.0601 24.2617H63.0015L70.6996 33.9419V24.2617H75.1953V41.8453H71.4387L63.5558 32.1039V41.8453H59.0601V24.2617Z" fill="#292C65"/>
<path d="M78.2744 33.0841C78.2744 27.6926 82.4622 23.894 88.128 23.894C89.7908 23.894 91.392 24.2616 92.6853 24.8743V29.3468C91.392 28.5503 90.0987 28.0602 88.128 28.0602C85.1719 28.0602 82.8933 30.1433 82.8933 33.0228C82.8933 35.9636 85.1719 37.9854 88.3128 37.9854C90.0371 37.9854 91.5768 37.6178 92.9932 36.5763V41.0488C91.6384 41.784 89.8524 42.1516 88.128 42.1516C82.5238 42.2128 78.2744 38.4756 78.2744 33.0841Z" fill="#292C65"/>
<path d="M96.1343 24.2617H100.692V30.5109H107.343V24.2617H111.9V41.8453H107.343V34.5546H100.692V41.8453H96.1343V24.2617Z" fill="#292C65"/>
<path d="M44.0332 38.0468C42.3088 38.0468 40.8307 37.1278 40.8307 34.7384V24.2617H36.2734V34.4933C36.2734 39.5784 39.7222 42.2129 44.0332 42.2129V38.0468Z" fill="#292C65"/>
<path d="M48.1597 38.0468C49.884 38.0468 51.3621 37.1278 51.3621 34.7384V24.2617H55.9194V34.4933C55.9194 39.5784 52.4706 42.2129 48.1597 42.2129V38.0468Z" fill="#292C65"/>
<path d="M24.3261 13.6625C27.7748 13.6625 29.7455 11.8858 29.7455 8.82243C29.7455 5.75909 27.7748 3.98235 24.3261 3.98235H22.1706V13.6625H24.3261ZM17.6133 0H24.6956C30.4846 0 34.4876 3.61475 34.4876 8.82243C34.4876 14.0301 30.4846 17.6449 24.6956 17.6449H17.6133V0Z" fill="#292C65"/>
<path d="M5.66569 13.6625V10.783H14.5955V6.80062H5.66569V3.98235H14.5955V0H1.1084V17.6449H14.5955V13.6625H5.66569Z" fill="#292C65"/>
<path d="M48.1597 58.8163V48.5234H52.7785C53.9487 48.5234 54.8724 48.8298 55.5499 49.4424C56.2273 50.0551 56.5968 50.7903 56.5968 51.7706C56.5968 52.7509 56.2273 53.4861 55.5499 54.0987C54.8724 54.7114 53.9487 55.0177 52.7785 55.0177H50.8078V58.8163H48.1597ZM50.8078 52.8121H52.5938C53.3328 52.8121 53.8871 52.4445 53.8871 51.7706C53.8871 51.0966 53.3944 50.729 52.5938 50.729H50.8078V52.8121Z" fill="#07A8D9"/>
<path d="M58.0132 58.8163V48.5234H62.8784C63.9869 48.5234 64.9107 48.8298 65.5882 49.4424C66.2656 50.0551 66.6351 50.7903 66.6351 51.7093C66.6351 53.0572 65.8961 54.0987 64.6028 54.5889L67.7436 58.8163H64.6644L61.7083 54.8952H60.6613V58.8163H58.0132ZM60.6613 52.7509H62.6937C63.4327 52.7509 63.8638 52.3833 63.8638 51.7706C63.8638 51.1579 63.4327 50.7903 62.6937 50.7903H60.6613V52.7509Z" fill="#07A8D9"/>
<path d="M73.7789 59.0003C72.2392 59.0003 70.8844 58.5101 69.899 57.4686C68.8521 56.4271 68.3594 55.1405 68.3594 53.6701C68.3594 52.1997 68.8521 50.9131 69.899 49.8715C70.9459 48.83 72.2392 48.3398 73.7789 48.3398C75.3185 48.3398 76.6734 48.83 77.6587 49.8715C78.7057 50.9131 79.1983 52.1997 79.1983 53.6701C79.1983 55.1405 78.7057 56.4271 77.6587 57.4686C76.6118 58.5101 75.3801 59.0003 73.7789 59.0003ZM73.7789 56.6109C74.5795 56.6109 75.1953 56.3045 75.688 55.8144C76.1807 55.263 76.4886 54.5891 76.4886 53.7313C76.4886 52.8736 76.2423 52.1997 75.688 51.6483C75.1953 51.0969 74.5179 50.8518 73.7789 50.8518C72.9783 50.8518 72.3624 51.1581 71.8081 51.6483C71.3155 52.1997 71.0691 52.8736 71.0691 53.7313C71.0691 54.5891 71.3155 55.263 71.8081 55.8144C72.3624 56.3045 72.9783 56.6109 73.7789 56.6109Z" fill="#07A8D9"/>
<path d="M81.0459 58.8163V48.5234H85.1721C86.8349 48.5234 88.2513 49.0136 89.2983 49.9938C90.3452 50.9741 90.8995 52.1995 90.8995 53.6699C90.8995 55.2015 90.3452 56.4269 89.2983 57.4071C88.2513 58.3874 86.8349 58.8163 85.1721 58.8163H81.0459ZM83.694 56.4881H84.9873C87.0196 56.4881 88.1282 55.4466 88.1282 53.6699C88.1282 51.8931 86.9581 50.8516 84.9873 50.8516H83.694V56.4881Z" fill="#07A8D9"/>
<path d="M92.5626 48.5234H95.2108V54.6501C95.2108 55.9367 96.0114 56.6107 97.0583 56.6107C98.1669 56.6107 98.9059 55.998 98.9059 54.6501V48.5234H101.554V54.5276C101.554 55.9367 101.123 57.1008 100.261 57.836C99.3986 58.6325 98.3516 59.0001 96.9967 59.0001C95.6419 59.0001 94.5949 58.6325 93.7327 57.836C92.8705 57.0395 92.4395 55.9367 92.4395 54.5276V48.5234H92.5626Z" fill="#07A8D9"/>
<path d="M104.941 57.5299C103.833 56.5496 103.278 55.263 103.278 53.6701C103.278 52.0771 103.833 50.7905 104.88 49.8102C105.988 48.83 107.343 48.3398 109.006 48.3398C109.991 48.3398 110.853 48.5236 111.654 48.9525V51.5257C110.853 51.0356 109.991 50.7905 109.006 50.7905C108.144 50.7905 107.405 51.0969 106.85 51.587C106.296 52.1384 105.988 52.8123 105.988 53.6701C105.988 54.5278 106.296 55.2017 106.85 55.7531C107.466 56.3045 108.205 56.5496 109.129 56.5496C110.237 56.5496 111.1 56.2433 111.839 55.7531V58.3876C110.976 58.8165 110.053 59.0615 109.006 59.0615C107.405 59.0003 106.05 58.5101 104.941 57.5299Z" fill="#07A8D9"/>
<path d="M116.211 58.8163V50.8516H113.132V48.5234H122V50.8516H118.859V58.8163H116.211Z" fill="#07A8D9"/>
</g>
<defs>
<clipPath id="clip0">
<rect width="122" height="59" fill="white"/>
</clipPath>
</defs>
</svg>
