<svg width="83" height="73" viewBox="0 0 83 73" fill="none" xmlns="http://www.w3.org/2000/svg">
<path opacity="0.24" d="M39.6881 59.2038C55.641 59.2038 68.5735 45.9506 68.5735 29.6019C68.5735 13.2532 55.641 0 39.6881 0C23.7352 0 10.8027 13.2532 10.8027 29.6019C10.8027 45.9506 23.7352 59.2038 39.6881 59.2038Z" fill="#676767"/>
<path d="M72.9617 15.3968L32.4756 13.0464L36.6638 23.7426L35.6001 30.5896L40.8188 34.8476L45.007 45.5438L72.9617 15.3968Z" fill="white"/>
<path d="M77.8806 18.2925L38.2256 16.1465L51.588 46.7362L77.8806 18.2925Z" fill="#EF4454"/>
<path d="M46.4694 45.782H46.4362C46.3697 45.782 46.3033 45.7138 46.27 45.6457L42.115 34.9836L36.9297 30.7596C36.8632 30.7256 36.8299 30.6234 36.8632 30.5552L37.8936 23.7764L33.7386 13.1484C33.7054 13.0802 33.7054 12.9781 33.7719 12.944C33.8051 12.8759 33.9048 12.8418 33.9713 12.8418L74.4573 15.1922C74.557 15.1922 74.6235 15.2604 74.6568 15.3285C74.69 15.3966 74.6568 15.4988 74.6235 15.5669L46.6689 45.7138C46.5692 45.7479 46.5359 45.782 46.4694 45.782ZM37.3285 30.4871L42.4474 34.677C42.4807 34.7111 42.5139 34.7451 42.5139 34.7792L46.5692 45.1347L73.9587 15.601L34.2705 13.2846L38.3257 23.6402C38.3257 23.6742 38.3589 23.7083 38.3257 23.7764L37.3285 30.4871Z" fill="#676767"/>
<path d="M42.3804 35.1884C42.3471 35.1884 42.2807 35.1884 42.2474 35.1543L37.0287 30.8622C36.9623 30.8281 36.929 30.726 36.9623 30.6578L37.9927 23.8108C37.9927 23.7087 38.0924 23.6405 38.1921 23.6065L64.9171 19.1099C65.0168 19.0759 65.1165 19.144 65.1497 19.2462C65.183 19.3484 65.1497 19.4506 65.0833 19.5187L42.5466 35.1203C42.4801 35.1884 42.4468 35.1884 42.3804 35.1884ZM37.4276 30.5897L42.4136 34.6774L63.9863 19.7572L38.4248 24.0493L37.4276 30.5897Z" fill="#676767"/>
<path d="M37.1958 30.6914C37.0961 30.6914 37.0296 30.6233 36.9964 30.5552C36.9631 30.453 36.9964 30.3167 37.1293 30.2486L64.8846 19.1436C64.9843 19.1096 65.1172 19.1436 65.1837 19.2799C65.217 19.3821 65.1837 19.5183 65.0507 19.5865L37.2955 30.6914C37.229 30.6914 37.1958 30.6914 37.1958 30.6914Z" fill="#676767"/>
<path d="M8.24343 56.2058C7.3792 57.0914 6.34877 57.5343 5.18538 57.5343C4.45411 57.5343 3.78932 57.398 3.15776 57.0914C2.52621 56.7849 1.99438 56.3761 1.49578 55.8651C1.03043 55.3542 0.664797 54.741 0.39888 54.0597C0.132963 53.3444 0 52.595 0 51.8115C0 51.028 0.132963 50.3127 0.39888 49.6314C0.664797 48.9501 1.03043 48.371 1.52902 47.8601C1.99438 47.3491 2.55946 46.9403 3.22425 46.6337C3.88904 46.3272 4.58707 46.1909 5.31834 46.1909C6.34877 46.1909 7.21301 46.3953 7.94428 46.8381C8.67555 47.281 9.24063 47.8601 9.60626 48.6095L8.01075 49.8017C7.74484 49.2567 7.34596 48.8139 6.84737 48.5413C6.34877 48.2348 5.81694 48.0985 5.21863 48.0985C4.75327 48.0985 4.32116 48.2007 3.95552 48.4051C3.55665 48.6095 3.25749 48.882 2.95834 49.2226C2.69242 49.5633 2.45973 49.972 2.32677 50.4149C2.19382 50.8577 2.0941 51.3346 2.0941 51.8456C2.0941 52.3565 2.16058 52.8675 2.32677 53.3103C2.49297 53.7532 2.72565 54.1619 2.99157 54.5026C3.29072 54.8432 3.62312 55.1157 4.022 55.286C4.42087 55.4904 4.85299 55.5926 5.31834 55.5926C6.38201 55.5926 7.31272 55.0817 8.17695 54.0597V53.2763H5.98313V51.6752H9.93866V57.4321H8.17695V56.2058H8.24343Z" fill="#201F21"/>
<path d="M19.3785 55.5593V57.4669H11.7998V46.2598H19.2456V48.1674H13.9272V50.8584H18.5143V52.6298H13.9272V55.5593H19.3785Z" fill="#201F21"/>
<path d="M27.3235 49.2228C27.257 49.1546 27.1241 49.0525 26.9246 48.9162C26.7252 48.7799 26.4925 48.6777 26.2266 48.5415C25.9607 48.4052 25.6615 48.303 25.3291 48.2349C24.9967 48.1668 24.6976 48.0986 24.3652 48.0986C23.7668 48.0986 23.3347 48.2008 23.0688 48.4393C22.7697 48.6437 22.6367 48.9843 22.6367 49.359C22.6367 49.5975 22.7032 49.7678 22.8029 49.9381C22.9026 50.0744 23.0688 50.2106 23.2683 50.3469C23.4677 50.4491 23.7336 50.5513 24.0328 50.6535C24.3319 50.7557 24.6976 50.8579 25.1297 50.9601C25.6615 51.0963 26.1601 51.2666 26.5922 51.437C27.0243 51.6073 27.39 51.8117 27.6891 52.0842C27.9883 52.3226 28.221 52.6292 28.3872 53.0039C28.5534 53.3446 28.6199 53.7874 28.6199 54.2984C28.6199 54.9116 28.5201 55.4225 28.2875 55.8313C28.0548 56.2401 27.7556 56.6148 27.39 56.8532C27.0243 57.1257 26.5922 57.2961 26.0936 57.4323C25.595 57.5686 25.0964 57.6027 24.5646 57.6027C23.7336 57.6027 22.9359 57.4664 22.1381 57.2279C21.3404 56.9895 20.6091 56.6148 19.9775 56.1719L20.9083 54.2984C21.008 54.4006 21.1742 54.5028 21.4068 54.6731C21.6395 54.8094 21.9387 54.9797 22.2711 55.1159C22.6035 55.2522 22.9691 55.3885 23.368 55.4906C23.7668 55.5928 24.1657 55.661 24.5978 55.661C25.7612 55.661 26.3595 55.2863 26.3595 54.5028C26.3595 54.2643 26.2931 54.0599 26.1601 53.8896C26.0272 53.7193 25.8277 53.583 25.595 53.4468C25.3624 53.3105 25.0632 53.2083 24.6976 53.1061C24.3652 53.0039 23.9663 52.9017 23.5342 52.7655C23.0023 52.6292 22.5702 52.4589 22.1714 52.2886C21.7725 52.1183 21.4733 51.9139 21.2074 51.6754C20.9415 51.437 20.7753 51.1645 20.6423 50.8579C20.5094 50.5513 20.4429 50.1766 20.4429 49.7337C20.4429 49.1546 20.5426 48.6777 20.7421 48.2349C20.9415 47.7921 21.2406 47.4174 21.6063 47.1448C21.9719 46.8383 22.404 46.6339 22.8694 46.4635C23.3347 46.3273 23.8666 46.2251 24.4316 46.2251C25.1962 46.2251 25.8942 46.3614 26.559 46.5998C27.1905 46.8383 27.7556 47.1448 28.2542 47.4855L27.3235 49.2228Z" fill="#201F21"/>
<path d="M33.1736 46.2935H35.035L39.19 57.5005H36.9962L35.9658 54.7072H32.1432L31.146 57.5005H28.9521L33.1736 46.2935ZM35.6001 53.1744L34.1043 48.7801L32.5421 53.1744H35.6001Z" fill="#201F21"/>
<path d="M49.6937 49.2231H51.6549L48.2976 57.4666H46.6024L45.2063 53.8558L43.8435 57.4666H42.1482L38.791 49.2231H40.7189L43.1122 55.4909L44.1094 52.7999L42.6801 49.2231H44.3421L45.1731 51.7439L46.0373 49.2231H47.6993L46.3032 52.7999L47.2672 55.4909L49.6937 49.2231Z" fill="#201F21"/>
<path d="M54.5802 57.6369C54.1813 57.6369 53.8157 57.5688 53.4833 57.4325C53.1509 57.2963 52.8517 57.1259 52.619 56.8875C52.3863 56.649 52.1869 56.3765 52.0539 56.07C51.921 55.7634 51.8545 55.4227 51.8545 55.014C51.8545 54.6393 51.9542 54.2646 52.1204 53.9239C52.2866 53.5833 52.5193 53.3108 52.8185 53.0723C53.1176 52.8339 53.4832 52.6635 53.9154 52.5273C54.3475 52.391 54.8128 52.3229 55.3114 52.3229C55.6771 52.3229 56.0095 52.357 56.3751 52.4251C56.7075 52.4932 57.0399 52.5613 57.3058 52.6976V52.2207C57.3058 51.6757 57.1396 51.2669 56.8405 50.9603C56.5413 50.6538 56.076 50.5175 55.5109 50.5175C55.0788 50.5175 54.6466 50.5856 54.2478 50.7559C53.8489 50.9263 53.4168 51.1306 52.9847 51.4372L52.3531 50.1087C53.3835 49.3934 54.5137 49.0527 55.7103 49.0527C56.8737 49.0527 57.7712 49.3593 58.4027 49.9384C59.0343 50.5175 59.3667 51.3691 59.3667 52.4592V55.014C59.3667 55.2184 59.3999 55.3887 59.4664 55.4909C59.5329 55.5931 59.6659 55.6271 59.8321 55.6612V57.4666C59.4997 57.5347 59.1673 57.5688 58.9346 57.5688C58.5357 57.5688 58.2366 57.4666 58.0371 57.2963C57.8377 57.1259 57.7047 56.8875 57.6382 56.5809L57.605 56.1381C57.2393 56.615 56.8072 56.9897 56.3086 57.2281C55.7103 57.5007 55.1785 57.6369 54.5802 57.6369ZM55.1785 56.104C55.5109 56.104 55.8433 56.0359 56.1757 55.8996C56.4748 55.7634 56.7408 55.5931 56.9069 55.3887C57.1396 55.2184 57.2393 55.014 57.2393 54.7755V53.8217C57.0067 53.7195 56.7407 53.6514 56.4416 53.5833C56.1424 53.5151 55.8765 53.4811 55.6106 53.4811C55.0788 53.4811 54.6466 53.6173 54.3142 53.8558C53.9818 54.0942 53.8157 54.4008 53.8157 54.8096C53.8157 55.1502 53.9486 55.4568 54.2145 55.6952C54.4472 55.9678 54.7796 56.104 55.1785 56.104Z" fill="#201F21"/>
<path d="M66.014 51.0625C65.3825 51.0625 64.8174 51.1987 64.3521 51.4372C63.8535 51.6756 63.5211 52.0163 63.2884 52.4932V57.5006H61.2275V49.2571H63.1222V51.0284C63.2551 50.7559 63.4213 50.4834 63.6208 50.279C63.8202 50.0406 64.0196 49.8702 64.2523 49.6999C64.485 49.5296 64.7177 49.3934 64.9504 49.3252C65.183 49.223 65.4157 49.189 65.6152 49.189C65.7149 49.189 65.8146 49.189 65.8811 49.189C65.9475 49.189 65.9808 49.189 66.0473 49.189V51.0625H66.014Z" fill="#201F21"/>
<path d="M70.1029 57.6368C69.5379 57.6368 69.0392 57.5346 68.5739 57.2961C68.1085 57.0918 67.7097 56.7852 67.344 56.3764C67.0116 56.0017 66.7457 55.5248 66.5462 55.0138C66.3468 54.5029 66.2471 53.9238 66.2471 53.3447C66.2471 52.7315 66.3468 52.1865 66.513 51.6755C66.6792 51.1646 66.9451 50.7217 67.2443 50.313C67.5767 49.9383 67.9423 49.6317 68.3744 49.3932C68.8066 49.1889 69.3052 49.0526 69.8038 49.0526C70.4021 49.0526 70.9339 49.1889 71.3993 49.4954C71.8646 49.802 72.2635 50.1767 72.5295 50.6536V45.9868H74.5904V55.082C74.5904 55.2864 74.6236 55.4567 74.6901 55.5589C74.7565 55.6611 74.8895 55.6951 75.0557 55.7292V57.5346C74.6901 57.6027 74.3909 57.6368 74.1915 57.6368C73.8258 57.6368 73.5267 57.5346 73.294 57.3643C73.0613 57.1599 72.9283 56.9214 72.8951 56.6149L72.8619 56.1039C72.5627 56.6149 72.1638 57.0236 71.6652 57.2961C71.1999 57.5005 70.668 57.6368 70.1029 57.6368ZM70.6348 55.8314C70.8342 55.8314 71.0336 55.7973 71.2331 55.7292C71.4325 55.6611 71.632 55.5589 71.7982 55.4226C71.9644 55.2864 72.1306 55.1501 72.2635 54.9798C72.3965 54.8095 72.4962 54.6391 72.5627 54.4348V52.459C72.4962 52.2206 72.3633 52.0162 72.2303 51.8118C72.0973 51.6074 71.8979 51.4371 71.7317 51.3008C71.5322 51.1646 71.3328 51.0624 71.1334 50.9602C70.9339 50.8921 70.7013 50.8239 70.5018 50.8239C70.2027 50.8239 69.9035 50.8921 69.6376 51.0283C69.3716 51.1646 69.139 51.3349 68.9728 51.5734C68.8066 51.8118 68.6404 52.0843 68.5406 52.3909C68.4409 52.6975 68.3744 53.0041 68.3744 53.3447C68.3744 53.6853 68.4409 54.026 68.5406 54.2985C68.6404 54.6051 68.8066 54.8435 69.006 55.082C69.2055 55.2864 69.4381 55.4907 69.7041 55.5929C70.0365 55.7633 70.3356 55.8314 70.6348 55.8314Z" fill="#201F21"/>
<path d="M79.7424 57.6373C79.0776 57.6373 78.4128 57.5351 77.748 57.2967C77.1164 57.0923 76.5513 56.7516 76.0859 56.3429L76.8505 55.0144C77.3491 55.355 77.8144 55.6275 78.2798 55.8319C78.7452 56.0022 79.2105 56.1044 79.6759 56.1044C80.0748 56.1044 80.4072 56.0363 80.6399 55.866C80.8725 55.6956 81.0055 55.4913 81.0055 55.1847C81.0055 54.8781 80.8725 54.6737 80.6066 54.5375C80.3407 54.4012 79.8753 54.2309 79.2438 54.0606C78.7119 53.9243 78.2798 53.788 77.9142 53.6518C77.5485 53.5155 77.2493 53.3452 77.0167 53.1749C76.784 53.0046 76.6178 52.8002 76.5181 52.5617C76.4183 52.3233 76.3519 52.0508 76.3519 51.7442C76.3519 51.3354 76.4183 50.9607 76.5845 50.6201C76.7507 50.2794 76.9502 50.0069 77.2493 49.7685C77.5485 49.53 77.8809 49.3597 78.2466 49.2234C78.6454 49.0872 79.0443 49.019 79.5097 49.019C80.108 49.019 80.6731 49.1212 81.2049 49.2916C81.7368 49.4619 82.2022 49.7685 82.6675 50.1432L81.8365 51.4035C81.4376 51.097 81.0387 50.8585 80.6399 50.7223C80.241 50.586 79.8753 50.5179 79.5097 50.5179C79.1773 50.5179 78.8781 50.586 78.6454 50.7223C78.4128 50.8585 78.2798 51.097 78.2798 51.4376C78.2798 51.5739 78.313 51.7101 78.3795 51.8123C78.446 51.9145 78.5125 51.9826 78.6454 52.0508C78.7784 52.1189 78.9446 52.187 79.1441 52.2551C79.3435 52.3233 79.5762 52.3914 79.8753 52.4595C80.4404 52.5958 80.9058 52.7661 81.3047 52.9024C81.7036 53.0386 82.0359 53.2089 82.2686 53.4133C82.5345 53.6177 82.7008 53.8221 82.8337 54.0606C82.9667 54.299 82.9999 54.6056 82.9999 54.9462C82.9999 55.7638 82.7008 56.3769 82.1357 56.8538C81.5374 57.3988 80.7396 57.6373 79.7424 57.6373Z" fill="#201F21"/>
<path d="M15.1572 72.8634V61.6562H19.977C20.4756 61.6562 20.941 61.7584 21.3731 61.9628C21.8052 62.1672 22.1708 62.4738 22.47 62.8144C22.7691 63.1551 23.0351 63.5638 23.2013 64.0067C23.3675 64.4495 23.4672 64.8924 23.4672 65.3693C23.4672 66.0846 23.301 66.7659 22.9353 67.345C22.5697 67.9241 22.1043 68.3669 21.506 68.6394L23.999 72.8634H21.6057L19.3787 69.1163H17.2846V72.8634H15.1572ZM17.2846 67.2087H19.9438C20.1432 67.2087 20.3094 67.1747 20.4756 67.0725C20.6418 66.9703 20.7748 66.834 20.9077 66.6978C21.0407 66.5274 21.1404 66.3571 21.2069 66.1187C21.2734 65.9143 21.3066 65.6758 21.3066 65.4033C21.3066 65.1308 21.2734 64.8924 21.1736 64.688C21.1072 64.4836 20.9742 64.2792 20.8412 64.1089C20.7083 63.9386 20.5421 63.8364 20.3759 63.7342C20.2097 63.632 20.0102 63.5979 19.844 63.5979H17.2846V67.2087Z" fill="#EE274D"/>
<path d="M29.9823 71.0239C30.4809 71.0239 30.913 70.9217 31.2454 70.7173C31.5778 70.5129 31.877 70.2404 32.0764 69.8997C32.2759 69.5591 32.4421 69.1844 32.5085 68.7416C32.6083 68.2987 32.6415 67.8559 32.6415 67.379V61.6903H34.7356V67.379C34.7356 68.1625 34.6359 68.8778 34.4697 69.525C34.3035 70.2063 34.0043 70.7854 33.6387 71.2964C33.2398 71.8073 32.7745 72.2161 32.1429 72.4886C31.5446 72.7952 30.8133 72.9314 29.9823 72.9314C29.1181 72.9314 28.3536 72.7611 27.7553 72.4545C27.157 72.148 26.6584 71.7392 26.2595 71.2282C25.8939 70.7173 25.5947 70.1382 25.4285 69.4569C25.2623 68.7756 25.1626 68.0944 25.1626 67.3449V61.6562H27.2899V67.3449C27.2899 67.8218 27.3232 68.2647 27.4229 68.7075C27.5226 69.1503 27.6556 69.525 27.855 69.8657C28.0544 70.2063 28.3536 70.4788 28.686 70.6832C29.0849 70.9217 29.517 71.0239 29.9823 71.0239Z" fill="#EE274D"/>
<path d="M43.4115 64.6202C43.345 64.5521 43.2121 64.4499 43.0126 64.3136C42.8132 64.1774 42.5805 64.0752 42.3146 63.9389C42.0487 63.8027 41.7495 63.7005 41.4171 63.6323C41.0847 63.5642 40.7855 63.4961 40.4531 63.4961C39.8548 63.4961 39.4227 63.5983 39.1568 63.8367C38.8576 64.0411 38.7246 64.3818 38.7246 64.7565C38.7246 64.9949 38.7911 65.1652 38.8908 65.3356C38.9906 65.4718 39.1568 65.6081 39.3562 65.7443C39.5557 65.8465 39.8216 65.9487 40.1207 66.0509C40.4199 66.1531 40.7855 66.2553 41.2177 66.3575C41.7495 66.4937 42.2481 66.6641 42.6802 66.8344C43.1124 67.0047 43.478 67.2091 43.7772 67.4816C44.0763 67.7201 44.309 68.0266 44.4752 68.4013C44.6414 68.742 44.7079 69.1848 44.7079 69.6958C44.7079 70.3089 44.6082 70.8199 44.3755 71.2287C44.1428 71.6374 43.8436 72.0121 43.478 72.2506C43.1123 72.5231 42.6802 72.6934 42.1816 72.8297C41.683 72.9659 41.1844 73 40.6526 73C39.8216 73 39.0238 72.8637 38.226 72.6253C37.4283 72.3868 36.697 72.0121 36.0654 71.5693L36.9962 69.6958C37.0959 69.798 37.2621 69.9002 37.4948 70.0705C37.7274 70.2067 38.0266 70.3771 38.359 70.5133C38.6914 70.6496 39.057 70.7858 39.4559 70.888C39.8548 70.9902 40.2537 71.0583 40.6858 71.0583C41.8492 71.0583 42.4475 70.6836 42.4475 69.9002C42.4475 69.6617 42.3811 69.4573 42.2481 69.287C42.1152 69.1167 41.9157 68.9804 41.683 68.8442C41.4503 68.7079 41.1512 68.6057 40.7855 68.5035C40.4531 68.4013 40.0543 68.2991 39.6221 68.1629C39.0903 68.0266 38.6582 67.8563 38.2593 67.686C37.8604 67.5157 37.5612 67.3113 37.2953 67.0728C37.0294 66.8344 36.8632 66.5619 36.7302 66.2553C36.5973 65.9487 36.5308 65.574 36.5308 65.1312C36.5308 64.5521 36.6305 64.0752 36.8299 63.6323C37.0294 63.1895 37.3286 62.8148 37.6942 62.5423C38.0598 62.2357 38.492 62.0313 38.9573 61.861C39.4227 61.7248 39.9545 61.6226 40.5196 61.6226C41.2841 61.6226 41.9822 61.7588 42.647 61.9973C43.2785 62.2357 43.8436 62.5423 44.3422 62.8829L43.4115 64.6202Z" fill="#EE274D"/>
<path d="M52.8514 64.6202C52.785 64.5521 52.652 64.4499 52.4526 64.3136C52.2531 64.1774 52.0204 64.0752 51.7545 63.9389C51.4886 63.8027 51.1894 63.7005 50.857 63.6323C50.5246 63.5642 50.2255 63.4961 49.8931 63.4961C49.2948 63.4961 48.8626 63.5983 48.5967 63.8367C48.2975 64.0411 48.1646 64.3818 48.1646 64.7565C48.1646 64.9949 48.2311 65.1652 48.3308 65.3356C48.4305 65.4718 48.5967 65.6081 48.7961 65.7443C48.9956 65.8465 49.2615 65.9487 49.5607 66.0509C49.8598 66.1531 50.2255 66.2553 50.6576 66.3575C51.1894 66.4937 51.688 66.6641 52.1202 66.8344C52.5523 67.0047 52.9179 67.2091 53.2171 67.4816C53.5163 67.7201 53.7489 68.0266 53.9151 68.4013C54.0813 68.742 54.1478 69.1848 54.1478 69.6958C54.1478 70.3089 54.0481 70.8199 53.8154 71.2287C53.5827 71.6374 53.2836 72.0121 52.9179 72.2506C52.5523 72.5231 52.1202 72.6934 51.6215 72.8297C51.1229 72.9659 50.6244 73 50.0925 73C49.2615 73 48.4637 72.8637 47.666 72.6253C46.8682 72.3868 46.1369 72.0121 45.5054 71.5693L46.4361 69.6958C46.5358 69.798 46.702 69.9002 46.9347 70.0705C47.1674 70.2067 47.4665 70.3771 47.7989 70.5133C48.1313 70.6496 48.497 70.7858 48.8959 70.888C49.2948 70.9902 49.6936 71.0583 50.1257 71.0583C51.2891 71.0583 51.8875 70.6836 51.8875 69.9002C51.8875 69.6617 51.821 69.4573 51.688 69.287C51.5551 69.1167 51.3556 68.9804 51.1229 68.8442C50.8903 68.7079 50.5911 68.6057 50.2255 68.5035C49.8931 68.4013 49.4942 68.2991 49.0621 68.1629C48.5302 68.0266 48.0981 67.8563 47.6992 67.686C47.3003 67.5157 47.0012 67.3113 46.7353 67.0728C46.4693 66.8344 46.3031 66.5619 46.1702 66.2553C46.0372 65.9487 45.9707 65.574 45.9707 65.1312C45.9707 64.5521 46.0704 64.0752 46.2699 63.6323C46.4693 63.1895 46.7685 62.8148 47.1341 62.5423C47.4998 62.2357 47.9319 62.0313 48.3973 61.861C48.8626 61.7248 49.3945 61.6226 49.9595 61.6226C50.7241 61.6226 51.4221 61.7588 52.0869 61.9973C52.7185 62.2357 53.2836 62.5423 53.7822 62.8829L52.8514 64.6202Z" fill="#EE274D"/>
<path d="M55.7764 72.8634V61.6562H57.9037V72.8634H55.7764Z" fill="#EE274D"/>
<path d="M63.2888 61.6909H65.1502L69.3051 72.8981H67.1113L66.0809 70.1048H62.2584L61.2612 72.8981H59.0674L63.2888 61.6909ZM65.7153 68.5719L64.2195 64.1776L62.6572 68.5719H65.7153Z" fill="#EE274D"/>
<path opacity="0.5" d="M7.24619 36.9939C8.27423 36.9939 9.10762 36.1399 9.10762 35.0863C9.10762 34.0328 8.27423 33.1787 7.24619 33.1787C6.21816 33.1787 5.38477 34.0328 5.38477 35.0863C5.38477 36.1399 6.21816 36.9939 7.24619 36.9939Z" fill="#EF4454"/>
<path opacity="0.5" d="M15.1573 38.4591C16.1854 38.4591 17.0187 37.605 17.0187 36.5515C17.0187 35.4981 16.1854 34.644 15.1573 34.644C14.1293 34.644 13.2959 35.4981 13.2959 36.5515C13.2959 37.605 14.1293 38.4591 15.1573 38.4591Z" fill="#EF4454"/>
<path opacity="0.5" d="M22.8687 37.8455C23.8968 37.8455 24.7302 36.9914 24.7302 35.9379C24.7302 34.8843 23.8968 34.0303 22.8687 34.0303C21.8407 34.0303 21.0073 34.8843 21.0073 35.9379C21.0073 36.9914 21.8407 37.8455 22.8687 37.8455Z" fill="#EF4454"/>
<path opacity="0.5" d="M31.6441 35.6994C32.6722 35.6994 33.5056 34.8454 33.5056 33.7918C33.5056 32.7383 32.6722 31.8843 31.6441 31.8843C30.6161 31.8843 29.7827 32.7383 29.7827 33.7918C29.7827 34.8454 30.6161 35.6994 31.6441 35.6994Z" fill="#EF4454"/>
<path d="M31.0131 34.4386C29.8497 34.4386 28.9189 33.4848 28.9189 32.2926C28.9189 31.1003 29.8497 30.1465 31.0131 30.1465C32.1765 30.1465 33.1072 31.1003 33.1072 32.2926C33.1072 33.4848 32.1765 34.4386 31.0131 34.4386ZM31.0131 30.5893C30.1156 30.5893 29.3511 31.3387 29.3511 32.2926C29.3511 33.2123 30.0823 33.9958 31.0131 33.9958C31.9105 33.9958 32.6751 33.2464 32.6751 32.2926C32.6751 31.3387 31.9438 30.5893 31.0131 30.5893Z" fill="#676767"/>
<path d="M22.4701 36.7896C21.3067 36.7896 20.376 35.8358 20.376 34.6436C20.376 33.4513 21.3067 32.4976 22.4701 32.4976C23.6335 32.4976 24.5642 33.4513 24.5642 34.6436C24.5642 35.8358 23.6335 36.7896 22.4701 36.7896ZM22.4701 32.9404C21.5726 32.9404 20.8081 33.6898 20.8081 34.6436C20.8081 35.5974 21.5394 36.3468 22.4701 36.3468C23.4008 36.3468 24.1321 35.5974 24.1321 34.6436C24.1321 33.6898 23.3676 32.9404 22.4701 32.9404Z" fill="#676767"/>
<path d="M14.5257 37.4366C13.3624 37.4366 12.4316 36.4828 12.4316 35.2905C12.4316 34.0983 13.3624 33.1445 14.5257 33.1445C15.6891 33.1445 16.6199 34.0983 16.6199 35.2905C16.6531 36.4828 15.6891 37.4366 14.5257 37.4366ZM14.5257 33.5874C13.6283 33.5874 12.8638 34.3368 12.8638 35.2905C12.8638 36.2443 13.595 36.9937 14.5257 36.9937C15.4232 36.9937 16.1877 36.2443 16.1877 35.2905C16.1877 34.3368 15.4565 33.5874 14.5257 33.5874Z" fill="#676767"/>
<path d="M6.61464 35.9381C5.45124 35.9381 4.52051 34.9843 4.52051 33.7921C4.52051 32.5998 5.45124 31.646 6.61464 31.646C7.77805 31.646 8.70877 32.5998 8.70877 33.7921C8.70877 34.9843 7.77805 35.9381 6.61464 35.9381ZM6.61464 32.0888C5.71716 32.0888 4.95264 32.8383 4.95264 33.7921C4.95264 34.7459 5.68392 35.4953 6.61464 35.4953C7.51213 35.4953 8.27665 34.7459 8.27665 33.7921C8.27665 32.8383 7.51213 32.0888 6.61464 32.0888Z" fill="#676767"/>
</svg>
