<?xml version="1.0" encoding="UTF-8"?> <svg xmlns="http://www.w3.org/2000/svg" width="60" height="60" viewBox="0 0 60 60" fill="none"> <circle cx="30" cy="30" r="30" fill="#00A7D8"></circle> <path fill-rule="evenodd" clip-rule="evenodd" d="M39.7862 19H20.2138C19.5436 19 19 19.5436 19 20.2138V39.7862C19 40.4564 19.5436 41 20.2138 41H30.7586V32.4921H27.8948V29.1617H30.7586V26.7114C30.7586 23.8703 32.4959 22.3228 35.0297 22.3228C35.8835 22.3209 36.7369 22.3641 37.5862 22.4517V25.4217H35.8418C34.4607 25.4217 34.1914 26.0741 34.1914 27.0376V29.1579H37.4914L37.0628 32.4883H34.1724V41H39.7862C40.4568 41 41 40.4564 41 39.7862V20.2138C41 19.5436 40.4568 19 39.7862 19Z" fill="white"></path> </svg> 