<?xml version="1.0" encoding="UTF-8"?> <svg xmlns="http://www.w3.org/2000/svg" width="60" height="60" viewBox="0 0 60 60" fill="none"> <circle cx="30" cy="30" r="30" fill="#00A7D8"></circle> <path fill-rule="evenodd" clip-rule="evenodd" d="M41.3694 22.136C41.0634 21.3478 40.6553 20.6801 39.9876 20.0124C39.3199 19.3447 38.6522 18.9366 37.864 18.6306C37.1036 18.3338 36.2226 18.1298 34.9521 18.0742L34.9305 18.0733C33.6676 18.0183 33.2459 18 30 18C26.7357 18 26.3277 18.0093 25.0479 18.0742C23.7682 18.1298 22.8964 18.3338 22.136 18.6306C21.3478 18.9366 20.6801 19.3447 20.0124 20.0124C19.3447 20.6801 18.9366 21.3478 18.6306 22.136C18.3338 22.8964 18.1298 23.7774 18.0742 25.0479L18.0733 25.0695C18.0183 26.3324 18 26.7541 18 30C18 33.2643 18.0093 33.6723 18.0742 34.9521C18.1298 36.2318 18.3338 37.1036 18.6306 37.864C18.9366 38.6522 19.3447 39.3199 20.0124 39.9876C20.6801 40.6553 21.3478 41.0634 22.136 41.3694C22.8964 41.6662 23.7774 41.8702 25.0479 41.9258L25.0694 41.9268H25.0694C26.3324 41.9817 26.7541 42 30 42C33.2643 42 33.6723 41.9907 34.9521 41.9258C36.2318 41.8702 37.1036 41.6662 37.864 41.3694C38.6522 41.0634 39.3199 40.6553 39.9876 39.9876C40.6553 39.3199 41.0634 38.6522 41.3694 37.864C41.6662 37.1036 41.8702 36.2226 41.9258 34.9521L41.9268 34.9306C41.9817 33.6677 42 33.2459 42 30C42 26.7357 41.9907 26.3277 41.9258 25.0479C41.8702 23.7682 41.6662 22.8964 41.3694 22.136ZM38.9322 34.4322C38.8814 35.5 38.7034 36.0847 38.5508 36.4661C38.3559 36.9746 38.1102 37.3475 37.7288 37.7288C37.3475 38.1102 36.9831 38.3475 36.4661 38.5508C36.0763 38.7034 35.5 38.8814 34.4322 38.9322L34.377 38.9346H34.377C33.2596 38.9836 32.8852 39 30 39C27.0678 39 26.7203 38.9915 25.5678 38.9322C24.5 38.8814 23.9153 38.7034 23.5339 38.5508C23.0254 38.3559 22.6525 38.1102 22.2712 37.7288C21.8898 37.3475 21.6525 36.9831 21.4492 36.4661C21.2966 36.0763 21.1186 35.5 21.0678 34.4322L21.0658 34.3863C21.0165 33.2615 21 32.8849 21 30C21 27.0763 21.0085 26.7203 21.0678 25.5678C21.1186 24.5 21.2966 23.9153 21.4492 23.5339C21.6441 23.0254 21.8898 22.6525 22.2712 22.2712C22.6525 21.8898 23.0169 21.6525 23.5339 21.4492C23.9237 21.2966 24.5 21.1186 25.5678 21.0678L25.6137 21.0658C26.7385 21.0165 27.1151 21 30 21C32.9237 21 33.2797 21.0085 34.4322 21.0678C35.5 21.1186 36.0847 21.2966 36.4661 21.4492C36.9746 21.6441 37.3475 21.8898 37.7288 22.2712C38.1102 22.6525 38.3475 23.0169 38.5508 23.5339C38.7034 23.9237 38.8814 24.5 38.9322 25.5678L38.9342 25.6136V25.6137C38.9835 26.7385 39 27.1151 39 30C39 32.8959 38.9834 33.2726 38.9336 34.3995L38.9322 34.4322ZM37.5 24C37.5 24.8284 36.8284 25.5 36 25.5C35.1716 25.5 34.5 24.8284 34.5 24C34.5 23.1716 35.1716 22.5 36 22.5C36.8284 22.5 37.5 23.1716 37.5 24ZM30 24C26.6887 24 24 26.6887 24 30C24 33.3113 26.6887 36 30 36C33.3113 36 36 33.3113 36 30C36 26.6887 33.3113 24 30 24ZM27 30C27 31.6597 28.3472 33 30 33C31.6528 33 33 31.6528 33 30C33 28.3403 31.6597 27 30 27C28.3403 27 27 28.3472 27 30Z" fill="white"></path> </svg> 