<?xml version="1.0" encoding="UTF-8"?> <svg xmlns="http://www.w3.org/2000/svg" width="60" height="60" viewBox="0 0 60 60" fill="none"> <circle cx="30" cy="30" r="30" fill="#00A7D8"></circle> <path fill-rule="evenodd" clip-rule="evenodd" d="M39.3765 22.5016C40.4091 22.7776 41.2224 23.5907 41.4984 24.6233C42 26.495 42 30.4 42 30.4C42 30.4 42 34.3051 41.4984 36.1766C41.2224 37.2092 40.4091 38.0225 39.3765 38.2985C37.5048 38.8001 29.9999 38.8001 29.9999 38.8001C29.9999 38.8001 22.495 38.8001 20.6233 38.2985C19.5907 38.0225 18.7774 37.2092 18.5014 36.1766C18 34.3051 18 30.4 18 30.4C18 30.4 18 26.495 18.5014 24.6233C18.7774 23.5907 19.5907 22.7776 20.6233 22.5016C22.495 22 29.9999 22 29.9999 22C29.9999 22 37.5048 22 39.3765 22.5016ZM34.062 30.5L28 34V27L34.062 30.5Z" fill="white"></path> </svg> 