<?xml version="1.0" encoding="UTF-8"?> <svg xmlns="http://www.w3.org/2000/svg" width="60" height="60" viewBox="0 0 60 60" fill="none"> <circle cx="30" cy="30" r="30" fill="#00A7D8"></circle> <path fill-rule="evenodd" clip-rule="evenodd" d="M41.4264 23.0157C41.6003 22.4303 41.4264 22 40.5993 22H37.8642C37.1688 22 36.8482 22.3716 36.6743 22.7814C36.6743 22.7814 35.2836 26.2065 33.3132 28.4313C32.6757 29.0753 32.386 29.2803 32.0381 29.2803C31.8644 29.2803 31.6128 29.0753 31.6128 28.4899V23.0157C31.6128 22.313 31.4108 22 30.8314 22H26.5335C26.099 22 25.8376 22.3261 25.8376 22.6351C25.8376 23.3013 26.8226 23.4548 26.9242 25.3282V29.3972C26.9242 30.2895 26.7648 30.4511 26.417 30.4511C25.4899 30.4511 23.2345 27.011 21.8968 23.0743C21.6347 22.3091 21.3717 22 20.6727 22H17.9377C17.1563 22 17 22.3716 17 22.7814C17 23.5132 17.9272 27.1432 21.3172 31.9442C23.5773 35.2227 26.7617 37 29.6592 37C31.3977 37 31.6128 36.6053 31.6128 35.9253V33.4474C31.6128 32.6579 31.7775 32.5004 32.328 32.5004C32.7336 32.5004 33.429 32.7053 35.0517 34.286C36.906 36.1594 37.2119 37 38.255 37H40.99C41.7714 37 42.1621 36.6053 41.9367 35.8263C41.6901 35.0498 40.8046 33.9234 39.6299 32.588C38.9924 31.827 38.0362 31.0075 37.7464 30.5976C37.3407 30.0708 37.4567 29.8363 37.7464 29.368C37.7464 29.368 41.0787 24.6258 41.4264 23.0157Z" fill="white"></path> </svg> 