<svg width="215" height="90" viewBox="0 0 215 90" fill="none" xmlns="http://www.w3.org/2000/svg">
<path d="M0 64.0224C0 53.5044 8.06157 46.2529 18.9187 46.2529C22.1043 46.2529 25.1599 46.9062 27.6954 48.2128V56.8362C25.2899 55.3337 22.8194 54.3537 18.9837 54.3537C13.3276 54.3537 8.97175 58.4041 8.97175 64.0224C8.97175 69.706 13.3926 73.6911 19.3088 73.6911C22.5594 73.6911 25.55 73.0378 28.2155 70.9473V79.636C25.615 81.0079 22.2343 81.7919 18.9187 81.7919C8.12658 81.7919 0 74.475 0 64.0224Z" fill="#00A7D8"/>
<path d="M49.6698 60.8866C52.0753 60.8866 53.5706 59.7107 53.5706 57.6855C53.5706 55.6603 52.0753 54.3537 49.6698 54.3537H42.9085V60.8866H49.6698ZM34.1968 46.9062H50.1899C57.7314 46.9062 62.4123 51.3486 62.4123 57.4242C62.4123 61.8012 60.0068 65.3943 55.781 67.0276L66.053 81.008H56.041L46.4192 68.0075H42.9085V81.008H34.1968V46.9062Z" fill="#00A7D8"/>
<path d="M113.252 54.7456H120.728L135.551 73.5604V54.7456H144.133V88.9127H136.852L121.834 70.0326V88.9127H113.252V54.7456Z" fill="#201F21"/>
<path d="M150.049 71.8618C150.049 61.3438 158.111 54.0923 168.968 54.0923C172.154 54.0923 175.209 54.7456 177.745 56.0522V64.6756C175.339 63.173 172.869 62.1931 169.033 62.1931C163.377 62.1931 159.021 66.2435 159.021 71.8618C159.021 77.5454 163.442 81.5304 169.358 81.5304C172.609 81.5304 175.599 80.8772 178.265 78.7866V87.4754C175.664 88.8473 172.284 89.6312 168.968 89.6312C158.176 89.6312 150.049 82.3144 150.049 71.8618Z" fill="#201F21"/>
<path d="M184.181 54.7456H192.957V66.8968H205.765V54.7456H214.477V88.9127H205.765V74.7363H192.957V88.9127H184.181V54.7456Z" fill="#201F21"/>
<path d="M84.4514 73.6911C81.2007 73.6911 78.2752 71.8619 78.2752 67.2235V46.9062H69.5635V66.7662C69.5635 76.6309 76.1948 81.7266 84.4514 81.7266V73.6911Z" fill="#00A7D8"/>
<path d="M92.3179 81.5305C95.5685 81.5305 98.4941 79.7013 98.4941 75.0629V54.7456H107.206V74.6056C107.206 84.4703 100.574 89.5659 92.3179 89.5659V81.5305Z" fill="#201F21"/>
<path d="M46.6792 26.4582C53.3105 26.4582 57.0812 23.0611 57.0812 17.1162C57.0812 11.1713 53.3105 7.77415 46.6792 7.77415H42.5184V26.5236H46.6792V26.4582ZM33.7417 0H47.2643C58.3165 0 66.053 7.05553 66.053 17.0509C66.053 27.1115 58.3165 34.1017 47.2643 34.1017H33.7417V0Z" fill="#00A7D8"/>
<path d="M10.8573 26.4582V20.9706H27.9556V13.2618H10.8573V7.70882H27.9556V0H2.08057V34.1671H27.9556V26.4582H10.8573Z" fill="#00A7D8"/>
</svg>
