<svg width="162" height="62" viewBox="0 0 162 62" fill="none" xmlns="http://www.w3.org/2000/svg">
<path d="M0 47.9958C0 40.1344 6.06849 34.6865 14.2058 34.6865C16.6194 34.6865 18.8951 35.1692 20.8259 36.1347V42.6169C18.964 41.5136 17.1021 40.755 14.2747 40.755C9.99921 40.755 6.75809 43.7893 6.75809 47.9958C6.75809 52.2713 10.0682 55.2366 14.5506 55.2366C17.0331 55.2366 19.2399 54.7539 21.3087 53.1678V59.6501C19.3088 60.6845 16.8263 61.2362 14.2747 61.2362C6.13745 61.3051 0 55.8573 0 47.9958Z" fill="#00A7D8"/>
<path d="M25.7222 35.1699H37.7212C43.4449 35.1699 46.9619 38.48 46.9619 43.1003C46.9619 46.4104 45.1 49.0309 41.9967 50.2722L49.7203 60.7541H42.1347L34.9628 51.0307H32.3423V60.8231H25.7911V35.1699H25.7222ZM37.4454 45.6519C39.2383 45.6519 40.3417 44.7554 40.3417 43.2383C40.3417 41.7211 39.2383 40.7557 37.4454 40.7557H32.3423V45.6519H37.4454Z" fill="#00A7D8"/>
<path d="M85.3037 35.1699H90.8895L102.13 49.2378V35.1699H108.543V60.7541H103.095L91.786 46.6173V60.7541H85.3037V35.1699Z" fill="white"/>
<path d="M113.025 47.9958C113.025 40.1344 119.094 34.6865 127.231 34.6865C129.645 34.6865 131.92 35.1692 133.851 36.1347V42.6169C131.989 41.5136 130.128 40.755 127.3 40.755C123.025 40.755 119.783 43.7893 119.783 47.9958C119.783 52.2713 123.094 55.2366 127.576 55.2366C130.059 55.2366 132.265 54.7539 134.334 53.1678V59.6501C132.334 60.6845 129.852 61.2362 127.3 61.2362C119.163 61.3051 113.025 55.8573 113.025 47.9958Z" fill="white"/>
<path d="M138.748 35.1699H145.368V44.2727H155.022V35.1699H161.573V60.7541H155.022V50.1343H145.368V60.7541H138.748V35.1699Z" fill="white"/>
<path d="M63.5812 55.2373C61.0986 55.2373 58.9609 53.8581 58.9609 50.4101V35.1699H52.4097V50.0653C52.4097 57.444 57.4438 61.3058 63.6502 61.3058V55.2373H63.5812Z" fill="#00A7D8"/>
<path d="M69.5118 55.2373C71.9944 55.2373 74.1322 53.8581 74.1322 50.4101V35.1699H80.6834V50.0653C80.6834 57.444 75.6493 61.3058 69.4429 61.3058V55.2373H69.5118Z" fill="white"/>
<path d="M25.4463 0H35.6524C43.9966 0 49.7892 5.24097 49.7892 12.8266C49.7892 20.4122 43.9966 25.6532 35.6524 25.6532H25.4463V0ZM35.1697 19.7915C40.1348 19.7915 42.9622 17.24 42.9622 12.7576C42.9622 8.27521 40.1348 5.72369 35.1697 5.72369H31.9975V19.7915H35.1697Z" fill="#00A7D8"/>
<path d="M1.58691 0V25.5842H21.0336V19.7915H8.13812V15.7229H21.0336V9.93025H8.13812V5.79265H21.0336V0H1.58691Z" fill="#00A7D8"/>
</svg>
