<svg width="214" height="102" viewBox="0 0 214 102" fill="none" xmlns="http://www.w3.org/2000/svg">
<path d="M157.884 75.4747L155.665 71.1263C155.506 70.971 155.348 70.8158 155.031 70.9711C153.128 72.2135 150.751 72.99 148.056 72.99C142.191 72.99 138.228 68.3309 138.228 62.5848C138.228 56.8387 142.349 52.1797 148.056 52.1797C150.751 52.1797 153.128 52.9562 155.031 54.1986C155.189 54.3539 155.506 54.1986 155.665 54.0433L157.884 49.6949C158.043 49.5396 157.884 49.229 157.725 49.0737C155.031 47.2101 151.702 46.123 148.056 46.123C138.862 46.123 131.253 53.4221 131.253 62.5848C131.253 71.5922 138.703 79.0467 148.056 79.0467C151.702 79.0467 155.031 77.9596 157.725 76.0959C158.043 75.9406 158.043 75.7853 157.884 75.4747ZM98.7568 75.4747L96.5375 71.1263C96.379 70.971 96.2205 70.8158 95.9034 70.9711C94.0012 72.2135 91.6234 72.99 88.9286 72.99C83.0635 72.99 78.942 68.3309 78.942 62.5848C78.942 56.8387 83.0635 52.1797 88.9286 52.1797C91.6234 52.1797 94.0012 52.9562 95.9034 54.1986C96.062 54.3539 96.379 54.1986 96.5375 54.0433L98.7568 49.6949C98.9153 49.5396 98.7568 49.229 98.5982 49.0737C95.9034 47.2101 92.5746 46.123 88.9286 46.123C79.7346 46.123 72.1257 53.4221 72.1257 62.5848C72.1257 71.5922 79.5761 79.0467 88.9286 79.0467C92.5746 79.0467 95.9034 77.9596 98.5982 76.0959C98.7568 75.9406 98.9153 75.7853 98.7568 75.4747ZM125.863 54.0433H120.949C120.632 54.0433 120.474 54.1986 120.315 54.3539L109.536 69.7287H109.06L109.536 60.2553V54.3539C109.536 54.1986 109.377 53.888 109.06 53.888H104.305C104.146 53.888 103.988 54.0433 103.829 54.1986V77.649C103.829 77.8043 103.988 78.1148 104.305 78.1148H109.219C109.536 78.1148 109.695 77.9595 109.853 77.8042L120.632 62.4295H121.108L120.632 71.7476V77.649C120.632 77.8043 120.791 78.1148 121.108 78.1148H125.863C126.022 78.1148 126.18 77.9595 126.339 77.8042V54.3539C126.339 54.1986 126.022 54.0433 125.863 54.0433ZM66.7361 46.8995H61.0295C60.7124 46.8995 60.5539 47.0548 60.3954 47.2101L46.4458 66.9332H45.9702L46.4458 56.2175V47.2101C46.4458 47.0548 46.2873 46.7442 45.9702 46.7442H40.4221C40.2636 46.7442 39.9466 46.8995 39.9466 47.2101V77.8042C39.9466 77.9595 40.1051 78.2702 40.4221 78.2702H45.0191C45.3362 78.2702 45.4947 78.1149 45.6532 77.9596L60.7124 56.5281H61.188L60.7124 67.2438V77.8042C60.7124 77.9595 60.8709 78.2702 61.188 78.2702H66.7361C66.8946 78.2702 67.2117 78.1149 67.2117 77.9596V47.3654C67.2117 47.2101 66.8946 47.0548 66.7361 46.8995ZM32.0207 47.3654V77.9596C32.0207 78.1149 31.8621 78.2702 31.5451 78.2702H25.997C25.8384 78.2702 25.5214 78.1148 25.5214 77.8042V67.2438L25.997 56.6834H25.5214L16.4859 69.4181H15.5348L6.34072 56.8387H5.86517L6.34072 67.3992V77.9596C6.34072 78.1149 6.18221 78.4254 5.86517 78.4254H0.475554C0.317036 78.4254 0.158518 78.2701 0 78.1148V47.3654C0 47.2101 0.158518 46.8995 0.475554 46.8995H6.02369C6.34072 46.8995 6.49924 47.0548 6.65776 47.2101L16.0103 60.2553L25.3629 47.2101C25.5214 47.0548 25.6799 46.8995 25.997 46.8995H31.5451C31.8621 46.8995 32.0207 47.2101 32.0207 47.3654Z" fill="#58595B"/>
<path d="M180.552 18.7913C175.004 18.7913 169.931 20.9655 166.127 24.5374C165.968 24.6927 165.968 25.0033 166.127 25.1586L170.09 29.0411C170.248 29.1964 170.565 29.1964 170.724 29.0411C173.26 26.7116 176.748 25.1586 180.552 25.1586C188.478 25.1586 194.977 31.5259 194.977 39.2909C194.977 47.0559 188.478 53.4232 180.552 53.4232C176.748 53.4232 173.26 52.0255 170.724 49.5407C170.565 49.3854 170.248 49.3854 170.09 49.5407L166.127 53.4232C165.968 53.5785 165.968 53.8891 166.127 54.0444C169.931 57.6163 175.004 59.7905 180.552 59.7905C191.965 59.7905 201.318 50.6278 201.318 39.4462C201.318 28.2646 192.124 18.7913 180.552 18.7913ZM180.552 6.212V12.1134C180.552 12.2687 180.711 12.5793 181.028 12.5793C195.77 12.7346 207.817 24.6927 207.817 39.1356C207.817 53.7338 195.928 65.5366 181.028 65.6919C180.711 65.6919 180.552 65.8472 180.552 66.1578V71.5933C180.552 71.7486 180.711 71.9039 180.869 72.0592C199.257 71.9039 213.999 57.1504 213.999 39.1356C214.158 20.9655 199.099 6.212 180.552 6.212ZM180.552 0.4659C180.552 0.3106 180.394 0.1553 180.235 0C158.518 0.1553 140.923 17.3936 140.605 38.825C140.605 38.9803 140.764 39.1356 140.923 39.1356H146.471C146.629 39.1356 146.788 38.9803 146.788 38.6697C147.263 20.8102 162.164 6.212 180.552 6.212V0.4659ZM188.636 39.1356C188.636 43.484 184.991 46.9006 180.711 46.9006C176.272 46.9006 172.785 43.3287 172.785 39.1356C172.785 34.7872 176.431 31.3706 180.711 31.3706C184.991 31.3706 188.636 34.7872 188.636 39.1356Z" fill="#00AEEF"/>
<path d="M8.4015 88.6772C8.56002 88.6772 8.56002 88.8325 8.56002 88.8325L4.91408 96.2869C4.12149 98.1505 3.3289 98.927 2.06075 98.927C1.74371 98.927 1.42667 98.927 1.10963 98.7717L0.951113 98.6164V97.5293C0.951113 97.374 0.951113 97.374 1.10963 97.374C1.26815 97.5293 1.42667 97.5293 1.74371 97.5293C2.37778 97.5293 2.85334 97.2187 3.3289 96.1316V95.9763L0 88.8325C0 88.6772 0 88.6772 0.158519 88.6772H1.42667C1.58519 88.6772 1.58519 88.6772 1.58519 88.8325L3.48742 92.715L4.28001 94.7339L5.0726 92.715L6.97483 88.8325C6.97483 88.6772 7.13335 88.6772 7.13335 88.6772H8.4015Z" fill="#58595B"/>
<path d="M14.7418 91.4746C14.9003 91.4746 14.9003 91.6299 14.7418 91.4746L14.9003 98.463C14.9003 98.6183 14.9003 98.6183 14.7418 98.6183H13.6322C13.4736 98.6183 13.4736 98.6183 13.4736 98.463V95.5124H10.1448V98.463C10.1448 98.6183 10.1448 98.6183 9.98623 98.6183H8.71809C8.55957 98.6183 8.55957 98.6183 8.55957 98.463V91.6299C8.55957 91.4746 8.55957 91.4746 8.71809 91.4746H9.82772C9.98623 91.4746 9.98623 91.4746 9.98623 91.6299V94.4253H13.3151V91.6299C13.3151 91.4746 13.3151 91.4746 13.4736 91.4746H14.7418Z" fill="#58595B"/>
<path d="M22.668 91.4746C22.8266 91.4746 22.8266 91.6299 22.668 91.4746L22.8266 98.463C22.8266 98.6183 22.8266 98.6183 22.668 98.6183H21.5584C21.3999 98.6183 21.3999 98.6183 21.3999 98.463V95.5124V93.3382H21.2414L19.9732 95.3571L18.2295 98.3077C18.2295 98.463 18.071 98.463 18.071 98.463H16.6444C16.4858 98.463 16.4858 98.463 16.4858 98.3077V91.6299C16.4858 91.4746 16.4858 91.4746 16.6444 91.4746H17.754C17.9125 91.4746 17.9125 91.4746 17.9125 91.6299V94.4253V96.7547H18.071L19.3392 94.4253L20.9243 91.6299C20.9243 91.4746 21.0829 91.4746 21.0829 91.4746H22.668Z" fill="#58595B"/>
<path d="M25.8383 97.6866H27.4234C28.3745 97.6866 28.6915 97.2207 28.6915 96.7548V96.5995C28.6915 95.9783 28.3745 95.5124 27.4234 95.5124H25.8383V97.6866ZM25.8383 94.5806H27.2649C28.216 94.5806 28.6915 94.1147 28.6915 93.4935V93.3382C28.6915 92.717 28.3745 92.4064 27.2649 92.4064H25.8383V94.5806ZM27.4234 91.4746C29.1671 91.4746 30.1182 92.0958 30.1182 93.3382V93.4935C30.1182 94.1147 29.8011 94.7359 29.1671 95.0465C29.9596 95.3571 30.4352 95.823 30.4352 96.5995V96.7548C30.4352 97.9972 29.6426 98.7737 27.7404 98.7737H24.5701C24.4116 98.7737 24.4116 98.7737 24.4116 98.6184V91.6299C24.4116 91.4746 24.4116 91.4746 24.5701 91.4746H27.4234Z" fill="#58595B"/>
<path d="M34.7153 92.406C33.7642 92.406 32.9716 93.1825 32.9716 94.4249H36.459C36.459 93.0272 35.9835 92.406 34.7153 92.406ZM34.8738 91.3188C36.6175 91.3188 37.7272 92.406 37.7272 94.4249V95.0461C37.7272 95.2014 37.5687 95.2014 37.5687 95.2014H32.9716V95.6673C32.9716 96.9097 33.9227 97.5309 35.0323 97.5309C35.6664 97.5309 36.459 97.2203 37.2516 96.9097C37.2516 96.9097 37.4101 96.9097 37.4101 97.065V97.9968C37.4101 98.1522 37.4101 98.1522 37.2516 98.1522C36.7761 98.4628 35.6664 98.6181 34.8738 98.6181C32.9716 98.6181 31.5449 97.5309 31.5449 95.3567V94.7355C31.5449 92.5613 32.9716 91.3188 34.7153 91.3188H34.8738Z" fill="#58595B"/>
<path d="M42.4826 92.5613C41.8485 92.5613 41.3729 92.8719 40.7389 93.3378V96.9097C41.3729 97.5309 42.007 97.6862 42.4826 97.6862C43.5922 97.6862 44.0678 97.065 44.0678 95.6673V94.4249C44.2263 93.1825 43.5922 92.5613 42.4826 92.5613ZM42.9581 91.3188C44.7018 91.3188 45.6529 92.5613 45.6529 94.4249V95.512C45.6529 97.6862 44.5433 98.7733 42.7996 98.7733C42.1655 98.7733 41.3729 98.4627 40.8974 97.9968V100.948C40.8974 101.103 40.8974 101.103 40.7389 101.103H39.6292C39.4707 101.103 39.4707 101.103 39.4707 100.948V91.6295C39.4707 91.4742 39.4707 91.4742 39.6292 91.4742H40.7389C40.7389 91.4742 40.8974 91.4742 40.8974 91.6295V92.406C41.2144 91.6295 42.1655 91.3188 42.9581 91.3188Z" fill="#58595B"/>
<path d="M50.5674 91.3188C51.2015 91.3188 52.1526 91.6295 52.6282 91.7848C52.7867 91.7848 52.7867 91.9401 52.7867 91.9401V92.8719C52.7867 93.0272 52.7867 93.0272 52.6282 93.0272C51.9941 92.7166 51.36 92.5613 50.8844 92.5613H50.7259C49.6162 92.5613 48.6651 93.3378 48.6651 94.7355V95.512C48.6651 96.9098 49.6162 97.6863 50.7259 97.6863C51.36 97.6863 51.8355 97.531 52.4696 97.2204C52.4696 97.2204 52.6282 97.2204 52.6282 97.3757V98.3075C52.6282 98.4628 52.6282 98.4628 52.4696 98.4628C51.9941 98.7734 51.2015 98.9287 50.4089 98.9287H50.2503C48.5066 98.9287 46.9214 97.8416 46.9214 95.6673V94.7355C46.9214 92.5613 48.5066 91.4742 50.2503 91.4742H50.5674V91.3188Z" fill="#58595B"/>
<path d="M60.3956 91.4746C60.3956 91.4746 60.5541 91.6299 60.3956 91.4746L60.5541 98.463C60.5541 98.6183 60.5541 98.6183 60.3956 98.6183H59.286C59.1274 98.6183 59.1274 98.6183 59.1274 98.463V95.5124V93.3382H58.9689L57.7008 95.3571L55.9571 98.3077C55.9571 98.463 55.7986 98.463 55.7986 98.463H54.3719C54.2134 98.463 54.2134 98.463 54.2134 98.3077V91.6299C54.2134 91.4746 54.2134 91.4746 54.3719 91.4746H55.4815C55.64 91.4746 55.64 91.4746 55.64 91.6299V94.4253V96.7547H55.7986L57.0667 94.4253L58.6519 91.6299C58.6519 91.4746 58.8104 91.4746 58.8104 91.4746H60.3956Z" fill="#58595B"/>
<path d="M67.6873 91.4746C67.8458 91.4746 67.8458 91.6299 67.6873 91.4746L67.8458 92.4064C67.8458 92.5617 67.8458 92.5617 67.6873 92.5617H65.468V98.463C65.468 98.6183 65.468 98.6183 65.3095 98.6183H64.1999C64.0414 98.6183 64.0414 98.6183 64.0414 98.463V92.5617H61.8221C61.6636 92.5617 61.6636 92.5617 61.6636 92.4064V91.6299C61.6636 91.4746 61.6636 91.4746 61.8221 91.4746H67.6873Z" fill="#58595B"/>
<path d="M71.9671 92.406C71.016 92.406 70.2234 93.1825 70.2234 94.4249H73.7108C73.7108 93.0272 73.0767 92.406 71.9671 92.406ZM72.1256 91.3188C73.8693 91.3188 74.9789 92.406 74.9789 94.4249V95.0461C74.9789 95.2014 74.8204 95.2014 74.8204 95.2014H70.2234V95.6673C70.2234 96.9097 71.1745 97.5309 72.2841 97.5309C72.9182 97.5309 73.7108 97.2203 74.5034 96.9097C74.5034 96.9097 74.6619 96.9097 74.6619 97.065V97.9968C74.6619 98.1522 74.6619 98.1522 74.5034 98.1522C74.0278 98.4628 72.9182 98.6181 72.1256 98.6181H71.9671C70.0649 98.6181 68.6382 97.5309 68.6382 95.3567V94.7355C68.6382 92.5613 70.0648 91.3188 71.8085 91.3188H72.1256Z" fill="#58595B"/>
<path d="M81.7955 91.4746C81.954 91.4746 81.954 91.6299 81.7955 91.4746L81.954 92.4064C81.954 92.5617 81.954 92.5617 81.7955 92.5617H79.5763V98.463C79.5763 98.6183 79.5763 98.6183 79.4178 98.6183H78.3082C78.1497 98.6183 78.1497 98.6183 78.1497 98.463V92.5617H75.9305C75.772 92.5617 75.772 92.5617 75.772 92.4064V91.6299C75.772 91.4746 75.772 91.4746 75.9305 91.4746H81.7955Z" fill="#58595B"/>
<path d="M92.2576 91.4746C92.2576 91.4746 92.2576 91.6299 92.2576 91.4746L92.4161 98.463C92.4161 98.6183 92.4161 98.6183 92.2576 98.6183H91.148C90.9895 98.6183 90.9895 98.6183 90.9895 98.463V95.5124H87.6606V98.463C87.6606 98.6183 87.6606 98.6183 87.502 98.6183H86.3924C86.2339 98.6183 86.2339 98.6183 86.2339 98.463V91.6299C86.2339 91.4746 86.2339 91.4746 86.3924 91.4746H87.502C87.6606 91.4746 87.6606 91.4746 87.6606 91.6299V94.4253H90.9895V91.6299C90.9895 91.4746 90.9895 91.4746 91.148 91.4746H92.2576Z" fill="#58595B"/>
<path d="M96.8548 95.2014C95.5866 95.2014 94.9526 95.6673 94.9526 96.4438C94.9526 97.065 95.4281 97.5309 96.2207 97.5309C96.6963 97.5309 97.3304 97.2203 97.8059 96.7544V95.0461L96.8548 95.2014ZM96.8548 91.3188C98.44 91.3188 99.5496 92.0954 99.5496 93.959V98.4628C99.5496 98.6181 99.5496 98.6181 99.3911 98.6181H98.2815C98.2815 98.6181 98.123 98.6181 98.123 98.4628V97.6862C97.4889 98.3075 96.6963 98.7734 95.9037 98.7734H95.7452C94.3185 98.7734 93.5259 97.8415 93.5259 96.7544V96.5991C93.5259 95.0461 94.477 94.4249 96.6963 94.2696H97.9644V93.959C97.9644 92.8719 97.6474 92.406 96.3792 92.406C95.7452 92.406 94.9526 92.7166 94.16 92.8719C94.16 92.8719 94.0014 92.8719 94.0014 92.7166V91.9401C94.0014 91.7848 94.0014 91.7848 94.16 91.7848C94.9526 91.6295 95.9037 91.3188 96.8548 91.3188Z" fill="#58595B"/>
<path d="M107.317 91.4746C107.475 91.4746 107.475 91.6299 107.475 91.6299L104.622 99.2396C104.146 100.482 103.512 101.259 102.244 101.259H102.086C101.61 101.259 101.135 101.103 100.818 101.103C100.659 101.103 100.659 100.948 100.659 100.948V100.171C100.659 100.016 100.659 100.016 100.818 100.016C101.135 100.171 101.452 100.171 101.769 100.171C102.244 100.171 102.561 99.8608 102.878 99.2396L103.037 98.7737H102.878C102.72 98.7737 102.72 98.7737 102.72 98.6184L100.5 91.6299C100.5 91.4746 100.5 91.4746 100.659 91.4746H101.769C101.927 91.4746 101.927 91.4746 101.927 91.6299L103.195 94.8912L103.988 97.376L104.78 94.8912L106.049 91.6299C106.049 91.4746 106.207 91.4746 106.207 91.4746H107.317Z" fill="#58595B"/>
<path d="M114.767 98.463C114.767 98.6183 114.767 98.6183 114.609 98.6183H113.341C113.182 98.6183 113.182 98.6183 113.182 98.463L111.121 95.5124H110.012V98.463C110.012 98.6183 110.012 98.6183 109.853 98.6183H108.743C108.585 98.6183 108.585 98.6183 108.585 98.463V91.6299C108.585 91.4746 108.585 91.4746 108.743 91.4746H109.853C110.012 91.4746 110.012 91.4746 110.012 91.6299V94.4253H111.121L112.865 91.6299L113.024 91.4746H114.292C114.45 91.4746 114.45 91.6299 114.45 91.6299L112.389 94.8912L114.767 98.463Z" fill="#58595B"/>
<path d="M122.059 91.4746C122.059 91.4746 122.218 91.6299 122.059 91.4746L122.218 98.463C122.218 98.6183 122.218 98.6183 122.059 98.6183H120.95C120.791 98.6183 120.791 98.6183 120.791 98.463V95.5124V93.3382H120.632L119.364 95.3571L117.621 98.3077C117.621 98.463 117.462 98.463 117.462 98.463H116.035C115.877 98.463 115.877 98.463 115.877 98.3077V91.6299C115.877 91.4746 115.877 91.4746 116.035 91.4746H117.145C117.304 91.4746 117.304 91.4746 117.304 91.6299V94.4253V96.7547H117.462L118.73 94.4253L120.315 91.6299C120.315 91.4746 120.474 91.4746 120.474 91.4746H122.059Z" fill="#58595B"/>
<path d="M132.997 91.4746C132.997 91.4746 133.155 91.6299 132.997 91.4746L133.155 98.463C133.155 98.6183 133.155 98.6183 132.997 98.6183H131.887C131.729 98.6183 131.729 98.6183 131.729 98.463V95.5124V93.3382H131.57L130.302 95.3571L128.558 98.3077C128.558 98.463 128.4 98.463 128.4 98.463H126.973C126.814 98.463 126.814 98.463 126.814 98.3077V91.6299C126.814 91.4746 126.814 91.4746 126.973 91.4746H128.083C128.241 91.4746 128.241 91.4746 128.241 91.6299V94.4253V96.7547H128.4L129.668 94.4253L131.253 91.6299C131.253 91.4746 131.411 91.4746 131.411 91.4746H132.997Z" fill="#58595B"/>
<path d="M143.301 91.4746C143.301 91.4746 143.459 91.6299 143.301 91.4746L143.459 92.4064C143.459 92.5617 143.459 92.5617 143.301 92.5617H141.081V98.463C141.081 98.6183 141.081 98.6183 140.923 98.6183H139.813C139.655 98.6183 139.655 98.6183 139.655 98.463V92.5617H137.435C137.277 92.5617 137.277 92.5617 137.277 92.4064V91.6299C137.277 91.4746 137.277 91.4746 137.435 91.4746H143.301Z" fill="#58595B"/>
<path d="M147.422 92.406C146.471 92.406 145.678 93.1825 145.678 94.4249H149.166C149.166 93.0272 148.69 92.406 147.422 92.406ZM147.58 91.3188C149.324 91.3188 150.434 92.406 150.434 94.4249V95.0461C150.434 95.2014 150.275 95.2014 150.275 95.2014H145.837V95.6673C145.837 96.9097 146.788 97.5309 147.897 97.5309C148.531 97.5309 149.324 97.2203 150.117 96.9097C150.117 96.9097 150.275 96.9097 150.275 97.065V97.9968C150.275 98.1522 150.275 98.1522 150.117 98.1522C149.641 98.4628 148.531 98.6181 147.739 98.6181H147.58C145.678 98.6181 144.251 97.5309 144.251 95.3567V94.7355C144.251 92.5613 145.678 91.3188 147.422 91.3188H147.58Z" fill="#58595B"/>
<path d="M157.567 91.4746C157.726 91.4746 157.726 91.6299 157.726 91.6299L155.665 94.8912L157.884 98.3078C157.884 98.4631 157.884 98.4631 157.726 98.4631H156.458C156.299 98.4631 156.299 98.4631 156.299 98.3078L155.031 96.2889L154.714 95.5124L154.397 96.2889L153.129 98.3078L152.97 98.4631H151.702C151.543 98.4631 151.543 98.3078 151.543 98.3078L153.763 94.8912L151.702 91.6299C151.702 91.4746 151.702 91.4746 151.861 91.4746H153.129C153.287 91.4746 153.287 91.4746 153.287 91.6299L154.555 93.4935L154.872 94.27L155.189 93.4935L156.458 91.6299L156.616 91.4746H157.567Z" fill="#58595B"/>
<path d="M165.017 91.4746C165.176 91.4746 165.176 91.6299 165.017 91.4746L165.176 98.463C165.176 98.6183 165.176 98.6183 165.017 98.6183H163.908C163.749 98.6183 163.749 98.6183 163.749 98.463V95.5124H160.42V98.463C160.42 98.6183 160.42 98.6183 160.262 98.6183H159.152C158.994 98.6183 158.994 98.6183 158.994 98.463V91.6299C158.994 91.4746 158.994 91.4746 159.152 91.4746H160.262C160.42 91.4746 160.42 91.4746 160.42 91.6299V94.4253H163.749V91.6299C163.749 91.4746 163.749 91.4746 163.908 91.4746H165.017Z" fill="#58595B"/>
<path d="M170.09 92.5613C168.98 92.5613 168.346 93.1825 168.346 94.5802V95.8226C168.346 97.2204 169.139 97.8416 170.09 97.8416H170.248C171.358 97.8416 171.992 97.2204 171.992 95.8226V94.5802C171.992 93.1825 171.2 92.5613 170.09 92.5613ZM170.09 91.3188C171.834 91.3188 173.419 92.406 173.419 94.5802V95.6673C173.419 97.8416 171.992 98.9287 170.09 98.9287H169.931C168.188 98.9287 166.603 97.8416 166.603 95.6673V94.5802C166.603 92.406 168.029 91.3188 169.931 91.3188H170.09Z" fill="#58595B"/>
<path d="M181.186 91.4746C181.186 91.4746 181.345 91.6299 181.186 91.4746L181.345 98.4631C181.345 98.6184 181.345 98.6184 181.186 98.6184H180.077C179.918 98.6184 179.918 98.6184 179.918 98.4631V92.5617H177.382L177.065 96.7548C176.906 97.8419 176.431 98.7737 175.321 98.7737H175.163C174.845 98.7737 174.528 98.6184 174.37 98.6184C174.211 98.6184 174.211 98.4631 174.211 98.4631V97.6866C174.211 97.6866 174.211 97.5313 174.37 97.5313C174.528 97.5313 174.687 97.6866 174.846 97.6866C175.321 97.6866 175.48 97.2207 175.638 96.5995L175.955 91.6299C175.955 91.4746 175.955 91.4746 176.114 91.4746H181.186Z" fill="#58595B"/>
<path d="M186.1 92.5613C184.991 92.5613 184.357 93.1825 184.357 94.5802V95.8226C184.357 97.2204 185.149 97.8416 186.1 97.8416H186.259C187.368 97.8416 188.002 97.2204 188.002 95.8226V94.5802C188.002 93.1825 187.21 92.5613 186.1 92.5613ZM186.259 91.3188C188.002 91.3188 189.588 92.406 189.588 94.5802V95.6673C189.588 97.8416 188.161 98.9287 186.259 98.9287H186.1C184.357 98.9287 182.771 97.8416 182.771 95.6673V94.5802C182.771 92.406 184.198 91.3188 186.1 91.3188H186.259Z" fill="#58595B"/>
<path d="M195.611 91.4746C195.77 91.4746 195.77 91.6299 195.611 91.4746L195.77 92.4064C195.77 92.5617 195.77 92.5617 195.611 92.5617H192.441V98.463C192.441 98.6183 192.441 98.6183 192.282 98.6183H191.173C191.014 98.6183 191.014 98.6183 191.014 98.463V91.6299C191.014 91.4746 191.014 91.4746 191.173 91.4746H195.611Z" fill="#58595B"/>
<path d="M203.062 91.4746C203.22 91.4746 203.22 91.6299 203.062 91.4746L203.22 98.463C203.22 98.6183 203.22 98.6183 203.062 98.6183H201.952C201.793 98.6183 201.793 98.6183 201.793 98.463V95.5124V93.3382H201.635L200.367 95.3571L198.623 98.3077C198.623 98.463 198.465 98.463 198.465 98.463H197.038C196.879 98.463 196.879 98.463 196.879 98.3077V91.6299C196.879 91.4746 196.879 91.4746 197.038 91.4746H198.148C198.306 91.4746 198.306 91.4746 198.306 91.6299V94.4253V96.7547H198.465L199.733 94.4253L201.318 91.6299C201.318 91.4746 201.476 91.4746 201.476 91.4746H203.062Z" fill="#58595B"/>
<path d="M209.878 88.9878C210.036 88.9878 210.036 88.9878 210.036 89.1431V89.9196C210.036 90.0749 210.036 90.0749 209.878 90.0749C209.561 90.2302 208.927 90.6961 207.976 90.6961C207.024 90.6961 206.39 90.3855 206.073 90.0749L205.915 89.9196V89.1431C205.915 88.9878 206.073 88.9878 206.073 88.9878C206.549 89.2984 207.024 89.4537 207.817 89.4537C208.768 89.4537 209.402 89.1431 209.878 88.9878ZM210.987 91.4726C211.146 91.4726 211.146 91.6279 210.987 91.4726L211.146 98.4612C211.146 98.6165 211.146 98.6165 210.987 98.6165H209.878C209.719 98.6165 209.719 98.6165 209.719 98.4612V95.5105V93.3362H209.561L208.293 95.3552L206.549 98.3059C206.549 98.4612 206.39 98.4612 206.39 98.4612H204.964C204.805 98.4612 204.805 98.4612 204.805 98.3059V91.6279C204.805 91.4726 204.805 91.4726 204.964 91.4726H206.073C206.232 91.4726 206.232 91.4726 206.232 91.6279V94.4234V96.7529H206.39L207.659 94.5787L209.244 91.7832C209.244 91.6279 209.402 91.6279 209.402 91.6279H210.987V91.4726Z" fill="#58595B"/>
</svg>
