<?xml version="1.0" encoding="UTF-8"?> <svg xmlns="http://www.w3.org/2000/svg" width="161" height="118" viewBox="0 0 161 118" fill="none"> <g clip-path="url(#clip0)"> <path d="M1.40001 117.1C1.20001 117.2 1.00001 117.2 0.800015 117.1C0.300015 117 -0.0999853 116.4 1.47428e-05 115.9C1.47428e-05 115.9 0.300015 114.8 0.800015 112.9C1.00001 112.4 1.50001 112 2.10001 112.2C2.60001 112.4 3.00001 112.9 2.80001 113.5C2.30001 115.3 2.00001 116.4 2.00001 116.4C1.90001 116.7 1.70001 117 1.40001 117.1Z" fill="#292C3D"></path> <path d="M110.2 89.7C109.1 90.1 108 90.5 106.9 90.7C106.3 90.8 105.8 90.4 105.7 89.9C105.6 89.3 105.9 88.8 106.5 88.7C108.3 88.3 110.1 87.8 111.8 86.5C112.3 86.2 112.9 86.3 113.2 86.7C113.5 87.2 113.4 87.8 113 88.1C112.1 88.8 111.1 89.3 110.2 89.7ZM100.9 90.7C100.7 90.8 100.5 90.8 100.4 90.8C98.4 90.5 96.4 89.8 94.2 88.9C93.7 88.7 93.5 88.1 93.7 87.5C93.9 87 94.5 86.8 95.1 87C97.1 87.9 98.9 88.5 100.7 88.8C101.3 88.9 101.6 89.4 101.5 90C101.5 90.3 101.2 90.6 100.9 90.7ZM116.9 83.7C116.6 83.8 116.2 83.8 116 83.6C115.5 83.3 115.4 82.7 115.7 82.2C116.7 80.7 117.7 78.9 118.6 76.9C118.8 76.4 119.4 76.2 120 76.4C120.5 76.6 120.7 77.2 120.5 77.8C119.5 80 118.5 81.8 117.4 83.4C117.3 83.5 117.1 83.6 116.9 83.7ZM89.6 85.8C89.3 85.9 89 85.9 88.7 85.7C87.1 84.7 85.5 83.5 83.6 82C83.2 81.7 83.1 81 83.4 80.6C83.7 80.2 84.4 80.1 84.8 80.4C86.6 81.8 88.3 83 89.8 84C90.3 84.3 90.4 84.9 90.1 85.4C89.9 85.6 89.8 85.7 89.6 85.8ZM122.2 72.4C122 72.5 121.7 72.5 121.5 72.4C121 72.2 120.7 71.6 120.9 71.1C121.5 69.3 122.1 67.4 122.8 65.2C123 64.7 123.5 64.4 124.1 64.5C124.6 64.7 124.9 65.2 124.8 65.8C124.1 68 123.5 70 122.9 71.8C122.7 72.1 122.4 72.3 122.2 72.4ZM125.8 60.5C125.6 60.6 125.4 60.6 125.1 60.5C124.6 60.3 124.2 59.8 124.4 59.2L124.9 57.3C125.3 55.9 125.7 54.6 126.1 53.2C126.3 52.7 126.8 52.3 127.4 52.5C127.9 52.7 128.3 53.2 128.1 53.8C127.7 55.1 127.3 56.5 126.9 57.9L126.4 59.8C126.4 60.1 126.1 60.4 125.8 60.5ZM79.7 78.2C79.4 78.3 79 78.3 78.7 78L77 76.7C75.9 75.8 74.9 74.9 73.8 74.1C73.4 73.7 73.3 73.1 73.7 72.7C74.1 72.3 74.7 72.2 75.1 72.6C76.2 73.5 77.2 74.4 78.3 75.2L79.9 76.5C80.3 76.9 80.4 77.5 80 77.9C80 78.1 79.8 78.2 79.7 78.2ZM4.00001 108.2C3.80001 108.3 3.50001 108.3 3.30001 108.2C2.80001 108 2.50001 107.4 2.70001 106.9C3.40001 104.9 4.10001 102.9 4.80001 101C5.00001 100.5 5.60001 100.2 6.10001 100.4C6.60001 100.6 6.90001 101.2 6.70001 101.7C6.00001 103.6 5.30001 105.6 4.60001 107.5C4.50001 107.9 4.30001 108.1 4.00001 108.2ZM8.50001 96.6C8.30001 96.7 8.00001 96.7 7.70001 96.6C7.20001 96.4 6.90001 95.8 7.20001 95.3C8.10001 93.4 9.00001 91.4 9.90001 89.6C10.2 89.1 10.8 88.9 11.3 89.1C11.8 89.4 12 90 11.8 90.5C10.9 92.3 10 94.2 9.20001 96.1C8.90001 96.3 8.70001 96.5 8.50001 96.6ZM129.4 48.5C129.2 48.6 128.9 48.6 128.7 48.5C128.2 48.3 127.9 47.7 128 47.2C128.8 44.9 129.5 42.9 130.2 41.3C130.4 40.8 131 40.5 131.5 40.8C132 41 132.3 41.6 132 42.1C131.3 43.7 130.6 45.6 129.9 47.9C129.9 48.2 129.6 48.4 129.4 48.5ZM70 70.4C69.7 70.5 69.3 70.5 69 70.3C67.2 68.9 65.6 67.8 64 66.8C63.5 66.5 63.4 65.9 63.7 65.4C64 64.9 64.6 64.8 65.1 65.1C66.7 66.1 68.4 67.3 70.3 68.7C70.7 69 70.8 69.7 70.5 70.1C70.3 70.2 70.2 70.3 70 70.4ZM14.1 85.5C13.8 85.6 13.5 85.6 13.2 85.4C12.7 85.1 12.5 84.5 12.8 84C13.9 82.1 15 80.3 16.2 78.7C16.5 78.2 17.2 78.1 17.6 78.4C18.1 78.7 18.2 79.4 17.9 79.8C16.8 81.4 15.7 83.2 14.6 85C14.5 85.3 14.3 85.4 14.1 85.5ZM59.5 63.8C59.2 63.9 59 63.9 58.7 63.8C56.8 62.9 54.9 62.2 53.1 61.7C52.6 61.6 52.2 61 52.4 60.5C52.5 60 53.1 59.6 53.6 59.8C55.6 60.3 57.6 61.1 59.6 62C60.1 62.2 60.3 62.9 60.1 63.4C59.9 63.5 59.7 63.7 59.5 63.8ZM21.2 75.2C20.9 75.3 20.5 75.3 20.2 75C19.8 74.6 19.7 74 20.1 73.6C21.5 71.9 22.9 70.4 24.4 68.9C24.8 68.5 25.5 68.5 25.8 68.9C26.2 69.3 26.2 70 25.8 70.3C24.4 71.7 23 73.2 21.7 74.8C21.5 75.1 21.3 75.2 21.2 75.2ZM47.5 60.8C47.4 60.8 47.2 60.9 47.1 60.9C45.3 60.9 43.4 61.1 41.6 61.5L41.3 61.6C40.8 61.7 40.2 61.4 40.1 60.8C40 60.3 40.3 59.7 40.9 59.6L41.3 59.5C43.3 59.1 45.3 58.8 47.3 58.9C47.9 58.9 48.3 59.4 48.3 59.9C48.1 60.3 47.9 60.6 47.5 60.8ZM30.2 66.7C29.8 66.9 29.3 66.7 29 66.3C28.7 65.8 28.8 65.2 29.2 64.9C31 63.6 32.8 62.5 34.7 61.6C35.2 61.3 35.8 61.6 36.1 62.1C36.3 62.6 36.1 63.2 35.6 63.5C33.8 64.3 32.1 65.4 30.4 66.6C30.3 66.6 30.2 66.7 30.2 66.7Z" fill="#292C3D"></path> <path d="M157.7 7.09998L133.3 39.9L130.2 27.7L157.7 7.09998Z" fill="#0254E4"></path> <path d="M157.7 7.09998L133.3 39.9L134.1 30L157.7 7.09998Z" fill="#292C3D"></path> <path d="M148.3 38.5L118.4 21.9L160.1 0L148.3 38.5Z" fill="#184396"></path> <path d="M159.1 1.29999L130.3 28.5L134 30.6L159.1 1.29999Z" fill="#0254E4"></path> </g> <defs> <clipPath id="clip0"> <rect width="160.1" height="117.2" fill="white"></rect> </clipPath> </defs> </svg> 