<?xml version="1.0" encoding="UTF-8"?> <svg xmlns="http://www.w3.org/2000/svg" width="69" height="78" viewBox="0 0 69 78" fill="none"> <g clip-path="url(#clip0)"> <path d="M10.9 37.3V39.2H33V44.3H10.9V46.3H58.1V37.3H10.9Z" fill="#DA395B"></path> <path d="M63.8 47.6H65.2V46.3H15.6V52.5H65.2V51.2H63.8C63.3 51.2 63 50.4 63 49.4C62.9 48.4 63.3 47.7 63.8 47.6Z" fill="#0254E4"></path> <path d="M58.1 37.3H36.7V46.3H58.1V37.3Z" fill="#FF4C6B"></path> <path opacity="0.65" d="M43 46.3H15.6V52.5H43V46.3Z" fill="#00A1CC"></path> <path d="M10.9 39.2C11.6 39.3 12.1 40.4 12.1 41.7C12.1 43.1 11.6 44.2 10.9 44.2H34.7V39.1H10.9V39.2Z" fill="#F8F2ED"></path> <path d="M63.4 18.5V16.5H41.3V11.4H63.4V9.5H16.2V18.5H63.4Z" fill="#FF4C6B"></path> <path d="M37.6 9.5H16.2V18.5H37.6V9.5Z" fill="#DA395B"></path> <path d="M63.4 16.5C62.7 16.4 62.2 15.3 62.2 14C62.2 12.6 62.7 11.5 63.4 11.5H39.6V16.6H63.4V16.5Z" fill="#F8F2ED"></path> <path d="M69 77.6V76.2H36.6V72.6H69V71.3H0V77.6H69Z" fill="#FF4C6B"></path> <path d="M31.3 71.3H0V77.6H31.3V71.3Z" fill="#DA395B"></path> <path d="M69 76.2C68 76.1 67.2 75.4 67.2 74.4C67.2 73.4 68 72.7 69 72.6H34.2V76.2H69Z" fill="#F8F2ED"></path> <path d="M3.70001 52.5V54.4H27.4V59.5H3.70001V61.5H54.3V52.5H3.70001Z" fill="#48525B"></path> <path d="M60.4 52.5H31.3V61.5H60.4V52.5Z" fill="#B6B6B6"></path> <path d="M3.70001 54.4C4.40001 54.5 5.00001 55.6 5.00001 57C5.00001 58.4 4.40001 59.5 3.70001 59.5H57.1V54.4H3.70001Z" fill="#F8F2ED"></path> <path d="M31.4 54.4H3.70001C4.40001 54.5 5.00001 55.6 5.00001 57C5.00001 58.4 4.40001 59.5 3.70001 59.5H31.4V54.4Z" fill="#F8F2ED"></path> <path d="M6.29999 28.3V30.2H26V35.3H6.29999V37.3H48.2V28.3H6.29999Z" fill="#48525B"></path> <path d="M53.3 28.3H29.2V37.3H53.3V28.3Z" fill="#B6B6B6"></path> <path d="M6.29999 30.2C6.89999 30.3 7.39999 31.4 7.39999 32.7C7.39999 34.1 6.89999 35.2 6.29999 35.2H50.6V30.1H6.29999V30.2Z" fill="#F8F2ED"></path> <path d="M29.3 30.2H6.29999C6.89999 30.3 7.39999 31.4 7.39999 32.7C7.39999 34.1 6.89999 35.2 6.29999 35.2H29.3V30.2Z" fill="#F8F2ED"></path> <path d="M66.1 71.3V69.1H39.3V63.6H66.1V61.5H12.3V71.3H66.1Z" fill="#AFEAF0"></path> <path d="M35.3 61.5H6.09998V71.3H35.3V61.5Z" fill="#5AC4E0"></path> <path d="M66.1 69.1C65.4 69 64.8 67.8 64.8 66.3C64.8 64.8 65.4 63.6 66.1 63.5H9.40002V69H66.1V69.1Z" fill="#F8F2ED"></path> <path d="M35.3 69.1H66.1C65.4 69 64.8 67.8 64.8 66.3C64.8 64.8 65.4 63.6 66.1 63.5H35.3V69.1Z" fill="#F8F2ED"></path> <path d="M57 28.3V26.1H36.2V20.6H57V18.5H15.3V28.3H57Z" fill="#AFEAF0"></path> <path d="M33.1 18.5H10.4V28.3H33.1V18.5Z" fill="#5AC4E0"></path> <path d="M57 26.1C56.4 26 56 24.8 56 23.3C56 21.8 56.5 20.6 57 20.5H13V26H57V26.1Z" fill="#F8F2ED"></path> <path d="M33.1 26.1H57C56.4 26 56 24.8 56 23.3C56 21.8 56.5 20.6 57 20.5H33.1V26.1Z" fill="#F8F2ED"></path> <path d="M62.9 49.4C62.9 48.5 63.3 47.7 63.7 47.6H44.7V51.1H63.8C63.3 51.1 62.9 50.3 62.9 49.4Z" fill="#F8F2ED"></path> <path d="M58.5 2.1H59.6V0H23V9.5H59.5V7.4H58.4C58.1 7.3 57.8 6.2 57.8 4.7C57.8 3.3 58.1 2.1 58.5 2.1Z" fill="#0254E4"></path> <path opacity="0.65" d="M43.2 0H23V9.5H43.2V0Z" fill="#00A1CC"></path> <path d="M57.8 4.7C57.8 3.3 58.1 2.1 58.4 2H44.4V7.4H58.4C58.1 7.3 57.8 6.2 57.8 4.7Z" fill="#F8F2ED"></path> </g> <defs> <clipPath id="clip0"> <rect width="69" height="77.6" fill="white"></rect> </clipPath> </defs> </svg> 