<?xml version="1.0" encoding="UTF-8"?> <svg xmlns="http://www.w3.org/2000/svg" width="94" height="173" viewBox="0 0 94 173" fill="none"> <g clip-path="url(#clip0)"> <path d="M30.2944 89.1701C30.2944 89.1701 34.4085 104.073 36.5278 106.557C38.5225 109.041 45.2546 112.642 45.2546 112.642L43.5093 115.747C43.5093 115.747 31.4164 109.538 29.2971 104.57C28.0504 101.589 27.3024 99.1055 26.8037 96.87C26.4297 95.0072 25.0583 90.412 25.8063 88.5492C26.1803 87.3072 29.2971 86.5621 30.2944 89.1701Z" fill="#0254E4"></path> <path opacity="0.65" d="M30.2944 89.1701C30.2944 89.1701 34.4085 104.073 36.5278 106.557C38.5225 109.041 45.2546 112.642 45.2546 112.642L43.5093 115.747C43.5093 115.747 31.4164 109.538 29.2971 104.57C28.0504 101.589 27.3024 99.1055 26.8037 96.87C26.4297 95.0072 25.0583 90.412 25.8063 88.5492C26.1803 87.3072 29.2971 86.5621 30.2944 89.1701Z" fill="#00A1CC"></path> <path d="M71.809 160.332L74.9257 157.476C74.9257 157.476 87.1432 156.607 87.8913 157.6C88.6393 158.718 76.2971 164.431 74.6764 164.307C73.0557 164.307 72.0584 161.45 71.809 160.332Z" fill="#292C3D"></path> <path d="M49.4934 119.1C49.4934 119.1 61.0875 116.12 61.9602 118.107C62.9576 119.97 74.9257 157.476 74.9257 157.476L71.809 160.332C71.809 160.332 58.9682 128.663 55.2281 125.31C51.4881 122.081 47.748 120.342 49.4934 119.1Z" fill="#F9A57E"></path> <path d="M49.4934 119.1C49.4934 119.1 61.0875 116.12 61.9602 118.107C62.9576 119.97 74.9257 157.476 74.9257 157.476L71.809 160.332C71.809 160.332 58.9682 128.663 55.2281 125.31C51.4881 122.081 47.748 120.342 49.4934 119.1Z" fill="#E76F59"></path> <path d="M43.5093 112.146C44.382 111.897 45.13 111.649 45.878 111.152C46.5013 110.78 47.1247 110.407 47.8727 110.531C48.3714 110.655 52.8594 112.394 51.7374 113.263C51.3634 113.512 50.3661 113.015 49.9921 112.891C49.4934 112.643 48.87 112.394 48.3714 112.146C48.87 112.146 51.2387 113.139 50.9894 113.636C50.4907 114.63 48.122 113.263 47.4987 113.015C47.8727 113.139 49.4934 113.636 49.4934 114.133C49.4934 115.002 47.748 114.257 47.374 114.133C47.1247 114.009 46.8753 113.76 46.5013 113.76C46.1273 113.76 45.7533 113.884 45.3793 114.009C44.756 114.133 44.1326 114.133 43.5093 114.009C43.1353 114.009 42.2626 114.009 42.1379 113.76C41.8886 113.388 42.1379 112.643 42.3873 112.394C42.6366 112.27 43.1353 112.27 43.5093 112.146Z" fill="#F9A57E"></path> <path d="M43.5093 112.146C44.382 111.897 45.13 111.649 45.878 111.152C46.5013 110.78 47.1247 110.407 47.8727 110.531C48.3714 110.655 52.8594 112.394 51.7374 113.263C51.3634 113.512 50.3661 113.015 49.9921 112.891C49.4934 112.643 48.87 112.394 48.3714 112.146C48.87 112.146 51.2387 113.139 50.9894 113.636C50.4907 114.63 48.122 113.263 47.4987 113.015C47.8727 113.139 49.4934 113.636 49.4934 114.133C49.4934 115.002 47.748 114.257 47.374 114.133C47.1247 114.009 46.8753 113.76 46.5013 113.76C46.1273 113.76 45.7533 113.884 45.3793 114.009C44.756 114.133 44.1326 114.133 43.5093 114.009C43.1353 114.009 42.2626 114.009 42.1379 113.76C41.8886 113.388 42.1379 112.643 42.3873 112.394C42.6366 112.27 43.1353 112.27 43.5093 112.146Z" fill="#E8A393"></path> <path d="M63.5809 92.2749L66.1989 93.3926L56.8488 115.871L54.1061 114.381L63.5809 92.2749Z" fill="#292C3D"></path> <path d="M55.2281 114.009H37.4005V116.741H55.2281V114.009Z" fill="#292C3D"></path> <path d="M5.85941 101.217C8.22811 99.8507 8.60211 98.3603 7.35543 93.3927C6.10874 88.425 9.47479 83.3331 12.8408 81.967C15.3342 80.9734 17.4536 80.4766 18.9496 77.9928C20.4456 75.3848 17.5782 69.9203 22.3156 65.8219C25.6817 62.8413 30.6684 65.201 30.6684 65.201C31.6658 64.58 32.1644 70.7896 32.2891 75.3848C26.305 84.4508 28.0504 96.2491 30.1698 106.433C30.1698 106.681 30.2944 106.93 30.4191 107.054C29.9204 114.878 29.5464 121.46 29.5464 121.46C29.5464 121.46 15.2095 129.533 5.4854 122.578C-4.3634 115.623 1.12201 103.825 5.85941 101.217Z" fill="#292C3D"></path> <path d="M47.8727 158.47L51.4881 160.581C51.4881 160.581 55.9762 172.006 55.1035 173C54.2308 173.994 45.13 163.934 44.756 162.444C44.5067 160.829 46.8754 158.966 47.8727 158.47Z" fill="#292C3D"></path> <path d="M43.2599 118.355C43.2599 118.355 66.5729 119.97 68.6922 122.081C70.9363 124.192 51.114 160.332 51.114 160.332L47.8726 158.469C47.8726 158.469 52.7347 141.331 53.9814 137.357C55.2281 133.383 57.7214 128.539 57.2228 127.918C56.7241 127.297 33.2864 130.775 33.4111 124.192C33.7851 117.61 43.2599 118.355 43.2599 118.355Z" fill="#F9A57E"></path> <path d="M31.7904 79.2347C31.7904 79.2347 29.2971 85.8169 30.7931 90.7846L22.6896 88.7975C22.6896 88.7975 26.0557 77.7444 27.427 75.7573C28.9231 73.8944 31.7904 79.2347 31.7904 79.2347Z" fill="#F9A57E"></path> <path d="M31.7904 79.2347C31.7904 79.2347 29.2971 85.8169 30.7931 90.7846L22.6896 88.7975C22.6896 88.7975 26.0557 77.7444 27.427 75.7573C28.9231 73.8944 31.7904 79.2347 31.7904 79.2347Z" fill="#E76F59"></path> <path d="M32.6631 70.5412C32.6631 70.5412 35.7798 72.0316 36.6525 73.2735C37.4005 74.5154 36.7772 76.2541 36.7772 77.496C36.9019 78.6138 37.1512 80.3524 37.0265 80.725C36.9019 80.9734 35.6552 80.725 35.5305 80.9734C35.2812 81.2218 33.7851 82.2153 33.4111 83.2089C32.9125 84.3266 32.2891 84.3266 31.1671 83.8298C30.0451 83.3331 25.8064 77.7444 25.8064 75.1364C25.557 72.5283 29.5464 69.5477 32.6631 70.5412Z" fill="#F9A57E"></path> <path d="M29.9204 67.0639C29.9204 67.0639 31.4164 70.0445 31.5411 71.1623C31.6658 72.28 30.5438 75.7574 29.9204 76.2541C29.2971 76.7509 29.7957 72.4042 28.1751 73.7703C26.4297 75.1364 28.2997 77.6203 28.1751 78.117C28.0504 78.6138 27.3024 80.2283 25.557 80.3525C23.8117 80.4767 20.9443 71.9074 22.8143 69.7961C24.6843 67.5607 27.9257 67.0639 29.9204 67.0639Z" fill="#292C3D"></path> <path d="M20.1962 111.276L31.0424 110.407C31.0424 110.407 36.6525 116.617 42.2626 116.617C47.748 116.617 61.2122 116.617 61.2122 116.617C61.2122 116.617 60.2148 124.441 55.7268 130.775C55.7268 130.775 37.6498 132.141 28.7984 131.396C19.9469 130.775 11.5941 121.088 20.1962 111.276Z" fill="#4D505E"></path> <path d="M19.199 112.518C19.4483 112.146 19.8223 111.649 20.1963 111.276L31.0425 110.407C31.0425 110.407 36.5279 116.492 42.0133 116.617C35.2812 117.362 22.6897 118.852 19.199 112.518Z" fill="#3D3848"></path> <path opacity="0.32" d="M56.1008 117.983C53.3581 117.734 50.6154 117.113 47.9973 116.741H59.9655C58.7188 117.362 58.0955 118.231 56.1008 117.983Z" fill="#CA0045"></path> <path d="M23.687 85.0718C23.687 85.0718 28.6737 87.0589 30.2944 87.183C30.2944 87.183 33.7851 94.883 35.1565 96.9942C36.5278 99.1055 31.6658 107.054 31.4164 110.407C31.4164 110.407 28.5491 113.139 19.8223 111.525C19.8223 111.525 17.5782 89.9153 23.687 85.0718Z" fill="#0254E4"></path> <path opacity="0.65" d="M22.3156 89.6668C23.8117 88.9217 26.4297 89.6668 27.1777 91.1572C28.0504 93.02 27.1777 96.3732 27.3024 98.3603C27.4271 100.472 27.5517 103.328 28.0504 105.439C28.4244 107.054 29.5464 109.041 30.9178 110.655C29.7958 111.276 26.5544 112.642 19.6976 111.401C19.6976 111.401 18.3263 98.2361 20.5703 90.1636C21.443 90.0394 21.9416 89.9152 22.3156 89.6668Z" fill="#00A1CC"></path> <path d="M41.7639 112.146C42.6366 111.897 43.3846 111.649 44.1326 111.152C44.7559 110.78 45.3793 110.407 46.1273 110.531C46.6259 110.655 51.114 112.394 49.992 113.263C49.618 113.512 48.6206 113.015 48.2466 112.891C47.748 112.643 47.1246 112.394 46.6259 112.146C47.1246 112.146 49.4933 113.139 49.244 113.636C48.7453 114.63 46.3766 113.263 45.7533 113.015C46.1273 113.139 47.748 113.636 47.748 114.133C47.748 115.002 46.0026 114.257 45.6286 114.133C45.3793 114.009 45.1299 113.76 44.7559 113.76C44.3819 113.76 44.0079 113.884 43.6339 114.009C43.0106 114.133 42.3872 114.133 41.7639 114.009C41.3899 114.009 40.5172 114.009 40.3925 113.76C40.1432 113.388 40.3925 112.643 40.6419 112.394C41.0159 112.27 41.3899 112.27 41.7639 112.146Z" fill="#F9A57E"></path> <path d="M42.5119 112.021L41.5146 115.623C41.5146 115.623 18.0769 112.891 17.5783 108.792C17.0796 104.694 18.5756 85.4443 24.1857 87.4314C29.7958 89.4185 24.3103 103.452 25.183 104.446C26.0557 105.563 42.5119 112.021 42.5119 112.021Z" fill="#0254E4"></path> <path d="M29.6711 65.4494C29.6711 65.4494 32.4138 63.3382 35.4058 65.6978C38.2732 68.0575 38.2732 71.5349 40.6419 71.2865C40.6419 71.2865 39.0212 75.3848 35.5305 74.3913C32.0398 73.3977 28.5491 67.8091 29.6711 65.4494Z" fill="#292C3D"></path> <path d="M91.5066 37.3819H58.7188L41.1406 51.7882L48.9947 37.5061H40.8913C39.5199 37.5061 38.3979 36.3884 38.3979 35.0223V2.48385C38.3979 1.11773 39.5199 0 40.8913 0H91.382C92.7533 0 93.8754 1.11773 93.8754 2.48385V34.8981C94 36.2642 92.878 37.3819 91.5066 37.3819Z" fill="#07A8D9"></path> <path d="M73.8037 13.9095C73.8037 18.2563 68.3183 19.4982 68.3183 21.2369V21.8578H62.8329V20.2433C62.8329 17.8837 66.9469 16.6418 66.9469 14.0337C66.9469 12.916 66.1989 11.7983 64.8276 11.7983C63.0822 11.7983 62.7082 13.1644 62.7082 14.4063C62.7082 14.6547 62.7082 15.0273 62.7082 15.2756H56.8488C56.8488 14.9031 56.7241 14.5305 56.7241 14.0337C56.7241 9.93537 60.4642 7.32733 65.4509 7.32733C70.5623 7.45152 73.8037 9.93537 73.8037 13.9095ZM68.817 29.682H62.4589V23.8449H68.817V29.682Z" fill="white"></path> </g> <defs> <clipPath id="clip0"> <rect width="94" height="173" fill="white"></rect> </clipPath> </defs> </svg> 