<?xml version="1.0" encoding="UTF-8"?> <svg xmlns="http://www.w3.org/2000/svg" width="79" height="173" viewBox="0 0 79 173" fill="none"> <g clip-path="url(#clip0)"> <path d="M50.9027 54.4143H47.5007H44.0988C44.0988 54.4143 43.0908 63.671 41.3269 64.7968C41.3269 64.7968 39.1849 75.6797 47.5007 75.6797C57.7065 75.6797 53.6746 64.7968 53.6746 64.7968C51.9106 63.671 50.9027 54.4143 50.9027 54.4143Z" fill="#E76F59"></path> <path d="M56.3205 56.1656C55.3125 55.0398 54.1786 56.7911 54.1786 56.7911C54.1786 56.7911 55.6905 50.6617 54.1786 48.0348C52.6666 45.4079 47.5007 46.7839 47.5007 46.7839C47.5007 46.7839 42.4609 45.4079 40.8229 48.0348C39.311 50.6617 40.8229 56.7911 40.8229 56.7911C40.8229 56.7911 39.6889 55.1649 38.681 56.1656C37.673 57.2915 40.1929 60.0434 40.8229 60.2936C40.8229 60.2936 44.4768 67.0485 47.3747 67.0485C50.2727 67.0485 53.9266 60.2936 53.9266 60.2936C54.8086 60.0434 57.3285 57.2915 56.3205 56.1656Z" fill="#F9A57E"></path> <path d="M46.3668 49.0355C46.3668 49.0355 42.4609 49.6609 42.0829 51.7874C41.8309 52.7882 42.0829 53.914 42.3349 54.7896C42.4609 55.29 42.8389 58.042 42.7129 58.1671C42.5869 58.2921 42.3349 58.1671 42.2089 58.042C41.705 57.6667 41.327 57.0412 40.949 56.5409C40.193 55.5402 39.185 55.6652 38.807 56.2907C38.807 56.2907 37.925 46.2835 42.2089 45.9082C46.3668 45.658 46.3668 49.0355 46.3668 49.0355Z" fill="#292C3D"></path> <path d="M48.8867 49.0355C48.8867 49.0355 52.7926 49.6609 53.1706 51.7874C53.4226 52.7882 53.1706 53.914 52.9186 54.7896C52.7926 55.29 52.4146 58.042 52.5406 58.1671C52.6666 58.2921 52.9186 58.1671 53.0446 58.042C53.5486 57.6667 53.9266 57.0412 54.3046 56.5409C55.0606 55.5402 56.0685 55.6652 56.4465 56.2907C56.4465 56.2907 57.3285 46.2835 53.0446 45.9082C48.8867 45.658 48.8867 49.0355 48.8867 49.0355Z" fill="#292C3D"></path> <path d="M54.4306 46.5337C54.4306 46.5337 54.5566 44.9075 52.6667 43.9068C50.7767 42.906 46.9968 42.4057 43.9729 43.9068C40.9489 45.4078 40.067 45.7831 39.185 45.2828C38.303 44.7824 38.807 44.282 38.807 44.282C38.807 44.282 36.791 44.282 36.917 47.2842C37.043 50.2864 40.697 54.0391 45.6108 54.0391C53.1706 54.0391 55.6906 48.7853 54.4306 46.5337Z" fill="#292C3D"></path> <path d="M53.6746 64.7969C53.2966 74.0536 47.5008 73.178 47.5008 73.178C47.5008 73.178 41.7049 74.1787 41.3269 64.7969C41.3269 64.7969 32.0032 67.2987 27.4673 70.426C27.4673 70.426 29.3572 78.5568 29.4832 87.5634L34.7751 108.078L47.5008 108.704L60.2265 108.078L65.5183 87.5634C65.6443 78.5568 67.5343 70.426 67.5343 70.426C62.9984 67.2987 53.6746 64.7969 53.6746 64.7969Z" fill="#AFEAF0"></path> <path d="M64.5104 75.6797C58.7145 78.807 55.9426 85.812 50.2727 89.3146C44.4769 92.9422 40.319 85.6869 37.547 81.9342C35.1531 78.6819 32.0032 76.055 28.2233 74.5539C28.7273 77.8062 29.3572 82.5597 29.4832 87.5633L34.7751 108.078L47.5008 108.704L60.2265 108.078L65.5183 87.5633C65.6443 82.6848 66.1483 78.0564 66.7783 74.8041C65.8963 75.0543 65.1403 75.3044 64.5104 75.6797Z" fill="#5AC4E0"></path> <path d="M70.9362 116.209C70.9362 108.954 61.9904 104.325 61.9904 104.325H31.7512C31.7512 104.325 22.8054 109.079 22.8054 116.209C22.8054 117.335 23.0574 119.336 23.5614 121.713H33.6411C33.1372 122.589 32.7592 123.214 32.5072 123.839C32.3812 123.965 32.2552 124.215 32.2552 124.34C33.7671 124.34 35.2791 124.34 36.7911 124.34C37.673 124.34 38.681 124.34 39.563 124.34C40.067 124.34 41.201 124.59 40.949 123.714C40.697 122.589 40.067 121.963 40.697 120.712C41.201 119.711 42.7129 118.961 43.8469 118.961C44.0989 118.961 44.3509 118.961 44.6029 118.961C46.2408 118.961 47.7528 118.961 49.3907 118.961C50.0207 118.961 50.5247 119.086 51.1547 119.211C51.6587 119.336 52.2887 119.336 52.6667 119.837C53.0446 120.462 53.0447 121.463 53.1706 122.088C53.1706 122.338 53.0446 124.215 53.0446 124.215H62.9984C62.2424 123.339 61.7384 122.463 61.2344 121.713H70.1802C70.6842 119.336 70.9362 117.46 70.9362 116.209Z" fill="#0254E4"></path> <path opacity="0.65" d="M70.9362 116.209C70.9362 108.954 61.9904 104.325 61.9904 104.325H31.7512C31.7512 104.325 22.8054 109.079 22.8054 116.209C22.8054 117.335 23.0574 119.336 23.5614 121.713H33.6411C33.1372 122.589 32.7592 123.214 32.5072 123.839C32.3812 123.965 32.2552 124.215 32.2552 124.34H40.949C41.201 124.34 40.571 123.089 40.571 122.964C40.319 122.463 40.319 121.963 40.445 121.463C40.571 120.962 41.075 120.462 41.4529 120.087C42.8389 118.836 44.8549 118.836 46.6188 118.836C48.3828 118.836 50.2727 118.586 51.7847 119.711C52.1627 119.962 52.2887 120.087 52.5407 120.337C53.5486 121.588 53.0446 122.839 52.9187 124.215H62.9984C62.2424 123.339 61.7384 122.463 61.2344 121.713H70.1802C70.6842 119.336 70.9362 117.46 70.9362 116.209Z" fill="#00A1CC"></path> <path d="M27.3413 70.3008C27.3413 70.3008 15.7496 95.0687 16.6316 98.321C16.8836 99.1967 30.8692 107.578 37.421 106.327L40.067 105.826C40.193 105.952 30.3652 70.1757 27.3413 70.3008Z" fill="#AFEAF0"></path> <path d="M67.5343 70.3008C67.5343 70.3008 79.126 95.0687 78.244 98.321C77.992 99.1967 63.8804 107.578 57.3285 106.327L54.6826 105.826C54.6826 105.952 64.5104 70.1757 67.5343 70.3008Z" fill="#AFEAF0"></path> <path d="M31.8772 78.9321C31.8772 80.0579 31.7512 81.3088 31.3732 82.5597C30.3653 87.0629 28.7273 91.6913 30.4913 96.1945C31.7512 99.572 33.7672 103.075 35.6571 106.452C36.2871 106.452 36.9171 106.452 37.5471 106.327L40.193 105.826C40.193 105.952 35.6571 89.5647 31.8772 78.9321Z" fill="#5AC4E0"></path> <path d="M61.2344 106.202C62.1164 104.075 62.6204 101.949 62.4944 99.5719C62.3684 94.9436 62.3684 90.4403 62.3684 85.812C62.3684 83.8105 62.4944 81.9342 62.6204 80.0578C58.8405 90.5654 54.6826 105.701 54.6826 105.701L57.3285 106.202C58.4625 106.577 59.7225 106.452 61.2344 106.202Z" fill="#5AC4E0"></path> <path d="M35.9091 159.115C35.9091 159.115 28.6013 167.746 27.7193 169.623C26.8373 171.499 28.9792 173.751 31.7512 172.875C34.6491 171.874 36.2871 169.998 36.2871 168.747C36.2871 167.496 37.799 166.871 38.555 166.746C39.185 166.62 42.9649 162.367 42.5869 161.116C42.2089 159.991 40.319 158.615 40.319 158.615L35.9091 159.115Z" fill="#292C3D"></path> <path d="M57.8325 159.115C57.8325 159.115 65.1403 167.746 66.0223 169.623C66.9043 171.499 64.7623 173.751 61.9904 172.875C59.0925 171.874 57.4545 169.998 57.4545 168.747C57.4545 167.496 55.9426 166.871 55.1866 166.746C54.5566 166.62 50.7767 162.367 51.1547 161.116C51.5327 159.991 53.4226 158.615 53.4226 158.615L57.8325 159.115Z" fill="#292C3D"></path> <path d="M20.7894 123.089H18.3955V173H20.7894V123.089Z" fill="#AFEAF0"></path> <path d="M75.8501 123.089H73.4561V173H75.8501V123.089Z" fill="#AFEAF0"></path> <path d="M79 118.961H13.7336V125.341H79V118.961Z" fill="#292C3D"></path> <path d="M38.429 115.834C37.547 113.832 37.421 109.454 31.4992 109.454C20.1595 109.454 22.8054 118.461 23.0574 119.837C24.8214 133.221 33.0112 159.866 33.0112 159.866H44.3509C44.3509 159.866 40.193 127.092 39.563 122.088C39.437 121.463 39.059 117.335 38.429 115.834Z" fill="#0254E4"></path> <path d="M55.3126 115.834C56.1946 113.832 56.3206 109.454 62.2424 109.454C73.5821 109.454 70.9362 118.461 70.6842 119.837C68.9202 133.221 60.7305 159.866 60.7305 159.866H49.3907C49.3907 159.866 53.5486 127.092 54.1786 122.088C54.3046 121.463 54.6826 117.335 55.3126 115.834Z" fill="#0254E4"></path> <path d="M64.1324 106.202H30.8693V108.203H64.1324V106.202Z" fill="#292C3D"></path> <path d="M68.9203 83.3102H25.9553C25.9553 83.3102 23.6874 83.3102 24.0654 85.9371C24.4434 88.564 29.8612 106.452 30.9952 106.452C33.0112 106.452 47.5008 106.452 47.5008 106.452C47.5008 106.452 61.9904 106.452 64.0064 106.452C65.0144 106.452 70.5582 88.4389 70.9362 85.9371C71.3142 83.3102 68.9203 83.3102 68.9203 83.3102Z" fill="#292C3D"></path> <path d="M49.2647 95.6942C49.2647 96.6949 48.5087 97.4454 47.5008 97.4454C46.4928 97.4454 45.7368 96.6949 45.7368 95.6942C45.7368 94.6934 46.4928 93.9429 47.5008 93.9429C48.3828 93.9429 49.2647 94.8185 49.2647 95.6942Z" fill="white"></path> <path d="M33.6411 23.7672H27.5933L32.7592 34.9002L21.4195 23.7672H1.63796C0.755981 23.7672 0 23.0166 0 22.141V1.62617C0 0.750542 0.755981 0 1.63796 0H33.7671C34.6491 0 35.2791 0.750542 35.2791 1.62617V22.141C35.2791 23.0166 34.6491 23.7672 33.6411 23.7672Z" fill="white"></path> <path d="M22.4274 8.75628C22.4274 11.5083 18.8995 12.2588 18.8995 13.3846V13.7599H15.3716V12.7592C15.3716 11.2581 18.0175 10.3825 18.0175 8.75628C18.1435 8.13083 17.6395 7.50537 16.8836 7.50537C15.7496 7.50537 15.6236 8.38101 15.6236 9.25664C15.6236 9.38173 15.6236 9.63191 15.6236 9.757H11.8437C11.8437 9.50682 11.8437 9.25664 11.8437 9.00646C11.8437 6.37956 14.2376 4.75338 17.3876 4.75338C20.4115 4.62829 22.4274 6.25447 22.4274 8.75628ZM19.2775 18.7635H15.2456V15.0108H19.2775V18.7635Z" fill="#292C3D"></path> </g> <defs> <clipPath id="clip0"> <rect width="79" height="173" fill="white"></rect> </clipPath> </defs> </svg> 