<?xml version="1.0" encoding="UTF-8"?> <svg xmlns="http://www.w3.org/2000/svg" width="129" height="174" viewBox="0 0 129 174" fill="none"> <path d="M49.8973 61.8719C49.8973 61.8719 52.7351 70.1689 54.3905 73.8433C63.7314 94.3487 46.4684 91.7411 39.9652 90.7929C33.462 89.8446 26.0128 87.3555 26.3675 82.0217C26.604 78.4659 28.8506 77.9918 29.6783 76.8065C30.6242 75.6212 28.8506 73.6062 29.56 70.643C30.2695 67.6798 35.2356 67.0871 36.1815 66.2574C37.1274 65.4277 39.1375 63.1757 38.1916 58.9087C37.2456 54.6416 36.7727 52.3896 39.6104 49.5449C42.4482 46.7002 46.7048 48.004 46.7048 48.004L49.8973 61.8719Z" fill="#292C3D"></path> <path d="M81.9404 93.7561C81.3492 93.282 79.1027 94.5858 77.4473 95.1785C76.5014 95.5341 74.6095 95.5341 73.1907 95.5341C73.1907 96.3638 73.0724 97.1935 72.8359 97.9046C73.9001 97.9046 74.7278 98.1417 75.4372 98.1417C76.2649 98.0232 77.802 97.9046 78.3932 97.7861C78.9844 97.6676 79.8121 97.6676 80.2851 98.0232C82.1769 99.564 83.1228 99.6826 83.3593 99.0899C83.3593 98.9714 81.9404 97.6676 81.4675 97.1935C82.2952 97.9046 84.3052 99.327 84.66 98.9714C85.0147 98.6158 83.1228 96.9564 82.2951 96.2452C83.1228 96.9564 85.2512 98.7343 85.7241 98.6158C87.0248 98.1417 82.5316 94.2303 81.9404 93.7561Z" fill="#F9A57E"></path> <path d="M89.8625 98.2602H66.8057V101.223H89.8625V98.2602Z" fill="#292C3D"></path> <path d="M74.846 95.1785L74.0183 98.4973C74.0183 98.4973 63.3767 97.312 59.7113 95.6526C56.0458 93.9932 52.4986 85.3406 52.4986 85.3406L55.2181 74.4359C55.2181 74.4359 60.539 88.6594 62.4308 90.4373C64.4409 92.2152 74.846 95.1785 74.846 95.1785Z" fill="#FF4C6B"></path> <path d="M117.885 89.252H72.8359C71.6535 89.252 70.7076 88.3038 70.7076 87.1185V59.8569C70.7076 58.6716 71.6535 57.7234 72.8359 57.7234H117.885C119.068 57.7234 120.014 58.6716 120.014 59.8569V87.1185C120.132 88.3038 119.186 89.252 117.885 89.252Z" fill="#AFEAF0"></path> <path d="M73.3089 87.1185V59.8569C73.3089 58.6716 74.2548 57.7234 75.4372 57.7234H72.8359C71.6535 57.7234 70.7076 58.6716 70.7076 59.8569V87.1185C70.7076 88.3038 71.6535 89.252 72.8359 89.252H75.4372C74.2548 89.252 73.3089 88.3038 73.3089 87.1185Z" fill="#292C3D"></path> <path d="M95.538 97.0749C95.538 97.0749 96.4839 87.4741 92.2273 84.2738C92.2273 84.2738 91.2814 83.4441 92.8185 82.4959C94.4739 81.5476 98.967 80.4809 100.504 83.3256C102.041 86.1703 103.105 91.0299 102.396 97.0749H95.538Z" fill="#292C3D"></path> <path d="M34.8808 119.951H32.8707V173.882H34.8808V119.951Z" fill="#AFEAF0"></path> <path d="M72.7177 119.951H70.7076V173.882H72.7177V119.951Z" fill="#AFEAF0"></path> <path d="M78.275 116.751H27.4317V122.084H78.275V116.751Z" fill="#292C3D"></path> <path d="M54.9817 149.82C54.9817 149.82 49.7791 154.324 49.7791 155.035C49.7791 155.747 58.6471 170.8 60.1842 170.8C61.7213 170.8 62.0761 168.192 61.8396 167.244C61.6031 166.296 58.7653 151.835 58.7653 151.835L54.9817 149.82Z" fill="#292C3D"></path> <path d="M47.4143 152.546C47.4143 152.546 42.33 157.287 42.4482 157.88C42.5665 158.473 51.7892 173.289 53.3263 173.289C54.8634 173.289 55.0999 170.681 54.8634 169.733C54.627 168.785 51.3162 154.443 51.3162 154.443L47.4143 152.546Z" fill="#292C3D"></path> <path d="M50.725 100.868C50.725 100.868 57.2282 103.95 64.7956 106.913C69.5252 108.809 76.2649 111.18 76.0284 116.395C75.9102 120.188 60.7754 156.339 60.7754 156.339L53.9175 152.902C53.9175 152.902 66.451 122.44 66.2145 120.425C65.978 118.41 64.5591 120.188 52.1439 119.003C39.7287 117.817 35.945 115.565 36.0632 109.639C36.1815 103.712 39.374 95.534 44.4583 93.4005C49.5426 91.267 50.725 100.868 50.725 100.868Z" fill="#4D505E"></path> <path d="M50.725 100.868C50.725 100.868 53.2081 104.068 60.7755 107.031C65.5051 108.928 71.5353 112.365 71.5353 115.684C71.5353 119.477 57.4647 154.798 57.4647 154.798L54.0358 153.02C54.0358 153.02 66.5692 122.559 66.3327 120.544C66.0963 118.529 64.6774 120.306 52.2622 119.121C39.8469 117.936 36.0633 115.684 36.1815 109.757C36.2997 103.831 39.4922 95.6525 44.5766 93.519C49.5426 91.267 50.725 100.868 50.725 100.868Z" fill="#3D3848"></path> <path d="M47.2961 96.3638C47.2961 96.3638 49.3061 104.661 54.0357 106.676C58.7654 108.691 69.6434 110.943 69.6434 116.158C69.6434 119.951 53.4445 157.169 53.4445 157.169L45.1677 153.257C45.1677 153.257 56.1641 123.151 55.9276 121.018C55.6911 119.003 56.7553 119.951 44.3401 119.24C31.8066 118.529 30.033 116.158 30.033 110.232C29.9148 104.305 37.6004 96.3638 37.6004 96.3638C42.4482 94.1117 47.2961 96.3638 47.2961 96.3638Z" fill="#4D505E"></path> <path d="M50.6068 60.4496C50.6068 60.4496 48.5967 68.5095 52.2621 72.658C52.2621 72.658 57.11 79.1771 49.4244 80.3624C41.7388 81.4291 42.8029 71.3542 42.8029 71.3542C42.8029 71.3542 44.1036 60.2125 42.0935 55.4714C42.0935 55.4714 47.0596 58.1975 50.6068 60.4496Z" fill="#E76F59"></path> <path d="M45.4042 49.0708C45.4042 49.0708 55.9276 49.6634 55.9276 52.1525C56.0458 54.7602 55.0999 56.4196 55.3364 58.7901C56.0458 63.6498 53.2081 69.1021 52.0257 69.3392C50.1338 69.6948 43.6306 66.8501 42.5665 62.8201C41.6205 58.7901 41.3841 47.5299 45.4042 49.0708Z" fill="#F9A57E"></path> <path d="M55.4546 95.6525C55.4546 95.6525 57.7012 95.8896 58.1742 95.8896C58.6471 95.8896 64.6774 92.4523 65.3868 92.9264C66.0962 93.4005 72.2447 97.6675 72.0083 98.4972C71.7718 99.3269 70.1164 98.8528 66.8057 96.0081C66.8057 96.0081 71.1806 99.0899 70.3529 99.801C69.5252 100.512 65.7415 97.0749 65.7415 97.0749C65.7415 97.0749 69.6435 100.038 68.6975 100.631C67.7516 101.342 64.3226 97.7861 64.3226 97.7861C64.3226 97.7861 67.0422 100.394 66.6875 100.868C66.3327 101.342 64.5591 100.512 62.7855 98.8528C62.7855 98.8528 62.4308 98.6158 61.4849 99.2084C60.539 99.6825 54.3905 98.7343 54.3905 98.7343L55.4546 95.6525Z" fill="#F9A57E"></path> <path d="M56.8735 57.1308C56.8735 57.1308 49.5426 58.7902 47.1778 53.2193C45.286 48.7152 45.9954 48.2411 45.9954 48.2411C45.9954 48.2411 50.0156 45.0408 54.7452 49.4264C57.9377 52.1526 56.8735 57.1308 56.8735 57.1308Z" fill="#292C3D"></path> <path d="M46.5866 48.1226C46.5866 48.1226 50.4885 51.5599 48.3602 54.7602C46.4684 57.7234 47.6508 59.2643 47.2961 61.2792C47.2961 61.2792 46.3501 60.8051 46.1136 59.9754C45.8772 59.0272 45.6407 56.7752 44.34 57.1307C43.1576 57.4863 41.9752 59.0272 44.34 60.9237C44.34 60.9237 45.6407 63.5313 43.9853 65.6648C43.9853 65.6648 37.7186 60.2125 39.4922 54.1675C41.2658 48.004 46.5866 48.1226 46.5866 48.1226Z" fill="#292C3D"></path> <path d="M51.4345 71.5912C51.4345 71.5912 51.9074 75.3841 50.4886 76.0953C49.0697 76.8065 44.2218 69.5762 44.2218 69.5762C44.2218 69.5762 37.6004 72.4209 36.0633 73.6062C34.5261 74.7915 36.7727 86.5258 36.7727 86.5258C36.7727 86.5258 32.1613 100.512 32.7525 103.594C33.3437 106.557 53.4446 103.001 53.4446 103.001C53.4446 103.001 55.5729 88.5408 56.2823 86.5258C56.9918 84.3923 58.0559 83.0885 56.9918 80.0068C55.5729 75.6212 55.2182 74.5544 55.2182 74.5544C55.2182 74.5544 52.8534 72.1839 51.4345 71.5912Z" fill="#FF4C6B"></path> <path d="M39.4922 84.2738C37.9551 82.2588 38.901 78.8215 37.2457 76.8065C36.7727 76.2139 36.2997 75.5027 35.7085 74.91C35.3538 78.2288 36.8909 86.5258 36.8909 86.5258C36.8909 86.5258 32.2796 100.512 32.8708 103.594C33.462 106.557 53.5628 103.001 53.5628 103.001C53.5628 103.001 55.3364 90.4373 56.1641 87.1185C55.6911 87.8296 51.5527 92.9264 47.0596 92.2152C44.5765 91.6226 42.4482 88.3038 39.4922 84.2738Z" fill="#DA395B"></path> <path d="M42.9212 58.4346C42.9212 58.4346 42.8029 59.9754 44.1036 60.331C44.6948 60.4496 44.5765 62.2275 45.0495 63.8869C45.8772 67.2057 45.4042 69.3392 42.9212 70.2874C41.1476 70.9986 38.6645 71.4727 35.945 73.4877C33.1072 75.5027 34.9991 67.2057 38.428 65.1907C42.0935 63.1757 42.9212 58.4346 42.9212 58.4346Z" fill="#292C3D"></path> <path d="M106.416 101.223H91.7544C90.9267 101.223 90.3355 100.275 90.6902 99.4455L91.5179 97.6676C91.7544 97.312 92.1091 96.9564 92.582 96.9564H105.588C106.061 96.9564 106.416 97.1934 106.653 97.6676L107.48 99.4455C107.953 100.275 107.362 101.223 106.416 101.223Z" fill="#292C3D"></path> <path d="M129 101.223H0V104.661H129V101.223Z" fill="#7695A8"></path> <path d="M6.26672 102.764H4.7296V174H6.26672V102.764Z" fill="#7695A8"></path> <path d="M124.27 102.764H122.733V174H124.27V102.764Z" fill="#7695A8"></path> <path d="M57.3465 95.534L56.9918 99.9196C56.9918 99.9196 31.3336 100.157 27.55 99.6825C23.648 99.2084 21.9927 94.1117 24.4757 89.6076C26.9588 85.1035 34.4079 73.3691 37.6004 73.1321C40.7929 72.895 42.6847 77.2806 40.0834 82.1403C37.3639 86.9999 32.516 91.6226 33.5802 92.3337C34.5261 93.1634 57.3465 95.534 57.3465 95.534Z" fill="#FF4C6B"></path> <path d="M93.1733 27.2616H69.407L56.6371 37.6921L62.3126 27.2616H56.5188C55.4546 27.2616 54.7452 26.4319 54.7452 25.4837V1.77793C54.7452 0.8297 55.5729 0 56.6371 0H93.1733C94.2374 0 94.9469 0.8297 94.9469 1.77793V25.3651C94.9469 26.4319 94.1192 27.2616 93.1733 27.2616Z" fill="white"></path> <path d="M69.8799 19.9128H65.3868V15.7643H69.8799V19.9128Z" fill="black"></path> <path d="M76.8561 19.9128H72.363V15.7643H76.8561V19.9128Z" fill="black"></path> <path d="M83.8323 19.9128H79.3392V15.7643H83.8323V19.9128Z" fill="black"></path> </svg> 