<?xml version="1.0" encoding="UTF-8"?> <svg xmlns="http://www.w3.org/2000/svg" viewBox="0 0 3661.06 24.3"> <defs> <style>.cls-1{fill:#fff;}</style> </defs> <g id="Слой_2" data-name="Слой 2"> <g id="Слой_1-2" data-name="Слой 1"> <path class="cls-1" d="M1514.76,23.9V.29H1513V23.9Zm3-12.6v1.59h15.37v11h1.77V.29h-1.77v11Zm31.87-3.78V6c-5.5.5-8.89,3.74-8.89,8.78v.76c0,4.93,3.39,8.17,8.89,8.67V22.61c-4.42-.47-7.16-3.06-7.16-7.13v-.72C1542.42,10.66,1545.08,8,1549.58,7.52Zm3-1.54V7.56c4.39.47,7,3.17,7,7.2v.72c0,4-2.7,6.7-7,7.13v1.58c5.43-.5,8.78-3.74,8.78-8.67v-.76C1561.32,9.76,1558,6.48,1552.54,6Zm21.82,17.92-8.14-17.64h-1.76v.29l8,17.35Zm16.09,0-8-17.64h-1.69l-5.69,12.1.9,2.09,5.66-12.06,7,15.51Zm.83-5.43.83,2,6.73-13.9V6.26h-1.69Zm19.34-16.92V0c-4.89.4-7.84,3-7.84,6.91v.76h1.65V6.91C1604.43,3.89,1606.74,1.94,1610.62,1.55Zm3-1.55V1.55c3.6.36,5.76,2.05,5.76,4.64v.36c0,1.73-1,2.85-4.29,4.72C1612,13,1611,14.4,1611,17v1.44h1.59V17c0-2.05.86-3.17,3.81-4.83,3.42-1.94,4.68-3.45,4.68-5.61V6.16C1621.06,2.81,1618.08.43,1613.58,0Zm-1.8,24.3a1.28,1.28,0,1,0,0-2.56,1.28,1.28,0,1,0,0,2.56Z"></path> <path class="cls-1" d="M0,23.9H1.76V.29H0ZM22.28.29H20.2L8.32,11.23H4.72v1.59h3.6L20.05,23.9H22.1v-.28L9.9,12,22.28.58ZM33.56,7.6V6c-4.65.43-7.71,3-7.71,6.44v.29h1.66v-.29C27.51,9.86,30,8,33.56,7.6ZM36.51,6V7.6c4,.36,6.08,2.3,6.08,5.61v7c0,2.34,1.55,3.74,4.18,3.74h1.91V22.39H47.09c-1.8,0-2.84-.93-2.84-2.55V13.21C44.25,9,41.44,6.37,36.51,6Zm3.24,16.66-.11-1.58a11.17,11.17,0,0,1-6.26,1.73c-4,0-5.94-1.08-5.94-3.21s1.62-3.13,5.22-3.49l7-.72V13.93l-7.31.76c-4.46.47-6.58,2-6.58,4.89,0,3.1,2.62,4.72,7.66,4.72A11.53,11.53,0,0,0,39.75,22.64ZM52.23,23.9h1.7V6.26h-1.7ZM61.45,15l9.83-8.46V6.26h-2l-9.36,8H56.88V15.8H60l9.83,8.1h1.94v-.28ZM83.21,1.55V0c-4.89.4-7.84,3-7.84,6.91v.76H77V6.91C77,3.89,79.33,1.94,83.21,1.55Zm3-1.55V1.55c3.6.36,5.76,2.05,5.76,4.64v.36c0,1.73-1,2.85-4.29,4.72C84.55,13,83.57,14.4,83.57,17v1.44h1.59V17c0-2.05.86-3.17,3.81-4.83,3.42-1.94,4.68-3.45,4.68-5.61V6.16C93.65,2.81,90.67.43,86.17,0Zm-1.8,24.3a1.28,1.28,0,1,0,0-2.56,1.28,1.28,0,1,0,0,2.56Z"></path> <path class="cls-1" d="M154.76,23.9V.29H153V23.9Zm3-12.6v1.59h15.37v11h1.76V.29h-1.76v11Zm31.87-3.78V6c-5.51.5-8.89,3.74-8.89,8.78v.76c0,4.93,3.38,8.17,8.89,8.67V22.61c-4.43-.47-7.17-3.06-7.17-7.13v-.72C182.42,10.66,185.09,8,189.59,7.52ZM192.54,6V7.56c4.39.47,7.06,3.17,7.06,7.2v.72c0,4-2.7,6.7-7.06,7.13v1.58c5.44-.5,8.78-3.74,8.78-8.67v-.76C201.32,9.76,198,6.48,192.54,6ZM214.36,23.9,206.23,6.26h-1.77v.29l8,17.35Zm16.09,0L222.5,6.26h-1.69l-5.69,12.1.9,2.09,5.65-12.06,7,15.51Zm.83-5.43.83,2,6.73-13.9V6.26h-1.69ZM250.63,1.55V0c-4.9.4-7.85,3-7.85,6.91v.76h1.66V6.91C244.44,3.89,246.74,1.94,250.63,1.55Zm3-1.55V1.55c3.6.36,5.76,2.05,5.76,4.64v.36c0,1.73-1,2.85-4.28,4.72C252,13,251,14.4,251,17v1.44h1.58V17c0-2.05.87-3.17,3.82-4.83,3.42-1.94,4.68-3.45,4.68-5.61V6.16C261.07,2.81,258.08.43,253.58,0Zm-1.8,24.3a1.28,1.28,0,1,0,0-2.56,1.28,1.28,0,1,0,0,2.56Z"></path> <path class="cls-1" d="M680,23.9h1.76V.29H680ZM702.28.29H700.2L688.32,11.23h-3.6v1.59h3.6L700.05,23.9h2.05v-.28L689.9,12,702.28.58ZM713.56,7.6V6c-4.65.43-7.71,3-7.71,6.44v.29h1.66v-.29C707.51,9.86,710,8,713.56,7.6Zm3-1.62V7.6c4,.36,6.08,2.3,6.08,5.61v7c0,2.34,1.55,3.74,4.18,3.74h1.91V22.39h-1.59c-1.8,0-2.84-.93-2.84-2.55V13.21C724.25,9,721.44,6.37,716.51,6Zm3.24,16.66-.11-1.58a11.17,11.17,0,0,1-6.26,1.73c-4,0-5.94-1.08-5.94-3.21s1.62-3.13,5.22-3.49l7-.72V13.93l-7.31.76c-4.46.47-6.59,2-6.59,4.89,0,3.1,2.63,4.72,7.67,4.72A11.53,11.53,0,0,0,719.75,22.64Zm12.49,1.26h1.69V6.26h-1.69ZM741.45,15l9.83-8.46V6.26h-2l-9.36,8h-3.06V15.8H740l9.83,8.1h1.94v-.28ZM763.21,1.55V0c-4.89.4-7.84,3-7.84,6.91v.76H757V6.91C757,3.89,759.32,1.94,763.21,1.55Zm3-1.55V1.55c3.59.36,5.76,2.05,5.76,4.64v.36c0,1.73-1,2.85-4.29,4.72-3.09,1.76-4.07,3.13-4.07,5.76v1.44h1.59V17c0-2.05.86-3.17,3.81-4.83,3.42-1.94,4.68-3.45,4.68-5.61V6.16C773.65,2.81,770.67.43,766.17,0Zm-1.8,24.3a1.28,1.28,0,1,0,0-2.56,1.28,1.28,0,1,0,0,2.56Z"></path> <path class="cls-1" d="M834.76,23.9V.29H833V23.9Zm3-12.6v1.59h15.37v11h1.76V.29h-1.76v11Zm31.87-3.78V6c-5.51.5-8.89,3.74-8.89,8.78v.76c0,4.93,3.38,8.17,8.89,8.67V22.61c-4.43-.47-7.17-3.06-7.17-7.13v-.72C862.42,10.66,865.09,8,869.59,7.52ZM872.54,6V7.56c4.39.47,7.06,3.17,7.06,7.2v.72c0,4-2.7,6.7-7.06,7.13v1.58c5.44-.5,8.78-3.74,8.78-8.67v-.76C881.32,9.76,878,6.48,872.54,6ZM894.36,23.9,886.23,6.26h-1.77v.29l8,17.35Zm16.09,0-8-17.64h-1.69l-5.69,12.1.9,2.09,5.65-12.06,7,15.51Zm.83-5.43.83,2,6.73-13.9V6.26h-1.69ZM930.63,1.55V0c-4.9.4-7.85,3-7.85,6.91v.76h1.66V6.91C924.44,3.89,926.74,1.94,930.63,1.55Zm3-1.55V1.55c3.6.36,5.76,2.05,5.76,4.64v.36c0,1.73-1,2.85-4.28,4.72C932,13,931,14.4,931,17v1.44h1.58V17c0-2.05.87-3.17,3.82-4.83,3.42-1.94,4.68-3.45,4.68-5.61V6.16C941.07,2.81,938.08.43,933.58,0Zm-1.8,24.3a1.28,1.28,0,1,0,0-2.56,1.28,1.28,0,1,0,0,2.56Z"></path> <path class="cls-1" d="M1360,23.9h1.76V.29H1360ZM1382.28.29h-2.09l-11.88,10.94h-3.6v1.59h3.6l11.74,11.08h2v-.28L1369.9,12,1382.28.58Zm11.27,7.31V6c-4.64.43-7.7,3-7.7,6.44v.29h1.66v-.29C1387.51,9.86,1390,8,1393.55,7.6Zm3-1.62V7.6c4,.36,6.08,2.3,6.08,5.61v7c0,2.34,1.55,3.74,4.18,3.74h1.9V22.39h-1.58c-1.8,0-2.84-.93-2.84-2.55V13.21C1404.25,9,1401.44,6.37,1396.51,6Zm3.24,16.66-.11-1.58a11.21,11.21,0,0,1-6.27,1.73c-4,0-5.94-1.08-5.94-3.21s1.62-3.13,5.22-3.49l7-.72V13.93l-7.31.76c-4.46.47-6.59,2-6.59,4.89,0,3.1,2.63,4.72,7.67,4.72A11.53,11.53,0,0,0,1399.75,22.64Zm12.48,1.26h1.69V6.26h-1.69Zm9.22-8.89,9.82-8.46V6.26h-2l-9.36,8h-3.06V15.8H1420l9.82,8.1h2v-.28Zm21.76-13.46V0c-4.9.4-7.85,3-7.85,6.91v.76H1437V6.91C1437,3.89,1439.32,1.94,1443.21,1.55Zm3-1.55V1.55c3.6.36,5.76,2.05,5.76,4.64v.36c0,1.73-1,2.85-4.28,4.72-3.1,1.76-4.07,3.13-4.07,5.76v1.44h1.58V17c0-2.05.87-3.17,3.82-4.83,3.42-1.94,4.68-3.45,4.68-5.61V6.16C1453.65,2.81,1450.66.43,1446.16,0Zm-1.8,24.3a1.28,1.28,0,1,0-1.29-1.3A1.26,1.26,0,0,0,1444.36,24.3Z"></path> <path class="cls-1" d="M340,23.9h1.76V.29H340ZM362.28.29H360.2L348.32,11.23h-3.6v1.59h3.6L360.05,23.9h2.05v-.28L349.9,12,362.28.58ZM373.56,7.6V6c-4.65.43-7.71,3-7.71,6.44v.29h1.66v-.29C367.51,9.86,370,8,373.56,7.6ZM376.51,6V7.6c4,.36,6.08,2.3,6.08,5.61v7c0,2.34,1.55,3.74,4.18,3.74h1.91V22.39h-1.59c-1.8,0-2.84-.93-2.84-2.55V13.21C384.25,9,381.44,6.37,376.51,6Zm3.24,16.66-.11-1.58a11.17,11.17,0,0,1-6.26,1.73c-4,0-5.94-1.08-5.94-3.21s1.62-3.13,5.22-3.49l7-.72V13.93l-7.31.76c-4.46.47-6.58,2-6.58,4.89,0,3.1,2.62,4.72,7.66,4.72A11.53,11.53,0,0,0,379.75,22.64Zm12.48,1.26h1.7V6.26h-1.7ZM401.45,15l9.83-8.46V6.26h-2l-9.36,8h-3.06V15.8H400l9.83,8.1h1.94v-.28ZM423.21,1.55V0c-4.89.4-7.85,3-7.85,6.91v.76H417V6.91C417,3.89,419.32,1.94,423.21,1.55Zm3-1.55V1.55c3.6.36,5.76,2.05,5.76,4.64v.36c0,1.73-1,2.85-4.28,4.72-3.1,1.76-4.07,3.13-4.07,5.76v1.44h1.59V17c0-2.05.86-3.17,3.81-4.83,3.42-1.94,4.68-3.45,4.68-5.61V6.16C433.65,2.81,430.66.43,426.16,0Zm-1.8,24.3a1.28,1.28,0,1,0,0-2.56,1.28,1.28,0,1,0,0,2.56Z"></path> <path class="cls-1" d="M494.76,23.9V.29H493V23.9Zm3-12.6v1.59h15.37v11h1.76V.29h-1.76v11Zm31.87-3.78V6c-5.51.5-8.89,3.74-8.89,8.78v.76c0,4.93,3.38,8.17,8.89,8.67V22.61c-4.43-.47-7.17-3.06-7.17-7.13v-.72C522.42,10.66,525.09,8,529.59,7.52ZM532.54,6V7.56c4.39.47,7.06,3.17,7.06,7.2v.72c0,4-2.7,6.7-7.06,7.13v1.58c5.44-.5,8.78-3.74,8.78-8.67v-.76C541.32,9.76,538,6.48,532.54,6ZM554.36,23.9,546.23,6.26h-1.77v.29l8,17.35Zm16.09,0-8-17.64h-1.69l-5.69,12.1.9,2.09,5.65-12.06,7,15.51Zm.83-5.43.83,2,6.73-13.9V6.26h-1.69ZM590.63,1.55V0c-4.9.4-7.85,3-7.85,6.91v.76h1.66V6.91C584.44,3.89,586.74,1.94,590.63,1.55Zm3-1.55V1.55c3.6.36,5.76,2.05,5.76,4.64v.36c0,1.73-1,2.85-4.28,4.72C592,13,591,14.4,591,17v1.44h1.58V17c0-2.05.87-3.17,3.82-4.83,3.42-1.94,4.68-3.45,4.68-5.61V6.16C601.07,2.81,598.08.43,593.58,0Zm-1.8,24.3a1.28,1.28,0,1,0,0-2.56,1.28,1.28,0,1,0,0,2.56Z"></path> <path class="cls-1" d="M1020,23.9h1.76V.29H1020ZM1042.28.29h-2.09l-11.88,10.94h-3.6v1.59h3.6l11.74,11.08h2v-.28L1029.9,12,1042.28.58Zm11.27,7.31V6c-4.64.43-7.7,3-7.7,6.44v.29h1.66v-.29C1047.51,9.86,1050,8,1053.55,7.6Zm3-1.62V7.6c4,.36,6.08,2.3,6.08,5.61v7c0,2.34,1.55,3.74,4.18,3.74h1.9V22.39h-1.58c-1.8,0-2.84-.93-2.84-2.55V13.21C1064.25,9,1061.44,6.37,1056.51,6Zm3.24,16.66-.11-1.58a11.21,11.21,0,0,1-6.27,1.73c-4,0-5.94-1.08-5.94-3.21s1.62-3.13,5.22-3.49l7-.72V13.93l-7.31.76c-4.46.47-6.59,2-6.59,4.89,0,3.1,2.63,4.72,7.67,4.72A11.53,11.53,0,0,0,1059.75,22.64Zm12.48,1.26h1.69V6.26h-1.69Zm9.22-8.89,9.82-8.46V6.26h-2l-9.36,8h-3.06V15.8H1080l9.82,8.1h2v-.28Zm21.76-13.46V0c-4.9.4-7.85,3-7.85,6.91v.76H1097V6.91C1097,3.89,1099.32,1.94,1103.21,1.55Zm3-1.55V1.55c3.6.36,5.76,2.05,5.76,4.64v.36c0,1.73-1,2.85-4.28,4.72-3.1,1.76-4.07,3.13-4.07,5.76v1.44h1.58V17c0-2.05.87-3.17,3.82-4.83,3.42-1.94,4.68-3.45,4.68-5.61V6.16C1113.65,2.81,1110.66.43,1106.16,0Zm-1.8,24.3a1.28,1.28,0,1,0-1.29-1.3A1.26,1.26,0,0,0,1104.36,24.3Z"></path> <path class="cls-1" d="M1174.76,23.9V.29H1173V23.9Zm3-12.6v1.59h15.37v11h1.77V.29h-1.77v11Zm31.87-3.78V6c-5.5.5-8.89,3.74-8.89,8.78v.76c0,4.93,3.39,8.17,8.89,8.67V22.61c-4.42-.47-7.16-3.06-7.16-7.13v-.72C1202.42,10.66,1205.08,8,1209.58,7.52Zm3-1.54V7.56c4.39.47,7,3.17,7,7.2v.72c0,4-2.7,6.7-7,7.13v1.58c5.43-.5,8.78-3.74,8.78-8.67v-.76C1221.32,9.76,1218,6.48,1212.54,6Zm21.82,17.92-8.14-17.64h-1.76v.29l8,17.35Zm16.09,0-8-17.64h-1.69l-5.69,12.1.9,2.09,5.66-12.06,7,15.51Zm.83-5.43.83,2,6.73-13.9V6.26h-1.69Zm19.34-16.92V0c-4.89.4-7.84,3-7.84,6.91v.76h1.65V6.91C1264.43,3.89,1266.74,1.94,1270.62,1.55Zm3-1.55V1.55c3.6.36,5.76,2.05,5.76,4.64v.36c0,1.73-1,2.85-4.29,4.72C1272,13,1271,14.4,1271,17v1.44h1.59V17c0-2.05.86-3.17,3.81-4.83,3.42-1.94,4.68-3.45,4.68-5.61V6.16C1281.06,2.81,1278.08.43,1273.58,0Zm-1.8,24.3a1.28,1.28,0,1,0,0-2.56,1.28,1.28,0,1,0,0,2.56Z"></path> <path class="cls-1" d="M1700,23.9h1.76V.29H1700ZM1722.28.29h-2.09l-11.88,10.94h-3.6v1.59h3.6l11.74,11.08h2v-.28L1709.9,12,1722.28.58Zm11.27,7.31V6c-4.64.43-7.7,3-7.7,6.44v.29h1.66v-.29C1727.51,9.86,1730,8,1733.55,7.6Zm3-1.62V7.6c4,.36,6.08,2.3,6.08,5.61v7c0,2.34,1.55,3.74,4.18,3.74h1.9V22.39h-1.58c-1.8,0-2.84-.93-2.84-2.55V13.21C1744.25,9,1741.44,6.37,1736.51,6Zm3.24,16.66-.11-1.58a11.21,11.21,0,0,1-6.27,1.73c-4,0-5.94-1.08-5.94-3.21s1.62-3.13,5.22-3.49l7-.72V13.93l-7.31.76c-4.46.47-6.59,2-6.59,4.89,0,3.1,2.63,4.72,7.67,4.72A11.53,11.53,0,0,0,1739.75,22.64Zm12.48,1.26h1.69V6.26h-1.69Zm9.22-8.89,9.82-8.46V6.26h-2l-9.36,8h-3.06V15.8H1760l9.82,8.1h2v-.28Zm21.76-13.46V0c-4.9.4-7.85,3-7.85,6.91v.76H1777V6.91C1777,3.89,1779.32,1.94,1783.21,1.55Zm3-1.55V1.55c3.6.36,5.76,2.05,5.76,4.64v.36c0,1.73-1,2.85-4.28,4.72-3.1,1.76-4.07,3.13-4.07,5.76v1.44h1.58V17c0-2.05.87-3.17,3.82-4.83,3.42-1.94,4.68-3.45,4.68-5.61V6.16C1793.65,2.81,1790.66.43,1786.16,0Zm-1.8,24.3a1.28,1.28,0,1,0-1.29-1.3A1.26,1.26,0,0,0,1784.36,24.3Z"></path> <path class="cls-1" d="M1854.76,23.9V.29H1853V23.9Zm3-12.6v1.59h15.37v11h1.77V.29h-1.77v11Zm31.87-3.78V6c-5.5.5-8.89,3.74-8.89,8.78v.76c0,4.93,3.39,8.17,8.89,8.67V22.61c-4.42-.47-7.16-3.06-7.16-7.13v-.72C1882.42,10.66,1885.08,8,1889.58,7.52Zm3-1.54V7.56c4.39.47,7,3.17,7,7.2v.72c0,4-2.7,6.7-7,7.13v1.58c5.43-.5,8.78-3.74,8.78-8.67v-.76C1901.32,9.76,1898,6.48,1892.54,6Zm21.82,17.92-8.14-17.64h-1.76v.29l8,17.35Zm16.09,0-8-17.64h-1.69l-5.69,12.1.9,2.09,5.66-12.06,7,15.51Zm.83-5.43.83,2,6.73-13.9V6.26h-1.69Zm19.34-16.92V0c-4.89.4-7.84,3-7.84,6.91v.76h1.65V6.91C1944.43,3.89,1946.74,1.94,1950.62,1.55Zm3-1.55V1.55c3.6.36,5.76,2.05,5.76,4.64v.36c0,1.73-1,2.85-4.29,4.72C1952,13,1951,14.4,1951,17v1.44h1.59V17c0-2.05.86-3.17,3.81-4.83,3.42-1.94,4.68-3.45,4.68-5.61V6.16C1961.06,2.81,1958.08.43,1953.58,0Zm-1.8,24.3a1.28,1.28,0,1,0,0-2.56,1.28,1.28,0,1,0,0,2.56Z"></path> <path class="cls-1" d="M3214.76,23.9V.29H3213V23.9Zm2.95-12.6v1.59h15.37v11h1.77V.29h-1.77v11Zm31.87-3.78V6c-5.5.5-8.89,3.74-8.89,8.78v.76c0,4.93,3.39,8.17,8.89,8.67V22.61c-4.42-.47-7.16-3.06-7.16-7.13v-.72C3242.42,10.66,3245.08,8,3249.58,7.52Zm3-1.54V7.56c4.39.47,7.05,3.17,7.05,7.2v.72c0,4-2.7,6.7-7.05,7.13v1.58c5.43-.5,8.78-3.74,8.78-8.67v-.76C3261.32,9.76,3258,6.48,3252.54,6Zm21.82,17.92-8.14-17.64h-1.76v.29l8,17.35Zm16.09,0-8-17.64h-1.69l-5.69,12.1.9,2.09,5.66-12.06,7,15.51Zm.83-5.43.83,2,6.73-13.9V6.26h-1.69Zm19.34-16.92V0c-4.89.4-7.84,3-7.84,6.91v.76h1.65V6.91C3304.43,3.89,3306.74,1.94,3310.62,1.55Zm3-1.55V1.55c3.6.36,5.76,2.05,5.76,4.64v.36c0,1.73-1,2.85-4.29,4.72C3312,13,3311,14.4,3311,17v1.44h1.59V17c0-2.05.86-3.17,3.81-4.83,3.42-1.94,4.68-3.45,4.68-5.61V6.16C3321.06,2.81,3318.08.43,3313.58,0Zm-1.8,24.3a1.28,1.28,0,1,0,0-2.56,1.28,1.28,0,1,0,0,2.56Z"></path> <path class="cls-1" d="M2380,23.9h1.76V.29H2380ZM2402.28.29h-2.08l-11.88,10.94h-3.6v1.59h3.6l11.73,11.08h2v-.28L2389.9,12,2402.28.58Zm11.28,7.31V6c-4.65.43-7.71,3-7.71,6.44v.29h1.66v-.29C2407.51,9.86,2410,8,2413.56,7.6Zm3-1.62V7.6c4,.36,6.08,2.3,6.08,5.61v7c0,2.34,1.55,3.74,4.18,3.74h1.91V22.39h-1.59c-1.8,0-2.84-.93-2.84-2.55V13.21C2424.25,9,2421.44,6.37,2416.51,6Zm3.24,16.66-.11-1.58a11.17,11.17,0,0,1-6.26,1.73c-4,0-5.94-1.08-5.94-3.21s1.62-3.13,5.22-3.49l7-.72V13.93l-7.31.76c-4.46.47-6.59,2-6.59,4.89,0,3.1,2.63,4.72,7.67,4.72A11.53,11.53,0,0,0,2419.75,22.64Zm12.49,1.26h1.69V6.26h-1.69Zm9.21-8.89,9.83-8.46V6.26h-2l-9.36,8h-3.06V15.8H2440l9.83,8.1h1.94v-.28Zm21.76-13.46V0c-4.89.4-7.84,3-7.84,6.91v.76H2457V6.91C2457,3.89,2459.32,1.94,2463.21,1.55Zm3-1.55V1.55c3.59.36,5.76,2.05,5.76,4.64v.36c0,1.73-1,2.85-4.29,4.72-3.09,1.76-4.07,3.13-4.07,5.76v1.44h1.59V17c0-2.05.86-3.17,3.81-4.83,3.42-1.94,4.68-3.45,4.68-5.61V6.16C2473.65,2.81,2470.67.43,2466.17,0Zm-1.8,24.3a1.28,1.28,0,1,0,0-2.56,1.28,1.28,0,1,0,0,2.56Z"></path> <path class="cls-1" d="M2534.76,23.9V.29H2533V23.9Zm3-12.6v1.59h15.37v11h1.76V.29h-1.76v11Zm31.87-3.78V6c-5.51.5-8.89,3.74-8.89,8.78v.76c0,4.93,3.38,8.17,8.89,8.67V22.61c-4.43-.47-7.17-3.06-7.17-7.13v-.72C2562.42,10.66,2565.09,8,2569.59,7.52ZM2572.54,6V7.56c4.39.47,7.06,3.17,7.06,7.2v.72c0,4-2.7,6.7-7.06,7.13v1.58c5.44-.5,8.78-3.74,8.78-8.67v-.76C2581.32,9.76,2578,6.48,2572.54,6Zm21.82,17.92-8.13-17.64h-1.77v.29l8,17.35Zm16.09,0L2602.5,6.26h-1.69l-5.69,12.1.9,2.09,5.65-12.06,7,15.51Zm.83-5.43.83,2,6.73-13.9V6.26h-1.69Zm19.35-16.92V0c-4.9.4-7.85,3-7.85,6.91v.76h1.66V6.91C2624.44,3.89,2626.74,1.94,2630.63,1.55ZM2633.58,0V1.55c3.6.36,5.76,2.05,5.76,4.64v.36c0,1.73-1,2.85-4.28,4.72C2632,13,2631,14.4,2631,17v1.44h1.58V17c0-2.05.87-3.17,3.82-4.83,3.42-1.94,4.68-3.45,4.68-5.61V6.16C2641.07,2.81,2638.08.43,2633.58,0Zm-1.8,24.3a1.28,1.28,0,1,0,0-2.56,1.28,1.28,0,1,0,0,2.56Z"></path> <path class="cls-1" d="M3060,23.9h1.76V.29H3060ZM3082.28.29h-2.09l-11.88,10.94h-3.6v1.59h3.6l11.74,11.08h2v-.28L3069.9,12,3082.28.58Zm11.27,7.31V6c-4.64.43-7.7,3-7.7,6.44v.29h1.66v-.29C3087.51,9.86,3090,8,3093.55,7.6Zm3-1.62V7.6c4,.36,6.08,2.3,6.08,5.61v7c0,2.34,1.55,3.74,4.18,3.74h1.9V22.39h-1.58c-1.8,0-2.84-.93-2.84-2.55V13.21C3104.25,9,3101.44,6.37,3096.51,6Zm3.24,16.66-.11-1.58a11.21,11.21,0,0,1-6.27,1.73c-4,0-5.94-1.08-5.94-3.21s1.62-3.13,5.22-3.49l7-.72V13.93l-7.31.76c-4.46.47-6.59,2-6.59,4.89,0,3.1,2.63,4.72,7.67,4.72A11.53,11.53,0,0,0,3099.75,22.64Zm12.48,1.26h1.69V6.26h-1.69Zm9.22-8.89,9.82-8.46V6.26h-2l-9.36,8h-3.06V15.8H3120l9.82,8.1h2v-.28Zm21.76-13.46V0c-4.9.4-7.85,3-7.85,6.91v.76H3137V6.91C3137,3.89,3139.32,1.94,3143.21,1.55ZM3146.16,0V1.55c3.6.36,5.76,2.05,5.76,4.64v.36c0,1.73-1,2.85-4.28,4.72-3.1,1.76-4.07,3.13-4.07,5.76v1.44h1.58V17c0-2.05.87-3.17,3.82-4.83,3.42-1.94,4.68-3.45,4.68-5.61V6.16C3153.65,2.81,3150.66.43,3146.16,0Zm-1.8,24.3a1.28,1.28,0,1,0-1.29-1.3A1.26,1.26,0,0,0,3144.36,24.3Z"></path> <path class="cls-1" d="M2040,23.9h1.76V.29H2040ZM2062.28.29h-2.08l-11.88,10.94h-3.6v1.59h3.6l11.73,11.08h2v-.28L2049.9,12,2062.28.58Zm11.28,7.31V6c-4.65.43-7.71,3-7.71,6.44v.29h1.66v-.29C2067.51,9.86,2070,8,2073.56,7.6Zm3-1.62V7.6c4,.36,6.08,2.3,6.08,5.61v7c0,2.34,1.55,3.74,4.18,3.74h1.91V22.39h-1.59c-1.8,0-2.84-.93-2.84-2.55V13.21C2084.25,9,2081.44,6.37,2076.51,6Zm3.24,16.66-.11-1.58a11.17,11.17,0,0,1-6.26,1.73c-4,0-5.94-1.08-5.94-3.21s1.62-3.13,5.22-3.49l7-.72V13.93l-7.31.76c-4.46.47-6.58,2-6.58,4.89,0,3.1,2.62,4.72,7.66,4.72A11.53,11.53,0,0,0,2079.75,22.64Zm12.48,1.26h1.7V6.26h-1.7Zm9.22-8.89,9.83-8.46V6.26h-2l-9.36,8h-3.06V15.8H2100l9.83,8.1h1.94v-.28Zm21.76-13.46V0c-4.89.4-7.85,3-7.85,6.91v.76H2117V6.91C2117,3.89,2119.32,1.94,2123.21,1.55ZM2126.16,0V1.55c3.6.36,5.76,2.05,5.76,4.64v.36c0,1.73-1,2.85-4.28,4.72-3.1,1.76-4.07,3.13-4.07,5.76v1.44h1.59V17c0-2.05.86-3.17,3.81-4.83,3.42-1.94,4.68-3.45,4.68-5.61V6.16C2133.65,2.81,2130.66.43,2126.16,0Zm-1.8,24.3a1.28,1.28,0,1,0,0-2.56,1.28,1.28,0,1,0,0,2.56Z"></path> <path class="cls-1" d="M2194.76,23.9V.29H2193V23.9Zm3-12.6v1.59h15.37v11h1.76V.29h-1.76v11Zm31.87-3.78V6c-5.51.5-8.89,3.74-8.89,8.78v.76c0,4.93,3.38,8.17,8.89,8.67V22.61c-4.43-.47-7.17-3.06-7.17-7.13v-.72C2222.42,10.66,2225.09,8,2229.59,7.52ZM2232.54,6V7.56c4.39.47,7.06,3.17,7.06,7.2v.72c0,4-2.7,6.7-7.06,7.13v1.58c5.44-.5,8.78-3.74,8.78-8.67v-.76C2241.32,9.76,2238,6.48,2232.54,6Zm21.82,17.92-8.13-17.64h-1.77v.29l8,17.35Zm16.09,0L2262.5,6.26h-1.69l-5.69,12.1.9,2.09,5.65-12.06,7,15.51Zm.83-5.43.83,2,6.73-13.9V6.26h-1.69Zm19.35-16.92V0c-4.9.4-7.85,3-7.85,6.91v.76h1.66V6.91C2284.44,3.89,2286.74,1.94,2290.63,1.55ZM2293.58,0V1.55c3.6.36,5.76,2.05,5.76,4.64v.36c0,1.73-1,2.85-4.28,4.72C2292,13,2291,14.4,2291,17v1.44h1.58V17c0-2.05.87-3.17,3.82-4.83,3.42-1.94,4.68-3.45,4.68-5.61V6.16C2301.07,2.81,2298.08.43,2293.58,0Zm-1.8,24.3a1.28,1.28,0,1,0,0-2.56,1.28,1.28,0,1,0,0,2.56Z"></path> <path class="cls-1" d="M2720,23.9h1.76V.29H2720ZM2742.28.29h-2.09l-11.88,10.94h-3.6v1.59h3.6l11.74,11.08h2v-.28L2729.9,12,2742.28.58Zm11.27,7.31V6c-4.64.43-7.7,3-7.7,6.44v.29h1.66v-.29C2747.51,9.86,2750,8,2753.55,7.6Zm3-1.62V7.6c4,.36,6.08,2.3,6.08,5.61v7c0,2.34,1.55,3.74,4.18,3.74h1.9V22.39h-1.58c-1.8,0-2.84-.93-2.84-2.55V13.21C2764.25,9,2761.44,6.37,2756.51,6Zm3.24,16.66-.11-1.58a11.21,11.21,0,0,1-6.27,1.73c-4,0-5.94-1.08-5.94-3.21s1.62-3.13,5.22-3.49l7-.72V13.93l-7.31.76c-4.46.47-6.59,2-6.59,4.89,0,3.1,2.63,4.72,7.67,4.72A11.53,11.53,0,0,0,2759.75,22.64Zm12.48,1.26h1.69V6.26h-1.69Zm9.22-8.89,9.82-8.46V6.26h-2l-9.36,8h-3.06V15.8H2780l9.82,8.1h2v-.28Zm21.76-13.46V0c-4.9.4-7.85,3-7.85,6.91v.76H2797V6.91C2797,3.89,2799.32,1.94,2803.21,1.55ZM2806.16,0V1.55c3.6.36,5.76,2.05,5.76,4.64v.36c0,1.73-1,2.85-4.28,4.72-3.1,1.76-4.07,3.13-4.07,5.76v1.44h1.58V17c0-2.05.87-3.17,3.82-4.83,3.42-1.94,4.68-3.45,4.68-5.61V6.16C2813.65,2.81,2810.66.43,2806.16,0Zm-1.8,24.3a1.28,1.28,0,1,0-1.29-1.3A1.26,1.26,0,0,0,2804.36,24.3Z"></path> <path class="cls-1" d="M2874.76,23.9V.29H2873V23.9Zm2.95-12.6v1.59h15.37v11h1.77V.29h-1.77v11Zm31.87-3.78V6c-5.5.5-8.89,3.74-8.89,8.78v.76c0,4.93,3.39,8.17,8.89,8.67V22.61c-4.42-.47-7.16-3.06-7.16-7.13v-.72C2902.42,10.66,2905.08,8,2909.58,7.52Zm3-1.54V7.56c4.39.47,7.05,3.17,7.05,7.2v.72c0,4-2.7,6.7-7.05,7.13v1.58c5.43-.5,8.78-3.74,8.78-8.67v-.76C2921.32,9.76,2918,6.48,2912.54,6Zm21.82,17.92-8.14-17.64h-1.76v.29l8,17.35Zm16.09,0-8-17.64h-1.69l-5.69,12.1.9,2.09,5.66-12.06,7,15.51Zm.83-5.43.83,2,6.73-13.9V6.26h-1.69Zm19.34-16.92V0c-4.89.4-7.84,3-7.84,6.91v.76h1.65V6.91C2964.43,3.89,2966.74,1.94,2970.62,1.55Zm3-1.55V1.55c3.6.36,5.76,2.05,5.76,4.64v.36c0,1.73-1,2.85-4.29,4.72C2972,13,2971,14.4,2971,17v1.44h1.59V17c0-2.05.86-3.17,3.81-4.83,3.42-1.94,4.68-3.45,4.68-5.61V6.16C2981.06,2.81,2978.08.43,2973.58,0Zm-1.8,24.3a1.28,1.28,0,1,0,0-2.56,1.28,1.28,0,1,0,0,2.56Z"></path> <path class="cls-1" d="M3400,23.9h1.76V.29H3400ZM3422.28.29h-2.09l-11.88,10.94h-3.6v1.59h3.6l11.74,11.08h2v-.28L3409.9,12,3422.28.58Zm11.27,7.31V6c-4.64.43-7.7,3-7.7,6.44v.29h1.66v-.29C3427.51,9.86,3430,8,3433.55,7.6Zm3-1.62V7.6c4,.36,6.08,2.3,6.08,5.61v7c0,2.34,1.55,3.74,4.18,3.74h1.9V22.39h-1.58c-1.8,0-2.84-.93-2.84-2.55V13.21C3444.25,9,3441.44,6.37,3436.51,6Zm3.24,16.66-.11-1.58a11.21,11.21,0,0,1-6.27,1.73c-4,0-5.94-1.08-5.94-3.21s1.62-3.13,5.22-3.49l7-.72V13.93l-7.31.76c-4.46.47-6.59,2-6.59,4.89,0,3.1,2.63,4.72,7.67,4.72A11.53,11.53,0,0,0,3439.75,22.64Zm12.48,1.26h1.69V6.26h-1.69Zm9.22-8.89,9.82-8.46V6.26h-2l-9.36,8h-3.06V15.8H3460l9.82,8.1h2v-.28Zm21.76-13.46V0c-4.9.4-7.85,3-7.85,6.91v.76H3477V6.91C3477,3.89,3479.32,1.94,3483.21,1.55ZM3486.16,0V1.55c3.6.36,5.76,2.05,5.76,4.64v.36c0,1.73-1,2.85-4.28,4.72-3.1,1.76-4.07,3.13-4.07,5.76v1.44h1.58V17c0-2.05.87-3.17,3.82-4.83,3.42-1.94,4.68-3.45,4.68-5.61V6.16C3493.65,2.81,3490.66.43,3486.16,0Zm-1.8,24.3a1.28,1.28,0,1,0-1.29-1.3A1.26,1.26,0,0,0,3484.36,24.3Z"></path> <path class="cls-1" d="M3554.76,23.9V.29H3553V23.9Zm2.95-12.6v1.59h15.37v11h1.77V.29h-1.77v11Zm31.87-3.78V6c-5.5.5-8.89,3.74-8.89,8.78v.76c0,4.93,3.39,8.17,8.89,8.67V22.61c-4.42-.47-7.16-3.06-7.16-7.13v-.72C3582.42,10.66,3585.08,8,3589.58,7.52Zm3-1.54V7.56c4.39.47,7.05,3.17,7.05,7.2v.72c0,4-2.7,6.7-7.05,7.13v1.58c5.43-.5,8.78-3.74,8.78-8.67v-.76C3601.32,9.76,3598,6.48,3592.54,6Zm21.82,17.92-8.14-17.64h-1.76v.29l8,17.35Zm16.09,0-8-17.64h-1.69l-5.69,12.1.9,2.09,5.66-12.06,7,15.51Zm.83-5.43.83,2,6.73-13.9V6.26h-1.69Zm19.34-16.92V0c-4.89.4-7.84,3-7.84,6.91v.76h1.65V6.91C3644.43,3.89,3646.74,1.94,3650.62,1.55Zm3-1.55V1.55c3.6.36,5.76,2.05,5.76,4.64v.36c0,1.73-1,2.85-4.29,4.72C3652,13,3651,14.4,3651,17v1.44h1.59V17c0-2.05.86-3.17,3.81-4.83,3.42-1.94,4.68-3.45,4.68-5.61V6.16C3661.06,2.81,3658.08.43,3653.58,0Zm-1.8,24.3a1.28,1.28,0,1,0,0-2.56,1.28,1.28,0,1,0,0,2.56Z"></path> </g> </g> </svg> 