<?xml version="1.0" encoding="UTF-8"?>
<svg xmlns="http://www.w3.org/2000/svg" viewBox="0 0 4096.74 62.41"> <defs> <style>.cls-1{fill:#e0eaf2;}</style> </defs> <g id="Слой_2" data-name="Слой 2"> <g id="Слой_1-2" data-name="Слой 1"> <path class="cls-1" d="M282.08,20.16V13.75c-11.66.94-18.72,7.63-18.72,18V33c0,10.22,7.06,16.92,18.72,17.85V44.42c-7.2-.79-11.59-4.89-11.59-11.52v-1C270.48,25.13,274.73,21,282.08,20.16Z"/> <polygon class="cls-1" points="214.41 50.11 221.32 50.07 221.32 14.47 214.41 14.47 214.41 50.11"/> <polygon class="cls-1" points="313.65 26.28 313.65 26.28 313.65 26.24 313.65 26.28"/> <polygon class="cls-1" points="246.95 29.16 226.5 29.12 226.5 35.24 246.95 35.24 246.95 50.11 253.86 50.11 253.86 14.47 246.95 14.47 246.95 29.16"/> <path class="cls-1" d="M313.65,26.28V27c0,7,5,11.09,13.75,11.38L313.87,49.25v.86h8.92l14.69-11.73h5V32.47H328.77c-5.26,0-8-1.87-8-5.47v-.72c0-3.82,2.66-5.76,8-5.76h13.75v-6H328.27C319.08,14.47,313.65,18.86,313.65,26.28Z"/> <path class="cls-1" d="M287.33,13.75v6.37c7.2.79,11.45,5.11,11.45,11.74v1c0,6.56-4.32,10.73-11.45,11.52v6.41C298.92,50,305.9,43.27,305.9,33V31.75C305.9,21.38,298.92,14.62,287.33,13.75Z"/> <polygon class="cls-1" points="287.33 13.75 287.33 13.75 287.33 13.71 287.33 13.75"/> <path class="cls-1" d="M569.57,32.34l-11.83,6.38H571l4.46-2.44c11.88-6.56,15.27-10.73,15.27-18.15V17c0-8.71-6.63-14.11-18.15-14.83v6.7c7.13.57,11,3.52,11,8.49v.79C583.57,23.15,582,25.71,569.57,32.34Z"/> <path class="cls-1" d="M556.28,18c0-5.4,3.8-8.57,11.11-9.14V2.16c-11.81.65-18.31,6.19-18.31,15.77v1.51h7.2Z"/> <path class="cls-1" d="M405.87.86V0h-7.42V.65c0,1.15-.79,1.73-2.59,1.87L389.38,3V9.36l8.21-.65C403.21,8.28,405.87,5.71,405.87.86Z"/> <path class="cls-1" d="M682.72,32.34l-11.78,6.32h13.25l4.47-2.44c11.88-6.56,15.26-10.73,15.26-18.15V17c0-8.71-6.63-14.11-18.14-14.83v6.7c7.12.57,10.94,3.52,10.94,8.49v.79C696.72,23.15,695.14,25.71,682.72,32.34Z"/> <path class="cls-1" d="M669.43,18c0-5.4,3.82-8.57,11.16-9.14V2.16c-11.81.65-18.36,6.19-18.36,15.77v1.51h7.2Z"/> <path class="cls-1" d="M602.41,22.68v7.7c0,11.45,8.53,19.52,21.67,20.45V44.14c-9.14-.8-14.54-5.76-14.54-13.68V22.61c0-7.92,5.4-13,14.54-13.75V2.16C611,3.1,602.41,11.16,602.41,22.68Z"/> <path class="cls-1" d="M629.27,2.16v6.7c9,.79,14.47,6,14.47,13.75v7.85c0,7.92-5.44,13-14.51,13.68h0v6.69c13-.93,21.6-8.85,21.6-20.45v-7.7C650.87,11.16,642.23,3.1,629.27,2.16Z"/> <rect class="cls-1" x="548.6" y="43.72" width="43.84" height="6.41"/> <polygon class="cls-1" points="500.99 50 507.9 50 507.9 14.47 500.99 14.53 500.99 50"/> <rect class="cls-1" x="661.8" y="43.66" width="43.85" height="6.41"/> <polygon class="cls-1" points="347.71 50 354.62 50 354.62 14.47 347.71 14.43 347.71 50"/> <path class="cls-1" d="M715.57,22.68v7.7c0,11.45,8.57,19.52,21.68,20.45V44.14c-9.15-.8-14.55-5.76-14.55-13.68V22.61c0-7.92,5.4-13,14.55-13.75V2.16C724.14,3.1,715.57,11.16,715.57,22.68Z"/> <path class="cls-1" d="M742.43,2.12v6.7c9,.79,14.47,6,14.47,13.75v7.85c0,8-5.4,13-14.47,13.72v6.65c13-.93,21.6-8.85,21.6-20.45v-7.7C764,11.12,755.39,3.06,742.43,2.12Z"/> <rect class="cls-1" x="417.54" y="14.47" width="6.91" height="47.94"/> <path class="cls-1" d="M438.78,13.61a19.23,19.23,0,0,0-9.14,2.16V22.1a15.7,15.7,0,0,1,8.21-2.16c8.78,0,14.18,4.4,14.18,11.74v1.15c0,7.35-5.4,11.81-14.18,11.81a15.62,15.62,0,0,1-8.21-2.23v6.47A19.25,19.25,0,0,0,438.78,51c12.1,0,20.38-7.13,20.38-18.15V31.68C459.16,20.68,450.88,13.61,438.78,13.61Z"/> <path class="cls-1" d="M388.35,16.2a21,21,0,0,0-10.92,2.74v6.18a16.26,16.26,0,0,1,9.36-2.6c8.78,0,14.11,4,14.11,10.52v1.51c0,5.61-4.32,9.36-11.52,10v6.33c11.31-.88,18.7-7.1,18.7-16.32V32.83C408.08,22.75,400.3,16.2,388.35,16.2Z"/> <path class="cls-1" d="M372.2,31.5V22.18c0-7.13,3.65-11.09,12-12.24V3.46c-12.75,1.65-18.94,8.64-18.94,21.38v4.9c0,12.67,6.7,20.16,18.94,21.09V44.5C376.28,43.7,372.2,39.31,372.2,31.5Z"/> <path class="cls-1" d="M466.93,26.28V27c0,7,5,11.09,13.75,11.38L467.15,49.25v.86h8.93l14.68-11.73h5V32.47H482.08c-5.25,0-8-1.87-8-5.47v-.72c0-3.82,2.66-5.76,8-5.76h13.75v-6H481.55C472.33,14.47,466.93,18.86,466.93,26.28Z"/> <path class="cls-1" d="M178.7,24.71c-3.72-2.27-7.89-2.87-12.12-3.26l-1.47-.18,10.1-6.71h-11q-4.49,3-8.94,6.12a2,2,0,0,0-.72,1.43c-.1,1.36,0,2.74-.05,4.1,0,.89.29,1.14,1.15,1.14,3.18,0,6.35,0,9.52.09a18.78,18.78,0,0,1,8.93,2.12,5.48,5.48,0,0,1,3,4c.52,3.85-.47,6.35-4.08,8.07a20.47,20.47,0,0,1-8.7,1.76V50c2.29-.29,4.6-.49,6.87-.9a18.23,18.23,0,0,0,8.88-4c3.59-3.09,4.43-7.21,4.07-11.69A10.68,10.68,0,0,0,178.7,24.71Z"/> <path class="cls-1" d="M22.88,3c-1.8,0-3.6,0-5.4,0a1.08,1.08,0,0,0-.78.7A4.65,4.65,0,0,1,13,8a22.11,22.11,0,0,1-4.48.77c-2.5.13-5,0-7.52.09-.34,0-1,.36-1,.58C0,11.36,0,13.3,0,15.24c3.56,0,7,.17,10.42-.06a42.16,42.16,0,0,0,6.34-1.38V49.13H23.7V4.56c0-.23,0-.47,0-.7C23.73,3.28,23.51,3,22.88,3Z"/> <path class="cls-1" d="M123.77,3q-2.64,0-5.28,0c-.66,0-.9.24-.95.88a4.3,4.3,0,0,1-3.29,4,22.46,22.46,0,0,1-4.94.88c-2.45.15-4.93,0-7.39.09-.35,0-1,.37-1,.59-.07,1.94,0,3.88,0,5.92h8.46a19.27,19.27,0,0,0,8.32-1.88V49.16h6.92V4.55c0-.23,0-.47,0-.7C124.64,3.26,124.39,3,123.77,3Z"/> <path class="cls-1" d="M59.08,3c-1.6.08-3.21.05-4.81,0-.7,0-1,.21-1,.91a4.38,4.38,0,0,1-3.45,4,32.52,32.52,0,0,1-5.65.85c-2.18.15-4.38,0-6.57.07-.33,0-.91.33-.92.53-.07,2,0,3.94,0,6,5.69-.27,11.3.76,16.74-1.94V49.15h6.93V12.4c0-2.74,0-5.47,0-8.21C60.31,3.27,60,3,59.08,3Z"/> <path class="cls-1" d="M142,9.38q19.85-.06,39.68,0a4.21,4.21,0,0,0,.94,0c.18-.05.46-.26.46-.4,0-1.93,0-3.87,0-5.81H140.47c0,1.69.09,3.25,0,4.8C140.34,9.16,140.82,9.38,142,9.38Z"/> <path class="cls-1" d="M148.86,40.49a5.39,5.39,0,0,1-2.28-4.89h-6.86a11.15,11.15,0,0,0,5.9,10.95c4.2,2.43,8.82,3.15,13.53,3.42V43.39a23.15,23.15,0,0,1-3.34-.28A16.1,16.1,0,0,1,148.86,40.49Z"/> <path class="cls-1" d="M73.71,32.73h24V26.78h-24Z"/> <path class="cls-1" d="M1115.26,20.16V13.75c-11.66.94-18.72,7.63-18.72,18V33c0,10.22,7.06,16.92,18.72,17.85V44.42c-7.2-.79-11.59-4.89-11.59-11.52v-1C1103.66,25.13,1107.91,21,1115.26,20.16Z"/> <polygon class="cls-1" points="1047.59 50.11 1054.5 50.07 1054.5 14.47 1047.59 14.47 1047.59 50.11"/> <polygon class="cls-1" points="1146.83 26.28 1146.83 26.28 1146.83 26.24 1146.83 26.28"/> <polygon class="cls-1" points="1080.13 29.16 1059.68 29.12 1059.68 35.24 1080.13 35.24 1080.13 50.11 1087.04 50.11 1087.04 14.47 1080.13 14.47 1080.13 29.16"/> <path class="cls-1" d="M1146.83,26.28V27c0,7,5,11.09,13.75,11.38l-13.53,10.87v.86H1156l14.69-11.73h5V32.47H1162c-5.26,0-8-1.87-8-5.47v-.72c0-3.82,2.66-5.76,8-5.76h13.75v-6h-14.25C1152.26,14.47,1146.83,18.86,1146.83,26.28Z"/> <path class="cls-1" d="M1120.51,13.75v6.37c7.2.79,11.45,5.11,11.45,11.74v1c0,6.56-4.32,10.73-11.45,11.52v6.41c11.59-.79,18.57-7.52,18.57-17.79V31.75C1139.08,21.38,1132.1,14.62,1120.51,13.75Z"/> <polygon class="cls-1" points="1120.51 13.75 1120.51 13.75 1120.51 13.71 1120.51 13.75"/> <path class="cls-1" d="M1402.75,32.34l-11.83,6.38h13.25l4.46-2.44c11.88-6.56,15.27-10.73,15.27-18.15V17c0-8.71-6.63-14.11-18.15-14.83v6.7c7.13.57,11,3.52,11,8.49v.79C1416.75,23.15,1415.16,25.71,1402.75,32.34Z"/> <path class="cls-1" d="M1389.46,18c0-5.4,3.8-8.57,11.11-9.14V2.16c-11.81.65-18.31,6.19-18.31,15.77v1.51h7.2Z"/> <path class="cls-1" d="M1239.05.86V0h-7.42V.65c0,1.15-.79,1.73-2.59,1.87l-6.48.48V9.36l8.21-.65C1236.39,8.28,1239.05,5.71,1239.05.86Z"/> <path class="cls-1" d="M1515.9,32.34l-11.78,6.32h13.25l4.47-2.44c11.88-6.56,15.26-10.73,15.26-18.15V17c0-8.71-6.63-14.11-18.14-14.83v6.7c7.12.57,10.94,3.52,10.94,8.49v.79C1529.9,23.15,1528.32,25.71,1515.9,32.34Z"/> <path class="cls-1" d="M1502.61,18c0-5.4,3.82-8.57,11.16-9.14V2.16c-11.81.65-18.36,6.19-18.36,15.77v1.51h7.2Z"/> <path class="cls-1" d="M1435.59,22.68v7.7c0,11.45,8.53,19.52,21.67,20.45V44.14c-9.14-.8-14.54-5.76-14.54-13.68V22.61c0-7.92,5.4-13,14.54-13.75V2.16C1444.16,3.1,1435.59,11.16,1435.59,22.68Z"/> <path class="cls-1" d="M1462.45,2.16v6.7c9,.79,14.47,6,14.47,13.75v7.85c0,7.92-5.44,13-14.51,13.68h0v6.69c13-.93,21.6-8.85,21.6-20.45v-7.7C1484.05,11.16,1475.41,3.1,1462.45,2.16Z"/> <rect class="cls-1" x="1381.78" y="43.72" width="43.84" height="6.41"/> <polygon class="cls-1" points="1334.17 50 1341.08 50 1341.08 14.47 1334.17 14.53 1334.17 50"/> <rect class="cls-1" x="1494.98" y="43.66" width="43.85" height="6.41"/> <polygon class="cls-1" points="1180.89 50 1187.8 50 1187.8 14.47 1180.89 14.43 1180.89 50"/> <path class="cls-1" d="M1548.75,22.68v7.7c0,11.45,8.57,19.52,21.68,20.45V44.14c-9.15-.8-14.55-5.76-14.55-13.68V22.61c0-7.92,5.4-13,14.55-13.75V2.16C1557.32,3.1,1548.75,11.16,1548.75,22.68Z"/> <path class="cls-1" d="M1575.61,2.12v6.7c9,.79,14.47,6,14.47,13.75v7.85c0,8-5.4,13-14.47,13.72v6.65c13-.93,21.6-8.85,21.6-20.45v-7.7C1597.21,11.12,1588.57,3.06,1575.61,2.12Z"/> <rect class="cls-1" x="1250.72" y="14.47" width="6.91" height="47.94"/> <path class="cls-1" d="M1272,13.61a19.23,19.23,0,0,0-9.14,2.16V22.1a15.7,15.7,0,0,1,8.21-2.16c8.78,0,14.18,4.4,14.18,11.74v1.15c0,7.35-5.4,11.81-14.18,11.81a15.62,15.62,0,0,1-8.21-2.23v6.47A19.2,19.2,0,0,0,1272,51c12.1,0,20.38-7.13,20.38-18.15V31.68C1292.34,20.68,1284.06,13.61,1272,13.61Z"/> <path class="cls-1" d="M1221.53,16.2a21,21,0,0,0-10.92,2.74v6.18a16.24,16.24,0,0,1,9.36-2.6c8.78,0,14.11,4,14.11,10.52v1.51c0,5.61-4.32,9.36-11.52,10v6.33c11.31-.88,18.7-7.1,18.7-16.32V32.83C1241.26,22.75,1233.48,16.2,1221.53,16.2Z"/> <path class="cls-1" d="M1205.38,31.5V22.18c0-7.13,3.65-11.09,12-12.24V3.46c-12.75,1.65-18.94,8.64-18.94,21.38v4.9c0,12.67,6.7,20.16,18.94,21.09V44.5C1209.46,43.7,1205.38,39.31,1205.38,31.5Z"/> <path class="cls-1" d="M1300.11,26.28V27c0,7,5,11.09,13.75,11.38l-13.53,10.87v.86h8.93l14.68-11.73h5V32.47h-13.68c-5.25,0-8-1.87-8-5.47v-.72c0-3.82,2.66-5.76,8-5.76H1329v-6h-14.28C1305.51,14.47,1300.11,18.86,1300.11,26.28Z"/> <path class="cls-1" d="M1011.88,24.71c-3.72-2.27-7.89-2.87-12.12-3.26l-1.47-.18,10.1-6.71h-11q-4.49,3-8.94,6.12a2,2,0,0,0-.72,1.43c-.1,1.36,0,2.74-.05,4.1,0,.89.29,1.14,1.15,1.14,3.18,0,6.35,0,9.52.09a18.78,18.78,0,0,1,8.93,2.12,5.48,5.48,0,0,1,3,4c.52,3.85-.47,6.35-4.08,8.07a20.47,20.47,0,0,1-8.7,1.76V50c2.29-.29,4.6-.49,6.87-.9a18.23,18.23,0,0,0,8.88-4c3.59-3.09,4.43-7.21,4.07-11.69A10.68,10.68,0,0,0,1011.88,24.71Z"/> <path class="cls-1" d="M856.05,3c-1.8,0-3.6,0-5.4,0a1.07,1.07,0,0,0-.77.7A4.66,4.66,0,0,1,846.21,8a22.21,22.21,0,0,1-4.49.77c-2.5.13-5,0-7.51.09-.35,0-1,.36-1,.58-.08,1.94-.05,3.88-.05,5.82,3.57,0,7,.17,10.43-.06A42.43,42.43,0,0,0,850,13.8V49.13h6.92V4.56c0-.23,0-.47,0-.7C856.9,3.28,856.68,3,856.05,3Z"/> <path class="cls-1" d="M957,3c-1.76,0-3.52,0-5.29,0-.65,0-.89.24-.95.88a4.29,4.29,0,0,1-3.28,4,22.46,22.46,0,0,1-4.94.88c-2.46.15-4.93,0-7.4.09-.34,0-1,.37-1,.59-.08,1.94,0,3.88,0,5.92h8.46a19.3,19.3,0,0,0,8.32-1.88V49.16h6.92V4.55c0-.23,0-.47,0-.7C957.81,3.26,957.57,3,957,3Z"/> <path class="cls-1" d="M892.26,3c-1.6.08-3.21.05-4.82,0-.69,0-.94.21-1,.91a4.38,4.38,0,0,1-3.45,4,32.81,32.81,0,0,1-5.65.85c-2.19.15-4.39,0-6.58.07-.32,0-.91.33-.91.53-.07,2,0,3.94,0,6,5.69-.27,11.3.76,16.74-1.94V49.15h6.92V12.4c0-2.74,0-5.47,0-8.21C893.49,3.27,893.19,3,892.26,3Z"/> <path class="cls-1" d="M975.14,9.38q19.83-.06,39.68,0a4.12,4.12,0,0,0,.93,0c.19-.05.47-.26.47-.4,0-1.93,0-3.87,0-5.81H973.65c0,1.69.09,3.25,0,4.8C973.52,9.16,974,9.38,975.14,9.38Z"/> <path class="cls-1" d="M982,40.49a5.39,5.39,0,0,1-2.28-4.89H972.9a11.15,11.15,0,0,0,5.9,10.95C983,49,987.62,49.7,992.33,50V43.39a23.15,23.15,0,0,1-3.34-.28A16.1,16.1,0,0,1,982,40.49Z"/> <path class="cls-1" d="M906.89,32.73h24V26.78h-24Z"/> <path class="cls-1" d="M1948.44,20.16V13.75c-11.66.94-18.72,7.63-18.72,18V33c0,10.22,7.06,16.92,18.72,17.85V44.42c-7.2-.79-11.59-4.89-11.59-11.52v-1C1936.84,25.13,1941.09,21,1948.44,20.16Z"/> <polygon class="cls-1" points="1880.77 50.11 1887.68 50.07 1887.68 14.47 1880.77 14.47 1880.77 50.11"/> <polygon class="cls-1" points="1980.01 26.28 1980.01 26.28 1980.01 26.24 1980.01 26.28"/> <polygon class="cls-1" points="1913.31 29.16 1892.86 29.12 1892.86 35.24 1913.31 35.24 1913.31 50.11 1920.22 50.11 1920.22 14.47 1913.31 14.47 1913.31 29.16"/> <path class="cls-1" d="M1980,26.28V27c0,7,5,11.09,13.75,11.38l-13.53,10.87v.86h8.92l14.69-11.73h5V32.47h-13.71c-5.26,0-8-1.87-8-5.47v-.72c0-3.82,2.66-5.76,8-5.76h13.75v-6h-14.25C1985.44,14.47,1980,18.86,1980,26.28Z"/> <path class="cls-1" d="M1953.69,13.75v6.37c7.2.79,11.45,5.11,11.45,11.74v1c0,6.56-4.32,10.73-11.45,11.52v6.41c11.59-.79,18.57-7.52,18.57-17.79V31.75C1972.26,21.38,1965.28,14.62,1953.69,13.75Z"/> <polygon class="cls-1" points="1953.69 13.75 1953.69 13.75 1953.69 13.71 1953.69 13.75"/> <path class="cls-1" d="M2235.93,32.34l-11.83,6.38h13.25l4.46-2.44c11.88-6.56,15.27-10.73,15.27-18.15V17c0-8.71-6.63-14.11-18.15-14.83v6.7c7.13.57,11,3.52,11,8.49v.79C2249.93,23.15,2248.34,25.71,2235.93,32.34Z"/> <path class="cls-1" d="M2222.64,18c0-5.4,3.8-8.57,11.11-9.14V2.16c-11.81.65-18.31,6.19-18.31,15.77v1.51h7.2Z"/> <path class="cls-1" d="M2072.23.86V0h-7.42V.65c0,1.15-.79,1.73-2.59,1.87l-6.48.48V9.36l8.21-.65C2069.57,8.28,2072.23,5.71,2072.23.86Z"/> <path class="cls-1" d="M2349.08,32.34l-11.78,6.32h13.25l4.47-2.44c11.88-6.56,15.26-10.73,15.26-18.15V17c0-8.71-6.63-14.11-18.14-14.83v6.7c7.12.57,10.94,3.52,10.94,8.49v.79C2363.08,23.15,2361.5,25.71,2349.08,32.34Z"/> <path class="cls-1" d="M2335.79,18c0-5.4,3.82-8.57,11.16-9.14V2.16c-11.81.65-18.36,6.19-18.36,15.77v1.51h7.2Z"/> <path class="cls-1" d="M2268.77,22.68v7.7c0,11.45,8.53,19.52,21.67,20.45V44.14c-9.14-.8-14.54-5.76-14.54-13.68V22.61c0-7.92,5.4-13,14.54-13.75V2.16C2277.34,3.1,2268.77,11.16,2268.77,22.68Z"/> <path class="cls-1" d="M2295.63,2.16v6.7c9,.79,14.47,6,14.47,13.75v7.85c0,7.92-5.44,13-14.51,13.68h0v6.69c13-.93,21.6-8.85,21.6-20.45v-7.7C2317.23,11.16,2308.59,3.1,2295.63,2.16Z"/> <rect class="cls-1" x="2214.96" y="43.72" width="43.84" height="6.41"/> <polygon class="cls-1" points="2167.35 50 2174.26 50 2174.26 14.47 2167.35 14.53 2167.35 50"/> <rect class="cls-1" x="2328.16" y="43.66" width="43.85" height="6.41"/> <polygon class="cls-1" points="2014.07 50 2020.98 50 2020.98 14.47 2014.07 14.43 2014.07 50"/> <path class="cls-1" d="M2381.93,22.68v7.7c0,11.45,8.57,19.52,21.68,20.45V44.14c-9.15-.8-14.55-5.76-14.55-13.68V22.61c0-7.92,5.4-13,14.55-13.75V2.16C2390.5,3.1,2381.93,11.16,2381.93,22.68Z"/> <path class="cls-1" d="M2408.79,2.12v6.7c9,.79,14.47,6,14.47,13.75v7.85c0,8-5.4,13-14.47,13.72v6.65c13-.93,21.6-8.85,21.6-20.45v-7.7C2430.39,11.12,2421.75,3.06,2408.79,2.12Z"/> <rect class="cls-1" x="2083.9" y="14.47" width="6.91" height="47.94"/> <path class="cls-1" d="M2105.14,13.61a19.23,19.23,0,0,0-9.14,2.16V22.1a15.65,15.65,0,0,1,8.21-2.16c8.78,0,14.18,4.4,14.18,11.74v1.15c0,7.35-5.4,11.81-14.18,11.81a15.59,15.59,0,0,1-8.21-2.23v6.47a19.2,19.2,0,0,0,9.14,2.12c12.1,0,20.38-7.13,20.38-18.15V31.68C2125.52,20.68,2117.24,13.61,2105.14,13.61Z"/> <path class="cls-1" d="M2054.71,16.2a21,21,0,0,0-10.92,2.74v6.18a16.22,16.22,0,0,1,9.36-2.6c8.78,0,14.11,4,14.11,10.52v1.51c0,5.61-4.32,9.36-11.52,10v6.33c11.31-.88,18.7-7.1,18.7-16.32V32.83C2074.44,22.75,2066.66,16.2,2054.71,16.2Z"/> <path class="cls-1" d="M2038.56,31.5V22.18c0-7.13,3.65-11.09,12-12.24V3.46c-12.75,1.65-18.94,8.64-18.94,21.38v4.9c0,12.67,6.7,20.16,18.94,21.09V44.5C2042.64,43.7,2038.56,39.31,2038.56,31.5Z"/> <path class="cls-1" d="M2133.29,26.28V27c0,7,5,11.09,13.75,11.38l-13.53,10.87v.86h8.93l14.68-11.73h5V32.47h-13.68c-5.25,0-8-1.87-8-5.47v-.72c0-3.82,2.66-5.76,8-5.76h13.75v-6h-14.28C2138.69,14.47,2133.29,18.86,2133.29,26.28Z"/> <path class="cls-1" d="M1845.06,24.71c-3.72-2.27-7.89-2.87-12.12-3.26l-1.47-.18,10.1-6.71h-11q-4.48,3-8.94,6.12a2,2,0,0,0-.72,1.43c-.1,1.36,0,2.74-.05,4.1,0,.89.29,1.14,1.15,1.14,3.18,0,6.35,0,9.52.09a18.78,18.78,0,0,1,8.93,2.12,5.48,5.48,0,0,1,3,4c.52,3.85-.47,6.35-4.08,8.07a20.47,20.47,0,0,1-8.7,1.76V50c2.29-.29,4.6-.49,6.87-.9a18.23,18.23,0,0,0,8.88-4c3.59-3.09,4.43-7.21,4.07-11.69A10.68,10.68,0,0,0,1845.06,24.71Z"/> <path class="cls-1" d="M1689.23,3c-1.8,0-3.6,0-5.4,0a1.05,1.05,0,0,0-.77.7A4.67,4.67,0,0,1,1679.38,8a22.11,22.11,0,0,1-4.48.77c-2.5.13-5,0-7.51.09-.35,0-1,.36-1,.58-.08,1.94-.05,3.88-.05,5.82,3.57,0,7,.17,10.43-.06a42.7,42.7,0,0,0,6.34-1.38V49.13h6.92V4.56c0-.23,0-.47,0-.7C1690.08,3.28,1689.86,3,1689.23,3Z"/> <path class="cls-1" d="M1790.13,3c-1.76,0-3.53,0-5.29,0-.65,0-.9.24-.95.88a4.3,4.3,0,0,1-3.29,4,22.27,22.27,0,0,1-4.93.88c-2.46.15-4.93,0-7.4.09-.34,0-1,.37-1,.59-.08,1.94,0,3.88,0,5.92h8.46a19.24,19.24,0,0,0,8.32-1.88V49.16H1791V4.55c0-.23,0-.47,0-.7C1791,3.26,1790.74,3,1790.13,3Z"/> <path class="cls-1" d="M1725.44,3c-1.61.08-3.21.05-4.82,0-.69,0-.94.21-1,.91a4.38,4.38,0,0,1-3.45,4,32.52,32.52,0,0,1-5.65.85c-2.18.15-4.38,0-6.57.07-.32,0-.91.33-.92.53-.06,2,0,3.94,0,6,5.69-.27,11.31.76,16.74-1.94V49.15h6.93V12.4c0-2.74,0-5.47,0-8.21C1726.66,3.27,1726.37,3,1725.44,3Z"/> <path class="cls-1" d="M1808.31,9.38q19.85-.06,39.68,0a4.19,4.19,0,0,0,.94,0c.18-.05.46-.26.47-.4,0-1.93,0-3.87,0-5.81h-42.6c0,1.69.1,3.25,0,4.8C1806.7,9.16,1807.17,9.38,1808.31,9.38Z"/> <path class="cls-1" d="M1815.22,40.49a5.39,5.39,0,0,1-2.28-4.89h-6.86a11.15,11.15,0,0,0,5.9,10.95c4.2,2.43,8.82,3.15,13.53,3.42V43.39a23.15,23.15,0,0,1-3.34-.28A16.1,16.1,0,0,1,1815.22,40.49Z"/> <path class="cls-1" d="M1740.07,32.73h24V26.78h-24Z"/> <path class="cls-1" d="M2781.61,20.16V13.75c-11.66.94-18.72,7.63-18.72,18V33c0,10.22,7.06,16.92,18.72,17.85V44.42c-7.2-.79-11.59-4.89-11.59-11.52v-1C2770,25.13,2774.26,21,2781.61,20.16Z"/> <polygon class="cls-1" points="2713.94 50.11 2720.85 50.07 2720.85 14.47 2713.94 14.47 2713.94 50.11"/> <polygon class="cls-1" points="2813.18 26.28 2813.18 26.28 2813.18 26.24 2813.18 26.28"/> <polygon class="cls-1" points="2746.48 29.16 2726.03 29.12 2726.03 35.24 2746.48 35.24 2746.48 50.11 2753.39 50.11 2753.39 14.47 2746.48 14.47 2746.48 29.16"/> <path class="cls-1" d="M2813.18,26.28V27c0,7,5,11.09,13.75,11.38L2813.4,49.25v.86h8.92L2837,38.38h5V32.47H2828.3c-5.26,0-8-1.87-8-5.47v-.72c0-3.82,2.66-5.76,8-5.76h13.75v-6H2827.8C2818.61,14.47,2813.18,18.86,2813.18,26.28Z"/> <path class="cls-1" d="M2786.86,13.75v6.37c7.2.79,11.45,5.11,11.45,11.74v1c0,6.56-4.32,10.73-11.45,11.52v6.41c11.59-.79,18.57-7.52,18.57-17.79V31.75C2805.43,21.38,2798.45,14.62,2786.86,13.75Z"/> <polygon class="cls-1" points="2786.86 13.75 2786.86 13.75 2786.86 13.71 2786.86 13.75"/> <path class="cls-1" d="M3069.1,32.34l-11.83,6.38h13.25l4.46-2.44c11.88-6.56,15.27-10.73,15.27-18.15V17c0-8.71-6.63-14.11-18.15-14.83v6.7c7.13.57,11,3.52,11,8.49v.79C3083.1,23.15,3081.51,25.71,3069.1,32.34Z"/> <path class="cls-1" d="M3055.81,18c0-5.4,3.8-8.57,11.11-9.14V2.16c-11.81.65-18.31,6.19-18.31,15.77v1.51h7.2Z"/> <path class="cls-1" d="M2905.4.86V0H2898V.65c0,1.15-.79,1.73-2.59,1.87l-6.48.48V9.36l8.21-.65C2902.74,8.28,2905.4,5.71,2905.4.86Z"/> <path class="cls-1" d="M3182.25,32.34l-11.78,6.32h13.25l4.47-2.44c11.88-6.56,15.26-10.73,15.26-18.15V17c0-8.71-6.63-14.11-18.14-14.83v6.7c7.12.57,10.94,3.52,10.94,8.49v.79C3196.25,23.15,3194.67,25.71,3182.25,32.34Z"/> <path class="cls-1" d="M3169,18c0-5.4,3.82-8.57,11.16-9.14V2.16c-11.81.65-18.36,6.19-18.36,15.77v1.51h7.2Z"/> <path class="cls-1" d="M3101.94,22.68v7.7c0,11.45,8.53,19.52,21.67,20.45V44.14c-9.14-.8-14.54-5.76-14.54-13.68V22.61c0-7.92,5.4-13,14.54-13.75V2.16C3110.51,3.1,3101.94,11.16,3101.94,22.68Z"/> <path class="cls-1" d="M3128.8,2.16v6.7c9,.79,14.47,6,14.47,13.75v7.85c0,7.92-5.44,13-14.51,13.68h0v6.69c13-.93,21.6-8.85,21.6-20.45v-7.7C3150.4,11.16,3141.76,3.1,3128.8,2.16Z"/> <rect class="cls-1" x="3048.13" y="43.72" width="43.84" height="6.41"/> <polygon class="cls-1" points="3000.52 50 3007.43 50 3007.43 14.47 3000.52 14.53 3000.52 50"/> <rect class="cls-1" x="3161.33" y="43.66" width="43.85" height="6.41"/> <polygon class="cls-1" points="2847.24 50 2854.15 50 2854.15 14.47 2847.24 14.43 2847.24 50"/> <path class="cls-1" d="M3215.1,22.68v7.7c0,11.45,8.57,19.52,21.68,20.45V44.14c-9.15-.8-14.55-5.76-14.55-13.68V22.61c0-7.92,5.4-13,14.55-13.75V2.16C3223.67,3.1,3215.1,11.16,3215.1,22.68Z"/> <path class="cls-1" d="M3242,2.12v6.7c9,.79,14.47,6,14.47,13.75v7.85c0,8-5.4,13-14.47,13.72v6.65c13-.93,21.6-8.85,21.6-20.45v-7.7C3263.56,11.12,3254.92,3.06,3242,2.12Z"/> <rect class="cls-1" x="2917.07" y="14.47" width="6.91" height="47.94"/> <path class="cls-1" d="M2938.31,13.61a19.29,19.29,0,0,0-9.14,2.16V22.1a15.7,15.7,0,0,1,8.21-2.16c8.78,0,14.18,4.4,14.18,11.74v1.15c0,7.35-5.4,11.81-14.18,11.81a15.62,15.62,0,0,1-8.21-2.23v6.47a19.25,19.25,0,0,0,9.14,2.12c12.1,0,20.38-7.13,20.38-18.15V31.68C2958.69,20.68,2950.41,13.61,2938.31,13.61Z"/> <path class="cls-1" d="M2887.88,16.2A21,21,0,0,0,2877,18.94v6.18a16.26,16.26,0,0,1,9.36-2.6c8.78,0,14.11,4,14.11,10.52v1.51c0,5.61-4.32,9.36-11.52,10v6.33c11.31-.88,18.7-7.1,18.7-16.32V32.83C2907.61,22.75,2899.83,16.2,2887.88,16.2Z"/> <path class="cls-1" d="M2871.73,31.5V22.18c0-7.13,3.65-11.09,12-12.24V3.46c-12.75,1.65-18.94,8.64-18.94,21.38v4.9c0,12.67,6.7,20.16,18.94,21.09V44.5C2875.81,43.7,2871.73,39.31,2871.73,31.5Z"/> <path class="cls-1" d="M2966.46,26.28V27c0,7,5,11.09,13.75,11.38l-13.53,10.87v.86h8.93l14.68-11.73h5V32.47h-13.68c-5.25,0-8-1.87-8-5.47v-.72c0-3.82,2.66-5.76,8-5.76h13.75v-6h-14.28C2971.86,14.47,2966.46,18.86,2966.46,26.28Z"/> <path class="cls-1" d="M2678.23,24.71c-3.72-2.27-7.89-2.87-12.12-3.26l-1.47-.18,10.1-6.71h-11q-4.48,3-8.94,6.12a2,2,0,0,0-.72,1.43c-.1,1.36,0,2.74,0,4.1,0,.89.29,1.14,1.15,1.14,3.18,0,6.35,0,9.52.09a18.78,18.78,0,0,1,8.93,2.12,5.48,5.48,0,0,1,3,4c.52,3.85-.47,6.35-4.08,8.07a20.47,20.47,0,0,1-8.7,1.76V50c2.29-.29,4.6-.49,6.87-.9a18.23,18.23,0,0,0,8.88-4c3.59-3.09,4.43-7.21,4.07-11.69A10.68,10.68,0,0,0,2678.23,24.71Z"/> <path class="cls-1" d="M2522.41,3c-1.8,0-3.6,0-5.4,0a1.08,1.08,0,0,0-.78.7A4.65,4.65,0,0,1,2512.56,8a22.11,22.11,0,0,1-4.48.77c-2.5.13-5,0-7.52.09-.34,0-1,.36-1,.58-.08,1.94,0,3.88,0,5.82,3.56,0,7,.17,10.42-.06a42.16,42.16,0,0,0,6.34-1.38V49.13h6.93V4.56c0-.23,0-.47,0-.7C2523.26,3.28,2523,3,2522.41,3Z"/> <path class="cls-1" d="M2623.3,3q-2.64,0-5.28,0c-.65,0-.9.24-.95.88a4.3,4.3,0,0,1-3.29,4,22.36,22.36,0,0,1-4.94.88c-2.45.15-4.93,0-7.39.09-.35,0-1,.37-1,.59-.07,1.94,0,3.88,0,5.92h8.46a19.27,19.27,0,0,0,8.32-1.88V49.16h6.92V4.55c0-.23,0-.47,0-.7C2624.17,3.26,2623.92,3,2623.3,3Z"/> <path class="cls-1" d="M2558.61,3c-1.6.08-3.21.05-4.81,0-.7,0-1,.21-1,.91a4.38,4.38,0,0,1-3.45,4,32.52,32.52,0,0,1-5.65.85c-2.18.15-4.38,0-6.57.07-.33,0-.91.33-.92.53-.07,2,0,3.94,0,6,5.69-.27,11.31.76,16.74-1.94V49.15h6.93V12.4c0-2.74,0-5.47,0-8.21C2559.84,3.27,2559.54,3,2558.61,3Z"/> <path class="cls-1" d="M2641.49,9.38q19.85-.06,39.68,0a4.21,4.21,0,0,0,.94,0c.18-.05.46-.26.46-.4,0-1.93,0-3.87,0-5.81H2640c0,1.69.09,3.25,0,4.8C2639.87,9.16,2640.35,9.38,2641.49,9.38Z"/> <path class="cls-1" d="M2648.39,40.49a5.39,5.39,0,0,1-2.28-4.89h-6.86a11.15,11.15,0,0,0,5.9,10.95c4.2,2.43,8.82,3.15,13.53,3.42V43.39a23.15,23.15,0,0,1-3.34-.28A16.1,16.1,0,0,1,2648.39,40.49Z"/> <path class="cls-1" d="M2573.24,32.73h24V26.78h-24Z"/> <path class="cls-1" d="M3614.79,20.16V13.75c-11.66.94-18.72,7.63-18.72,18V33c0,10.22,7.06,16.92,18.72,17.85V44.42c-7.2-.79-11.59-4.89-11.59-11.52v-1C3603.19,25.13,3607.44,21,3614.79,20.16Z"/> <polygon class="cls-1" points="3547.12 50.11 3554.03 50.07 3554.03 14.47 3547.12 14.47 3547.12 50.11"/> <polygon class="cls-1" points="3646.36 26.28 3646.36 26.28 3646.36 26.24 3646.36 26.28"/> <polygon class="cls-1" points="3579.66 29.16 3559.21 29.12 3559.21 35.24 3579.66 35.24 3579.66 50.11 3586.57 50.11 3586.57 14.47 3579.66 14.47 3579.66 29.16"/> <path class="cls-1" d="M3646.36,26.28V27c0,7,5,11.09,13.75,11.38l-13.53,10.87v.86h8.92l14.69-11.73h5V32.47h-13.71c-5.26,0-8-1.87-8-5.47v-.72c0-3.82,2.66-5.76,8-5.76h13.75v-6H3661C3651.79,14.47,3646.36,18.86,3646.36,26.28Z"/> <path class="cls-1" d="M3620,13.75v6.37c7.2.79,11.45,5.11,11.45,11.74v1c0,6.56-4.32,10.73-11.45,11.52v6.41c11.59-.79,18.57-7.52,18.57-17.79V31.75C3638.61,21.38,3631.63,14.62,3620,13.75Z"/> <polygon class="cls-1" points="3620.04 13.75 3620.04 13.75 3620.04 13.71 3620.04 13.75"/> <path class="cls-1" d="M3902.28,32.34l-11.83,6.38h13.25l4.46-2.44c11.88-6.56,15.27-10.73,15.27-18.15V17c0-8.71-6.63-14.11-18.15-14.83v6.7c7.13.57,11,3.52,11,8.49v.79C3916.28,23.15,3914.69,25.71,3902.28,32.34Z"/> <path class="cls-1" d="M3889,18c0-5.4,3.8-8.57,11.11-9.14V2.16c-11.81.65-18.31,6.19-18.31,15.77v1.51h7.2Z"/> <path class="cls-1" d="M3738.58.86V0h-7.42V.65c0,1.15-.79,1.73-2.59,1.87l-6.48.48V9.36l8.21-.65C3735.92,8.28,3738.58,5.71,3738.58.86Z"/> <path class="cls-1" d="M4015.43,32.34l-11.78,6.32h13.25l4.47-2.44c11.88-6.56,15.26-10.73,15.26-18.15V17c0-8.71-6.63-14.11-18.14-14.83v6.7c7.12.57,10.94,3.52,10.94,8.49v.79C4029.43,23.15,4027.85,25.71,4015.43,32.34Z"/> <path class="cls-1" d="M4002.14,18c0-5.4,3.82-8.57,11.16-9.14V2.16c-11.81.65-18.36,6.19-18.36,15.77v1.51h7.2Z"/> <path class="cls-1" d="M3935.12,22.68v7.7c0,11.45,8.53,19.52,21.67,20.45V44.14c-9.14-.8-14.54-5.76-14.54-13.68V22.61c0-7.92,5.4-13,14.54-13.75V2.16C3943.69,3.1,3935.12,11.16,3935.12,22.68Z"/> <path class="cls-1" d="M3962,2.16v6.7c9,.79,14.47,6,14.47,13.75v7.85c0,7.92-5.44,13-14.51,13.68h0v6.69c13-.93,21.6-8.85,21.6-20.45v-7.7C3983.58,11.16,3974.94,3.1,3962,2.16Z"/> <rect class="cls-1" x="3881.31" y="43.72" width="43.84" height="6.41"/> <polygon class="cls-1" points="3833.7 50 3840.61 50 3840.61 14.47 3833.7 14.53 3833.7 50"/> <rect class="cls-1" x="3994.51" y="43.66" width="43.85" height="6.41"/> <polygon class="cls-1" points="3680.42 50 3687.33 50 3687.33 14.47 3680.42 14.43 3680.42 50"/> <path class="cls-1" d="M4048.28,22.68v7.7c0,11.45,8.57,19.52,21.68,20.45V44.14c-9.15-.8-14.55-5.76-14.55-13.68V22.61c0-7.92,5.4-13,14.55-13.75V2.16C4056.85,3.1,4048.28,11.16,4048.28,22.68Z"/> <path class="cls-1" d="M4075.14,2.12v6.7c9,.79,14.47,6,14.47,13.75v7.85c0,8-5.4,13-14.47,13.72v6.65c13-.93,21.6-8.85,21.6-20.45v-7.7C4096.74,11.12,4088.1,3.06,4075.14,2.12Z"/> <rect class="cls-1" x="3750.25" y="14.47" width="6.91" height="47.94"/> <path class="cls-1" d="M3771.49,13.61a19.23,19.23,0,0,0-9.14,2.16V22.1a15.7,15.7,0,0,1,8.21-2.16c8.78,0,14.18,4.4,14.18,11.74v1.15c0,7.35-5.4,11.81-14.18,11.81a15.62,15.62,0,0,1-8.21-2.23v6.47a19.22,19.22,0,0,0,9.14,2.12c12.1,0,20.38-7.13,20.38-18.15V31.68C3791.87,20.68,3783.59,13.61,3771.49,13.61Z"/> <path class="cls-1" d="M3721.06,16.2a21,21,0,0,0-10.92,2.74v6.18a16.24,16.24,0,0,1,9.36-2.6c8.78,0,14.11,4,14.11,10.52v1.51c0,5.61-4.32,9.36-11.52,10v6.33c11.31-.88,18.7-7.1,18.7-16.32V32.83C3740.79,22.75,3733,16.2,3721.06,16.2Z"/> <path class="cls-1" d="M3704.91,31.5V22.18c0-7.13,3.65-11.09,12-12.24V3.46C3704.16,5.11,3698,12.1,3698,24.84v4.9c0,12.67,6.7,20.16,18.94,21.09V44.5C3709,43.7,3704.91,39.31,3704.91,31.5Z"/> <path class="cls-1" d="M3799.64,26.28V27c0,7,5,11.09,13.75,11.38l-13.53,10.87v.86h8.93l14.68-11.73h5V32.47h-13.68c-5.25,0-8-1.87-8-5.47v-.72c0-3.82,2.66-5.76,8-5.76h13.75v-6h-14.28C3805,14.47,3799.64,18.86,3799.64,26.28Z"/> <path class="cls-1" d="M3511.41,24.71c-3.72-2.27-7.89-2.87-12.12-3.26l-1.47-.18,10.1-6.71h-11q-4.49,3-8.94,6.12a2,2,0,0,0-.72,1.43c-.1,1.36,0,2.74-.05,4.1,0,.89.29,1.14,1.15,1.14,3.18,0,6.35,0,9.52.09a18.78,18.78,0,0,1,8.93,2.12,5.48,5.48,0,0,1,3,4c.52,3.85-.47,6.35-4.08,8.07a20.47,20.47,0,0,1-8.7,1.76V50c2.29-.29,4.6-.49,6.87-.9a18.23,18.23,0,0,0,8.88-4c3.59-3.09,4.43-7.21,4.07-11.69A10.68,10.68,0,0,0,3511.41,24.71Z"/> <path class="cls-1" d="M3355.58,3c-1.8,0-3.6,0-5.4,0a1.07,1.07,0,0,0-.77.7A4.66,4.66,0,0,1,3345.74,8a22.21,22.21,0,0,1-4.49.77c-2.5.13-5,0-7.51.09-.35,0-1,.36-1,.58-.08,1.94-.05,3.88-.05,5.82,3.57,0,7,.17,10.43-.06a42.43,42.43,0,0,0,6.34-1.38V49.13h6.92V4.56c0-.23,0-.47,0-.7C3356.44,3.28,3356.21,3,3355.58,3Z"/> <path class="cls-1" d="M3456.48,3c-1.76,0-3.52,0-5.29,0-.65,0-.89.24-1,.88a4.29,4.29,0,0,1-3.28,4,22.46,22.46,0,0,1-4.94.88c-2.46.15-4.93,0-7.4.09-.34,0-1,.37-1,.59-.08,1.94,0,3.88,0,5.92h8.46a19.3,19.3,0,0,0,8.32-1.88V49.16h6.92V4.55c0-.23,0-.47,0-.7C3457.34,3.26,3457.1,3,3456.48,3Z"/> <path class="cls-1" d="M3391.79,3c-1.6.08-3.21.05-4.82,0-.69,0-.94.21-1,.91a4.38,4.38,0,0,1-3.45,4,32.81,32.81,0,0,1-5.65.85c-2.18.15-4.39,0-6.58.07-.32,0-.91.33-.91.53-.07,2,0,3.94,0,6,5.69-.27,11.3.76,16.74-1.94V49.15H3393V12.4c0-2.74,0-5.47,0-8.21C3393,3.27,3392.72,3,3391.79,3Z"/> <path class="cls-1" d="M3474.67,9.38q19.83-.06,39.68,0a4.1,4.1,0,0,0,.93,0c.19-.05.47-.26.47-.4,0-1.93,0-3.87,0-5.81h-42.59c0,1.69.09,3.25,0,4.8C3473.05,9.16,3473.53,9.38,3474.67,9.38Z"/> <path class="cls-1" d="M3481.57,40.49a5.39,5.39,0,0,1-2.28-4.89h-6.86a11.15,11.15,0,0,0,5.9,10.95c4.2,2.43,8.82,3.15,13.53,3.42V43.39a23.15,23.15,0,0,1-3.34-.28A16.1,16.1,0,0,1,3481.57,40.49Z"/> <path class="cls-1" d="M3406.42,32.73h24V26.78h-24Z"/> </g> </g> </svg>