<?xml version="1.0" encoding="UTF-8"?>
<svg xmlns="http://www.w3.org/2000/svg" viewBox="0 0 4021.19 51.12"> <defs> <style>.cls-1{fill:#17118b;}</style> </defs> <g id="Слой_2" data-name="Слой 2"> <g id="Слой_1-2" data-name="Слой 1"> <path class="cls-1" d="M27,51.12a32.46,32.46,0,0,1-14.26-2.95,22,22,0,0,1-9.43-8.35A23.76,23.76,0,0,1,0,27.14v-.93A23.72,23.72,0,0,1,3.31,13.54a21.81,21.81,0,0,1,9.43-8.43A32.46,32.46,0,0,1,27,2.16a32,32,0,0,1,14.18,3,21.83,21.83,0,0,1,9.44,8.43,23.81,23.81,0,0,1,3.31,12.67v.93a23.85,23.85,0,0,1-3.31,12.68,22,22,0,0,1-9.44,8.35A32,32,0,0,1,27,51.12Zm0-6.7q9.28,0,14.47-4.53t5.19-12.6V26.14q0-8.14-5.19-12.68T27,8.86q-9.29,0-14.54,4.6T7.27,26.14v1.15q0,8.06,5.19,12.6T27,44.42ZM85.17,13.75q9.36,0,14.11,4.68T104.11,32V50.26H97.27V32q0-5.84-3.31-8.86t-9.44-3.09A15.88,15.88,0,0,0,76.75,22a12.9,12.9,0,0,0-5.19,5.19v23H64.65V14.62h6.41l.29,4.6Q76.68,13.9,85.17,13.75Zm42.05,36.51c-3.51,0-6.17-.8-8-2.38s-2.66-4-2.66-7.13V.14h6.91V39.6a4.69,4.69,0,0,0,1.15,3.53,5.79,5.79,0,0,0,3.82,1h3.1v6.12Zm19.24-35.64V50.26h-6.91V14.62ZM143,8.93a4.74,4.74,0,0,1-3.39-1.23,4.48,4.48,0,0,1-1.29-3.31,4.19,4.19,0,0,1,1.29-3.17,5.31,5.31,0,0,1,6.77,0,4.16,4.16,0,0,1,1.3,3.17,4.44,4.44,0,0,1-1.3,3.31A4.7,4.7,0,0,1,143,8.93ZM180,13.75q9.36,0,14.12,4.68T198.89,32V50.26h-6.84V32q0-5.84-3.31-8.86t-9.43-3.09A15.89,15.89,0,0,0,171.53,22a12.87,12.87,0,0,0-5.18,5.19v23h-6.92V14.62h6.41l.29,4.6Q171.46,13.9,180,13.75Zm69.48,21H215.08a9.76,9.76,0,0,0,4,7.42q3.67,2.67,9.79,2.66a19.67,19.67,0,0,0,9.22-1.87c2.39-1.29,3.69-3,3.88-5.11h7.42a12.49,12.49,0,0,1-6.05,9.79q-5.4,3.52-14.47,3.53A26.77,26.77,0,0,1,217.75,49a17.14,17.14,0,0,1-7.34-6.26,17.38,17.38,0,0,1-2.53-9.44V31.75a17.46,17.46,0,0,1,2.53-9.5A16.45,16.45,0,0,1,217.75,16a26.15,26.15,0,0,1,11.16-2.23q9.57,0,15.05,4.75t5.47,13ZM228.91,20.09a16.74,16.74,0,0,0-9.36,2.37,9.59,9.59,0,0,0-4.32,6.48h26.85a9.13,9.13,0,0,0-4.1-6.48A15.74,15.74,0,0,0,228.91,20.09Z"/> <path class="cls-1" d="M849,51.12a32.46,32.46,0,0,1-14.26-2.95,22,22,0,0,1-9.43-8.35A23.76,23.76,0,0,1,822,27.14v-.93a23.72,23.72,0,0,1,3.31-12.67,21.81,21.81,0,0,1,9.43-8.43A32.46,32.46,0,0,1,849,2.16a32,32,0,0,1,14.18,3,21.83,21.83,0,0,1,9.44,8.43,23.81,23.81,0,0,1,3.31,12.67v.93a23.85,23.85,0,0,1-3.31,12.68,22,22,0,0,1-9.44,8.35A32,32,0,0,1,849,51.12Zm0-6.7q9.29,0,14.47-4.53t5.19-12.6V26.14q0-8.14-5.19-12.68T849,8.86q-9.29,0-14.54,4.6t-5.19,12.68v1.15q0,8.06,5.19,12.6T849,44.42Zm58.17-30.67q9.36,0,14.12,4.68T926.11,32V50.26h-6.84V32q0-5.84-3.31-8.86t-9.44-3.09A15.88,15.88,0,0,0,898.75,22a12.9,12.9,0,0,0-5.19,5.19v23h-6.91V14.62h6.41l.29,4.6Q898.68,13.9,907.17,13.75Zm42.05,36.51c-3.51,0-6.17-.8-8-2.38s-2.66-4-2.66-7.13V.14h6.91V39.6a4.69,4.69,0,0,0,1.15,3.53,5.79,5.79,0,0,0,3.82,1h3.1v6.12Zm19.24-35.64V50.26h-6.91V14.62ZM965,8.93a4.74,4.74,0,0,1-3.39-1.23,4.48,4.48,0,0,1-1.29-3.31,4.19,4.19,0,0,1,1.29-3.17,5.31,5.31,0,0,1,6.77,0,4.16,4.16,0,0,1,1.3,3.17,4.44,4.44,0,0,1-1.3,3.31A4.7,4.7,0,0,1,965,8.93ZM1002,13.75q9.36,0,14.11,4.68T1020.89,32V50.26h-6.84V32q0-5.84-3.31-8.86t-9.44-3.09A15.88,15.88,0,0,0,993.53,22a12.87,12.87,0,0,0-5.18,5.19v23h-6.92V14.62h6.41l.29,4.6Q993.46,13.9,1002,13.75Zm69.48,21h-34.35a9.76,9.76,0,0,0,4,7.42q3.66,2.67,9.79,2.66a19.6,19.6,0,0,0,9.21-1.87c2.4-1.29,3.7-3,3.89-5.11h7.42a12.52,12.52,0,0,1-6,9.79q-5.4,3.52-14.47,3.53A26.77,26.77,0,0,1,1039.75,49a17.22,17.22,0,0,1-7.35-6.26,17.46,17.46,0,0,1-2.52-9.44V31.75a17.55,17.55,0,0,1,2.52-9.5,16.53,16.53,0,0,1,7.35-6.27,26.15,26.15,0,0,1,11.16-2.23q9.57,0,15,4.75t5.47,13Zm-20.52-14.61a16.74,16.74,0,0,0-9.36,2.37,9.59,9.59,0,0,0-4.32,6.48h26.85a9.16,9.16,0,0,0-4.1-6.48A15.74,15.74,0,0,0,1050.91,20.09Z"/> <path class="cls-1" d="M338.22,3V43.85H373v6.41H331V3Zm49.35,11.6V50.26h-6.91V14.62Zm-3.45-5.69a4.74,4.74,0,0,1-3.39-1.23,4.48,4.48,0,0,1-1.29-3.31,4.19,4.19,0,0,1,1.29-3.17,5.31,5.31,0,0,1,6.77,0,4.16,4.16,0,0,1,1.3,3.17,4.44,4.44,0,0,1-1.3,3.31A4.7,4.7,0,0,1,384.12,8.93Zm57.82,5.69v1L424,50.26h-8.92l-18-34.64v-1h7.2l15.26,29.59,15.19-29.59ZM487.8,34.7H453.45a9.78,9.78,0,0,0,4,7.42q3.67,2.67,9.8,2.66a19.6,19.6,0,0,0,9.21-1.87c2.4-1.29,3.7-3,3.89-5.11h7.42a12.52,12.52,0,0,1-6.05,9.79q-5.4,3.52-14.47,3.53A26.77,26.77,0,0,1,456.12,49a17.22,17.22,0,0,1-7.35-6.26,17.46,17.46,0,0,1-2.52-9.44V31.75a17.55,17.55,0,0,1,2.52-9.5A16.53,16.53,0,0,1,456.12,16a26.15,26.15,0,0,1,11.16-2.23q9.57,0,15.05,4.75t5.47,13ZM467.28,20.09a16.74,16.74,0,0,0-9.36,2.37,9.59,9.59,0,0,0-4.32,6.48h26.85a9.16,9.16,0,0,0-4.1-6.48A15.74,15.74,0,0,0,467.28,20.09ZM569.61,43.85v6.41H525.76V44.5l20.81-12a106.35,106.35,0,0,0,9.07-5.69,13.84,13.84,0,0,0,4-4.1,8.8,8.8,0,0,0,1.08-4.46V17.5a7.15,7.15,0,0,0-3.53-6.41q-3.45-2.23-10-2.23-6.76,0-10.29,2.37a7.88,7.88,0,0,0-3.46,6.91v1.44h-7.2V18.07q0-7.69,5.4-11.81T547,2.16q9.79,0,15.34,4a13,13,0,0,1,5.54,11.09V18a14.21,14.21,0,0,1-1.51,6.7,19.18,19.18,0,0,1-5.26,5.83,87,87,0,0,1-10.8,7l-10.94,6.27Zm34.26,7.27a29.7,29.7,0,0,1-12.74-2.59,20.54,20.54,0,0,1-8.57-7.27,19.39,19.39,0,0,1-3-10.73V22.82a19.5,19.5,0,0,1,3-10.8,20.54,20.54,0,0,1,8.57-7.27,29.7,29.7,0,0,1,12.74-2.59,29.09,29.09,0,0,1,12.6,2.59A20.1,20.1,0,0,1,625,12a19.42,19.42,0,0,1,3,10.8v7.71a19.42,19.42,0,0,1-3,10.8,20.3,20.3,0,0,1-8.5,7.2A29.09,29.09,0,0,1,603.87,51.12Zm0-6.7q7.92,0,12.46-3.67a12.36,12.36,0,0,0,4.54-10.15V22.75a12.4,12.4,0,0,0-4.61-10.15q-4.54-3.75-12.46-3.74T591.2,12.6a12.35,12.35,0,0,0-4.53,10.15V30.6a12.35,12.35,0,0,0,4.53,10.15Q595.8,44.43,603.87,44.42Zm78.94-.57v6.41H639V44.5l20.81-12a106.87,106.87,0,0,0,9.08-5.69,14.11,14.11,0,0,0,4-4.1,8.9,8.9,0,0,0,1.07-4.46V17.5a7.14,7.14,0,0,0-3.52-6.41q-3.47-2.23-10-2.23-6.76,0-10.3,2.37a7.88,7.88,0,0,0-3.45,6.91v1.44h-7.2V18.07q0-7.69,5.4-11.81t15.4-4.1q9.79,0,15.34,4a13,13,0,0,1,5.54,11.09V18a14.21,14.21,0,0,1-1.51,6.7,19.26,19.26,0,0,1-5.25,5.83,87.78,87.78,0,0,1-10.8,7l-10.95,6.27Zm34.27,7.27a29.78,29.78,0,0,1-12.75-2.59,20.6,20.6,0,0,1-8.57-7.27,19.39,19.39,0,0,1-3-10.73V22.82a19.5,19.5,0,0,1,3-10.8,20.6,20.6,0,0,1,8.57-7.27,29.78,29.78,0,0,1,12.75-2.59,29.09,29.09,0,0,1,12.6,2.59A20.07,20.07,0,0,1,738.17,12a19.43,19.43,0,0,1,3,10.8v7.71a19.43,19.43,0,0,1-3,10.8,20.27,20.27,0,0,1-8.49,7.2A29.09,29.09,0,0,1,717.08,51.12Zm0-6.7q7.92,0,12.45-3.67a12.33,12.33,0,0,0,4.54-10.15V22.75a12.4,12.4,0,0,0-4.61-10.15Q724.93,8.85,717,8.86T704.4,12.6a12.35,12.35,0,0,0-4.53,10.15V30.6a12.35,12.35,0,0,0,4.53,10.15Q709,44.43,717.08,44.42Z"/> <path class="cls-1" d="M1158.21,3V43.85H1193v6.41h-42V3Zm49.36,11.6V50.26h-6.91V14.62Zm-3.45-5.69a4.73,4.73,0,0,1-3.39-1.23,4.48,4.48,0,0,1-1.29-3.31,4.19,4.19,0,0,1,1.29-3.17,5.31,5.31,0,0,1,6.77,0,4.2,4.2,0,0,1,1.3,3.17,4.48,4.48,0,0,1-1.3,3.31A4.7,4.7,0,0,1,1204.12,8.93Zm57.82,5.69v1L1244,50.26h-8.92l-18-34.64v-1h7.2l15.26,29.59,15.19-29.59Zm45.85,20.08h-34.34a9.75,9.75,0,0,0,4,7.42q3.68,2.67,9.79,2.66a19.61,19.61,0,0,0,9.22-1.87c2.4-1.29,3.7-3,3.89-5.11h7.41a12.51,12.51,0,0,1-6,9.79q-5.4,3.52-14.48,3.53A26.77,26.77,0,0,1,1276.11,49a17.25,17.25,0,0,1-7.34-6.26,17.46,17.46,0,0,1-2.52-9.44V31.75a17.55,17.55,0,0,1,2.52-9.5,16.56,16.56,0,0,1,7.34-6.27,26.15,26.15,0,0,1,11.16-2.23q9.59,0,15,4.75t5.47,13Zm-20.52-14.61a16.74,16.74,0,0,0-9.36,2.37,9.59,9.59,0,0,0-4.32,6.48h26.86a9.16,9.16,0,0,0-4.1-6.48A15.77,15.77,0,0,0,1287.27,20.09Zm102.34,23.76v6.41h-43.85V44.5l20.81-12a106.35,106.35,0,0,0,9.07-5.69,13.84,13.84,0,0,0,4-4.1,8.8,8.8,0,0,0,1.08-4.46V17.5a7.15,7.15,0,0,0-3.53-6.41q-3.45-2.23-10-2.23-6.77,0-10.29,2.37a7.86,7.86,0,0,0-3.46,6.91v1.44h-7.2V18.07q0-7.69,5.4-11.81T1367,2.16q9.8,0,15.34,4a13,13,0,0,1,5.54,11.09V18a14.21,14.21,0,0,1-1.51,6.7,19.18,19.18,0,0,1-5.26,5.83,87.78,87.78,0,0,1-10.8,7l-10.94,6.27Zm34.26,7.27a29.7,29.7,0,0,1-12.74-2.59,20.54,20.54,0,0,1-8.57-7.27,19.31,19.31,0,0,1-3-10.73V22.82a19.43,19.43,0,0,1,3-10.8,20.54,20.54,0,0,1,8.57-7.27,29.7,29.7,0,0,1,12.74-2.59,29.09,29.09,0,0,1,12.6,2.59A20.1,20.1,0,0,1,1445,12a19.5,19.5,0,0,1,3,10.8v7.71a19.5,19.5,0,0,1-3,10.8,20.3,20.3,0,0,1-8.5,7.2A29.09,29.09,0,0,1,1423.87,51.12Zm0-6.7q7.92,0,12.46-3.67a12.35,12.35,0,0,0,4.53-10.15V22.75a12.37,12.37,0,0,0-4.61-10.15q-4.53-3.75-12.45-3.74t-12.6,3.74a12.33,12.33,0,0,0-4.54,10.15V30.6a12.33,12.33,0,0,0,4.54,10.15Q1415.8,44.43,1423.87,44.42Zm78.94-.57v6.41H1459V44.5l20.81-12a106.35,106.35,0,0,0,9.07-5.69,13.84,13.84,0,0,0,4-4.1,8.8,8.8,0,0,0,1.08-4.46V17.5a7.13,7.13,0,0,0-3.53-6.41q-3.45-2.23-10-2.23-6.78,0-10.3,2.37a7.88,7.88,0,0,0-3.46,6.91v1.44h-7.2V18.07q0-7.69,5.4-11.81t15.41-4.1q9.79,0,15.34,4a13,13,0,0,1,5.54,11.09V18a14.21,14.21,0,0,1-1.51,6.7,19.18,19.18,0,0,1-5.26,5.83,86.24,86.24,0,0,1-10.8,7l-10.94,6.27Zm34.26,7.27a29.74,29.74,0,0,1-12.74-2.59,20.6,20.6,0,0,1-8.57-7.27,19.39,19.39,0,0,1-3-10.73V22.82a19.5,19.5,0,0,1,3-10.8,20.6,20.6,0,0,1,8.57-7.27,29.74,29.74,0,0,1,12.74-2.59,29,29,0,0,1,12.6,2.59,20.1,20.1,0,0,1,8.5,7.27,19.42,19.42,0,0,1,3,10.8v7.71a19.42,19.42,0,0,1-3,10.8,20.3,20.3,0,0,1-8.5,7.2A29,29,0,0,1,1537.07,51.12Zm0-6.7q7.92,0,12.46-3.67a12.36,12.36,0,0,0,4.54-10.15V22.75a12.4,12.4,0,0,0-4.61-10.15q-4.55-3.75-12.46-3.74t-12.6,3.74a12.35,12.35,0,0,0-4.53,10.15V30.6a12.35,12.35,0,0,0,4.53,10.15Q1529,44.43,1537.07,44.42Z"/> <path class="cls-1" d="M1669,51.12a32.46,32.46,0,0,1-14.26-2.95,22,22,0,0,1-9.43-8.35A23.76,23.76,0,0,1,1642,27.14v-.93a23.72,23.72,0,0,1,3.31-12.67,21.81,21.81,0,0,1,9.43-8.43A32.46,32.46,0,0,1,1669,2.16a32,32,0,0,1,14.18,3,21.83,21.83,0,0,1,9.44,8.43,23.81,23.81,0,0,1,3.31,12.67v.93a23.85,23.85,0,0,1-3.31,12.68,22,22,0,0,1-9.44,8.35A32,32,0,0,1,1669,51.12Zm0-6.7q9.29,0,14.47-4.53t5.19-12.6V26.14q0-8.14-5.19-12.68T1669,8.86q-9.29,0-14.54,4.6t-5.19,12.68v1.15q0,8.06,5.19,12.6T1669,44.42Zm58.17-30.67q9.36,0,14.12,4.68T1746.11,32V50.26h-6.84V32q0-5.84-3.31-8.86t-9.44-3.09a15.88,15.88,0,0,0-7.77,1.94,12.9,12.9,0,0,0-5.19,5.19v23h-6.91V14.62h6.41l.29,4.6Q1718.68,13.9,1727.17,13.75Zm42,36.51c-3.51,0-6.17-.8-8-2.38s-2.66-4-2.66-7.13V.14h6.91V39.6a4.69,4.69,0,0,0,1.15,3.53,5.79,5.79,0,0,0,3.82,1h3.1v6.12Zm19.24-35.64V50.26h-6.91V14.62ZM1785,8.93a4.74,4.74,0,0,1-3.39-1.23,4.48,4.48,0,0,1-1.29-3.31,4.19,4.19,0,0,1,1.29-3.17,5.31,5.31,0,0,1,6.77,0,4.16,4.16,0,0,1,1.3,3.17,4.44,4.44,0,0,1-1.3,3.31A4.7,4.7,0,0,1,1785,8.93ZM1822,13.75q9.36,0,14.11,4.68T1840.89,32V50.26h-6.84V32q0-5.84-3.31-8.86t-9.44-3.09a15.88,15.88,0,0,0-7.77,1.94,12.87,12.87,0,0,0-5.18,5.19v23h-6.92V14.62h6.41l.29,4.6Q1813.46,13.9,1822,13.75Zm69.48,21h-34.35a9.76,9.76,0,0,0,4,7.42q3.66,2.67,9.79,2.66a19.6,19.6,0,0,0,9.21-1.87c2.4-1.29,3.7-3,3.89-5.11h7.42a12.52,12.52,0,0,1-6,9.79q-5.4,3.52-14.47,3.53A26.77,26.77,0,0,1,1859.75,49a17.22,17.22,0,0,1-7.35-6.26,17.46,17.46,0,0,1-2.52-9.44V31.75a17.55,17.55,0,0,1,2.52-9.5,16.53,16.53,0,0,1,7.35-6.27,26.15,26.15,0,0,1,11.16-2.23q9.57,0,15,4.75t5.47,13Zm-20.52-14.61a16.74,16.74,0,0,0-9.36,2.37,9.59,9.59,0,0,0-4.32,6.48h26.85a9.16,9.16,0,0,0-4.1-6.48A15.74,15.74,0,0,0,1870.91,20.09Z"/> <path class="cls-1" d="M1978.21,3V43.85H2013v6.41h-42V3Zm49.36,11.6V50.26h-6.91V14.62Zm-3.45-5.69a4.73,4.73,0,0,1-3.39-1.23,4.48,4.48,0,0,1-1.29-3.31,4.19,4.19,0,0,1,1.29-3.17,5.31,5.31,0,0,1,6.77,0,4.2,4.2,0,0,1,1.3,3.17,4.48,4.48,0,0,1-1.3,3.31A4.7,4.7,0,0,1,2024.12,8.93Zm57.82,5.69v1L2064,50.26h-8.92l-18-34.64v-1h7.2l15.26,29.59,15.19-29.59Zm45.85,20.08h-34.34a9.75,9.75,0,0,0,4,7.42q3.67,2.67,9.79,2.66a19.61,19.61,0,0,0,9.22-1.87c2.4-1.29,3.7-3,3.89-5.11h7.41a12.51,12.51,0,0,1-6,9.79q-5.4,3.52-14.48,3.53A26.77,26.77,0,0,1,2096.11,49a17.25,17.25,0,0,1-7.34-6.26,17.46,17.46,0,0,1-2.52-9.44V31.75a17.55,17.55,0,0,1,2.52-9.5,16.56,16.56,0,0,1,7.34-6.27,26.15,26.15,0,0,1,11.16-2.23q9.58,0,15.05,4.75t5.47,13Zm-20.52-14.61a16.74,16.74,0,0,0-9.36,2.37,9.59,9.59,0,0,0-4.32,6.48h26.86a9.16,9.16,0,0,0-4.1-6.48A15.77,15.77,0,0,0,2107.27,20.09Zm102.34,23.76v6.41h-43.85V44.5l20.81-12a106.35,106.35,0,0,0,9.07-5.69,13.84,13.84,0,0,0,4-4.1,8.8,8.8,0,0,0,1.08-4.46V17.5a7.15,7.15,0,0,0-3.53-6.41q-3.45-2.23-10-2.23-6.76,0-10.29,2.37a7.86,7.86,0,0,0-3.46,6.91v1.44h-7.2V18.07q0-7.69,5.4-11.81T2187,2.16q9.8,0,15.34,4a13,13,0,0,1,5.54,11.09V18a14.21,14.21,0,0,1-1.51,6.7,19.18,19.18,0,0,1-5.26,5.83,87.78,87.78,0,0,1-10.8,7l-10.94,6.27Zm34.26,7.27a29.7,29.7,0,0,1-12.74-2.59,20.54,20.54,0,0,1-8.57-7.27,19.31,19.31,0,0,1-3-10.73V22.82a19.43,19.43,0,0,1,3-10.8,20.54,20.54,0,0,1,8.57-7.27,29.7,29.7,0,0,1,12.74-2.59,29.09,29.09,0,0,1,12.6,2.59A20.1,20.1,0,0,1,2265,12a19.5,19.5,0,0,1,3,10.8v7.71a19.5,19.5,0,0,1-3,10.8,20.3,20.3,0,0,1-8.5,7.2A29.09,29.09,0,0,1,2243.87,51.12Zm0-6.7q7.92,0,12.46-3.67a12.35,12.35,0,0,0,4.53-10.15V22.75a12.37,12.37,0,0,0-4.61-10.15q-4.53-3.75-12.45-3.74t-12.6,3.74a12.33,12.33,0,0,0-4.54,10.15V30.6a12.33,12.33,0,0,0,4.54,10.15Q2235.81,44.43,2243.87,44.42Zm78.94-.57v6.41H2279V44.5l20.81-12a106.35,106.35,0,0,0,9.07-5.69,13.84,13.84,0,0,0,4-4.1,8.8,8.8,0,0,0,1.08-4.46V17.5a7.13,7.13,0,0,0-3.53-6.41q-3.45-2.23-10-2.23-6.78,0-10.3,2.37a7.88,7.88,0,0,0-3.46,6.91v1.44h-7.2V18.07q0-7.69,5.4-11.81t15.41-4.1q9.8,0,15.34,4a13,13,0,0,1,5.54,11.09V18a14.21,14.21,0,0,1-1.51,6.7,19.18,19.18,0,0,1-5.26,5.83,86.24,86.24,0,0,1-10.8,7l-10.94,6.27Zm34.26,7.27a29.74,29.74,0,0,1-12.74-2.59,20.6,20.6,0,0,1-8.57-7.27,19.39,19.39,0,0,1-3-10.73V22.82a19.5,19.5,0,0,1,3-10.8,20.6,20.6,0,0,1,8.57-7.27,29.74,29.74,0,0,1,12.74-2.59,29,29,0,0,1,12.6,2.59,20.1,20.1,0,0,1,8.5,7.27,19.42,19.42,0,0,1,3,10.8v7.71a19.42,19.42,0,0,1-3,10.8,20.3,20.3,0,0,1-8.5,7.2A29,29,0,0,1,2357.07,51.12Zm0-6.7q7.92,0,12.46-3.67a12.36,12.36,0,0,0,4.54-10.15V22.75a12.4,12.4,0,0,0-4.61-10.15q-4.55-3.75-12.46-3.74t-12.6,3.74a12.35,12.35,0,0,0-4.53,10.15V30.6a12.35,12.35,0,0,0,4.53,10.15Q2349,44.43,2357.07,44.42Z"/> <path class="cls-1" d="M2489,51.12a32.46,32.46,0,0,1-14.26-2.95,22,22,0,0,1-9.43-8.35A23.76,23.76,0,0,1,2462,27.14v-.93a23.72,23.72,0,0,1,3.31-12.67,21.81,21.81,0,0,1,9.43-8.43A32.46,32.46,0,0,1,2489,2.16a32,32,0,0,1,14.18,3,21.83,21.83,0,0,1,9.44,8.43,23.81,23.81,0,0,1,3.31,12.67v.93a23.85,23.85,0,0,1-3.31,12.68,22,22,0,0,1-9.44,8.35A32,32,0,0,1,2489,51.12Zm0-6.7q9.28,0,14.47-4.53t5.19-12.6V26.14q0-8.14-5.19-12.68T2489,8.86q-9.28,0-14.54,4.6t-5.19,12.68v1.15q0,8.06,5.19,12.6T2489,44.42Zm58.17-30.67q9.36,0,14.12,4.68T2566.11,32V50.26h-6.84V32q0-5.84-3.31-8.86t-9.44-3.09a15.88,15.88,0,0,0-7.77,1.94,12.9,12.9,0,0,0-5.19,5.19v23h-6.91V14.62h6.41l.29,4.6Q2538.68,13.9,2547.17,13.75Zm42,36.51c-3.51,0-6.17-.8-8-2.38s-2.66-4-2.66-7.13V.14h6.91V39.6a4.69,4.69,0,0,0,1.15,3.53,5.79,5.79,0,0,0,3.82,1h3.1v6.12Zm19.24-35.64V50.26h-6.91V14.62ZM2605,8.93a4.74,4.74,0,0,1-3.39-1.23,4.48,4.48,0,0,1-1.29-3.31,4.19,4.19,0,0,1,1.29-3.17,5.31,5.31,0,0,1,6.77,0,4.16,4.16,0,0,1,1.3,3.17,4.44,4.44,0,0,1-1.3,3.31A4.7,4.7,0,0,1,2605,8.93ZM2642,13.75q9.36,0,14.11,4.68T2660.89,32V50.26h-6.84V32q0-5.84-3.31-8.86t-9.44-3.09a15.88,15.88,0,0,0-7.77,1.94,12.87,12.87,0,0,0-5.18,5.19v23h-6.92V14.62h6.41l.29,4.6Q2633.46,13.9,2642,13.75Zm69.48,21h-34.35a9.76,9.76,0,0,0,4,7.42q3.66,2.67,9.79,2.66a19.6,19.6,0,0,0,9.21-1.87c2.4-1.29,3.7-3,3.89-5.11h7.42a12.52,12.52,0,0,1-6,9.79q-5.4,3.52-14.47,3.53A26.77,26.77,0,0,1,2679.75,49a17.22,17.22,0,0,1-7.35-6.26,17.46,17.46,0,0,1-2.52-9.44V31.75a17.55,17.55,0,0,1,2.52-9.5,16.53,16.53,0,0,1,7.35-6.27,26.15,26.15,0,0,1,11.16-2.23q9.57,0,15.05,4.75t5.47,13Zm-20.52-14.61a16.74,16.74,0,0,0-9.36,2.37,9.59,9.59,0,0,0-4.32,6.48h26.85a9.16,9.16,0,0,0-4.1-6.48A15.74,15.74,0,0,0,2690.91,20.09Z"/> <path class="cls-1" d="M2798.21,3V43.85H2833v6.41h-42V3Zm49.36,11.6V50.26h-6.91V14.62Zm-3.45-5.69a4.73,4.73,0,0,1-3.39-1.23,4.48,4.48,0,0,1-1.29-3.31,4.19,4.19,0,0,1,1.29-3.17,5.31,5.31,0,0,1,6.77,0,4.2,4.2,0,0,1,1.3,3.17,4.48,4.48,0,0,1-1.3,3.31A4.7,4.7,0,0,1,2844.12,8.93Zm57.82,5.69v1L2884,50.26h-8.92l-18-34.64v-1h7.2l15.26,29.59,15.19-29.59Zm45.85,20.08h-34.34a9.75,9.75,0,0,0,4,7.42q3.67,2.67,9.79,2.66a19.61,19.61,0,0,0,9.22-1.87c2.4-1.29,3.7-3,3.89-5.11h7.41a12.51,12.51,0,0,1-6,9.79q-5.4,3.52-14.48,3.53A26.77,26.77,0,0,1,2916.11,49a17.25,17.25,0,0,1-7.34-6.26,17.46,17.46,0,0,1-2.52-9.44V31.75a17.55,17.55,0,0,1,2.52-9.5,16.56,16.56,0,0,1,7.34-6.27,26.15,26.15,0,0,1,11.16-2.23q9.58,0,15.05,4.75t5.47,13Zm-20.52-14.61a16.74,16.74,0,0,0-9.36,2.37,9.59,9.59,0,0,0-4.32,6.48h26.86a9.16,9.16,0,0,0-4.1-6.48A15.77,15.77,0,0,0,2927.27,20.09Zm102.34,23.76v6.41h-43.85V44.5l20.81-12a106.35,106.35,0,0,0,9.07-5.69,13.84,13.84,0,0,0,4-4.1,8.8,8.8,0,0,0,1.08-4.46V17.5a7.15,7.15,0,0,0-3.53-6.41q-3.45-2.23-10-2.23-6.76,0-10.29,2.37a7.86,7.86,0,0,0-3.46,6.91v1.44h-7.2V18.07q0-7.69,5.4-11.81T3007,2.16q9.8,0,15.34,4a13,13,0,0,1,5.54,11.09V18a14.21,14.21,0,0,1-1.51,6.7,19.18,19.18,0,0,1-5.26,5.83,87.78,87.78,0,0,1-10.8,7l-10.94,6.27Zm34.26,7.27a29.7,29.7,0,0,1-12.74-2.59,20.54,20.54,0,0,1-8.57-7.27,19.31,19.31,0,0,1-3-10.73V22.82a19.43,19.43,0,0,1,3-10.8,20.54,20.54,0,0,1,8.57-7.27,29.7,29.7,0,0,1,12.74-2.59,29.09,29.09,0,0,1,12.6,2.59A20.1,20.1,0,0,1,3085,12a19.5,19.5,0,0,1,3,10.8v7.71a19.5,19.5,0,0,1-3,10.8,20.3,20.3,0,0,1-8.5,7.2A29.09,29.09,0,0,1,3063.87,51.12Zm0-6.7q7.92,0,12.46-3.67a12.35,12.35,0,0,0,4.53-10.15V22.75a12.37,12.37,0,0,0-4.61-10.15q-4.53-3.75-12.45-3.74t-12.6,3.74a12.33,12.33,0,0,0-4.54,10.15V30.6a12.33,12.33,0,0,0,4.54,10.15Q3055.81,44.43,3063.87,44.42Zm78.94-.57v6.41H3099V44.5l20.81-12a106.35,106.35,0,0,0,9.07-5.69,13.84,13.84,0,0,0,4-4.1,8.8,8.8,0,0,0,1.08-4.46V17.5a7.13,7.13,0,0,0-3.53-6.41q-3.45-2.23-10-2.23-6.78,0-10.3,2.37a7.88,7.88,0,0,0-3.46,6.91v1.44h-7.2V18.07q0-7.69,5.4-11.81t15.41-4.1q9.8,0,15.34,4a13,13,0,0,1,5.54,11.09V18a14.21,14.21,0,0,1-1.51,6.7,19.18,19.18,0,0,1-5.26,5.83,86.24,86.24,0,0,1-10.8,7l-10.94,6.27Zm34.26,7.27a29.74,29.74,0,0,1-12.74-2.59,20.6,20.6,0,0,1-8.57-7.27,19.39,19.39,0,0,1-3-10.73V22.82a19.5,19.5,0,0,1,3-10.8,20.6,20.6,0,0,1,8.57-7.27,29.74,29.74,0,0,1,12.74-2.59,29,29,0,0,1,12.6,2.59,20.1,20.1,0,0,1,8.5,7.27,19.42,19.42,0,0,1,3,10.8v7.71a19.42,19.42,0,0,1-3,10.8,20.3,20.3,0,0,1-8.5,7.2A29,29,0,0,1,3177.07,51.12Zm0-6.7q7.92,0,12.46-3.67a12.36,12.36,0,0,0,4.54-10.15V22.75a12.4,12.4,0,0,0-4.61-10.15q-4.55-3.75-12.46-3.74t-12.6,3.74a12.35,12.35,0,0,0-4.53,10.15V30.6a12.35,12.35,0,0,0,4.53,10.15Q3169,44.43,3177.07,44.42Z"/> <path class="cls-1" d="M3309,51.12a32.46,32.46,0,0,1-14.26-2.95,22,22,0,0,1-9.43-8.35A23.76,23.76,0,0,1,3282,27.14v-.93a23.72,23.72,0,0,1,3.31-12.67,21.81,21.81,0,0,1,9.43-8.43A32.46,32.46,0,0,1,3309,2.16a32,32,0,0,1,14.18,3,21.83,21.83,0,0,1,9.44,8.43,23.81,23.81,0,0,1,3.31,12.67v.93a23.85,23.85,0,0,1-3.31,12.68,22,22,0,0,1-9.44,8.35A32,32,0,0,1,3309,51.12Zm0-6.7q9.28,0,14.47-4.53t5.19-12.6V26.14q0-8.14-5.19-12.68T3309,8.86q-9.28,0-14.54,4.6t-5.19,12.68v1.15q0,8.06,5.19,12.6T3309,44.42Zm58.17-30.67q9.36,0,14.12,4.68T3386.11,32V50.26h-6.84V32q0-5.84-3.31-8.86t-9.44-3.09a15.88,15.88,0,0,0-7.77,1.94,12.9,12.9,0,0,0-5.19,5.19v23h-6.91V14.62h6.41l.29,4.6Q3358.68,13.9,3367.17,13.75Zm42,36.51c-3.51,0-6.17-.8-8-2.38s-2.66-4-2.66-7.13V.14h6.91V39.6a4.69,4.69,0,0,0,1.15,3.53,5.79,5.79,0,0,0,3.82,1h3.1v6.12Zm19.24-35.64V50.26h-6.91V14.62ZM3425,8.93a4.74,4.74,0,0,1-3.39-1.23,4.48,4.48,0,0,1-1.29-3.31,4.19,4.19,0,0,1,1.29-3.17,5.31,5.31,0,0,1,6.77,0,4.16,4.16,0,0,1,1.3,3.17,4.44,4.44,0,0,1-1.3,3.31A4.7,4.7,0,0,1,3425,8.93ZM3462,13.75q9.36,0,14.11,4.68T3480.89,32V50.26h-6.84V32q0-5.84-3.31-8.86t-9.44-3.09a15.88,15.88,0,0,0-7.77,1.94,12.87,12.87,0,0,0-5.18,5.19v23h-6.92V14.62h6.41l.29,4.6Q3453.46,13.9,3462,13.75Zm69.48,21h-34.35a9.76,9.76,0,0,0,4,7.42q3.66,2.67,9.79,2.66a19.6,19.6,0,0,0,9.21-1.87c2.4-1.29,3.7-3,3.89-5.11h7.42a12.52,12.52,0,0,1-6,9.79q-5.4,3.52-14.47,3.53A26.77,26.77,0,0,1,3499.75,49a17.22,17.22,0,0,1-7.35-6.26,17.46,17.46,0,0,1-2.52-9.44V31.75a17.55,17.55,0,0,1,2.52-9.5,16.53,16.53,0,0,1,7.35-6.27,26.15,26.15,0,0,1,11.16-2.23q9.57,0,15.05,4.75t5.47,13Zm-20.52-14.61a16.74,16.74,0,0,0-9.36,2.37,9.59,9.59,0,0,0-4.32,6.48h26.85a9.16,9.16,0,0,0-4.1-6.48A15.74,15.74,0,0,0,3510.91,20.09Z"/> <path class="cls-1" d="M3618.21,3V43.85H3653v6.41h-42V3Zm49.36,11.6V50.26h-6.91V14.62Zm-3.45-5.69a4.73,4.73,0,0,1-3.39-1.23,4.48,4.48,0,0,1-1.29-3.31,4.19,4.19,0,0,1,1.29-3.17,5.31,5.31,0,0,1,6.77,0,4.2,4.2,0,0,1,1.3,3.17,4.48,4.48,0,0,1-1.3,3.31A4.7,4.7,0,0,1,3664.12,8.93Zm57.82,5.69v1L3704,50.26h-8.92l-18-34.64v-1h7.2l15.26,29.59,15.19-29.59Zm45.85,20.08h-34.34a9.75,9.75,0,0,0,4,7.42q3.67,2.67,9.79,2.66a19.61,19.61,0,0,0,9.22-1.87c2.4-1.29,3.7-3,3.89-5.11h7.41a12.51,12.51,0,0,1-6,9.79q-5.4,3.52-14.48,3.53A26.77,26.77,0,0,1,3736.11,49a17.25,17.25,0,0,1-7.34-6.26,17.46,17.46,0,0,1-2.52-9.44V31.75a17.55,17.55,0,0,1,2.52-9.5,16.56,16.56,0,0,1,7.34-6.27,26.15,26.15,0,0,1,11.16-2.23q9.58,0,15.05,4.75t5.47,13Zm-20.52-14.61a16.74,16.74,0,0,0-9.36,2.37,9.59,9.59,0,0,0-4.32,6.48h26.86a9.16,9.16,0,0,0-4.1-6.48A15.77,15.77,0,0,0,3747.27,20.09Zm102.34,23.76v6.41h-43.85V44.5l20.81-12a106.35,106.35,0,0,0,9.07-5.69,13.84,13.84,0,0,0,4-4.1,8.8,8.8,0,0,0,1.08-4.46V17.5a7.15,7.15,0,0,0-3.53-6.41q-3.45-2.23-10-2.23-6.76,0-10.29,2.37a7.86,7.86,0,0,0-3.46,6.91v1.44h-7.2V18.07q0-7.69,5.4-11.81T3827,2.16q9.8,0,15.34,4a13,13,0,0,1,5.54,11.09V18a14.21,14.21,0,0,1-1.51,6.7,19.18,19.18,0,0,1-5.26,5.83,87.78,87.78,0,0,1-10.8,7l-10.94,6.27Zm34.26,7.27a29.7,29.7,0,0,1-12.74-2.59,20.54,20.54,0,0,1-8.57-7.27,19.31,19.31,0,0,1-3-10.73V22.82a19.43,19.43,0,0,1,3-10.8,20.54,20.54,0,0,1,8.57-7.27,29.7,29.7,0,0,1,12.74-2.59,29.09,29.09,0,0,1,12.6,2.59A20.1,20.1,0,0,1,3905,12a19.5,19.5,0,0,1,3,10.8v7.71a19.5,19.5,0,0,1-3,10.8,20.3,20.3,0,0,1-8.5,7.2A29.09,29.09,0,0,1,3883.87,51.12Zm0-6.7q7.92,0,12.46-3.67a12.35,12.35,0,0,0,4.53-10.15V22.75a12.37,12.37,0,0,0-4.61-10.15q-4.53-3.75-12.45-3.74t-12.6,3.74a12.33,12.33,0,0,0-4.54,10.15V30.6a12.33,12.33,0,0,0,4.54,10.15Q3875.81,44.43,3883.87,44.42Zm78.94-.57v6.41H3919V44.5l20.81-12a106.35,106.35,0,0,0,9.07-5.69,13.84,13.84,0,0,0,4-4.1,8.8,8.8,0,0,0,1.08-4.46V17.5a7.13,7.13,0,0,0-3.53-6.41q-3.45-2.23-10-2.23-6.78,0-10.3,2.37a7.88,7.88,0,0,0-3.46,6.91v1.44h-7.2V18.07q0-7.69,5.4-11.81t15.41-4.1q9.8,0,15.34,4a13,13,0,0,1,5.54,11.09V18a14.21,14.21,0,0,1-1.51,6.7,19.18,19.18,0,0,1-5.26,5.83,86.24,86.24,0,0,1-10.8,7l-10.94,6.27Zm34.26,7.27a29.74,29.74,0,0,1-12.74-2.59,20.6,20.6,0,0,1-8.57-7.27,19.39,19.39,0,0,1-3-10.73V22.82a19.5,19.5,0,0,1,3-10.8,20.6,20.6,0,0,1,8.57-7.27,29.74,29.74,0,0,1,12.74-2.59,29,29,0,0,1,12.6,2.59,20.1,20.1,0,0,1,8.5,7.27,19.42,19.42,0,0,1,3,10.8v7.71a19.42,19.42,0,0,1-3,10.8,20.3,20.3,0,0,1-8.5,7.2A29,29,0,0,1,3997.07,51.12Zm0-6.7q7.92,0,12.46-3.67a12.36,12.36,0,0,0,4.54-10.15V22.75a12.4,12.4,0,0,0-4.61-10.15q-4.55-3.75-12.46-3.74t-12.6,3.74a12.35,12.35,0,0,0-4.53,10.15V30.6a12.35,12.35,0,0,0,4.53,10.15Q3989,44.43,3997.07,44.42Z"/> </g> </g> </svg>