<?xml version="1.0" encoding="UTF-8"?>
<svg xmlns="http://www.w3.org/2000/svg" viewBox="0 0 5411.1 62.35"> <defs> <style>.cls-1{fill:#06a7d9;}.cls-2{fill:#2b3075;}</style> </defs> <g id="Слой_2" data-name="Слой 2"> <g id="Слой_1-2" data-name="Слой 1"> <path class="cls-1" d="M0,50.11H3.53V2.88H0ZM44.57,2.88H40.39L16.63,24.77H9.43v3.17h7.2L40.1,50.11h4.11v-.57L19.8,26.28,44.57,3.46ZM67.11,17.5V14.26c-9.28.86-15.4,6-15.4,12.88v.58H55v-.58C55,22,59.91,18.29,67.11,17.5ZM73,14.26V17.5c7.92.72,12.17,4.6,12.17,11.23V42.62c0,4.68,3.09,7.49,8.35,7.49h3.81v-3H94.19c-3.6,0-5.69-1.87-5.69-5.11V28.73C88.5,20.3,82.88,15.05,73,14.26ZM79.5,47.59l-.22-3.17a22.38,22.38,0,0,1-12.53,3.46c-7.92,0-11.88-2.16-11.88-6.41s3.24-6.26,10.44-7l14-1.44V30.17L64.67,31.68c-8.93.94-13.18,4.1-13.18,9.79,0,6.19,5.26,9.43,15.34,9.43A23,23,0,0,0,79.5,47.59Zm25,2.52h3.38V14.83h-3.38ZM122.9,32.33l19.66-16.92v-.58h-4L119.88,30.89h-6.12v3H120l19.66,16.2h3.89v-.57Zm30.78,28.08h3.24L163,43.2v-.58h-3.81Zm53.09-10.3h3.39V14.83h-3.39Zm18.44-17.78,19.65-16.92v-.58h-4L222.18,30.89h-6.12v3h6.27L242,50.11h3.89v-.57Zm43-15V14.26c-11,1-17.78,7.48-17.78,17.56v1.52c0,9.86,6.77,16.34,17.78,17.35V47.52c-8.85-.94-14.32-6.12-14.32-14.26V31.82C253.9,23.62,259.22,18.36,268.22,17.35Zm5.91-3.09v3.16c8.78.94,14.11,6.34,14.11,14.4v1.44c0,8.07-5.4,13.4-14.11,14.26v3.17c10.87-1,17.57-7.49,17.57-17.35V31.82C291.7,21.82,285,15.26,274.13,14.26Zm31.93,35.85V14.83h-3.38V50.11ZM312,14.83v3.1h19.87v-3.1Zm54.26,0H341.61l-.36,18.36c-.14,6.05-1.73,10.51-4.18,13.9h-5.32l.07,12.24h3.31V50.11h31.1v-3h-25.7c2.23-3.39,3.74-7.63,3.89-13.9l.29-15.33h21.52Zm9.29,32.26V14.83h-3.38V50.11h7.41v9.22h3.32V47.09ZM405.67,17.5V14.26c-9.29.86-15.41,6-15.41,12.88v.58h3.31v-.58C393.57,22,398.47,18.29,405.67,17.5Zm5.9-3.24V17.5c7.92.72,12.17,4.6,12.17,11.23V42.62c0,4.68,3.1,7.49,8.35,7.49h3.82v-3h-3.17c-3.6,0-5.69-1.87-5.69-5.11V28.73C427.05,20.3,421.44,15.05,411.57,14.26Zm6.48,33.33-.21-3.17a22.38,22.38,0,0,1-12.53,3.46c-7.92,0-11.88-2.16-11.88-6.41s3.24-6.26,10.44-7l14-1.44V30.17l-14.62,1.51c-8.93.94-13.17,4.1-13.17,9.79,0,6.19,5.25,9.43,15.33,9.43A23,23,0,0,0,418.05,47.59Zm87.64-32.76L471.85,50.11h3.53l33.84-35.28ZM471.85,41l3.24-3.67V14.83h-3.24Zm37.37-17L506,27.65V50.11h3.24Zm43.65,4.1c0-6.91,4.32-10.3,13.54-10.87v-3c-11.09.72-16.85,5.4-16.85,13.9v.43h3.31Zm29.52,4.1c3.89-1.44,6.19-4.1,6.19-7.56V24c0-6-5.54-9.36-16.27-9.8v3c8.64.36,12.82,2.59,12.82,6.84v.65c0,3.88-3.46,6.12-9.58,6.12H564.32v3h12.1c6.19,0,9.64,2.16,9.64,6v.57c0,4.68-4.32,7-13.75,7.28v3.09c11.52-.43,17.21-3.89,17.21-10.22V40C589.52,36.29,586.86,33.48,582.39,32.18Zm-29.52,4.76V36.5h-3.31v.44c0,8.56,5.69,13.1,16.85,13.82v-3C557.26,47.09,552.87,43.7,552.87,36.94ZM615.41,17.5V14.26c-9.29.86-15.41,6-15.41,12.88v.58h3.32v-.58C603.32,22,608.21,18.29,615.41,17.5Zm5.91-3.24V17.5c7.92.72,12.16,4.6,12.16,11.23V42.62c0,4.68,3.1,7.49,8.36,7.49h3.81v-3h-3.17c-3.6,0-5.68-1.87-5.68-5.11V28.73C636.8,20.3,631.18,15.05,621.32,14.26Zm6.48,33.33-.22-3.17a22.38,22.38,0,0,1-12.53,3.46c-7.92,0-11.88-2.16-11.88-6.41s3.24-6.26,10.44-7l14-1.44V30.17L613,31.68c-8.92.94-13.17,4.1-13.17,9.79,0,6.19,5.25,9.43,15.33,9.43A23.06,23.06,0,0,0,627.8,47.59ZM676,37.44v-3.1a61.35,61.35,0,0,1-10.44,1c-8.57,0-13-3.38-13-9.86V14.83h-3.38v11c0,8.28,5.54,12.6,16.13,12.6A69.31,69.31,0,0,0,676,37.44Zm5.9,12.67h3.31V14.83h-3.31Zm37.28-35.85v3.16c8.06.94,13.1,5.84,13.32,13.25H699.26c.28-7.41,5.54-12.31,14-13.25V14.26c-10.72,1-17.49,7.56-17.49,17.42v1.66c0,9.79,6.69,16.34,17.49,17.35V47.52c-8.64-.94-14-6.05-14-14H736V31.46C736,21.67,729.5,15.26,719.13,14.26Zm0,33.33v3.1c10-.79,16.56-5.76,16.85-13.18h-3.6C732.23,43,727.05,46.87,719.13,47.59Zm75.66-32.76L772.9,46.44,751,14.83h-4l24.4,35.28h3l24.4-35.28ZM747,50.11h3.24v-20L747,25.2Zm48.52,0h3.31V25.2l-3.31,4.9ZM825.26,5.4V2.3c-9.8.8-15.7,5.91-15.7,13.83v1.51h3.31V16.13C812.87,10.08,817.48,6.19,825.26,5.4Zm5.9-3.1V5.4c7.2.72,11.52,4.1,11.52,9.29v.72c0,3.45-2,5.69-8.57,9.43C827.92,28.37,826,31.1,826,36.36v2.88h3.16V36.36c0-4.1,1.73-6.34,7.63-9.65,6.85-3.89,9.37-6.91,9.37-11.23v-.86C846.14,7.92,840.16,3.17,831.16,2.3Zm-3.6,48.6a2.56,2.56,0,1,0,0-5.11,2.56,2.56,0,1,0,0,5.11Z"/> <path class="cls-2" d="M948.88,50.11V2.88h-3.53V50.11Zm5.9-25.2v3.17h30.75v22h3.53V2.88h-3.53v22Zm63.75-7.56V14.26c-11,1-17.79,7.48-17.79,17.56v1.52c0,9.86,6.77,16.34,17.79,17.35V47.52c-8.86-.94-14.33-6.12-14.33-14.26V31.82C1004.2,23.62,1009.53,18.36,1018.53,17.35Zm5.9-3.09v3.16c8.79.94,14.11,6.34,14.11,14.4v1.44c0,8.07-5.4,13.4-14.11,14.26v3.17c10.87-1,17.57-7.49,17.57-17.35V31.82C1042,21.82,1035.3,15.26,1024.43,14.26Zm43.64,35.85L1051.8,14.83h-3.53v.58l16,34.7Zm32.19,0-15.91-35.28H1081L1069.59,39l1.8,4.18,11.3-24.12,14,31Zm1.66-10.87,1.65,4L1117,15.41v-.58h-3.39Zm19.54,21.17h3.24l6-17.21v-.58h-3.81Zm66.44-10.3L1169,2.88h-3.6v.58l18.72,46.65Zm3.32-7.49,14.47-35.13,17.21,42.62h3.67L1207.63,2.88h-3.89l-14.4,34.85Zm36.86-4.89,1.87,4.89,15.91-39.16V2.88h-3.6Zm26.84,12.38h3.39V0h-3.39ZM1264.21,17V20.3a16.33,16.33,0,0,1,9.72-3.09c10.08,0,15.41,5,15.41,14.25V50.11h3.38V31.46c0-11.37-6.48-17.42-18.36-17.42A18.15,18.15,0,0,0,1264.21,17Zm62.35-2.73v3.16c8.06.94,13.1,5.84,13.32,13.25h-33.19c.29-7.41,5.54-12.31,14-13.25V14.26c-10.73,1-17.5,7.56-17.5,17.42v1.66c0,9.79,6.7,16.34,17.5,17.35V47.52c-8.64-.94-14-6.05-14-14h36.72V31.46C1343.41,21.67,1336.93,15.26,1326.56,14.26Zm0,33.33v3.1c10-.79,16.56-5.76,16.85-13.18h-3.6C1339.66,43,1334.48,46.87,1326.56,47.59ZM1363.7,17V20.3a16.35,16.35,0,0,1,9.72-3.09c10.08,0,15.41,5,15.41,14.25V50.11h3.39V31.46c0-11.37-6.48-17.42-18.36-17.42A18.16,18.16,0,0,0,1363.7,17Zm-9.28,33.12h3.38V14.83h-3.38ZM1450.63,5.4V2.3c-8.93.65-14.47,4.47-14.47,10.23v.57c0,4,2.09,6.34,8.35,10.44l40.75,26.57h5v-.57L1446.46,21c-5-3.31-6.84-5.11-6.84-7.85v-.64C1439.62,8.42,1443.65,5.9,1450.63,5.4ZM1458.84,22l3,2c7.13-2.88,9.51-5.69,9.51-10.44v-.72c0-5.76-5.84-9.87-14.76-10.52V5.4c7,.58,11.3,3.46,11.3,7.49v.65C1467.84,17.21,1465.9,19.22,1458.84,22Zm17.86,11.66,2.8,1.88L1491,24.26v-.5h-4.24Zm-9.15,12.1-3.24-2.16a21.57,21.57,0,0,1-13,4.18c-10.15,0-16.13-3.24-16.13-8.86v-.72c0-3.31,2-5.11,8.72-7.85l-2.88-1.94c-6.92,3-9.29,5.76-9.29,9.93V39c0,7.28,7.56,11.88,19.65,11.88A26.45,26.45,0,0,0,1467.55,45.72Zm74.94,4.39L1523.63,2.88H1520v.58l18.72,46.65Zm3.31-7.49,14.48-35.13,17.2,42.62h3.68L1562.22,2.88h-3.89l-14.4,34.85Zm36.87-4.89,1.87,4.89,15.91-39.16V2.88h-3.6Zm26.84,12.38h3.38V0h-3.38ZM1618.8,17V20.3a16.33,16.33,0,0,1,9.72-3.09c10.08,0,15.41,5,15.41,14.25V50.11h3.38V31.46c0-11.37-6.48-17.42-18.36-17.42A18.11,18.11,0,0,0,1618.8,17Zm52.75,27.43,1.8-3.6-14.19-26h-3.52v.58Zm22.68-29.59-21.31,39c-2.38,4.32-4.4,5.47-9.36,5.47h-5.33v3h5.33c7,0,9.79-2.16,12.6-7.34l21.6-39.6v-.58Zm27.09-9.43V2.3c-9.79.8-15.7,5.91-15.7,13.83v1.51h3.32V16.13C1708.94,10.08,1713.54,6.19,1721.32,5.4Zm5.9-3.1V5.4c7.2.72,11.52,4.1,11.52,9.29v.72c0,3.45-2,5.69-8.56,9.43-6.2,3.53-8.14,6.26-8.14,11.52v2.88h3.17V36.36c0-4.1,1.73-6.34,7.63-9.65,6.84-3.89,9.36-6.91,9.36-11.23v-.86C1742.2,7.92,1736.22,3.17,1727.22,2.3Zm-3.6,48.6a2.56,2.56,0,1,0,0-5.11,2.56,2.56,0,1,0,0,5.11Z"/> <path class="cls-1" d="M1834.45,50.11H1838V2.88h-3.53ZM1879,2.88h-4.18l-23.76,21.89h-7.2v3.17h7.2l23.48,22.17h4.1v-.57l-24.41-23.26L1879,3.46Zm22.55,14.62V14.26c-9.29.86-15.41,6-15.41,12.88v.58h3.31v-.58C1889.47,22,1894.37,18.29,1901.57,17.5Zm5.9-3.24V17.5c7.92.72,12.17,4.6,12.17,11.23V42.62c0,4.68,3.09,7.49,8.35,7.49h3.82v-3h-3.17c-3.6,0-5.69-1.87-5.69-5.11V28.73C1923,20.3,1917.33,15.05,1907.47,14.26ZM1914,47.59l-.22-3.17a22.34,22.34,0,0,1-12.52,3.46c-7.92,0-11.88-2.16-11.88-6.41s3.24-6.26,10.44-7l14-1.44V30.17l-14.61,1.51c-8.93.94-13.18,4.1-13.18,9.79,0,6.19,5.26,9.43,15.34,9.43A23,23,0,0,0,1914,47.59Zm25,2.52h3.39V14.83h-3.39Zm18.43-17.78L1977,15.41v-.58h-4l-18.72,16.06h-6.12v3h6.26l19.66,16.2H1978v-.57Zm30.79,28.08h3.24l6-17.21v-.58h-3.81Zm53.09-10.3h3.38V14.83h-3.38Zm18.43-17.78,19.65-16.92v-.58h-4l-18.72,16.06h-6.12v3h6.27l19.65,16.2h3.89v-.57Zm43-15V14.26c-11,1-17.79,7.48-17.79,17.56v1.52c0,9.86,6.77,16.34,17.79,17.35V47.52c-8.86-.94-14.33-6.12-14.33-14.26V31.82C2088.35,23.62,2093.68,18.36,2102.68,17.35Zm5.9-3.09v3.16c8.78.94,14.11,6.34,14.11,14.4v1.44c0,8.07-5.4,13.4-14.11,14.26v3.17c10.87-1,17.57-7.49,17.57-17.35V31.82C2126.15,21.82,2119.45,15.26,2108.58,14.26Zm31.94,35.85V14.83h-3.39V50.11Zm5.9-35.28v3.1h19.87v-3.1Zm54.27,0h-24.63l-.36,18.36c-.14,6.05-1.73,10.51-4.17,13.9h-5.33l.07,12.24h3.31V50.11h31.11v-3H2175c2.23-3.39,3.75-7.63,3.89-13.9l.29-15.33h21.53ZM2210,47.09V14.83h-3.38V50.11H2214v9.22h3.31V47.09Zm30.15-29.59V14.26c-9.29.86-15.41,6-15.41,12.88v.58H2228v-.58C2228,22,2232.92,18.29,2240.12,17.5Zm5.91-3.24V17.5c7.92.72,12.16,4.6,12.16,11.23V42.62c0,4.68,3.1,7.49,8.36,7.49h3.81v-3h-3.17c-3.6,0-5.68-1.87-5.68-5.11V28.73C2261.51,20.3,2255.89,15.05,2246,14.26Zm6.48,33.33-.22-3.17a22.38,22.38,0,0,1-12.53,3.46c-7.92,0-11.88-2.16-11.88-6.41s3.24-6.26,10.44-7l14-1.44V30.17l-14.62,1.51c-8.92.94-13.17,4.1-13.17,9.79,0,6.19,5.25,9.43,15.33,9.43A23.06,23.06,0,0,0,2252.51,47.59Zm87.63-32.76L2306.3,50.11h3.53l33.84-35.28ZM2306.3,41l3.24-3.67V14.83h-3.24Zm37.37-17-3.24,3.67V50.11h3.24Zm43.65,4.1c0-6.91,4.32-10.3,13.54-10.87v-3c-11.09.72-16.85,5.4-16.85,13.9v.43h3.31Zm29.52,4.1c3.89-1.44,6.2-4.1,6.2-7.56V24c0-6-5.55-9.36-16.28-9.8v3c8.64.36,12.82,2.59,12.82,6.84v.65c0,3.88-3.46,6.12-9.58,6.12h-11.23v3h12.1c6.19,0,9.65,2.16,9.65,6v.57c0,4.68-4.32,7-13.76,7.28v3.09c11.52-.43,17.21-3.89,17.21-10.22V40C2424,36.29,2421.31,33.48,2416.84,32.18Zm-29.52,4.76V36.5H2384v.44c0,8.56,5.69,13.1,16.85,13.82v-3C2391.72,47.09,2387.32,43.7,2387.32,36.94Zm62.54-19.44V14.26c-9.28.86-15.4,6-15.4,12.88v.58h3.31v-.58C2437.77,22,2442.66,18.29,2449.86,17.5Zm5.91-3.24V17.5c7.92.72,12.17,4.6,12.17,11.23V42.62c0,4.68,3.09,7.49,8.35,7.49h3.81v-3h-3.16c-3.6,0-5.69-1.87-5.69-5.11V28.73C2471.25,20.3,2465.63,15.05,2455.77,14.26Zm6.48,33.33-.22-3.17a22.38,22.38,0,0,1-12.53,3.46c-7.92,0-11.88-2.16-11.88-6.41s3.24-6.26,10.44-7l14-1.44V30.17l-14.61,1.51c-8.93.94-13.18,4.1-13.18,9.79,0,6.19,5.26,9.43,15.34,9.43A23,23,0,0,0,2462.25,47.59Zm48.15-10.15v-3.1a61.35,61.35,0,0,1-10.44,1c-8.57,0-13-3.38-13-9.86V14.83h-3.39v11c0,8.28,5.55,12.6,16.13,12.6A69.31,69.31,0,0,0,2510.4,37.44Zm5.9,12.67h3.31V14.83h-3.31Zm37.28-35.85v3.16c8.06.94,13.1,5.84,13.32,13.25h-33.19c.29-7.41,5.54-12.31,14-13.25V14.26c-10.73,1-17.5,7.56-17.5,17.42v1.66c0,9.79,6.7,16.34,17.5,17.35V47.52c-8.64-.94-14-6.05-14-14h36.72V31.46C2570.43,21.67,2564,15.26,2553.58,14.26Zm0,33.33v3.1c10-.79,16.56-5.76,16.85-13.18h-3.6C2566.68,43,2561.5,46.87,2553.58,47.59Zm75.67-32.76-21.89,31.61-21.89-31.61h-4l24.41,35.28h3l24.41-35.28Zm-47.81,35.28h3.24v-20l-3.24-4.9Zm48.53,0h3.31V25.2L2630,30.1ZM2659.71,5.4V2.3c-9.79.8-15.7,5.91-15.7,13.83v1.51h3.31V16.13C2647.32,10.08,2651.93,6.19,2659.71,5.4Zm5.9-3.1V5.4c7.2.72,11.52,4.1,11.52,9.29v.72c0,3.45-2,5.69-8.57,9.43-6.19,3.53-8.13,6.26-8.13,11.52v2.88h3.17V36.36c0-4.1,1.72-6.34,7.63-9.65,6.84-3.89,9.36-6.91,9.36-11.23v-.86C2680.59,7.92,2674.61,3.17,2665.61,2.3ZM2662,50.9a2.56,2.56,0,1,0,0-5.11,2.56,2.56,0,1,0,0,5.11Z"/> <path class="cls-2" d="M2783.33,50.11V2.88h-3.53V50.11Zm5.91-25.2v3.17H2820v22h3.53V2.88H2820v22ZM2853,17.35V14.26c-11,1-17.78,7.48-17.78,17.56v1.52c0,9.86,6.76,16.34,17.78,17.35V47.52c-8.86-.94-14.33-6.12-14.33-14.26V31.82C2838.65,23.62,2844,18.36,2853,17.35Zm5.9-3.09v3.16c8.79.94,14.12,6.34,14.12,14.4v1.44c0,8.07-5.4,13.4-14.12,14.26v3.17c10.88-1,17.57-7.49,17.57-17.35V31.82C2876.45,21.82,2869.76,15.26,2858.88,14.26Zm43.65,35.85-16.27-35.28h-3.53v.58l16,34.7Zm32.18,0L2918.8,14.83h-3.38L2904,39l1.8,4.18,11.3-24.12,14,31Zm1.66-10.87,1.65,4,13.47-27.79v-.58h-3.39Zm19.55,21.17h3.24l6-17.21v-.58h-3.81Zm66.44-10.3L3003.49,2.88h-3.6v.58l18.72,46.65Zm3.31-7.49,14.47-35.13,17.21,42.62H3061L3042.08,2.88h-3.88l-14.4,34.85Zm36.86-4.89,1.87,4.89,15.92-39.16V2.88h-3.6Zm26.84,12.38h3.39V0h-3.39ZM3098.66,17V20.3a16.33,16.33,0,0,1,9.72-3.09c10.08,0,15.41,5,15.41,14.25V50.11h3.38V31.46c0-11.37-6.48-17.42-18.36-17.42A18.15,18.15,0,0,0,3098.66,17ZM3161,14.26v3.16c8.06.94,13.1,5.84,13.32,13.25h-33.19c.29-7.41,5.54-12.31,14-13.25V14.26c-10.73,1-17.5,7.56-17.5,17.42v1.66c0,9.79,6.7,16.34,17.5,17.35V47.52c-8.64-.94-14-6.05-14-14h36.72V31.46C3177.86,21.67,3171.38,15.26,3161,14.26Zm0,33.33v3.1c10-.79,16.56-5.76,16.85-13.18h-3.6C3174.11,43,3168.93,46.87,3161,47.59ZM3198.15,17V20.3a16.35,16.35,0,0,1,9.72-3.09c10.08,0,15.41,5,15.41,14.25V50.11h3.39V31.46c0-11.37-6.48-17.42-18.36-17.42A18.16,18.16,0,0,0,3198.15,17Zm-9.28,33.12h3.38V14.83h-3.38ZM3285.08,5.4V2.3c-8.93.65-14.47,4.47-14.47,10.23v.57c0,4,2.09,6.34,8.35,10.44l40.75,26.57h5v-.57L3280.91,21c-5-3.31-6.84-5.11-6.84-7.85v-.64C3274.07,8.42,3278.1,5.9,3285.08,5.4ZM3293.29,22l2.95,2c7.13-2.88,9.51-5.69,9.51-10.44v-.72c0-5.76-5.84-9.87-14.76-10.52V5.4c7,.58,11.3,3.46,11.3,7.49v.65C3302.29,17.21,3300.35,19.22,3293.29,22Zm17.86,11.66,2.8,1.88,11.52-11.24v-.5h-4.24ZM3302,45.72l-3.24-2.16a21.57,21.57,0,0,1-13,4.18c-10.15,0-16.13-3.24-16.13-8.86v-.72c0-3.31,1.95-5.11,8.72-7.85l-2.88-1.94c-6.92,3-9.29,5.76-9.29,9.93V39c0,7.28,7.56,11.88,19.65,11.88A26.45,26.45,0,0,0,3302,45.72Zm74.94,4.39L3358.08,2.88h-3.6v.58l18.72,46.65Zm3.31-7.49,14.48-35.13,17.2,42.62h3.68L3396.67,2.88h-3.89l-14.4,34.85Zm36.87-4.89,1.87,4.89L3434.9,3.46V2.88h-3.6ZM3444,50.11h3.38V0H3444ZM3453.25,17V20.3a16.33,16.33,0,0,1,9.72-3.09c10.08,0,15.41,5,15.41,14.25V50.11h3.38V31.46c0-11.37-6.48-17.42-18.36-17.42A18.11,18.11,0,0,0,3453.25,17ZM3506,44.42l1.8-3.6-14.19-26h-3.52v.58Zm22.68-29.59-21.31,39c-2.38,4.32-4.4,5.47-9.36,5.47h-5.33v3H3498c7,0,9.79-2.16,12.6-7.34l21.6-39.6v-.58Zm27.09-9.43V2.3c-9.79.8-15.7,5.91-15.7,13.83v1.51h3.32V16.13C3543.39,10.08,3548,6.19,3555.77,5.4Zm5.9-3.1V5.4c7.2.72,11.52,4.1,11.52,9.29v.72c0,3.45-2,5.69-8.56,9.43-6.2,3.53-8.14,6.26-8.14,11.52v2.88h3.17V36.36c0-4.1,1.73-6.34,7.63-9.65,6.84-3.89,9.36-6.91,9.36-11.23v-.86C3576.65,7.92,3570.67,3.17,3561.67,2.3Zm-3.6,48.6a2.56,2.56,0,1,0,0-5.11,2.56,2.56,0,1,0,0,5.11Z"/> <path class="cls-1" d="M3668.9,50.11h3.53V2.88h-3.53Zm44.57-47.23h-4.17l-23.76,21.89h-7.2v3.17h7.2L3709,50.11h4.1v-.57L3688.7,26.28l24.77-22.82ZM3736,17.5V14.26c-9.29.86-15.41,6-15.41,12.88v.58h3.31v-.58C3723.92,22,3728.82,18.29,3736,17.5Zm5.9-3.24V17.5c7.92.72,12.17,4.6,12.17,11.23V42.62c0,4.68,3.1,7.49,8.35,7.49h3.82v-3h-3.17c-3.6,0-5.69-1.87-5.69-5.11V28.73C3757.4,20.3,3751.79,15.05,3741.92,14.26Zm6.48,33.33-.21-3.17a22.38,22.38,0,0,1-12.53,3.46c-7.92,0-11.88-2.16-11.88-6.41s3.24-6.26,10.44-7l14-1.44V30.17l-14.62,1.51c-8.93.94-13.18,4.1-13.18,9.79,0,6.19,5.26,9.43,15.34,9.43A23,23,0,0,0,3748.4,47.59Zm25,2.52h3.39V14.83h-3.39Zm18.44-17.78,19.65-16.92v-.58h-4l-18.72,16.06h-6.12v3h6.27l19.65,16.2h3.89v-.57Zm30.78,28.08h3.24l6.05-17.21v-.58h-3.82Zm53.09-10.3h3.38V14.83h-3.38Zm18.43-17.78,19.66-16.92v-.58h-4l-18.72,16.06H3885v3h6.26l19.66,16.2h3.88v-.57Zm43-15V14.26c-11,1-17.79,7.48-17.79,17.56v1.52c0,9.86,6.77,16.34,17.79,17.35V47.52c-8.86-.94-14.33-6.12-14.33-14.26V31.82C3922.8,23.62,3928.13,18.36,3937.13,17.35Zm5.9-3.09v3.16c8.79.94,14.11,6.34,14.11,14.4v1.44c0,8.07-5.4,13.4-14.11,14.26v3.17c10.87-1,17.57-7.49,17.57-17.35V31.82C3960.6,21.82,3953.9,15.26,3943,14.26ZM3975,50.11V14.83h-3.39V50.11Zm5.9-35.28v3.1h19.87v-3.1Zm54.27,0h-24.63l-.36,18.36c-.14,6.05-1.72,10.51-4.17,13.9h-5.33l.07,12.24H4004V50.11h31.11v-3h-25.71c2.24-3.39,3.75-7.63,3.89-13.9l.29-15.33h21.53Zm9.29,32.26V14.83H4041V50.11h7.42v9.22h3.31V47.09Zm30.14-29.59V14.26c-9.28.86-15.4,6-15.4,12.88v.58h3.31v-.58C4062.48,22,4067.37,18.29,4074.57,17.5Zm5.91-3.24V17.5c7.92.72,12.17,4.6,12.17,11.23V42.62c0,4.68,3.09,7.49,8.35,7.49h3.81v-3h-3.16c-3.6,0-5.69-1.87-5.69-5.11V28.73C4096,20.3,4090.34,15.05,4080.48,14.26ZM4087,47.59l-.22-3.17a22.38,22.38,0,0,1-12.53,3.46c-7.92,0-11.88-2.16-11.88-6.41s3.24-6.26,10.44-7l14-1.44V30.17l-14.61,1.51c-8.93.94-13.18,4.1-13.18,9.79,0,6.19,5.26,9.43,15.34,9.43A23,23,0,0,0,4087,47.59Zm87.64-32.76-33.84,35.28h3.52l33.84-35.28ZM4140.76,41,4144,37.3V14.83h-3.24Zm37.36-17-3.24,3.67V50.11h3.24Zm43.66,4.1c0-6.91,4.32-10.3,13.53-10.87v-3c-11.09.72-16.85,5.4-16.85,13.9v.43h3.32Zm29.52,4.1c3.88-1.44,6.19-4.1,6.19-7.56V24c0-6-5.55-9.36-16.27-9.8v3c8.64.36,12.81,2.59,12.81,6.84v.65c0,3.88-3.45,6.12-9.57,6.12h-11.24v3h12.1c6.19,0,9.65,2.16,9.65,6v.57c0,4.68-4.32,7-13.75,7.28v3.09c11.52-.43,17.2-3.89,17.2-10.22V40C4258.42,36.29,4255.76,33.48,4251.3,32.18Zm-29.52,4.76V36.5h-3.32v.44c0,8.56,5.69,13.1,16.85,13.82v-3C4226.17,47.09,4221.78,43.7,4221.78,36.94Zm62.54-19.44V14.26c-9.29.86-15.41,6-15.41,12.88v.58h3.31v-.58C4272.22,22,4277.12,18.29,4284.32,17.5Zm5.9-3.24V17.5c7.92.72,12.17,4.6,12.17,11.23V42.62c0,4.68,3.09,7.49,8.35,7.49h3.82v-3h-3.17c-3.6,0-5.69-1.87-5.69-5.11V28.73C4305.7,20.3,4300.08,15.05,4290.22,14.26Zm6.48,33.33-.22-3.17A22.34,22.34,0,0,1,4284,47.88c-7.92,0-11.88-2.16-11.88-6.41s3.24-6.26,10.44-7l14-1.44V30.17l-14.61,1.51c-8.93.94-13.18,4.1-13.18,9.79,0,6.19,5.26,9.43,15.34,9.43A23,23,0,0,0,4296.7,47.59Zm48.15-10.15v-3.1a61.25,61.25,0,0,1-10.44,1c-8.57,0-13-3.38-13-9.86V14.83H4318v11c0,8.28,5.55,12.6,16.13,12.6A69.21,69.21,0,0,0,4344.85,37.44Zm5.9,12.67h3.32V14.83h-3.32ZM4388,14.26v3.16c8.07.94,13.11,5.84,13.32,13.25h-33.19c.29-7.41,5.54-12.31,14-13.25V14.26c-10.73,1-17.5,7.56-17.5,17.42v1.66c0,9.79,6.7,16.34,17.5,17.35V47.52c-8.64-.94-14-6.05-14-14h36.72V31.46C4404.88,21.67,4398.4,15.26,4388,14.26Zm0,33.33v3.1c10-.79,16.56-5.76,16.85-13.18h-3.6C4401.14,43,4396,46.87,4388,47.59Zm75.67-32.76-21.89,31.61-21.89-31.61h-4l24.41,35.28h3l24.41-35.28Zm-47.81,35.28h3.24v-20l-3.24-4.9Zm48.53,0h3.31V25.2l-3.31,4.9ZM4494.16,5.4V2.3c-9.79.8-15.7,5.91-15.7,13.83v1.51h3.32V16.13C4481.78,10.08,4486.38,6.19,4494.16,5.4Zm5.9-3.1V5.4c7.2.72,11.52,4.1,11.52,9.29v.72c0,3.45-2,5.69-8.56,9.43-6.2,3.53-8.14,6.26-8.14,11.52v2.88h3.17V36.36c0-4.1,1.73-6.34,7.63-9.65,6.84-3.89,9.36-6.91,9.36-11.23v-.86C4515,7.92,4509.06,3.17,4500.06,2.3Zm-3.6,48.6a2.56,2.56,0,1,0,0-5.11,2.56,2.56,0,1,0,0,5.11Z"/> <path class="cls-2" d="M4617.78,50.11V2.88h-3.52V50.11Zm5.91-25.2v3.17h30.74v22H4658V2.88h-3.53v22Zm63.74-7.56V14.26c-11,1-17.78,7.48-17.78,17.56v1.52c0,9.86,6.77,16.34,17.78,17.35V47.52c-8.85-.94-14.33-6.12-14.33-14.26V31.82C4673.1,23.62,4678.43,18.36,4687.43,17.35Zm5.91-3.09v3.16c8.78.94,14.11,6.34,14.11,14.4v1.44c0,8.07-5.4,13.4-14.11,14.26v3.17c10.87-1,17.56-7.49,17.56-17.35V31.82C4710.9,21.82,4704.21,15.26,4693.34,14.26ZM4737,50.11l-16.27-35.28h-3.53v.58l16,34.7Zm32.18,0-15.91-35.28h-3.38L4738.49,39l1.8,4.18,11.31-24.12,14,31Zm1.66-10.87,1.66,4,13.46-27.79v-.58h-3.38Zm19.55,21.17h3.24l6.05-17.21v-.58h-3.82Zm66.44-10.3L4837.94,2.88h-3.6v.58l18.72,46.65Zm3.31-7.49,14.47-35.13,17.21,42.62h3.67L4876.54,2.88h-3.89l-14.4,34.85ZM4897,37.73l1.88,4.89,15.91-39.16V2.88h-3.6Zm26.85,12.38h3.38V0h-3.38ZM4933.11,17V20.3a16.35,16.35,0,0,1,9.72-3.09c10.08,0,15.41,5,15.41,14.25V50.11h3.38V31.46c0-11.37-6.48-17.42-18.36-17.42A18.15,18.15,0,0,0,4933.11,17Zm62.35-2.73v3.16c8.06.94,13.1,5.84,13.32,13.25h-33.19c.29-7.41,5.54-12.31,14-13.25V14.26c-10.73,1-17.5,7.56-17.5,17.42v1.66c0,9.79,6.7,16.34,17.5,17.35V47.52c-8.64-.94-14-6.05-14-14h36.72V31.46C5012.31,21.67,5005.83,15.26,4995.46,14.26Zm0,33.33v3.1c10-.79,16.56-5.76,16.85-13.18h-3.6C5008.56,43,5003.38,46.87,4995.46,47.59ZM5032.6,17V20.3a16.35,16.35,0,0,1,9.72-3.09c10.08,0,15.41,5,15.41,14.25V50.11h3.39V31.46c0-11.37-6.48-17.42-18.36-17.42A18.16,18.16,0,0,0,5032.6,17Zm-9.28,33.12h3.38V14.83h-3.38ZM5119.53,5.4V2.3c-8.93.65-14.47,4.47-14.47,10.23v.57c0,4,2.09,6.34,8.35,10.44l40.75,26.57h5v-.57L5115.36,21c-5-3.31-6.84-5.11-6.84-7.85v-.64C5108.52,8.42,5112.55,5.9,5119.53,5.4ZM5127.74,22l2.95,2c7.13-2.88,9.51-5.69,9.51-10.44v-.72c0-5.76-5.84-9.87-14.76-10.52V5.4c7,.58,11.3,3.46,11.3,7.49v.65C5136.74,17.21,5134.8,19.22,5127.74,22Zm17.86,11.66,2.8,1.88,11.52-11.24v-.5h-4.24Zm-9.15,12.1-3.24-2.16a21.57,21.57,0,0,1-13,4.18c-10.15,0-16.13-3.24-16.13-8.86v-.72c0-3.31,1.95-5.11,8.72-7.85L5110,28.37c-6.92,3-9.29,5.76-9.29,9.93V39c0,7.28,7.56,11.88,19.65,11.88A26.45,26.45,0,0,0,5136.45,45.72Zm74.94,4.39L5192.53,2.88h-3.6v.58l18.72,46.65Zm3.31-7.49,14.48-35.13,17.2,42.62h3.68L5231.12,2.88h-3.89l-14.4,34.85Zm36.87-4.89,1.87,4.89,15.91-39.16V2.88h-3.6Zm26.84,12.38h3.38V0h-3.38ZM5287.7,17V20.3a16.33,16.33,0,0,1,9.72-3.09c10.08,0,15.41,5,15.41,14.25V50.11h3.38V31.46c0-11.37-6.48-17.42-18.36-17.42A18.11,18.11,0,0,0,5287.7,17Zm52.75,27.43,1.8-3.6-14.19-26h-3.52v.58Zm22.68-29.59-21.31,39c-2.38,4.32-4.4,5.47-9.36,5.47h-5.33v3h5.33c7,0,9.79-2.16,12.6-7.34l21.6-39.6v-.58Zm27.09-9.43V2.3c-9.79.8-15.7,5.91-15.7,13.83v1.51h3.32V16.13C5377.84,10.08,5382.44,6.19,5390.22,5.4Zm5.9-3.1V5.4c7.2.72,11.52,4.1,11.52,9.29v.72c0,3.45-2,5.69-8.56,9.43-6.2,3.53-8.14,6.26-8.14,11.52v2.88h3.17V36.36c0-4.1,1.73-6.34,7.63-9.65,6.84-3.89,9.36-6.91,9.36-11.23v-.86C5411.1,7.92,5405.12,3.17,5396.12,2.3Zm-3.6,48.6a2.56,2.56,0,1,0,0-5.11,2.56,2.56,0,1,0,0,5.11Z"/> </g> </g> </svg>