<?xml version="1.0" encoding="UTF-8"?> <svg xmlns="http://www.w3.org/2000/svg" viewBox="0 0 3687.01 29.66"> <defs> <style>.cls-1{fill:#fff;}</style> </defs> <g id="Слой_2" data-name="Слой 2"> <g id="Слой_1-2" data-name="Слой 1"> <path class="cls-1" d="M0,25.06H1.76V1.44H0ZM4.72,3H18.36V1.44H4.72Zm27.72,4.4H20.12l-.18,9.18a12,12,0,0,1-2.08,6.94H15.19l0,6.12h1.65v-4.6H32.44V23.54H19.58a12.48,12.48,0,0,0,2-6.94l.14-7.67H32.44Zm4.64,16.12V7.42H35.39V25.06H39.1v4.6h1.65V23.54ZM54.62,7.13V8.71c4,.47,6.55,2.92,6.66,6.63H44.68c.15-3.71,2.77-6.16,7-6.63V7.13c-5.37.5-8.75,3.78-8.75,8.71v.83c0,4.89,3.35,8.17,8.75,8.67V23.76c-4.32-.47-7-3-7-7H63V15.73C63,10.84,59.8,7.63,54.62,7.13Zm0,16.67v1.54c5-.39,8.28-2.88,8.42-6.58h-1.8C61.17,21.49,58.58,23.44,54.62,23.8ZM74.81,2.7V1.15C69.92,1.55,67,4.1,67,8.06v.76h1.66V8.06C68.62,5,70.92,3.1,74.81,2.7Zm3-1.55V2.7c3.6.36,5.76,2.05,5.76,4.64V7.7c0,1.73-1,2.85-4.28,4.72-3.1,1.76-4.07,3.13-4.07,5.76v1.44h1.59V18.18c0-2.05.86-3.17,3.81-4.82C84,11.41,85.25,9.9,85.25,7.74V7.31C85.25,4,82.26,1.58,77.76,1.15ZM76,25.45a1.28,1.28,0,1,0-1.29-1.29A1.26,1.26,0,0,0,76,25.45Z"></path> <path class="cls-1" d="M161.46,25.06,152,1.44h-1.8v.29l9.36,23.33Zm1.66-3.75,7.23-17.57L179,25.06h1.83L171.32,1.44h-1.94l-7.2,17.42Zm18.43-2.45.93,2.45,8-19.58V1.44h-1.8ZM195,25.06h1.69V0H195ZM199.61,8.5v1.65a8.19,8.19,0,0,1,4.86-1.55c5,0,7.71,2.49,7.71,7.13v9.33h1.69V15.73c0-5.69-3.24-8.71-9.18-8.71A9,9,0,0,0,199.61,8.5Zm31.18-1.37V8.71c4,.47,6.55,2.92,6.66,6.63h-16.6c.15-3.71,2.77-6.16,7-6.63V7.13c-5.37.5-8.75,3.78-8.75,8.71v.83c0,4.89,3.35,8.17,8.75,8.67V23.76c-4.33-.47-7-3-7-7h18.36V15.73C239.21,10.84,236,7.63,230.79,7.13Zm0,16.67v1.54c5-.39,8.28-2.88,8.42-6.58h-1.8C237.34,21.49,234.75,23.44,230.79,23.8ZM249.36,8.5v1.65a8.14,8.14,0,0,1,4.86-1.55c5,0,7.7,2.49,7.7,7.13v9.33h1.69V15.73c0-5.69-3.23-8.71-9.17-8.71A9,9,0,0,0,249.36,8.5Zm-4.64,16.56h1.69V7.42h-1.69ZM276.57,2.7V1.15c-4.89.4-7.85,2.95-7.85,6.91v.76h1.66V8.06C270.38,5,272.69,3.1,276.57,2.7Zm3-1.55V2.7c3.6.36,5.76,2.05,5.76,4.64V7.7c0,1.73-1,2.85-4.29,4.72-3.09,1.76-4.07,3.13-4.07,5.76v1.44h1.59V18.18c0-2.05.86-3.17,3.81-4.82C285.75,11.41,287,9.9,287,7.74V7.31C287,4,284,1.58,279.53,1.15Zm-1.81,24.3a1.28,1.28,0,1,0-1.29-1.29A1.26,1.26,0,0,0,277.72,25.45Z"></path> <path class="cls-1" d="M680,25.06h1.76V1.44H680Zm4.72-22h13.64V1.44H684.72Zm27.72,4.4H700.12l-.18,9.18a12,12,0,0,1-2.08,6.94h-2.67l0,6.12h1.65v-4.6h15.56V23.54H699.59a12.56,12.56,0,0,0,1.94-6.94l.14-7.67h10.77Zm4.64,16.12V7.42h-1.69V25.06h3.71v4.6h1.65V23.54ZM734.62,7.13V8.71c4,.47,6.55,2.92,6.66,6.63h-16.6c.15-3.71,2.77-6.16,7-6.63V7.13c-5.37.5-8.75,3.78-8.75,8.71v.83c0,4.89,3.35,8.17,8.75,8.67V23.76c-4.32-.47-7-3-7-7H743V15.73C743,10.84,739.8,7.63,734.62,7.13Zm0,16.67v1.54c5-.39,8.28-2.88,8.42-6.58h-1.8C741.17,21.49,738.58,23.44,734.62,23.8ZM754.81,2.7V1.15c-4.89.4-7.85,2.95-7.85,6.91v.76h1.66V8.06C748.62,5,750.92,3.1,754.81,2.7Zm3-1.55V2.7c3.6.36,5.76,2.05,5.76,4.64V7.7c0,1.73-1,2.85-4.28,4.72-3.1,1.76-4.07,3.13-4.07,5.76v1.44h1.58V18.18c0-2.05.87-3.17,3.82-4.82,3.42-1.95,4.68-3.46,4.68-5.62V7.31C765.25,4,762.26,1.58,757.76,1.15ZM756,25.45a1.28,1.28,0,1,0-1.29-1.29A1.26,1.26,0,0,0,756,25.45Z"></path> <path class="cls-1" d="M841.46,25.06,832,1.44h-1.8v.29l9.36,23.33Zm1.66-3.75,7.23-17.57L859,25.06h1.83L851.32,1.44h-1.94l-7.2,17.42Zm18.43-2.45.93,2.45,8-19.58V1.44h-1.8ZM875,25.06h1.69V0H875ZM879.61,8.5v1.65a8.19,8.19,0,0,1,4.86-1.55c5,0,7.71,2.49,7.71,7.13v9.33h1.69V15.73c0-5.69-3.24-8.71-9.18-8.71A9,9,0,0,0,879.61,8.5Zm31.18-1.37V8.71c4,.47,6.55,2.92,6.66,6.63h-16.6c.14-3.71,2.77-6.16,7-6.63V7.13c-5.37.5-8.75,3.78-8.75,8.71v.83c0,4.89,3.34,8.17,8.75,8.67V23.76c-4.33-.47-7-3-7-7h18.36V15.73C919.21,10.84,916,7.63,910.79,7.13Zm0,16.67v1.54c5-.39,8.28-2.88,8.42-6.58h-1.8C917.34,21.49,914.75,23.44,910.79,23.8ZM929.36,8.5v1.65a8.17,8.17,0,0,1,4.86-1.55c5,0,7.7,2.49,7.7,7.13v9.33h1.7V15.73c0-5.69-3.25-8.71-9.19-8.71A9,9,0,0,0,929.36,8.5Zm-4.64,16.56h1.69V7.42h-1.69ZM956.57,2.7V1.15c-4.89.4-7.84,2.95-7.84,6.91v.76h1.65V8.06C950.38,5,952.68,3.1,956.57,2.7Zm3-1.55V2.7c3.59.36,5.76,2.05,5.76,4.64V7.7c0,1.73-1,2.85-4.29,4.72-3.09,1.76-4.07,3.13-4.07,5.76v1.44h1.59V18.18c0-2.05.86-3.17,3.81-4.82C965.75,11.41,967,9.9,967,7.74V7.31C967,4,964,1.58,959.53,1.15Zm-1.8,24.3a1.28,1.28,0,1,0,0-2.55,1.28,1.28,0,1,0,0,2.55Z"></path> <path class="cls-1" d="M1360,25.06h1.76V1.44H1360Zm4.71-22h13.65V1.44h-13.65Zm27.72,4.4h-12.31l-.18,9.18a11.89,11.89,0,0,1-2.09,6.94h-2.66l0,6.12h1.66v-4.6h15.55V23.54h-12.85a12.48,12.48,0,0,0,1.94-6.94l.15-7.67h10.76Zm4.65,16.12V7.42h-1.7V25.06h3.71v4.6h1.66V23.54Zm17.53-16.41V8.71c4,.47,6.56,2.92,6.66,6.63h-16.59c.14-3.71,2.77-6.16,7-6.63V7.13c-5.36.5-8.75,3.78-8.75,8.71v.83c0,4.89,3.35,8.17,8.75,8.67V23.76c-4.32-.47-7-3-7-7H1423V15.73C1423,10.84,1419.8,7.63,1414.61,7.13Zm0,16.67v1.54c5-.39,8.28-2.88,8.43-6.58h-1.8C1421.17,21.49,1418.57,23.44,1414.61,23.8Zm20.2-21.1V1.15c-4.9.4-7.85,2.95-7.85,6.91v.76h1.66V8.06C1428.62,5,1430.92,3.1,1434.81,2.7Zm3-1.55V2.7c3.6.36,5.76,2.05,5.76,4.64V7.7c0,1.73-1,2.85-4.28,4.72-3.1,1.76-4.07,3.13-4.07,5.76v1.44h1.58V18.18c0-2.05.87-3.17,3.82-4.82,3.42-1.95,4.68-3.46,4.68-5.62V7.31C1445.25,4,1442.26,1.58,1437.76,1.15Zm-1.8,24.3a1.28,1.28,0,1,0,0-2.55,1.28,1.28,0,1,0,0,2.55Z"></path> <path class="cls-1" d="M1521.46,25.06,1512,1.44h-1.8v.29l9.36,23.33Zm1.65-3.75,7.24-17.57,8.6,21.32h1.84l-9.47-23.62h-1.94l-7.2,17.42Zm18.43-2.45.94,2.45,8-19.58V1.44h-1.8Zm13.42,6.2h1.7V0H1555Zm4.65-16.56v1.65a8.14,8.14,0,0,1,4.86-1.55c5,0,7.7,2.49,7.7,7.13v9.33h1.69V15.73c0-5.69-3.24-8.71-9.18-8.71A9,9,0,0,0,1559.61,8.5Zm31.17-1.37V8.71c4,.47,6.55,2.92,6.66,6.63h-16.59c.14-3.71,2.77-6.16,7-6.63V7.13c-5.36.5-8.75,3.78-8.75,8.71v.83c0,4.89,3.35,8.17,8.75,8.67V23.76c-4.32-.47-7-3-7-7h18.36V15.73C1599.21,10.84,1596,7.63,1590.78,7.13Zm0,16.67v1.54c5-.39,8.28-2.88,8.43-6.58h-1.8C1597.33,21.49,1594.74,23.44,1590.78,23.8Zm18.58-15.3v1.65a8.14,8.14,0,0,1,4.86-1.55c5,0,7.7,2.49,7.7,7.13v9.33h1.69V15.73c0-5.69-3.24-8.71-9.18-8.71A9,9,0,0,0,1609.36,8.5Zm-4.65,16.56h1.69V7.42h-1.69ZM1636.57,2.7V1.15c-4.9.4-7.85,2.95-7.85,6.91v.76h1.66V8.06C1630.38,5,1632.68,3.1,1636.57,2.7Zm3-1.55V2.7c3.6.36,5.76,2.05,5.76,4.64V7.7c0,1.73-1,2.85-4.28,4.72-3.1,1.76-4.07,3.13-4.07,5.76v1.44h1.58V18.18c0-2.05.87-3.17,3.82-4.82,3.42-1.95,4.68-3.46,4.68-5.62V7.31C1647,4,1644,1.58,1639.52,1.15Zm-1.8,24.3a1.28,1.28,0,1,0,0-2.55,1.28,1.28,0,1,0,0,2.55Z"></path> <path class="cls-1" d="M340,25.06h1.76V1.44H340Zm4.72-22h13.64V1.44H344.72Zm27.72,4.4H360.13l-.19,9.18a12,12,0,0,1-2.08,6.94h-2.67l0,6.12h1.65v-4.6h15.56V23.54H359.59a12.56,12.56,0,0,0,1.94-6.94l.14-7.67h10.77Zm4.64,16.12V7.42h-1.69V25.06h3.71v4.6h1.65V23.54ZM394.62,7.13V8.71c4,.47,6.55,2.92,6.66,6.63h-16.6c.15-3.71,2.77-6.16,7-6.63V7.13c-5.37.5-8.75,3.78-8.75,8.71v.83c0,4.89,3.35,8.17,8.75,8.67V23.76c-4.32-.47-7-3-7-7H403V15.73C403,10.84,399.8,7.63,394.62,7.13Zm0,16.67v1.54c5-.39,8.28-2.88,8.42-6.58h-1.8C401.17,21.49,398.58,23.44,394.62,23.8ZM414.81,2.7V1.15c-4.9.4-7.85,2.95-7.85,6.91v.76h1.66V8.06C408.62,5,410.92,3.1,414.81,2.7Zm2.95-1.55V2.7c3.6.36,5.76,2.05,5.76,4.64V7.7c0,1.73-1,2.85-4.28,4.72-3.1,1.76-4.07,3.13-4.07,5.76v1.44h1.59V18.18c0-2.05.86-3.17,3.81-4.82,3.42-1.95,4.68-3.46,4.68-5.62V7.31C425.25,4,422.26,1.58,417.76,1.15ZM416,25.45a1.28,1.28,0,1,0-1.29-1.29A1.26,1.26,0,0,0,416,25.45Z"></path> <path class="cls-1" d="M501.46,25.06,492,1.44h-1.8v.29l9.36,23.33Zm1.66-3.75,7.23-17.57L519,25.06h1.83L511.32,1.44h-1.94l-7.2,17.42Zm18.43-2.45.93,2.45,8-19.58V1.44h-1.8ZM535,25.06h1.69V0H535ZM539.61,8.5v1.65a8.19,8.19,0,0,1,4.86-1.55c5,0,7.71,2.49,7.71,7.13v9.33h1.69V15.73c0-5.69-3.24-8.71-9.18-8.71A9,9,0,0,0,539.61,8.5Zm31.18-1.37V8.71c4,.47,6.55,2.92,6.66,6.63h-16.6c.14-3.71,2.77-6.16,7-6.63V7.13c-5.37.5-8.75,3.78-8.75,8.71v.83c0,4.89,3.34,8.17,8.75,8.67V23.76c-4.33-.47-7-3-7-7h18.36V15.73C579.21,10.84,576,7.63,570.79,7.13Zm0,16.67v1.54c5-.39,8.28-2.88,8.42-6.58h-1.8C577.34,21.49,574.75,23.44,570.79,23.8ZM589.36,8.5v1.65a8.17,8.17,0,0,1,4.86-1.55c5,0,7.7,2.49,7.7,7.13v9.33h1.7V15.73c0-5.69-3.25-8.71-9.19-8.71A9,9,0,0,0,589.36,8.5Zm-4.64,16.56h1.69V7.42h-1.69ZM616.57,2.7V1.15c-4.89.4-7.84,2.95-7.84,6.91v.76h1.65V8.06C610.38,5,612.68,3.1,616.57,2.7Zm3-1.55V2.7c3.59.36,5.76,2.05,5.76,4.64V7.7c0,1.73-1,2.85-4.29,4.72-3.09,1.76-4.07,3.13-4.07,5.76v1.44h1.59V18.18c0-2.05.86-3.17,3.81-4.82C625.75,11.41,627,9.9,627,7.74V7.31C627,4,624,1.58,619.53,1.15Zm-1.8,24.3a1.28,1.28,0,1,0,0-2.55,1.28,1.28,0,1,0,0,2.55Z"></path> <path class="cls-1" d="M1020,25.06h1.76V1.44H1020Zm4.71-22h13.65V1.44h-13.65Zm27.72,4.4h-12.31l-.18,9.18a11.89,11.89,0,0,1-2.09,6.94h-2.66l0,6.12h1.66v-4.6h15.55V23.54h-12.85a12.48,12.48,0,0,0,1.94-6.94l.15-7.67h10.76Zm4.65,16.12V7.42h-1.7V25.06h3.71v4.6h1.66V23.54Zm17.53-16.41V8.71c4,.47,6.56,2.92,6.66,6.63h-16.59c.14-3.71,2.77-6.16,7-6.63V7.13c-5.36.5-8.75,3.78-8.75,8.71v.83c0,4.89,3.35,8.17,8.75,8.67V23.76c-4.32-.47-7-3-7-7H1083V15.73C1083,10.84,1079.8,7.63,1074.61,7.13Zm0,16.67v1.54c5-.39,8.28-2.88,8.43-6.58h-1.8C1081.17,21.49,1078.57,23.44,1074.61,23.8Zm20.2-21.1V1.15c-4.9.4-7.85,2.95-7.85,6.91v.76h1.66V8.06C1088.62,5,1090.92,3.1,1094.81,2.7Zm3-1.55V2.7c3.6.36,5.76,2.05,5.76,4.64V7.7c0,1.73-1,2.85-4.28,4.72-3.1,1.76-4.07,3.13-4.07,5.76v1.44h1.58V18.18c0-2.05.87-3.17,3.82-4.82,3.42-1.95,4.68-3.46,4.68-5.62V7.31C1105.25,4,1102.26,1.58,1097.76,1.15Zm-1.8,24.3a1.28,1.28,0,1,0,0-2.55,1.28,1.28,0,1,0,0,2.55Z"></path> <path class="cls-1" d="M1181.46,25.06,1172,1.44h-1.8v.29l9.36,23.33Zm1.65-3.75,7.24-17.57,8.6,21.32h1.84l-9.47-23.62h-1.94l-7.2,17.42Zm18.43-2.45.94,2.45,8-19.58V1.44h-1.8Zm13.42,6.2h1.7V0H1215Zm4.65-16.56v1.65a8.14,8.14,0,0,1,4.86-1.55c5,0,7.7,2.49,7.7,7.13v9.33h1.69V15.73c0-5.69-3.24-8.71-9.18-8.71A9,9,0,0,0,1219.61,8.5Zm31.17-1.37V8.71c4,.47,6.55,2.92,6.66,6.63h-16.59c.14-3.71,2.77-6.16,7-6.63V7.13c-5.36.5-8.75,3.78-8.75,8.71v.83c0,4.89,3.35,8.17,8.75,8.67V23.76c-4.32-.47-7-3-7-7h18.36V15.73C1259.21,10.84,1256,7.63,1250.78,7.13Zm0,16.67v1.54c5-.39,8.28-2.88,8.43-6.58h-1.8C1257.33,21.49,1254.74,23.44,1250.78,23.8Zm18.58-15.3v1.65a8.14,8.14,0,0,1,4.86-1.55c5,0,7.7,2.49,7.7,7.13v9.33h1.69V15.73c0-5.69-3.24-8.71-9.18-8.71A9,9,0,0,0,1269.36,8.5Zm-4.65,16.56h1.69V7.42h-1.69ZM1296.57,2.7V1.15c-4.9.4-7.85,2.95-7.85,6.91v.76h1.66V8.06C1290.38,5,1292.68,3.1,1296.57,2.7Zm3-1.55V2.7c3.6.36,5.76,2.05,5.76,4.64V7.7c0,1.73-1,2.85-4.28,4.72-3.1,1.76-4.07,3.13-4.07,5.76v1.44h1.58V18.18c0-2.05.87-3.17,3.82-4.82,3.42-1.95,4.68-3.46,4.68-5.62V7.31C1307,4,1304,1.58,1299.52,1.15Zm-1.8,24.3a1.28,1.28,0,1,0,0-2.55,1.28,1.28,0,1,0,0,2.55Z"></path> <path class="cls-1" d="M1700,25.06h1.76V1.44H1700Zm4.71-22h13.65V1.44h-13.65Zm27.72,4.4h-12.31l-.18,9.18a11.89,11.89,0,0,1-2.09,6.94h-2.66l0,6.12h1.66v-4.6h15.55V23.54h-12.85a12.48,12.48,0,0,0,1.94-6.94l.15-7.67h10.76Zm4.65,16.12V7.42h-1.7V25.06h3.71v4.6h1.66V23.54Zm17.53-16.41V8.71c4,.47,6.56,2.92,6.66,6.63h-16.59c.14-3.71,2.77-6.16,7-6.63V7.13c-5.36.5-8.75,3.78-8.75,8.71v.83c0,4.89,3.35,8.17,8.75,8.67V23.76c-4.32-.47-7-3-7-7H1763V15.73C1763,10.84,1759.8,7.63,1754.61,7.13Zm0,16.67v1.54c5-.39,8.28-2.88,8.43-6.58h-1.8C1761.17,21.49,1758.57,23.44,1754.61,23.8Zm20.2-21.1V1.15c-4.9.4-7.85,2.95-7.85,6.91v.76h1.66V8.06C1768.62,5,1770.92,3.1,1774.81,2.7Zm3-1.55V2.7c3.6.36,5.76,2.05,5.76,4.64V7.7c0,1.73-1,2.85-4.28,4.72-3.1,1.76-4.07,3.13-4.07,5.76v1.44h1.58V18.18c0-2.05.87-3.17,3.82-4.82,3.42-1.95,4.68-3.46,4.68-5.62V7.31C1785.25,4,1782.26,1.58,1777.76,1.15Zm-1.8,24.3a1.28,1.28,0,1,0,0-2.55,1.28,1.28,0,1,0,0,2.55Z"></path> <path class="cls-1" d="M1861.46,25.06,1852,1.44h-1.8v.29l9.36,23.33Zm1.65-3.75,7.24-17.57,8.6,21.32h1.84l-9.47-23.62h-1.94l-7.2,17.42Zm18.43-2.45.94,2.45,8-19.58V1.44h-1.8Zm13.42,6.2h1.7V0H1895Zm4.65-16.56v1.65a8.14,8.14,0,0,1,4.86-1.55c5,0,7.7,2.49,7.7,7.13v9.33h1.69V15.73c0-5.69-3.24-8.71-9.18-8.71A9,9,0,0,0,1899.61,8.5Zm31.17-1.37V8.71c4,.47,6.55,2.92,6.66,6.63h-16.59c.14-3.71,2.77-6.16,7-6.63V7.13c-5.36.5-8.75,3.78-8.75,8.71v.83c0,4.89,3.35,8.17,8.75,8.67V23.76c-4.32-.47-7-3-7-7h18.36V15.73C1939.21,10.84,1936,7.63,1930.78,7.13Zm0,16.67v1.54c5-.39,8.28-2.88,8.43-6.58h-1.8C1937.33,21.49,1934.74,23.44,1930.78,23.8Zm18.58-15.3v1.65a8.14,8.14,0,0,1,4.86-1.55c5,0,7.7,2.49,7.7,7.13v9.33h1.69V15.73c0-5.69-3.24-8.71-9.18-8.71A9,9,0,0,0,1949.36,8.5Zm-4.65,16.56h1.69V7.42h-1.69ZM1976.57,2.7V1.15c-4.9.4-7.85,2.95-7.85,6.91v.76h1.66V8.06C1970.38,5,1972.68,3.1,1976.57,2.7Zm3-1.55V2.7c3.6.36,5.76,2.05,5.76,4.64V7.7c0,1.73-1,2.85-4.28,4.72-3.1,1.76-4.07,3.13-4.07,5.76v1.44h1.58V18.18c0-2.05.87-3.17,3.82-4.82,3.42-1.95,4.68-3.46,4.68-5.62V7.31C1987,4,1984,1.58,1979.52,1.15Zm-1.8,24.3a1.28,1.28,0,1,0,0-2.55,1.28,1.28,0,1,0,0,2.55Z"></path> <path class="cls-1" d="M2380,25.06h1.76V1.44H2380Zm4.72-22h13.64V1.44h-13.64Zm27.72,4.4h-12.32l-.18,9.18a12,12,0,0,1-2.08,6.94h-2.67l0,6.12h1.65v-4.6h15.56V23.54h-12.85a12.56,12.56,0,0,0,1.94-6.94l.14-7.67h10.77Zm4.64,16.12V7.42h-1.69V25.06h3.71v4.6h1.65V23.54Zm17.54-16.41V8.71c4,.47,6.55,2.92,6.66,6.63h-16.6c.15-3.71,2.77-6.16,7-6.63V7.13c-5.37.5-8.75,3.78-8.75,8.71v.83c0,4.89,3.35,8.17,8.75,8.67V23.76c-4.32-.47-7-3-7-7H2443V15.73C2443,10.84,2439.8,7.63,2434.62,7.13Zm0,16.67v1.54c5-.39,8.28-2.88,8.42-6.58h-1.8C2441.17,21.49,2438.58,23.44,2434.62,23.8Zm20.19-21.1V1.15c-4.89.4-7.85,2.95-7.85,6.91v.76h1.66V8.06C2448.62,5,2450.92,3.1,2454.81,2.7Zm3-1.55V2.7c3.6.36,5.76,2.05,5.76,4.64V7.7c0,1.73-1,2.85-4.28,4.72-3.1,1.76-4.07,3.13-4.07,5.76v1.44h1.58V18.18c0-2.05.87-3.17,3.82-4.82,3.42-1.95,4.68-3.46,4.68-5.62V7.31C2465.25,4,2462.26,1.58,2457.76,1.15Zm-1.8,24.3a1.28,1.28,0,1,0-1.29-1.29A1.26,1.26,0,0,0,2456,25.45Z"></path> <path class="cls-1" d="M2541.46,25.06,2532,1.44h-1.8v.29l9.36,23.33Zm1.66-3.75,7.23-17.57L2559,25.06h1.83l-9.47-23.62h-1.94l-7.2,17.42Zm18.43-2.45.93,2.45,8-19.58V1.44h-1.8Zm13.42,6.2h1.69V0H2575Zm4.64-16.56v1.65a8.19,8.19,0,0,1,4.86-1.55c5,0,7.71,2.49,7.71,7.13v9.33h1.69V15.73c0-5.69-3.24-8.71-9.18-8.71A9,9,0,0,0,2579.61,8.5Zm31.18-1.37V8.71c4,.47,6.55,2.92,6.66,6.63h-16.6c.14-3.71,2.77-6.16,7-6.63V7.13c-5.37.5-8.75,3.78-8.75,8.71v.83c0,4.89,3.34,8.17,8.75,8.67V23.76c-4.33-.47-7-3-7-7h18.36V15.73C2619.21,10.84,2616,7.63,2610.79,7.13Zm0,16.67v1.54c5-.39,8.28-2.88,8.42-6.58h-1.8C2617.34,21.49,2614.75,23.44,2610.79,23.8Zm18.57-15.3v1.65a8.17,8.17,0,0,1,4.86-1.55c5,0,7.7,2.49,7.7,7.13v9.33h1.7V15.73c0-5.69-3.25-8.71-9.19-8.71A9,9,0,0,0,2629.36,8.5Zm-4.64,16.56h1.69V7.42h-1.69ZM2656.57,2.7V1.15c-4.89.4-7.84,2.95-7.84,6.91v.76h1.65V8.06C2650.38,5,2652.68,3.1,2656.57,2.7Zm3-1.55V2.7c3.59.36,5.76,2.05,5.76,4.64V7.7c0,1.73-1,2.85-4.29,4.72-3.09,1.76-4.07,3.13-4.07,5.76v1.44h1.59V18.18c0-2.05.86-3.17,3.81-4.82,3.42-1.95,4.68-3.46,4.68-5.62V7.31C2667,4,2664,1.58,2659.53,1.15Zm-1.8,24.3a1.28,1.28,0,1,0,0-2.55,1.28,1.28,0,1,0,0,2.55Z"></path> <path class="cls-1" d="M3060,25.06h1.76V1.44H3060Zm4.71-22h13.65V1.44h-13.65Zm27.72,4.4h-12.31l-.18,9.18a11.89,11.89,0,0,1-2.09,6.94h-2.66l0,6.12h1.66v-4.6h15.55V23.54h-12.85a12.48,12.48,0,0,0,1.94-6.94l.15-7.67h10.76Zm4.65,16.12V7.42h-1.7V25.06h3.71v4.6h1.66V23.54Zm17.53-16.41V8.71c4,.47,6.56,2.92,6.66,6.63h-16.59c.14-3.71,2.77-6.16,7-6.63V7.13c-5.36.5-8.75,3.78-8.75,8.71v.83c0,4.89,3.35,8.17,8.75,8.67V23.76c-4.32-.47-7-3-7-7H3123V15.73C3123,10.84,3119.8,7.63,3114.61,7.13Zm0,16.67v1.54c5-.39,8.28-2.88,8.43-6.58h-1.8C3121.17,21.49,3118.57,23.44,3114.61,23.8Zm20.2-21.1V1.15c-4.9.4-7.85,2.95-7.85,6.91v.76h1.66V8.06C3128.62,5,3130.92,3.1,3134.81,2.7Zm3-1.55V2.7c3.6.36,5.76,2.05,5.76,4.64V7.7c0,1.73-1,2.85-4.28,4.72-3.1,1.76-4.07,3.13-4.07,5.76v1.44h1.58V18.18c0-2.05.87-3.17,3.82-4.82,3.42-1.95,4.68-3.46,4.68-5.62V7.31C3145.25,4,3142.26,1.58,3137.76,1.15Zm-1.8,24.3a1.28,1.28,0,1,0,0-2.55,1.28,1.28,0,1,0,0,2.55Z"></path> <path class="cls-1" d="M3221.46,25.06,3212,1.44h-1.8v.29l9.36,23.33Zm1.65-3.75,7.24-17.57,8.6,21.32h1.84l-9.47-23.62h-1.94l-7.2,17.42Zm18.43-2.45.94,2.45,8-19.58V1.44h-1.8Zm13.42,6.2h1.7V0H3255Zm4.65-16.56v1.65a8.14,8.14,0,0,1,4.86-1.55c5,0,7.7,2.49,7.7,7.13v9.33h1.69V15.73c0-5.69-3.24-8.71-9.18-8.71A9,9,0,0,0,3259.61,8.5Zm31.17-1.37V8.71c4,.47,6.55,2.92,6.66,6.63h-16.59c.14-3.71,2.77-6.16,7-6.63V7.13c-5.36.5-8.75,3.78-8.75,8.71v.83c0,4.89,3.35,8.17,8.75,8.67V23.76c-4.32-.47-7-3-7-7h18.36V15.73C3299.21,10.84,3296,7.63,3290.78,7.13Zm0,16.67v1.54c5-.39,8.28-2.88,8.43-6.58h-1.8C3297.33,21.49,3294.74,23.44,3290.78,23.8Zm18.58-15.3v1.65a8.14,8.14,0,0,1,4.86-1.55c5,0,7.7,2.49,7.7,7.13v9.33h1.69V15.73c0-5.69-3.24-8.71-9.18-8.71A9,9,0,0,0,3309.36,8.5Zm-4.65,16.56h1.69V7.42h-1.69ZM3336.57,2.7V1.15c-4.9.4-7.85,2.95-7.85,6.91v.76h1.66V8.06C3330.38,5,3332.68,3.1,3336.57,2.7Zm2.95-1.55V2.7c3.6.36,5.76,2.05,5.76,4.64V7.7c0,1.73-1,2.85-4.28,4.72-3.1,1.76-4.07,3.13-4.07,5.76v1.44h1.58V18.18c0-2.05.87-3.17,3.82-4.82,3.42-1.95,4.68-3.46,4.68-5.62V7.31C3347,4,3344,1.58,3339.52,1.15Zm-1.8,24.3a1.28,1.28,0,1,0,0-2.55,1.28,1.28,0,1,0,0,2.55Z"></path> <path class="cls-1" d="M2040,25.06h1.76V1.44H2040Zm4.72-22h13.64V1.44h-13.64Zm27.72,4.4h-12.31l-.19,9.18a12,12,0,0,1-2.08,6.94h-2.67l0,6.12h1.65v-4.6h15.56V23.54h-12.85a12.56,12.56,0,0,0,1.94-6.94l.14-7.67h10.77Zm4.64,16.12V7.42h-1.69V25.06h3.71v4.6h1.65V23.54Zm17.54-16.41V8.71c4,.47,6.55,2.92,6.66,6.63h-16.6c.15-3.71,2.77-6.16,7-6.63V7.13c-5.37.5-8.75,3.78-8.75,8.71v.83c0,4.89,3.35,8.17,8.75,8.67V23.76c-4.32-.47-7-3-7-7H2103V15.73C2103,10.84,2099.8,7.63,2094.62,7.13Zm0,16.67v1.54c5-.39,8.28-2.88,8.42-6.58h-1.8C2101.17,21.49,2098.58,23.44,2094.62,23.8Zm20.19-21.1V1.15c-4.9.4-7.85,2.95-7.85,6.91v.76h1.66V8.06C2108.62,5,2110.92,3.1,2114.81,2.7Zm3-1.55V2.7c3.6.36,5.76,2.05,5.76,4.64V7.7c0,1.73-1,2.85-4.28,4.72-3.1,1.76-4.07,3.13-4.07,5.76v1.44h1.59V18.18c0-2.05.86-3.17,3.81-4.82,3.42-1.95,4.68-3.46,4.68-5.62V7.31C2125.25,4,2122.26,1.58,2117.76,1.15Zm-1.8,24.3a1.28,1.28,0,1,0-1.29-1.29A1.26,1.26,0,0,0,2116,25.45Z"></path> <path class="cls-1" d="M2201.46,25.06,2192,1.44h-1.8v.29l9.36,23.33Zm1.66-3.75,7.23-17.57L2219,25.06h1.83l-9.47-23.62h-1.94l-7.2,17.42Zm18.43-2.45.93,2.45,8-19.58V1.44h-1.8Zm13.42,6.2h1.69V0H2235Zm4.64-16.56v1.65a8.19,8.19,0,0,1,4.86-1.55c5,0,7.71,2.49,7.71,7.13v9.33h1.69V15.73c0-5.69-3.24-8.71-9.18-8.71A9,9,0,0,0,2239.61,8.5Zm31.18-1.37V8.71c4,.47,6.55,2.92,6.66,6.63h-16.6c.14-3.71,2.77-6.16,7-6.63V7.13c-5.37.5-8.75,3.78-8.75,8.71v.83c0,4.89,3.34,8.17,8.75,8.67V23.76c-4.33-.47-7-3-7-7h18.36V15.73C2279.21,10.84,2276,7.63,2270.79,7.13Zm0,16.67v1.54c5-.39,8.28-2.88,8.42-6.58h-1.8C2277.34,21.49,2274.75,23.44,2270.79,23.8Zm18.57-15.3v1.65a8.17,8.17,0,0,1,4.86-1.55c5,0,7.7,2.49,7.7,7.13v9.33h1.7V15.73c0-5.69-3.25-8.71-9.19-8.71A9,9,0,0,0,2289.36,8.5Zm-4.64,16.56h1.69V7.42h-1.69ZM2316.57,2.7V1.15c-4.89.4-7.84,2.95-7.84,6.91v.76h1.65V8.06C2310.38,5,2312.68,3.1,2316.57,2.7Zm3-1.55V2.7c3.59.36,5.76,2.05,5.76,4.64V7.7c0,1.73-1,2.85-4.29,4.72-3.09,1.76-4.07,3.13-4.07,5.76v1.44h1.59V18.18c0-2.05.86-3.17,3.81-4.82,3.42-1.95,4.68-3.46,4.68-5.62V7.31C2327,4,2324,1.58,2319.53,1.15Zm-1.8,24.3a1.28,1.28,0,1,0,0-2.55,1.28,1.28,0,1,0,0,2.55Z"></path> <path class="cls-1" d="M2720,25.06h1.76V1.44H2720Zm4.71-22h13.65V1.44h-13.65Zm27.72,4.4h-12.31l-.18,9.18a11.89,11.89,0,0,1-2.09,6.94h-2.66l0,6.12h1.66v-4.6h15.55V23.54h-12.85a12.48,12.48,0,0,0,1.94-6.94l.15-7.67h10.76Zm4.65,16.12V7.42h-1.7V25.06h3.71v4.6h1.66V23.54Zm17.53-16.41V8.71c4,.47,6.56,2.92,6.66,6.63h-16.59c.14-3.71,2.77-6.16,7-6.63V7.13c-5.36.5-8.75,3.78-8.75,8.71v.83c0,4.89,3.35,8.17,8.75,8.67V23.76c-4.32-.47-7-3-7-7H2783V15.73C2783,10.84,2779.8,7.63,2774.61,7.13Zm0,16.67v1.54c5-.39,8.28-2.88,8.43-6.58h-1.8C2781.17,21.49,2778.57,23.44,2774.61,23.8Zm20.2-21.1V1.15c-4.9.4-7.85,2.95-7.85,6.91v.76h1.66V8.06C2788.62,5,2790.92,3.1,2794.81,2.7Zm3-1.55V2.7c3.6.36,5.76,2.05,5.76,4.64V7.7c0,1.73-1,2.85-4.28,4.72-3.1,1.76-4.07,3.13-4.07,5.76v1.44h1.58V18.18c0-2.05.87-3.17,3.82-4.82,3.42-1.95,4.68-3.46,4.68-5.62V7.31C2805.25,4,2802.26,1.58,2797.76,1.15Zm-1.8,24.3a1.28,1.28,0,1,0,0-2.55,1.28,1.28,0,1,0,0,2.55Z"></path> <path class="cls-1" d="M2881.46,25.06,2872,1.44h-1.8v.29l9.36,23.33Zm1.65-3.75,7.24-17.57,8.6,21.32h1.84l-9.47-23.62h-1.94l-7.2,17.42Zm18.43-2.45.94,2.45,8-19.58V1.44h-1.8Zm13.42,6.2h1.7V0H2915Zm4.65-16.56v1.65a8.14,8.14,0,0,1,4.86-1.55c5,0,7.7,2.49,7.7,7.13v9.33h1.69V15.73c0-5.69-3.24-8.71-9.18-8.71A9,9,0,0,0,2919.61,8.5Zm31.17-1.37V8.71c4,.47,6.55,2.92,6.66,6.63h-16.59c.14-3.71,2.77-6.16,7-6.63V7.13c-5.36.5-8.75,3.78-8.75,8.71v.83c0,4.89,3.35,8.17,8.75,8.67V23.76c-4.32-.47-7-3-7-7h18.36V15.73C2959.21,10.84,2956,7.63,2950.78,7.13Zm0,16.67v1.54c5-.39,8.28-2.88,8.43-6.58h-1.8C2957.33,21.49,2954.74,23.44,2950.78,23.8Zm18.58-15.3v1.65a8.14,8.14,0,0,1,4.86-1.55c5,0,7.7,2.49,7.7,7.13v9.33h1.69V15.73c0-5.69-3.24-8.71-9.18-8.71A9,9,0,0,0,2969.36,8.5Zm-4.65,16.56h1.69V7.42h-1.69ZM2996.57,2.7V1.15c-4.9.4-7.85,2.95-7.85,6.91v.76h1.66V8.06C2990.38,5,2992.68,3.1,2996.57,2.7Zm2.95-1.55V2.7c3.6.36,5.76,2.05,5.76,4.64V7.7c0,1.73-1,2.85-4.28,4.72-3.1,1.76-4.07,3.13-4.07,5.76v1.44h1.58V18.18c0-2.05.87-3.17,3.82-4.82,3.42-1.95,4.68-3.46,4.68-5.62V7.31C3007,4,3004,1.58,2999.52,1.15Zm-1.8,24.3a1.28,1.28,0,1,0,0-2.55,1.28,1.28,0,1,0,0,2.55Z"></path> <path class="cls-1" d="M3400,25.06h1.76V1.44H3400Zm4.71-22h13.65V1.44h-13.65Zm27.72,4.4h-12.31l-.18,9.18a11.89,11.89,0,0,1-2.09,6.94h-2.66l0,6.12h1.66v-4.6h15.55V23.54h-12.85a12.48,12.48,0,0,0,1.94-6.94l.15-7.67h10.76Zm4.65,16.12V7.42h-1.7V25.06h3.71v4.6h1.66V23.54Zm17.53-16.41V8.71c4,.47,6.56,2.92,6.66,6.63h-16.59c.14-3.71,2.77-6.16,7-6.63V7.13c-5.36.5-8.75,3.78-8.75,8.71v.83c0,4.89,3.35,8.17,8.75,8.67V23.76c-4.32-.47-7-3-7-7H3463V15.73C3463,10.84,3459.8,7.63,3454.61,7.13Zm0,16.67v1.54c5-.39,8.28-2.88,8.43-6.58h-1.8C3461.17,21.49,3458.57,23.44,3454.61,23.8Zm20.2-21.1V1.15c-4.9.4-7.85,2.95-7.85,6.91v.76h1.66V8.06C3468.62,5,3470.92,3.1,3474.81,2.7Zm3-1.55V2.7c3.6.36,5.76,2.05,5.76,4.64V7.7c0,1.73-1,2.85-4.28,4.72-3.1,1.76-4.07,3.13-4.07,5.76v1.44h1.58V18.18c0-2.05.87-3.17,3.82-4.82,3.42-1.95,4.68-3.46,4.68-5.62V7.31C3485.25,4,3482.26,1.58,3477.76,1.15Zm-1.8,24.3a1.28,1.28,0,1,0,0-2.55,1.28,1.28,0,1,0,0,2.55Z"></path> <path class="cls-1" d="M3561.46,25.06,3552,1.44h-1.8v.29l9.36,23.33Zm1.65-3.75,7.24-17.57,8.6,21.32h1.84l-9.47-23.62h-1.94l-7.2,17.42Zm18.43-2.45.94,2.45,8-19.58V1.44h-1.8Zm13.42,6.2h1.7V0H3595Zm4.65-16.56v1.65a8.14,8.14,0,0,1,4.86-1.55c5,0,7.7,2.49,7.7,7.13v9.33h1.69V15.73c0-5.69-3.24-8.71-9.18-8.71A9,9,0,0,0,3599.61,8.5Zm31.17-1.37V8.71c4,.47,6.55,2.92,6.66,6.63h-16.59c.14-3.71,2.77-6.16,7-6.63V7.13c-5.36.5-8.75,3.78-8.75,8.71v.83c0,4.89,3.35,8.17,8.75,8.67V23.76c-4.32-.47-7-3-7-7h18.36V15.73C3639.21,10.84,3636,7.63,3630.78,7.13Zm0,16.67v1.54c5-.39,8.28-2.88,8.43-6.58h-1.8C3637.33,21.49,3634.74,23.44,3630.78,23.8Zm18.58-15.3v1.65a8.14,8.14,0,0,1,4.86-1.55c5,0,7.7,2.49,7.7,7.13v9.33h1.69V15.73c0-5.69-3.24-8.71-9.18-8.71A9,9,0,0,0,3649.36,8.5Zm-4.65,16.56h1.69V7.42h-1.69ZM3676.57,2.7V1.15c-4.9.4-7.85,2.95-7.85,6.91v.76h1.66V8.06C3670.38,5,3672.68,3.1,3676.57,2.7Zm2.95-1.55V2.7c3.6.36,5.76,2.05,5.76,4.64V7.7c0,1.73-1,2.85-4.28,4.72-3.1,1.76-4.07,3.13-4.07,5.76v1.44h1.58V18.18c0-2.05.87-3.17,3.82-4.82,3.42-1.95,4.68-3.46,4.68-5.62V7.31C3687,4,3684,1.58,3679.52,1.15Zm-1.8,24.3a1.28,1.28,0,1,0,0-2.55,1.28,1.28,0,1,0,0,2.55Z"></path> </g> </g> </svg> 