<?xml version="1.0" encoding="UTF-8"?>
<svg xmlns="http://www.w3.org/2000/svg" viewBox="0 0 5590.68 50.98"> <defs> <style>.cls-1{fill:#e0eaf2;}</style> </defs> <g id="Слой_2" data-name="Слой 2"> <g id="Слой_1-2" data-name="Слой 1"> <path class="cls-1" d="M7.2,50.11V2.88H0V50.11ZM12.38,2.88V9.29h27.8V2.88Zm0,20.38v6.4H38.74v-6.4Zm0,20.44v6.41h27.8V43.7Zm78,6.41V0H83.5V50.11ZM78.31,15.84A19.14,19.14,0,0,0,69,13.61c-12.17,0-20.16,6.91-20.16,18.07v1.15C48.79,44,56.78,51,69,51a20.05,20.05,0,0,0,9.36-2.16V42.41a15.56,15.56,0,0,1-8.13,2.23c-8.86,0-14.26-4.46-14.26-11.81V31.68c0-7.34,5.33-11.74,14.26-11.74a15.44,15.44,0,0,1,8.13,2.16Zm47.59,35V44.14c-11.3-.72-17.5-6.77-17.5-16.92V25.85c0-10.08,6.27-16.2,17.5-17V2.16c-15.19.86-24.77,10-24.77,23.76v1.22C101.13,40.9,110.71,50,125.9,50.83Zm5.26-48.67v6.7c9.64.72,16.41,5.83,16.41,12.52V22h7.27v-.65C154.84,11,144.91,3,131.16,2.16Zm0,42v6.69c13.75-.86,23.68-8.78,23.68-19.15V31h-7.27v.72C147.57,38.38,140.88,43.42,131.16,44.14Zm35.13-29.67V50.11h6.92V14.47Zm12.1,1.73v6.26a12.27,12.27,0,0,1,7.06-1.94h7.2v-6h-6.77A15.19,15.19,0,0,0,178.39,16.2Zm48.07,32.4V42.05a13,13,0,0,1-7.77,2.59c-8.28,0-12.75-4.25-12.75-12V14.47H199.1V32.69c0,12,6.62,18.29,18.65,18.29A16.44,16.44,0,0,0,226.46,48.6Zm12.1-34.13h-6.92V50.11h6.92Zm24.33,1.44v6.55a12.75,12.75,0,0,1,7.78-2.52c8.28,0,12.74,4.18,12.74,12V50.11h6.84V31.9c0-12-6.63-18.29-18.65-18.29A17.06,17.06,0,0,0,262.89,15.91Zm-12.1,34.2h6.92V14.47h-6.92Zm67.1-29.88V13.75c-11.52.87-18.65,7.56-18.65,17.79v1.51c0,10.22,7.13,16.92,18.65,17.78V44.35c-7.34-.79-11.52-4.82-11.52-11.3V31.54C306.37,25.06,310.55,21,317.89,20.23Zm5.19-6.48v6.48c6.33.72,10.72,4.11,10.72,8.64v.36h7.13v-.36C340.93,20.66,333.59,14.62,323.08,13.75Zm0,30.6v6.48c10.65-.86,17.85-6.77,17.85-15v-.36H333.8v.36C333.8,40.32,329.56,43.7,323.08,44.35Zm27.13,5.76h6.92V0h-6.92Zm12.1-34.2v6.55a12.75,12.75,0,0,1,7.78-2.52c8.28,0,12.74,4.18,12.74,12V50.11h6.84V31.9c0-12-6.62-18.29-18.65-18.29A17.06,17.06,0,0,0,362.31,15.91Zm91.18,34.92V44.14c-11.31-.72-17.5-6.77-17.5-16.92V25.85c0-10.08,6.26-16.2,17.5-17V2.16c-15.2.86-24.77,10-24.77,23.76v1.22C428.72,40.9,438.29,50,453.49,50.83Zm5.25-48.67v6.7c9.65.72,16.42,5.83,16.42,12.52V22h7.27v-.65C482.43,11,472.49,3,458.74,2.16Zm0,42v6.69c13.75-.86,23.69-8.78,23.69-19.15V31h-7.27v.72C475.16,38.38,468.46,43.42,458.74,44.14Zm50.4-24V13.75c-11.66.94-18.72,7.63-18.72,18V33c0,10.22,7.06,16.92,18.72,17.85V44.42c-7.2-.79-11.59-4.89-11.59-11.52v-1C497.55,25.13,501.8,21,509.14,20.16Zm5.26-6.41v6.41c7.2.79,11.45,5.11,11.45,11.74v1c0,6.56-4.32,10.73-11.45,11.52v6.41C526,50,533,43.27,533,33V31.75C533,21.38,526,14.62,514.4,13.75Zm40.15,2.16v6.55a12.72,12.72,0,0,1,7.77-2.52c8.28,0,12.75,4.18,12.75,12V50.11h6.83V31.9c0-12-6.62-18.29-18.64-18.29A17,17,0,0,0,554.55,15.91Zm-12.1,34.2h6.91V14.47h-6.91Zm63.1-35.64v-3c0-3.6,1.94-5.4,5.4-5.4h7.85V0h-8.72C603,0,598.64,4.25,598.64,11.16v3.31H586.18v6h35.5v-6Zm-6.91,35.64h6.91V25.56h-6.91Z"/> <path class="cls-1" d="M1426.2,50.11V2.88H1419V50.11Zm5.19-47.23V9.29h27.79V2.88Zm0,20.38v6.4h26.35v-6.4Zm0,20.44v6.41h27.79V43.7Zm78,6.41V0h-6.91V50.11Zm-12.09-34.27a19.16,19.16,0,0,0-9.36-2.23c-12.17,0-20.16,6.91-20.16,18.07v1.15c0,11.16,8,18.15,20.16,18.15a20.08,20.08,0,0,0,9.36-2.16V42.41a15.6,15.6,0,0,1-8.14,2.23c-8.86,0-14.26-4.46-14.26-11.81V31.68c0-7.34,5.33-11.74,14.26-11.74a15.45,15.45,0,0,1,8.14,2.16Zm47.58,35V44.14c-11.3-.72-17.49-6.77-17.49-16.92V25.85c0-10.08,6.26-16.2,17.49-17V2.16c-15.19.86-24.76,10-24.76,23.76v1.22C1520.14,40.9,1529.71,50,1544.9,50.83Zm5.26-48.67v6.7c9.65.72,16.42,5.83,16.42,12.52V22h7.27v-.65C1573.85,11,1563.91,3,1550.16,2.16Zm0,42v6.69c13.75-.86,23.69-8.78,23.69-19.15V31h-7.27v.72C1566.58,38.38,1559.88,43.42,1550.16,44.14Zm35.14-29.67V50.11h6.91V14.47Zm12.09,1.73v6.26a12.27,12.27,0,0,1,7.06-1.94h7.2v-6h-6.77A15.19,15.19,0,0,0,1597.39,16.2Zm48.08,32.4V42.05a13,13,0,0,1-7.78,2.59c-8.28,0-12.74-4.25-12.74-12V14.47h-6.84V32.69c0,12,6.62,18.29,18.64,18.29A16.48,16.48,0,0,0,1645.47,48.6Zm12.09-34.13h-6.91V50.11h6.91Zm24.33,1.44v6.55a12.75,12.75,0,0,1,7.78-2.52c8.28,0,12.74,4.18,12.74,12V50.11h6.84V31.9c0-12-6.62-18.29-18.65-18.29A17.06,17.06,0,0,0,1681.89,15.91Zm-12.09,34.2h6.91V14.47h-6.91Zm67.1-29.88V13.75c-11.52.87-18.65,7.56-18.65,17.79v1.51c0,10.22,7.13,16.92,18.65,17.78V44.35c-7.35-.79-11.52-4.82-11.52-11.3V31.54C1725.38,25.06,1729.55,21,1736.9,20.23Zm5.18-6.48v6.48c6.34.72,10.73,4.11,10.73,8.64v.36h7.13v-.36C1759.94,20.66,1752.59,14.62,1742.08,13.75Zm0,30.6v6.48c10.66-.86,17.86-6.77,17.86-15v-.36h-7.13v.36C1752.81,40.32,1748.56,43.7,1742.08,44.35Zm27.14,5.76h6.91V0h-6.91Zm12.09-34.2v6.55a12.78,12.78,0,0,1,7.78-2.52c8.28,0,12.74,4.18,12.74,12V50.11h6.84V31.9c0-12-6.62-18.29-18.64-18.29A17.1,17.1,0,0,0,1781.31,15.91Zm91.18,34.92V44.14c-11.3-.72-17.5-6.77-17.5-16.92V25.85c0-10.08,6.27-16.2,17.5-17V2.16c-15.19.86-24.77,10-24.77,23.76v1.22C1847.72,40.9,1857.3,50,1872.49,50.83Zm5.26-48.67v6.7c9.64.72,16.41,5.83,16.41,12.52V22h7.27v-.65C1901.43,11,1891.5,3,1877.75,2.16Zm0,42v6.69c13.75-.86,23.68-8.78,23.68-19.15V31h-7.27v.72C1894.16,38.38,1887.47,43.42,1877.75,44.14Zm50.4-24V13.75c-11.67.94-18.72,7.63-18.72,18V33c0,10.22,7,16.92,18.72,17.85V44.42c-7.2-.79-11.59-4.89-11.59-11.52v-1C1916.56,25.13,1920.8,21,1928.15,20.16Zm5.25-6.41v6.41c7.2.79,11.45,5.11,11.45,11.74v1c0,6.56-4.32,10.73-11.45,11.52v6.41C1945,50,1952,43.27,1952,33V31.75C1952,21.38,1945,14.62,1933.4,13.75Zm40.15,2.16v6.55a12.75,12.75,0,0,1,7.78-2.52c8.28,0,12.74,4.18,12.74,12V50.11h6.84V31.9c0-12-6.62-18.29-18.65-18.29A17.06,17.06,0,0,0,1973.55,15.91Zm-12.1,34.2h6.92V14.47h-6.92Zm63.1-35.64v-3c0-3.6,2-5.4,5.4-5.4h7.85V0h-8.71c-7.06,0-11.45,4.25-11.45,11.16v3.31h-12.46v6h35.5v-6Zm-6.91,35.64h6.91V25.56h-6.91Z"/> <path class="cls-1" d="M716.2,50.11V2.88H709V50.11Zm5.18-47.23V9.29h27.8V2.88Zm0,20.38v6.4h26.36v-6.4Zm0,20.44v6.41h27.8V43.7Zm78,6.41V0H792.5V50.11Zm-12.1-34.27A19.14,19.14,0,0,0,778,13.61c-12.17,0-20.16,6.91-20.16,18.07v1.15C757.79,44,765.78,51,778,51a20.05,20.05,0,0,0,9.36-2.16V42.41a15.56,15.56,0,0,1-8.13,2.23c-8.86,0-14.26-4.46-14.26-11.81V31.68c0-7.34,5.33-11.74,14.26-11.74a15.44,15.44,0,0,1,8.13,2.16Zm47.59,35V44.14c-11.3-.72-17.5-6.77-17.5-16.92V25.85c0-10.08,6.27-16.2,17.5-17V2.16c-15.19.86-24.77,10-24.77,23.76v1.22C810.13,40.9,819.71,50,834.9,50.83Zm5.26-48.67v6.7c9.64.72,16.41,5.83,16.41,12.52V22h7.27v-.65C863.84,11,853.91,3,840.16,2.16Zm0,42v6.69c13.75-.86,23.68-8.78,23.68-19.15V31h-7.27v.72C856.57,38.38,849.88,43.42,840.16,44.14Zm35.13-29.67V50.11h6.92V14.47Zm12.1,1.73v6.26a12.27,12.27,0,0,1,7.06-1.94h7.2v-6h-6.77A15.19,15.19,0,0,0,887.39,16.2Zm48.07,32.4V42.05a13,13,0,0,1-7.77,2.59c-8.29,0-12.75-4.25-12.75-12V14.47H908.1V32.69c0,12,6.62,18.29,18.65,18.29A16.44,16.44,0,0,0,935.46,48.6Zm12.1-34.13h-6.92V50.11h6.92Zm24.33,1.44v6.55a12.75,12.75,0,0,1,7.78-2.52c8.27,0,12.74,4.18,12.74,12V50.11h6.84V31.9c0-12-6.62-18.29-18.65-18.29A17,17,0,0,0,971.89,15.91Zm-12.1,34.2h6.91V14.47h-6.91Zm67.11-29.88V13.75c-11.52.87-18.65,7.56-18.65,17.79v1.51c0,10.22,7.13,16.92,18.65,17.78V44.35c-7.35-.79-11.52-4.82-11.52-11.3V31.54C1015.38,25.06,1019.55,21,1026.9,20.23Zm5.18-6.48v6.48c6.34.72,10.73,4.11,10.73,8.64v.36h7.13v-.36C1049.94,20.66,1042.59,14.62,1032.08,13.75Zm0,30.6v6.48c10.66-.86,17.86-6.77,17.86-15v-.36h-7.13v.36C1042.81,40.32,1038.56,43.7,1032.08,44.35Zm27.14,5.76h6.91V0h-6.91Zm12.09-34.2v6.55a12.78,12.78,0,0,1,7.78-2.52c8.28,0,12.74,4.18,12.74,12V50.11h6.84V31.9c0-12-6.62-18.29-18.64-18.29A17.1,17.1,0,0,0,1071.31,15.91Zm91.18,34.92V44.14c-11.3-.72-17.5-6.77-17.5-16.92V25.85c0-10.08,6.27-16.2,17.5-17V2.16c-15.19.86-24.77,10-24.77,23.76v1.22C1137.72,40.9,1147.3,50,1162.49,50.83Zm5.26-48.67v6.7c9.64.72,16.41,5.83,16.41,12.52V22h7.27v-.65C1191.43,11,1181.5,3,1167.75,2.16Zm0,42v6.69c13.75-.86,23.68-8.78,23.68-19.15V31h-7.27v.72C1184.16,38.38,1177.47,43.42,1167.75,44.14Zm50.4-24V13.75c-11.67.94-18.72,7.63-18.72,18V33c0,10.22,7,16.92,18.72,17.85V44.42c-7.2-.79-11.59-4.89-11.59-11.52v-1C1206.56,25.13,1210.8,21,1218.15,20.16Zm5.25-6.41v6.41c7.2.79,11.45,5.11,11.45,11.74v1c0,6.56-4.32,10.73-11.45,11.52v6.41C1235,50,1242,43.27,1242,33V31.75C1242,21.38,1235,14.62,1223.4,13.75Zm40.15,2.16v6.55a12.75,12.75,0,0,1,7.78-2.52c8.28,0,12.74,4.18,12.74,12V50.11h6.84V31.9c0-12-6.62-18.29-18.65-18.29A17.06,17.06,0,0,0,1263.55,15.91Zm-12.1,34.2h6.92V14.47h-6.92Zm63.1-35.64v-3c0-3.6,2-5.4,5.4-5.4h7.85V0h-8.71c-7.06,0-11.45,4.25-11.45,11.16v3.31h-12.46v6h35.5v-6Zm-6.91,35.64h6.91V25.56h-6.91Z"/> <path class="cls-1" d="M2846.2,50.11V2.88H2839V50.11Zm5.19-47.23V9.29h27.79V2.88Zm0,20.38v6.4h26.35v-6.4Zm0,20.44v6.41h27.79V43.7Zm78,6.41V0h-6.91V50.11Zm-12.09-34.27a19.16,19.16,0,0,0-9.36-2.23c-12.17,0-20.16,6.91-20.16,18.07v1.15c0,11.16,8,18.15,20.16,18.15a20.08,20.08,0,0,0,9.36-2.16V42.41a15.6,15.6,0,0,1-8.14,2.23c-8.86,0-14.26-4.46-14.26-11.81V31.68c0-7.34,5.33-11.74,14.26-11.74a15.45,15.45,0,0,1,8.14,2.16Zm47.58,35V44.14c-11.3-.72-17.49-6.77-17.49-16.92V25.85c0-10.08,6.26-16.2,17.49-17V2.16c-15.19.86-24.76,10-24.76,23.76v1.22C2940.14,40.9,2949.71,50,2964.9,50.83Zm5.26-48.67v6.7c9.65.72,16.42,5.83,16.42,12.52V22h7.27v-.65C2993.85,11,2983.91,3,2970.16,2.16Zm0,42v6.69c13.75-.86,23.69-8.78,23.69-19.15V31h-7.27v.72C2986.58,38.38,2979.88,43.42,2970.16,44.14Zm35.14-29.67V50.11h6.91V14.47Zm12.09,1.73v6.26a12.27,12.27,0,0,1,7.06-1.94h7.2v-6h-6.77A15.19,15.19,0,0,0,3017.39,16.2Zm48.08,32.4V42.05a13,13,0,0,1-7.78,2.59c-8.28,0-12.74-4.25-12.74-12V14.47h-6.84V32.69c0,12,6.62,18.29,18.64,18.29A16.48,16.48,0,0,0,3065.47,48.6Zm12.09-34.13h-6.91V50.11h6.91Zm24.33,1.44v6.55a12.75,12.75,0,0,1,7.78-2.52c8.28,0,12.74,4.18,12.74,12V50.11h6.84V31.9c0-12-6.62-18.29-18.65-18.29A17.06,17.06,0,0,0,3101.89,15.91Zm-12.09,34.2h6.91V14.47h-6.91Zm67.1-29.88V13.75c-11.52.87-18.65,7.56-18.65,17.79v1.51c0,10.22,7.13,16.92,18.65,17.78V44.35c-7.35-.79-11.52-4.82-11.52-11.3V31.54C3145.38,25.06,3149.55,21,3156.9,20.23Zm5.18-6.48v6.48c6.34.72,10.73,4.11,10.73,8.64v.36h7.13v-.36C3179.94,20.66,3172.59,14.62,3162.08,13.75Zm0,30.6v6.48c10.66-.86,17.86-6.77,17.86-15v-.36h-7.13v.36C3172.81,40.32,3168.56,43.7,3162.08,44.35Zm27.14,5.76h6.91V0h-6.91Zm12.09-34.2v6.55a12.78,12.78,0,0,1,7.78-2.52c8.28,0,12.74,4.18,12.74,12V50.11h6.84V31.9c0-12-6.62-18.29-18.64-18.29A17.1,17.1,0,0,0,3201.31,15.91Zm91.18,34.92V44.14c-11.3-.72-17.5-6.77-17.5-16.92V25.85c0-10.08,6.27-16.2,17.5-17V2.16c-15.19.86-24.77,10-24.77,23.76v1.22C3267.72,40.9,3277.3,50,3292.49,50.83Zm5.26-48.67v6.7c9.64.72,16.41,5.83,16.41,12.52V22h7.27v-.65C3321.43,11,3311.5,3,3297.75,2.16Zm0,42v6.69c13.75-.86,23.68-8.78,23.68-19.15V31h-7.27v.72C3314.16,38.38,3307.47,43.42,3297.75,44.14Zm50.4-24V13.75c-11.67.94-18.72,7.63-18.72,18V33c0,10.22,7.05,16.92,18.72,17.85V44.42c-7.2-.79-11.59-4.89-11.59-11.52v-1C3336.56,25.13,3340.8,21,3348.15,20.16Zm5.25-6.41v6.41c7.2.79,11.45,5.11,11.45,11.74v1c0,6.56-4.32,10.73-11.45,11.52v6.41C3365,50,3372,43.27,3372,33V31.75C3372,21.38,3365,14.62,3353.4,13.75Zm40.15,2.16v6.55a12.75,12.75,0,0,1,7.78-2.52c8.28,0,12.74,4.18,12.74,12V50.11h6.84V31.9c0-12-6.62-18.29-18.65-18.29A17.06,17.06,0,0,0,3393.55,15.91Zm-12.1,34.2h6.92V14.47h-6.92Zm63.1-35.64v-3c0-3.6,1.95-5.4,5.4-5.4h7.85V0h-8.71c-7.06,0-11.45,4.25-11.45,11.16v3.31h-12.46v6h35.5v-6Zm-6.91,35.64h6.91V25.56h-6.91Z"/> <path class="cls-1" d="M2136.2,50.11V2.88H2129V50.11Zm5.18-47.23V9.29h27.8V2.88Zm0,20.38v6.4h26.36v-6.4Zm0,20.44v6.41h27.8V43.7Zm78,6.41V0h-6.91V50.11Zm-12.1-34.27a19.14,19.14,0,0,0-9.36-2.23c-12.17,0-20.16,6.91-20.16,18.07v1.15c0,11.16,8,18.15,20.16,18.15a20.05,20.05,0,0,0,9.36-2.16V42.41a15.56,15.56,0,0,1-8.13,2.23c-8.86,0-14.26-4.46-14.26-11.81V31.68c0-7.34,5.33-11.74,14.26-11.74a15.44,15.44,0,0,1,8.13,2.16Zm47.59,35V44.14c-11.3-.72-17.5-6.77-17.5-16.92V25.85c0-10.08,6.27-16.2,17.5-17V2.16c-15.19.86-24.77,10-24.77,23.76v1.22C2230.13,40.9,2239.71,50,2254.9,50.83Zm5.26-48.67v6.7c9.64.72,16.41,5.83,16.41,12.52V22h7.27v-.65C2283.84,11,2273.91,3,2260.16,2.16Zm0,42v6.69c13.75-.86,23.68-8.78,23.68-19.15V31h-7.27v.72C2276.57,38.38,2269.88,43.42,2260.16,44.14Zm35.13-29.67V50.11h6.92V14.47Zm12.1,1.73v6.26a12.27,12.27,0,0,1,7.06-1.94h7.2v-6h-6.77A15.19,15.19,0,0,0,2307.39,16.2Zm48.07,32.4V42.05a13,13,0,0,1-7.77,2.59c-8.29,0-12.75-4.25-12.75-12V14.47h-6.84V32.69c0,12,6.62,18.29,18.65,18.29A16.44,16.44,0,0,0,2355.46,48.6Zm12.1-34.13h-6.92V50.11h6.92Zm24.33,1.44v6.55a12.75,12.75,0,0,1,7.78-2.52c8.27,0,12.74,4.18,12.74,12V50.11h6.84V31.9c0-12-6.62-18.29-18.65-18.29A17,17,0,0,0,2391.89,15.91Zm-12.1,34.2h6.91V14.47h-6.91Zm67.11-29.88V13.75c-11.52.87-18.65,7.56-18.65,17.79v1.51c0,10.22,7.13,16.92,18.65,17.78V44.35c-7.35-.79-11.52-4.82-11.52-11.3V31.54C2435.38,25.06,2439.55,21,2446.9,20.23Zm5.18-6.48v6.48c6.34.72,10.73,4.11,10.73,8.64v.36h7.13v-.36C2469.94,20.66,2462.59,14.62,2452.08,13.75Zm0,30.6v6.48c10.66-.86,17.86-6.77,17.86-15v-.36h-7.13v.36C2462.81,40.32,2458.56,43.7,2452.08,44.35Zm27.14,5.76h6.91V0h-6.91Zm12.09-34.2v6.55a12.78,12.78,0,0,1,7.78-2.52c8.28,0,12.74,4.18,12.74,12V50.11h6.84V31.9c0-12-6.62-18.29-18.64-18.29A17.1,17.1,0,0,0,2491.31,15.91Zm91.18,34.92V44.14c-11.3-.72-17.5-6.77-17.5-16.92V25.85c0-10.08,6.27-16.2,17.5-17V2.16c-15.19.86-24.77,10-24.77,23.76v1.22C2557.72,40.9,2567.3,50,2582.49,50.83Zm5.26-48.67v6.7c9.64.72,16.41,5.83,16.41,12.52V22h7.27v-.65C2611.43,11,2601.5,3,2587.75,2.16Zm0,42v6.69c13.75-.86,23.68-8.78,23.68-19.15V31h-7.27v.72C2604.16,38.38,2597.47,43.42,2587.75,44.14Zm50.4-24V13.75c-11.67.94-18.72,7.63-18.72,18V33c0,10.22,7.05,16.92,18.72,17.85V44.42c-7.2-.79-11.59-4.89-11.59-11.52v-1C2626.56,25.13,2630.8,21,2638.15,20.16Zm5.25-6.41v6.41c7.2.79,11.45,5.11,11.45,11.74v1c0,6.56-4.32,10.73-11.45,11.52v6.41C2655,50,2662,43.27,2662,33V31.75C2662,21.38,2655,14.62,2643.4,13.75Zm40.15,2.16v6.55a12.75,12.75,0,0,1,7.78-2.52c8.28,0,12.74,4.18,12.74,12V50.11h6.84V31.9c0-12-6.62-18.29-18.65-18.29A17.06,17.06,0,0,0,2683.55,15.91Zm-12.1,34.2h6.92V14.47h-6.92Zm63.1-35.64v-3c0-3.6,1.95-5.4,5.4-5.4h7.85V0h-8.71c-7.06,0-11.45,4.25-11.45,11.16v3.31h-12.46v6h35.5v-6Zm-6.91,35.64h6.91V25.56h-6.91Z"/> <path class="cls-1" d="M3556.2,50.11V2.88H3549V50.11Zm5.19-47.23V9.29h27.79V2.88Zm0,20.38v6.4h26.35v-6.4Zm0,20.44v6.41h27.79V43.7Zm78,6.41V0h-6.91V50.11Zm-12.09-34.27a19.16,19.16,0,0,0-9.36-2.23c-12.17,0-20.16,6.91-20.16,18.07v1.15c0,11.16,8,18.15,20.16,18.15a20.08,20.08,0,0,0,9.36-2.16V42.41a15.6,15.6,0,0,1-8.14,2.23c-8.86,0-14.26-4.46-14.26-11.81V31.68c0-7.34,5.33-11.74,14.26-11.74a15.45,15.45,0,0,1,8.14,2.16Zm47.58,35V44.14c-11.3-.72-17.49-6.77-17.49-16.92V25.85c0-10.08,6.26-16.2,17.49-17V2.16c-15.19.86-24.76,10-24.76,23.76v1.22C3650.14,40.9,3659.71,50,3674.9,50.83Zm5.26-48.67v6.7c9.65.72,16.42,5.83,16.42,12.52V22h7.27v-.65C3703.85,11,3693.91,3,3680.16,2.16Zm0,42v6.69c13.75-.86,23.69-8.78,23.69-19.15V31h-7.27v.72C3696.58,38.38,3689.88,43.42,3680.16,44.14Zm35.14-29.67V50.11h6.91V14.47Zm12.09,1.73v6.26a12.27,12.27,0,0,1,7.06-1.94h7.2v-6h-6.77A15.19,15.19,0,0,0,3727.39,16.2Zm48.08,32.4V42.05a13,13,0,0,1-7.78,2.59c-8.28,0-12.74-4.25-12.74-12V14.47h-6.84V32.69c0,12,6.62,18.29,18.64,18.29A16.48,16.48,0,0,0,3775.47,48.6Zm12.09-34.13h-6.91V50.11h6.91Zm24.33,1.44v6.55a12.75,12.75,0,0,1,7.78-2.52c8.28,0,12.74,4.18,12.74,12V50.11h6.84V31.9c0-12-6.62-18.29-18.65-18.29A17.06,17.06,0,0,0,3811.89,15.91Zm-12.09,34.2h6.91V14.47h-6.91Zm67.1-29.88V13.75c-11.52.87-18.65,7.56-18.65,17.79v1.51c0,10.22,7.13,16.92,18.65,17.78V44.35c-7.35-.79-11.52-4.82-11.52-11.3V31.54C3855.38,25.06,3859.55,21,3866.9,20.23Zm5.18-6.48v6.48c6.34.72,10.73,4.11,10.73,8.64v.36h7.13v-.36C3889.94,20.66,3882.59,14.62,3872.08,13.75Zm0,30.6v6.48c10.66-.86,17.86-6.77,17.86-15v-.36h-7.13v.36C3882.81,40.32,3878.56,43.7,3872.08,44.35Zm27.14,5.76h6.91V0h-6.91Zm12.09-34.2v6.55a12.78,12.78,0,0,1,7.78-2.52c8.28,0,12.74,4.18,12.74,12V50.11h6.84V31.9c0-12-6.62-18.29-18.64-18.29A17.1,17.1,0,0,0,3911.31,15.91Zm91.18,34.92V44.14c-11.3-.72-17.5-6.77-17.5-16.92V25.85c0-10.08,6.27-16.2,17.5-17V2.16c-15.19.86-24.77,10-24.77,23.76v1.22C3977.72,40.9,3987.3,50,4002.49,50.83Zm5.26-48.67v6.7c9.64.72,16.41,5.83,16.41,12.52V22h7.27v-.65C4031.43,11,4021.5,3,4007.75,2.16Zm0,42v6.69c13.75-.86,23.68-8.78,23.68-19.15V31h-7.27v.72C4024.16,38.38,4017.47,43.42,4007.75,44.14Zm50.4-24V13.75c-11.67.94-18.72,7.63-18.72,18V33c0,10.22,7.05,16.92,18.72,17.85V44.42c-7.2-.79-11.59-4.89-11.59-11.52v-1C4046.56,25.13,4050.8,21,4058.15,20.16Zm5.25-6.41v6.41c7.2.79,11.45,5.11,11.45,11.74v1c0,6.56-4.32,10.73-11.45,11.52v6.41C4075,50,4082,43.27,4082,33V31.75C4082,21.38,4075,14.62,4063.4,13.75Zm40.15,2.16v6.55a12.75,12.75,0,0,1,7.78-2.52c8.28,0,12.74,4.18,12.74,12V50.11h6.84V31.9c0-12-6.62-18.29-18.65-18.29A17.06,17.06,0,0,0,4103.55,15.91Zm-12.1,34.2h6.92V14.47h-6.92Zm63.1-35.64v-3c0-3.6,1.95-5.4,5.4-5.4h7.85V0h-8.71c-7.06,0-11.45,4.25-11.45,11.16v3.31h-12.46v6h35.5v-6Zm-6.91,35.64h6.91V25.56h-6.91Z"/> <path class="cls-1" d="M4976.2,50.11V2.88H4969V50.11Zm5.19-47.23V9.29h27.79V2.88Zm0,20.38v6.4h26.35v-6.4Zm0,20.44v6.41h27.79V43.7Zm78,6.41V0h-6.91V50.11Zm-12.09-34.27a19.16,19.16,0,0,0-9.36-2.23c-12.17,0-20.16,6.91-20.16,18.07v1.15c0,11.16,8,18.15,20.16,18.15a20.08,20.08,0,0,0,9.36-2.16V42.41a15.6,15.6,0,0,1-8.14,2.23c-8.86,0-14.26-4.46-14.26-11.81V31.68c0-7.34,5.33-11.74,14.26-11.74a15.45,15.45,0,0,1,8.14,2.16Zm47.58,35V44.14c-11.3-.72-17.49-6.77-17.49-16.92V25.85c0-10.08,6.26-16.2,17.49-17V2.16c-15.19.86-24.76,10-24.76,23.76v1.22C5070.14,40.9,5079.71,50,5094.9,50.83Zm5.26-48.67v6.7c9.65.72,16.42,5.83,16.42,12.52V22h7.27v-.65C5123.85,11,5113.91,3,5100.16,2.16Zm0,42v6.69c13.75-.86,23.69-8.78,23.69-19.15V31h-7.27v.72C5116.58,38.38,5109.88,43.42,5100.16,44.14Zm35.14-29.67V50.11h6.91V14.47Zm12.09,1.73v6.26a12.27,12.27,0,0,1,7.06-1.94h7.2v-6h-6.77A15.19,15.19,0,0,0,5147.39,16.2Zm48.08,32.4V42.05a13,13,0,0,1-7.78,2.59c-8.28,0-12.74-4.25-12.74-12V14.47h-6.84V32.69c0,12,6.62,18.29,18.64,18.29A16.48,16.48,0,0,0,5195.47,48.6Zm12.09-34.13h-6.91V50.11h6.91Zm24.33,1.44v6.55a12.75,12.75,0,0,1,7.78-2.52c8.28,0,12.74,4.18,12.74,12V50.11h6.84V31.9c0-12-6.62-18.29-18.65-18.29A17.06,17.06,0,0,0,5231.89,15.91Zm-12.09,34.2h6.91V14.47h-6.91Zm67.1-29.88V13.75c-11.52.87-18.65,7.56-18.65,17.79v1.51c0,10.22,7.13,16.92,18.65,17.78V44.35c-7.35-.79-11.52-4.82-11.52-11.3V31.54C5275.38,25.06,5279.55,21,5286.9,20.23Zm5.18-6.48v6.48c6.34.72,10.73,4.11,10.73,8.64v.36h7.13v-.36C5309.94,20.66,5302.59,14.62,5292.08,13.75Zm0,30.6v6.48c10.66-.86,17.86-6.77,17.86-15v-.36h-7.13v.36C5302.81,40.32,5298.56,43.7,5292.08,44.35Zm27.14,5.76h6.91V0h-6.91Zm12.09-34.2v6.55a12.78,12.78,0,0,1,7.78-2.52c8.28,0,12.74,4.18,12.74,12V50.11h6.84V31.9c0-12-6.62-18.29-18.64-18.29A17.1,17.1,0,0,0,5331.31,15.91Zm91.18,34.92V44.14c-11.3-.72-17.5-6.77-17.5-16.92V25.85c0-10.08,6.27-16.2,17.5-17V2.16c-15.19.86-24.77,10-24.77,23.76v1.22C5397.72,40.9,5407.3,50,5422.49,50.83Zm5.26-48.67v6.7c9.64.72,16.41,5.83,16.41,12.52V22h7.27v-.65C5451.43,11,5441.5,3,5427.75,2.16Zm0,42v6.69c13.75-.86,23.68-8.78,23.68-19.15V31h-7.27v.72C5444.16,38.38,5437.47,43.42,5427.75,44.14Zm50.4-24V13.75c-11.67.94-18.72,7.63-18.72,18V33c0,10.22,7,16.92,18.72,17.85V44.42c-7.2-.79-11.59-4.89-11.59-11.52v-1C5466.56,25.13,5470.8,21,5478.15,20.16Zm5.25-6.41v6.41c7.2.79,11.45,5.11,11.45,11.74v1c0,6.56-4.32,10.73-11.45,11.52v6.41C5495,50,5502,43.27,5502,33V31.75C5502,21.38,5495,14.62,5483.4,13.75Zm40.15,2.16v6.55a12.75,12.75,0,0,1,7.78-2.52c8.28,0,12.74,4.18,12.74,12V50.11h6.84V31.9c0-12-6.62-18.29-18.65-18.29A17.06,17.06,0,0,0,5523.55,15.91Zm-12.1,34.2h6.92V14.47h-6.92Zm63.1-35.64v-3c0-3.6,1.95-5.4,5.4-5.4h7.85V0h-8.71c-7.06,0-11.45,4.25-11.45,11.16v3.31h-12.46v6h35.5v-6Zm-6.91,35.64h6.91V25.56h-6.91Z"/> <path class="cls-1" d="M4266.2,50.11V2.88H4259V50.11Zm5.18-47.23V9.29h27.8V2.88Zm0,20.38v6.4h26.36v-6.4Zm0,20.44v6.41h27.8V43.7Zm78,6.41V0h-6.91V50.11Zm-12.1-34.27a19.14,19.14,0,0,0-9.36-2.23c-12.17,0-20.16,6.91-20.16,18.07v1.15c0,11.16,8,18.15,20.16,18.15a20.05,20.05,0,0,0,9.36-2.16V42.41a15.56,15.56,0,0,1-8.13,2.23c-8.86,0-14.26-4.46-14.26-11.81V31.68c0-7.34,5.33-11.74,14.26-11.74a15.44,15.44,0,0,1,8.13,2.16Zm47.59,35V44.14c-11.3-.72-17.5-6.77-17.5-16.92V25.85c0-10.08,6.27-16.2,17.5-17V2.16c-15.19.86-24.77,10-24.77,23.76v1.22C4360.13,40.9,4369.71,50,4384.9,50.83Zm5.26-48.67v6.7c9.64.72,16.41,5.83,16.41,12.52V22h7.27v-.65C4413.84,11,4403.91,3,4390.16,2.16Zm0,42v6.69c13.75-.86,23.68-8.78,23.68-19.15V31h-7.27v.72C4406.57,38.38,4399.88,43.42,4390.16,44.14Zm35.13-29.67V50.11h6.92V14.47Zm12.1,1.73v6.26a12.27,12.27,0,0,1,7.06-1.94h7.2v-6h-6.77A15.19,15.19,0,0,0,4437.39,16.2Zm48.07,32.4V42.05a13,13,0,0,1-7.77,2.59c-8.29,0-12.75-4.25-12.75-12V14.47h-6.84V32.69c0,12,6.62,18.29,18.65,18.29A16.44,16.44,0,0,0,4485.46,48.6Zm12.1-34.13h-6.92V50.11h6.92Zm24.33,1.44v6.55a12.75,12.75,0,0,1,7.78-2.52c8.27,0,12.74,4.18,12.74,12V50.11h6.84V31.9c0-12-6.62-18.29-18.65-18.29A17,17,0,0,0,4521.89,15.91Zm-12.1,34.2h6.91V14.47h-6.91Zm67.11-29.88V13.75c-11.52.87-18.65,7.56-18.65,17.79v1.51c0,10.22,7.13,16.92,18.65,17.78V44.35c-7.35-.79-11.52-4.82-11.52-11.3V31.54C4565.38,25.06,4569.55,21,4576.9,20.23Zm5.18-6.48v6.48c6.34.72,10.73,4.11,10.73,8.64v.36h7.13v-.36C4599.94,20.66,4592.59,14.62,4582.08,13.75Zm0,30.6v6.48c10.66-.86,17.86-6.77,17.86-15v-.36h-7.13v.36C4592.81,40.32,4588.56,43.7,4582.08,44.35Zm27.14,5.76h6.91V0h-6.91Zm12.09-34.2v6.55a12.78,12.78,0,0,1,7.78-2.52c8.28,0,12.74,4.18,12.74,12V50.11h6.84V31.9c0-12-6.62-18.29-18.64-18.29A17.1,17.1,0,0,0,4621.31,15.91Zm91.18,34.92V44.14c-11.3-.72-17.5-6.77-17.5-16.92V25.85c0-10.08,6.27-16.2,17.5-17V2.16c-15.19.86-24.77,10-24.77,23.76v1.22C4687.72,40.9,4697.3,50,4712.49,50.83Zm5.26-48.67v6.7c9.64.72,16.41,5.83,16.41,12.52V22h7.27v-.65C4741.43,11,4731.5,3,4717.75,2.16Zm0,42v6.69c13.75-.86,23.68-8.78,23.68-19.15V31h-7.27v.72C4734.16,38.38,4727.47,43.42,4717.75,44.14Zm50.4-24V13.75c-11.67.94-18.72,7.63-18.72,18V33c0,10.22,7,16.92,18.72,17.85V44.42c-7.2-.79-11.59-4.89-11.59-11.52v-1C4756.56,25.13,4760.8,21,4768.15,20.16Zm5.25-6.41v6.41c7.2.79,11.45,5.11,11.45,11.74v1c0,6.56-4.32,10.73-11.45,11.52v6.41C4785,50,4792,43.27,4792,33V31.75C4792,21.38,4785,14.62,4773.4,13.75Zm40.15,2.16v6.55a12.75,12.75,0,0,1,7.78-2.52c8.28,0,12.74,4.18,12.74,12V50.11h6.84V31.9c0-12-6.62-18.29-18.65-18.29A17.06,17.06,0,0,0,4813.55,15.91Zm-12.1,34.2h6.92V14.47h-6.92Zm63.1-35.64v-3c0-3.6,1.95-5.4,5.4-5.4h7.85V0h-8.71c-7.06,0-11.45,4.25-11.45,11.16v3.31h-12.46v6h35.5v-6Zm-6.91,35.64h6.91V25.56h-6.91Z"/> </g> </g> </svg>