<?xml version="1.0" encoding="UTF-8"?> <svg xmlns="http://www.w3.org/2000/svg" width="622" height="231" viewBox="0 0 622 231" fill="none"> <path d="M207.28 181.648H180.496V216.208H114.544V181.648H10V138.448L95.536 14.608H165.232L89.2 128.944H116.56V98.128H180.496V128.944H207.28V181.648Z" fill="#D62246"></path> <path d="M308.055 220.816C290.199 220.816 274.359 216.688 260.535 208.432C246.903 199.984 236.151 187.888 228.279 172.144C220.599 156.208 216.759 137.296 216.759 115.408C216.759 93.52 220.599 74.704 228.279 58.96C236.151 43.024 246.903 30.928 260.535 22.672C274.359 14.224 290.199 10 308.055 10C325.911 10 341.655 14.224 355.287 22.672C369.111 30.928 379.863 43.024 387.543 58.96C395.415 74.704 399.351 93.52 399.351 115.408C399.351 137.296 395.415 156.208 387.543 172.144C379.863 187.888 369.111 199.984 355.287 208.432C341.655 216.688 325.911 220.816 308.055 220.816ZM308.055 166.384C323.415 166.384 331.095 149.392 331.095 115.408C331.095 81.424 323.415 64.432 308.055 64.432C292.695 64.432 285.015 81.424 285.015 115.408C285.015 149.392 292.695 166.384 308.055 166.384Z" fill="#D62246"></path> <path d="M611.717 181.648H584.933V216.208H518.982V181.648H414.438V138.448L499.974 14.608H569.669L493.638 128.944H520.998V98.128H584.933V128.944H611.717V181.648Z" fill="#D62246"></path> </svg> 