<?xml version="1.0" encoding="UTF-8"?> <svg xmlns="http://www.w3.org/2000/svg" viewBox="0 0 3681.07 25.49"> <defs> <style>.cls-1{fill:#17118b;}</style> </defs> <g id="Слой_2" data-name="Слой 2"> <g id="Слой_1-2" data-name="Слой 1"> <g id="Слой_2-2" data-name="Слой 2"> <g id="Слой_1-2-2" data-name="Слой 1-2"> <path class="cls-1" d="M17.1,16V14.36a40.5,40.5,0,0,1-6.59.62c-6,0-8.78-2.2-8.78-6.88V1.44H0V8.21c0,5.58,3.49,8.39,10.4,8.39A44.26,44.26,0,0,0,17.1,16ZM21.82,1.44H20.05V25.06h1.77ZM26,9H47V7.42H26Zm11.49,2.88h-1.7V25.06h1.7ZM57.7,8.68V7.13c-5.51.5-8.89,3.74-8.89,8.78v.76c0,4.93,3.38,8.17,8.89,8.67V23.76c-4.43-.47-7.17-3.06-7.17-7.13v-.72C50.53,11.81,53.2,9.18,57.7,8.68Zm2.95-1.55V8.71c4.39.47,7.06,3.17,7.06,7.2v.72c0,4-2.7,6.7-7.06,7.13v1.58c5.44-.5,8.78-3.74,8.78-8.67v-.76C69.43,10.91,66.09,7.63,60.65,7.13ZM81.19,2.7V1.15c-4.9.4-7.85,2.95-7.85,6.91v.76H75V8.06C75,5,77.3,3.1,81.19,2.7Zm3-1.55V2.7C87.79,3.06,90,4.75,90,7.34V7.7c0,1.73-1,2.85-4.28,4.72-3.1,1.76-4.07,3.13-4.07,5.76v1.44h1.58V18.18c0-2.05.87-3.17,3.82-4.82,3.42-1.95,4.68-3.46,4.68-5.62V7.31c-.05-3.31-3-5.73-7.54-6.16Zm-1.8,24.3a1.28,1.28,0,1,0-1.29-1.29,1.26,1.26,0,0,0,1.23,1.29h.06Z"></path> <path class="cls-1" d="M162.14,25.06,152.71,1.44h-1.8v.29l9.36,23.33Zm1.66-3.75L171,3.74l8.6,21.32h1.84L172,1.44h-1.95l-7.2,17.42Zm18.43-2.45.94,2.45,8-19.58V1.44h-1.8Zm13.42,6.2h1.7V0h-1.7ZM200.3,8.5v1.65a8.15,8.15,0,0,1,4.86-1.55c5,0,7.7,2.49,7.7,7.13v9.33h1.69V15.73c0-5.69-3.24-8.71-9.18-8.71A9,9,0,0,0,200.3,8.5Zm28,.25V7.13c-4.65.43-7.71,3-7.71,6.44v.29h1.66v-.29c0-2.57,2.49-4.43,6.09-4.82Zm2.95-1.62V8.75c4,.36,6.09,2.3,6.09,5.61v7c0,2.34,1.54,3.75,4.17,3.75h1.91V23.54h-1.58c-1.8,0-2.85-.93-2.85-2.55V14.36c0-4.21-2.77-6.84-7.7-7.23Zm3.24,16.67-.11-1.59a11.18,11.18,0,0,1-6.26,1.73c-4,0-5.94-1.08-5.94-3.2s1.62-3.14,5.22-3.5l7-.72V15.08l-7.31.76c-4.46.47-6.58,2.05-6.58,4.9,0,3.09,2.63,4.71,7.66,4.71a11.46,11.46,0,0,0,6.36-1.65ZM251.37,7.42V2.63h-1.66V6.7c0,.54-.18.72-.72.72h-6.55V8.93h17.79V7.42Zm0,12.63V11.88h-1.69v8.21c0,3.09,1.91,5,5.15,5h4.32V23.54h-4.22a3.21,3.21,0,0,1-3.56-3.49ZM270.58,2.7V1.15c-4.9.4-7.85,2.95-7.85,6.91v.76h1.65V8.06C264.38,5,266.69,3.1,270.58,2.7Zm2.95-1.55V2.7c3.6.36,5.76,2.05,5.76,4.64V7.7c0,1.73-1,2.85-4.29,4.72-3.09,1.76-4.06,3.13-4.06,5.76v1.44h1.58V18.18c0-2.05.86-3.17,3.82-4.82C279.76,11.41,281,9.9,281,7.74V7.31C281,4,278,1.58,273.53,1.15Zm-1.8,24.3A1.28,1.28,0,0,0,272,22.9h-.23a1.28,1.28,0,1,0-.23,2.55A.89.89,0,0,0,271.73,25.45Z"></path> <path class="cls-1" d="M697.1,16V14.36a40.5,40.5,0,0,1-6.59.62c-6,0-8.78-2.2-8.78-6.88V1.44H680V8.21c0,5.58,3.49,8.39,10.4,8.39A44.26,44.26,0,0,0,697.1,16Zm4.72-14.58h-1.77V25.06h1.77ZM706,9h21V7.42H706Zm11.49,2.88h-1.7V25.06h1.7Zm20.21-3.2V7.13c-5.51.5-8.89,3.74-8.89,8.78v.76c0,4.93,3.38,8.17,8.89,8.67V23.76c-4.43-.47-7.17-3.06-7.17-7.13v-.72C730.53,11.81,733.2,9.18,737.7,8.68Zm2.95-1.55V8.71c4.39.47,7.06,3.17,7.06,7.2v.72c0,4-2.7,6.7-7.06,7.13v1.58c5.44-.5,8.78-3.74,8.78-8.67v-.76C749.43,10.91,746.09,7.63,740.65,7.13ZM761.19,2.7V1.15c-4.9.4-7.85,2.95-7.85,6.91v.76H755V8.06C755,5,757.3,3.1,761.19,2.7Zm2.95-1.55V2.7c3.6.36,5.76,2.05,5.76,4.64V7.7c0,1.73-1,2.85-4.28,4.72-3.1,1.76-4.07,3.13-4.07,5.76v1.44h1.58V18.18c0-2.05.87-3.17,3.82-4.82,3.42-1.95,4.68-3.46,4.68-5.62V7.31C771.63,4,768.64,1.58,764.14,1.15Zm-1.8,24.3a1.28,1.28,0,1,0-1.29-1.29,1.26,1.26,0,0,0,1.23,1.29Z"></path> <path class="cls-1" d="M842.14,25.06,832.71,1.44h-1.8v.29l9.36,23.33Zm1.66-3.75L851,3.74l8.6,21.32h1.84L852,1.44h-2l-7.2,17.42Zm18.43-2.45.94,2.45,8-19.58V1.44h-1.8Zm13.42,6.2h1.69V0h-1.69ZM880.3,8.5v1.65a8.15,8.15,0,0,1,4.86-1.55c5,0,7.7,2.49,7.7,7.13v9.33h1.69V15.73c0-5.69-3.24-8.71-9.18-8.71A9,9,0,0,0,880.3,8.5Zm28,.25V7.13c-4.64.43-7.7,3-7.7,6.44v.29h1.65v-.29c0-2.57,2.49-4.43,6.09-4.82Zm3-1.62V8.75c4,.36,6.09,2.3,6.09,5.61v7c0,2.34,1.54,3.75,4.17,3.75h1.91V23.54h-1.58C920,23.54,919,22.61,919,21V14.36c0-4.21-2.77-6.84-7.7-7.23Zm3.24,16.67-.11-1.59a11.18,11.18,0,0,1-6.26,1.73c-4,0-5.94-1.08-5.94-3.2s1.62-3.14,5.22-3.5l7-.72V15.08l-7.3.76c-4.47.47-6.59,2.05-6.59,4.9,0,3.09,2.62,4.71,7.67,4.71a11.44,11.44,0,0,0,6.35-1.65ZM931.37,7.42V2.63h-1.66V6.7c0,.54-.18.72-.72.72h-6.55V8.93h17.79V7.42Zm0,12.63V11.88h-1.69v8.21c0,3.09,1.91,5,5.15,5h4.32V23.54h-4.22a3.21,3.21,0,0,1-3.56-3.49ZM950.58,2.7V1.15c-4.9.4-7.85,2.95-7.85,6.91v.76h1.66V8.06C944.39,5,946.69,3.1,950.58,2.7Zm2.95-1.55V2.7c3.6.36,5.76,2.05,5.76,4.64V7.7c0,1.73-1,2.85-4.28,4.72-3.1,1.76-4.07,3.13-4.07,5.76v1.44h1.58V18.18c0-2.05.87-3.17,3.82-4.82C959.76,11.41,961,9.9,961,7.74V7.31C961,4,958,1.58,953.53,1.15Zm-1.8,24.3A1.28,1.28,0,1,0,952,22.9h-.23a1.28,1.28,0,0,0-.23,2.55A.89.89,0,0,0,951.73,25.45Z"></path> <path class="cls-1" d="M1377.1,16V14.36a40.5,40.5,0,0,1-6.59.62c-6,0-8.78-2.2-8.78-6.88V1.44H1360V8.21c0,5.58,3.49,8.39,10.41,8.39A44.12,44.12,0,0,0,1377.1,16Zm4.72-14.58h-1.77V25.06h1.77ZM1386,9h21V7.42h-21Zm11.49,2.88h-1.69V25.06h1.69Zm20.19-3.16V7.13c-5.51.5-8.89,3.74-8.89,8.78v.76c0,4.93,3.38,8.17,8.89,8.67V23.76c-4.43-.47-7.16-3.06-7.16-7.13v-.72c0-4.1,2.68-6.73,7.18-7.23Zm3-1.55V8.71c4.39.47,7.06,3.17,7.06,7.2v.72c0,4-2.7,6.7-7.06,7.13v1.58c5.44-.5,8.79-3.74,8.79-8.67v-.76c0-5-3.38-8.28-8.82-8.78Zm20.54-4.43V1.15c-4.89.4-7.85,2.95-7.85,6.91v.76H1435V8.06c0-3.06,2.3-5,6.19-5.36Zm3-1.55V2.7c3.6.36,5.76,2.05,5.76,4.64V7.7c0,1.73-1,2.85-4.28,4.72-3.1,1.76-4.07,3.13-4.07,5.76v1.44h1.59V18.18c0-2.05.86-3.17,3.81-4.82,3.42-1.95,4.68-3.46,4.68-5.62V7.31c-.08-3.31-3.07-5.73-7.57-6.16Zm-1.8,24.3a1.28,1.28,0,1,0-1.29-1.29,1.26,1.26,0,0,0,1.21,1.25Z"></path> <path class="cls-1" d="M1522.15,25.06l-9.44-23.62h-1.8v.29l9.36,23.33Zm1.65-3.75L1531,3.74l8.6,21.32h1.84L1532,1.44h-1.94l-7.2,17.42Zm18.43-2.45.94,2.45,8-19.58V1.44h-1.8Zm13.42,6.2h1.7V0h-1.7ZM1560.3,8.5v1.65a8.15,8.15,0,0,1,4.86-1.55c5,0,7.7,2.49,7.7,7.13v9.33h1.69V15.73c0-5.69-3.24-8.71-9.18-8.71A9,9,0,0,0,1560.3,8.5Zm28,.25V7.13c-4.64.43-7.7,3-7.7,6.44v.29h1.65v-.29c0-2.57,2.49-4.43,6.09-4.82Zm3-1.62V8.75c4,.36,6.09,2.3,6.09,5.61v7c0,2.34,1.54,3.75,4.17,3.75h1.91V23.54h-1.58c-1.8,0-2.85-.93-2.85-2.55V14.36c0-4.21-2.82-6.84-7.75-7.23Zm3.24,16.67-.11-1.59a11.18,11.18,0,0,1-6.26,1.73c-4,0-5.94-1.08-5.94-3.2s1.62-3.14,5.22-3.5l7-.72V15.08l-7.3.76c-4.47.47-6.59,2.05-6.59,4.9,0,3.09,2.63,4.71,7.67,4.71a11.45,11.45,0,0,0,6.3-1.65Zm16.84-16.38V2.63h-1.65V6.7c0,.54-.18.72-.72.72h-6.56V8.93h17.79V7.42Zm0,12.63V11.88h-1.69v8.21c0,3.09,1.91,5,5.15,5h4.32V23.54H1615a3.21,3.21,0,0,1-3.58-3.49Zm19.2-17.35V1.15c-4.9.4-7.85,2.95-7.85,6.91v.76h1.66V8.06C1624.39,5,1626.69,3.1,1630.58,2.7Zm3-1.55V2.7c3.6.36,5.76,2.05,5.76,4.64V7.7c0,1.73-1,2.85-4.28,4.72-3.1,1.76-4.07,3.13-4.07,5.76v1.44h1.58V18.18c0-2.05.87-3.17,3.82-4.82,3.42-1.95,4.68-3.46,4.68-5.62V7.31C1641,4,1638,1.58,1633.53,1.15Zm-1.8,24.3a1.28,1.28,0,1,0-1.29-1.29,1.26,1.26,0,0,0,1.23,1.29h.06Z"></path> <path class="cls-1" d="M357.1,16V14.36a40.5,40.5,0,0,1-6.59.62c-6,0-8.78-2.2-8.78-6.88V1.44H340V8.21c0,5.58,3.49,8.39,10.4,8.39A44.26,44.26,0,0,0,357.1,16Zm4.72-14.58h-1.77V25.06h1.77ZM366,9h21V7.42H366Zm11.49,2.88h-1.7V25.06h1.7Zm20.21-3.2V7.13c-5.51.5-8.89,3.74-8.89,8.78v.76c0,4.93,3.38,8.17,8.89,8.67V23.76c-4.43-.47-7.17-3.06-7.17-7.13v-.72C390.53,11.81,393.2,9.18,397.7,8.68Zm2.95-1.55V8.71c4.39.47,7.06,3.17,7.06,7.2v.72c0,4-2.7,6.7-7.06,7.13v1.58c5.44-.5,8.78-3.74,8.78-8.67v-.76c0-5-3.34-8.28-8.78-8.78ZM421.19,2.7V1.15c-4.9.4-7.85,2.95-7.85,6.91v.76H415V8.06C415,5,417.3,3.1,421.19,2.7Zm2.95-1.55V2.7c3.6.36,5.76,2.05,5.76,4.64V7.7c0,1.73-1,2.85-4.28,4.72-3.1,1.76-4.07,3.13-4.07,5.76v1.44h1.58V18.18c0-2.05.87-3.17,3.82-4.82,3.42-1.95,4.68-3.46,4.68-5.62V7.31C431.63,4,428.64,1.58,424.14,1.15Zm-1.8,24.3a1.28,1.28,0,1,0-1.29-1.29,1.26,1.26,0,0,0,1.23,1.29Z"></path> <path class="cls-1" d="M502.14,25.06,492.71,1.44h-1.8v.29l9.36,23.33Zm1.66-3.75L511,3.74l8.6,21.32h1.84L512,1.44h-1.95l-7.2,17.42Zm18.43-2.45.94,2.45,8-19.58V1.44h-1.8Zm13.42,6.2h1.69V0h-1.69ZM540.3,8.5v1.65a8.15,8.15,0,0,1,4.86-1.55c5,0,7.7,2.49,7.7,7.13v9.33h1.69V15.73c0-5.69-3.24-8.71-9.18-8.71A9,9,0,0,0,540.3,8.5Zm28,.25V7.13c-4.64.43-7.7,3-7.7,6.44v.29h1.65v-.29c0-2.57,2.49-4.43,6.09-4.82Zm3-1.62V8.75c4,.36,6.09,2.3,6.09,5.61v7c0,2.34,1.54,3.75,4.17,3.75h1.91V23.54h-1.58C580,23.54,579,22.61,579,21V14.36c0-4.21-2.77-6.84-7.7-7.23Zm3.24,16.67-.11-1.59a11.18,11.18,0,0,1-6.26,1.73c-4,0-5.94-1.08-5.94-3.2s1.62-3.14,5.22-3.5l7-.72V15.08l-7.3.76c-4.47.47-6.59,2.05-6.59,4.9,0,3.09,2.62,4.71,7.67,4.71a11.44,11.44,0,0,0,6.35-1.65ZM591.37,7.42V2.63h-1.66V6.7c0,.54-.18.72-.72.72h-6.55V8.93h17.79V7.42Zm0,12.63V11.88h-1.69v8.21c0,3.09,1.91,5,5.15,5h4.32V23.54h-4.22a3.21,3.21,0,0,1-3.56-3.49ZM610.58,2.7V1.15c-4.9.4-7.85,2.95-7.85,6.91v.76h1.66V8.06C604.39,5,606.69,3.1,610.58,2.7Zm2.95-1.55V2.7c3.6.36,5.76,2.05,5.76,4.64V7.7c0,1.73-1,2.85-4.28,4.72-3.1,1.76-4.07,3.13-4.07,5.76v1.44h1.58V18.18c0-2.05.87-3.17,3.82-4.82C619.76,11.41,621,9.9,621,7.74V7.31C621,4,618,1.58,613.53,1.15Zm-1.8,24.3A1.28,1.28,0,0,0,612,22.9h-.23a1.28,1.28,0,1,0-.23,2.55A.89.89,0,0,0,611.73,25.45Z"></path> <path class="cls-1" d="M1037.1,16V14.36a40.5,40.5,0,0,1-6.59.62c-6,0-8.78-2.2-8.78-6.88V1.44H1020V8.21c0,5.58,3.49,8.39,10.41,8.39A44.12,44.12,0,0,0,1037.1,16Zm4.72-14.58h-1.77V25.06h1.77ZM1046,9h21V7.42h-21Zm11.49,2.88h-1.69V25.06h1.69Zm20.19-3.16V7.13c-5.51.5-8.89,3.74-8.89,8.78v.76c0,4.93,3.38,8.17,8.89,8.67V23.76c-4.43-.47-7.16-3.06-7.16-7.13v-.72c0-4.1,2.68-6.73,7.18-7.23Zm3-1.55V8.71c4.39.47,7.06,3.17,7.06,7.2v.72c0,4-2.7,6.7-7.06,7.13v1.58c5.44-.5,8.79-3.74,8.79-8.67v-.76c0-5-3.38-8.28-8.82-8.78Zm20.54-4.43V1.15c-4.89.4-7.85,2.95-7.85,6.91v.76H1095V8.06c0-3.06,2.3-5,6.19-5.36Zm3-1.55V2.7c3.6.36,5.76,2.05,5.76,4.64V7.7c0,1.73-1,2.85-4.28,4.72-3.1,1.76-4.07,3.13-4.07,5.76v1.44h1.59V18.18c0-2.05.86-3.17,3.81-4.82,3.42-1.95,4.68-3.46,4.68-5.62V7.31c-.08-3.31-3.07-5.73-7.57-6.16Zm-1.8,24.3a1.28,1.28,0,1,0-1.29-1.29,1.26,1.26,0,0,0,1.21,1.25Z"></path> <path class="cls-1" d="M1182.15,25.06l-9.44-23.62h-1.8v.29l9.36,23.33Zm1.65-3.75L1191,3.74l8.6,21.32h1.84L1192,1.44h-1.94l-7.2,17.42Zm18.43-2.45.94,2.45,8-19.58V1.44h-1.8Zm13.42,6.2h1.7V0h-1.7ZM1220.3,8.5v1.65a8.15,8.15,0,0,1,4.86-1.55c5,0,7.7,2.49,7.7,7.13v9.33h1.69V15.73c0-5.69-3.24-8.71-9.18-8.71A9,9,0,0,0,1220.3,8.5Zm28,.25V7.13c-4.64.43-7.7,3-7.7,6.44v.29h1.65v-.29c0-2.57,2.49-4.43,6.09-4.82Zm3-1.62V8.75c4,.36,6.09,2.3,6.09,5.61v7c0,2.34,1.54,3.75,4.17,3.75h1.91V23.54h-1.58c-1.8,0-2.85-.93-2.85-2.55V14.36c0-4.21-2.82-6.84-7.75-7.23Zm3.24,16.67-.11-1.59a11.18,11.18,0,0,1-6.26,1.73c-4,0-5.94-1.08-5.94-3.2s1.62-3.14,5.22-3.5l7-.72V15.08l-7.3.76c-4.47.47-6.59,2.05-6.59,4.9,0,3.09,2.63,4.71,7.67,4.71a11.45,11.45,0,0,0,6.3-1.65Zm16.84-16.38V2.63h-1.65V6.7c0,.54-.18.72-.72.72h-6.56V8.93h17.79V7.42Zm0,12.63V11.88h-1.69v8.21c0,3.09,1.91,5,5.15,5h4.32V23.54H1275a3.21,3.21,0,0,1-3.58-3.49Zm19.2-17.35V1.15c-4.9.4-7.85,2.95-7.85,6.91v.76h1.66V8.06C1284.39,5,1286.69,3.1,1290.58,2.7Zm3-1.55V2.7c3.6.36,5.76,2.05,5.76,4.64V7.7c0,1.73-1,2.85-4.28,4.72-3.1,1.76-4.07,3.13-4.07,5.76v1.44h1.58V18.18c0-2.05.87-3.17,3.82-4.82,3.42-1.95,4.68-3.46,4.68-5.62V7.31C1301,4,1298,1.58,1293.53,1.15Zm-1.8,24.3a1.28,1.28,0,1,0-1.29-1.29,1.26,1.26,0,0,0,1.23,1.29h.06Z"></path> <path class="cls-1" d="M1717.1,16V14.36a40.5,40.5,0,0,1-6.59.62c-6,0-8.78-2.2-8.78-6.88V1.44H1700V8.21c0,5.58,3.49,8.39,10.41,8.39A44.12,44.12,0,0,0,1717.1,16Zm4.72-14.58h-1.77V25.06h1.77ZM1726,9h21V7.42h-21Zm11.49,2.88h-1.69V25.06h1.69Zm20.19-3.16V7.13c-5.51.5-8.89,3.74-8.89,8.78v.76c0,4.93,3.38,8.17,8.89,8.67V23.76c-4.43-.47-7.16-3.06-7.16-7.13v-.72c0-4.1,2.68-6.73,7.18-7.23Zm3-1.55V8.71c4.39.47,7.06,3.17,7.06,7.2v.72c0,4-2.7,6.7-7.06,7.13v1.58c5.44-.5,8.79-3.74,8.79-8.67v-.76c0-5-3.38-8.28-8.82-8.78Zm20.54-4.43V1.15c-4.89.4-7.85,2.95-7.85,6.91v.76H1775V8.06c0-3.06,2.3-5,6.19-5.36Zm3-1.55V2.7c3.6.36,5.76,2.05,5.76,4.64V7.7c0,1.73-1,2.85-4.28,4.72-3.1,1.76-4.07,3.13-4.07,5.76v1.44h1.59V18.18c0-2.05.86-3.17,3.81-4.82,3.42-1.95,4.68-3.46,4.68-5.62V7.31c-.08-3.31-3.07-5.73-7.57-6.16Zm-1.8,24.3a1.28,1.28,0,1,0-1.29-1.29,1.26,1.26,0,0,0,1.21,1.25Z"></path> <path class="cls-1" d="M1862.15,25.06l-9.44-23.62h-1.8v.29l9.36,23.33Zm1.65-3.75L1871,3.74l8.6,21.32h1.84L1872,1.44h-1.94l-7.2,17.42Zm18.43-2.45.94,2.45,8-19.58V1.44h-1.8Zm13.42,6.2h1.7V0h-1.7ZM1900.3,8.5v1.65a8.15,8.15,0,0,1,4.86-1.55c5,0,7.7,2.49,7.7,7.13v9.33h1.69V15.73c0-5.69-3.24-8.71-9.18-8.71A9,9,0,0,0,1900.3,8.5Zm28,.25V7.13c-4.64.43-7.7,3-7.7,6.44v.29h1.65v-.29c0-2.57,2.49-4.43,6.09-4.82Zm3-1.62V8.75c4,.36,6.09,2.3,6.09,5.61v7c0,2.34,1.54,3.75,4.17,3.75h1.91V23.54h-1.58c-1.8,0-2.85-.93-2.85-2.55V14.36c0-4.21-2.82-6.84-7.75-7.23Zm3.24,16.67-.11-1.59a11.18,11.18,0,0,1-6.26,1.73c-4,0-5.94-1.08-5.94-3.2s1.62-3.14,5.22-3.5l7-.72V15.08l-7.3.76c-4.47.47-6.59,2.05-6.59,4.9,0,3.09,2.63,4.71,7.67,4.71a11.45,11.45,0,0,0,6.3-1.65Zm16.84-16.38V2.63h-1.65V6.7c0,.54-.18.72-.72.72h-6.56V8.93h17.79V7.42Zm0,12.63V11.88h-1.69v8.21c0,3.09,1.91,5,5.15,5h4.32V23.54H1955a3.21,3.21,0,0,1-3.58-3.49Zm19.2-17.35V1.15c-4.9.4-7.85,2.95-7.85,6.91v.76h1.66V8.06C1964.39,5,1966.69,3.1,1970.58,2.7Zm3-1.55V2.7c3.6.36,5.76,2.05,5.76,4.64V7.7c0,1.73-1,2.85-4.28,4.72-3.1,1.76-4.07,3.13-4.07,5.76v1.44h1.58V18.18c0-2.05.87-3.17,3.82-4.82,3.42-1.95,4.68-3.46,4.68-5.62V7.31C1981,4,1978,1.58,1973.53,1.15Zm-1.8,24.3a1.28,1.28,0,1,0-1.29-1.29,1.26,1.26,0,0,0,1.23,1.29h.06Z"></path> <path class="cls-1" d="M2397.1,16V14.36a40.5,40.5,0,0,1-6.59.62c-6,0-8.78-2.2-8.78-6.88V1.44H2380V8.21c0,5.58,3.49,8.39,10.4,8.39A44.26,44.26,0,0,0,2397.1,16Zm4.72-14.58h-1.77V25.06h1.77ZM2406,9h21V7.42h-21Zm11.49,2.88h-1.7V25.06h1.7Zm20.19-3.16V7.13c-5.51.5-8.89,3.74-8.89,8.78v.76c0,4.93,3.38,8.17,8.89,8.67V23.76c-4.43-.47-7.17-3.06-7.17-7.13v-.72c0-4.1,2.69-6.73,7.19-7.23Zm3-1.55V8.71c4.39.47,7.06,3.17,7.06,7.2v.72c0,4-2.7,6.7-7.06,7.13v1.58c5.44-.5,8.78-3.74,8.78-8.67v-.76c0-5-3.37-8.28-8.81-8.78Zm20.54-4.43V1.15c-4.9.4-7.85,2.95-7.85,6.91v.76H2455V8.06c0-3.06,2.3-5,6.19-5.36Zm3-1.55V2.7c3.6.36,5.76,2.05,5.76,4.64V7.7c0,1.73-1,2.85-4.28,4.72-3.1,1.76-4.07,3.13-4.07,5.76v1.44h1.58V18.18c0-2.05.87-3.17,3.82-4.82,3.42-1.95,4.68-3.46,4.68-5.62V7.31c0-3.31-3-5.73-7.52-6.16Zm-1.8,24.3a1.28,1.28,0,1,0-1.29-1.29,1.28,1.28,0,0,0,1.29,1.29Z"></path> <path class="cls-1" d="M2542.14,25.06l-9.43-23.62h-1.8v.29l9.36,23.33Zm1.66-3.75L2551,3.74l8.6,21.32h1.84L2552,1.44h-2l-7.2,17.42Zm18.43-2.45.94,2.45,7.95-19.58V1.44h-1.8Zm13.42,6.2h1.69V0h-1.69ZM2580.3,8.5v1.65a8.15,8.15,0,0,1,4.86-1.55c5,0,7.7,2.49,7.7,7.13v9.33h1.69V15.73c0-5.69-3.24-8.71-9.18-8.71A9,9,0,0,0,2580.3,8.5Zm28,.25V7.13c-4.64.43-7.7,3-7.7,6.44v.29h1.65v-.29c0-2.57,2.49-4.43,6.09-4.82Zm2.95-1.62V8.75c4,.36,6.09,2.3,6.09,5.61v7c0,2.34,1.54,3.75,4.17,3.75h1.91V23.54h-1.58c-1.81,0-2.85-.93-2.85-2.55V14.36c0-4.21-2.77-6.84-7.7-7.23Zm3.24,16.67-.11-1.59a11.18,11.18,0,0,1-6.26,1.73c-4,0-5.94-1.08-5.94-3.2s1.62-3.14,5.22-3.5l7-.72V15.08l-7.3.76c-4.47.47-6.59,2.05-6.59,4.9,0,3.09,2.62,4.71,7.67,4.71a11.44,11.44,0,0,0,6.35-1.65Zm16.84-16.38V2.63h-1.66V6.7c0,.54-.18.72-.72.72h-6.55V8.93h17.79V7.42Zm0,12.63V11.88h-1.69v8.21c0,3.09,1.91,5,5.15,5h4.32V23.54h-4.22a3.21,3.21,0,0,1-3.52-2.85,3.42,3.42,0,0,1,0-.64ZM2650.58,2.7V1.15c-4.9.4-7.85,2.95-7.85,6.91v.76h1.66V8.06C2644.39,5,2646.69,3.1,2650.58,2.7Zm3-1.55V2.7c3.6.36,5.76,2.05,5.76,4.64V7.7c0,1.73-1,2.85-4.28,4.72-3.1,1.76-4.07,3.13-4.07,5.76v1.44h1.58V18.18c0-2.05.87-3.17,3.82-4.82,3.42-1.95,4.68-3.46,4.68-5.62V7.31C2661,4,2658,1.58,2653.53,1.15Zm-1.8,24.3a1.28,1.28,0,1,0,.23-2.55h-.23a1.28,1.28,0,1,0-.23,2.55A.89.89,0,0,0,2651.78,25.45Z"></path> <path class="cls-1" d="M3077.1,16V14.36a40.5,40.5,0,0,1-6.59.62c-6,0-8.78-2.2-8.78-6.88V1.44H3060V8.21c0,5.58,3.49,8.39,10.41,8.39A44.12,44.12,0,0,0,3077.1,16Zm4.72-14.58h-1.77V25.06h1.77ZM3086,9h21V7.42h-21Zm11.49,2.88h-1.69V25.06h1.69Zm20.19-3.16V7.13c-5.51.5-8.89,3.74-8.89,8.78v.76c0,4.93,3.38,8.17,8.89,8.67V23.76c-4.43-.47-7.16-3.06-7.16-7.13v-.72c0-4.1,2.68-6.73,7.18-7.23Zm3-1.55V8.71c4.39.47,7.06,3.17,7.06,7.2v.72c0,4-2.7,6.7-7.06,7.13v1.58c5.44-.5,8.79-3.74,8.79-8.67v-.76c0-5-3.38-8.28-8.82-8.78Zm20.54-4.43V1.15c-4.89.4-7.85,2.95-7.85,6.91v.76H3135V8.06c0-3.06,2.3-5,6.19-5.36Zm3-1.55V2.7c3.6.36,5.76,2.05,5.76,4.64V7.7c0,1.73-1,2.85-4.28,4.72-3.1,1.76-4.07,3.13-4.07,5.76v1.44h1.59V18.18c0-2.05.86-3.17,3.81-4.82,3.42-1.95,4.68-3.46,4.68-5.62V7.31c0-3.31-3-5.73-7.52-6.16Zm-1.8,24.3a1.28,1.28,0,1,0-1.29-1.29,1.28,1.28,0,0,0,1.29,1.29Z"></path> <path class="cls-1" d="M3222.15,25.06l-9.44-23.62h-1.8v.29l9.36,23.33Zm1.65-3.75L3231,3.74l8.6,21.32h1.84L3232,1.44h-1.94l-7.2,17.42Zm18.43-2.45.94,2.45,8-19.58V1.44h-1.8Zm13.42,6.2h1.7V0h-1.7ZM3260.3,8.5v1.65a8.15,8.15,0,0,1,4.86-1.55c5,0,7.7,2.49,7.7,7.13v9.33h1.69V15.73c0-5.69-3.24-8.71-9.18-8.71A9,9,0,0,0,3260.3,8.5Zm28,.25V7.13c-4.64.43-7.7,3-7.7,6.44v.29h1.65v-.29c0-2.57,2.49-4.43,6.09-4.82Zm2.95-1.62V8.75c4,.36,6.09,2.3,6.09,5.61v7c0,2.34,1.54,3.75,4.17,3.75h1.91V23.54h-1.58c-1.8,0-2.85-.93-2.85-2.55V14.36c0-4.21-2.77-6.84-7.7-7.23Zm3.24,16.67-.11-1.59a11.18,11.18,0,0,1-6.26,1.73c-4,0-5.94-1.08-5.94-3.2s1.62-3.14,5.22-3.5l7-.72V15.08l-7.3.76c-4.47.47-6.59,2.05-6.59,4.9,0,3.09,2.63,4.71,7.67,4.71a11.44,11.44,0,0,0,6.35-1.65Zm16.84-16.38V2.63h-1.65V6.7c0,.54-.18.72-.72.72h-6.56V8.93h17.79V7.42Zm0,12.63V11.88h-1.69v8.21c0,3.09,1.91,5,5.15,5h4.32V23.54h-4.21a3.22,3.22,0,0,1-3.53-2.86,3.31,3.31,0,0,1,0-.63ZM3330.58,2.7V1.15c-4.9.4-7.85,2.95-7.85,6.91v.76h1.66V8.06C3324.39,5,3326.69,3.1,3330.58,2.7Zm3-1.55V2.7c3.6.36,5.76,2.05,5.76,4.64V7.7c0,1.73-1,2.85-4.28,4.72-3.1,1.76-4.07,3.13-4.07,5.76v1.44h1.58V18.18c0-2.05.87-3.17,3.82-4.82,3.42-1.95,4.68-3.46,4.68-5.62V7.31C3341,4,3338,1.58,3333.53,1.15Zm-1.8,24.3a1.28,1.28,0,1,0-1.29-1.29,1.26,1.26,0,0,0,1.23,1.29h.06Z"></path> <path class="cls-1" d="M2057.1,16V14.36a40.5,40.5,0,0,1-6.59.62c-6,0-8.78-2.2-8.78-6.88V1.44H2040V8.21c0,5.58,3.49,8.39,10.4,8.39A44.26,44.26,0,0,0,2057.1,16Zm4.72-14.58h-1.77V25.06h1.77ZM2066,9h21V7.42h-21Zm11.49,2.88h-1.7V25.06h1.7Zm20.19-3.16V7.13c-5.51.5-8.89,3.74-8.89,8.78v.76c0,4.93,3.38,8.17,8.89,8.67V23.76c-4.43-.47-7.17-3.06-7.17-7.13v-.72c0-4.1,2.69-6.73,7.19-7.23Zm3-1.55V8.71c4.39.47,7.06,3.17,7.06,7.2v.72c0,4-2.7,6.7-7.06,7.13v1.58c5.44-.5,8.78-3.74,8.78-8.67v-.76c0-5-3.37-8.28-8.81-8.78Zm20.54-4.43V1.15c-4.9.4-7.85,2.95-7.85,6.91v.76H2115V8.06c0-3.06,2.3-5,6.19-5.36Zm3-1.55V2.7c3.6.36,5.76,2.05,5.76,4.64V7.7c0,1.73-1,2.85-4.28,4.72-3.1,1.76-4.07,3.13-4.07,5.76v1.44h1.58V18.18c0-2.05.87-3.17,3.82-4.82,3.42-1.95,4.68-3.46,4.68-5.62V7.31c0-3.31-3-5.73-7.52-6.16Zm-1.8,24.3a1.28,1.28,0,1,0-1.29-1.29,1.28,1.28,0,0,0,1.29,1.29Z"></path> <path class="cls-1" d="M2202.14,25.06l-9.43-23.62h-1.8v.29l9.36,23.33Zm1.66-3.75L2211,3.74l8.6,21.32h1.84L2212,1.44h-2l-7.2,17.42Zm18.43-2.45.94,2.45,7.95-19.58V1.44h-1.8Zm13.42,6.2h1.69V0h-1.69ZM2240.3,8.5v1.65a8.15,8.15,0,0,1,4.86-1.55c5,0,7.7,2.49,7.7,7.13v9.33h1.69V15.73c0-5.69-3.24-8.71-9.18-8.71A9,9,0,0,0,2240.3,8.5Zm28,.25V7.13c-4.64.43-7.7,3-7.7,6.44v.29h1.65v-.29c0-2.57,2.49-4.43,6.09-4.82Zm2.95-1.62V8.75c4,.36,6.09,2.3,6.09,5.61v7c0,2.34,1.54,3.75,4.17,3.75h1.91V23.54h-1.58c-1.81,0-2.85-.93-2.85-2.55V14.36c0-4.21-2.77-6.84-7.7-7.23Zm3.24,16.67-.11-1.59a11.18,11.18,0,0,1-6.26,1.73c-4,0-5.94-1.08-5.94-3.2s1.62-3.14,5.22-3.5l7-.72V15.08l-7.3.76c-4.47.47-6.59,2.05-6.59,4.9,0,3.09,2.62,4.71,7.67,4.71a11.44,11.44,0,0,0,6.35-1.65Zm16.84-16.38V2.63h-1.66V6.7c0,.54-.18.72-.72.72h-6.55V8.93h17.79V7.42Zm0,12.63V11.88h-1.69v8.21c0,3.09,1.91,5,5.15,5h4.32V23.54h-4.22a3.21,3.21,0,0,1-3.52-2.85,3.42,3.42,0,0,1,0-.64ZM2310.58,2.7V1.15c-4.9.4-7.85,2.95-7.85,6.91v.76h1.66V8.06C2304.39,5,2306.69,3.1,2310.58,2.7Zm3-1.55V2.7c3.6.36,5.76,2.05,5.76,4.64V7.7c0,1.73-1,2.85-4.28,4.72-3.1,1.76-4.07,3.13-4.07,5.76v1.44h1.58V18.18c0-2.05.87-3.17,3.82-4.82,3.42-1.95,4.68-3.46,4.68-5.62V7.31C2321,4,2318,1.58,2313.53,1.15Zm-1.8,24.3a1.28,1.28,0,0,0,.23-2.55h-.23a1.28,1.28,0,1,0-.23,2.55A.89.89,0,0,0,2311.78,25.45Z"></path> <path class="cls-1" d="M2737.1,16V14.36a40.5,40.5,0,0,1-6.59.62c-6,0-8.78-2.2-8.78-6.88V1.44H2720V8.21c0,5.58,3.49,8.39,10.41,8.39A44.12,44.12,0,0,0,2737.1,16Zm4.72-14.58h-1.77V25.06h1.77ZM2746,9h21V7.42h-21Zm11.49,2.88h-1.69V25.06h1.69Zm20.19-3.16V7.13c-5.51.5-8.89,3.74-8.89,8.78v.76c0,4.93,3.38,8.17,8.89,8.67V23.76c-4.43-.47-7.16-3.06-7.16-7.13v-.72c0-4.1,2.68-6.73,7.18-7.23Zm3-1.55V8.71c4.39.47,7.06,3.17,7.06,7.2v.72c0,4-2.7,6.7-7.06,7.13v1.58c5.44-.5,8.79-3.74,8.79-8.67v-.76c0-5-3.38-8.28-8.82-8.78Zm20.54-4.43V1.15c-4.89.4-7.85,2.95-7.85,6.91v.76H2795V8.06c0-3.06,2.3-5,6.19-5.36Zm3-1.55V2.7c3.6.36,5.76,2.05,5.76,4.64V7.7c0,1.73-1,2.85-4.28,4.72-3.1,1.76-4.07,3.13-4.07,5.76v1.44h1.59V18.18c0-2.05.86-3.17,3.81-4.82,3.42-1.95,4.68-3.46,4.68-5.62V7.31c0-3.31-3-5.73-7.52-6.16Zm-1.8,24.3a1.28,1.28,0,1,0-1.29-1.29,1.28,1.28,0,0,0,1.29,1.29Z"></path> <path class="cls-1" d="M2882.15,25.06l-9.44-23.62h-1.8v.29l9.36,23.33Zm1.65-3.75L2891,3.74l8.6,21.32h1.84L2892,1.44h-1.94l-7.2,17.42Zm18.43-2.45.94,2.45,8-19.58V1.44h-1.8Zm13.42,6.2h1.7V0h-1.7ZM2920.3,8.5v1.65a8.15,8.15,0,0,1,4.86-1.55c5,0,7.7,2.49,7.7,7.13v9.33h1.69V15.73c0-5.69-3.24-8.71-9.18-8.71A9,9,0,0,0,2920.3,8.5Zm28,.25V7.13c-4.64.43-7.7,3-7.7,6.44v.29h1.65v-.29c0-2.57,2.49-4.43,6.09-4.82Zm2.95-1.62V8.75c4,.36,6.09,2.3,6.09,5.61v7c0,2.34,1.54,3.75,4.17,3.75h1.91V23.54h-1.58c-1.8,0-2.85-.93-2.85-2.55V14.36c0-4.21-2.77-6.84-7.7-7.23Zm3.24,16.67-.11-1.59a11.18,11.18,0,0,1-6.26,1.73c-4,0-5.94-1.08-5.94-3.2s1.62-3.14,5.22-3.5l7-.72V15.08l-7.3.76c-4.47.47-6.59,2.05-6.59,4.9,0,3.09,2.63,4.71,7.67,4.71a11.44,11.44,0,0,0,6.35-1.65Zm16.84-16.38V2.63h-1.65V6.7c0,.54-.18.72-.72.72h-6.56V8.93h17.79V7.42Zm0,12.63V11.88h-1.69v8.21c0,3.09,1.91,5,5.15,5h4.32V23.54h-4.21a3.22,3.22,0,0,1-3.53-2.86,3.31,3.31,0,0,1,0-.63ZM2990.58,2.7V1.15c-4.9.4-7.85,2.95-7.85,6.91v.76h1.66V8.06C2984.39,5,2986.69,3.1,2990.58,2.7Zm3-1.55V2.7c3.6.36,5.76,2.05,5.76,4.64V7.7c0,1.73-1,2.85-4.28,4.72-3.1,1.76-4.07,3.13-4.07,5.76v1.44h1.58V18.18c0-2.05.87-3.17,3.82-4.82,3.42-1.95,4.68-3.46,4.68-5.62V7.31C3001,4,2998,1.58,2993.53,1.15Zm-1.8,24.3a1.28,1.28,0,1,0-1.29-1.29,1.26,1.26,0,0,0,1.23,1.29h.06Z"></path> <path class="cls-1" d="M3417.1,16V14.36a40.5,40.5,0,0,1-6.59.62c-6,0-8.78-2.2-8.78-6.88V1.44H3400V8.21c0,5.58,3.49,8.39,10.41,8.39A44.12,44.12,0,0,0,3417.1,16Zm4.72-14.58h-1.77V25.06h1.77ZM3426,9h21V7.42h-21Zm11.49,2.88h-1.69V25.06h1.69Zm20.19-3.16V7.13c-5.51.5-8.89,3.74-8.89,8.78v.76c0,4.93,3.38,8.17,8.89,8.67V23.76c-4.43-.47-7.16-3.06-7.16-7.13v-.72c0-4.1,2.68-6.73,7.18-7.23Zm3-1.55V8.71c4.39.47,7.06,3.17,7.06,7.2v.72c0,4-2.7,6.7-7.06,7.13v1.58c5.44-.5,8.79-3.74,8.79-8.67v-.76c0-5-3.38-8.28-8.82-8.78Zm20.54-4.43V1.15c-4.89.4-7.85,2.95-7.85,6.91v.76H3475V8.06c0-3.06,2.3-5,6.19-5.36Zm3-1.55V2.7c3.6.36,5.76,2.05,5.76,4.64V7.7c0,1.73-1,2.85-4.28,4.72-3.1,1.76-4.07,3.13-4.07,5.76v1.44h1.59V18.18c0-2.05.86-3.17,3.81-4.82,3.42-1.95,4.68-3.46,4.68-5.62V7.31c0-3.31-3-5.73-7.52-6.16Zm-1.8,24.3a1.28,1.28,0,1,0-1.29-1.29,1.28,1.28,0,0,0,1.29,1.29Z"></path> <path class="cls-1" d="M3562.15,25.06l-9.44-23.62h-1.8v.29l9.36,23.33Zm1.65-3.75L3571,3.74l8.6,21.32h1.84L3572,1.44h-1.94l-7.2,17.42Zm18.43-2.45.94,2.45,8-19.58V1.44h-1.8Zm13.42,6.2h1.7V0h-1.7ZM3600.3,8.5v1.65a8.15,8.15,0,0,1,4.86-1.55c5,0,7.7,2.49,7.7,7.13v9.33h1.69V15.73c0-5.69-3.24-8.71-9.18-8.71A9,9,0,0,0,3600.3,8.5Zm28,.25V7.13c-4.64.43-7.7,3-7.7,6.44v.29h1.65v-.29c0-2.57,2.49-4.43,6.09-4.82Zm2.95-1.62V8.75c4,.36,6.09,2.3,6.09,5.61v7c0,2.34,1.54,3.75,4.17,3.75h1.91V23.54h-1.58c-1.8,0-2.85-.93-2.85-2.55V14.36c0-4.21-2.77-6.84-7.7-7.23Zm3.24,16.67-.11-1.59a11.18,11.18,0,0,1-6.26,1.73c-4,0-5.94-1.08-5.94-3.2s1.62-3.14,5.22-3.5l7-.72V15.08l-7.3.76c-4.47.47-6.59,2.05-6.59,4.9,0,3.09,2.63,4.71,7.67,4.71a11.44,11.44,0,0,0,6.35-1.65Zm16.84-16.38V2.63h-1.65V6.7c0,.54-.18.72-.72.72h-6.56V8.93h17.79V7.42Zm0,12.63V11.88h-1.69v8.21c0,3.09,1.91,5,5.15,5h4.32V23.54h-4.21a3.22,3.22,0,0,1-3.53-2.86,3.31,3.31,0,0,1,0-.63ZM3670.58,2.7V1.15c-4.9.4-7.85,2.95-7.85,6.91v.76h1.66V8.06C3664.39,5,3666.69,3.1,3670.58,2.7Zm3-1.55V2.7c3.6.36,5.76,2.05,5.76,4.64V7.7c0,1.73-1,2.85-4.28,4.72-3.1,1.76-4.07,3.13-4.07,5.76v1.44h1.58V18.18c0-2.05.87-3.17,3.82-4.82,3.42-1.95,4.68-3.46,4.68-5.62V7.31C3681,4,3678,1.58,3673.53,1.15Zm-1.8,24.3a1.28,1.28,0,1,0-1.29-1.29,1.26,1.26,0,0,0,1.23,1.29h.06Z"></path> </g> </g> </g> </g> </svg> 